<?xml version="1.0" encoding="utf-8" standalone="no"?>
<!DOCTYPE svg PUBLIC "-//W3C//DTD SVG 1.1//EN"
  "http://www.w3.org/Graphics/SVG/1.1/DTD/svg11.dtd">
<!-- Created with matplotlib (http://matplotlib.org/) -->
<svg height="432pt" version="1.1" viewBox="0 0 972 432" width="972pt" xmlns="http://www.w3.org/2000/svg" xmlns:xlink="http://www.w3.org/1999/xlink">
 <defs>
  <style type="text/css">
*{stroke-linecap:butt;stroke-linejoin:round;}
  </style>
 </defs>
 <g id="figure_1">
  <g id="patch_1">
   <path d="M 0 432 
L 972 432 
L 972 0 
L 0 0 
z
" style="fill:none;"/>
  </g>
  <g id="axes_1">
   <g id="patch_2">
    <path d="M 72.9 388.8 
L 923.4 388.8 
L 923.4 51.84 
L 72.9 51.84 
z
" style="fill:none;"/>
   </g>
   <g id="PolyCollection_1">
    <path clip-path="url(#pd4128b5582)" d="M 90.057061 51.84 
L 90.057061 388.8 
L 92.508069 388.8 
L 94.959078 388.8 
L 97.410086 388.8 
L 99.861095 388.8 
L 102.312104 388.8 
L 104.763112 388.8 
L 107.214121 388.8 
L 107.214121 51.84 
L 107.214121 51.84 
L 104.763112 51.84 
L 102.312104 51.84 
L 99.861095 51.84 
L 97.410086 51.84 
L 94.959078 51.84 
L 92.508069 51.84 
L 90.057061 51.84 
z
" style="fill:#bbbbbb;fill-opacity:0.3;stroke:#bbbbbb;stroke-opacity:0.3;"/>
    <path clip-path="url(#pd4128b5582)" d="M 403.786167 51.84 
L 403.786167 388.8 
L 406.237176 388.8 
L 408.688184 388.8 
L 411.139193 388.8 
L 413.590202 388.8 
L 416.04121 388.8 
L 418.492219 388.8 
L 420.943228 388.8 
L 420.943228 51.84 
L 420.943228 51.84 
L 418.492219 51.84 
L 416.04121 51.84 
L 413.590202 51.84 
L 411.139193 51.84 
L 408.688184 51.84 
L 406.237176 51.84 
L 403.786167 51.84 
z
" style="fill:#bbbbbb;fill-opacity:0.3;stroke:#bbbbbb;stroke-opacity:0.3;"/>
    <path clip-path="url(#pd4128b5582)" d="M 602.317867 51.84 
L 602.317867 388.8 
L 604.768876 388.8 
L 607.219885 388.8 
L 609.670893 388.8 
L 612.121902 388.8 
L 614.572911 388.8 
L 617.023919 388.8 
L 619.474928 388.8 
L 621.925937 388.8 
L 624.376945 388.8 
L 626.827954 388.8 
L 629.278963 388.8 
L 631.729971 388.8 
L 634.18098 388.8 
L 636.631988 388.8 
L 639.082997 388.8 
L 641.534006 388.8 
L 643.985014 388.8 
L 643.985014 51.84 
L 643.985014 51.84 
L 641.534006 51.84 
L 639.082997 51.84 
L 636.631988 51.84 
L 634.18098 51.84 
L 631.729971 51.84 
L 629.278963 51.84 
L 626.827954 51.84 
L 624.376945 51.84 
L 621.925937 51.84 
L 619.474928 51.84 
L 617.023919 51.84 
L 614.572911 51.84 
L 612.121902 51.84 
L 609.670893 51.84 
L 607.219885 51.84 
L 604.768876 51.84 
L 602.317867 51.84 
z
" style="fill:#bbbbbb;fill-opacity:0.3;stroke:#bbbbbb;stroke-opacity:0.3;"/>
   </g>
   <g id="matplotlib.axis_1">
    <g id="xtick_1">
     <g id="line2d_1">
      <defs>
       <path d="M 0 0 
L 0 3.5 
" id="m22947d5189" style="stroke:#000000;stroke-width:0.8;"/>
      </defs>
      <g>
       <use style="stroke:#000000;stroke-width:0.8;" x="190.548415" xlink:href="#m22947d5189" y="388.8"/>
      </g>
     </g>
     <g id="text_1">
      <!-- 1994 -->
      <defs>
       <path d="M 12.40625 8.296875 
L 28.515625 8.296875 
L 28.515625 63.921875 
L 10.984375 60.40625 
L 10.984375 69.390625 
L 28.421875 72.90625 
L 38.28125 72.90625 
L 38.28125 8.296875 
L 54.390625 8.296875 
L 54.390625 0 
L 12.40625 0 
z
" id="DejaVuSans-31"/>
       <path d="M 10.984375 1.515625 
L 10.984375 10.5 
Q 14.703125 8.734375 18.5 7.8125 
Q 22.3125 6.890625 25.984375 6.890625 
Q 35.75 6.890625 40.890625 13.453125 
Q 46.046875 20.015625 46.78125 33.40625 
Q 43.953125 29.203125 39.59375 26.953125 
Q 35.25 24.703125 29.984375 24.703125 
Q 19.046875 24.703125 12.671875 31.3125 
Q 6.296875 37.9375 6.296875 49.421875 
Q 6.296875 60.640625 12.9375 67.421875 
Q 19.578125 74.21875 30.609375 74.21875 
Q 43.265625 74.21875 49.921875 64.515625 
Q 56.59375 54.828125 56.59375 36.375 
Q 56.59375 19.140625 48.40625 8.859375 
Q 40.234375 -1.421875 26.421875 -1.421875 
Q 22.703125 -1.421875 18.890625 -0.6875 
Q 15.09375 0.046875 10.984375 1.515625 
z
M 30.609375 32.421875 
Q 37.25 32.421875 41.125 36.953125 
Q 45.015625 41.5 45.015625 49.421875 
Q 45.015625 57.28125 41.125 61.84375 
Q 37.25 66.40625 30.609375 66.40625 
Q 23.96875 66.40625 20.09375 61.84375 
Q 16.21875 57.28125 16.21875 49.421875 
Q 16.21875 41.5 20.09375 36.953125 
Q 23.96875 32.421875 30.609375 32.421875 
z
" id="DejaVuSans-39"/>
       <path d="M 37.796875 64.3125 
L 12.890625 25.390625 
L 37.796875 25.390625 
z
M 35.203125 72.90625 
L 47.609375 72.90625 
L 47.609375 25.390625 
L 58.015625 25.390625 
L 58.015625 17.1875 
L 47.609375 17.1875 
L 47.609375 0 
L 37.796875 0 
L 37.796875 17.1875 
L 4.890625 17.1875 
L 4.890625 26.703125 
z
" id="DejaVuSans-34"/>
      </defs>
      <g transform="translate(172.733415 407.937813)scale(0.14 -0.14)">
       <use xlink:href="#DejaVuSans-31"/>
       <use x="63.623047" xlink:href="#DejaVuSans-39"/>
       <use x="127.246094" xlink:href="#DejaVuSans-39"/>
       <use x="190.869141" xlink:href="#DejaVuSans-34"/>
      </g>
     </g>
    </g>
    <g id="xtick_2">
     <g id="line2d_2">
      <g>
       <use style="stroke:#000000;stroke-width:0.8;" x="337.608934" xlink:href="#m22947d5189" y="388.8"/>
      </g>
     </g>
     <g id="text_2">
      <!-- 1999 -->
      <g transform="translate(319.793934 407.937813)scale(0.14 -0.14)">
       <use xlink:href="#DejaVuSans-31"/>
       <use x="63.623047" xlink:href="#DejaVuSans-39"/>
       <use x="127.246094" xlink:href="#DejaVuSans-39"/>
       <use x="190.869141" xlink:href="#DejaVuSans-39"/>
      </g>
     </g>
    </g>
    <g id="xtick_3">
     <g id="line2d_3">
      <g>
       <use style="stroke:#000000;stroke-width:0.8;" x="484.669452" xlink:href="#m22947d5189" y="388.8"/>
      </g>
     </g>
     <g id="text_3">
      <!-- 2004 -->
      <defs>
       <path d="M 19.1875 8.296875 
L 53.609375 8.296875 
L 53.609375 0 
L 7.328125 0 
L 7.328125 8.296875 
Q 12.9375 14.109375 22.625 23.890625 
Q 32.328125 33.6875 34.8125 36.53125 
Q 39.546875 41.84375 41.421875 45.53125 
Q 43.3125 49.21875 43.3125 52.78125 
Q 43.3125 58.59375 39.234375 62.25 
Q 35.15625 65.921875 28.609375 65.921875 
Q 23.96875 65.921875 18.8125 64.3125 
Q 13.671875 62.703125 7.8125 59.421875 
L 7.8125 69.390625 
Q 13.765625 71.78125 18.9375 73 
Q 24.125 74.21875 28.421875 74.21875 
Q 39.75 74.21875 46.484375 68.546875 
Q 53.21875 62.890625 53.21875 53.421875 
Q 53.21875 48.921875 51.53125 44.890625 
Q 49.859375 40.875 45.40625 35.40625 
Q 44.1875 33.984375 37.640625 27.21875 
Q 31.109375 20.453125 19.1875 8.296875 
z
" id="DejaVuSans-32"/>
       <path d="M 31.78125 66.40625 
Q 24.171875 66.40625 20.328125 58.90625 
Q 16.5 51.421875 16.5 36.375 
Q 16.5 21.390625 20.328125 13.890625 
Q 24.171875 6.390625 31.78125 6.390625 
Q 39.453125 6.390625 43.28125 13.890625 
Q 47.125 21.390625 47.125 36.375 
Q 47.125 51.421875 43.28125 58.90625 
Q 39.453125 66.40625 31.78125 66.40625 
z
M 31.78125 74.21875 
Q 44.046875 74.21875 50.515625 64.515625 
Q 56.984375 54.828125 56.984375 36.375 
Q 56.984375 17.96875 50.515625 8.265625 
Q 44.046875 -1.421875 31.78125 -1.421875 
Q 19.53125 -1.421875 13.0625 8.265625 
Q 6.59375 17.96875 6.59375 36.375 
Q 6.59375 54.828125 13.0625 64.515625 
Q 19.53125 74.21875 31.78125 74.21875 
z
" id="DejaVuSans-30"/>
      </defs>
      <g transform="translate(466.854452 407.937813)scale(0.14 -0.14)">
       <use xlink:href="#DejaVuSans-32"/>
       <use x="63.623047" xlink:href="#DejaVuSans-30"/>
       <use x="127.246094" xlink:href="#DejaVuSans-30"/>
       <use x="190.869141" xlink:href="#DejaVuSans-34"/>
      </g>
     </g>
    </g>
    <g id="xtick_4">
     <g id="line2d_4">
      <g>
       <use style="stroke:#000000;stroke-width:0.8;" x="631.729971" xlink:href="#m22947d5189" y="388.8"/>
      </g>
     </g>
     <g id="text_4">
      <!-- 2009 -->
      <g transform="translate(613.914971 407.937813)scale(0.14 -0.14)">
       <use xlink:href="#DejaVuSans-32"/>
       <use x="63.623047" xlink:href="#DejaVuSans-30"/>
       <use x="127.246094" xlink:href="#DejaVuSans-30"/>
       <use x="190.869141" xlink:href="#DejaVuSans-39"/>
      </g>
     </g>
    </g>
    <g id="xtick_5">
     <g id="line2d_5">
      <g>
       <use style="stroke:#000000;stroke-width:0.8;" x="778.79049" xlink:href="#m22947d5189" y="388.8"/>
      </g>
     </g>
     <g id="text_5">
      <!-- 2014 -->
      <g transform="translate(760.97549 407.937813)scale(0.14 -0.14)">
       <use xlink:href="#DejaVuSans-32"/>
       <use x="63.623047" xlink:href="#DejaVuSans-30"/>
       <use x="127.246094" xlink:href="#DejaVuSans-31"/>
       <use x="190.869141" xlink:href="#DejaVuSans-34"/>
      </g>
     </g>
    </g>
    <g id="xtick_6">
     <g id="line2d_6">
      <defs>
       <path d="M 0 0 
L 0 2 
" id="m87ccebf759" style="stroke:#000000;stroke-width:0.6;"/>
      </defs>
      <g>
       <use style="stroke:#000000;stroke-width:0.6;" x="72.9" xlink:href="#m87ccebf759" y="388.8"/>
      </g>
     </g>
    </g>
    <g id="xtick_7">
     <g id="line2d_7">
      <g>
       <use style="stroke:#000000;stroke-width:0.6;" x="102.312104" xlink:href="#m87ccebf759" y="388.8"/>
      </g>
     </g>
    </g>
    <g id="xtick_8">
     <g id="line2d_8">
      <g>
       <use style="stroke:#000000;stroke-width:0.6;" x="131.724207" xlink:href="#m87ccebf759" y="388.8"/>
      </g>
     </g>
    </g>
    <g id="xtick_9">
     <g id="line2d_9">
      <g>
       <use style="stroke:#000000;stroke-width:0.6;" x="161.136311" xlink:href="#m87ccebf759" y="388.8"/>
      </g>
     </g>
    </g>
    <g id="xtick_10">
     <g id="line2d_10">
      <g>
       <use style="stroke:#000000;stroke-width:0.6;" x="190.548415" xlink:href="#m87ccebf759" y="388.8"/>
      </g>
     </g>
    </g>
    <g id="xtick_11">
     <g id="line2d_11">
      <g>
       <use style="stroke:#000000;stroke-width:0.6;" x="219.960519" xlink:href="#m87ccebf759" y="388.8"/>
      </g>
     </g>
    </g>
    <g id="xtick_12">
     <g id="line2d_12">
      <g>
       <use style="stroke:#000000;stroke-width:0.6;" x="249.372622" xlink:href="#m87ccebf759" y="388.8"/>
      </g>
     </g>
    </g>
    <g id="xtick_13">
     <g id="line2d_13">
      <g>
       <use style="stroke:#000000;stroke-width:0.6;" x="278.784726" xlink:href="#m87ccebf759" y="388.8"/>
      </g>
     </g>
    </g>
    <g id="xtick_14">
     <g id="line2d_14">
      <g>
       <use style="stroke:#000000;stroke-width:0.6;" x="308.19683" xlink:href="#m87ccebf759" y="388.8"/>
      </g>
     </g>
    </g>
    <g id="xtick_15">
     <g id="line2d_15">
      <g>
       <use style="stroke:#000000;stroke-width:0.6;" x="337.608934" xlink:href="#m87ccebf759" y="388.8"/>
      </g>
     </g>
    </g>
    <g id="xtick_16">
     <g id="line2d_16">
      <g>
       <use style="stroke:#000000;stroke-width:0.6;" x="367.021037" xlink:href="#m87ccebf759" y="388.8"/>
      </g>
     </g>
    </g>
    <g id="xtick_17">
     <g id="line2d_17">
      <g>
       <use style="stroke:#000000;stroke-width:0.6;" x="396.433141" xlink:href="#m87ccebf759" y="388.8"/>
      </g>
     </g>
    </g>
    <g id="xtick_18">
     <g id="line2d_18">
      <g>
       <use style="stroke:#000000;stroke-width:0.6;" x="425.845245" xlink:href="#m87ccebf759" y="388.8"/>
      </g>
     </g>
    </g>
    <g id="xtick_19">
     <g id="line2d_19">
      <g>
       <use style="stroke:#000000;stroke-width:0.6;" x="455.257349" xlink:href="#m87ccebf759" y="388.8"/>
      </g>
     </g>
    </g>
    <g id="xtick_20">
     <g id="line2d_20">
      <g>
       <use style="stroke:#000000;stroke-width:0.6;" x="484.669452" xlink:href="#m87ccebf759" y="388.8"/>
      </g>
     </g>
    </g>
    <g id="xtick_21">
     <g id="line2d_21">
      <g>
       <use style="stroke:#000000;stroke-width:0.6;" x="514.081556" xlink:href="#m87ccebf759" y="388.8"/>
      </g>
     </g>
    </g>
    <g id="xtick_22">
     <g id="line2d_22">
      <g>
       <use style="stroke:#000000;stroke-width:0.6;" x="543.49366" xlink:href="#m87ccebf759" y="388.8"/>
      </g>
     </g>
    </g>
    <g id="xtick_23">
     <g id="line2d_23">
      <g>
       <use style="stroke:#000000;stroke-width:0.6;" x="572.905764" xlink:href="#m87ccebf759" y="388.8"/>
      </g>
     </g>
    </g>
    <g id="xtick_24">
     <g id="line2d_24">
      <g>
       <use style="stroke:#000000;stroke-width:0.6;" x="602.317867" xlink:href="#m87ccebf759" y="388.8"/>
      </g>
     </g>
    </g>
    <g id="xtick_25">
     <g id="line2d_25">
      <g>
       <use style="stroke:#000000;stroke-width:0.6;" x="631.729971" xlink:href="#m87ccebf759" y="388.8"/>
      </g>
     </g>
    </g>
    <g id="xtick_26">
     <g id="line2d_26">
      <g>
       <use style="stroke:#000000;stroke-width:0.6;" x="661.142075" xlink:href="#m87ccebf759" y="388.8"/>
      </g>
     </g>
    </g>
    <g id="xtick_27">
     <g id="line2d_27">
      <g>
       <use style="stroke:#000000;stroke-width:0.6;" x="690.554179" xlink:href="#m87ccebf759" y="388.8"/>
      </g>
     </g>
    </g>
    <g id="xtick_28">
     <g id="line2d_28">
      <g>
       <use style="stroke:#000000;stroke-width:0.6;" x="719.966282" xlink:href="#m87ccebf759" y="388.8"/>
      </g>
     </g>
    </g>
    <g id="xtick_29">
     <g id="line2d_29">
      <g>
       <use style="stroke:#000000;stroke-width:0.6;" x="749.378386" xlink:href="#m87ccebf759" y="388.8"/>
      </g>
     </g>
    </g>
    <g id="xtick_30">
     <g id="line2d_30">
      <g>
       <use style="stroke:#000000;stroke-width:0.6;" x="778.79049" xlink:href="#m87ccebf759" y="388.8"/>
      </g>
     </g>
    </g>
    <g id="xtick_31">
     <g id="line2d_31">
      <g>
       <use style="stroke:#000000;stroke-width:0.6;" x="808.202594" xlink:href="#m87ccebf759" y="388.8"/>
      </g>
     </g>
    </g>
    <g id="xtick_32">
     <g id="line2d_32">
      <g>
       <use style="stroke:#000000;stroke-width:0.6;" x="837.614697" xlink:href="#m87ccebf759" y="388.8"/>
      </g>
     </g>
    </g>
    <g id="xtick_33">
     <g id="line2d_33">
      <g>
       <use style="stroke:#000000;stroke-width:0.6;" x="867.026801" xlink:href="#m87ccebf759" y="388.8"/>
      </g>
     </g>
    </g>
    <g id="xtick_34">
     <g id="line2d_34">
      <g>
       <use style="stroke:#000000;stroke-width:0.6;" x="896.438905" xlink:href="#m87ccebf759" y="388.8"/>
      </g>
     </g>
    </g>
   </g>
   <g id="matplotlib.axis_2">
    <g id="ytick_1">
     <g id="line2d_35">
      <path clip-path="url(#pd4128b5582)" d="M 72.9 339.623027 
L 923.4 339.623027 
" style="fill:none;stroke:#000000;stroke-dasharray:0.8,1.32;stroke-dashoffset:0;stroke-width:0.8;"/>
     </g>
     <g id="line2d_36">
      <defs>
       <path d="M 0 0 
L -3.5 0 
" id="m74cd3278bb" style="stroke:#000000;stroke-width:0.8;"/>
      </defs>
      <g>
       <use style="stroke:#000000;stroke-width:0.8;" x="72.9" xlink:href="#m74cd3278bb" y="339.623027"/>
      </g>
     </g>
     <g id="text_6">
      <!-- −4 -->
      <defs>
       <path d="M 10.59375 35.5 
L 73.1875 35.5 
L 73.1875 27.203125 
L 10.59375 27.203125 
z
" id="DejaVuSans-2212"/>
      </defs>
      <g transform="translate(45.760937 344.941933)scale(0.14 -0.14)">
       <use xlink:href="#DejaVuSans-2212"/>
       <use x="83.789062" xlink:href="#DejaVuSans-34"/>
      </g>
     </g>
    </g>
    <g id="ytick_2">
     <g id="line2d_37">
      <path clip-path="url(#pd4128b5582)" d="M 72.9 275.229966 
L 923.4 275.229966 
" style="fill:none;stroke:#000000;stroke-dasharray:0.8,1.32;stroke-dashoffset:0;stroke-width:0.8;"/>
     </g>
     <g id="line2d_38">
      <g>
       <use style="stroke:#000000;stroke-width:0.8;" x="72.9" xlink:href="#m74cd3278bb" y="275.229966"/>
      </g>
     </g>
     <g id="text_7">
      <!-- −2 -->
      <g transform="translate(45.760937 280.548872)scale(0.14 -0.14)">
       <use xlink:href="#DejaVuSans-2212"/>
       <use x="83.789062" xlink:href="#DejaVuSans-32"/>
      </g>
     </g>
    </g>
    <g id="ytick_3">
     <g id="line2d_39">
      <path clip-path="url(#pd4128b5582)" d="M 72.9 210.836906 
L 923.4 210.836906 
" style="fill:none;stroke:#000000;stroke-dasharray:0.8,1.32;stroke-dashoffset:0;stroke-width:0.8;"/>
     </g>
     <g id="line2d_40">
      <g>
       <use style="stroke:#000000;stroke-width:0.8;" x="72.9" xlink:href="#m74cd3278bb" y="210.836906"/>
      </g>
     </g>
     <g id="text_8">
      <!-- 0 -->
      <g transform="translate(57.4925 216.155812)scale(0.14 -0.14)">
       <use xlink:href="#DejaVuSans-30"/>
      </g>
     </g>
    </g>
    <g id="ytick_4">
     <g id="line2d_41">
      <path clip-path="url(#pd4128b5582)" d="M 72.9 146.443845 
L 923.4 146.443845 
" style="fill:none;stroke:#000000;stroke-dasharray:0.8,1.32;stroke-dashoffset:0;stroke-width:0.8;"/>
     </g>
     <g id="line2d_42">
      <g>
       <use style="stroke:#000000;stroke-width:0.8;" x="72.9" xlink:href="#m74cd3278bb" y="146.443845"/>
      </g>
     </g>
     <g id="text_9">
      <!-- 2 -->
      <g transform="translate(57.4925 151.762751)scale(0.14 -0.14)">
       <use xlink:href="#DejaVuSans-32"/>
      </g>
     </g>
    </g>
    <g id="ytick_5">
     <g id="line2d_43">
      <path clip-path="url(#pd4128b5582)" d="M 72.9 82.050784 
L 923.4 82.050784 
" style="fill:none;stroke:#000000;stroke-dasharray:0.8,1.32;stroke-dashoffset:0;stroke-width:0.8;"/>
     </g>
     <g id="line2d_44">
      <g>
       <use style="stroke:#000000;stroke-width:0.8;" x="72.9" xlink:href="#m74cd3278bb" y="82.050784"/>
      </g>
     </g>
     <g id="text_10">
      <!-- 4 -->
      <g transform="translate(57.4925 87.36969)scale(0.14 -0.14)">
       <use xlink:href="#DejaVuSans-34"/>
      </g>
     </g>
    </g>
    <g id="text_11">
     <!-- Percentage point -->
     <defs>
      <path d="M 19.671875 64.796875 
L 19.671875 37.40625 
L 32.078125 37.40625 
Q 38.96875 37.40625 42.71875 40.96875 
Q 46.484375 44.53125 46.484375 51.125 
Q 46.484375 57.671875 42.71875 61.234375 
Q 38.96875 64.796875 32.078125 64.796875 
z
M 9.8125 72.90625 
L 32.078125 72.90625 
Q 44.34375 72.90625 50.609375 67.359375 
Q 56.890625 61.8125 56.890625 51.125 
Q 56.890625 40.328125 50.609375 34.8125 
Q 44.34375 29.296875 32.078125 29.296875 
L 19.671875 29.296875 
L 19.671875 0 
L 9.8125 0 
z
" id="DejaVuSans-50"/>
      <path d="M 56.203125 29.59375 
L 56.203125 25.203125 
L 14.890625 25.203125 
Q 15.484375 15.921875 20.484375 11.0625 
Q 25.484375 6.203125 34.421875 6.203125 
Q 39.59375 6.203125 44.453125 7.46875 
Q 49.3125 8.734375 54.109375 11.28125 
L 54.109375 2.78125 
Q 49.265625 0.734375 44.1875 -0.34375 
Q 39.109375 -1.421875 33.890625 -1.421875 
Q 20.796875 -1.421875 13.15625 6.1875 
Q 5.515625 13.8125 5.515625 26.8125 
Q 5.515625 40.234375 12.765625 48.109375 
Q 20.015625 56 32.328125 56 
Q 43.359375 56 49.78125 48.890625 
Q 56.203125 41.796875 56.203125 29.59375 
z
M 47.21875 32.234375 
Q 47.125 39.59375 43.09375 43.984375 
Q 39.0625 48.390625 32.421875 48.390625 
Q 24.90625 48.390625 20.390625 44.140625 
Q 15.875 39.890625 15.1875 32.171875 
z
" id="DejaVuSans-65"/>
      <path d="M 41.109375 46.296875 
Q 39.59375 47.171875 37.8125 47.578125 
Q 36.03125 48 33.890625 48 
Q 26.265625 48 22.1875 43.046875 
Q 18.109375 38.09375 18.109375 28.8125 
L 18.109375 0 
L 9.078125 0 
L 9.078125 54.6875 
L 18.109375 54.6875 
L 18.109375 46.1875 
Q 20.953125 51.171875 25.484375 53.578125 
Q 30.03125 56 36.53125 56 
Q 37.453125 56 38.578125 55.875 
Q 39.703125 55.765625 41.0625 55.515625 
z
" id="DejaVuSans-72"/>
      <path d="M 48.78125 52.59375 
L 48.78125 44.1875 
Q 44.96875 46.296875 41.140625 47.34375 
Q 37.3125 48.390625 33.40625 48.390625 
Q 24.65625 48.390625 19.8125 42.84375 
Q 14.984375 37.3125 14.984375 27.296875 
Q 14.984375 17.28125 19.8125 11.734375 
Q 24.65625 6.203125 33.40625 6.203125 
Q 37.3125 6.203125 41.140625 7.25 
Q 44.96875 8.296875 48.78125 10.40625 
L 48.78125 2.09375 
Q 45.015625 0.34375 40.984375 -0.53125 
Q 36.96875 -1.421875 32.421875 -1.421875 
Q 20.0625 -1.421875 12.78125 6.34375 
Q 5.515625 14.109375 5.515625 27.296875 
Q 5.515625 40.671875 12.859375 48.328125 
Q 20.21875 56 33.015625 56 
Q 37.15625 56 41.109375 55.140625 
Q 45.0625 54.296875 48.78125 52.59375 
z
" id="DejaVuSans-63"/>
      <path d="M 54.890625 33.015625 
L 54.890625 0 
L 45.90625 0 
L 45.90625 32.71875 
Q 45.90625 40.484375 42.875 44.328125 
Q 39.84375 48.1875 33.796875 48.1875 
Q 26.515625 48.1875 22.3125 43.546875 
Q 18.109375 38.921875 18.109375 30.90625 
L 18.109375 0 
L 9.078125 0 
L 9.078125 54.6875 
L 18.109375 54.6875 
L 18.109375 46.1875 
Q 21.34375 51.125 25.703125 53.5625 
Q 30.078125 56 35.796875 56 
Q 45.21875 56 50.046875 50.171875 
Q 54.890625 44.34375 54.890625 33.015625 
z
" id="DejaVuSans-6e"/>
      <path d="M 18.3125 70.21875 
L 18.3125 54.6875 
L 36.8125 54.6875 
L 36.8125 47.703125 
L 18.3125 47.703125 
L 18.3125 18.015625 
Q 18.3125 11.328125 20.140625 9.421875 
Q 21.96875 7.515625 27.59375 7.515625 
L 36.8125 7.515625 
L 36.8125 0 
L 27.59375 0 
Q 17.1875 0 13.234375 3.875 
Q 9.28125 7.765625 9.28125 18.015625 
L 9.28125 47.703125 
L 2.6875 47.703125 
L 2.6875 54.6875 
L 9.28125 54.6875 
L 9.28125 70.21875 
z
" id="DejaVuSans-74"/>
      <path d="M 34.28125 27.484375 
Q 23.390625 27.484375 19.1875 25 
Q 14.984375 22.515625 14.984375 16.5 
Q 14.984375 11.71875 18.140625 8.90625 
Q 21.296875 6.109375 26.703125 6.109375 
Q 34.1875 6.109375 38.703125 11.40625 
Q 43.21875 16.703125 43.21875 25.484375 
L 43.21875 27.484375 
z
M 52.203125 31.203125 
L 52.203125 0 
L 43.21875 0 
L 43.21875 8.296875 
Q 40.140625 3.328125 35.546875 0.953125 
Q 30.953125 -1.421875 24.3125 -1.421875 
Q 15.921875 -1.421875 10.953125 3.296875 
Q 6 8.015625 6 15.921875 
Q 6 25.140625 12.171875 29.828125 
Q 18.359375 34.515625 30.609375 34.515625 
L 43.21875 34.515625 
L 43.21875 35.40625 
Q 43.21875 41.609375 39.140625 45 
Q 35.0625 48.390625 27.6875 48.390625 
Q 23 48.390625 18.546875 47.265625 
Q 14.109375 46.140625 10.015625 43.890625 
L 10.015625 52.203125 
Q 14.9375 54.109375 19.578125 55.046875 
Q 24.21875 56 28.609375 56 
Q 40.484375 56 46.34375 49.84375 
Q 52.203125 43.703125 52.203125 31.203125 
z
" id="DejaVuSans-61"/>
      <path d="M 45.40625 27.984375 
Q 45.40625 37.75 41.375 43.109375 
Q 37.359375 48.484375 30.078125 48.484375 
Q 22.859375 48.484375 18.828125 43.109375 
Q 14.796875 37.75 14.796875 27.984375 
Q 14.796875 18.265625 18.828125 12.890625 
Q 22.859375 7.515625 30.078125 7.515625 
Q 37.359375 7.515625 41.375 12.890625 
Q 45.40625 18.265625 45.40625 27.984375 
z
M 54.390625 6.78125 
Q 54.390625 -7.171875 48.1875 -13.984375 
Q 42 -20.796875 29.203125 -20.796875 
Q 24.46875 -20.796875 20.265625 -20.09375 
Q 16.0625 -19.390625 12.109375 -17.921875 
L 12.109375 -9.1875 
Q 16.0625 -11.328125 19.921875 -12.34375 
Q 23.78125 -13.375 27.78125 -13.375 
Q 36.625 -13.375 41.015625 -8.765625 
Q 45.40625 -4.15625 45.40625 5.171875 
L 45.40625 9.625 
Q 42.625 4.78125 38.28125 2.390625 
Q 33.9375 0 27.875 0 
Q 17.828125 0 11.671875 7.65625 
Q 5.515625 15.328125 5.515625 27.984375 
Q 5.515625 40.671875 11.671875 48.328125 
Q 17.828125 56 27.875 56 
Q 33.9375 56 38.28125 53.609375 
Q 42.625 51.21875 45.40625 46.390625 
L 45.40625 54.6875 
L 54.390625 54.6875 
z
" id="DejaVuSans-67"/>
      <path id="DejaVuSans-20"/>
      <path d="M 18.109375 8.203125 
L 18.109375 -20.796875 
L 9.078125 -20.796875 
L 9.078125 54.6875 
L 18.109375 54.6875 
L 18.109375 46.390625 
Q 20.953125 51.265625 25.265625 53.625 
Q 29.59375 56 35.59375 56 
Q 45.5625 56 51.78125 48.09375 
Q 58.015625 40.1875 58.015625 27.296875 
Q 58.015625 14.40625 51.78125 6.484375 
Q 45.5625 -1.421875 35.59375 -1.421875 
Q 29.59375 -1.421875 25.265625 0.953125 
Q 20.953125 3.328125 18.109375 8.203125 
z
M 48.6875 27.296875 
Q 48.6875 37.203125 44.609375 42.84375 
Q 40.53125 48.484375 33.40625 48.484375 
Q 26.265625 48.484375 22.1875 42.84375 
Q 18.109375 37.203125 18.109375 27.296875 
Q 18.109375 17.390625 22.1875 11.75 
Q 26.265625 6.109375 33.40625 6.109375 
Q 40.53125 6.109375 44.609375 11.75 
Q 48.6875 17.390625 48.6875 27.296875 
z
" id="DejaVuSans-70"/>
      <path d="M 30.609375 48.390625 
Q 23.390625 48.390625 19.1875 42.75 
Q 14.984375 37.109375 14.984375 27.296875 
Q 14.984375 17.484375 19.15625 11.84375 
Q 23.34375 6.203125 30.609375 6.203125 
Q 37.796875 6.203125 41.984375 11.859375 
Q 46.1875 17.53125 46.1875 27.296875 
Q 46.1875 37.015625 41.984375 42.703125 
Q 37.796875 48.390625 30.609375 48.390625 
z
M 30.609375 56 
Q 42.328125 56 49.015625 48.375 
Q 55.71875 40.765625 55.71875 27.296875 
Q 55.71875 13.875 49.015625 6.21875 
Q 42.328125 -1.421875 30.609375 -1.421875 
Q 18.84375 -1.421875 12.171875 6.21875 
Q 5.515625 13.875 5.515625 27.296875 
Q 5.515625 40.765625 12.171875 48.375 
Q 18.84375 56 30.609375 56 
z
" id="DejaVuSans-6f"/>
      <path d="M 9.421875 54.6875 
L 18.40625 54.6875 
L 18.40625 0 
L 9.421875 0 
z
M 9.421875 75.984375 
L 18.40625 75.984375 
L 18.40625 64.59375 
L 9.421875 64.59375 
z
" id="DejaVuSans-69"/>
     </defs>
     <g transform="translate(38.849375 280.174375)rotate(-90)scale(0.14 -0.14)">
      <use xlink:href="#DejaVuSans-50"/>
      <use x="60.255859" xlink:href="#DejaVuSans-65"/>
      <use x="121.779297" xlink:href="#DejaVuSans-72"/>
      <use x="162.861328" xlink:href="#DejaVuSans-63"/>
      <use x="217.841797" xlink:href="#DejaVuSans-65"/>
      <use x="279.365234" xlink:href="#DejaVuSans-6e"/>
      <use x="342.744141" xlink:href="#DejaVuSans-74"/>
      <use x="381.953125" xlink:href="#DejaVuSans-61"/>
      <use x="443.232422" xlink:href="#DejaVuSans-67"/>
      <use x="506.708984" xlink:href="#DejaVuSans-65"/>
      <use x="568.232422" xlink:href="#DejaVuSans-20"/>
      <use x="600.019531" xlink:href="#DejaVuSans-70"/>
      <use x="663.496094" xlink:href="#DejaVuSans-6f"/>
      <use x="724.677734" xlink:href="#DejaVuSans-69"/>
      <use x="752.460938" xlink:href="#DejaVuSans-6e"/>
      <use x="815.839844" xlink:href="#DejaVuSans-74"/>
     </g>
    </g>
   </g>
   <g id="line2d_45">
    <path clip-path="url(#pd4128b5582)" d="M 75.351009 119.141111 
L 77.802017 119.755612 
L 80.253026 125.23821 
L 82.704035 124.267266 
L 85.155043 129.671606 
L 87.606052 129.21895 
L 90.057061 128.24708 
L 92.508069 135.385464 
L 94.959078 131.57734 
L 97.410086 129.971255 
L 99.861095 129.357012 
L 102.312104 139.345896 
L 104.763112 140.992454 
L 107.214121 134.835767 
L 109.66513 137.470522 
L 112.116138 145.074204 
L 114.567147 143.649513 
L 117.018156 145.152256 
L 119.469164 150.964283 
L 121.920173 145.107827 
L 124.371182 152.916318 
L 126.82219 153.064588 
L 129.273199 157.615192 
L 131.724207 147.677651 
L 134.175216 152.878822 
L 136.626225 145.671519 
L 139.077233 144.154085 
L 141.528242 136.539325 
L 143.979251 132.597781 
L 146.430259 137.394293 
L 148.881268 137.996426 
L 151.332277 140.777817 
L 153.783285 152.184263 
L 156.234294 150.275482 
L 158.685303 154.050185 
L 161.136311 156.849183 
L 163.58732 156.358635 
L 166.038329 152.580437 
L 168.489337 158.422364 
L 170.940346 151.324074 
L 173.391354 148.623899 
L 175.842363 149.720419 
L 178.293372 149.352834 
L 180.74438 164.047182 
L 183.195389 162.635862 
L 185.646398 166.121811 
L 188.097406 169.308947 
L 190.548415 160.747603 
L 192.999424 166.844778 
L 195.450432 173.489129 
L 197.901441 174.470392 
L 200.35245 175.996936 
L 202.803458 178.842594 
L 205.254467 177.035936 
L 207.705476 169.429639 
L 210.156484 171.175857 
L 212.607493 163.361911 
L 215.058501 163.97253 
L 217.50951 157.876984 
L 219.960519 157.030576 
L 222.411527 158.186592 
L 224.862536 160.324058 
L 227.313545 161.035683 
L 229.764553 175.375364 
L 232.215562 171.596712 
L 234.666571 175.037505 
L 237.117579 176.688864 
L 239.568588 171.366404 
L 242.019597 179.567339 
L 244.470605 184.54468 
L 246.921614 183.750491 
L 249.372622 183.104304 
L 251.823631 175.221061 
L 254.27464 173.252678 
L 256.725648 173.661354 
L 259.176657 169.728181 
L 261.627666 170.499427 
L 264.078674 164.862023 
L 266.529683 176.557603 
L 268.980692 171.877313 
L 271.4317 167.899677 
L 273.882709 174.348286 
L 276.333718 175.875947 
L 278.784726 173.1507 
L 281.235735 174.935819 
L 283.686744 169.585432 
L 286.137752 168.901096 
L 288.588761 170.44557 
L 291.039769 169.671032 
L 293.490778 172.109783 
L 295.941787 170.191451 
L 298.392795 174.695511 
L 300.843804 174.100281 
L 303.294813 168.069014 
L 305.745821 174.331986 
L 308.19683 173.413761 
L 310.647839 175.719721 
L 313.098847 176.942937 
L 315.549856 175.86628 
L 318.000865 173.290068 
L 320.451873 174.527208 
L 322.902882 171.435481 
L 325.35389 182.6833 
L 327.804899 171.238878 
L 330.255908 173.845015 
L 332.706916 171.473142 
L 335.157925 172.631504 
L 337.608934 169.972148 
L 340.059942 173.045573 
L 342.510951 181.671039 
L 344.96196 183.553504 
L 347.412968 177.881596 
L 349.863977 180.15957 
L 352.314986 179.150425 
L 354.765994 183.510478 
L 357.217003 182.425283 
L 359.668012 183.280779 
L 362.11902 183.189189 
L 364.570029 178.763168 
L 367.021037 166.509885 
L 369.472046 160.791734 
L 371.923055 170.331314 
L 374.374063 173.530427 
L 376.825072 178.40607 
L 379.276081 176.469896 
L 381.727089 185.617324 
L 384.178098 175.858437 
L 386.629107 185.249861 
L 389.080115 186.175087 
L 391.531124 184.155618 
L 393.982133 179.142615 
L 396.433141 170.979125 
L 398.88415 177.864402 
L 401.335159 181.393517 
L 403.786167 182.029296 
L 406.237176 191.245197 
L 408.688184 193.671282 
L 411.139193 191.199221 
L 413.590202 199.320296 
L 416.04121 187.877945 
L 418.492219 191.605941 
L 420.943228 194.250406 
L 423.394236 193.723261 
L 425.845245 202.56772 
L 428.296254 196.488878 
L 430.747262 198.808523 
L 433.198271 196.382743 
L 435.64928 187.568333 
L 438.100288 196.416239 
L 440.551297 198.734685 
L 443.002305 200.070029 
L 445.453314 191.246329 
L 447.904323 202.408785 
L 450.355331 211.559089 
L 452.80634 214.320007 
L 455.257349 218.871728 
L 457.708357 212.854358 
L 460.159366 224.245989 
L 462.610375 214.371897 
L 465.061383 217.067829 
L 467.512392 214.251213 
L 469.963401 220.729038 
L 472.414409 226.558492 
L 474.865418 216.756998 
L 477.316427 221.624658 
L 479.767435 216.149636 
L 482.218444 220.637203 
L 484.669452 214.188394 
L 487.120461 227.738659 
L 489.57147 228.179685 
L 492.022478 230.937965 
L 494.473487 230.703628 
L 496.924496 224.406287 
L 499.375504 220.356321 
L 501.826513 221.405973 
L 504.277522 228.523543 
L 506.72853 224.702103 
L 509.179539 219.057973 
L 511.630548 228.125356 
L 514.081556 234.625321 
L 516.532565 228.061025 
L 518.983573 227.583615 
L 521.434582 222.201129 
L 523.885591 220.170191 
L 526.336599 221.115934 
L 528.787608 222.50176 
L 531.238617 217.914238 
L 533.689625 224.300782 
L 536.140634 228.785127 
L 538.591643 227.800122 
L 541.042651 229.453285 
L 543.49366 223.60039 
L 545.944669 218.857779 
L 548.395677 215.221701 
L 550.846686 218.042191 
L 553.297695 218.667561 
L 555.748703 222.952344 
L 558.199712 231.715751 
L 560.65072 223.6649 
L 563.101729 221.757879 
L 565.552738 221.65287 
L 568.003746 217.941426 
L 570.454755 212.774891 
L 572.905764 210.836906 
L 575.356772 215.258004 
L 580.25879 222.85462 
L 582.709798 227.234699 
L 585.160807 226.971172 
L 587.611816 233.01037 
L 590.062824 242.135925 
L 592.513833 236.299013 
L 594.964841 239.523029 
L 597.41585 230.876841 
L 599.866859 232.277743 
L 602.317867 220.925055 
L 604.768876 230.816289 
L 607.219885 232.599135 
L 609.670893 237.392121 
L 612.121902 233.043469 
L 614.572911 234.901189 
L 617.023919 230.826576 
L 619.474928 238.574716 
L 621.925937 236.926734 
L 624.376945 238.231558 
L 626.827954 245.6924 
L 629.278963 250.545503 
L 631.729971 253.234592 
L 634.18098 253.237207 
L 636.631988 265.368954 
L 639.082997 256.301349 
L 641.534006 253.170048 
L 646.436023 266.067649 
L 648.887032 268.529999 
L 651.33804 276.725672 
L 653.789049 279.124563 
L 656.240058 283.37557 
L 658.691066 298.25918 
L 661.142075 293.545959 
L 663.593084 292.357396 
L 666.044092 285.194137 
L 668.495101 273.46276 
L 670.94611 287.822726 
L 673.397118 294.837913 
L 675.848127 294.083132 
L 678.299135 291.01189 
L 680.750144 297.278315 
L 683.201153 307.183635 
L 685.652161 302.997273 
L 688.10317 309.429891 
L 690.554179 315.005173 
L 693.005187 314.405622 
L 695.456196 317.387744 
L 697.907205 315.52773 
L 700.358213 315.457145 
L 702.809222 317.292712 
L 705.260231 322.219545 
L 707.711239 316.270067 
L 710.162248 315.820087 
L 712.613256 319.325527 
L 715.064265 314.288627 
L 717.515274 314.297379 
L 719.966282 324.332555 
L 724.8683 325.122768 
L 727.319308 327.479341 
L 729.770317 324.41093 
L 732.221326 323.475607 
L 734.672334 326.338235 
L 737.123343 334.117626 
L 739.574352 328.464632 
L 742.02536 323.325448 
L 744.476369 329.345023 
L 746.927378 329.330515 
L 749.378386 322.240952 
L 751.829395 332.619528 
L 754.280403 339.978694 
L 756.731412 335.211985 
L 759.182421 333.982671 
L 761.633429 335.255227 
L 764.084438 338.868218 
L 766.535447 343.494809 
L 768.986455 338.874546 
L 771.437464 358.405574 
L 773.888473 349.191324 
L 776.339481 356.468727 
L 778.79049 355.882942 
L 781.241499 362.115218 
L 783.692507 349.911861 
L 786.143516 361.918072 
L 788.594524 362.705036 
L 791.045533 356.096466 
L 793.496542 353.33046 
L 795.94755 352.841604 
L 798.398559 356.588788 
L 800.849568 359.70024 
L 803.300576 359.763628 
L 808.202594 351.573883 
L 810.653602 356.405702 
L 813.104611 357.472444 
L 815.55562 354.524259 
L 818.006628 352.434773 
L 820.457637 364.480684 
L 822.908646 363.749846 
L 825.359654 366.641738 
L 827.810663 372.060319 
L 830.261671 370.831107 
L 832.71268 373.483636 
L 835.163689 363.276512 
L 837.614697 362.518981 
L 840.065706 354.202624 
L 842.516715 352.273593 
L 844.967723 355.839695 
L 847.418732 364.816216 
L 849.869741 354.679702 
L 852.320749 355.720234 
L 854.771758 355.222254 
L 857.222767 355.181147 
L 859.673775 357.931337 
L 862.124784 362.567296 
L 864.575793 362.288806 
L 867.026801 355.298196 
L 869.47781 355.607427 
L 871.928818 358.859332 
L 874.379827 357.859248 
L 876.830836 366.574368 
L 879.281844 363.720495 
L 881.732853 366.329826 
L 884.183862 363.363712 
L 886.63487 356.291978 
L 889.085879 365.215715 
L 891.536888 367.507721 
L 893.987896 365.463936 
L 896.438905 357.414081 
L 898.889914 350.096184 
L 901.340922 354.090315 
L 903.791931 356.090567 
L 906.242939 357.590689 
L 911.144957 366.418889 
L 913.595965 370.886462 
L 916.046974 372.820362 
L 918.497983 367.352829 
L 920.948991 364.431262 
L 920.948991 364.431262 
" style="fill:none;stroke:#000000;stroke-linecap:square;stroke-width:3;"/>
   </g>
   <g id="line2d_46">
    <path clip-path="url(#pd4128b5582)" d="M 77.802017 141.11536 
L 80.253026 139.791736 
L 82.704035 133.938235 
L 85.155043 129.493639 
L 87.606052 127.347387 
L 90.057061 121.183613 
L 92.508069 120.214368 
L 97.410086 108.714504 
L 99.861095 103.489923 
L 102.312104 107.095224 
L 104.763112 101.400501 
L 107.214121 94.29104 
L 109.66513 90.964464 
L 112.116138 94.894185 
L 114.567147 93.213973 
L 117.018156 92.918202 
L 119.469164 93.463821 
L 121.920173 89.694196 
L 124.371182 91.219768 
L 126.82219 90.177015 
L 129.273199 91.768212 
L 131.724207 85.346357 
L 136.626225 75.825363 
L 139.077233 73.922663 
L 141.528242 69.811806 
L 143.979251 67.156364 
L 146.430259 69.567799 
L 148.881268 71.424743 
L 151.332277 72.866446 
L 153.783285 79.79785 
L 156.234294 78.259434 
L 158.685303 80.719674 
L 161.136311 82.315974 
L 163.58732 88.812738 
L 166.038329 85.458555 
L 168.489337 88.307466 
L 170.940346 85.533818 
L 173.391354 83.314965 
L 175.842363 84.679083 
L 178.293372 84.4853 
L 180.74438 94.541191 
L 183.195389 90.014814 
L 185.646398 93.149862 
L 188.097406 97.009162 
L 190.548415 95.636926 
L 195.450432 117.692026 
L 197.901441 120.81869 
L 200.35245 123.24989 
L 202.803458 126.042807 
L 205.254467 127.036309 
L 207.705476 122.51403 
L 210.156484 126.729868 
L 212.607493 125.031139 
L 215.058501 127.467113 
L 217.50951 130.19459 
L 219.960519 133.804187 
L 222.411527 130.979384 
L 224.862536 129.447782 
L 229.764553 140.702393 
L 232.215562 138.905165 
L 234.666571 139.733083 
L 237.117579 143.007966 
L 239.568588 142.00591 
L 242.019597 147.885565 
L 244.470605 152.314461 
L 246.921614 150.573917 
L 249.372622 148.241012 
L 251.823631 147.612236 
L 254.27464 147.626392 
L 256.725648 146.924823 
L 259.176657 144.273421 
L 261.627666 145.55523 
L 264.078674 148.048402 
L 266.529683 148.89497 
L 268.980692 147.326032 
L 271.4317 143.0881 
L 273.882709 145.763255 
L 276.333718 144.192929 
L 278.784726 141.156401 
L 281.235735 144.152734 
L 283.686744 145.564727 
L 286.137752 144.556459 
L 288.588761 146.025036 
L 291.039769 145.818107 
L 293.490778 145.790693 
L 295.941787 146.450876 
L 298.392795 150.506459 
L 300.843804 151.051495 
L 303.294813 147.410932 
L 305.745821 153.681223 
L 308.19683 154.510946 
L 310.647839 158.236128 
L 313.098847 160.38741 
L 315.549856 157.547219 
L 318.000865 158.760362 
L 320.451873 161.564813 
L 322.902882 164.588329 
L 325.35389 174.878834 
L 327.804899 175.315606 
L 330.255908 176.532699 
L 332.706916 179.257781 
L 335.157925 181.635216 
L 337.608934 179.973189 
L 340.059942 180.43398 
L 342.510951 182.075863 
L 344.96196 187.281162 
L 347.412968 188.168819 
L 349.863977 187.156923 
L 352.314986 187.293665 
L 354.765994 192.805373 
L 357.217003 193.45538 
L 359.668012 195.910224 
L 362.11902 197.822949 
L 364.570029 198.002986 
L 367.021037 192.301472 
L 369.472046 191.489604 
L 371.923055 196.756398 
L 374.374063 198.753426 
L 376.825072 201.945779 
L 379.276081 201.98423 
L 381.727089 205.734441 
L 384.178098 199.710082 
L 386.629107 207.297967 
L 389.080115 205.692054 
L 391.531124 207.309574 
L 393.982133 202.419962 
L 396.433141 200.833908 
L 398.88415 209.124664 
L 401.335159 212.881969 
L 403.786167 213.290189 
L 406.237176 216.984276 
L 411.139193 216.088302 
L 413.590202 222.457489 
L 416.04121 215.716305 
L 418.492219 214.972958 
L 420.943228 210.957849 
L 423.394236 208.14978 
L 425.845245 208.859157 
L 428.296254 199.506176 
L 430.747262 199.381672 
L 433.198271 196.00941 
L 435.64928 191.117257 
L 438.100288 193.473083 
L 440.551297 195.269374 
L 443.002305 192.829444 
L 445.453314 184.76527 
L 447.904323 190.576171 
L 450.355331 197.580305 
L 452.80634 194.313567 
L 455.257349 197.65137 
L 457.708357 191.629412 
L 460.159366 199.639309 
L 462.610375 192.697458 
L 465.061383 193.093378 
L 467.512392 193.066176 
L 469.963401 194.941832 
L 472.414409 198.24472 
L 474.865418 191.651314 
L 477.316427 193.976476 
L 479.767435 189.16396 
L 482.218444 190.289575 
L 484.669452 185.605836 
L 487.120461 190.745817 
L 489.57147 196.60948 
L 492.022478 198.064424 
L 494.473487 197.407635 
L 496.924496 192.629011 
L 499.375504 191.923514 
L 501.826513 192.386581 
L 504.277522 198.809372 
L 506.72853 200.21731 
L 509.179539 197.559157 
L 511.630548 206.04303 
L 514.081556 210.141907 
L 516.532565 205.873629 
L 521.434582 201.390156 
L 523.885591 201.63347 
L 526.336599 202.109339 
L 528.787608 202.773397 
L 531.238617 200.43168 
L 533.689625 202.421974 
L 536.140634 205.148519 
L 538.591643 205.642257 
L 541.042651 209.666991 
L 543.49366 206.692093 
L 545.944669 206.47157 
L 548.395677 203.318977 
L 550.846686 205.01117 
L 553.297695 206.019051 
L 555.748703 212.480957 
L 558.199712 215.797064 
L 560.65072 212.76905 
L 563.101729 210.616765 
L 565.552738 209.687157 
L 568.003746 208.583158 
L 570.454755 208.48757 
L 575.356772 213.299444 
L 577.807781 214.367122 
L 580.25879 213.95141 
L 582.709798 214.46657 
L 585.160807 213.162772 
L 587.611816 212.535783 
L 590.062824 218.489632 
L 592.513833 214.565696 
L 594.964841 214.096297 
L 597.41585 210.071878 
L 599.866859 208.882587 
L 602.317867 198.253878 
L 604.768876 201.858698 
L 607.219885 201.045191 
L 609.670893 202.203992 
L 612.121902 199.403238 
L 614.572911 198.363511 
L 617.023919 193.123531 
L 619.474928 192.404051 
L 621.925937 190.871652 
L 624.376945 188.97768 
L 629.278963 186.346647 
L 631.729971 184.871452 
L 634.18098 178.847922 
L 636.631988 181.776239 
L 639.082997 172.879941 
L 641.534006 166.478997 
L 643.985014 164.13775 
L 646.436023 163.638806 
L 648.887032 163.960575 
L 651.33804 161.368258 
L 653.789049 160.096455 
L 656.240058 157.797803 
L 658.691066 164.530008 
L 661.142075 161.526052 
L 663.593084 160.004335 
L 666.044092 158.327144 
L 668.495101 153.226252 
L 670.94611 158.150598 
L 673.397118 160.23852 
L 675.848127 159.785895 
L 678.299135 158.909385 
L 680.750144 160.261625 
L 683.201153 164.275398 
L 685.652161 162.112847 
L 688.10317 165.775092 
L 690.554179 170.094186 
L 693.005187 172.090996 
L 695.456196 169.667163 
L 697.907205 170.683622 
L 700.358213 172.556492 
L 702.809222 173.690319 
L 705.260231 179.69967 
L 707.711239 175.079374 
L 710.162248 176.492424 
L 712.613256 175.468188 
L 715.064265 169.925763 
L 717.515274 171.108179 
L 719.966282 180.261268 
L 722.417291 179.608768 
L 724.8683 181.116669 
L 727.319308 182.488183 
L 732.221326 183.763016 
L 734.672334 184.600691 
L 737.123343 191.937937 
L 739.574352 193.269454 
L 742.02536 193.627739 
L 744.476369 198.85121 
L 746.927378 200.185613 
L 749.378386 193.060651 
L 751.829395 200.169983 
L 754.280403 203.396449 
L 759.182421 200.572694 
L 761.633429 203.751337 
L 764.084438 205.281698 
L 766.535447 212.434802 
L 768.986455 209.61101 
L 771.437464 219.554371 
L 773.888473 210.543289 
L 776.339481 214.477687 
L 778.79049 215.988715 
L 781.241499 219.426758 
L 783.692507 215.289493 
L 786.143516 221.399062 
L 788.594524 223.634349 
L 791.045533 221.091358 
L 793.496542 222.647242 
L 795.94755 223.745808 
L 798.398559 224.255716 
L 800.849568 230.153099 
L 803.300576 234.184193 
L 805.751585 234.869738 
L 808.202594 240.338777 
L 810.653602 247.526246 
L 813.104611 251.744355 
L 815.55562 251.561571 
L 818.006628 253.42797 
L 820.457637 263.981566 
L 825.359654 268.046726 
L 827.810663 270.054285 
L 830.261671 270.946403 
L 832.71268 272.956882 
L 835.163689 266.603304 
L 837.614697 269.450732 
L 840.065706 269.682054 
L 842.516715 266.788424 
L 844.967723 266.477535 
L 847.418732 270.16094 
L 849.869741 262.876906 
L 852.320749 260.883813 
L 854.771758 262.125878 
L 857.222767 262.187569 
L 859.673775 260.303904 
L 862.124784 266.465633 
L 864.575793 270.530942 
L 867.026801 261.24539 
L 869.47781 258.975537 
L 871.928818 262.469856 
L 874.379827 264.054679 
L 876.830836 267.565533 
L 879.281844 268.909502 
L 881.732853 273.072196 
L 884.183862 271.264539 
L 886.63487 269.646375 
L 889.085879 277.389143 
L 891.536888 277.753689 
L 893.987896 277.317399 
L 896.438905 272.077958 
L 898.889914 267.67609 
L 901.340922 271.271915 
L 903.791931 271.171975 
L 906.242939 268.454647 
L 911.144957 277.754047 
L 913.595965 283.946738 
L 916.046974 286.712626 
L 918.497983 280.801835 
L 920.948991 277.447076 
L 920.948991 277.447076 
" style="fill:none;stroke:#000080;stroke-dasharray:11.1,4.8;stroke-dashoffset:0;stroke-width:3;"/>
   </g>
   <g id="line2d_47">
    <path clip-path="url(#pd4128b5582)" d="M 77.802017 212.680385 
L 80.253026 216.385809 
L 82.704035 217.535258 
L 85.155043 224.819649 
L 87.606052 223.496575 
L 90.057061 225.693072 
L 92.508069 230.838556 
L 94.959078 229.533411 
L 97.410086 230.455614 
L 99.861095 231.60785 
L 102.312104 234.745624 
L 104.763112 238.883663 
L 107.214121 235.768736 
L 109.66513 238.033178 
L 112.116138 238.850184 
L 114.567147 235.951066 
L 117.018156 235.153922 
L 119.469164 237.935008 
L 121.920173 233.61307 
L 124.371182 238.421324 
L 126.82219 237.581834 
L 129.273199 238.886383 
L 131.724207 233.055659 
L 134.175216 240.899855 
L 136.626225 236.157614 
L 139.077233 234.9675 
L 141.528242 229.945427 
L 143.979251 227.195102 
L 146.430259 228.159217 
L 148.881268 225.711175 
L 151.332277 225.959282 
L 153.783285 229.266765 
L 156.234294 228.101024 
L 158.685303 228.648409 
L 161.136311 229.723387 
L 163.58732 223.048573 
L 166.038329 222.632201 
L 168.489337 225.578263 
L 170.940346 221.714042 
L 175.842363 221.927115 
L 178.293372 222.451589 
L 180.74438 227.852967 
L 183.195389 231.591478 
L 185.646398 232.644199 
L 188.097406 233.200584 
L 190.548415 226.888913 
L 195.450432 218.899083 
L 197.901441 218.093756 
L 200.35245 218.27845 
L 202.803458 220.009726 
L 205.254467 218.514944 
L 207.705476 216.281339 
L 210.156484 215.325914 
L 212.607493 210.840323 
L 215.058501 210.718003 
L 217.50951 204.297027 
L 219.960519 202.38753 
L 224.862536 213.16109 
L 227.313545 210.458932 
L 229.764553 220.430167 
L 232.215562 218.953553 
L 234.666571 222.288019 
L 237.117579 221.136407 
L 239.568588 216.907509 
L 242.019597 219.495013 
L 244.470605 220.842751 
L 246.921614 221.779778 
L 249.372622 224.073846 
L 251.823631 217.701985 
L 254.27464 216.846032 
L 256.725648 218.45713 
L 259.176657 217.379994 
L 261.627666 217.210531 
L 264.078674 210.051645 
L 266.529683 221.798576 
L 268.980692 220.017343 
L 271.4317 221.167783 
L 273.882709 226.664017 
L 276.333718 230.057612 
L 278.784726 231.406223 
L 281.235735 230.467981 
L 283.686744 224.488865 
L 286.137752 225.738512 
L 288.588761 226.590797 
L 291.039769 227.656283 
L 293.490778 230.448778 
L 295.941787 228.804634 
L 298.392795 230.285244 
L 300.843804 229.953022 
L 303.294813 228.693695 
L 305.745821 230.457338 
L 308.19683 229.471502 
L 310.647839 229.037525 
L 313.098847 229.277669 
L 315.549856 231.540537 
L 318.000865 229.389979 
L 320.451873 228.933578 
L 322.902882 224.206514 
L 325.35389 225.916323 
L 327.804899 215.132739 
L 330.255908 216.778343 
L 332.706916 212.321528 
L 335.157925 211.933469 
L 337.608934 210.88918 
L 340.059942 214.313772 
L 342.510951 221.338962 
L 344.96196 219.742767 
L 347.412968 213.291095 
L 349.863977 216.750884 
L 352.314986 216.247913 
L 354.765994 215.92741 
L 357.217003 215.147896 
L 359.668012 214.857157 
L 362.11902 213.235228 
L 364.570029 209.723972 
L 367.021037 204.572886 
L 369.472046 201.341132 
L 371.923055 206.442351 
L 374.374063 208.464034 
L 376.825072 210.810004 
L 379.276081 208.916981 
L 381.727089 214.733256 
L 384.178098 210.814813 
L 386.629107 212.684206 
L 389.080115 214.998862 
L 391.531124 211.749455 
L 393.982133 212.397614 
L 396.433141 205.426731 
L 398.88415 203.123538 
L 401.335159 201.623615 
L 403.786167 200.360032 
L 406.237176 204.500467 
L 408.688184 206.054208 
L 411.139193 202.202207 
L 413.590202 202.248239 
L 416.04121 195.907547 
L 418.492219 199.21713 
L 420.943228 203.57778 
L 423.394236 202.299157 
L 425.845245 208.049686 
L 428.296254 207.945555 
L 430.747262 208.236853 
L 433.198271 207.822358 
L 435.64928 201.986757 
L 438.100288 207.367335 
L 440.551297 205.4579 
L 443.002305 207.31135 
L 445.453314 204.692658 
L 447.904323 209.266063 
L 450.355331 209.582388 
L 452.80634 213.309328 
L 455.257349 212.520298 
L 457.708357 210.498971 
L 460.159366 212.713691 
L 462.610375 208.084786 
L 465.061383 208.929038 
L 467.512392 204.58329 
L 469.963401 207.951803 
L 472.414409 209.223744 
L 474.865418 205.18316 
L 477.316427 207.348797 
L 479.767435 206.634769 
L 482.218444 210.28958 
L 484.669452 209.861304 
L 487.120461 219.768173 
L 489.57147 215.032131 
L 492.022478 216.770853 
L 494.473487 217.94192 
L 496.924496 216.876052 
L 499.375504 214.525833 
L 501.826513 216.020455 
L 504.277522 217.155851 
L 506.72853 212.422266 
L 509.179539 210.081473 
L 511.630548 211.496566 
L 514.081556 214.330384 
L 516.532565 212.981513 
L 518.983573 215.768412 
L 521.434582 213.764934 
L 523.885591 212.760205 
L 526.336599 214.615212 
L 528.787608 216.006109 
L 531.238617 214.737469 
L 533.689625 220.516898 
L 536.140634 222.506937 
L 538.591643 221.763851 
L 541.042651 220.428233 
L 543.49366 218.381485 
L 545.944669 215.862723 
L 548.395677 216.413938 
L 550.846686 218.676873 
L 553.297695 218.703715 
L 555.748703 216.781779 
L 558.199712 222.912011 
L 560.65072 218.096481 
L 563.101729 219.116875 
L 565.552738 221.387352 
L 568.003746 218.955558 
L 570.454755 214.139289 
L 572.905764 210.836906 
L 575.356772 213.085949 
L 577.807781 215.706216 
L 580.25879 220.828706 
L 582.709798 225.15762 
L 585.160807 226.694395 
L 587.611816 233.170254 
L 590.062824 236.186624 
L 592.513833 234.437635 
L 594.964841 237.983585 
L 597.41585 233.032828 
L 599.866859 235.600376 
L 602.317867 234.581275 
L 604.768876 240.743225 
L 607.219885 242.757202 
L 609.670893 244.997922 
L 612.121902 241.894742 
L 614.572911 242.883404 
L 617.023919 241.429594 
L 619.474928 247.460941 
L 621.925937 243.920714 
L 624.376945 243.338945 
L 626.827954 248.24657 
L 629.278963 249.031936 
L 631.729971 246.132196 
L 634.18098 244.803493 
L 636.631988 245.816069 
L 639.082997 236.426285 
L 641.534006 232.772473 
L 643.985014 234.915616 
L 646.436023 235.699276 
L 648.887032 231.874092 
L 651.33804 237.458484 
L 653.789049 236.35122 
L 656.240058 238.092131 
L 658.691066 242.669935 
L 661.142075 237.301427 
L 663.593084 234.708762 
L 668.495101 218.588211 
L 670.94611 227.385919 
L 673.397118 231.670501 
L 675.848127 230.188269 
L 678.299135 227.632437 
L 680.750144 232.068554 
L 683.201153 237.51882 
L 685.652161 235.259547 
L 688.10317 237.137545 
L 690.554179 238.04423 
L 693.005187 235.870202 
L 695.456196 242.331791 
L 697.907205 240.305755 
L 700.358213 239.049911 
L 702.809222 240.521202 
L 705.260231 240.483591 
L 710.162248 239.715888 
L 712.613256 244.912245 
L 715.064265 246.291635 
L 717.515274 246.615639 
L 719.966282 249.264162 
L 722.417291 252.799315 
L 724.8683 254.062586 
L 727.319308 257.238037 
L 729.770317 255.50778 
L 732.221326 255.695737 
L 734.672334 259.003189 
L 737.123343 260.520832 
L 739.574352 254.273796 
L 742.02536 250.499784 
L 744.476369 253.46373 
L 746.927378 253.521092 
L 749.378386 254.527336 
L 751.829395 258.039348 
L 754.280403 263.326355 
L 756.731412 261.216469 
L 759.182421 262.010004 
L 761.633429 261.010255 
L 764.084438 263.928485 
L 766.535447 262.378716 
L 768.986455 260.967259 
L 771.437464 271.130177 
L 773.888473 271.509949 
L 776.339481 276.660023 
L 778.79049 276.995525 
L 781.241499 281.450931 
L 783.692507 275.030686 
L 786.143516 282.827151 
L 788.594524 283.370921 
L 793.496542 278.847597 
L 795.94755 279.371179 
L 798.398559 284.213276 
L 800.849568 284.304004 
L 803.300576 283.279417 
L 805.751585 280.325727 
L 808.202594 273.252059 
L 810.653602 272.61498 
L 813.104611 271.338854 
L 815.55562 270.741923 
L 818.006628 268.780405 
L 820.457637 272.014806 
L 822.908646 271.262621 
L 825.359654 274.18245 
L 827.810663 279.771521 
L 830.261671 279.421188 
L 832.71268 281.781241 
L 835.163689 279.020495 
L 837.614697 277.19966 
L 840.065706 270.737481 
L 842.516715 273.588689 
L 844.967723 278.218896 
L 847.418732 283.670164 
L 849.869741 281.687892 
L 852.320749 285.54778 
L 854.771758 284.256486 
L 857.222767 284.428658 
L 859.673775 289.407855 
L 862.124784 288.593623 
L 864.575793 285.198554 
L 867.026801 287.994007 
L 869.47781 291.518 
L 871.928818 292.558049 
L 874.379827 291.122669 
L 876.830836 297.923855 
L 879.281844 295.038154 
L 881.732853 294.26301 
L 884.183862 294.495127 
L 886.63487 289.824352 
L 889.085879 292.500232 
L 891.536888 295.472013 
L 893.987896 295.010643 
L 898.889914 291.623868 
L 901.340922 293.6815 
L 903.791931 296.654142 
L 906.242939 301.666073 
L 908.693948 302.405253 
L 911.144957 302.964576 
L 913.595965 302.236653 
L 916.046974 302.246768 
L 920.948991 304.969811 
L 920.948991 304.969811 
" style="fill:none;stroke:#ffa500;stroke-dasharray:3,4.95;stroke-dashoffset:0;stroke-width:3;"/>
   </g>
   <g id="line2d_48">
    <path clip-path="url(#pd4128b5582)" d="M 77.802017 209.501784 
L 80.253026 210.095134 
L 82.704035 211.691176 
L 85.155043 212.561753 
L 87.606052 213.906509 
L 90.057061 215.512842 
L 92.508069 217.258701 
L 94.959078 219.483179 
L 97.410086 221.543284 
L 104.763112 229.01616 
L 107.214121 232.390832 
L 109.66513 235.496606 
L 112.116138 237.806824 
L 114.567147 240.455832 
L 119.469164 244.715757 
L 121.920173 246.580024 
L 124.371182 247.757913 
L 126.82219 249.500424 
L 129.273199 250.905435 
L 131.724207 252.979344 
L 134.175216 254.88635 
L 136.626225 257.006752 
L 141.528242 259.773457 
L 146.430259 262.402127 
L 153.783285 265.561137 
L 158.685303 266.975265 
L 161.136311 267.04004 
L 163.58732 266.666373 
L 168.489337 266.609832 
L 175.842363 265.076279 
L 185.646398 262.191735 
L 188.097406 260.944233 
L 192.999424 259.245523 
L 195.450432 258.692922 
L 197.901441 257.340479 
L 200.35245 256.240047 
L 202.803458 254.551965 
L 205.254467 253.237425 
L 207.705476 252.378861 
L 212.607493 249.221032 
L 215.058501 247.512205 
L 219.960519 242.553161 
L 222.411527 241.235234 
L 224.862536 239.422062 
L 227.313545 237.281953 
L 229.764553 235.943373 
L 232.215562 235.435814 
L 234.666571 234.711868 
L 237.117579 234.237713 
L 239.568588 234.144151 
L 242.019597 233.876198 
L 244.470605 233.07531 
L 246.921614 233.083225 
L 249.372622 232.474643 
L 251.823631 231.590795 
L 254.27464 230.46316 
L 256.725648 229.96141 
L 259.176657 229.755941 
L 261.627666 229.414098 
L 266.529683 227.54324 
L 268.980692 226.212568 
L 271.4317 225.321935 
L 273.882709 223.598747 
L 276.333718 223.302765 
L 278.784726 222.26509 
L 281.235735 221.991789 
L 283.686744 221.208213 
L 286.137752 220.282243 
L 288.588761 219.505627 
L 291.039769 217.872325 
L 293.490778 217.545811 
L 300.843804 214.770802 
L 303.294813 213.6393 
L 305.745821 211.868227 
L 308.19683 211.106015 
L 310.647839 210.12068 
L 313.098847 208.95239 
L 315.549856 208.452987 
L 318.000865 206.814122 
L 320.451873 205.703152 
L 322.902882 204.314917 
L 325.35389 203.562373 
L 327.804899 202.464714 
L 330.255908 202.208118 
L 332.706916 201.567941 
L 335.157925 200.736898 
L 337.608934 200.783829 
L 340.059942 199.971847 
L 342.510951 199.930219 
L 344.96196 198.20356 
L 349.863977 197.925714 
L 352.314986 197.282784 
L 354.765994 196.451618 
L 357.217003 195.495918 
L 359.668012 194.187299 
L 362.11902 193.804903 
L 364.570029 192.710092 
L 367.021037 191.309403 
L 369.472046 189.634866 
L 374.374063 187.986824 
L 376.825072 187.324139 
L 379.276081 187.242533 
L 381.727089 186.82347 
L 384.178098 187.007383 
L 386.629107 186.941525 
L 389.080115 187.158006 
L 391.531124 186.770421 
L 393.982133 185.998869 
L 396.433141 186.392313 
L 398.88415 187.290026 
L 401.335159 188.561757 
L 406.237176 191.434276 
L 408.688184 192.774122 
L 413.590202 196.288387 
L 416.04121 197.92791 
L 418.492219 199.08967 
L 420.943228 201.388593 
L 423.394236 204.94814 
L 425.845245 207.332693 
L 428.296254 210.710962 
L 430.747262 212.863813 
L 433.198271 214.224789 
L 435.64928 216.138133 
L 438.100288 217.249634 
L 440.551297 219.681225 
L 445.453314 223.462213 
L 447.904323 224.240364 
L 450.355331 226.070209 
L 452.80634 228.370924 
L 457.708357 232.399787 
L 460.159366 233.566801 
L 462.610375 235.263465 
L 469.963401 239.509215 
L 472.414409 240.763839 
L 474.865418 241.596335 
L 477.316427 241.973197 
L 479.767435 242.024718 
L 482.218444 241.73186 
L 484.669452 240.395065 
L 487.120461 238.898481 
L 489.57147 238.211886 
L 492.022478 237.776499 
L 494.473487 237.027884 
L 496.924496 236.575035 
L 501.826513 234.672748 
L 506.72853 233.736339 
L 509.179539 233.091155 
L 511.630548 232.259572 
L 514.081556 231.826841 
L 518.983573 229.884195 
L 523.885591 227.450327 
L 526.336599 226.065194 
L 528.787608 225.396065 
L 531.238617 224.418899 
L 533.689625 223.035721 
L 536.140634 222.803483 
L 538.591643 222.067825 
L 541.042651 221.031872 
L 543.49366 220.200623 
L 545.944669 218.197297 
L 550.846686 216.027959 
L 553.297695 215.618606 
L 555.748703 215.363419 
L 558.199712 214.680487 
L 560.65072 214.47318 
L 563.101729 213.69805 
L 565.552738 212.252172 
L 570.454755 211.821843 
L 572.905764 210.836906 
L 575.356772 210.546422 
L 577.807781 210.561467 
L 580.25879 209.748315 
L 585.160807 208.787816 
L 590.062824 209.13348 
L 592.513833 208.969492 
L 594.964841 209.116958 
L 597.41585 209.445947 
L 599.866859 209.468591 
L 602.317867 209.763713 
L 604.768876 209.888177 
L 607.219885 210.470554 
L 609.670893 211.864018 
L 612.121902 213.419301 
L 614.572911 215.328085 
L 617.023919 217.947262 
L 619.474928 220.383535 
L 621.925937 223.808179 
L 626.827954 231.399791 
L 629.278963 236.840731 
L 634.18098 251.259603 
L 636.631988 259.450456 
L 639.082997 268.668933 
L 643.985014 282.369377 
L 648.887032 294.369143 
L 651.33804 299.572741 
L 656.240058 309.159447 
L 661.142075 316.392292 
L 663.593084 319.318109 
L 666.044092 321.788941 
L 668.495101 323.322107 
L 673.397118 324.602703 
L 675.848127 325.782779 
L 678.299135 326.143879 
L 683.201153 327.063228 
L 685.652161 327.298691 
L 688.10317 328.191065 
L 690.554179 328.540568 
L 693.005187 328.118235 
L 695.456196 327.0626 
L 697.907205 326.212164 
L 702.809222 324.755001 
L 705.260231 323.710096 
L 707.711239 322.795567 
L 710.162248 321.285586 
L 712.613256 320.618906 
L 715.064265 319.74504 
L 717.515274 318.247372 
L 719.966282 316.480936 
L 724.8683 311.617324 
L 727.319308 309.426932 
L 729.770317 307.454053 
L 732.221326 305.690664 
L 734.672334 304.408166 
L 737.123343 303.332668 
L 739.574352 302.595193 
L 742.02536 300.871736 
L 744.476369 298.703894 
L 746.927378 297.297621 
L 749.378386 296.326777 
L 751.829395 296.084008 
L 756.731412 293.674017 
L 759.182421 293.073784 
L 766.535447 290.355102 
L 768.986455 289.970088 
L 773.888473 288.811897 
L 776.339481 287.004827 
L 778.79049 284.572513 
L 783.692507 281.265493 
L 791.045533 275.618047 
L 795.94755 271.398428 
L 798.398559 269.793607 
L 803.300576 263.973829 
L 805.751585 262.1817 
L 808.202594 259.656858 
L 810.653602 257.938287 
L 813.104611 256.063047 
L 815.55562 253.894576 
L 818.006628 251.900209 
L 820.457637 250.158124 
L 827.810663 243.908324 
L 832.71268 240.419324 
L 835.163689 239.326524 
L 837.614697 237.5424 
L 840.065706 235.456901 
L 842.516715 233.570291 
L 844.967723 232.817076 
L 847.418732 232.658922 
L 852.320749 230.962452 
L 854.771758 230.513701 
L 859.673775 229.89339 
L 862.124784 229.181851 
L 864.575793 228.233121 
L 867.026801 227.732609 
L 869.47781 226.787701 
L 871.928818 225.505238 
L 874.379827 224.355711 
L 876.830836 222.758791 
L 879.281844 221.44665 
L 881.732853 220.668431 
L 884.183862 219.277857 
L 886.63487 218.495062 
L 889.085879 217.00015 
L 893.987896 214.809706 
L 898.889914 212.470037 
L 901.340922 210.810711 
L 906.242939 209.14378 
L 908.693948 208.000951 
L 911.144957 207.374077 
L 913.595965 206.376882 
L 918.497983 204.639612 
L 920.948991 203.688186 
L 920.948991 203.688186 
" style="fill:none;stroke:#800000;stroke-dasharray:19.2,4.8,3,4.8;stroke-dashoffset:0;stroke-width:3;"/>
   </g>
   <g id="line2d_49">
    <path clip-path="url(#pd4128b5582)" d="M 72.9 210.836906 
L 923.4 210.836906 
" style="fill:none;stroke:#000000;stroke-linecap:square;stroke-width:2;"/>
   </g>
   <g id="patch_3">
    <path d="M 72.9 388.8 
L 923.4 388.8 
" style="fill:none;stroke:#000000;stroke-linecap:square;stroke-linejoin:miter;stroke-width:0.8;"/>
   </g>
   <g id="text_12">
    <!-- Monthly observations; seasonally adjusted; Percentage point change since January 2007; Men -->
    <defs>
     <path d="M 9.8125 72.90625 
L 24.515625 72.90625 
L 43.109375 23.296875 
L 61.8125 72.90625 
L 76.515625 72.90625 
L 76.515625 0 
L 66.890625 0 
L 66.890625 64.015625 
L 48.09375 14.015625 
L 38.1875 14.015625 
L 19.390625 64.015625 
L 19.390625 0 
L 9.8125 0 
z
" id="DejaVuSans-4d"/>
     <path d="M 54.890625 33.015625 
L 54.890625 0 
L 45.90625 0 
L 45.90625 32.71875 
Q 45.90625 40.484375 42.875 44.328125 
Q 39.84375 48.1875 33.796875 48.1875 
Q 26.515625 48.1875 22.3125 43.546875 
Q 18.109375 38.921875 18.109375 30.90625 
L 18.109375 0 
L 9.078125 0 
L 9.078125 75.984375 
L 18.109375 75.984375 
L 18.109375 46.1875 
Q 21.34375 51.125 25.703125 53.5625 
Q 30.078125 56 35.796875 56 
Q 45.21875 56 50.046875 50.171875 
Q 54.890625 44.34375 54.890625 33.015625 
z
" id="DejaVuSans-68"/>
     <path d="M 9.421875 75.984375 
L 18.40625 75.984375 
L 18.40625 0 
L 9.421875 0 
z
" id="DejaVuSans-6c"/>
     <path d="M 32.171875 -5.078125 
Q 28.375 -14.84375 24.75 -17.8125 
Q 21.140625 -20.796875 15.09375 -20.796875 
L 7.90625 -20.796875 
L 7.90625 -13.28125 
L 13.1875 -13.28125 
Q 16.890625 -13.28125 18.9375 -11.515625 
Q 21 -9.765625 23.484375 -3.21875 
L 25.09375 0.875 
L 2.984375 54.6875 
L 12.5 54.6875 
L 29.59375 11.921875 
L 46.6875 54.6875 
L 56.203125 54.6875 
z
" id="DejaVuSans-79"/>
     <path d="M 48.6875 27.296875 
Q 48.6875 37.203125 44.609375 42.84375 
Q 40.53125 48.484375 33.40625 48.484375 
Q 26.265625 48.484375 22.1875 42.84375 
Q 18.109375 37.203125 18.109375 27.296875 
Q 18.109375 17.390625 22.1875 11.75 
Q 26.265625 6.109375 33.40625 6.109375 
Q 40.53125 6.109375 44.609375 11.75 
Q 48.6875 17.390625 48.6875 27.296875 
z
M 18.109375 46.390625 
Q 20.953125 51.265625 25.265625 53.625 
Q 29.59375 56 35.59375 56 
Q 45.5625 56 51.78125 48.09375 
Q 58.015625 40.1875 58.015625 27.296875 
Q 58.015625 14.40625 51.78125 6.484375 
Q 45.5625 -1.421875 35.59375 -1.421875 
Q 29.59375 -1.421875 25.265625 0.953125 
Q 20.953125 3.328125 18.109375 8.203125 
L 18.109375 0 
L 9.078125 0 
L 9.078125 75.984375 
L 18.109375 75.984375 
z
" id="DejaVuSans-62"/>
     <path d="M 44.28125 53.078125 
L 44.28125 44.578125 
Q 40.484375 46.53125 36.375 47.5 
Q 32.28125 48.484375 27.875 48.484375 
Q 21.1875 48.484375 17.84375 46.4375 
Q 14.5 44.390625 14.5 40.28125 
Q 14.5 37.15625 16.890625 35.375 
Q 19.28125 33.59375 26.515625 31.984375 
L 29.59375 31.296875 
Q 39.15625 29.25 43.1875 25.515625 
Q 47.21875 21.78125 47.21875 15.09375 
Q 47.21875 7.46875 41.1875 3.015625 
Q 35.15625 -1.421875 24.609375 -1.421875 
Q 20.21875 -1.421875 15.453125 -0.5625 
Q 10.6875 0.296875 5.421875 2 
L 5.421875 11.28125 
Q 10.40625 8.6875 15.234375 7.390625 
Q 20.0625 6.109375 24.8125 6.109375 
Q 31.15625 6.109375 34.5625 8.28125 
Q 37.984375 10.453125 37.984375 14.40625 
Q 37.984375 18.0625 35.515625 20.015625 
Q 33.0625 21.96875 24.703125 23.78125 
L 21.578125 24.515625 
Q 13.234375 26.265625 9.515625 29.90625 
Q 5.8125 33.546875 5.8125 39.890625 
Q 5.8125 47.609375 11.28125 51.796875 
Q 16.75 56 26.8125 56 
Q 31.78125 56 36.171875 55.265625 
Q 40.578125 54.546875 44.28125 53.078125 
z
" id="DejaVuSans-73"/>
     <path d="M 2.984375 54.6875 
L 12.5 54.6875 
L 29.59375 8.796875 
L 46.6875 54.6875 
L 56.203125 54.6875 
L 35.6875 0 
L 23.484375 0 
z
" id="DejaVuSans-76"/>
     <path d="M 11.71875 51.703125 
L 22.015625 51.703125 
L 22.015625 39.3125 
L 11.71875 39.3125 
z
M 11.71875 12.40625 
L 22.015625 12.40625 
L 22.015625 4 
L 14.015625 -11.625 
L 7.71875 -11.625 
L 11.71875 4 
z
" id="DejaVuSans-3b"/>
     <path d="M 45.40625 46.390625 
L 45.40625 75.984375 
L 54.390625 75.984375 
L 54.390625 0 
L 45.40625 0 
L 45.40625 8.203125 
Q 42.578125 3.328125 38.25 0.953125 
Q 33.9375 -1.421875 27.875 -1.421875 
Q 17.96875 -1.421875 11.734375 6.484375 
Q 5.515625 14.40625 5.515625 27.296875 
Q 5.515625 40.1875 11.734375 48.09375 
Q 17.96875 56 27.875 56 
Q 33.9375 56 38.25 53.625 
Q 42.578125 51.265625 45.40625 46.390625 
z
M 14.796875 27.296875 
Q 14.796875 17.390625 18.875 11.75 
Q 22.953125 6.109375 30.078125 6.109375 
Q 37.203125 6.109375 41.296875 11.75 
Q 45.40625 17.390625 45.40625 27.296875 
Q 45.40625 37.203125 41.296875 42.84375 
Q 37.203125 48.484375 30.078125 48.484375 
Q 22.953125 48.484375 18.875 42.84375 
Q 14.796875 37.203125 14.796875 27.296875 
z
" id="DejaVuSans-64"/>
     <path d="M 9.421875 54.6875 
L 18.40625 54.6875 
L 18.40625 -0.984375 
Q 18.40625 -11.421875 14.421875 -16.109375 
Q 10.453125 -20.796875 1.609375 -20.796875 
L -1.8125 -20.796875 
L -1.8125 -13.1875 
L 0.59375 -13.1875 
Q 5.71875 -13.1875 7.5625 -10.8125 
Q 9.421875 -8.453125 9.421875 -0.984375 
z
M 9.421875 75.984375 
L 18.40625 75.984375 
L 18.40625 64.59375 
L 9.421875 64.59375 
z
" id="DejaVuSans-6a"/>
     <path d="M 8.5 21.578125 
L 8.5 54.6875 
L 17.484375 54.6875 
L 17.484375 21.921875 
Q 17.484375 14.15625 20.5 10.265625 
Q 23.53125 6.390625 29.59375 6.390625 
Q 36.859375 6.390625 41.078125 11.03125 
Q 45.3125 15.671875 45.3125 23.6875 
L 45.3125 54.6875 
L 54.296875 54.6875 
L 54.296875 0 
L 45.3125 0 
L 45.3125 8.40625 
Q 42.046875 3.421875 37.71875 1 
Q 33.40625 -1.421875 27.6875 -1.421875 
Q 18.265625 -1.421875 13.375 4.4375 
Q 8.5 10.296875 8.5 21.578125 
z
M 31.109375 56 
z
" id="DejaVuSans-75"/>
     <path d="M 9.8125 72.90625 
L 19.671875 72.90625 
L 19.671875 5.078125 
Q 19.671875 -8.109375 14.671875 -14.0625 
Q 9.671875 -20.015625 -1.421875 -20.015625 
L -5.171875 -20.015625 
L -5.171875 -11.71875 
L -2.09375 -11.71875 
Q 4.4375 -11.71875 7.125 -8.046875 
Q 9.8125 -4.390625 9.8125 5.078125 
z
" id="DejaVuSans-4a"/>
     <path d="M 8.203125 72.90625 
L 55.078125 72.90625 
L 55.078125 68.703125 
L 28.609375 0 
L 18.3125 0 
L 43.21875 64.59375 
L 8.203125 64.59375 
z
" id="DejaVuSans-37"/>
    </defs>
    <g transform="translate(72.9 45.84)scale(0.14 -0.14)">
     <use xlink:href="#DejaVuSans-4d"/>
     <use x="86.279297" xlink:href="#DejaVuSans-6f"/>
     <use x="147.460938" xlink:href="#DejaVuSans-6e"/>
     <use x="210.839844" xlink:href="#DejaVuSans-74"/>
     <use x="250.048828" xlink:href="#DejaVuSans-68"/>
     <use x="313.427734" xlink:href="#DejaVuSans-6c"/>
     <use x="341.210938" xlink:href="#DejaVuSans-79"/>
     <use x="400.390625" xlink:href="#DejaVuSans-20"/>
     <use x="432.177734" xlink:href="#DejaVuSans-6f"/>
     <use x="493.359375" xlink:href="#DejaVuSans-62"/>
     <use x="556.835938" xlink:href="#DejaVuSans-73"/>
     <use x="608.935547" xlink:href="#DejaVuSans-65"/>
     <use x="670.458984" xlink:href="#DejaVuSans-72"/>
     <use x="711.572266" xlink:href="#DejaVuSans-76"/>
     <use x="770.751953" xlink:href="#DejaVuSans-61"/>
     <use x="832.03125" xlink:href="#DejaVuSans-74"/>
     <use x="871.240234" xlink:href="#DejaVuSans-69"/>
     <use x="899.023438" xlink:href="#DejaVuSans-6f"/>
     <use x="960.205078" xlink:href="#DejaVuSans-6e"/>
     <use x="1023.583984" xlink:href="#DejaVuSans-73"/>
     <use x="1075.683594" xlink:href="#DejaVuSans-3b"/>
     <use x="1109.375" xlink:href="#DejaVuSans-20"/>
     <use x="1141.162109" xlink:href="#DejaVuSans-73"/>
     <use x="1193.261719" xlink:href="#DejaVuSans-65"/>
     <use x="1254.785156" xlink:href="#DejaVuSans-61"/>
     <use x="1316.064453" xlink:href="#DejaVuSans-73"/>
     <use x="1368.164062" xlink:href="#DejaVuSans-6f"/>
     <use x="1429.345703" xlink:href="#DejaVuSans-6e"/>
     <use x="1492.724609" xlink:href="#DejaVuSans-61"/>
     <use x="1554.003906" xlink:href="#DejaVuSans-6c"/>
     <use x="1581.787109" xlink:href="#DejaVuSans-6c"/>
     <use x="1609.570312" xlink:href="#DejaVuSans-79"/>
     <use x="1668.75" xlink:href="#DejaVuSans-20"/>
     <use x="1700.537109" xlink:href="#DejaVuSans-61"/>
     <use x="1761.816406" xlink:href="#DejaVuSans-64"/>
     <use x="1825.292969" xlink:href="#DejaVuSans-6a"/>
     <use x="1853.076172" xlink:href="#DejaVuSans-75"/>
     <use x="1916.455078" xlink:href="#DejaVuSans-73"/>
     <use x="1968.554688" xlink:href="#DejaVuSans-74"/>
     <use x="2007.763672" xlink:href="#DejaVuSans-65"/>
     <use x="2069.287109" xlink:href="#DejaVuSans-64"/>
     <use x="2132.763672" xlink:href="#DejaVuSans-3b"/>
     <use x="2166.455078" xlink:href="#DejaVuSans-20"/>
     <use x="2198.242188" xlink:href="#DejaVuSans-50"/>
     <use x="2258.498047" xlink:href="#DejaVuSans-65"/>
     <use x="2320.021484" xlink:href="#DejaVuSans-72"/>
     <use x="2361.103516" xlink:href="#DejaVuSans-63"/>
     <use x="2416.083984" xlink:href="#DejaVuSans-65"/>
     <use x="2477.607422" xlink:href="#DejaVuSans-6e"/>
     <use x="2540.986328" xlink:href="#DejaVuSans-74"/>
     <use x="2580.195312" xlink:href="#DejaVuSans-61"/>
     <use x="2641.474609" xlink:href="#DejaVuSans-67"/>
     <use x="2704.951172" xlink:href="#DejaVuSans-65"/>
     <use x="2766.474609" xlink:href="#DejaVuSans-20"/>
     <use x="2798.261719" xlink:href="#DejaVuSans-70"/>
     <use x="2861.738281" xlink:href="#DejaVuSans-6f"/>
     <use x="2922.919922" xlink:href="#DejaVuSans-69"/>
     <use x="2950.703125" xlink:href="#DejaVuSans-6e"/>
     <use x="3014.082031" xlink:href="#DejaVuSans-74"/>
     <use x="3053.291016" xlink:href="#DejaVuSans-20"/>
     <use x="3085.078125" xlink:href="#DejaVuSans-63"/>
     <use x="3140.058594" xlink:href="#DejaVuSans-68"/>
     <use x="3203.4375" xlink:href="#DejaVuSans-61"/>
     <use x="3264.716797" xlink:href="#DejaVuSans-6e"/>
     <use x="3328.095703" xlink:href="#DejaVuSans-67"/>
     <use x="3391.572266" xlink:href="#DejaVuSans-65"/>
     <use x="3453.095703" xlink:href="#DejaVuSans-20"/>
     <use x="3484.882812" xlink:href="#DejaVuSans-73"/>
     <use x="3536.982422" xlink:href="#DejaVuSans-69"/>
     <use x="3564.765625" xlink:href="#DejaVuSans-6e"/>
     <use x="3628.144531" xlink:href="#DejaVuSans-63"/>
     <use x="3683.125" xlink:href="#DejaVuSans-65"/>
     <use x="3744.648438" xlink:href="#DejaVuSans-20"/>
     <use x="3776.435547" xlink:href="#DejaVuSans-4a"/>
     <use x="3805.927734" xlink:href="#DejaVuSans-61"/>
     <use x="3867.207031" xlink:href="#DejaVuSans-6e"/>
     <use x="3930.585938" xlink:href="#DejaVuSans-75"/>
     <use x="3993.964844" xlink:href="#DejaVuSans-61"/>
     <use x="4055.244141" xlink:href="#DejaVuSans-72"/>
     <use x="4096.357422" xlink:href="#DejaVuSans-79"/>
     <use x="4155.537109" xlink:href="#DejaVuSans-20"/>
     <use x="4187.324219" xlink:href="#DejaVuSans-32"/>
     <use x="4250.947266" xlink:href="#DejaVuSans-30"/>
     <use x="4314.570312" xlink:href="#DejaVuSans-30"/>
     <use x="4378.193359" xlink:href="#DejaVuSans-37"/>
     <use x="4441.816406" xlink:href="#DejaVuSans-3b"/>
     <use x="4475.507812" xlink:href="#DejaVuSans-20"/>
     <use x="4507.294922" xlink:href="#DejaVuSans-4d"/>
     <use x="4593.574219" xlink:href="#DejaVuSans-65"/>
     <use x="4655.097656" xlink:href="#DejaVuSans-6e"/>
    </g>
   </g>
   <g id="legend_1">
    <g id="patch_4">
     <path d="M 782.926875 131.895 
L 915 131.895 
Q 917.4 131.895 917.4 129.495 
L 917.4 60.24 
Q 917.4 57.84 915 57.84 
L 782.926875 57.84 
Q 780.526875 57.84 780.526875 60.24 
L 780.526875 129.495 
Q 780.526875 131.895 782.926875 131.895 
z
" style="fill:#ffffff;opacity:0.8;stroke:#cccccc;stroke-linejoin:miter;"/>
    </g>
    <g id="line2d_50">
     <path d="M 785.326875 67.558125 
L 809.326875 67.558125 
" style="fill:none;stroke:#000000;stroke-linecap:square;stroke-width:3;"/>
    </g>
    <g id="line2d_51"/>
    <g id="text_13">
     <!-- Change in LFPR -->
     <defs>
      <path d="M 64.40625 67.28125 
L 64.40625 56.890625 
Q 59.421875 61.53125 53.78125 63.8125 
Q 48.140625 66.109375 41.796875 66.109375 
Q 29.296875 66.109375 22.65625 58.46875 
Q 16.015625 50.828125 16.015625 36.375 
Q 16.015625 21.96875 22.65625 14.328125 
Q 29.296875 6.6875 41.796875 6.6875 
Q 48.140625 6.6875 53.78125 8.984375 
Q 59.421875 11.28125 64.40625 15.921875 
L 64.40625 5.609375 
Q 59.234375 2.09375 53.4375 0.328125 
Q 47.65625 -1.421875 41.21875 -1.421875 
Q 24.65625 -1.421875 15.125 8.703125 
Q 5.609375 18.84375 5.609375 36.375 
Q 5.609375 53.953125 15.125 64.078125 
Q 24.65625 74.21875 41.21875 74.21875 
Q 47.75 74.21875 53.53125 72.484375 
Q 59.328125 70.75 64.40625 67.28125 
z
" id="DejaVuSans-43"/>
      <path d="M 9.8125 72.90625 
L 19.671875 72.90625 
L 19.671875 8.296875 
L 55.171875 8.296875 
L 55.171875 0 
L 9.8125 0 
z
" id="DejaVuSans-4c"/>
      <path d="M 9.8125 72.90625 
L 51.703125 72.90625 
L 51.703125 64.59375 
L 19.671875 64.59375 
L 19.671875 43.109375 
L 48.578125 43.109375 
L 48.578125 34.8125 
L 19.671875 34.8125 
L 19.671875 0 
L 9.8125 0 
z
" id="DejaVuSans-46"/>
      <path d="M 44.390625 34.1875 
Q 47.5625 33.109375 50.5625 29.59375 
Q 53.5625 26.078125 56.59375 19.921875 
L 66.609375 0 
L 56 0 
L 46.6875 18.703125 
Q 43.0625 26.03125 39.671875 28.421875 
Q 36.28125 30.8125 30.421875 30.8125 
L 19.671875 30.8125 
L 19.671875 0 
L 9.8125 0 
L 9.8125 72.90625 
L 32.078125 72.90625 
Q 44.578125 72.90625 50.734375 67.671875 
Q 56.890625 62.453125 56.890625 51.90625 
Q 56.890625 45.015625 53.6875 40.46875 
Q 50.484375 35.9375 44.390625 34.1875 
z
M 19.671875 64.796875 
L 19.671875 38.921875 
L 32.078125 38.921875 
Q 39.203125 38.921875 42.84375 42.21875 
Q 46.484375 45.515625 46.484375 51.90625 
Q 46.484375 58.296875 42.84375 61.546875 
Q 39.203125 64.796875 32.078125 64.796875 
z
" id="DejaVuSans-52"/>
     </defs>
     <g transform="translate(818.926875 71.758125)scale(0.12 -0.12)">
      <use xlink:href="#DejaVuSans-43"/>
      <use x="69.824219" xlink:href="#DejaVuSans-68"/>
      <use x="133.203125" xlink:href="#DejaVuSans-61"/>
      <use x="194.482422" xlink:href="#DejaVuSans-6e"/>
      <use x="257.861328" xlink:href="#DejaVuSans-67"/>
      <use x="321.337891" xlink:href="#DejaVuSans-65"/>
      <use x="382.861328" xlink:href="#DejaVuSans-20"/>
      <use x="414.648438" xlink:href="#DejaVuSans-69"/>
      <use x="442.431641" xlink:href="#DejaVuSans-6e"/>
      <use x="505.810547" xlink:href="#DejaVuSans-20"/>
      <use x="537.597656" xlink:href="#DejaVuSans-4c"/>
      <use x="593.310547" xlink:href="#DejaVuSans-46"/>
      <use x="650.830078" xlink:href="#DejaVuSans-50"/>
      <use x="711.132812" xlink:href="#DejaVuSans-52"/>
     </g>
    </g>
    <g id="line2d_52">
     <path d="M 785.326875 85.171875 
L 809.326875 85.171875 
" style="fill:none;stroke:#000080;stroke-dasharray:11.1,4.8;stroke-dashoffset:0;stroke-width:3;"/>
    </g>
    <g id="line2d_53"/>
    <g id="text_14">
     <!-- Exit -->
     <defs>
      <path d="M 9.8125 72.90625 
L 55.90625 72.90625 
L 55.90625 64.59375 
L 19.671875 64.59375 
L 19.671875 43.015625 
L 54.390625 43.015625 
L 54.390625 34.71875 
L 19.671875 34.71875 
L 19.671875 8.296875 
L 56.78125 8.296875 
L 56.78125 0 
L 9.8125 0 
z
" id="DejaVuSans-45"/>
      <path d="M 54.890625 54.6875 
L 35.109375 28.078125 
L 55.90625 0 
L 45.3125 0 
L 29.390625 21.484375 
L 13.484375 0 
L 2.875 0 
L 24.125 28.609375 
L 4.6875 54.6875 
L 15.28125 54.6875 
L 29.78125 35.203125 
L 44.28125 54.6875 
z
" id="DejaVuSans-78"/>
     </defs>
     <g transform="translate(818.926875 89.371875)scale(0.12 -0.12)">
      <use xlink:href="#DejaVuSans-45"/>
      <use x="63.183594" xlink:href="#DejaVuSans-78"/>
      <use x="122.363281" xlink:href="#DejaVuSans-69"/>
      <use x="150.146484" xlink:href="#DejaVuSans-74"/>
     </g>
    </g>
    <g id="line2d_54">
     <path d="M 785.326875 102.785625 
L 809.326875 102.785625 
" style="fill:none;stroke:#ffa500;stroke-dasharray:3,4.95;stroke-dashoffset:0;stroke-width:3;"/>
    </g>
    <g id="line2d_55"/>
    <g id="text_15">
     <!-- Entry -->
     <g transform="translate(818.926875 106.985625)scale(0.12 -0.12)">
      <use xlink:href="#DejaVuSans-45"/>
      <use x="63.183594" xlink:href="#DejaVuSans-6e"/>
      <use x="126.5625" xlink:href="#DejaVuSans-74"/>
      <use x="165.771484" xlink:href="#DejaVuSans-72"/>
      <use x="206.884766" xlink:href="#DejaVuSans-79"/>
     </g>
    </g>
    <g id="line2d_56">
     <path d="M 785.326875 120.399375 
L 809.326875 120.399375 
" style="fill:none;stroke:#800000;stroke-dasharray:19.2,4.8,3,4.8;stroke-dashoffset:0;stroke-width:3;"/>
    </g>
    <g id="line2d_57"/>
    <g id="text_16">
     <!-- Churn -->
     <g transform="translate(818.926875 124.599375)scale(0.12 -0.12)">
      <use xlink:href="#DejaVuSans-43"/>
      <use x="69.824219" xlink:href="#DejaVuSans-68"/>
      <use x="133.203125" xlink:href="#DejaVuSans-75"/>
      <use x="196.582031" xlink:href="#DejaVuSans-72"/>
      <use x="237.679688" xlink:href="#DejaVuSans-6e"/>
     </g>
    </g>
   </g>
  </g>
  <g id="text_17">
   <!-- Change in Labor force participation rate decomposed -->
   <defs>
    <path d="M 67 4 
Q 61.8125 1.3125 56.203125 -0.046875 
Q 50.59375 -1.421875 44.484375 -1.421875 
Q 26.265625 -1.421875 15.625 8.765625 
Q 4.984375 18.953125 4.984375 36.375 
Q 4.984375 53.859375 15.625 64.03125 
Q 26.265625 74.21875 44.484375 74.21875 
Q 50.59375 74.21875 56.203125 72.84375 
Q 61.8125 71.484375 67 68.796875 
L 67 53.71875 
Q 61.765625 57.28125 56.6875 58.9375 
Q 51.609375 60.59375 46 60.59375 
Q 35.9375 60.59375 30.171875 54.140625 
Q 24.421875 47.703125 24.421875 36.375 
Q 24.421875 25.09375 30.171875 18.640625 
Q 35.9375 12.203125 46 12.203125 
Q 51.609375 12.203125 56.6875 13.859375 
Q 61.765625 15.53125 67 19.09375 
z
" id="DejaVuSans-Bold-43"/>
    <path d="M 63.375 33.296875 
L 63.375 0 
L 45.796875 0 
L 45.796875 5.421875 
L 45.796875 25.390625 
Q 45.796875 32.5625 45.484375 35.25 
Q 45.171875 37.9375 44.390625 39.203125 
Q 43.359375 40.921875 41.59375 41.875 
Q 39.84375 42.828125 37.59375 42.828125 
Q 32.125 42.828125 29 38.59375 
Q 25.875 34.375 25.875 26.90625 
L 25.875 0 
L 8.40625 0 
L 8.40625 75.984375 
L 25.875 75.984375 
L 25.875 46.6875 
Q 29.828125 51.46875 34.265625 53.734375 
Q 38.71875 56 44.09375 56 
Q 53.5625 56 58.46875 50.1875 
Q 63.375 44.390625 63.375 33.296875 
z
" id="DejaVuSans-Bold-68"/>
    <path d="M 32.90625 24.609375 
Q 27.4375 24.609375 24.671875 22.75 
Q 21.921875 20.90625 21.921875 17.28125 
Q 21.921875 13.96875 24.140625 12.078125 
Q 26.375 10.203125 30.328125 10.203125 
Q 35.25 10.203125 38.625 13.734375 
Q 42 17.28125 42 22.609375 
L 42 24.609375 
z
M 59.625 31.203125 
L 59.625 0 
L 42 0 
L 42 8.109375 
Q 38.484375 3.125 34.078125 0.84375 
Q 29.6875 -1.421875 23.390625 -1.421875 
Q 14.890625 -1.421875 9.59375 3.53125 
Q 4.296875 8.5 4.296875 16.40625 
Q 4.296875 26.03125 10.90625 30.515625 
Q 17.53125 35.015625 31.6875 35.015625 
L 42 35.015625 
L 42 36.375 
Q 42 40.53125 38.71875 42.453125 
Q 35.453125 44.390625 28.515625 44.390625 
Q 22.90625 44.390625 18.0625 43.265625 
Q 13.234375 42.140625 9.078125 39.890625 
L 9.078125 53.21875 
Q 14.703125 54.59375 20.359375 55.296875 
Q 26.03125 56 31.6875 56 
Q 46.484375 56 53.046875 50.171875 
Q 59.625 44.34375 59.625 31.203125 
z
" id="DejaVuSans-Bold-61"/>
    <path d="M 63.375 33.296875 
L 63.375 0 
L 45.796875 0 
L 45.796875 5.421875 
L 45.796875 25.484375 
Q 45.796875 32.5625 45.484375 35.25 
Q 45.171875 37.9375 44.390625 39.203125 
Q 43.359375 40.921875 41.59375 41.875 
Q 39.84375 42.828125 37.59375 42.828125 
Q 32.125 42.828125 29 38.59375 
Q 25.875 34.375 25.875 26.90625 
L 25.875 0 
L 8.40625 0 
L 8.40625 54.6875 
L 25.875 54.6875 
L 25.875 46.6875 
Q 29.828125 51.46875 34.265625 53.734375 
Q 38.71875 56 44.09375 56 
Q 53.5625 56 58.46875 50.1875 
Q 63.375 44.390625 63.375 33.296875 
z
" id="DejaVuSans-Bold-6e"/>
    <path d="M 45.609375 9.28125 
Q 42 4.5 37.640625 2.25 
Q 33.296875 0 27.59375 0 
Q 17.578125 0 11.03125 7.875 
Q 4.5 15.765625 4.5 27.984375 
Q 4.5 40.234375 11.03125 48.0625 
Q 17.578125 55.90625 27.59375 55.90625 
Q 33.296875 55.90625 37.640625 53.65625 
Q 42 51.421875 45.609375 46.578125 
L 45.609375 54.6875 
L 63.1875 54.6875 
L 63.1875 5.515625 
Q 63.1875 -7.671875 54.859375 -14.625 
Q 46.53125 -21.578125 30.71875 -21.578125 
Q 25.59375 -21.578125 20.796875 -20.796875 
Q 16.015625 -20.015625 11.1875 -18.40625 
L 11.1875 -4.78125 
Q 15.765625 -7.421875 20.15625 -8.71875 
Q 24.5625 -10.015625 29 -10.015625 
Q 37.59375 -10.015625 41.59375 -6.25 
Q 45.609375 -2.484375 45.609375 5.515625 
z
M 34.078125 43.3125 
Q 28.65625 43.3125 25.625 39.296875 
Q 22.609375 35.296875 22.609375 27.984375 
Q 22.609375 20.453125 25.53125 16.578125 
Q 28.46875 12.703125 34.078125 12.703125 
Q 39.546875 12.703125 42.578125 16.703125 
Q 45.609375 20.703125 45.609375 27.984375 
Q 45.609375 35.296875 42.578125 39.296875 
Q 39.546875 43.3125 34.078125 43.3125 
z
" id="DejaVuSans-Bold-67"/>
    <path d="M 62.984375 27.484375 
L 62.984375 22.515625 
L 22.125 22.515625 
Q 22.75 16.359375 26.5625 13.28125 
Q 30.375 10.203125 37.203125 10.203125 
Q 42.71875 10.203125 48.5 11.84375 
Q 54.296875 13.484375 60.40625 16.796875 
L 60.40625 3.328125 
Q 54.203125 0.984375 48 -0.21875 
Q 41.796875 -1.421875 35.59375 -1.421875 
Q 20.75 -1.421875 12.515625 6.125 
Q 4.296875 13.671875 4.296875 27.296875 
Q 4.296875 40.671875 12.375 48.328125 
Q 20.453125 56 34.625 56 
Q 47.515625 56 55.25 48.234375 
Q 62.984375 40.484375 62.984375 27.484375 
z
M 45.015625 33.296875 
Q 45.015625 38.28125 42.109375 41.328125 
Q 39.203125 44.390625 34.515625 44.390625 
Q 29.4375 44.390625 26.265625 41.53125 
Q 23.09375 38.671875 22.3125 33.296875 
z
" id="DejaVuSans-Bold-65"/>
    <path id="DejaVuSans-Bold-20"/>
    <path d="M 8.40625 54.6875 
L 25.875 54.6875 
L 25.875 0 
L 8.40625 0 
z
M 8.40625 75.984375 
L 25.875 75.984375 
L 25.875 61.71875 
L 8.40625 61.71875 
z
" id="DejaVuSans-Bold-69"/>
    <path d="M 9.1875 72.90625 
L 27.984375 72.90625 
L 27.984375 14.203125 
L 60.984375 14.203125 
L 60.984375 0 
L 9.1875 0 
z
" id="DejaVuSans-Bold-4c"/>
    <path d="M 37.5 11.28125 
Q 43.109375 11.28125 46.0625 15.375 
Q 49.03125 19.484375 49.03125 27.296875 
Q 49.03125 35.109375 46.0625 39.203125 
Q 43.109375 43.3125 37.5 43.3125 
Q 31.890625 43.3125 28.875 39.1875 
Q 25.875 35.0625 25.875 27.296875 
Q 25.875 19.53125 28.875 15.40625 
Q 31.890625 11.28125 37.5 11.28125 
z
M 25.875 46.6875 
Q 29.5 51.46875 33.890625 53.734375 
Q 38.28125 56 44 56 
Q 54.109375 56 60.59375 47.96875 
Q 67.09375 39.9375 67.09375 27.296875 
Q 67.09375 14.65625 60.59375 6.609375 
Q 54.109375 -1.421875 44 -1.421875 
Q 38.28125 -1.421875 33.890625 0.84375 
Q 29.5 3.125 25.875 7.90625 
L 25.875 0 
L 8.40625 0 
L 8.40625 75.984375 
L 25.875 75.984375 
z
" id="DejaVuSans-Bold-62"/>
    <path d="M 34.421875 43.5 
Q 28.609375 43.5 25.5625 39.328125 
Q 22.515625 35.15625 22.515625 27.296875 
Q 22.515625 19.4375 25.5625 15.25 
Q 28.609375 11.078125 34.421875 11.078125 
Q 40.140625 11.078125 43.15625 15.25 
Q 46.1875 19.4375 46.1875 27.296875 
Q 46.1875 35.15625 43.15625 39.328125 
Q 40.140625 43.5 34.421875 43.5 
z
M 34.421875 56 
Q 48.53125 56 56.46875 48.375 
Q 64.40625 40.765625 64.40625 27.296875 
Q 64.40625 13.8125 56.46875 6.1875 
Q 48.53125 -1.421875 34.421875 -1.421875 
Q 20.265625 -1.421875 12.28125 6.1875 
Q 4.296875 13.8125 4.296875 27.296875 
Q 4.296875 40.765625 12.28125 48.375 
Q 20.265625 56 34.421875 56 
z
" id="DejaVuSans-Bold-6f"/>
    <path d="M 49.03125 39.796875 
Q 46.734375 40.875 44.453125 41.375 
Q 42.1875 41.890625 39.890625 41.890625 
Q 33.15625 41.890625 29.515625 37.5625 
Q 25.875 33.25 25.875 25.203125 
L 25.875 0 
L 8.40625 0 
L 8.40625 54.6875 
L 25.875 54.6875 
L 25.875 45.703125 
Q 29.25 51.078125 33.609375 53.53125 
Q 37.984375 56 44.09375 56 
Q 44.96875 56 45.984375 55.921875 
Q 47.015625 55.859375 48.96875 55.609375 
z
" id="DejaVuSans-Bold-72"/>
    <path d="M 44.390625 75.984375 
L 44.390625 64.5 
L 34.71875 64.5 
Q 31 64.5 29.53125 63.15625 
Q 28.078125 61.8125 28.078125 58.5 
L 28.078125 54.6875 
L 43.015625 54.6875 
L 43.015625 42.1875 
L 28.078125 42.1875 
L 28.078125 0 
L 10.59375 0 
L 10.59375 42.1875 
L 1.90625 42.1875 
L 1.90625 54.6875 
L 10.59375 54.6875 
L 10.59375 58.5 
Q 10.59375 67.4375 15.578125 71.703125 
Q 20.5625 75.984375 31 75.984375 
z
" id="DejaVuSans-Bold-66"/>
    <path d="M 52.59375 52.984375 
L 52.59375 38.71875 
Q 49.03125 41.15625 45.4375 42.328125 
Q 41.84375 43.5 37.984375 43.5 
Q 30.671875 43.5 26.59375 39.234375 
Q 22.515625 34.96875 22.515625 27.296875 
Q 22.515625 19.625 26.59375 15.34375 
Q 30.671875 11.078125 37.984375 11.078125 
Q 42.09375 11.078125 45.78125 12.296875 
Q 49.46875 13.53125 52.59375 15.921875 
L 52.59375 1.609375 
Q 48.484375 0.09375 44.265625 -0.65625 
Q 40.046875 -1.421875 35.796875 -1.421875 
Q 21 -1.421875 12.640625 6.171875 
Q 4.296875 13.765625 4.296875 27.296875 
Q 4.296875 40.828125 12.640625 48.40625 
Q 21 56 35.796875 56 
Q 40.09375 56 44.265625 55.25 
Q 48.4375 54.5 52.59375 52.984375 
z
" id="DejaVuSans-Bold-63"/>
    <path d="M 25.875 7.90625 
L 25.875 -20.796875 
L 8.40625 -20.796875 
L 8.40625 54.6875 
L 25.875 54.6875 
L 25.875 46.6875 
Q 29.5 51.46875 33.890625 53.734375 
Q 38.28125 56 44 56 
Q 54.109375 56 60.59375 47.96875 
Q 67.09375 39.9375 67.09375 27.296875 
Q 67.09375 14.65625 60.59375 6.609375 
Q 54.109375 -1.421875 44 -1.421875 
Q 38.28125 -1.421875 33.890625 0.84375 
Q 29.5 3.125 25.875 7.90625 
z
M 37.5 43.3125 
Q 31.890625 43.3125 28.875 39.1875 
Q 25.875 35.0625 25.875 27.296875 
Q 25.875 19.53125 28.875 15.40625 
Q 31.890625 11.28125 37.5 11.28125 
Q 43.109375 11.28125 46.0625 15.375 
Q 49.03125 19.484375 49.03125 27.296875 
Q 49.03125 35.109375 46.0625 39.203125 
Q 43.109375 43.3125 37.5 43.3125 
z
" id="DejaVuSans-Bold-70"/>
    <path d="M 27.484375 70.21875 
L 27.484375 54.6875 
L 45.515625 54.6875 
L 45.515625 42.1875 
L 27.484375 42.1875 
L 27.484375 19 
Q 27.484375 15.1875 29 13.84375 
Q 30.515625 12.5 35.015625 12.5 
L 44 12.5 
L 44 0 
L 29 0 
Q 18.65625 0 14.328125 4.3125 
Q 10.015625 8.640625 10.015625 19 
L 10.015625 42.1875 
L 1.3125 42.1875 
L 1.3125 54.6875 
L 10.015625 54.6875 
L 10.015625 70.21875 
z
" id="DejaVuSans-Bold-74"/>
    <path d="M 45.609375 46.6875 
L 45.609375 75.984375 
L 63.1875 75.984375 
L 63.1875 0 
L 45.609375 0 
L 45.609375 7.90625 
Q 42 3.078125 37.640625 0.828125 
Q 33.296875 -1.421875 27.59375 -1.421875 
Q 17.484375 -1.421875 10.984375 6.609375 
Q 4.5 14.65625 4.5 27.296875 
Q 4.5 39.9375 10.984375 47.96875 
Q 17.484375 56 27.59375 56 
Q 33.25 56 37.625 53.734375 
Q 42 51.46875 45.609375 46.6875 
z
M 34.078125 11.28125 
Q 39.703125 11.28125 42.65625 15.375 
Q 45.609375 19.484375 45.609375 27.296875 
Q 45.609375 35.109375 42.65625 39.203125 
Q 39.703125 43.3125 34.078125 43.3125 
Q 28.515625 43.3125 25.5625 39.203125 
Q 22.609375 35.109375 22.609375 27.296875 
Q 22.609375 19.484375 25.5625 15.375 
Q 28.515625 11.28125 34.078125 11.28125 
z
" id="DejaVuSans-Bold-64"/>
    <path d="M 59.078125 45.609375 
Q 62.40625 50.6875 66.96875 53.34375 
Q 71.53125 56 77 56 
Q 86.421875 56 91.359375 50.1875 
Q 96.296875 44.390625 96.296875 33.296875 
L 96.296875 0 
L 78.71875 0 
L 78.71875 28.515625 
Q 78.765625 29.15625 78.78125 29.828125 
Q 78.8125 30.515625 78.8125 31.78125 
Q 78.8125 37.59375 77.09375 40.203125 
Q 75.390625 42.828125 71.578125 42.828125 
Q 66.609375 42.828125 63.890625 38.71875 
Q 61.1875 34.625 61.078125 26.859375 
L 61.078125 0 
L 43.5 0 
L 43.5 28.515625 
Q 43.5 37.59375 41.9375 40.203125 
Q 40.375 42.828125 36.375 42.828125 
Q 31.34375 42.828125 28.609375 38.703125 
Q 25.875 34.578125 25.875 26.90625 
L 25.875 0 
L 8.296875 0 
L 8.296875 54.6875 
L 25.875 54.6875 
L 25.875 46.6875 
Q 29.109375 51.3125 33.28125 53.65625 
Q 37.453125 56 42.484375 56 
Q 48.140625 56 52.484375 53.265625 
Q 56.84375 50.53125 59.078125 45.609375 
z
" id="DejaVuSans-Bold-6d"/>
    <path d="M 51.125 52.984375 
L 51.125 39.703125 
Q 45.515625 42.046875 40.28125 43.21875 
Q 35.0625 44.390625 30.421875 44.390625 
Q 25.4375 44.390625 23.015625 43.140625 
Q 20.609375 41.890625 20.609375 39.3125 
Q 20.609375 37.203125 22.4375 36.078125 
Q 24.265625 34.96875 29 34.421875 
L 32.078125 33.984375 
Q 45.515625 32.28125 50.140625 28.375 
Q 54.78125 24.46875 54.78125 16.109375 
Q 54.78125 7.375 48.328125 2.96875 
Q 41.890625 -1.421875 29.109375 -1.421875 
Q 23.6875 -1.421875 17.890625 -0.5625 
Q 12.109375 0.296875 6 2 
L 6 15.28125 
Q 11.234375 12.75 16.71875 11.46875 
Q 22.21875 10.203125 27.875 10.203125 
Q 33.015625 10.203125 35.59375 11.609375 
Q 38.1875 13.03125 38.1875 15.828125 
Q 38.1875 18.171875 36.40625 19.3125 
Q 34.625 20.453125 29.296875 21.09375 
L 26.21875 21.484375 
Q 14.546875 22.953125 9.859375 26.90625 
Q 5.171875 30.859375 5.171875 38.921875 
Q 5.171875 47.609375 11.125 51.796875 
Q 17.09375 56 29.390625 56 
Q 34.234375 56 39.546875 55.265625 
Q 44.875 54.546875 51.125 52.984375 
z
" id="DejaVuSans-Bold-73"/>
   </defs>
   <g transform="translate(72.9 26.87625)scale(0.24 -0.24)">
    <use xlink:href="#DejaVuSans-Bold-43"/>
    <use x="73.388672" xlink:href="#DejaVuSans-Bold-68"/>
    <use x="144.580078" xlink:href="#DejaVuSans-Bold-61"/>
    <use x="212.060547" xlink:href="#DejaVuSans-Bold-6e"/>
    <use x="283.251953" xlink:href="#DejaVuSans-Bold-67"/>
    <use x="354.833984" xlink:href="#DejaVuSans-Bold-65"/>
    <use x="422.65625" xlink:href="#DejaVuSans-Bold-20"/>
    <use x="457.470703" xlink:href="#DejaVuSans-Bold-69"/>
    <use x="491.748047" xlink:href="#DejaVuSans-Bold-6e"/>
    <use x="562.939453" xlink:href="#DejaVuSans-Bold-20"/>
    <use x="597.753906" xlink:href="#DejaVuSans-Bold-4c"/>
    <use x="661.474609" xlink:href="#DejaVuSans-Bold-61"/>
    <use x="728.955078" xlink:href="#DejaVuSans-Bold-62"/>
    <use x="800.537109" xlink:href="#DejaVuSans-Bold-6f"/>
    <use x="869.238281" xlink:href="#DejaVuSans-Bold-72"/>
    <use x="918.554688" xlink:href="#DejaVuSans-Bold-20"/>
    <use x="953.369141" xlink:href="#DejaVuSans-Bold-66"/>
    <use x="996.875" xlink:href="#DejaVuSans-Bold-6f"/>
    <use x="1065.576172" xlink:href="#DejaVuSans-Bold-72"/>
    <use x="1114.892578" xlink:href="#DejaVuSans-Bold-63"/>
    <use x="1174.169922" xlink:href="#DejaVuSans-Bold-65"/>
    <use x="1241.992188" xlink:href="#DejaVuSans-Bold-20"/>
    <use x="1276.806641" xlink:href="#DejaVuSans-Bold-70"/>
    <use x="1348.388672" xlink:href="#DejaVuSans-Bold-61"/>
    <use x="1415.869141" xlink:href="#DejaVuSans-Bold-72"/>
    <use x="1465.185547" xlink:href="#DejaVuSans-Bold-74"/>
    <use x="1512.988281" xlink:href="#DejaVuSans-Bold-69"/>
    <use x="1547.265625" xlink:href="#DejaVuSans-Bold-63"/>
    <use x="1606.542969" xlink:href="#DejaVuSans-Bold-69"/>
    <use x="1640.820312" xlink:href="#DejaVuSans-Bold-70"/>
    <use x="1712.402344" xlink:href="#DejaVuSans-Bold-61"/>
    <use x="1779.882812" xlink:href="#DejaVuSans-Bold-74"/>
    <use x="1827.685547" xlink:href="#DejaVuSans-Bold-69"/>
    <use x="1861.962891" xlink:href="#DejaVuSans-Bold-6f"/>
    <use x="1930.664062" xlink:href="#DejaVuSans-Bold-6e"/>
    <use x="2001.855469" xlink:href="#DejaVuSans-Bold-20"/>
    <use x="2036.669922" xlink:href="#DejaVuSans-Bold-72"/>
    <use x="2085.986328" xlink:href="#DejaVuSans-Bold-61"/>
    <use x="2153.466797" xlink:href="#DejaVuSans-Bold-74"/>
    <use x="2201.269531" xlink:href="#DejaVuSans-Bold-65"/>
    <use x="2269.091797" xlink:href="#DejaVuSans-Bold-20"/>
    <use x="2303.90625" xlink:href="#DejaVuSans-Bold-64"/>
    <use x="2375.488281" xlink:href="#DejaVuSans-Bold-65"/>
    <use x="2443.310547" xlink:href="#DejaVuSans-Bold-63"/>
    <use x="2502.587891" xlink:href="#DejaVuSans-Bold-6f"/>
    <use x="2571.289062" xlink:href="#DejaVuSans-Bold-6d"/>
    <use x="2675.488281" xlink:href="#DejaVuSans-Bold-70"/>
    <use x="2747.070312" xlink:href="#DejaVuSans-Bold-6f"/>
    <use x="2815.771484" xlink:href="#DejaVuSans-Bold-73"/>
    <use x="2875.292969" xlink:href="#DejaVuSans-Bold-65"/>
    <use x="2943.115234" xlink:href="#DejaVuSans-Bold-64"/>
   </g>
  </g>
  <g id="text_18">
   <!-- Source: Bureau of Labor Statistics -->
   <defs>
    <path d="M 53.515625 70.515625 
L 53.515625 60.890625 
Q 47.90625 63.578125 42.921875 64.890625 
Q 37.9375 66.21875 33.296875 66.21875 
Q 25.25 66.21875 20.875 63.09375 
Q 16.5 59.96875 16.5 54.203125 
Q 16.5 49.359375 19.40625 46.890625 
Q 22.3125 44.4375 30.421875 42.921875 
L 36.375 41.703125 
Q 47.40625 39.59375 52.65625 34.296875 
Q 57.90625 29 57.90625 20.125 
Q 57.90625 9.515625 50.796875 4.046875 
Q 43.703125 -1.421875 29.984375 -1.421875 
Q 24.8125 -1.421875 18.96875 -0.25 
Q 13.140625 0.921875 6.890625 3.21875 
L 6.890625 13.375 
Q 12.890625 10.015625 18.65625 8.296875 
Q 24.421875 6.59375 29.984375 6.59375 
Q 38.421875 6.59375 43.015625 9.90625 
Q 47.609375 13.234375 47.609375 19.390625 
Q 47.609375 24.75 44.3125 27.78125 
Q 41.015625 30.8125 33.5 32.328125 
L 27.484375 33.5 
Q 16.453125 35.6875 11.515625 40.375 
Q 6.59375 45.0625 6.59375 53.421875 
Q 6.59375 63.09375 13.40625 68.65625 
Q 20.21875 74.21875 32.171875 74.21875 
Q 37.3125 74.21875 42.625 73.28125 
Q 47.953125 72.359375 53.515625 70.515625 
z
" id="DejaVuSans-53"/>
    <path d="M 11.71875 12.40625 
L 22.015625 12.40625 
L 22.015625 0 
L 11.71875 0 
z
M 11.71875 51.703125 
L 22.015625 51.703125 
L 22.015625 39.3125 
L 11.71875 39.3125 
z
" id="DejaVuSans-3a"/>
    <path d="M 19.671875 34.8125 
L 19.671875 8.109375 
L 35.5 8.109375 
Q 43.453125 8.109375 47.28125 11.40625 
Q 51.125 14.703125 51.125 21.484375 
Q 51.125 28.328125 47.28125 31.5625 
Q 43.453125 34.8125 35.5 34.8125 
z
M 19.671875 64.796875 
L 19.671875 42.828125 
L 34.28125 42.828125 
Q 41.5 42.828125 45.03125 45.53125 
Q 48.578125 48.25 48.578125 53.8125 
Q 48.578125 59.328125 45.03125 62.0625 
Q 41.5 64.796875 34.28125 64.796875 
z
M 9.8125 72.90625 
L 35.015625 72.90625 
Q 46.296875 72.90625 52.390625 68.21875 
Q 58.5 63.53125 58.5 54.890625 
Q 58.5 48.1875 55.375 44.234375 
Q 52.25 40.28125 46.1875 39.3125 
Q 53.46875 37.75 57.5 32.78125 
Q 61.53125 27.828125 61.53125 20.40625 
Q 61.53125 10.640625 54.890625 5.3125 
Q 48.25 0 35.984375 0 
L 9.8125 0 
z
" id="DejaVuSans-42"/>
    <path d="M 37.109375 75.984375 
L 37.109375 68.5 
L 28.515625 68.5 
Q 23.6875 68.5 21.796875 66.546875 
Q 19.921875 64.59375 19.921875 59.515625 
L 19.921875 54.6875 
L 34.71875 54.6875 
L 34.71875 47.703125 
L 19.921875 47.703125 
L 19.921875 0 
L 10.890625 0 
L 10.890625 47.703125 
L 2.296875 47.703125 
L 2.296875 54.6875 
L 10.890625 54.6875 
L 10.890625 58.5 
Q 10.890625 67.625 15.140625 71.796875 
Q 19.390625 75.984375 28.609375 75.984375 
z
" id="DejaVuSans-66"/>
   </defs>
   <g transform="translate(72.9 421.2)scale(0.1 -0.1)">
    <use xlink:href="#DejaVuSans-53"/>
    <use x="63.476562" xlink:href="#DejaVuSans-6f"/>
    <use x="124.658203" xlink:href="#DejaVuSans-75"/>
    <use x="188.037109" xlink:href="#DejaVuSans-72"/>
    <use x="229.119141" xlink:href="#DejaVuSans-63"/>
    <use x="284.099609" xlink:href="#DejaVuSans-65"/>
    <use x="345.623047" xlink:href="#DejaVuSans-3a"/>
    <use x="379.314453" xlink:href="#DejaVuSans-20"/>
    <use x="411.101562" xlink:href="#DejaVuSans-42"/>
    <use x="479.705078" xlink:href="#DejaVuSans-75"/>
    <use x="543.083984" xlink:href="#DejaVuSans-72"/>
    <use x="584.166016" xlink:href="#DejaVuSans-65"/>
    <use x="645.689453" xlink:href="#DejaVuSans-61"/>
    <use x="706.96875" xlink:href="#DejaVuSans-75"/>
    <use x="770.347656" xlink:href="#DejaVuSans-20"/>
    <use x="802.134766" xlink:href="#DejaVuSans-6f"/>
    <use x="863.316406" xlink:href="#DejaVuSans-66"/>
    <use x="898.521484" xlink:href="#DejaVuSans-20"/>
    <use x="930.308594" xlink:href="#DejaVuSans-4c"/>
    <use x="986.021484" xlink:href="#DejaVuSans-61"/>
    <use x="1047.300781" xlink:href="#DejaVuSans-62"/>
    <use x="1110.777344" xlink:href="#DejaVuSans-6f"/>
    <use x="1171.958984" xlink:href="#DejaVuSans-72"/>
    <use x="1213.072266" xlink:href="#DejaVuSans-20"/>
    <use x="1244.859375" xlink:href="#DejaVuSans-53"/>
    <use x="1308.335938" xlink:href="#DejaVuSans-74"/>
    <use x="1347.544922" xlink:href="#DejaVuSans-61"/>
    <use x="1408.824219" xlink:href="#DejaVuSans-74"/>
    <use x="1448.033203" xlink:href="#DejaVuSans-69"/>
    <use x="1475.816406" xlink:href="#DejaVuSans-73"/>
    <use x="1527.916016" xlink:href="#DejaVuSans-74"/>
    <use x="1567.125" xlink:href="#DejaVuSans-69"/>
    <use x="1594.908203" xlink:href="#DejaVuSans-63"/>
    <use x="1649.888672" xlink:href="#DejaVuSans-73"/>
   </g>
  </g>
 </g>
 <defs>
  <clipPath id="pd4128b5582">
   <rect height="336.96" width="850.5" x="72.9" y="51.84"/>
  </clipPath>
 </defs>
</svg>
