<?xml version="1.0" encoding="utf-8" standalone="no"?>
<!DOCTYPE svg PUBLIC "-//W3C//DTD SVG 1.1//EN"
  "http://www.w3.org/Graphics/SVG/1.1/DTD/svg11.dtd">
<!-- Created with matplotlib (http://matplotlib.org/) -->
<svg height="252pt" version="1.1" viewBox="0 0 864 252" width="864pt" xmlns="http://www.w3.org/2000/svg" xmlns:xlink="http://www.w3.org/1999/xlink">
 <defs>
  <style type="text/css">
*{stroke-linecap:butt;stroke-linejoin:round;}
  </style>
 </defs>
 <g id="figure_1">
  <g id="patch_1">
   <path d="M 0 252 
L 864 252 
L 864 0 
L 0 0 
z
" style="fill:none;"/>
  </g>
  <g id="axes_1">
   <g id="patch_2">
    <path d="M 84.549844 206.298438 
L 806.5 206.298438 
L 806.5 31.94 
L 84.549844 31.94 
z
" style="fill:none;"/>
   </g>
   <g id="PolyCollection_1">
    <path clip-path="url(#p28d97145a7)" d="M 99.11368 31.94 
L 99.11368 206.298438 
L 101.194228 206.298438 
L 103.274776 206.298438 
L 105.355324 206.298438 
L 107.435872 206.298438 
L 109.51642 206.298438 
L 111.596968 206.298438 
L 113.677516 206.298438 
L 113.677516 31.94 
L 113.677516 31.94 
L 111.596968 31.94 
L 109.51642 31.94 
L 107.435872 31.94 
L 105.355324 31.94 
L 103.274776 31.94 
L 101.194228 31.94 
L 99.11368 31.94 
z
" style="fill:#bbbbbb;fill-opacity:0.3;stroke:#bbbbbb;stroke-opacity:0.3;"/>
    <path clip-path="url(#p28d97145a7)" d="M 365.423824 31.94 
L 365.423824 206.298438 
L 367.504372 206.298438 
L 369.58492 206.298438 
L 371.665468 206.298438 
L 373.746016 206.298438 
L 375.826564 206.298438 
L 377.907112 206.298438 
L 379.98766 206.298438 
L 379.98766 31.94 
L 379.98766 31.94 
L 377.907112 31.94 
L 375.826564 31.94 
L 373.746016 31.94 
L 371.665468 31.94 
L 369.58492 31.94 
L 367.504372 31.94 
L 365.423824 31.94 
z
" style="fill:#bbbbbb;fill-opacity:0.3;stroke:#bbbbbb;stroke-opacity:0.3;"/>
    <path clip-path="url(#p28d97145a7)" d="M 533.948212 31.94 
L 533.948212 206.298438 
L 536.02876 206.298438 
L 538.109308 206.298438 
L 540.189856 206.298438 
L 542.270404 206.298438 
L 544.350952 206.298438 
L 546.4315 206.298438 
L 548.512048 206.298438 
L 550.592596 206.298438 
L 552.673144 206.298438 
L 554.753692 206.298438 
L 556.83424 206.298438 
L 558.914788 206.298438 
L 560.995336 206.298438 
L 563.075884 206.298438 
L 565.156432 206.298438 
L 567.23698 206.298438 
L 569.317528 206.298438 
L 569.317528 31.94 
L 569.317528 31.94 
L 567.23698 31.94 
L 565.156432 31.94 
L 563.075884 31.94 
L 560.995336 31.94 
L 558.914788 31.94 
L 556.83424 31.94 
L 554.753692 31.94 
L 552.673144 31.94 
L 550.592596 31.94 
L 548.512048 31.94 
L 546.4315 31.94 
L 544.350952 31.94 
L 542.270404 31.94 
L 540.189856 31.94 
L 538.109308 31.94 
L 536.02876 31.94 
L 533.948212 31.94 
z
" style="fill:#bbbbbb;fill-opacity:0.3;stroke:#bbbbbb;stroke-opacity:0.3;"/>
   </g>
   <g id="matplotlib.axis_1">
    <g id="xtick_1">
     <g id="line2d_1">
      <defs>
       <path d="M 0 0 
L 0 3.5 
" id="m0540ba2fde" style="stroke:#000000;stroke-width:0.8;"/>
      </defs>
      <g>
       <use style="stroke:#000000;stroke-width:0.8;" x="184.416148" xlink:href="#m0540ba2fde" y="206.298438"/>
      </g>
     </g>
     <g id="text_1">
      <!-- 1994 -->
      <defs>
       <path d="M 12.40625 8.296875 
L 28.515625 8.296875 
L 28.515625 63.921875 
L 10.984375 60.40625 
L 10.984375 69.390625 
L 28.421875 72.90625 
L 38.28125 72.90625 
L 38.28125 8.296875 
L 54.390625 8.296875 
L 54.390625 0 
L 12.40625 0 
z
" id="DejaVuSans-31"/>
       <path d="M 10.984375 1.515625 
L 10.984375 10.5 
Q 14.703125 8.734375 18.5 7.8125 
Q 22.3125 6.890625 25.984375 6.890625 
Q 35.75 6.890625 40.890625 13.453125 
Q 46.046875 20.015625 46.78125 33.40625 
Q 43.953125 29.203125 39.59375 26.953125 
Q 35.25 24.703125 29.984375 24.703125 
Q 19.046875 24.703125 12.671875 31.3125 
Q 6.296875 37.9375 6.296875 49.421875 
Q 6.296875 60.640625 12.9375 67.421875 
Q 19.578125 74.21875 30.609375 74.21875 
Q 43.265625 74.21875 49.921875 64.515625 
Q 56.59375 54.828125 56.59375 36.375 
Q 56.59375 19.140625 48.40625 8.859375 
Q 40.234375 -1.421875 26.421875 -1.421875 
Q 22.703125 -1.421875 18.890625 -0.6875 
Q 15.09375 0.046875 10.984375 1.515625 
z
M 30.609375 32.421875 
Q 37.25 32.421875 41.125 36.953125 
Q 45.015625 41.5 45.015625 49.421875 
Q 45.015625 57.28125 41.125 61.84375 
Q 37.25 66.40625 30.609375 66.40625 
Q 23.96875 66.40625 20.09375 61.84375 
Q 16.21875 57.28125 16.21875 49.421875 
Q 16.21875 41.5 20.09375 36.953125 
Q 23.96875 32.421875 30.609375 32.421875 
z
" id="DejaVuSans-39"/>
       <path d="M 37.796875 64.3125 
L 12.890625 25.390625 
L 37.796875 25.390625 
z
M 35.203125 72.90625 
L 47.609375 72.90625 
L 47.609375 25.390625 
L 58.015625 25.390625 
L 58.015625 17.1875 
L 47.609375 17.1875 
L 47.609375 0 
L 37.796875 0 
L 37.796875 17.1875 
L 4.890625 17.1875 
L 4.890625 26.703125 
z
" id="DejaVuSans-34"/>
      </defs>
      <g transform="translate(167.873648 229.676406)scale(0.13 -0.13)">
       <use xlink:href="#DejaVuSans-31"/>
       <use x="63.623047" xlink:href="#DejaVuSans-39"/>
       <use x="127.246094" xlink:href="#DejaVuSans-39"/>
       <use x="190.869141" xlink:href="#DejaVuSans-34"/>
      </g>
     </g>
    </g>
    <g id="xtick_2">
     <g id="line2d_2">
      <g>
       <use style="stroke:#000000;stroke-width:0.8;" x="309.249028" xlink:href="#m0540ba2fde" y="206.298438"/>
      </g>
     </g>
     <g id="text_2">
      <!-- 1999 -->
      <g transform="translate(292.706528 229.676406)scale(0.13 -0.13)">
       <use xlink:href="#DejaVuSans-31"/>
       <use x="63.623047" xlink:href="#DejaVuSans-39"/>
       <use x="127.246094" xlink:href="#DejaVuSans-39"/>
       <use x="190.869141" xlink:href="#DejaVuSans-39"/>
      </g>
     </g>
    </g>
    <g id="xtick_3">
     <g id="line2d_3">
      <g>
       <use style="stroke:#000000;stroke-width:0.8;" x="434.081908" xlink:href="#m0540ba2fde" y="206.298438"/>
      </g>
     </g>
     <g id="text_3">
      <!-- 2004 -->
      <defs>
       <path d="M 19.1875 8.296875 
L 53.609375 8.296875 
L 53.609375 0 
L 7.328125 0 
L 7.328125 8.296875 
Q 12.9375 14.109375 22.625 23.890625 
Q 32.328125 33.6875 34.8125 36.53125 
Q 39.546875 41.84375 41.421875 45.53125 
Q 43.3125 49.21875 43.3125 52.78125 
Q 43.3125 58.59375 39.234375 62.25 
Q 35.15625 65.921875 28.609375 65.921875 
Q 23.96875 65.921875 18.8125 64.3125 
Q 13.671875 62.703125 7.8125 59.421875 
L 7.8125 69.390625 
Q 13.765625 71.78125 18.9375 73 
Q 24.125 74.21875 28.421875 74.21875 
Q 39.75 74.21875 46.484375 68.546875 
Q 53.21875 62.890625 53.21875 53.421875 
Q 53.21875 48.921875 51.53125 44.890625 
Q 49.859375 40.875 45.40625 35.40625 
Q 44.1875 33.984375 37.640625 27.21875 
Q 31.109375 20.453125 19.1875 8.296875 
z
" id="DejaVuSans-32"/>
       <path d="M 31.78125 66.40625 
Q 24.171875 66.40625 20.328125 58.90625 
Q 16.5 51.421875 16.5 36.375 
Q 16.5 21.390625 20.328125 13.890625 
Q 24.171875 6.390625 31.78125 6.390625 
Q 39.453125 6.390625 43.28125 13.890625 
Q 47.125 21.390625 47.125 36.375 
Q 47.125 51.421875 43.28125 58.90625 
Q 39.453125 66.40625 31.78125 66.40625 
z
M 31.78125 74.21875 
Q 44.046875 74.21875 50.515625 64.515625 
Q 56.984375 54.828125 56.984375 36.375 
Q 56.984375 17.96875 50.515625 8.265625 
Q 44.046875 -1.421875 31.78125 -1.421875 
Q 19.53125 -1.421875 13.0625 8.265625 
Q 6.59375 17.96875 6.59375 36.375 
Q 6.59375 54.828125 13.0625 64.515625 
Q 19.53125 74.21875 31.78125 74.21875 
z
" id="DejaVuSans-30"/>
      </defs>
      <g transform="translate(417.539408 229.676406)scale(0.13 -0.13)">
       <use xlink:href="#DejaVuSans-32"/>
       <use x="63.623047" xlink:href="#DejaVuSans-30"/>
       <use x="127.246094" xlink:href="#DejaVuSans-30"/>
       <use x="190.869141" xlink:href="#DejaVuSans-34"/>
      </g>
     </g>
    </g>
    <g id="xtick_4">
     <g id="line2d_4">
      <g>
       <use style="stroke:#000000;stroke-width:0.8;" x="558.914788" xlink:href="#m0540ba2fde" y="206.298438"/>
      </g>
     </g>
     <g id="text_4">
      <!-- 2009 -->
      <g transform="translate(542.372288 229.676406)scale(0.13 -0.13)">
       <use xlink:href="#DejaVuSans-32"/>
       <use x="63.623047" xlink:href="#DejaVuSans-30"/>
       <use x="127.246094" xlink:href="#DejaVuSans-30"/>
       <use x="190.869141" xlink:href="#DejaVuSans-39"/>
      </g>
     </g>
    </g>
    <g id="xtick_5">
     <g id="line2d_5">
      <g>
       <use style="stroke:#000000;stroke-width:0.8;" x="683.747668" xlink:href="#m0540ba2fde" y="206.298438"/>
      </g>
     </g>
     <g id="text_5">
      <!-- 2014 -->
      <g transform="translate(667.205168 229.676406)scale(0.13 -0.13)">
       <use xlink:href="#DejaVuSans-32"/>
       <use x="63.623047" xlink:href="#DejaVuSans-30"/>
       <use x="127.246094" xlink:href="#DejaVuSans-31"/>
       <use x="190.869141" xlink:href="#DejaVuSans-34"/>
      </g>
     </g>
    </g>
    <g id="xtick_6">
     <g id="line2d_6">
      <defs>
       <path d="M 0 0 
L 0 2 
" id="me28944c98a" style="stroke:#000000;stroke-width:0.6;"/>
      </defs>
      <g>
       <use style="stroke:#000000;stroke-width:0.6;" x="84.549844" xlink:href="#me28944c98a" y="206.298438"/>
      </g>
     </g>
    </g>
    <g id="xtick_7">
     <g id="line2d_7">
      <g>
       <use style="stroke:#000000;stroke-width:0.6;" x="109.51642" xlink:href="#me28944c98a" y="206.298438"/>
      </g>
     </g>
    </g>
    <g id="xtick_8">
     <g id="line2d_8">
      <g>
       <use style="stroke:#000000;stroke-width:0.6;" x="134.482996" xlink:href="#me28944c98a" y="206.298438"/>
      </g>
     </g>
    </g>
    <g id="xtick_9">
     <g id="line2d_9">
      <g>
       <use style="stroke:#000000;stroke-width:0.6;" x="159.449572" xlink:href="#me28944c98a" y="206.298438"/>
      </g>
     </g>
    </g>
    <g id="xtick_10">
     <g id="line2d_10">
      <g>
       <use style="stroke:#000000;stroke-width:0.6;" x="184.416148" xlink:href="#me28944c98a" y="206.298438"/>
      </g>
     </g>
    </g>
    <g id="xtick_11">
     <g id="line2d_11">
      <g>
       <use style="stroke:#000000;stroke-width:0.6;" x="209.382724" xlink:href="#me28944c98a" y="206.298438"/>
      </g>
     </g>
    </g>
    <g id="xtick_12">
     <g id="line2d_12">
      <g>
       <use style="stroke:#000000;stroke-width:0.6;" x="234.3493" xlink:href="#me28944c98a" y="206.298438"/>
      </g>
     </g>
    </g>
    <g id="xtick_13">
     <g id="line2d_13">
      <g>
       <use style="stroke:#000000;stroke-width:0.6;" x="259.315876" xlink:href="#me28944c98a" y="206.298438"/>
      </g>
     </g>
    </g>
    <g id="xtick_14">
     <g id="line2d_14">
      <g>
       <use style="stroke:#000000;stroke-width:0.6;" x="284.282452" xlink:href="#me28944c98a" y="206.298438"/>
      </g>
     </g>
    </g>
    <g id="xtick_15">
     <g id="line2d_15">
      <g>
       <use style="stroke:#000000;stroke-width:0.6;" x="309.249028" xlink:href="#me28944c98a" y="206.298438"/>
      </g>
     </g>
    </g>
    <g id="xtick_16">
     <g id="line2d_16">
      <g>
       <use style="stroke:#000000;stroke-width:0.6;" x="334.215604" xlink:href="#me28944c98a" y="206.298438"/>
      </g>
     </g>
    </g>
    <g id="xtick_17">
     <g id="line2d_17">
      <g>
       <use style="stroke:#000000;stroke-width:0.6;" x="359.18218" xlink:href="#me28944c98a" y="206.298438"/>
      </g>
     </g>
    </g>
    <g id="xtick_18">
     <g id="line2d_18">
      <g>
       <use style="stroke:#000000;stroke-width:0.6;" x="384.148756" xlink:href="#me28944c98a" y="206.298438"/>
      </g>
     </g>
    </g>
    <g id="xtick_19">
     <g id="line2d_19">
      <g>
       <use style="stroke:#000000;stroke-width:0.6;" x="409.115332" xlink:href="#me28944c98a" y="206.298438"/>
      </g>
     </g>
    </g>
    <g id="xtick_20">
     <g id="line2d_20">
      <g>
       <use style="stroke:#000000;stroke-width:0.6;" x="434.081908" xlink:href="#me28944c98a" y="206.298438"/>
      </g>
     </g>
    </g>
    <g id="xtick_21">
     <g id="line2d_21">
      <g>
       <use style="stroke:#000000;stroke-width:0.6;" x="459.048484" xlink:href="#me28944c98a" y="206.298438"/>
      </g>
     </g>
    </g>
    <g id="xtick_22">
     <g id="line2d_22">
      <g>
       <use style="stroke:#000000;stroke-width:0.6;" x="484.01506" xlink:href="#me28944c98a" y="206.298438"/>
      </g>
     </g>
    </g>
    <g id="xtick_23">
     <g id="line2d_23">
      <g>
       <use style="stroke:#000000;stroke-width:0.6;" x="508.981636" xlink:href="#me28944c98a" y="206.298438"/>
      </g>
     </g>
    </g>
    <g id="xtick_24">
     <g id="line2d_24">
      <g>
       <use style="stroke:#000000;stroke-width:0.6;" x="533.948212" xlink:href="#me28944c98a" y="206.298438"/>
      </g>
     </g>
    </g>
    <g id="xtick_25">
     <g id="line2d_25">
      <g>
       <use style="stroke:#000000;stroke-width:0.6;" x="558.914788" xlink:href="#me28944c98a" y="206.298438"/>
      </g>
     </g>
    </g>
    <g id="xtick_26">
     <g id="line2d_26">
      <g>
       <use style="stroke:#000000;stroke-width:0.6;" x="583.881364" xlink:href="#me28944c98a" y="206.298438"/>
      </g>
     </g>
    </g>
    <g id="xtick_27">
     <g id="line2d_27">
      <g>
       <use style="stroke:#000000;stroke-width:0.6;" x="608.84794" xlink:href="#me28944c98a" y="206.298438"/>
      </g>
     </g>
    </g>
    <g id="xtick_28">
     <g id="line2d_28">
      <g>
       <use style="stroke:#000000;stroke-width:0.6;" x="633.814516" xlink:href="#me28944c98a" y="206.298438"/>
      </g>
     </g>
    </g>
    <g id="xtick_29">
     <g id="line2d_29">
      <g>
       <use style="stroke:#000000;stroke-width:0.6;" x="658.781092" xlink:href="#me28944c98a" y="206.298438"/>
      </g>
     </g>
    </g>
    <g id="xtick_30">
     <g id="line2d_30">
      <g>
       <use style="stroke:#000000;stroke-width:0.6;" x="683.747668" xlink:href="#me28944c98a" y="206.298438"/>
      </g>
     </g>
    </g>
    <g id="xtick_31">
     <g id="line2d_31">
      <g>
       <use style="stroke:#000000;stroke-width:0.6;" x="708.714244" xlink:href="#me28944c98a" y="206.298438"/>
      </g>
     </g>
    </g>
    <g id="xtick_32">
     <g id="line2d_32">
      <g>
       <use style="stroke:#000000;stroke-width:0.6;" x="733.68082" xlink:href="#me28944c98a" y="206.298438"/>
      </g>
     </g>
    </g>
    <g id="xtick_33">
     <g id="line2d_33">
      <g>
       <use style="stroke:#000000;stroke-width:0.6;" x="758.647396" xlink:href="#me28944c98a" y="206.298438"/>
      </g>
     </g>
    </g>
    <g id="xtick_34">
     <g id="line2d_34">
      <g>
       <use style="stroke:#000000;stroke-width:0.6;" x="783.613972" xlink:href="#me28944c98a" y="206.298438"/>
      </g>
     </g>
    </g>
   </g>
   <g id="matplotlib.axis_2">
    <g id="ytick_1">
     <g id="line2d_35">
      <path clip-path="url(#p28d97145a7)" d="M 84.549844 180.852034 
L 806.5 180.852034 
" style="fill:none;stroke:#000000;stroke-dasharray:0.8,1.32;stroke-dashoffset:0;stroke-width:0.8;"/>
     </g>
     <g id="line2d_36">
      <defs>
       <path d="M 0 0 
L -3.5 0 
" id="m0e20e51b8f" style="stroke:#000000;stroke-width:0.8;"/>
      </defs>
      <g>
       <use style="stroke:#000000;stroke-width:0.8;" x="84.549844" xlink:href="#m0e20e51b8f" y="180.852034"/>
      </g>
     </g>
     <g id="text_6">
      <!-- −4 -->
      <defs>
       <path d="M 10.59375 35.5 
L 73.1875 35.5 
L 73.1875 27.203125 
L 10.59375 27.203125 
z
" id="DejaVuSans-2212"/>
      </defs>
      <g transform="translate(51.885 185.791018)scale(0.13 -0.13)">
       <use xlink:href="#DejaVuSans-2212"/>
       <use x="83.789062" xlink:href="#DejaVuSans-34"/>
      </g>
     </g>
    </g>
    <g id="ytick_2">
     <g id="line2d_37">
      <path clip-path="url(#p28d97145a7)" d="M 84.549844 147.532134 
L 806.5 147.532134 
" style="fill:none;stroke:#000000;stroke-dasharray:0.8,1.32;stroke-dashoffset:0;stroke-width:0.8;"/>
     </g>
     <g id="line2d_38">
      <g>
       <use style="stroke:#000000;stroke-width:0.8;" x="84.549844" xlink:href="#m0e20e51b8f" y="147.532134"/>
      </g>
     </g>
     <g id="text_7">
      <!-- −2 -->
      <g transform="translate(51.885 152.471118)scale(0.13 -0.13)">
       <use xlink:href="#DejaVuSans-2212"/>
       <use x="83.789062" xlink:href="#DejaVuSans-32"/>
      </g>
     </g>
    </g>
    <g id="ytick_3">
     <g id="line2d_39">
      <path clip-path="url(#p28d97145a7)" d="M 84.549844 114.212234 
L 806.5 114.212234 
" style="fill:none;stroke:#000000;stroke-dasharray:0.8,1.32;stroke-dashoffset:0;stroke-width:0.8;"/>
     </g>
     <g id="line2d_40">
      <g>
       <use style="stroke:#000000;stroke-width:0.8;" x="84.549844" xlink:href="#m0e20e51b8f" y="114.212234"/>
      </g>
     </g>
     <g id="text_8">
      <!-- 0 -->
      <g transform="translate(62.778594 119.151219)scale(0.13 -0.13)">
       <use xlink:href="#DejaVuSans-30"/>
      </g>
     </g>
    </g>
    <g id="ytick_4">
     <g id="line2d_41">
      <path clip-path="url(#p28d97145a7)" d="M 84.549844 80.892334 
L 806.5 80.892334 
" style="fill:none;stroke:#000000;stroke-dasharray:0.8,1.32;stroke-dashoffset:0;stroke-width:0.8;"/>
     </g>
     <g id="line2d_42">
      <g>
       <use style="stroke:#000000;stroke-width:0.8;" x="84.549844" xlink:href="#m0e20e51b8f" y="80.892334"/>
      </g>
     </g>
     <g id="text_9">
      <!-- 2 -->
      <g transform="translate(62.778594 85.831319)scale(0.13 -0.13)">
       <use xlink:href="#DejaVuSans-32"/>
      </g>
     </g>
    </g>
    <g id="ytick_5">
     <g id="line2d_43">
      <path clip-path="url(#p28d97145a7)" d="M 84.549844 47.572434 
L 806.5 47.572434 
" style="fill:none;stroke:#000000;stroke-dasharray:0.8,1.32;stroke-dashoffset:0;stroke-width:0.8;"/>
     </g>
     <g id="line2d_44">
      <g>
       <use style="stroke:#000000;stroke-width:0.8;" x="84.549844" xlink:href="#m0e20e51b8f" y="47.572434"/>
      </g>
     </g>
     <g id="text_10">
      <!-- 4 -->
      <g transform="translate(62.778594 52.511419)scale(0.13 -0.13)">
       <use xlink:href="#DejaVuSans-34"/>
      </g>
     </g>
    </g>
    <g id="text_11">
     <!-- Percentage point -->
     <defs>
      <path d="M 19.671875 64.796875 
L 19.671875 37.40625 
L 32.078125 37.40625 
Q 38.96875 37.40625 42.71875 40.96875 
Q 46.484375 44.53125 46.484375 51.125 
Q 46.484375 57.671875 42.71875 61.234375 
Q 38.96875 64.796875 32.078125 64.796875 
z
M 9.8125 72.90625 
L 32.078125 72.90625 
Q 44.34375 72.90625 50.609375 67.359375 
Q 56.890625 61.8125 56.890625 51.125 
Q 56.890625 40.328125 50.609375 34.8125 
Q 44.34375 29.296875 32.078125 29.296875 
L 19.671875 29.296875 
L 19.671875 0 
L 9.8125 0 
z
" id="DejaVuSans-50"/>
      <path d="M 56.203125 29.59375 
L 56.203125 25.203125 
L 14.890625 25.203125 
Q 15.484375 15.921875 20.484375 11.0625 
Q 25.484375 6.203125 34.421875 6.203125 
Q 39.59375 6.203125 44.453125 7.46875 
Q 49.3125 8.734375 54.109375 11.28125 
L 54.109375 2.78125 
Q 49.265625 0.734375 44.1875 -0.34375 
Q 39.109375 -1.421875 33.890625 -1.421875 
Q 20.796875 -1.421875 13.15625 6.1875 
Q 5.515625 13.8125 5.515625 26.8125 
Q 5.515625 40.234375 12.765625 48.109375 
Q 20.015625 56 32.328125 56 
Q 43.359375 56 49.78125 48.890625 
Q 56.203125 41.796875 56.203125 29.59375 
z
M 47.21875 32.234375 
Q 47.125 39.59375 43.09375 43.984375 
Q 39.0625 48.390625 32.421875 48.390625 
Q 24.90625 48.390625 20.390625 44.140625 
Q 15.875 39.890625 15.1875 32.171875 
z
" id="DejaVuSans-65"/>
      <path d="M 41.109375 46.296875 
Q 39.59375 47.171875 37.8125 47.578125 
Q 36.03125 48 33.890625 48 
Q 26.265625 48 22.1875 43.046875 
Q 18.109375 38.09375 18.109375 28.8125 
L 18.109375 0 
L 9.078125 0 
L 9.078125 54.6875 
L 18.109375 54.6875 
L 18.109375 46.1875 
Q 20.953125 51.171875 25.484375 53.578125 
Q 30.03125 56 36.53125 56 
Q 37.453125 56 38.578125 55.875 
Q 39.703125 55.765625 41.0625 55.515625 
z
" id="DejaVuSans-72"/>
      <path d="M 48.78125 52.59375 
L 48.78125 44.1875 
Q 44.96875 46.296875 41.140625 47.34375 
Q 37.3125 48.390625 33.40625 48.390625 
Q 24.65625 48.390625 19.8125 42.84375 
Q 14.984375 37.3125 14.984375 27.296875 
Q 14.984375 17.28125 19.8125 11.734375 
Q 24.65625 6.203125 33.40625 6.203125 
Q 37.3125 6.203125 41.140625 7.25 
Q 44.96875 8.296875 48.78125 10.40625 
L 48.78125 2.09375 
Q 45.015625 0.34375 40.984375 -0.53125 
Q 36.96875 -1.421875 32.421875 -1.421875 
Q 20.0625 -1.421875 12.78125 6.34375 
Q 5.515625 14.109375 5.515625 27.296875 
Q 5.515625 40.671875 12.859375 48.328125 
Q 20.21875 56 33.015625 56 
Q 37.15625 56 41.109375 55.140625 
Q 45.0625 54.296875 48.78125 52.59375 
z
" id="DejaVuSans-63"/>
      <path d="M 54.890625 33.015625 
L 54.890625 0 
L 45.90625 0 
L 45.90625 32.71875 
Q 45.90625 40.484375 42.875 44.328125 
Q 39.84375 48.1875 33.796875 48.1875 
Q 26.515625 48.1875 22.3125 43.546875 
Q 18.109375 38.921875 18.109375 30.90625 
L 18.109375 0 
L 9.078125 0 
L 9.078125 54.6875 
L 18.109375 54.6875 
L 18.109375 46.1875 
Q 21.34375 51.125 25.703125 53.5625 
Q 30.078125 56 35.796875 56 
Q 45.21875 56 50.046875 50.171875 
Q 54.890625 44.34375 54.890625 33.015625 
z
" id="DejaVuSans-6e"/>
      <path d="M 18.3125 70.21875 
L 18.3125 54.6875 
L 36.8125 54.6875 
L 36.8125 47.703125 
L 18.3125 47.703125 
L 18.3125 18.015625 
Q 18.3125 11.328125 20.140625 9.421875 
Q 21.96875 7.515625 27.59375 7.515625 
L 36.8125 7.515625 
L 36.8125 0 
L 27.59375 0 
Q 17.1875 0 13.234375 3.875 
Q 9.28125 7.765625 9.28125 18.015625 
L 9.28125 47.703125 
L 2.6875 47.703125 
L 2.6875 54.6875 
L 9.28125 54.6875 
L 9.28125 70.21875 
z
" id="DejaVuSans-74"/>
      <path d="M 34.28125 27.484375 
Q 23.390625 27.484375 19.1875 25 
Q 14.984375 22.515625 14.984375 16.5 
Q 14.984375 11.71875 18.140625 8.90625 
Q 21.296875 6.109375 26.703125 6.109375 
Q 34.1875 6.109375 38.703125 11.40625 
Q 43.21875 16.703125 43.21875 25.484375 
L 43.21875 27.484375 
z
M 52.203125 31.203125 
L 52.203125 0 
L 43.21875 0 
L 43.21875 8.296875 
Q 40.140625 3.328125 35.546875 0.953125 
Q 30.953125 -1.421875 24.3125 -1.421875 
Q 15.921875 -1.421875 10.953125 3.296875 
Q 6 8.015625 6 15.921875 
Q 6 25.140625 12.171875 29.828125 
Q 18.359375 34.515625 30.609375 34.515625 
L 43.21875 34.515625 
L 43.21875 35.40625 
Q 43.21875 41.609375 39.140625 45 
Q 35.0625 48.390625 27.6875 48.390625 
Q 23 48.390625 18.546875 47.265625 
Q 14.109375 46.140625 10.015625 43.890625 
L 10.015625 52.203125 
Q 14.9375 54.109375 19.578125 55.046875 
Q 24.21875 56 28.609375 56 
Q 40.484375 56 46.34375 49.84375 
Q 52.203125 43.703125 52.203125 31.203125 
z
" id="DejaVuSans-61"/>
      <path d="M 45.40625 27.984375 
Q 45.40625 37.75 41.375 43.109375 
Q 37.359375 48.484375 30.078125 48.484375 
Q 22.859375 48.484375 18.828125 43.109375 
Q 14.796875 37.75 14.796875 27.984375 
Q 14.796875 18.265625 18.828125 12.890625 
Q 22.859375 7.515625 30.078125 7.515625 
Q 37.359375 7.515625 41.375 12.890625 
Q 45.40625 18.265625 45.40625 27.984375 
z
M 54.390625 6.78125 
Q 54.390625 -7.171875 48.1875 -13.984375 
Q 42 -20.796875 29.203125 -20.796875 
Q 24.46875 -20.796875 20.265625 -20.09375 
Q 16.0625 -19.390625 12.109375 -17.921875 
L 12.109375 -9.1875 
Q 16.0625 -11.328125 19.921875 -12.34375 
Q 23.78125 -13.375 27.78125 -13.375 
Q 36.625 -13.375 41.015625 -8.765625 
Q 45.40625 -4.15625 45.40625 5.171875 
L 45.40625 9.625 
Q 42.625 4.78125 38.28125 2.390625 
Q 33.9375 0 27.875 0 
Q 17.828125 0 11.671875 7.65625 
Q 5.515625 15.328125 5.515625 27.984375 
Q 5.515625 40.671875 11.671875 48.328125 
Q 17.828125 56 27.875 56 
Q 33.9375 56 38.28125 53.609375 
Q 42.625 51.21875 45.40625 46.390625 
L 45.40625 54.6875 
L 54.390625 54.6875 
z
" id="DejaVuSans-67"/>
      <path id="DejaVuSans-20"/>
      <path d="M 18.109375 8.203125 
L 18.109375 -20.796875 
L 9.078125 -20.796875 
L 9.078125 54.6875 
L 18.109375 54.6875 
L 18.109375 46.390625 
Q 20.953125 51.265625 25.265625 53.625 
Q 29.59375 56 35.59375 56 
Q 45.5625 56 51.78125 48.09375 
Q 58.015625 40.1875 58.015625 27.296875 
Q 58.015625 14.40625 51.78125 6.484375 
Q 45.5625 -1.421875 35.59375 -1.421875 
Q 29.59375 -1.421875 25.265625 0.953125 
Q 20.953125 3.328125 18.109375 8.203125 
z
M 48.6875 27.296875 
Q 48.6875 37.203125 44.609375 42.84375 
Q 40.53125 48.484375 33.40625 48.484375 
Q 26.265625 48.484375 22.1875 42.84375 
Q 18.109375 37.203125 18.109375 27.296875 
Q 18.109375 17.390625 22.1875 11.75 
Q 26.265625 6.109375 33.40625 6.109375 
Q 40.53125 6.109375 44.609375 11.75 
Q 48.6875 17.390625 48.6875 27.296875 
z
" id="DejaVuSans-70"/>
      <path d="M 30.609375 48.390625 
Q 23.390625 48.390625 19.1875 42.75 
Q 14.984375 37.109375 14.984375 27.296875 
Q 14.984375 17.484375 19.15625 11.84375 
Q 23.34375 6.203125 30.609375 6.203125 
Q 37.796875 6.203125 41.984375 11.859375 
Q 46.1875 17.53125 46.1875 27.296875 
Q 46.1875 37.015625 41.984375 42.703125 
Q 37.796875 48.390625 30.609375 48.390625 
z
M 30.609375 56 
Q 42.328125 56 49.015625 48.375 
Q 55.71875 40.765625 55.71875 27.296875 
Q 55.71875 13.875 49.015625 6.21875 
Q 42.328125 -1.421875 30.609375 -1.421875 
Q 18.84375 -1.421875 12.171875 6.21875 
Q 5.515625 13.875 5.515625 27.296875 
Q 5.515625 40.765625 12.171875 48.375 
Q 18.84375 56 30.609375 56 
z
" id="DejaVuSans-6f"/>
      <path d="M 9.421875 54.6875 
L 18.40625 54.6875 
L 18.40625 0 
L 9.421875 0 
z
M 9.421875 75.984375 
L 18.40625 75.984375 
L 18.40625 64.59375 
L 9.421875 64.59375 
z
" id="DejaVuSans-69"/>
     </defs>
     <g transform="translate(44.5575 187.524219)rotate(-90)scale(0.16 -0.16)">
      <use xlink:href="#DejaVuSans-50"/>
      <use x="60.255859" xlink:href="#DejaVuSans-65"/>
      <use x="121.779297" xlink:href="#DejaVuSans-72"/>
      <use x="162.861328" xlink:href="#DejaVuSans-63"/>
      <use x="217.841797" xlink:href="#DejaVuSans-65"/>
      <use x="279.365234" xlink:href="#DejaVuSans-6e"/>
      <use x="342.744141" xlink:href="#DejaVuSans-74"/>
      <use x="381.953125" xlink:href="#DejaVuSans-61"/>
      <use x="443.232422" xlink:href="#DejaVuSans-67"/>
      <use x="506.708984" xlink:href="#DejaVuSans-65"/>
      <use x="568.232422" xlink:href="#DejaVuSans-20"/>
      <use x="600.019531" xlink:href="#DejaVuSans-70"/>
      <use x="663.496094" xlink:href="#DejaVuSans-6f"/>
      <use x="724.677734" xlink:href="#DejaVuSans-69"/>
      <use x="752.460938" xlink:href="#DejaVuSans-6e"/>
      <use x="815.839844" xlink:href="#DejaVuSans-74"/>
     </g>
    </g>
   </g>
   <g id="line2d_45">
    <path clip-path="url(#p28d97145a7)" d="M 86.630392 66.764658 
L 88.71094 67.082628 
L 90.791488 69.919574 
L 92.872036 69.417163 
L 94.952584 72.213615 
L 97.033132 71.97939 
L 99.11368 71.4765 
L 101.194228 75.170225 
L 103.274776 73.199728 
L 105.355324 72.368666 
L 107.435872 72.05083 
L 109.51642 77.219533 
L 111.596968 78.071537 
L 113.677516 74.885786 
L 115.758064 76.249129 
L 117.838612 80.18362 
L 119.91916 79.44642 
L 121.999708 80.224007 
L 124.080256 83.231415 
L 126.160804 80.201018 
L 128.241352 84.241486 
L 130.3219 84.318208 
L 132.402448 86.672898 
L 134.482996 81.530762 
L 136.563544 84.222084 
L 138.644092 80.492698 
L 140.72464 79.707508 
L 142.805188 75.767285 
L 144.885736 73.727751 
L 146.966284 76.209684 
L 149.046832 76.521256 
L 151.12738 77.960474 
L 153.207928 83.862688 
L 155.288476 82.874998 
L 157.369024 84.828201 
L 159.449572 86.27653 
L 161.53012 86.022698 
L 163.610668 84.067686 
L 165.691216 87.090565 
L 167.771764 83.417587 
L 169.852312 82.020393 
L 171.93286 82.587783 
L 174.013408 82.397578 
L 176.093956 90.001102 
L 178.174504 89.270821 
L 180.255052 91.074609 
L 182.3356 92.723779 
L 184.416148 88.293749 
L 186.496696 91.448706 
L 188.577244 94.886795 
L 190.657792 95.394545 
L 192.73834 96.184448 
L 194.818888 97.656922 
L 196.899436 96.722075 
L 198.979984 92.78623 
L 201.060532 93.689803 
L 203.14108 89.646512 
L 205.221628 89.962474 
L 207.302176 86.808361 
L 209.382724 86.370391 
L 211.463272 86.968566 
L 213.54382 88.074588 
L 215.624368 88.442815 
L 217.704916 95.862819 
L 219.785464 93.907572 
L 221.866012 95.687995 
L 223.94656 96.542484 
L 226.027108 93.788401 
L 228.107656 98.031938 
L 230.188204 100.60744 
L 234.3493 99.862124 
L 236.429848 95.782975 
L 238.510396 94.764444 
L 240.590944 94.975912 
L 242.671492 92.940709 
L 244.75204 93.339787 
L 246.832588 90.422738 
L 248.913136 96.474563 
L 250.993684 94.052768 
L 253.074232 91.994558 
L 255.15478 95.331362 
L 257.235328 96.121843 
L 259.315876 94.711676 
L 261.396424 95.635378 
L 263.476972 92.866844 
L 265.55752 92.512738 
L 267.638068 93.311919 
L 269.718616 92.911138 
L 271.799164 94.173058 
L 273.879712 93.180426 
L 275.96026 95.511032 
L 278.040808 95.203033 
L 280.121356 92.082181 
L 282.201904 95.322928 
L 284.282452 94.847796 
L 286.363 96.041005 
L 288.443548 96.673952 
L 290.524096 96.116841 
L 292.604644 94.783792 
L 294.685192 95.423944 
L 296.76574 93.824144 
L 298.846288 99.644277 
L 300.926836 93.722413 
L 303.007384 95.070947 
L 305.087932 93.843632 
L 307.16848 94.443021 
L 309.249028 93.066949 
L 311.329576 94.657279 
L 313.410124 99.120488 
L 315.490672 100.094561 
L 317.57122 97.159657 
L 319.651768 98.338385 
L 321.732316 97.816207 
L 323.812864 100.072297 
L 325.893412 99.510768 
L 327.97396 99.95344 
L 330.054508 99.906047 
L 332.135056 97.615823 
L 334.215604 91.275417 
L 336.296152 88.316585 
L 338.3767 93.252798 
L 340.457248 94.908165 
L 342.537796 97.431044 
L 344.618344 96.429179 
L 346.698892 101.162475 
L 348.77944 96.112783 
L 350.859988 100.972333 
L 352.940536 101.451087 
L 355.021084 100.406122 
L 357.101632 97.812166 
L 359.18218 93.588005 
L 361.262728 97.15076 
L 363.343276 98.976885 
L 365.423824 99.305866 
L 367.504372 104.074593 
L 369.58492 105.329959 
L 371.665468 104.050803 
L 373.746016 108.253016 
L 375.826564 102.332223 
L 377.907112 104.261258 
L 379.98766 105.629624 
L 382.068208 105.356856 
L 384.148756 109.933381 
L 386.229304 106.787912 
L 388.309852 107.988202 
L 390.3904 106.732993 
L 392.470948 102.172016 
L 394.551496 106.750325 
L 396.632044 107.949995 
L 398.712592 108.640962 
L 400.79314 104.075178 
L 402.873688 109.851141 
L 404.954236 114.585925 
L 407.034784 116.014549 
L 409.115332 118.369817 
L 411.19588 115.256156 
L 413.276428 121.150704 
L 415.356976 116.0414 
L 417.437524 117.436397 
L 419.518072 115.978952 
L 421.59862 119.330874 
L 423.679168 122.347298 
L 425.759716 117.275559 
L 427.840264 119.794308 
L 429.920812 116.961282 
L 432.00136 119.283354 
L 434.081908 115.946447 
L 436.162456 122.957971 
L 438.243004 123.186177 
L 440.323552 124.613437 
L 442.4041 124.49218 
L 444.484648 121.233649 
L 446.565196 119.138013 
L 448.645744 119.681151 
L 450.726292 123.364105 
L 452.80684 121.386718 
L 454.887388 118.466189 
L 456.967936 123.158065 
L 459.048484 126.521443 
L 461.129032 123.124777 
L 463.20958 122.877744 
L 465.290128 120.0926 
L 467.370676 119.041701 
L 469.451224 119.531071 
L 471.531772 120.248161 
L 473.61232 117.874368 
L 475.692868 121.179056 
L 477.773416 123.499461 
L 479.853964 122.989774 
L 481.934512 123.845196 
L 484.01506 120.816642 
L 486.095608 118.362599 
L 488.176156 116.481127 
L 490.256704 117.940577 
L 492.337252 118.264172 
L 494.4178 120.481313 
L 496.498348 125.015899 
L 498.578896 120.850022 
L 500.659444 119.863243 
L 502.739992 119.808906 
L 504.82054 117.888436 
L 506.901088 115.215036 
L 508.981636 114.212234 
L 511.062184 116.499912 
L 515.22328 120.430746 
L 517.303828 122.697199 
L 519.384376 122.560838 
L 521.464924 125.685794 
L 523.545472 130.407771 
L 525.62602 127.387487 
L 527.706568 129.05574 
L 529.787116 124.581809 
L 531.867664 125.306699 
L 533.948212 119.432302 
L 536.02876 124.550476 
L 538.109308 125.473002 
L 540.189856 127.953111 
L 542.270404 125.702921 
L 544.350952 126.664189 
L 546.4315 124.555799 
L 548.512048 128.565039 
L 550.592596 127.712299 
L 552.673144 128.387474 
L 554.753692 132.248053 
L 556.83424 134.759269 
L 558.914788 136.150727 
L 560.995336 136.15208 
L 563.075884 142.429597 
L 565.156432 137.737606 
L 567.23698 136.117328 
L 571.398076 142.791134 
L 573.478624 144.065266 
L 575.559172 148.30608 
L 577.63972 149.547375 
L 579.720268 151.74704 
L 581.800816 159.448497 
L 583.881364 157.009662 
L 585.961912 156.394646 
L 588.04246 152.688049 
L 590.123008 146.617701 
L 592.203556 154.048201 
L 594.284104 157.678178 
L 596.364652 157.28762 
L 598.4452 155.69842 
L 600.525748 158.940953 
L 602.606296 164.066416 
L 604.686844 161.900202 
L 606.767392 165.228732 
L 608.84794 168.113636 
L 610.928488 167.803401 
L 613.009036 169.346487 
L 615.089584 168.384031 
L 617.170132 168.347507 
L 619.25068 169.297313 
L 621.331228 171.84668 
L 623.411776 168.76815 
L 625.492324 168.535309 
L 627.572872 170.349184 
L 629.65342 167.742862 
L 631.733968 167.747391 
L 633.814516 172.940048 
L 637.975612 173.34894 
L 640.05616 174.568338 
L 642.136708 172.980603 
L 644.217256 172.496624 
L 646.297804 173.977878 
L 648.378352 178.003289 
L 650.4589 175.078173 
L 652.539448 172.418925 
L 654.619996 175.533727 
L 656.700544 175.52622 
L 658.781092 171.857757 
L 660.86164 177.228105 
L 662.942188 181.036072 
L 665.022736 178.56956 
L 667.103284 177.933457 
L 669.183832 178.591935 
L 671.26438 180.461461 
L 673.344928 182.85547 
L 675.425476 180.464736 
L 677.506024 190.570978 
L 679.586572 185.803106 
L 681.66712 189.568766 
L 683.747668 189.265654 
L 685.828216 192.490517 
L 687.908764 186.175945 
L 689.989312 192.388505 
L 692.06986 192.795716 
L 694.150408 189.376141 
L 696.230956 187.944883 
L 698.311504 187.691927 
L 700.392052 189.63089 
L 702.4726 191.240898 
L 704.553148 191.273697 
L 708.714244 187.035951 
L 710.794792 189.536154 
L 712.87534 190.088134 
L 714.955888 188.56261 
L 717.036436 187.481414 
L 719.116984 193.714517 
L 721.197532 193.336348 
L 723.27808 194.832744 
L 725.358628 197.636565 
L 727.439176 197.000515 
L 729.519724 198.373054 
L 731.600272 193.091423 
L 733.68082 192.699442 
L 735.761368 188.396181 
L 737.841916 187.398012 
L 739.922464 189.243276 
L 742.003012 193.888136 
L 744.08356 188.643042 
L 746.164108 189.181461 
L 748.244656 188.923784 
L 750.325204 188.902513 
L 752.405752 190.325587 
L 754.4863 192.724443 
L 756.566848 192.580339 
L 758.647396 188.96308 
L 760.727944 189.12309 
L 762.808492 190.805773 
L 764.88904 190.288285 
L 766.969588 194.797884 
L 769.050136 193.32116 
L 771.130684 194.671347 
L 773.211232 193.136544 
L 775.29178 189.477308 
L 777.372328 194.094855 
L 779.452876 195.280843 
L 781.533424 194.223296 
L 783.613972 190.057935 
L 785.69452 186.271322 
L 787.775068 188.338067 
L 789.855616 189.373089 
L 791.936164 190.14932 
L 796.09726 194.717432 
L 798.177808 197.029158 
L 800.258356 198.029845 
L 802.338904 195.200695 
L 804.419452 193.688943 
L 804.419452 193.688943 
" style="fill:none;stroke:#000000;stroke-linecap:square;stroke-width:3;"/>
   </g>
   <g id="line2d_46">
    <path clip-path="url(#p28d97145a7)" d="M 88.71094 78.135134 
L 90.791488 77.450231 
L 92.872036 74.421363 
L 94.952584 72.121527 
L 97.033132 71.010958 
L 99.11368 67.821541 
L 101.194228 67.320009 
L 105.355324 61.369457 
L 107.435872 58.666021 
L 109.51642 60.531567 
L 111.596968 57.584858 
L 113.677516 53.9061 
L 115.758064 52.184778 
L 117.838612 54.218195 
L 119.91916 53.348776 
L 121.999708 53.195731 
L 124.080256 53.478059 
L 126.160804 51.527484 
L 128.241352 52.316884 
L 130.3219 51.777316 
L 132.402448 52.600674 
L 134.482996 49.277714 
L 138.644092 44.351119 
L 140.72464 43.366575 
L 142.805188 41.23943 
L 144.885736 39.865384 
L 146.966284 41.11317 
L 149.046832 42.074037 
L 151.12738 42.82004 
L 153.207928 46.406664 
L 155.288476 45.610617 
L 157.369024 46.883657 
L 159.449572 47.709656 
L 161.53012 51.071377 
L 163.610668 49.33577 
L 165.691216 50.809926 
L 167.771764 49.374715 
L 169.852312 48.226579 
L 171.93286 48.932436 
L 174.013408 48.832164 
L 176.093956 54.035539 
L 178.174504 51.693386 
L 180.255052 53.315603 
L 182.3356 55.31258 
L 184.416148 54.602522 
L 188.577244 66.014835 
L 190.657792 67.632713 
L 192.73834 68.890727 
L 194.818888 70.335909 
L 196.899436 70.849992 
L 198.979984 68.509959 
L 201.060532 70.691425 
L 203.14108 69.812426 
L 205.221628 71.07291 
L 207.302176 72.484231 
L 209.382724 74.352 
L 211.463272 72.890318 
L 213.54382 72.097798 
L 217.704916 77.921446 
L 219.785464 76.991478 
L 221.866012 77.419881 
L 223.94656 79.114454 
L 226.027108 78.595945 
L 228.107656 81.638346 
L 230.188204 83.930058 
L 232.268752 83.029422 
L 234.3493 81.82227 
L 236.429848 81.496913 
L 238.510396 81.504238 
L 240.590944 81.141214 
L 242.671492 79.769258 
L 244.75204 80.432524 
L 246.832588 81.722605 
L 248.913136 82.160658 
L 250.993684 81.348818 
L 253.074232 79.155919 
L 255.15478 80.540166 
L 257.235328 79.727608 
L 259.315876 78.15637 
L 261.396424 79.706809 
L 263.476972 80.437439 
L 265.55752 79.915715 
L 267.638068 80.675623 
L 271.799164 80.554364 
L 273.879712 80.895973 
L 275.96026 82.994516 
L 278.040808 83.276542 
L 280.121356 81.392749 
L 282.201904 84.637283 
L 284.282452 85.06662 
L 286.363 86.994198 
L 288.443548 88.10737 
L 290.524096 86.637725 
L 292.604644 87.265461 
L 296.76574 90.281116 
L 298.846288 95.605892 
L 300.926836 95.831898 
L 303.007384 96.461676 
L 305.087932 97.871758 
L 307.16848 99.101951 
L 309.249028 98.241943 
L 311.329576 98.480377 
L 313.410124 99.329962 
L 315.490672 102.023421 
L 317.57122 102.482735 
L 319.651768 101.959134 
L 321.732316 102.02989 
L 323.812864 104.881899 
L 325.893412 105.218242 
L 327.97396 106.48849 
L 330.054508 107.478221 
L 332.135056 107.57138 
L 334.215604 104.621157 
L 336.296152 104.20106 
L 338.3767 106.926339 
L 340.457248 107.959692 
L 342.537796 109.611561 
L 344.618344 109.631457 
L 346.698892 111.571987 
L 348.77944 108.454709 
L 350.859988 112.381026 
L 352.940536 111.550054 
L 355.021084 112.387032 
L 357.101632 109.856924 
L 359.18218 109.036228 
L 361.262728 113.326243 
L 363.343276 115.270443 
L 365.423824 115.481674 
L 367.504372 117.393164 
L 371.665468 116.929546 
L 373.746016 120.225253 
L 375.826564 116.737058 
L 377.907112 116.352416 
L 379.98766 114.274816 
L 382.068208 112.821793 
L 384.148756 113.188857 
L 386.229304 108.349199 
L 388.309852 108.284775 
L 390.3904 106.539813 
L 392.470948 104.008391 
L 394.551496 105.227402 
L 396.632044 106.156885 
L 398.712592 104.894354 
L 400.79314 100.721583 
L 402.873688 103.728408 
L 404.954236 107.352666 
L 407.034784 105.662307 
L 409.115332 107.389438 
L 411.19588 104.273403 
L 413.276428 108.418088 
L 415.356976 104.826059 
L 417.437524 105.030926 
L 419.518072 105.01685 
L 421.59862 105.9874 
L 423.679168 107.696464 
L 425.759716 104.284736 
L 427.840264 105.487881 
L 429.920812 102.997666 
L 432.00136 103.58011 
L 434.081908 101.15653 
L 436.162456 103.816191 
L 438.243004 106.850317 
L 440.323552 107.603171 
L 442.4041 107.263318 
L 444.484648 104.790641 
L 446.565196 104.425585 
L 448.645744 104.665197 
L 450.726292 107.988641 
L 452.80684 108.717172 
L 454.887388 107.341723 
L 456.967936 111.731665 
L 459.048484 113.85261 
L 461.129032 111.644009 
L 465.290128 109.324056 
L 467.370676 109.449958 
L 471.531772 110.039808 
L 473.61232 108.828097 
L 475.692868 109.857966 
L 477.773416 111.268804 
L 479.853964 111.524286 
L 481.934512 113.606867 
L 484.01506 112.067519 
L 486.095608 111.953411 
L 488.176156 110.322116 
L 490.256704 111.197733 
L 492.337252 111.719257 
L 494.4178 115.062941 
L 496.498348 116.778846 
L 498.578896 115.212013 
L 500.659444 114.098323 
L 504.82054 113.046042 
L 506.901088 112.996581 
L 511.062184 115.486464 
L 513.142732 116.038929 
L 515.22328 115.82382 
L 517.303828 116.090388 
L 519.384376 115.415743 
L 521.464924 115.091311 
L 523.545472 118.172103 
L 525.62602 116.14168 
L 527.706568 115.898792 
L 529.787116 113.816374 
L 531.867664 113.200981 
L 533.948212 107.701203 
L 536.02876 109.566501 
L 538.109308 109.145555 
L 540.189856 109.745172 
L 542.270404 108.295934 
L 544.350952 107.757932 
L 546.4315 105.046528 
L 548.512048 104.674236 
L 550.592596 103.881303 
L 552.673144 102.901276 
L 556.83424 101.53986 
L 558.914788 100.776527 
L 560.995336 97.659679 
L 563.075884 99.174923 
L 565.156432 94.571573 
L 567.23698 91.259434 
L 569.317528 90.047966 
L 571.398076 89.78979 
L 573.478624 89.956288 
L 575.559172 88.614905 
L 577.63972 87.956816 
L 579.720268 86.767389 
L 581.800816 90.250938 
L 583.881364 88.696555 
L 588.04246 87.041294 
L 590.123008 84.40186 
L 592.203556 86.949941 
L 594.284104 88.030327 
L 596.364652 87.796118 
L 598.4452 87.342572 
L 600.525748 88.042283 
L 602.606296 90.119191 
L 604.686844 89.000189 
L 606.767392 90.895201 
L 608.84794 93.130097 
L 610.928488 94.163338 
L 613.009036 92.909136 
L 615.089584 93.435098 
L 617.170132 94.404206 
L 619.25068 94.9909 
L 621.331228 98.100412 
L 623.411776 95.70966 
L 625.492324 96.440837 
L 627.572872 95.91085 
L 629.65342 93.042947 
L 631.733968 93.654783 
L 633.814516 98.391008 
L 635.895064 98.053375 
L 640.05616 99.543315 
L 646.297804 100.636423 
L 648.378352 104.433048 
L 650.4589 105.122036 
L 652.539448 105.307428 
L 654.619996 108.01029 
L 656.700544 108.700771 
L 658.781092 105.013991 
L 660.86164 108.692683 
L 662.942188 110.362204 
L 667.103284 108.901064 
L 669.183832 110.545838 
L 671.26438 111.337717 
L 673.344928 115.039059 
L 675.425476 113.5779 
L 677.506024 118.723048 
L 679.586572 114.060303 
L 681.66712 116.09614 
L 683.747668 116.878015 
L 685.828216 118.657015 
L 687.908764 116.516206 
L 689.989312 119.677575 
L 692.06986 120.834214 
L 694.150408 119.518354 
L 696.230956 120.32344 
L 698.311504 120.891888 
L 700.392052 121.155737 
L 702.4726 124.207312 
L 704.553148 126.293183 
L 706.633696 126.647916 
L 708.714244 129.477845 
L 710.794792 133.196968 
L 712.87534 135.37961 
L 714.955888 135.285029 
L 717.036436 136.250789 
L 719.116984 141.7117 
L 725.358628 144.854001 
L 727.439176 145.315623 
L 729.519724 146.355937 
L 731.600272 143.068306 
L 733.68082 144.541695 
L 735.761368 144.661392 
L 737.841916 143.164096 
L 739.922464 143.003228 
L 742.003012 144.909189 
L 744.08356 141.140098 
L 746.164108 140.108782 
L 748.244656 140.751482 
L 750.325204 140.783404 
L 752.405752 139.80871 
L 754.4863 142.997069 
L 756.566848 145.100645 
L 758.647396 140.295878 
L 760.727944 139.121352 
L 762.808492 140.929472 
L 764.88904 141.749532 
L 766.969588 143.566207 
L 769.050136 144.261638 
L 771.130684 146.415606 
L 775.29178 144.64293 
L 777.372328 148.64939 
L 779.452876 148.838023 
L 781.533424 148.612267 
L 783.613972 145.901142 
L 785.69452 143.623415 
L 787.775068 145.484058 
L 789.855616 145.432345 
L 791.936164 144.026276 
L 796.09726 148.838208 
L 798.177808 152.042588 
L 800.258356 153.473784 
L 802.338904 150.415272 
L 804.419452 148.679368 
L 804.419452 148.679368 
" style="fill:none;stroke:#d3d3d3;stroke-dasharray:3,4.95;stroke-dashoffset:0;stroke-width:3;"/>
   </g>
   <g id="line2d_47">
    <path clip-path="url(#p28d97145a7)" d="M 88.71094 115.166134 
L 90.791488 117.083489 
L 92.872036 117.678266 
L 94.952584 121.447542 
L 97.033132 120.762923 
L 99.11368 121.899491 
L 101.194228 124.561998 
L 103.274776 123.886657 
L 105.355324 124.363847 
L 107.435872 124.960066 
L 109.51642 126.583693 
L 111.596968 128.724903 
L 113.677516 127.113098 
L 115.758064 128.284823 
L 117.838612 128.707579 
L 119.91916 127.207444 
L 121.999708 126.794965 
L 124.080256 128.234025 
L 126.160804 125.997658 
L 128.241352 128.485667 
L 130.3219 128.051277 
L 132.402448 128.72631 
L 134.482996 125.709228 
L 136.563544 129.768172 
L 138.644092 127.314321 
L 140.72464 126.698502 
L 142.805188 124.099853 
L 144.885736 122.676709 
L 146.966284 123.175586 
L 149.046832 121.908858 
L 151.12738 122.03724 
L 153.207928 123.748682 
L 155.288476 123.145474 
L 157.369024 123.428717 
L 159.449572 123.984959 
L 161.53012 120.531107 
L 163.610668 120.315657 
L 165.691216 121.840083 
L 167.771764 119.84056 
L 171.93286 119.950813 
L 174.013408 120.2222 
L 176.093956 123.017119 
L 178.174504 124.951595 
L 180.255052 125.49632 
L 182.3356 125.784219 
L 184.416148 122.518273 
L 188.577244 118.383972 
L 190.657792 117.967259 
L 192.73834 118.062828 
L 194.818888 118.958669 
L 196.899436 118.185201 
L 198.979984 117.029432 
L 201.060532 116.535051 
L 203.14108 114.214003 
L 205.221628 114.150709 
L 207.302176 110.828203 
L 209.382724 109.840143 
L 213.54382 115.414873 
L 215.624368 114.016653 
L 217.704916 119.176224 
L 219.785464 118.412157 
L 221.866012 120.137561 
L 223.94656 119.541665 
L 226.027108 117.353441 
L 228.107656 118.692333 
L 230.188204 119.389714 
L 232.268752 119.874575 
L 234.3493 121.061629 
L 236.429848 117.764539 
L 238.510396 117.32163 
L 240.590944 118.155285 
L 242.671492 117.597926 
L 244.75204 117.510238 
L 246.832588 113.805904 
L 248.913136 119.884301 
L 250.993684 118.96261 
L 253.074232 119.5579 
L 255.15478 122.401902 
L 257.235328 124.157903 
L 259.315876 124.855735 
L 261.396424 124.370246 
L 263.476972 121.276379 
L 265.55752 121.923003 
L 269.718616 122.915345 
L 271.799164 124.36031 
L 273.879712 123.509554 
L 275.96026 124.27569 
L 278.040808 124.103782 
L 280.121356 123.45215 
L 282.201904 124.364739 
L 284.282452 123.854622 
L 286.363 123.630063 
L 288.443548 123.754324 
L 290.524096 124.925235 
L 292.604644 123.812439 
L 294.685192 123.576276 
L 296.76574 121.130278 
L 298.846288 122.015011 
L 300.926836 116.435094 
L 303.007384 117.286604 
L 305.087932 114.980445 
L 307.16848 114.779646 
L 309.249028 114.239283 
L 311.329576 116.011323 
L 313.410124 119.646476 
L 315.490672 118.820532 
L 317.57122 115.482143 
L 319.651768 117.272396 
L 327.97396 116.292495 
L 330.054508 115.453236 
L 332.135056 113.636352 
L 334.215604 110.970945 
L 336.296152 109.298689 
L 338.3767 111.938291 
L 340.457248 112.984403 
L 342.537796 114.198314 
L 344.618344 113.218778 
L 346.698892 116.228383 
L 348.77944 114.200802 
L 350.859988 115.168112 
L 352.940536 116.36582 
L 355.021084 114.684429 
L 357.101632 115.019816 
L 359.18218 111.412764 
L 361.262728 110.220987 
L 363.343276 109.444858 
L 365.423824 108.791023 
L 367.504372 110.933472 
L 369.58492 111.737449 
L 371.665468 109.744248 
L 373.746016 109.768067 
L 375.826564 106.487105 
L 377.907112 108.199634 
L 379.98766 110.456032 
L 382.068208 109.794415 
L 384.148756 112.77 
L 386.229304 112.716118 
L 388.309852 112.866849 
L 390.3904 112.65237 
L 392.470948 109.632764 
L 394.551496 112.416921 
L 396.632044 111.428892 
L 398.712592 112.387951 
L 400.79314 111.032921 
L 402.873688 113.399408 
L 404.954236 113.56309 
L 407.034784 115.491578 
L 409.115332 115.083298 
L 411.19588 114.037372 
L 413.276428 115.183369 
L 415.356976 112.788162 
L 417.437524 113.225017 
L 419.518072 110.976329 
L 421.59862 112.719351 
L 423.679168 113.377511 
L 425.759716 111.286729 
L 427.840264 112.407328 
L 429.920812 112.037858 
L 432.00136 113.929023 
L 434.081908 113.707414 
L 436.162456 118.833678 
L 438.243004 116.383035 
L 440.323552 117.282729 
L 442.4041 117.888692 
L 444.484648 117.337163 
L 446.565196 116.121053 
L 448.645744 116.894438 
L 450.726292 117.481944 
L 452.80684 115.032572 
L 454.887388 113.821339 
L 456.967936 114.553573 
L 459.048484 116.019919 
L 461.129032 115.321951 
L 463.20958 116.76402 
L 465.290128 115.727329 
L 467.370676 115.207437 
L 469.451224 116.167302 
L 471.531772 116.887015 
L 473.61232 116.230563 
L 475.692868 119.221103 
L 477.773416 120.250839 
L 479.853964 119.866333 
L 481.934512 119.175223 
L 484.01506 118.116143 
L 486.095608 116.812821 
L 488.176156 117.098045 
L 490.256704 118.26899 
L 492.337252 118.282879 
L 494.4178 117.288382 
L 496.498348 120.460443 
L 498.578896 117.968669 
L 500.659444 118.496667 
L 502.739992 119.671515 
L 504.82054 118.413194 
L 506.901088 115.921038 
L 508.981636 114.212234 
L 511.062184 115.375992 
L 513.142732 116.731837 
L 515.22328 119.382447 
L 517.303828 121.622423 
L 519.384376 122.417621 
L 521.464924 125.768525 
L 523.545472 127.329332 
L 525.62602 126.424326 
L 527.706568 128.259161 
L 529.787116 125.697414 
L 531.867664 127.025981 
L 533.948212 126.498652 
L 536.02876 129.687125 
L 540.189856 131.888699 
L 542.270404 130.282972 
L 544.350952 130.794551 
L 546.4315 130.042283 
L 548.512048 133.163177 
L 550.592596 131.331302 
L 552.673144 131.030269 
L 554.753692 133.569697 
L 556.83424 133.976081 
L 558.914788 132.475624 
L 560.995336 131.788092 
L 563.075884 132.312045 
L 565.156432 127.453344 
L 567.23698 125.562695 
L 569.317528 126.671655 
L 571.398076 127.077156 
L 573.478624 125.097832 
L 575.559172 127.98745 
L 577.63972 127.414502 
L 579.720268 128.315328 
L 581.800816 130.684092 
L 583.881364 127.906182 
L 585.961912 126.564619 
L 590.123008 118.223113 
L 592.203556 122.775447 
L 594.284104 124.992485 
L 596.364652 124.22551 
L 598.4452 122.903006 
L 600.525748 125.198455 
L 602.606296 128.018671 
L 604.686844 126.84962 
L 606.767392 127.821382 
L 608.84794 128.290542 
L 610.928488 127.165601 
L 613.009036 130.509121 
L 615.089584 129.460758 
L 617.170132 128.810927 
L 619.25068 129.57224 
L 621.331228 129.552778 
L 625.492324 129.155534 
L 627.572872 131.844365 
L 629.65342 132.558124 
L 631.733968 132.725779 
L 633.814516 134.096245 
L 635.895064 135.925494 
L 637.975612 136.579168 
L 640.05616 138.222291 
L 642.136708 137.326977 
L 644.217256 137.424235 
L 646.297804 139.135661 
L 648.378352 139.920959 
L 650.4589 136.688458 
L 652.539448 134.735612 
L 654.619996 136.269293 
L 656.700544 136.298974 
L 658.781092 136.819651 
L 660.86164 138.636926 
L 662.942188 141.372664 
L 665.022736 140.280913 
L 667.103284 140.691524 
L 669.183832 140.174208 
L 671.26438 141.684233 
L 675.425476 140.15196 
L 677.506024 145.410716 
L 679.586572 145.607228 
L 681.66712 148.272111 
L 683.747668 148.445714 
L 685.828216 150.751144 
L 687.908764 147.429017 
L 689.989312 151.463263 
L 692.06986 151.744635 
L 696.230956 149.404061 
L 698.311504 149.674986 
L 700.392052 152.180507 
L 702.4726 152.227454 
L 704.553148 151.697286 
L 706.633696 150.168912 
L 708.714244 146.508675 
L 710.794792 146.179021 
L 712.87534 145.518695 
L 714.955888 145.209816 
L 717.036436 144.194838 
L 719.116984 145.868464 
L 721.197532 145.479249 
L 723.27808 146.990101 
L 725.358628 149.882141 
L 727.439176 149.700863 
L 729.519724 150.922062 
L 731.600272 149.493526 
L 733.68082 148.551343 
L 735.761368 145.207518 
L 737.841916 146.682863 
L 739.922464 149.078742 
L 742.003012 151.899476 
L 744.08356 150.873759 
L 746.164108 152.87104 
L 748.244656 152.202866 
L 750.325204 152.291956 
L 752.405752 154.868419 
L 754.4863 154.447098 
L 756.566848 152.690335 
L 758.647396 154.13683 
L 760.727944 155.960304 
L 762.808492 156.498473 
L 764.88904 155.755741 
L 766.969588 159.274985 
L 769.050136 157.781791 
L 771.130684 157.380697 
L 773.211232 157.500805 
L 775.29178 155.083933 
L 777.372328 156.468556 
L 779.452876 158.00629 
L 781.533424 157.767556 
L 785.69452 156.015085 
L 787.775068 157.079797 
L 789.855616 158.617977 
L 791.936164 161.211378 
L 796.09726 161.883283 
L 798.177808 161.506623 
L 800.258356 161.511857 
L 804.419452 162.920883 
L 804.419452 162.920883 
" style="fill:none;stroke:#696969;stroke-dasharray:11.1,4.8;stroke-dashoffset:0;stroke-width:3;"/>
   </g>
   <g id="line2d_48">
    <path clip-path="url(#p28d97145a7)" d="M 88.71094 113.521381 
L 90.791488 113.828408 
L 92.872036 114.654273 
L 94.952584 115.104749 
L 97.033132 115.800587 
L 101.194228 117.535163 
L 107.435872 121.067302 
L 111.596968 123.619007 
L 115.758064 126.972285 
L 117.838612 128.167697 
L 119.91916 129.538414 
L 124.080256 131.742694 
L 126.160804 132.70735 
L 128.241352 133.316844 
L 130.3219 134.218498 
L 132.402448 134.945515 
L 138.644092 138.102614 
L 144.885736 140.219651 
L 149.046832 141.454202 
L 155.288476 142.899786 
L 157.369024 143.260776 
L 159.449572 143.294294 
L 161.53012 143.100941 
L 165.691216 143.071684 
L 171.93286 142.278154 
L 180.255052 140.78556 
L 182.3356 140.140046 
L 186.496696 139.261056 
L 188.577244 138.975115 
L 190.657792 138.275299 
L 192.73834 137.705885 
L 194.818888 136.832395 
L 196.899436 136.152193 
L 198.979984 135.707932 
L 203.14108 134.073928 
L 205.221628 133.189703 
L 209.382724 130.623668 
L 211.463272 129.941712 
L 213.54382 129.003495 
L 215.624368 127.896105 
L 217.704916 127.203463 
L 223.94656 126.320877 
L 228.107656 126.133812 
L 230.188204 125.719397 
L 232.268752 125.723492 
L 234.3493 125.408584 
L 236.429848 124.951241 
L 238.510396 124.367751 
L 240.590944 124.108123 
L 244.75204 123.824919 
L 248.913136 122.856852 
L 250.993684 122.168301 
L 253.074232 121.707448 
L 255.15478 120.815792 
L 257.235328 120.662637 
L 259.315876 120.125697 
L 261.396424 119.984279 
L 267.638068 118.697825 
L 269.718616 117.85268 
L 271.799164 117.683727 
L 280.121356 115.662321 
L 282.201904 114.745887 
L 284.282452 114.351483 
L 288.443548 113.2371 
L 290.524096 112.978686 
L 292.604644 112.130663 
L 294.685192 111.555796 
L 296.76574 110.83746 
L 298.846288 110.44806 
L 300.926836 109.880081 
L 303.007384 109.747307 
L 307.16848 108.98603 
L 309.249028 109.010315 
L 311.329576 108.590159 
L 313.410124 108.568618 
L 315.490672 107.675166 
L 319.651768 107.531396 
L 323.812864 106.768632 
L 325.893412 106.274109 
L 327.97396 105.59697 
L 330.054508 105.399101 
L 332.135056 104.832596 
L 334.215604 104.107816 
L 336.296152 103.241334 
L 342.537796 102.045659 
L 344.618344 102.003432 
L 346.698892 101.78659 
L 348.77944 101.881755 
L 350.859988 101.847677 
L 352.940536 101.959694 
L 355.021084 101.75914 
L 357.101632 101.359904 
L 359.18218 101.56349 
L 361.262728 102.028007 
L 365.423824 103.457643 
L 369.58492 104.865728 
L 373.746016 106.684168 
L 375.826564 107.532532 
L 377.907112 108.13368 
L 379.98766 109.323247 
L 382.068208 111.165119 
L 384.148756 112.398995 
L 386.229304 114.147065 
L 388.309852 115.261048 
L 390.3904 115.965279 
L 392.470948 116.95533 
L 394.551496 117.530472 
L 396.632044 118.788687 
L 400.79314 120.745143 
L 402.873688 121.147794 
L 404.954236 122.094639 
L 407.034784 123.285133 
L 411.19588 125.36985 
L 413.276428 125.973716 
L 415.356976 126.851648 
L 421.59862 129.048592 
L 423.679168 129.697791 
L 425.759716 130.128563 
L 427.840264 130.323568 
L 429.920812 130.350227 
L 432.00136 130.198689 
L 436.162456 128.73257 
L 438.243004 128.377295 
L 440.323552 128.152006 
L 442.4041 127.764638 
L 444.484648 127.530313 
L 448.645744 126.545984 
L 452.80684 126.061443 
L 459.048484 125.073382 
L 463.20958 124.068168 
L 467.370676 122.808774 
L 469.451224 122.092043 
L 471.531772 121.745806 
L 473.61232 121.240176 
L 475.692868 120.524456 
L 477.773416 120.404286 
L 479.853964 120.023623 
L 484.01506 119.057448 
L 486.095608 118.020836 
L 490.256704 116.898322 
L 498.578896 116.093808 
L 500.659444 115.69272 
L 502.739992 114.944557 
L 506.901088 114.721886 
L 508.981636 114.212234 
L 511.062184 114.061925 
L 513.142732 114.06971 
L 515.22328 113.648948 
L 519.384376 113.151942 
L 523.545472 113.330804 
L 525.62602 113.24595 
L 536.02876 113.721319 
L 538.109308 114.022667 
L 542.270404 115.548483 
L 544.350952 116.536175 
L 548.512048 119.152095 
L 550.592596 120.924161 
L 554.753692 124.852407 
L 556.83424 127.667797 
L 560.995336 135.128777 
L 563.075884 139.367097 
L 565.156432 144.137157 
L 569.317528 151.22639 
L 573.478624 157.435615 
L 575.559172 160.128193 
L 579.720268 165.088791 
L 583.881364 168.831394 
L 585.961912 170.345346 
L 588.04246 171.623866 
L 590.123008 172.417196 
L 594.284104 173.079835 
L 596.364652 173.69046 
L 604.686844 174.474862 
L 606.767392 174.936617 
L 608.84794 175.117465 
L 610.928488 174.898931 
L 615.089584 173.912643 
L 619.25068 173.158641 
L 623.411776 172.14474 
L 625.492324 171.363407 
L 629.65342 170.566259 
L 631.733968 169.791297 
L 633.814516 168.877263 
L 637.975612 166.360609 
L 642.136708 164.206343 
L 644.217256 163.293885 
L 648.378352 162.073751 
L 650.4589 161.692147 
L 652.539448 160.800353 
L 654.619996 159.678612 
L 656.700544 158.950943 
L 658.781092 158.448584 
L 660.86164 158.322964 
L 665.022736 157.075925 
L 667.103284 156.765337 
L 673.344928 155.358567 
L 677.506024 154.861683 
L 679.586572 154.560043 
L 681.66712 153.624983 
L 683.747668 152.366393 
L 689.989312 149.672135 
L 698.311504 145.549522 
L 700.392052 144.719115 
L 704.553148 141.707696 
L 706.633696 140.780367 
L 708.714244 139.473899 
L 712.87534 137.614298 
L 717.036436 135.460256 
L 719.116984 134.558822 
L 727.439176 130.408497 
L 729.519724 129.519523 
L 731.600272 128.954059 
L 733.68082 128.030872 
L 737.841916 125.975522 
L 739.922464 125.585774 
L 742.003012 125.503939 
L 746.164108 124.626108 
L 750.325204 124.251622 
L 752.405752 124.072926 
L 754.4863 123.704744 
L 756.566848 123.213828 
L 758.647396 122.95484 
L 760.727944 122.465902 
L 769.050136 119.702199 
L 771.130684 119.299513 
L 773.211232 118.579967 
L 775.29178 118.174913 
L 777.372328 117.401377 
L 783.613972 115.690165 
L 785.69452 115.057291 
L 787.775068 114.19868 
L 804.419452 110.513161 
L 804.419452 110.513161 
" style="fill:none;stroke:#808080;stroke-dasharray:19.2,4.8,3,4.8;stroke-dashoffset:0;stroke-width:3;"/>
   </g>
   <g id="line2d_49">
    <path clip-path="url(#p28d97145a7)" d="M 84.549844 114.212234 
L 806.5 114.212234 
" style="fill:none;stroke:#000000;stroke-linecap:square;stroke-width:1.5;"/>
   </g>
   <g id="patch_3">
    <path d="M 84.549844 206.298438 
L 806.5 206.298438 
" style="fill:none;stroke:#000000;stroke-linecap:square;stroke-linejoin:miter;stroke-width:0.8;"/>
   </g>
  </g>
 </g>
 <defs>
  <clipPath id="p28d97145a7">
   <rect height="174.358438" width="721.950156" x="84.549844" y="31.94"/>
  </clipPath>
 </defs>
</svg>
