<?xml version="1.0" encoding="utf-8" standalone="no"?>
<!DOCTYPE svg PUBLIC "-//W3C//DTD SVG 1.1//EN"
  "http://www.w3.org/Graphics/SVG/1.1/DTD/svg11.dtd">
<!-- Created with matplotlib (http://matplotlib.org/) -->
<svg height="432pt" version="1.1" viewBox="0 0 576 432" width="576pt" xmlns="http://www.w3.org/2000/svg" xmlns:xlink="http://www.w3.org/1999/xlink">
 <defs>
  <style type="text/css">
*{stroke-linecap:butt;stroke-linejoin:round;}
  </style>
 </defs>
 <g id="figure_1">
  <g id="patch_1">
   <path d="M 0 432 
L 576 432 
L 576 0 
L 0 0 
z
" style="fill:none;"/>
  </g>
  <g id="axes_1">
   <g id="patch_2">
    <path d="M 69.055937 382.901875 
L 532.9 382.901875 
L 532.9 44.54 
L 69.055937 44.54 
z
" style="fill:none;"/>
   </g>
   <g id="PolyCollection_1">
    <path clip-path="url(#p4ca3e9498f)" d="M 78.413022 44.54 
L 78.413022 382.901875 
L 79.749749 382.901875 
L 81.086475 382.901875 
L 82.423202 382.901875 
L 83.759928 382.901875 
L 85.096654 382.901875 
L 86.433381 382.901875 
L 87.770107 382.901875 
L 87.770107 44.54 
L 87.770107 44.54 
L 86.433381 44.54 
L 85.096654 44.54 
L 83.759928 44.54 
L 82.423202 44.54 
L 81.086475 44.54 
L 79.749749 44.54 
L 78.413022 44.54 
z
" style="fill:#bbbbbb;fill-opacity:0.3;stroke:#bbbbbb;stroke-opacity:0.3;"/>
    <path clip-path="url(#p4ca3e9498f)" d="M 249.514002 44.54 
L 249.514002 382.901875 
L 250.850729 382.901875 
L 252.187455 382.901875 
L 253.524181 382.901875 
L 254.860908 382.901875 
L 256.197634 382.901875 
L 257.534361 382.901875 
L 258.871087 382.901875 
L 258.871087 44.54 
L 258.871087 44.54 
L 257.534361 44.54 
L 256.197634 44.54 
L 254.860908 44.54 
L 253.524181 44.54 
L 252.187455 44.54 
L 250.850729 44.54 
L 249.514002 44.54 
z
" style="fill:#bbbbbb;fill-opacity:0.3;stroke:#bbbbbb;stroke-opacity:0.3;"/>
    <path clip-path="url(#p4ca3e9498f)" d="M 357.788841 44.54 
L 357.788841 382.901875 
L 359.125567 382.901875 
L 360.462294 382.901875 
L 361.79902 382.901875 
L 363.135747 382.901875 
L 364.472473 382.901875 
L 365.809199 382.901875 
L 367.145926 382.901875 
L 368.482652 382.901875 
L 369.819379 382.901875 
L 371.156105 382.901875 
L 372.492831 382.901875 
L 373.829558 382.901875 
L 375.166284 382.901875 
L 376.503011 382.901875 
L 377.839737 382.901875 
L 379.176463 382.901875 
L 380.51319 382.901875 
L 380.51319 44.54 
L 380.51319 44.54 
L 379.176463 44.54 
L 377.839737 44.54 
L 376.503011 44.54 
L 375.166284 44.54 
L 373.829558 44.54 
L 372.492831 44.54 
L 371.156105 44.54 
L 369.819379 44.54 
L 368.482652 44.54 
L 367.145926 44.54 
L 365.809199 44.54 
L 364.472473 44.54 
L 363.135747 44.54 
L 361.79902 44.54 
L 360.462294 44.54 
L 359.125567 44.54 
L 357.788841 44.54 
z
" style="fill:#bbbbbb;fill-opacity:0.3;stroke:#bbbbbb;stroke-opacity:0.3;"/>
   </g>
   <g id="matplotlib.axis_1">
    <g id="xtick_1">
     <g id="line2d_1">
      <defs>
       <path d="M 0 0 
L 0 3.5 
" id="mbdf58ca7d1" style="stroke:#000000;stroke-width:0.8;"/>
      </defs>
      <g>
       <use style="stroke:#000000;stroke-width:0.8;" x="133.218805" xlink:href="#mbdf58ca7d1" y="382.901875"/>
      </g>
     </g>
     <g id="text_1">
      <!-- 1994 -->
      <defs>
       <path d="M 12.40625 8.296875 
L 28.515625 8.296875 
L 28.515625 63.921875 
L 10.984375 60.40625 
L 10.984375 69.390625 
L 28.421875 72.90625 
L 38.28125 72.90625 
L 38.28125 8.296875 
L 54.390625 8.296875 
L 54.390625 0 
L 12.40625 0 
z
" id="DejaVuSans-31"/>
       <path d="M 10.984375 1.515625 
L 10.984375 10.5 
Q 14.703125 8.734375 18.5 7.8125 
Q 22.3125 6.890625 25.984375 6.890625 
Q 35.75 6.890625 40.890625 13.453125 
Q 46.046875 20.015625 46.78125 33.40625 
Q 43.953125 29.203125 39.59375 26.953125 
Q 35.25 24.703125 29.984375 24.703125 
Q 19.046875 24.703125 12.671875 31.3125 
Q 6.296875 37.9375 6.296875 49.421875 
Q 6.296875 60.640625 12.9375 67.421875 
Q 19.578125 74.21875 30.609375 74.21875 
Q 43.265625 74.21875 49.921875 64.515625 
Q 56.59375 54.828125 56.59375 36.375 
Q 56.59375 19.140625 48.40625 8.859375 
Q 40.234375 -1.421875 26.421875 -1.421875 
Q 22.703125 -1.421875 18.890625 -0.6875 
Q 15.09375 0.046875 10.984375 1.515625 
z
M 30.609375 32.421875 
Q 37.25 32.421875 41.125 36.953125 
Q 45.015625 41.5 45.015625 49.421875 
Q 45.015625 57.28125 41.125 61.84375 
Q 37.25 66.40625 30.609375 66.40625 
Q 23.96875 66.40625 20.09375 61.84375 
Q 16.21875 57.28125 16.21875 49.421875 
Q 16.21875 41.5 20.09375 36.953125 
Q 23.96875 32.421875 30.609375 32.421875 
z
" id="DejaVuSans-39"/>
       <path d="M 37.796875 64.3125 
L 12.890625 25.390625 
L 37.796875 25.390625 
z
M 35.203125 72.90625 
L 47.609375 72.90625 
L 47.609375 25.390625 
L 58.015625 25.390625 
L 58.015625 17.1875 
L 47.609375 17.1875 
L 47.609375 0 
L 37.796875 0 
L 37.796875 17.1875 
L 4.890625 17.1875 
L 4.890625 26.703125 
z
" id="DejaVuSans-34"/>
      </defs>
      <g transform="translate(120.493805 404.000313)scale(0.1 -0.1)">
       <use xlink:href="#DejaVuSans-31"/>
       <use x="63.623047" xlink:href="#DejaVuSans-39"/>
       <use x="127.246094" xlink:href="#DejaVuSans-39"/>
       <use x="190.869141" xlink:href="#DejaVuSans-34"/>
      </g>
     </g>
    </g>
    <g id="xtick_2">
     <g id="line2d_2">
      <g>
       <use style="stroke:#000000;stroke-width:0.8;" x="213.422389" xlink:href="#mbdf58ca7d1" y="382.901875"/>
      </g>
     </g>
     <g id="text_2">
      <!-- 1999 -->
      <g transform="translate(200.697389 404.000313)scale(0.1 -0.1)">
       <use xlink:href="#DejaVuSans-31"/>
       <use x="63.623047" xlink:href="#DejaVuSans-39"/>
       <use x="127.246094" xlink:href="#DejaVuSans-39"/>
       <use x="190.869141" xlink:href="#DejaVuSans-39"/>
      </g>
     </g>
    </g>
    <g id="xtick_3">
     <g id="line2d_3">
      <g>
       <use style="stroke:#000000;stroke-width:0.8;" x="293.625974" xlink:href="#mbdf58ca7d1" y="382.901875"/>
      </g>
     </g>
     <g id="text_3">
      <!-- 2004 -->
      <defs>
       <path d="M 19.1875 8.296875 
L 53.609375 8.296875 
L 53.609375 0 
L 7.328125 0 
L 7.328125 8.296875 
Q 12.9375 14.109375 22.625 23.890625 
Q 32.328125 33.6875 34.8125 36.53125 
Q 39.546875 41.84375 41.421875 45.53125 
Q 43.3125 49.21875 43.3125 52.78125 
Q 43.3125 58.59375 39.234375 62.25 
Q 35.15625 65.921875 28.609375 65.921875 
Q 23.96875 65.921875 18.8125 64.3125 
Q 13.671875 62.703125 7.8125 59.421875 
L 7.8125 69.390625 
Q 13.765625 71.78125 18.9375 73 
Q 24.125 74.21875 28.421875 74.21875 
Q 39.75 74.21875 46.484375 68.546875 
Q 53.21875 62.890625 53.21875 53.421875 
Q 53.21875 48.921875 51.53125 44.890625 
Q 49.859375 40.875 45.40625 35.40625 
Q 44.1875 33.984375 37.640625 27.21875 
Q 31.109375 20.453125 19.1875 8.296875 
z
" id="DejaVuSans-32"/>
       <path d="M 31.78125 66.40625 
Q 24.171875 66.40625 20.328125 58.90625 
Q 16.5 51.421875 16.5 36.375 
Q 16.5 21.390625 20.328125 13.890625 
Q 24.171875 6.390625 31.78125 6.390625 
Q 39.453125 6.390625 43.28125 13.890625 
Q 47.125 21.390625 47.125 36.375 
Q 47.125 51.421875 43.28125 58.90625 
Q 39.453125 66.40625 31.78125 66.40625 
z
M 31.78125 74.21875 
Q 44.046875 74.21875 50.515625 64.515625 
Q 56.984375 54.828125 56.984375 36.375 
Q 56.984375 17.96875 50.515625 8.265625 
Q 44.046875 -1.421875 31.78125 -1.421875 
Q 19.53125 -1.421875 13.0625 8.265625 
Q 6.59375 17.96875 6.59375 36.375 
Q 6.59375 54.828125 13.0625 64.515625 
Q 19.53125 74.21875 31.78125 74.21875 
z
" id="DejaVuSans-30"/>
      </defs>
      <g transform="translate(280.900974 404.000313)scale(0.1 -0.1)">
       <use xlink:href="#DejaVuSans-32"/>
       <use x="63.623047" xlink:href="#DejaVuSans-30"/>
       <use x="127.246094" xlink:href="#DejaVuSans-30"/>
       <use x="190.869141" xlink:href="#DejaVuSans-34"/>
      </g>
     </g>
    </g>
    <g id="xtick_4">
     <g id="line2d_4">
      <g>
       <use style="stroke:#000000;stroke-width:0.8;" x="373.829558" xlink:href="#mbdf58ca7d1" y="382.901875"/>
      </g>
     </g>
     <g id="text_4">
      <!-- 2009 -->
      <g transform="translate(361.104558 404.000313)scale(0.1 -0.1)">
       <use xlink:href="#DejaVuSans-32"/>
       <use x="63.623047" xlink:href="#DejaVuSans-30"/>
       <use x="127.246094" xlink:href="#DejaVuSans-30"/>
       <use x="190.869141" xlink:href="#DejaVuSans-39"/>
      </g>
     </g>
    </g>
    <g id="xtick_5">
     <g id="line2d_5">
      <g>
       <use style="stroke:#000000;stroke-width:0.8;" x="454.033142" xlink:href="#mbdf58ca7d1" y="382.901875"/>
      </g>
     </g>
     <g id="text_5">
      <!-- 2014 -->
      <g transform="translate(441.308142 404.000313)scale(0.1 -0.1)">
       <use xlink:href="#DejaVuSans-32"/>
       <use x="63.623047" xlink:href="#DejaVuSans-30"/>
       <use x="127.246094" xlink:href="#DejaVuSans-31"/>
       <use x="190.869141" xlink:href="#DejaVuSans-34"/>
      </g>
     </g>
    </g>
    <g id="xtick_6">
     <g id="line2d_6">
      <defs>
       <path d="M 0 0 
L 0 2 
" id="m9b3bf35134" style="stroke:#000000;stroke-width:0.6;"/>
      </defs>
      <g>
       <use style="stroke:#000000;stroke-width:0.6;" x="69.055938" xlink:href="#m9b3bf35134" y="382.901875"/>
      </g>
     </g>
    </g>
    <g id="xtick_7">
     <g id="line2d_7">
      <g>
       <use style="stroke:#000000;stroke-width:0.6;" x="85.096654" xlink:href="#m9b3bf35134" y="382.901875"/>
      </g>
     </g>
    </g>
    <g id="xtick_8">
     <g id="line2d_8">
      <g>
       <use style="stroke:#000000;stroke-width:0.6;" x="101.137371" xlink:href="#m9b3bf35134" y="382.901875"/>
      </g>
     </g>
    </g>
    <g id="xtick_9">
     <g id="line2d_9">
      <g>
       <use style="stroke:#000000;stroke-width:0.6;" x="117.178088" xlink:href="#m9b3bf35134" y="382.901875"/>
      </g>
     </g>
    </g>
    <g id="xtick_10">
     <g id="line2d_10">
      <g>
       <use style="stroke:#000000;stroke-width:0.6;" x="133.218805" xlink:href="#m9b3bf35134" y="382.901875"/>
      </g>
     </g>
    </g>
    <g id="xtick_11">
     <g id="line2d_11">
      <g>
       <use style="stroke:#000000;stroke-width:0.6;" x="149.259522" xlink:href="#m9b3bf35134" y="382.901875"/>
      </g>
     </g>
    </g>
    <g id="xtick_12">
     <g id="line2d_12">
      <g>
       <use style="stroke:#000000;stroke-width:0.6;" x="165.300239" xlink:href="#m9b3bf35134" y="382.901875"/>
      </g>
     </g>
    </g>
    <g id="xtick_13">
     <g id="line2d_13">
      <g>
       <use style="stroke:#000000;stroke-width:0.6;" x="181.340956" xlink:href="#m9b3bf35134" y="382.901875"/>
      </g>
     </g>
    </g>
    <g id="xtick_14">
     <g id="line2d_14">
      <g>
       <use style="stroke:#000000;stroke-width:0.6;" x="197.381672" xlink:href="#m9b3bf35134" y="382.901875"/>
      </g>
     </g>
    </g>
    <g id="xtick_15">
     <g id="line2d_15">
      <g>
       <use style="stroke:#000000;stroke-width:0.6;" x="213.422389" xlink:href="#m9b3bf35134" y="382.901875"/>
      </g>
     </g>
    </g>
    <g id="xtick_16">
     <g id="line2d_16">
      <g>
       <use style="stroke:#000000;stroke-width:0.6;" x="229.463106" xlink:href="#m9b3bf35134" y="382.901875"/>
      </g>
     </g>
    </g>
    <g id="xtick_17">
     <g id="line2d_17">
      <g>
       <use style="stroke:#000000;stroke-width:0.6;" x="245.503823" xlink:href="#m9b3bf35134" y="382.901875"/>
      </g>
     </g>
    </g>
    <g id="xtick_18">
     <g id="line2d_18">
      <g>
       <use style="stroke:#000000;stroke-width:0.6;" x="261.54454" xlink:href="#m9b3bf35134" y="382.901875"/>
      </g>
     </g>
    </g>
    <g id="xtick_19">
     <g id="line2d_19">
      <g>
       <use style="stroke:#000000;stroke-width:0.6;" x="277.585257" xlink:href="#m9b3bf35134" y="382.901875"/>
      </g>
     </g>
    </g>
    <g id="xtick_20">
     <g id="line2d_20">
      <g>
       <use style="stroke:#000000;stroke-width:0.6;" x="293.625974" xlink:href="#m9b3bf35134" y="382.901875"/>
      </g>
     </g>
    </g>
    <g id="xtick_21">
     <g id="line2d_21">
      <g>
       <use style="stroke:#000000;stroke-width:0.6;" x="309.66669" xlink:href="#m9b3bf35134" y="382.901875"/>
      </g>
     </g>
    </g>
    <g id="xtick_22">
     <g id="line2d_22">
      <g>
       <use style="stroke:#000000;stroke-width:0.6;" x="325.707407" xlink:href="#m9b3bf35134" y="382.901875"/>
      </g>
     </g>
    </g>
    <g id="xtick_23">
     <g id="line2d_23">
      <g>
       <use style="stroke:#000000;stroke-width:0.6;" x="341.748124" xlink:href="#m9b3bf35134" y="382.901875"/>
      </g>
     </g>
    </g>
    <g id="xtick_24">
     <g id="line2d_24">
      <g>
       <use style="stroke:#000000;stroke-width:0.6;" x="357.788841" xlink:href="#m9b3bf35134" y="382.901875"/>
      </g>
     </g>
    </g>
    <g id="xtick_25">
     <g id="line2d_25">
      <g>
       <use style="stroke:#000000;stroke-width:0.6;" x="373.829558" xlink:href="#m9b3bf35134" y="382.901875"/>
      </g>
     </g>
    </g>
    <g id="xtick_26">
     <g id="line2d_26">
      <g>
       <use style="stroke:#000000;stroke-width:0.6;" x="389.870275" xlink:href="#m9b3bf35134" y="382.901875"/>
      </g>
     </g>
    </g>
    <g id="xtick_27">
     <g id="line2d_27">
      <g>
       <use style="stroke:#000000;stroke-width:0.6;" x="405.910992" xlink:href="#m9b3bf35134" y="382.901875"/>
      </g>
     </g>
    </g>
    <g id="xtick_28">
     <g id="line2d_28">
      <g>
       <use style="stroke:#000000;stroke-width:0.6;" x="421.951708" xlink:href="#m9b3bf35134" y="382.901875"/>
      </g>
     </g>
    </g>
    <g id="xtick_29">
     <g id="line2d_29">
      <g>
       <use style="stroke:#000000;stroke-width:0.6;" x="437.992425" xlink:href="#m9b3bf35134" y="382.901875"/>
      </g>
     </g>
    </g>
    <g id="xtick_30">
     <g id="line2d_30">
      <g>
       <use style="stroke:#000000;stroke-width:0.6;" x="454.033142" xlink:href="#m9b3bf35134" y="382.901875"/>
      </g>
     </g>
    </g>
    <g id="xtick_31">
     <g id="line2d_31">
      <g>
       <use style="stroke:#000000;stroke-width:0.6;" x="470.073859" xlink:href="#m9b3bf35134" y="382.901875"/>
      </g>
     </g>
    </g>
    <g id="xtick_32">
     <g id="line2d_32">
      <g>
       <use style="stroke:#000000;stroke-width:0.6;" x="486.114576" xlink:href="#m9b3bf35134" y="382.901875"/>
      </g>
     </g>
    </g>
    <g id="xtick_33">
     <g id="line2d_33">
      <g>
       <use style="stroke:#000000;stroke-width:0.6;" x="502.155293" xlink:href="#m9b3bf35134" y="382.901875"/>
      </g>
     </g>
    </g>
    <g id="xtick_34">
     <g id="line2d_34">
      <g>
       <use style="stroke:#000000;stroke-width:0.6;" x="518.19601" xlink:href="#m9b3bf35134" y="382.901875"/>
      </g>
     </g>
    </g>
   </g>
   <g id="matplotlib.axis_2">
    <g id="ytick_1">
     <g id="line2d_35">
      <path clip-path="url(#p4ca3e9498f)" d="M 69.055937 366.487195 
L 532.9 366.487195 
" style="fill:none;stroke:#000000;stroke-dasharray:0.8,1.32;stroke-dashoffset:0;stroke-width:0.8;"/>
     </g>
     <g id="line2d_36">
      <defs>
       <path d="M 0 0 
L -3.5 0 
" id="m8c183a5c1c" style="stroke:#000000;stroke-width:0.8;"/>
      </defs>
      <g>
       <use style="stroke:#000000;stroke-width:0.8;" x="69.055937" xlink:href="#m8c183a5c1c" y="366.487195"/>
      </g>
     </g>
     <g id="text_6">
      <!-- −8 -->
      <defs>
       <path d="M 10.59375 35.5 
L 73.1875 35.5 
L 73.1875 27.203125 
L 10.59375 27.203125 
z
" id="DejaVuSans-2212"/>
       <path d="M 31.78125 34.625 
Q 24.75 34.625 20.71875 30.859375 
Q 16.703125 27.09375 16.703125 20.515625 
Q 16.703125 13.921875 20.71875 10.15625 
Q 24.75 6.390625 31.78125 6.390625 
Q 38.8125 6.390625 42.859375 10.171875 
Q 46.921875 13.96875 46.921875 20.515625 
Q 46.921875 27.09375 42.890625 30.859375 
Q 38.875 34.625 31.78125 34.625 
z
M 21.921875 38.8125 
Q 15.578125 40.375 12.03125 44.71875 
Q 8.5 49.078125 8.5 55.328125 
Q 8.5 64.0625 14.71875 69.140625 
Q 20.953125 74.21875 31.78125 74.21875 
Q 42.671875 74.21875 48.875 69.140625 
Q 55.078125 64.0625 55.078125 55.328125 
Q 55.078125 49.078125 51.53125 44.71875 
Q 48 40.375 41.703125 38.8125 
Q 48.828125 37.15625 52.796875 32.3125 
Q 56.78125 27.484375 56.78125 20.515625 
Q 56.78125 9.90625 50.3125 4.234375 
Q 43.84375 -1.421875 31.78125 -1.421875 
Q 19.734375 -1.421875 13.25 4.234375 
Q 6.78125 9.90625 6.78125 20.515625 
Q 6.78125 27.484375 10.78125 32.3125 
Q 14.796875 37.15625 21.921875 38.8125 
z
M 18.3125 54.390625 
Q 18.3125 48.734375 21.84375 45.5625 
Q 25.390625 42.390625 31.78125 42.390625 
Q 38.140625 42.390625 41.71875 45.5625 
Q 45.3125 48.734375 45.3125 54.390625 
Q 45.3125 60.0625 41.71875 63.234375 
Q 38.140625 66.40625 31.78125 66.40625 
Q 25.390625 66.40625 21.84375 63.234375 
Q 18.3125 60.0625 18.3125 54.390625 
z
" id="DejaVuSans-38"/>
      </defs>
      <g transform="translate(40.81375 370.286414)scale(0.1 -0.1)">
       <use xlink:href="#DejaVuSans-2212"/>
       <use x="83.789062" xlink:href="#DejaVuSans-38"/>
      </g>
     </g>
    </g>
    <g id="ytick_2">
     <g id="line2d_37">
      <path clip-path="url(#p4ca3e9498f)" d="M 69.055937 307.060792 
L 532.9 307.060792 
" style="fill:none;stroke:#000000;stroke-dasharray:0.8,1.32;stroke-dashoffset:0;stroke-width:0.8;"/>
     </g>
     <g id="line2d_38">
      <g>
       <use style="stroke:#000000;stroke-width:0.8;" x="69.055937" xlink:href="#m8c183a5c1c" y="307.060792"/>
      </g>
     </g>
     <g id="text_7">
      <!-- −6 -->
      <defs>
       <path d="M 33.015625 40.375 
Q 26.375 40.375 22.484375 35.828125 
Q 18.609375 31.296875 18.609375 23.390625 
Q 18.609375 15.53125 22.484375 10.953125 
Q 26.375 6.390625 33.015625 6.390625 
Q 39.65625 6.390625 43.53125 10.953125 
Q 47.40625 15.53125 47.40625 23.390625 
Q 47.40625 31.296875 43.53125 35.828125 
Q 39.65625 40.375 33.015625 40.375 
z
M 52.59375 71.296875 
L 52.59375 62.3125 
Q 48.875 64.0625 45.09375 64.984375 
Q 41.3125 65.921875 37.59375 65.921875 
Q 27.828125 65.921875 22.671875 59.328125 
Q 17.53125 52.734375 16.796875 39.40625 
Q 19.671875 43.65625 24.015625 45.921875 
Q 28.375 48.1875 33.59375 48.1875 
Q 44.578125 48.1875 50.953125 41.515625 
Q 57.328125 34.859375 57.328125 23.390625 
Q 57.328125 12.15625 50.6875 5.359375 
Q 44.046875 -1.421875 33.015625 -1.421875 
Q 20.359375 -1.421875 13.671875 8.265625 
Q 6.984375 17.96875 6.984375 36.375 
Q 6.984375 53.65625 15.1875 63.9375 
Q 23.390625 74.21875 37.203125 74.21875 
Q 40.921875 74.21875 44.703125 73.484375 
Q 48.484375 72.75 52.59375 71.296875 
z
" id="DejaVuSans-36"/>
      </defs>
      <g transform="translate(40.81375 310.860011)scale(0.1 -0.1)">
       <use xlink:href="#DejaVuSans-2212"/>
       <use x="83.789062" xlink:href="#DejaVuSans-36"/>
      </g>
     </g>
    </g>
    <g id="ytick_3">
     <g id="line2d_39">
      <path clip-path="url(#p4ca3e9498f)" d="M 69.055937 247.634389 
L 532.9 247.634389 
" style="fill:none;stroke:#000000;stroke-dasharray:0.8,1.32;stroke-dashoffset:0;stroke-width:0.8;"/>
     </g>
     <g id="line2d_40">
      <g>
       <use style="stroke:#000000;stroke-width:0.8;" x="69.055937" xlink:href="#m8c183a5c1c" y="247.634389"/>
      </g>
     </g>
     <g id="text_8">
      <!-- −4 -->
      <g transform="translate(40.81375 251.433608)scale(0.1 -0.1)">
       <use xlink:href="#DejaVuSans-2212"/>
       <use x="83.789062" xlink:href="#DejaVuSans-34"/>
      </g>
     </g>
    </g>
    <g id="ytick_4">
     <g id="line2d_41">
      <path clip-path="url(#p4ca3e9498f)" d="M 69.055937 188.207986 
L 532.9 188.207986 
" style="fill:none;stroke:#000000;stroke-dasharray:0.8,1.32;stroke-dashoffset:0;stroke-width:0.8;"/>
     </g>
     <g id="line2d_42">
      <g>
       <use style="stroke:#000000;stroke-width:0.8;" x="69.055937" xlink:href="#m8c183a5c1c" y="188.207986"/>
      </g>
     </g>
     <g id="text_9">
      <!-- −2 -->
      <g transform="translate(40.81375 192.007205)scale(0.1 -0.1)">
       <use xlink:href="#DejaVuSans-2212"/>
       <use x="83.789062" xlink:href="#DejaVuSans-32"/>
      </g>
     </g>
    </g>
    <g id="ytick_5">
     <g id="line2d_43">
      <path clip-path="url(#p4ca3e9498f)" d="M 69.055937 128.781583 
L 532.9 128.781583 
" style="fill:none;stroke:#000000;stroke-dasharray:0.8,1.32;stroke-dashoffset:0;stroke-width:0.8;"/>
     </g>
     <g id="line2d_44">
      <g>
       <use style="stroke:#000000;stroke-width:0.8;" x="69.055937" xlink:href="#m8c183a5c1c" y="128.781583"/>
      </g>
     </g>
     <g id="text_10">
      <!-- 0 -->
      <g transform="translate(49.193438 132.580802)scale(0.1 -0.1)">
       <use xlink:href="#DejaVuSans-30"/>
      </g>
     </g>
    </g>
    <g id="ytick_6">
     <g id="line2d_45">
      <path clip-path="url(#p4ca3e9498f)" d="M 69.055937 69.35518 
L 532.9 69.35518 
" style="fill:none;stroke:#000000;stroke-dasharray:0.8,1.32;stroke-dashoffset:0;stroke-width:0.8;"/>
     </g>
     <g id="line2d_46">
      <g>
       <use style="stroke:#000000;stroke-width:0.8;" x="69.055937" xlink:href="#m8c183a5c1c" y="69.35518"/>
      </g>
     </g>
     <g id="text_11">
      <!-- 2 -->
      <g transform="translate(49.193438 73.154398)scale(0.1 -0.1)">
       <use xlink:href="#DejaVuSans-32"/>
      </g>
     </g>
    </g>
    <g id="text_12">
     <!-- Percentage point -->
     <defs>
      <path d="M 19.671875 64.796875 
L 19.671875 37.40625 
L 32.078125 37.40625 
Q 38.96875 37.40625 42.71875 40.96875 
Q 46.484375 44.53125 46.484375 51.125 
Q 46.484375 57.671875 42.71875 61.234375 
Q 38.96875 64.796875 32.078125 64.796875 
z
M 9.8125 72.90625 
L 32.078125 72.90625 
Q 44.34375 72.90625 50.609375 67.359375 
Q 56.890625 61.8125 56.890625 51.125 
Q 56.890625 40.328125 50.609375 34.8125 
Q 44.34375 29.296875 32.078125 29.296875 
L 19.671875 29.296875 
L 19.671875 0 
L 9.8125 0 
z
" id="DejaVuSans-50"/>
      <path d="M 56.203125 29.59375 
L 56.203125 25.203125 
L 14.890625 25.203125 
Q 15.484375 15.921875 20.484375 11.0625 
Q 25.484375 6.203125 34.421875 6.203125 
Q 39.59375 6.203125 44.453125 7.46875 
Q 49.3125 8.734375 54.109375 11.28125 
L 54.109375 2.78125 
Q 49.265625 0.734375 44.1875 -0.34375 
Q 39.109375 -1.421875 33.890625 -1.421875 
Q 20.796875 -1.421875 13.15625 6.1875 
Q 5.515625 13.8125 5.515625 26.8125 
Q 5.515625 40.234375 12.765625 48.109375 
Q 20.015625 56 32.328125 56 
Q 43.359375 56 49.78125 48.890625 
Q 56.203125 41.796875 56.203125 29.59375 
z
M 47.21875 32.234375 
Q 47.125 39.59375 43.09375 43.984375 
Q 39.0625 48.390625 32.421875 48.390625 
Q 24.90625 48.390625 20.390625 44.140625 
Q 15.875 39.890625 15.1875 32.171875 
z
" id="DejaVuSans-65"/>
      <path d="M 41.109375 46.296875 
Q 39.59375 47.171875 37.8125 47.578125 
Q 36.03125 48 33.890625 48 
Q 26.265625 48 22.1875 43.046875 
Q 18.109375 38.09375 18.109375 28.8125 
L 18.109375 0 
L 9.078125 0 
L 9.078125 54.6875 
L 18.109375 54.6875 
L 18.109375 46.1875 
Q 20.953125 51.171875 25.484375 53.578125 
Q 30.03125 56 36.53125 56 
Q 37.453125 56 38.578125 55.875 
Q 39.703125 55.765625 41.0625 55.515625 
z
" id="DejaVuSans-72"/>
      <path d="M 48.78125 52.59375 
L 48.78125 44.1875 
Q 44.96875 46.296875 41.140625 47.34375 
Q 37.3125 48.390625 33.40625 48.390625 
Q 24.65625 48.390625 19.8125 42.84375 
Q 14.984375 37.3125 14.984375 27.296875 
Q 14.984375 17.28125 19.8125 11.734375 
Q 24.65625 6.203125 33.40625 6.203125 
Q 37.3125 6.203125 41.140625 7.25 
Q 44.96875 8.296875 48.78125 10.40625 
L 48.78125 2.09375 
Q 45.015625 0.34375 40.984375 -0.53125 
Q 36.96875 -1.421875 32.421875 -1.421875 
Q 20.0625 -1.421875 12.78125 6.34375 
Q 5.515625 14.109375 5.515625 27.296875 
Q 5.515625 40.671875 12.859375 48.328125 
Q 20.21875 56 33.015625 56 
Q 37.15625 56 41.109375 55.140625 
Q 45.0625 54.296875 48.78125 52.59375 
z
" id="DejaVuSans-63"/>
      <path d="M 54.890625 33.015625 
L 54.890625 0 
L 45.90625 0 
L 45.90625 32.71875 
Q 45.90625 40.484375 42.875 44.328125 
Q 39.84375 48.1875 33.796875 48.1875 
Q 26.515625 48.1875 22.3125 43.546875 
Q 18.109375 38.921875 18.109375 30.90625 
L 18.109375 0 
L 9.078125 0 
L 9.078125 54.6875 
L 18.109375 54.6875 
L 18.109375 46.1875 
Q 21.34375 51.125 25.703125 53.5625 
Q 30.078125 56 35.796875 56 
Q 45.21875 56 50.046875 50.171875 
Q 54.890625 44.34375 54.890625 33.015625 
z
" id="DejaVuSans-6e"/>
      <path d="M 18.3125 70.21875 
L 18.3125 54.6875 
L 36.8125 54.6875 
L 36.8125 47.703125 
L 18.3125 47.703125 
L 18.3125 18.015625 
Q 18.3125 11.328125 20.140625 9.421875 
Q 21.96875 7.515625 27.59375 7.515625 
L 36.8125 7.515625 
L 36.8125 0 
L 27.59375 0 
Q 17.1875 0 13.234375 3.875 
Q 9.28125 7.765625 9.28125 18.015625 
L 9.28125 47.703125 
L 2.6875 47.703125 
L 2.6875 54.6875 
L 9.28125 54.6875 
L 9.28125 70.21875 
z
" id="DejaVuSans-74"/>
      <path d="M 34.28125 27.484375 
Q 23.390625 27.484375 19.1875 25 
Q 14.984375 22.515625 14.984375 16.5 
Q 14.984375 11.71875 18.140625 8.90625 
Q 21.296875 6.109375 26.703125 6.109375 
Q 34.1875 6.109375 38.703125 11.40625 
Q 43.21875 16.703125 43.21875 25.484375 
L 43.21875 27.484375 
z
M 52.203125 31.203125 
L 52.203125 0 
L 43.21875 0 
L 43.21875 8.296875 
Q 40.140625 3.328125 35.546875 0.953125 
Q 30.953125 -1.421875 24.3125 -1.421875 
Q 15.921875 -1.421875 10.953125 3.296875 
Q 6 8.015625 6 15.921875 
Q 6 25.140625 12.171875 29.828125 
Q 18.359375 34.515625 30.609375 34.515625 
L 43.21875 34.515625 
L 43.21875 35.40625 
Q 43.21875 41.609375 39.140625 45 
Q 35.0625 48.390625 27.6875 48.390625 
Q 23 48.390625 18.546875 47.265625 
Q 14.109375 46.140625 10.015625 43.890625 
L 10.015625 52.203125 
Q 14.9375 54.109375 19.578125 55.046875 
Q 24.21875 56 28.609375 56 
Q 40.484375 56 46.34375 49.84375 
Q 52.203125 43.703125 52.203125 31.203125 
z
" id="DejaVuSans-61"/>
      <path d="M 45.40625 27.984375 
Q 45.40625 37.75 41.375 43.109375 
Q 37.359375 48.484375 30.078125 48.484375 
Q 22.859375 48.484375 18.828125 43.109375 
Q 14.796875 37.75 14.796875 27.984375 
Q 14.796875 18.265625 18.828125 12.890625 
Q 22.859375 7.515625 30.078125 7.515625 
Q 37.359375 7.515625 41.375 12.890625 
Q 45.40625 18.265625 45.40625 27.984375 
z
M 54.390625 6.78125 
Q 54.390625 -7.171875 48.1875 -13.984375 
Q 42 -20.796875 29.203125 -20.796875 
Q 24.46875 -20.796875 20.265625 -20.09375 
Q 16.0625 -19.390625 12.109375 -17.921875 
L 12.109375 -9.1875 
Q 16.0625 -11.328125 19.921875 -12.34375 
Q 23.78125 -13.375 27.78125 -13.375 
Q 36.625 -13.375 41.015625 -8.765625 
Q 45.40625 -4.15625 45.40625 5.171875 
L 45.40625 9.625 
Q 42.625 4.78125 38.28125 2.390625 
Q 33.9375 0 27.875 0 
Q 17.828125 0 11.671875 7.65625 
Q 5.515625 15.328125 5.515625 27.984375 
Q 5.515625 40.671875 11.671875 48.328125 
Q 17.828125 56 27.875 56 
Q 33.9375 56 38.28125 53.609375 
Q 42.625 51.21875 45.40625 46.390625 
L 45.40625 54.6875 
L 54.390625 54.6875 
z
" id="DejaVuSans-67"/>
      <path id="DejaVuSans-20"/>
      <path d="M 18.109375 8.203125 
L 18.109375 -20.796875 
L 9.078125 -20.796875 
L 9.078125 54.6875 
L 18.109375 54.6875 
L 18.109375 46.390625 
Q 20.953125 51.265625 25.265625 53.625 
Q 29.59375 56 35.59375 56 
Q 45.5625 56 51.78125 48.09375 
Q 58.015625 40.1875 58.015625 27.296875 
Q 58.015625 14.40625 51.78125 6.484375 
Q 45.5625 -1.421875 35.59375 -1.421875 
Q 29.59375 -1.421875 25.265625 0.953125 
Q 20.953125 3.328125 18.109375 8.203125 
z
M 48.6875 27.296875 
Q 48.6875 37.203125 44.609375 42.84375 
Q 40.53125 48.484375 33.40625 48.484375 
Q 26.265625 48.484375 22.1875 42.84375 
Q 18.109375 37.203125 18.109375 27.296875 
Q 18.109375 17.390625 22.1875 11.75 
Q 26.265625 6.109375 33.40625 6.109375 
Q 40.53125 6.109375 44.609375 11.75 
Q 48.6875 17.390625 48.6875 27.296875 
z
" id="DejaVuSans-70"/>
      <path d="M 30.609375 48.390625 
Q 23.390625 48.390625 19.1875 42.75 
Q 14.984375 37.109375 14.984375 27.296875 
Q 14.984375 17.484375 19.15625 11.84375 
Q 23.34375 6.203125 30.609375 6.203125 
Q 37.796875 6.203125 41.984375 11.859375 
Q 46.1875 17.53125 46.1875 27.296875 
Q 46.1875 37.015625 41.984375 42.703125 
Q 37.796875 48.390625 30.609375 48.390625 
z
M 30.609375 56 
Q 42.328125 56 49.015625 48.375 
Q 55.71875 40.765625 55.71875 27.296875 
Q 55.71875 13.875 49.015625 6.21875 
Q 42.328125 -1.421875 30.609375 -1.421875 
Q 18.84375 -1.421875 12.171875 6.21875 
Q 5.515625 13.875 5.515625 27.296875 
Q 5.515625 40.765625 12.171875 48.375 
Q 18.84375 56 30.609375 56 
z
" id="DejaVuSans-6f"/>
      <path d="M 9.421875 54.6875 
L 18.40625 54.6875 
L 18.40625 0 
L 9.421875 0 
z
M 9.421875 75.984375 
L 18.40625 75.984375 
L 18.40625 64.59375 
L 9.421875 64.59375 
z
" id="DejaVuSans-69"/>
     </defs>
     <g transform="translate(34.318125 265.024687)rotate(-90)scale(0.12 -0.12)">
      <use xlink:href="#DejaVuSans-50"/>
      <use x="60.255859" xlink:href="#DejaVuSans-65"/>
      <use x="121.779297" xlink:href="#DejaVuSans-72"/>
      <use x="162.861328" xlink:href="#DejaVuSans-63"/>
      <use x="217.841797" xlink:href="#DejaVuSans-65"/>
      <use x="279.365234" xlink:href="#DejaVuSans-6e"/>
      <use x="342.744141" xlink:href="#DejaVuSans-74"/>
      <use x="381.953125" xlink:href="#DejaVuSans-61"/>
      <use x="443.232422" xlink:href="#DejaVuSans-67"/>
      <use x="506.708984" xlink:href="#DejaVuSans-65"/>
      <use x="568.232422" xlink:href="#DejaVuSans-20"/>
      <use x="600.019531" xlink:href="#DejaVuSans-70"/>
      <use x="663.496094" xlink:href="#DejaVuSans-6f"/>
      <use x="724.677734" xlink:href="#DejaVuSans-69"/>
      <use x="752.460938" xlink:href="#DejaVuSans-6e"/>
      <use x="815.839844" xlink:href="#DejaVuSans-74"/>
     </g>
    </g>
   </g>
   <g id="line2d_47">
    <path clip-path="url(#p4ca3e9498f)" d="M 70.392664 132.796786 
L 71.72939 133.36389 
L 73.066117 138.423613 
L 74.402843 137.527559 
L 75.73957 142.51506 
L 77.076296 142.097317 
L 78.413022 141.200408 
L 79.749749 147.788206 
L 81.086475 144.273804 
L 82.423202 142.791597 
L 83.759928 142.224731 
L 85.096654 151.443169 
L 86.433381 152.962727 
L 87.770107 147.280907 
L 89.106834 149.712443 
L 90.44356 156.72965 
L 91.780286 155.414846 
L 93.117013 156.801682 
L 94.453739 162.165426 
L 95.790466 156.76068 
L 97.127192 163.9669 
L 98.463918 164.103734 
L 99.800645 168.303348 
L 101.137371 159.132293 
L 102.474098 163.932296 
L 103.810824 157.280894 
L 105.14755 155.8805 
L 106.484277 148.853069 
L 107.821003 145.215538 
L 109.15773 149.642093 
L 110.494456 150.197784 
L 111.831182 152.764645 
L 113.167909 163.291308 
L 114.504635 161.529753 
L 115.841362 165.013312 
L 117.178088 167.596421 
L 118.514814 167.14371 
L 119.851541 163.656925 
L 121.188267 169.048262 
L 122.524994 162.497466 
L 123.86172 160.005556 
L 125.198447 161.017502 
L 126.535173 160.678268 
L 127.871899 174.239237 
L 129.208626 172.936772 
L 131.882079 179.09516 
L 133.218805 171.194155 
L 134.555531 176.821053 
L 135.892258 182.952923 
L 137.228984 183.858501 
L 138.565711 185.267302 
L 139.902437 187.893474 
L 141.239163 186.226164 
L 142.57589 179.206543 
L 143.912616 180.818075 
L 145.249343 173.606821 
L 146.586069 174.170343 
L 147.922795 168.544948 
L 149.259522 167.763824 
L 150.596248 168.830676 
L 151.932975 170.803279 
L 153.269701 171.460015 
L 154.606427 184.693673 
L 155.943154 181.206469 
L 157.27988 184.381873 
L 158.616607 185.905862 
L 159.953333 180.993925 
L 161.290059 188.562319 
L 162.626786 193.155756 
L 163.963512 192.422823 
L 165.300239 191.826477 
L 166.636965 184.551271 
L 167.973691 182.734709 
L 169.310418 183.111865 
L 170.647144 179.482058 
L 171.983871 180.193818 
L 173.320597 174.991229 
L 174.657323 185.784725 
L 175.99405 181.465427 
L 177.330776 177.794587 
L 178.667503 183.745813 
L 180.004229 185.155645 
L 181.340956 182.640597 
L 182.677682 184.288029 
L 184.014408 179.350319 
L 185.351135 178.718766 
L 186.687861 180.144115 
L 188.024588 179.429317 
L 189.361314 181.679966 
L 190.69804 179.909596 
L 192.034767 184.066256 
L 193.371493 183.516937 
L 194.70822 177.950864 
L 196.044946 183.73077 
L 197.381672 182.883369 
L 198.718399 185.011469 
L 200.055125 186.140338 
L 201.391852 185.146724 
L 202.728578 182.769216 
L 204.065304 183.910935 
L 205.402031 181.057674 
L 206.738757 191.437945 
L 208.075484 180.876235 
L 209.41221 183.28136 
L 210.748936 181.09243 
L 212.085663 182.161447 
L 213.422389 179.707209 
L 214.759116 182.543579 
L 216.095842 190.50376 
L 217.432568 192.24103 
L 218.769295 187.006598 
L 220.106021 189.108871 
L 221.442748 188.177562 
L 222.779474 192.201322 
L 224.1162 191.199829 
L 225.452927 191.98934 
L 226.789653 191.904814 
L 228.12638 187.820174 
L 229.463106 176.511991 
L 230.799832 171.234882 
L 232.136559 180.038672 
L 233.473285 182.991036 
L 234.810012 187.490619 
L 236.146738 185.703783 
L 237.483465 194.145666 
L 238.820191 185.139485 
L 240.156917 193.806546 
L 241.493644 194.66041 
L 242.83037 192.796702 
L 244.167097 188.170354 
L 245.503823 180.636517 
L 246.840549 186.99073 
L 248.177276 190.247643 
L 249.514002 190.834384 
L 250.850729 199.33946 
L 252.187455 201.57842 
L 253.524181 199.29703 
L 254.860908 206.791724 
L 256.197634 196.231925 
L 257.534361 199.67238 
L 258.871087 202.112876 
L 260.207813 201.62639 
L 261.54454 209.788674 
L 262.881266 204.178694 
L 264.217993 206.319425 
L 265.554719 204.080745 
L 266.891445 195.946194 
L 268.228172 204.111658 
L 269.564898 206.251282 
L 270.901625 207.48363 
L 272.238351 199.340504 
L 273.575077 209.641997 
L 274.911804 218.086535 
L 276.24853 220.634502 
L 277.585257 224.835148 
L 278.921983 219.2819 
L 280.258709 229.79489 
L 281.595436 220.68239 
L 282.932162 223.170384 
L 284.268889 220.571014 
L 285.605615 226.549203 
L 286.942341 231.929029 
L 288.279068 222.883528 
L 289.615794 227.375744 
L 290.952521 222.323011 
L 292.289247 226.464452 
L 293.625974 220.513041 
L 294.9627 233.01817 
L 296.299426 233.425179 
L 297.636153 235.970712 
L 298.972879 235.754449 
L 300.309606 229.942824 
L 301.646332 226.205233 
L 302.983058 227.173926 
L 304.319785 233.742515 
L 305.656511 230.215825 
L 306.993238 225.007028 
L 308.329964 233.375041 
L 309.66669 239.373661 
L 311.003417 233.315671 
L 312.340143 232.875084 
L 313.67687 227.907751 
L 315.013596 226.03346 
L 316.350322 226.906257 
L 317.687049 228.185194 
L 319.023775 223.951509 
L 320.360502 229.845457 
L 321.697228 233.983923 
L 323.033954 233.074892 
L 324.370681 234.600546 
L 325.707407 229.199086 
L 327.044134 224.822275 
L 328.38086 221.466648 
L 329.717586 224.069593 
L 331.054313 224.646728 
L 332.391039 228.601025 
L 333.727766 236.688507 
L 335.064492 229.258621 
L 336.401218 227.498689 
L 337.737945 227.401779 
L 339.074671 223.9766 
L 340.411398 219.208561 
L 341.748124 217.420054 
L 343.084851 221.500152 
L 345.758303 228.510838 
L 347.09503 232.55308 
L 348.431756 232.309879 
L 349.768483 237.883272 
L 351.105209 246.30497 
L 352.441935 240.91826 
L 353.778662 243.893607 
L 355.115388 235.914303 
L 356.452115 237.207153 
L 357.788841 226.730101 
L 359.125567 235.858421 
L 360.462294 237.503756 
L 361.79902 241.927057 
L 363.135747 237.913818 
L 364.472473 239.628251 
L 365.809199 235.867915 
L 367.145926 243.018438 
L 368.482652 241.497565 
L 369.819379 242.701748 
L 371.156105 249.587133 
L 372.492831 254.065914 
L 373.829558 256.547593 
L 375.166284 256.550006 
L 376.503011 267.746027 
L 377.839737 259.37781 
L 379.176463 256.488027 
L 381.849916 268.390833 
L 383.186643 270.663261 
L 384.523369 278.226798 
L 385.860095 280.440662 
L 387.196822 284.363788 
L 388.533548 298.09942 
L 389.870275 293.749732 
L 391.207001 292.652843 
L 392.543727 286.042088 
L 393.880454 275.215556 
L 395.21718 288.467933 
L 396.553907 294.942037 
L 397.890633 294.245472 
L 399.22736 291.411116 
L 400.564086 297.194209 
L 401.900812 306.335529 
L 403.237539 302.472063 
L 404.574265 308.408531 
L 405.910992 313.553789 
L 407.247718 313.000481 
L 408.584444 315.752592 
L 409.921171 314.036041 
L 411.257897 313.9709 
L 412.594624 315.664889 
L 413.93135 320.211714 
L 415.268076 314.721122 
L 416.604803 314.305848 
L 417.941529 317.540913 
L 419.278256 312.89251 
L 420.614982 312.900588 
L 421.951708 322.161747 
L 424.625161 322.891011 
L 425.961888 325.065821 
L 427.298614 322.234077 
L 428.63534 321.370896 
L 429.972067 324.012728 
L 431.308793 331.192093 
L 432.64552 325.975116 
L 433.982246 321.232319 
L 435.318972 326.787602 
L 436.655699 326.774213 
L 437.992425 320.23147 
L 439.329152 329.809543 
L 440.665878 336.601094 
L 442.002604 332.202043 
L 443.339331 331.067547 
L 444.676057 332.24195 
L 446.012784 335.576269 
L 447.34951 339.846011 
L 448.686236 335.582109 
L 450.022963 353.606703 
L 451.359689 345.103151 
L 452.696416 351.819246 
L 454.033142 351.278642 
L 455.369869 357.030221 
L 456.706595 345.768113 
L 458.043321 356.848282 
L 459.380048 357.574547 
L 460.716774 351.475698 
L 462.053501 348.923034 
L 463.390227 348.471884 
L 464.726953 351.930046 
L 466.06368 354.801512 
L 467.400406 354.86001 
L 470.073859 347.301943 
L 471.410585 351.761082 
L 472.747312 352.745546 
L 474.084038 350.024756 
L 475.420765 348.096432 
L 476.757491 359.213238 
L 478.094217 358.53877 
L 479.430944 361.207609 
L 480.76767 366.208253 
L 482.104397 365.073851 
L 483.441123 367.52179 
L 484.777849 358.101944 
L 486.114576 357.402842 
L 487.451302 349.727928 
L 488.788029 347.947684 
L 490.124755 351.238731 
L 491.461481 359.52289 
L 492.798208 350.168208 
L 494.134934 351.128485 
L 495.471661 350.668914 
L 496.808387 350.630977 
L 498.145113 353.169045 
L 499.48184 357.44743 
L 500.818566 357.19042 
L 502.155293 350.738998 
L 503.492019 351.024378 
L 504.828745 354.025463 
L 506.165472 353.102516 
L 507.502198 361.145436 
L 508.838925 358.511683 
L 510.175651 360.919756 
L 511.512378 358.182418 
L 512.849104 351.65613 
L 514.18583 359.891576 
L 515.522557 362.006799 
L 516.859283 360.120652 
L 518.19601 352.691685 
L 519.532736 345.93822 
L 520.869462 349.624282 
L 522.206189 351.470254 
L 523.542915 352.854671 
L 527.553094 365.124936 
L 528.889821 366.909674 
L 530.226547 361.863853 
L 531.563274 359.167628 
L 531.563274 359.167628 
" style="fill:none;stroke:#000000;stroke-linecap:square;stroke-width:3;"/>
   </g>
   <g id="line2d_48">
    <path clip-path="url(#p4ca3e9498f)" d="M 71.72939 128.1746 
L 73.066117 126.953068 
L 74.402843 121.55105 
L 75.73957 117.449267 
L 77.076296 115.468556 
L 78.413022 109.780195 
L 79.749749 108.885709 
L 82.423202 98.272833 
L 83.759928 93.451226 
L 85.096654 96.778448 
L 86.433381 91.522961 
L 87.770107 84.961855 
L 89.106834 81.891859 
L 90.44356 85.51848 
L 91.780286 83.967863 
L 93.117013 83.694904 
L 94.453739 84.19844 
L 95.790466 80.719567 
L 97.127192 82.127472 
L 98.463918 81.165146 
L 99.800645 82.633613 
L 101.137371 76.707078 
L 103.810824 67.920442 
L 105.14755 66.164497 
L 106.484277 62.370712 
L 107.821003 59.920085 
L 109.15773 62.145526 
L 110.494456 63.859243 
L 111.831182 65.189747 
L 113.167909 71.586529 
L 114.504635 70.166772 
L 115.841362 72.437253 
L 117.178088 73.91043 
L 118.514814 79.906096 
L 119.851541 76.810623 
L 121.188267 79.439796 
L 122.524994 76.88008 
L 123.86172 74.832369 
L 125.198447 76.091271 
L 126.535173 75.912435 
L 127.871899 85.192712 
L 129.208626 81.015456 
L 130.545352 83.908697 
L 131.882079 87.470327 
L 133.218805 86.203932 
L 135.892258 106.557916 
L 137.228984 109.443419 
L 138.565711 111.6871 
L 139.902437 114.264598 
L 141.239163 115.181471 
L 142.57589 111.007997 
L 143.912616 114.898666 
L 145.249343 113.33096 
L 146.586069 115.579047 
L 147.922795 118.096153 
L 149.259522 121.42734 
L 150.596248 118.820415 
L 151.932975 117.406946 
L 154.606427 127.793486 
L 155.943154 126.134879 
L 157.27988 126.898939 
L 158.616607 129.921229 
L 159.953333 128.996462 
L 161.290059 134.422617 
L 162.626786 138.509911 
L 163.963512 136.903616 
L 165.300239 134.750648 
L 166.636965 134.17037 
L 167.973691 134.183434 
L 169.310418 133.535978 
L 170.647144 131.089079 
L 171.983871 132.272021 
L 173.320597 134.572895 
L 174.657323 135.354167 
L 175.99405 133.906241 
L 177.330776 129.995182 
L 178.667503 132.464001 
L 180.004229 131.014796 
L 181.340956 128.212475 
L 182.677682 130.977701 
L 184.014408 132.280786 
L 185.351135 131.350287 
L 186.687861 132.705591 
L 188.024588 132.514623 
L 189.361314 132.489323 
L 190.69804 133.098586 
L 192.034767 136.841361 
L 193.371493 137.344358 
L 194.70822 133.984593 
L 196.044946 139.771255 
L 197.381672 140.53698 
L 198.718399 143.974838 
L 200.055125 145.960191 
L 201.391852 143.339065 
L 202.728578 144.458638 
L 205.402031 149.837092 
L 206.738757 159.333887 
L 208.075484 159.736971 
L 209.41221 160.860188 
L 210.748936 163.375084 
L 212.085663 165.569146 
L 213.422389 164.035313 
L 214.759116 164.460562 
L 216.095842 165.975807 
L 217.432568 170.779619 
L 218.769295 171.598811 
L 220.106021 170.664963 
L 221.442748 170.791157 
L 222.779474 175.877746 
L 224.1162 176.477618 
L 225.452927 178.743118 
L 226.789653 180.508314 
L 228.12638 180.674466 
L 229.463106 175.412711 
L 230.799832 174.663462 
L 232.136559 179.524027 
L 233.473285 181.367024 
L 234.810012 184.313149 
L 236.146738 184.348635 
L 237.483465 187.809591 
L 238.820191 182.249893 
L 240.156917 189.252521 
L 241.493644 187.770473 
L 242.83037 189.263233 
L 244.167097 184.750759 
L 245.503823 183.287038 
L 246.840549 190.938325 
L 248.177276 194.405828 
L 249.514002 194.782561 
L 250.850729 198.191723 
L 253.524181 197.364855 
L 254.860908 203.242785 
L 256.197634 197.021551 
L 257.534361 196.335538 
L 258.871087 192.630116 
L 260.207813 190.038634 
L 261.54454 190.693296 
L 262.881266 182.061713 
L 264.217993 181.946813 
L 265.554719 178.834655 
L 266.891445 174.319835 
L 268.228172 176.493955 
L 269.564898 178.151698 
L 270.901625 175.89996 
L 272.238351 168.457779 
L 273.575077 173.820483 
L 274.911804 180.284386 
L 276.24853 177.269613 
L 277.585257 180.349969 
L 278.921983 174.792487 
L 280.258709 182.184578 
L 281.595436 175.778155 
L 282.932162 176.143537 
L 284.268889 176.118433 
L 285.605615 177.849419 
L 286.942341 180.897555 
L 288.279068 174.8127 
L 289.615794 176.958521 
L 290.952521 172.517196 
L 292.289247 173.555992 
L 293.625974 169.233511 
L 294.9627 173.977044 
L 296.299426 179.388441 
L 297.636153 180.731165 
L 298.972879 180.125034 
L 300.309606 175.714987 
L 301.646332 175.063905 
L 302.983058 175.491256 
L 304.319785 181.418654 
L 305.656511 182.717998 
L 306.993238 180.264869 
L 308.329964 188.094378 
L 309.66669 191.877107 
L 311.003417 187.938043 
L 313.67687 183.800382 
L 315.013596 184.024929 
L 316.350322 184.464094 
L 317.687049 185.076933 
L 319.023775 182.915834 
L 320.360502 184.752615 
L 321.697228 187.268861 
L 323.033954 187.724517 
L 324.370681 191.438822 
L 325.707407 188.693378 
L 327.044134 188.489865 
L 328.38086 185.580432 
L 329.717586 187.142105 
L 331.054313 188.072249 
L 332.391039 194.035745 
L 333.727766 197.09608 
L 335.064492 194.301618 
L 336.401218 192.31534 
L 337.737945 191.457433 
L 339.074671 190.438585 
L 340.411398 190.35037 
L 343.084851 194.791103 
L 344.421577 195.776431 
L 345.758303 195.392782 
L 347.09503 195.868208 
L 348.431756 194.664972 
L 349.768483 194.086343 
L 351.105209 199.58097 
L 352.441935 195.959689 
L 353.778662 195.526494 
L 355.115388 191.81248 
L 356.452115 190.714919 
L 357.788841 180.906006 
L 359.125567 184.232785 
L 360.462294 183.482024 
L 361.79902 184.551446 
L 363.135747 181.966715 
L 364.472473 181.007183 
L 365.809199 176.171364 
L 367.145926 175.507378 
L 368.482652 174.093173 
L 369.819379 172.345284 
L 372.492831 169.917183 
L 373.829558 168.555771 
L 375.166284 162.996838 
L 376.503011 165.699293 
L 377.839737 157.489169 
L 379.176463 151.581931 
L 380.51319 149.421266 
L 381.849916 148.960806 
L 383.186643 149.257757 
L 384.523369 146.865386 
L 385.860095 145.691677 
L 387.196822 143.570321 
L 388.533548 149.783269 
L 389.870275 147.011009 
L 392.543727 144.058834 
L 393.880454 139.351375 
L 395.21718 143.895905 
L 396.553907 145.822785 
L 397.890633 145.405071 
L 399.22736 144.596167 
L 400.564086 145.844108 
L 401.900812 149.548297 
L 403.237539 147.552544 
L 404.574265 150.93232 
L 405.910992 154.91828 
L 407.247718 156.761076 
L 408.584444 154.524194 
L 409.921171 155.462252 
L 411.257897 157.190668 
L 412.594624 158.237042 
L 413.93135 163.78289 
L 415.268076 159.518959 
L 416.604803 160.82302 
L 417.941529 159.877783 
L 419.278256 154.762848 
L 420.614982 155.854064 
L 421.951708 164.301172 
L 423.288435 163.698999 
L 425.961888 166.356324 
L 428.63534 167.532829 
L 429.972067 168.305894 
L 431.308793 175.077216 
L 432.64552 176.306033 
L 433.982246 176.636682 
L 435.318972 181.457266 
L 436.655699 182.688745 
L 437.992425 176.113334 
L 439.329152 182.674321 
L 440.665878 185.651929 
L 443.339331 183.045971 
L 444.676057 185.979444 
L 446.012784 187.391768 
L 447.34951 193.993151 
L 448.686236 191.387158 
L 450.022963 200.563585 
L 451.359689 192.247531 
L 452.696416 195.878468 
L 454.033142 197.272949 
L 455.369869 200.445815 
L 456.706595 196.627659 
L 458.043321 202.265995 
L 459.380048 204.328873 
L 460.716774 201.982024 
L 462.053501 203.417902 
L 463.390227 204.431736 
L 464.726953 204.902314 
L 466.06368 210.34483 
L 467.400406 214.065004 
L 468.737133 214.697673 
L 470.073859 219.744883 
L 471.410585 226.37798 
L 472.747312 230.270745 
L 474.084038 230.10206 
L 475.420765 231.824502 
L 476.757491 241.564096 
L 480.76767 247.168425 
L 482.104397 247.991733 
L 483.441123 249.847144 
L 484.777849 243.983618 
L 486.114576 246.611424 
L 487.451302 246.824904 
L 488.788029 244.154461 
L 490.124755 243.86755 
L 491.461481 247.266853 
L 492.798208 240.544639 
L 494.134934 238.705274 
L 495.471661 239.851538 
L 496.808387 239.908471 
L 498.145113 238.170093 
L 499.48184 243.856567 
L 500.818566 247.608317 
L 502.155293 239.038963 
L 503.492019 236.944184 
L 504.828745 240.168985 
L 506.165472 241.63157 
L 507.502198 244.871631 
L 508.838925 246.111939 
L 510.175651 249.953563 
L 512.849104 246.791976 
L 514.18583 253.937543 
L 515.522557 254.273971 
L 516.859283 253.871332 
L 518.19601 249.036011 
L 519.532736 244.973661 
L 520.869462 248.292139 
L 522.206189 248.199907 
L 523.542915 245.692167 
L 526.216368 254.274302 
L 527.553094 259.989348 
L 528.889821 262.541902 
L 530.226547 257.087012 
L 531.563274 253.991007 
L 531.563274 253.991007 
" style="fill:none;stroke:#000080;stroke-linecap:square;stroke-width:3;"/>
   </g>
   <g id="line2d_49">
    <path clip-path="url(#p4ca3e9498f)" d="M 71.72939 126.915402 
L 73.066117 130.335026 
L 74.402843 131.395817 
L 75.73957 138.118361 
L 77.076296 136.897336 
L 78.413022 138.924416 
L 79.749749 143.673028 
L 81.086475 142.468549 
L 82.423202 143.319623 
L 83.759928 144.382985 
L 85.096654 147.278742 
L 86.433381 151.097613 
L 87.770107 148.222942 
L 89.106834 150.312726 
L 90.44356 151.066716 
L 91.780286 148.391208 
L 93.117013 147.655548 
L 94.453739 150.222128 
L 95.790466 146.233543 
L 97.127192 150.670934 
L 98.463918 149.896194 
L 99.800645 151.100123 
L 101.137371 145.719125 
L 102.474098 152.958296 
L 103.810824 148.581825 
L 105.14755 147.483505 
L 106.484277 142.848786 
L 107.821003 140.310594 
L 109.15773 141.200347 
L 110.494456 138.941123 
L 111.831182 139.170094 
L 113.167909 142.222469 
L 114.504635 141.146642 
L 115.841362 141.651808 
L 117.178088 142.643872 
L 118.514814 136.483889 
L 119.851541 136.099632 
L 121.188267 138.818463 
L 122.524994 135.252291 
L 125.198447 135.448929 
L 126.535173 135.93295 
L 127.871899 140.917719 
L 129.208626 144.367877 
L 130.545352 145.339401 
L 131.882079 145.852872 
L 133.218805 140.028022 
L 135.892258 132.65445 
L 137.228984 131.911238 
L 138.565711 132.081686 
L 139.902437 133.679429 
L 141.239163 132.29994 
L 142.57589 130.238613 
L 143.912616 129.356881 
L 145.249343 125.217265 
L 146.586069 125.10438 
L 147.922795 119.178655 
L 149.259522 117.416438 
L 151.932975 127.35903 
L 153.269701 124.865291 
L 154.606427 134.067441 
L 155.943154 132.704719 
L 157.27988 135.781996 
L 158.616607 134.719209 
L 159.953333 130.816487 
L 161.290059 133.204416 
L 162.626786 134.448203 
L 163.963512 135.312957 
L 165.300239 137.430082 
L 166.636965 131.549685 
L 167.973691 130.759752 
L 169.310418 132.246585 
L 170.647144 131.252529 
L 171.983871 131.096136 
L 173.320597 124.489418 
L 174.657323 135.330304 
L 175.99405 133.686458 
L 177.330776 134.748164 
L 178.667503 139.820473 
L 180.004229 142.952319 
L 181.340956 144.19691 
L 182.677682 143.331035 
L 184.014408 137.81309 
L 185.351135 138.966351 
L 186.687861 139.752899 
L 188.024588 140.736204 
L 189.361314 143.313314 
L 190.69804 141.795983 
L 192.034767 143.162393 
L 193.371493 142.855795 
L 194.70822 141.693601 
L 196.044946 143.321214 
L 197.381672 142.411415 
L 198.718399 142.010911 
L 200.055125 142.232532 
L 201.391852 144.320864 
L 202.728578 142.33618 
L 204.065304 141.914981 
L 205.402031 137.552517 
L 206.738757 139.130448 
L 208.075484 129.178605 
L 209.41221 130.697283 
L 210.748936 126.584224 
L 212.085663 126.226096 
L 213.422389 125.262354 
L 214.759116 128.422806 
L 216.095842 134.906141 
L 217.432568 133.433061 
L 218.769295 127.479008 
L 220.106021 130.671943 
L 221.442748 130.207765 
L 222.779474 129.911983 
L 224.1162 129.192593 
L 225.452927 128.92428 
L 226.789653 127.42745 
L 228.12638 124.187018 
L 229.463106 119.433237 
L 230.799832 116.450749 
L 232.136559 121.15851 
L 233.473285 123.02426 
L 234.810012 125.189284 
L 236.146738 123.442271 
L 237.483465 128.809935 
L 238.820191 125.193722 
L 240.156917 126.918929 
L 241.493644 129.055055 
L 242.83037 126.056275 
L 244.167097 126.654442 
L 245.503823 120.221225 
L 246.840549 118.095678 
L 248.177276 116.711444 
L 249.514002 115.545323 
L 250.850729 119.366404 
L 252.187455 120.800305 
L 253.524181 117.245409 
L 254.860908 117.287891 
L 256.197634 111.436259 
L 257.534361 114.490573 
L 258.871087 118.514884 
L 260.207813 117.334882 
L 261.54454 122.641871 
L 262.881266 122.545772 
L 264.217993 122.814602 
L 265.554719 122.432076 
L 266.891445 117.046577 
L 268.228172 122.01215 
L 269.564898 120.24999 
L 270.901625 121.960482 
L 272.238351 119.543772 
L 273.575077 123.764428 
L 274.911804 124.056355 
L 276.24853 127.495835 
L 277.585257 126.767663 
L 278.921983 124.902242 
L 280.258709 126.94614 
L 281.595436 122.674263 
L 282.932162 123.453398 
L 284.268889 119.442838 
L 285.605615 122.551537 
L 286.942341 123.725373 
L 288.279068 119.996441 
L 289.615794 121.995041 
L 290.952521 121.336087 
L 292.289247 124.709001 
L 293.625974 124.313758 
L 294.9627 133.456507 
L 296.299426 129.085757 
L 297.636153 130.690371 
L 298.972879 131.771114 
L 300.309606 130.787456 
L 301.646332 128.618511 
L 302.983058 129.997852 
L 304.319785 131.045674 
L 305.656511 126.677192 
L 306.993238 124.516945 
L 308.329964 125.822892 
L 309.66669 128.438136 
L 311.003417 127.193304 
L 312.340143 129.765249 
L 313.67687 127.916299 
L 315.013596 126.989066 
L 316.350322 128.700996 
L 317.687049 129.984612 
L 319.023775 128.813823 
L 320.360502 134.147483 
L 321.697228 135.984029 
L 323.033954 135.298258 
L 324.370681 134.065656 
L 325.707407 132.176775 
L 327.044134 129.852285 
L 328.38086 130.360985 
L 329.717586 132.449379 
L 331.054313 132.474151 
L 332.391039 130.700455 
L 333.727766 136.357859 
L 335.064492 131.913753 
L 336.401218 132.855444 
L 337.737945 134.950798 
L 339.074671 132.706569 
L 340.411398 128.261781 
L 341.748124 125.214111 
L 343.084851 127.289685 
L 344.421577 129.70785 
L 345.758303 134.435241 
L 347.09503 138.430264 
L 348.431756 139.848507 
L 349.768483 145.824881 
L 351.105209 148.608597 
L 352.441935 146.994509 
L 353.778662 150.266958 
L 355.115388 145.698055 
L 356.452115 148.067567 
L 357.788841 147.12707 
L 359.125567 152.813747 
L 360.462294 154.672384 
L 361.79902 156.740277 
L 363.135747 153.876446 
L 364.472473 154.788852 
L 365.809199 153.447175 
L 367.145926 159.013323 
L 368.482652 155.746154 
L 369.819379 155.209258 
L 371.156105 159.738356 
L 372.492831 160.463146 
L 373.829558 157.787065 
L 375.166284 156.560844 
L 376.503011 157.495321 
L 377.839737 148.829774 
L 379.176463 145.457781 
L 380.51319 147.435623 
L 381.849916 148.158838 
L 383.186643 144.628693 
L 384.523369 149.782359 
L 385.860095 148.760498 
L 387.196822 150.367133 
L 388.533548 154.591849 
L 389.870275 149.637415 
L 391.207001 147.244724 
L 393.880454 132.367556 
L 395.21718 140.486694 
L 396.553907 144.440805 
L 397.890633 143.072897 
L 399.22736 140.714198 
L 400.564086 144.808156 
L 401.900812 149.838041 
L 403.237539 147.753026 
L 404.574265 149.486173 
L 405.910992 150.322926 
L 407.247718 148.316581 
L 408.584444 154.279786 
L 409.921171 152.410019 
L 411.257897 151.251039 
L 412.594624 152.608849 
L 413.93135 152.574138 
L 416.604803 151.865648 
L 417.941529 156.661208 
L 419.278256 157.934205 
L 420.614982 158.233219 
L 421.951708 160.677461 
L 423.288435 163.939947 
L 424.625161 165.105781 
L 425.961888 168.036308 
L 427.298614 166.439506 
L 428.63534 166.612967 
L 429.972067 169.665313 
L 431.308793 171.0659 
L 432.64552 165.3007 
L 433.982246 161.817779 
L 435.318972 164.553115 
L 436.655699 164.606052 
L 437.992425 165.534684 
L 439.329152 168.775814 
L 440.665878 173.655032 
L 442.002604 171.707882 
L 443.339331 172.440212 
L 444.676057 171.517574 
L 446.012784 174.21072 
L 448.686236 171.477894 
L 450.022963 180.856943 
L 451.359689 181.207423 
L 452.696416 185.960271 
L 454.033142 186.269895 
L 455.369869 190.381654 
L 456.706595 184.456604 
L 458.043321 191.651726 
L 459.380048 192.153555 
L 462.053501 187.979116 
L 463.390227 188.462314 
L 464.726953 192.930938 
L 466.06368 193.014669 
L 467.400406 192.069108 
L 468.737133 189.343237 
L 470.073859 182.815163 
L 471.410585 182.227223 
L 472.747312 181.049524 
L 474.084038 180.498636 
L 475.420765 178.68841 
L 476.757491 181.67334 
L 478.094217 180.979172 
L 479.430944 183.673793 
L 480.76767 188.831778 
L 482.104397 188.508465 
L 483.441123 190.686487 
L 484.777849 188.138678 
L 486.114576 186.458285 
L 487.451302 180.494535 
L 488.788029 183.125829 
L 490.124755 187.398907 
L 491.461481 192.429717 
L 492.798208 190.600338 
L 494.134934 194.162512 
L 495.471661 192.970816 
L 496.808387 193.129708 
L 498.145113 197.724858 
L 499.48184 196.973428 
L 500.818566 193.840221 
L 502.155293 196.420061 
L 503.492019 199.672247 
L 504.828745 200.632077 
L 506.165472 199.307407 
L 507.502198 205.584016 
L 508.838925 202.92089 
L 510.175651 202.205533 
L 511.512378 202.419747 
L 512.849104 198.10923 
L 514.18583 200.578719 
L 515.522557 203.321285 
L 516.859283 202.895501 
L 519.532736 199.769949 
L 520.869462 201.668875 
L 522.206189 204.412236 
L 523.542915 209.037595 
L 524.879642 209.719762 
L 526.216368 210.235945 
L 527.553094 209.564166 
L 528.889821 209.573501 
L 531.563274 212.086515 
L 531.563274 212.086515 
" style="fill:none;stroke:#ffa500;stroke-linecap:square;stroke-width:3;"/>
   </g>
   <g id="line2d_50">
    <path clip-path="url(#p4ca3e9498f)" d="M 71.72939 128.711251 
L 73.066117 129.258836 
L 74.402843 130.731775 
L 75.73957 131.535204 
L 77.076296 132.776238 
L 79.749749 135.869874 
L 83.759928 142.169483 
L 86.433381 146.720477 
L 89.106834 152.701084 
L 90.44356 154.833114 
L 91.780286 157.277803 
L 94.453739 161.209159 
L 95.790466 162.929635 
L 97.127192 164.016673 
L 98.463918 165.624783 
L 99.800645 166.921425 
L 103.810824 172.552146 
L 107.821003 176.327905 
L 109.15773 177.531373 
L 113.167909 180.446728 
L 115.841362 181.751784 
L 117.178088 181.811563 
L 118.514814 181.466717 
L 121.188267 181.414537 
L 125.198447 179.999267 
L 130.545352 177.337209 
L 131.882079 176.185928 
L 134.555531 174.618239 
L 135.892258 174.10826 
L 137.228984 172.860132 
L 138.565711 171.844576 
L 139.902437 170.286697 
L 141.239163 169.073548 
L 142.57589 168.281205 
L 145.249343 165.36694 
L 146.586069 163.789916 
L 149.259522 159.213365 
L 150.596248 157.997089 
L 151.932975 156.323769 
L 153.269701 154.348727 
L 154.606427 153.113392 
L 155.943154 152.644981 
L 157.27988 151.976874 
L 158.616607 151.53929 
L 159.953333 151.452944 
L 161.290059 151.205658 
L 162.626786 150.466544 
L 163.963512 150.473848 
L 165.300239 149.912206 
L 166.636965 149.09653 
L 167.973691 148.05587 
L 169.310418 147.59282 
L 170.647144 147.403199 
L 171.983871 147.087722 
L 174.657323 145.361163 
L 175.99405 144.133127 
L 177.330776 143.311189 
L 178.667503 141.720911 
L 180.004229 141.447758 
L 181.340956 140.490119 
L 182.677682 140.237898 
L 184.014408 139.514759 
L 185.351135 138.660209 
L 186.687861 137.943495 
L 188.024588 136.43617 
L 189.361314 136.13484 
L 193.371493 133.573868 
L 194.70822 132.529639 
L 196.044946 130.895169 
L 197.381672 130.191747 
L 198.718399 129.282411 
L 200.055125 128.204232 
L 201.391852 127.743349 
L 202.728578 126.23089 
L 204.065304 125.205609 
L 205.402031 123.924448 
L 206.738757 123.229949 
L 208.075484 122.216953 
L 209.41221 121.980148 
L 210.748936 121.389348 
L 212.085663 120.622403 
L 213.422389 120.665715 
L 214.759116 119.916362 
L 216.095842 119.877944 
L 217.432568 118.284463 
L 220.106021 118.028047 
L 221.442748 117.434706 
L 224.1162 115.785662 
L 225.452927 114.577977 
L 226.789653 114.225076 
L 228.12638 113.214708 
L 229.463106 111.922054 
L 230.799832 110.376675 
L 233.473285 108.855747 
L 234.810012 108.244175 
L 236.146738 108.168863 
L 237.483465 107.782123 
L 238.820191 107.95185 
L 240.156917 107.891072 
L 241.493644 108.090856 
L 242.83037 107.733166 
L 244.167097 107.021123 
L 245.503823 107.384221 
L 246.840549 108.212693 
L 248.177276 109.386335 
L 250.850729 112.037296 
L 252.187455 113.273799 
L 254.860908 116.517007 
L 256.197634 118.030074 
L 257.534361 119.102227 
L 258.871087 121.223833 
L 260.207813 124.508831 
L 261.54454 126.709463 
L 262.881266 129.827165 
L 264.217993 131.813965 
L 265.554719 133.069969 
L 266.891445 134.835736 
L 268.228172 135.861507 
L 269.564898 138.105548 
L 272.238351 141.594908 
L 273.575077 142.31304 
L 274.911804 144.001748 
L 276.24853 146.125008 
L 278.921983 149.843124 
L 280.258709 150.920125 
L 281.595436 152.485925 
L 285.605615 156.404199 
L 286.942341 157.562054 
L 288.279068 158.330339 
L 289.615794 158.678134 
L 290.952521 158.72568 
L 292.289247 158.455411 
L 294.9627 155.840571 
L 296.299426 155.206933 
L 297.636153 154.805128 
L 298.972879 154.114254 
L 300.309606 153.696333 
L 302.983058 151.940771 
L 305.656511 151.076587 
L 306.993238 150.481166 
L 308.329964 149.713723 
L 309.66669 149.31437 
L 312.340143 147.52156 
L 315.013596 145.275417 
L 316.350322 143.99712 
L 317.687049 143.379601 
L 319.023775 142.477804 
L 320.360502 141.201311 
L 321.697228 140.986985 
L 323.033954 140.308069 
L 324.370681 139.35202 
L 325.707407 138.584885 
L 327.044134 136.736077 
L 329.717586 134.73406 
L 331.054313 134.356281 
L 332.391039 134.120777 
L 333.727766 133.490519 
L 335.064492 133.299202 
L 336.401218 132.583858 
L 337.737945 131.249501 
L 340.411398 130.852363 
L 341.748124 129.943394 
L 343.084851 129.675315 
L 344.421577 129.689201 
L 345.758303 128.938767 
L 348.431756 128.052352 
L 351.105209 128.371354 
L 352.441935 128.220015 
L 353.778662 128.356106 
L 355.115388 128.65972 
L 356.452115 128.680619 
L 357.788841 128.952978 
L 359.125567 129.067842 
L 360.462294 129.605299 
L 363.135747 132.326609 
L 364.472473 134.088167 
L 367.145926 138.753689 
L 368.482652 141.914189 
L 371.156105 148.920258 
L 372.492831 153.941536 
L 375.166284 167.248276 
L 376.503011 174.807366 
L 377.839737 183.314819 
L 380.51319 195.958543 
L 383.186643 207.032763 
L 385.860095 216.244439 
L 387.196822 220.682286 
L 389.870275 227.357259 
L 391.207001 230.057408 
L 392.543727 232.337664 
L 393.880454 233.752576 
L 396.553907 234.934399 
L 397.890633 236.023456 
L 400.564086 236.797897 
L 401.900812 237.205143 
L 403.237539 237.422445 
L 404.574265 238.24599 
L 405.910992 238.568535 
L 407.247718 238.178777 
L 408.584444 237.204564 
L 409.921171 236.419722 
L 412.594624 235.07495 
L 415.268076 233.266648 
L 416.604803 231.873132 
L 417.941529 231.257874 
L 419.278256 230.451409 
L 420.614982 229.069257 
L 421.951708 227.439066 
L 424.625161 222.950587 
L 427.298614 219.10843 
L 428.63534 217.481052 
L 429.972067 216.297473 
L 431.308793 215.304929 
L 432.64552 214.624335 
L 433.982246 213.03381 
L 435.318972 211.033173 
L 436.655699 209.735367 
L 437.992425 208.839404 
L 439.329152 208.61536 
L 442.002604 206.391253 
L 443.339331 205.837316 
L 447.34951 203.328326 
L 448.686236 202.973008 
L 451.359689 201.90415 
L 452.696416 200.23646 
L 454.033142 197.991751 
L 456.706595 194.939802 
L 462.053501 187.781969 
L 463.390227 185.833787 
L 464.726953 184.352747 
L 467.400406 178.98185 
L 468.737133 177.327949 
L 470.073859 174.997848 
L 472.747312 171.681228 
L 475.420765 167.839472 
L 476.757491 166.231754 
L 480.76767 160.464003 
L 483.441123 157.244111 
L 484.777849 156.2356 
L 486.114576 154.589085 
L 488.788029 150.923346 
L 490.124755 150.228227 
L 491.461481 150.082272 
L 494.134934 148.516651 
L 495.471661 148.102513 
L 498.145113 147.530046 
L 499.48184 146.873388 
L 500.818566 145.997834 
L 502.155293 145.535927 
L 503.492019 144.6639 
L 506.165472 142.41949 
L 507.502198 140.945741 
L 508.838925 139.734806 
L 510.175651 139.016611 
L 511.512378 137.733292 
L 512.849104 137.010875 
L 514.18583 135.631266 
L 516.859283 133.609771 
L 519.532736 131.450562 
L 520.869462 129.91922 
L 523.542915 128.38086 
L 524.879642 127.326177 
L 526.216368 126.747654 
L 527.553094 125.827374 
L 530.226547 124.2241 
L 531.563274 123.346057 
L 531.563274 123.346057 
" style="fill:none;stroke:#800000;stroke-linecap:square;stroke-width:3;"/>
   </g>
   <g id="line2d_51">
    <path clip-path="url(#p4ca3e9498f)" d="M 69.055937 128.781583 
L 532.9 128.781583 
" style="fill:none;stroke:#000000;stroke-linecap:square;stroke-width:1.5;"/>
   </g>
   <g id="patch_3">
    <path d="M 69.055938 382.901875 
L 532.9 382.901875 
" style="fill:none;stroke:#000000;stroke-linecap:square;stroke-linejoin:miter;stroke-width:0.8;"/>
   </g>
   <g id="legend_1">
    <g id="patch_4">
     <path d="M 415.839063 111.2525 
L 525.9 111.2525 
Q 527.9 111.2525 527.9 109.2525 
L 527.9 51.54 
Q 527.9 49.54 525.9 49.54 
L 415.839063 49.54 
Q 413.839063 49.54 413.839063 51.54 
L 413.839063 109.2525 
Q 413.839063 111.2525 415.839063 111.2525 
z
" style="fill:#ffffff;opacity:0.8;stroke:#cccccc;stroke-linejoin:miter;"/>
    </g>
    <g id="line2d_52">
     <path d="M 417.839063 57.638437 
L 437.839063 57.638437 
" style="fill:none;stroke:#000000;stroke-linecap:square;stroke-width:3;"/>
    </g>
    <g id="line2d_53"/>
    <g id="text_13">
     <!-- Change in LFPR -->
     <defs>
      <path d="M 64.40625 67.28125 
L 64.40625 56.890625 
Q 59.421875 61.53125 53.78125 63.8125 
Q 48.140625 66.109375 41.796875 66.109375 
Q 29.296875 66.109375 22.65625 58.46875 
Q 16.015625 50.828125 16.015625 36.375 
Q 16.015625 21.96875 22.65625 14.328125 
Q 29.296875 6.6875 41.796875 6.6875 
Q 48.140625 6.6875 53.78125 8.984375 
Q 59.421875 11.28125 64.40625 15.921875 
L 64.40625 5.609375 
Q 59.234375 2.09375 53.4375 0.328125 
Q 47.65625 -1.421875 41.21875 -1.421875 
Q 24.65625 -1.421875 15.125 8.703125 
Q 5.609375 18.84375 5.609375 36.375 
Q 5.609375 53.953125 15.125 64.078125 
Q 24.65625 74.21875 41.21875 74.21875 
Q 47.75 74.21875 53.53125 72.484375 
Q 59.328125 70.75 64.40625 67.28125 
z
" id="DejaVuSans-43"/>
      <path d="M 54.890625 33.015625 
L 54.890625 0 
L 45.90625 0 
L 45.90625 32.71875 
Q 45.90625 40.484375 42.875 44.328125 
Q 39.84375 48.1875 33.796875 48.1875 
Q 26.515625 48.1875 22.3125 43.546875 
Q 18.109375 38.921875 18.109375 30.90625 
L 18.109375 0 
L 9.078125 0 
L 9.078125 75.984375 
L 18.109375 75.984375 
L 18.109375 46.1875 
Q 21.34375 51.125 25.703125 53.5625 
Q 30.078125 56 35.796875 56 
Q 45.21875 56 50.046875 50.171875 
Q 54.890625 44.34375 54.890625 33.015625 
z
" id="DejaVuSans-68"/>
      <path d="M 9.8125 72.90625 
L 19.671875 72.90625 
L 19.671875 8.296875 
L 55.171875 8.296875 
L 55.171875 0 
L 9.8125 0 
z
" id="DejaVuSans-4c"/>
      <path d="M 9.8125 72.90625 
L 51.703125 72.90625 
L 51.703125 64.59375 
L 19.671875 64.59375 
L 19.671875 43.109375 
L 48.578125 43.109375 
L 48.578125 34.8125 
L 19.671875 34.8125 
L 19.671875 0 
L 9.8125 0 
z
" id="DejaVuSans-46"/>
      <path d="M 44.390625 34.1875 
Q 47.5625 33.109375 50.5625 29.59375 
Q 53.5625 26.078125 56.59375 19.921875 
L 66.609375 0 
L 56 0 
L 46.6875 18.703125 
Q 43.0625 26.03125 39.671875 28.421875 
Q 36.28125 30.8125 30.421875 30.8125 
L 19.671875 30.8125 
L 19.671875 0 
L 9.8125 0 
L 9.8125 72.90625 
L 32.078125 72.90625 
Q 44.578125 72.90625 50.734375 67.671875 
Q 56.890625 62.453125 56.890625 51.90625 
Q 56.890625 45.015625 53.6875 40.46875 
Q 50.484375 35.9375 44.390625 34.1875 
z
M 19.671875 64.796875 
L 19.671875 38.921875 
L 32.078125 38.921875 
Q 39.203125 38.921875 42.84375 42.21875 
Q 46.484375 45.515625 46.484375 51.90625 
Q 46.484375 58.296875 42.84375 61.546875 
Q 39.203125 64.796875 32.078125 64.796875 
z
" id="DejaVuSans-52"/>
     </defs>
     <g transform="translate(445.839063 61.138437)scale(0.1 -0.1)">
      <use xlink:href="#DejaVuSans-43"/>
      <use x="69.824219" xlink:href="#DejaVuSans-68"/>
      <use x="133.203125" xlink:href="#DejaVuSans-61"/>
      <use x="194.482422" xlink:href="#DejaVuSans-6e"/>
      <use x="257.861328" xlink:href="#DejaVuSans-67"/>
      <use x="321.337891" xlink:href="#DejaVuSans-65"/>
      <use x="382.861328" xlink:href="#DejaVuSans-20"/>
      <use x="414.648438" xlink:href="#DejaVuSans-69"/>
      <use x="442.431641" xlink:href="#DejaVuSans-6e"/>
      <use x="505.810547" xlink:href="#DejaVuSans-20"/>
      <use x="537.597656" xlink:href="#DejaVuSans-4c"/>
      <use x="593.310547" xlink:href="#DejaVuSans-46"/>
      <use x="650.830078" xlink:href="#DejaVuSans-50"/>
      <use x="711.132812" xlink:href="#DejaVuSans-52"/>
     </g>
    </g>
    <g id="line2d_54">
     <path d="M 417.839063 72.316562 
L 437.839063 72.316562 
" style="fill:none;stroke:#000080;stroke-linecap:square;stroke-width:3;"/>
    </g>
    <g id="line2d_55"/>
    <g id="text_14">
     <!-- Exit -->
     <defs>
      <path d="M 9.8125 72.90625 
L 55.90625 72.90625 
L 55.90625 64.59375 
L 19.671875 64.59375 
L 19.671875 43.015625 
L 54.390625 43.015625 
L 54.390625 34.71875 
L 19.671875 34.71875 
L 19.671875 8.296875 
L 56.78125 8.296875 
L 56.78125 0 
L 9.8125 0 
z
" id="DejaVuSans-45"/>
      <path d="M 54.890625 54.6875 
L 35.109375 28.078125 
L 55.90625 0 
L 45.3125 0 
L 29.390625 21.484375 
L 13.484375 0 
L 2.875 0 
L 24.125 28.609375 
L 4.6875 54.6875 
L 15.28125 54.6875 
L 29.78125 35.203125 
L 44.28125 54.6875 
z
" id="DejaVuSans-78"/>
     </defs>
     <g transform="translate(445.839063 75.816562)scale(0.1 -0.1)">
      <use xlink:href="#DejaVuSans-45"/>
      <use x="63.183594" xlink:href="#DejaVuSans-78"/>
      <use x="122.363281" xlink:href="#DejaVuSans-69"/>
      <use x="150.146484" xlink:href="#DejaVuSans-74"/>
     </g>
    </g>
    <g id="line2d_56">
     <path d="M 417.839063 86.994687 
L 437.839063 86.994687 
" style="fill:none;stroke:#ffa500;stroke-linecap:square;stroke-width:3;"/>
    </g>
    <g id="line2d_57"/>
    <g id="text_15">
     <!-- Entry -->
     <defs>
      <path d="M 32.171875 -5.078125 
Q 28.375 -14.84375 24.75 -17.8125 
Q 21.140625 -20.796875 15.09375 -20.796875 
L 7.90625 -20.796875 
L 7.90625 -13.28125 
L 13.1875 -13.28125 
Q 16.890625 -13.28125 18.9375 -11.515625 
Q 21 -9.765625 23.484375 -3.21875 
L 25.09375 0.875 
L 2.984375 54.6875 
L 12.5 54.6875 
L 29.59375 11.921875 
L 46.6875 54.6875 
L 56.203125 54.6875 
z
" id="DejaVuSans-79"/>
     </defs>
     <g transform="translate(445.839063 90.494687)scale(0.1 -0.1)">
      <use xlink:href="#DejaVuSans-45"/>
      <use x="63.183594" xlink:href="#DejaVuSans-6e"/>
      <use x="126.5625" xlink:href="#DejaVuSans-74"/>
      <use x="165.771484" xlink:href="#DejaVuSans-72"/>
      <use x="206.884766" xlink:href="#DejaVuSans-79"/>
     </g>
    </g>
    <g id="line2d_58">
     <path d="M 417.839063 101.672812 
L 437.839063 101.672812 
" style="fill:none;stroke:#800000;stroke-linecap:square;stroke-width:3;"/>
    </g>
    <g id="line2d_59"/>
    <g id="text_16">
     <!-- Churn -->
     <defs>
      <path d="M 8.5 21.578125 
L 8.5 54.6875 
L 17.484375 54.6875 
L 17.484375 21.921875 
Q 17.484375 14.15625 20.5 10.265625 
Q 23.53125 6.390625 29.59375 6.390625 
Q 36.859375 6.390625 41.078125 11.03125 
Q 45.3125 15.671875 45.3125 23.6875 
L 45.3125 54.6875 
L 54.296875 54.6875 
L 54.296875 0 
L 45.3125 0 
L 45.3125 8.40625 
Q 42.046875 3.421875 37.71875 1 
Q 33.40625 -1.421875 27.6875 -1.421875 
Q 18.265625 -1.421875 13.375 4.4375 
Q 8.5 10.296875 8.5 21.578125 
z
M 31.109375 56 
z
" id="DejaVuSans-75"/>
     </defs>
     <g transform="translate(445.839063 105.172812)scale(0.1 -0.1)">
      <use xlink:href="#DejaVuSans-43"/>
      <use x="69.824219" xlink:href="#DejaVuSans-68"/>
      <use x="133.203125" xlink:href="#DejaVuSans-75"/>
      <use x="196.582031" xlink:href="#DejaVuSans-72"/>
      <use x="237.679688" xlink:href="#DejaVuSans-6e"/>
     </g>
    </g>
   </g>
  </g>
 </g>
 <defs>
  <clipPath id="p4ca3e9498f">
   <rect height="338.361875" width="463.844063" x="69.055937" y="44.54"/>
  </clipPath>
 </defs>
</svg>
