<?xml version="1.0" encoding="utf-8" standalone="no"?>
<!DOCTYPE svg PUBLIC "-//W3C//DTD SVG 1.1//EN"
  "http://www.w3.org/Graphics/SVG/1.1/DTD/svg11.dtd">
<!-- Created with matplotlib (http://matplotlib.org/) -->
<svg height="252pt" version="1.1" viewBox="0 0 864 252" width="864pt" xmlns="http://www.w3.org/2000/svg" xmlns:xlink="http://www.w3.org/1999/xlink">
 <defs>
  <style type="text/css">
*{stroke-linecap:butt;stroke-linejoin:round;}
  </style>
 </defs>
 <g id="figure_1">
  <g id="patch_1">
   <path d="M 0 252 
L 864 252 
L 864 0 
L 0 0 
z
" style="fill:none;"/>
  </g>
  <g id="axes_1">
   <g id="patch_2">
    <path d="M 81.9275 206.298438 
L 806.5 206.298438 
L 806.5 33.378984 
L 81.9275 33.378984 
z
" style="fill:none;"/>
   </g>
   <g id="PolyCollection_1">
    <path clip-path="url(#p75c68bd6fa)" d="M 81.9275 76.057021 
L 81.9275 206.298438 
L 84.015605 206.298438 
L 86.10371 206.298438 
L 88.191816 206.298438 
L 90.279921 206.298438 
L 92.368026 206.298438 
L 94.456131 206.298438 
L 96.544236 206.298438 
L 98.632341 206.298438 
L 100.720447 206.298438 
L 102.808552 206.298438 
L 104.896657 206.298438 
L 106.984762 206.298438 
L 109.072867 206.298438 
L 111.160973 206.298438 
L 113.249078 206.298438 
L 115.337183 206.298438 
L 117.425288 206.298438 
L 119.513393 206.298438 
L 121.601499 206.298438 
L 123.689604 206.298438 
L 125.777709 206.298438 
L 127.865814 206.298438 
L 129.953919 206.298438 
L 132.042024 206.298438 
L 134.13013 206.298438 
L 136.218235 206.298438 
L 138.30634 206.298438 
L 140.394445 206.298438 
L 142.48255 206.298438 
L 144.570656 206.298438 
L 146.658761 206.298438 
L 148.746866 206.298438 
L 150.834971 206.298438 
L 152.923076 206.298438 
L 155.011182 206.298438 
L 157.099287 206.298438 
L 159.187392 206.298438 
L 161.275497 206.298438 
L 163.363602 206.298438 
L 165.451707 206.298438 
L 167.539813 206.298438 
L 169.627918 206.298438 
L 171.716023 206.298438 
L 173.804128 206.298438 
L 175.892233 206.298438 
L 177.980339 206.298438 
L 180.068444 206.298438 
L 182.156549 206.298438 
L 184.244654 206.298438 
L 186.332759 206.298438 
L 188.420865 206.298438 
L 190.50897 206.298438 
L 192.597075 206.298438 
L 194.68518 206.298438 
L 196.773285 206.298438 
L 198.86139 206.298438 
L 200.949496 206.298438 
L 203.037601 206.298438 
L 205.125706 206.298438 
L 207.213811 206.298438 
L 209.301916 206.298438 
L 211.390022 206.298438 
L 213.478127 206.298438 
L 215.566232 206.298438 
L 217.654337 206.298438 
L 219.742442 206.298438 
L 221.830548 206.298438 
L 223.918653 206.298438 
L 226.006758 206.298438 
L 228.094863 206.298438 
L 230.182968 206.298438 
L 232.271073 206.298438 
L 234.359179 206.298438 
L 236.447284 206.298438 
L 238.535389 206.298438 
L 240.623494 206.298438 
L 242.711599 206.298438 
L 244.799705 206.298438 
L 246.88781 206.298438 
L 248.975915 206.298438 
L 251.06402 206.298438 
L 253.152125 206.298438 
L 255.240231 206.298438 
L 257.328336 206.298438 
L 259.416441 206.298438 
L 261.504546 206.298438 
L 263.592651 206.298438 
L 265.680756 206.298438 
L 267.768862 206.298438 
L 269.856967 206.298438 
L 271.945072 206.298438 
L 274.033177 206.298438 
L 276.121282 206.298438 
L 278.209388 206.298438 
L 280.297493 206.298438 
L 282.385598 206.298438 
L 284.473703 206.298438 
L 286.561808 206.298438 
L 288.649914 206.298438 
L 290.738019 206.298438 
L 292.826124 206.298438 
L 294.914229 206.298438 
L 297.002334 206.298438 
L 299.090439 206.298438 
L 301.178545 206.298438 
L 303.26665 206.298438 
L 305.354755 206.298438 
L 307.44286 206.298438 
L 309.530965 206.298438 
L 311.619071 206.298438 
L 313.707176 206.298438 
L 315.795281 206.298438 
L 317.883386 206.298438 
L 319.971491 206.298438 
L 322.059597 206.298438 
L 324.147702 206.298438 
L 326.235807 206.298438 
L 328.323912 206.298438 
L 330.412017 206.298438 
L 332.500122 206.298438 
L 334.588228 206.298438 
L 336.676333 206.298438 
L 338.764438 206.298438 
L 340.852543 206.298438 
L 342.940648 206.298438 
L 345.028754 206.298438 
L 347.116859 206.298438 
L 349.204964 206.298438 
L 351.293069 206.298438 
L 353.381174 206.298438 
L 355.46928 206.298438 
L 357.557385 206.298438 
L 359.64549 206.298438 
L 361.733595 206.298438 
L 363.8217 206.298438 
L 365.909805 206.298438 
L 367.997911 206.298438 
L 370.086016 206.298438 
L 372.174121 206.298438 
L 374.262226 206.298438 
L 376.350331 206.298438 
L 378.438437 206.298438 
L 380.526542 206.298438 
L 382.614647 206.298438 
L 384.702752 206.298438 
L 386.790857 206.298438 
L 388.878963 206.298438 
L 390.967068 206.298438 
L 393.055173 206.298438 
L 395.143278 206.298438 
L 397.231383 206.298438 
L 399.319488 206.298438 
L 401.407594 206.298438 
L 403.495699 206.298438 
L 405.583804 206.298438 
L 407.671909 206.298438 
L 409.760014 206.298438 
L 411.84812 206.298438 
L 413.936225 206.298438 
L 416.02433 206.298438 
L 418.112435 206.298438 
L 420.20054 206.298438 
L 422.288646 206.298438 
L 424.376751 206.298438 
L 426.464856 206.298438 
L 428.552961 206.298438 
L 430.641066 206.298438 
L 432.729171 206.298438 
L 434.817277 206.298438 
L 436.905382 206.298438 
L 438.993487 206.298438 
L 441.081592 206.298438 
L 443.169697 206.298438 
L 445.257803 206.298438 
L 447.345908 206.298438 
L 449.434013 206.298438 
L 451.522118 206.298438 
L 453.610223 206.298438 
L 455.698329 206.298438 
L 457.786434 206.298438 
L 459.874539 206.298438 
L 461.962644 206.298438 
L 464.050749 206.298438 
L 466.138854 206.298438 
L 468.22696 206.298438 
L 470.315065 206.298438 
L 472.40317 206.298438 
L 474.491275 206.298438 
L 476.57938 206.298438 
L 478.667486 206.298438 
L 480.755591 206.298438 
L 482.843696 206.298438 
L 484.931801 206.298438 
L 487.019906 206.298438 
L 489.108012 206.298438 
L 491.196117 206.298438 
L 493.284222 206.298438 
L 495.372327 206.298438 
L 497.460432 206.298438 
L 499.548537 206.298438 
L 501.636643 206.298438 
L 503.724748 206.298438 
L 505.812853 206.298438 
L 507.900958 206.298438 
L 509.989063 206.298438 
L 512.077169 206.298438 
L 514.165274 206.298438 
L 516.253379 206.298438 
L 518.341484 206.298438 
L 520.429589 206.298438 
L 522.517695 206.298438 
L 524.6058 206.298438 
L 526.693905 206.298438 
L 528.78201 206.298438 
L 530.870115 206.298438 
L 532.95822 206.298438 
L 535.046326 206.298438 
L 537.134431 206.298438 
L 539.222536 206.298438 
L 541.310641 206.298438 
L 543.398746 206.298438 
L 545.486852 206.298438 
L 547.574957 206.298438 
L 549.663062 206.298438 
L 551.751167 206.298438 
L 553.839272 206.298438 
L 555.927378 206.298438 
L 558.015483 206.298438 
L 560.103588 206.298438 
L 562.191693 206.298438 
L 564.279798 206.298438 
L 566.367903 206.298438 
L 568.456009 206.298438 
L 570.544114 206.298438 
L 572.632219 206.298438 
L 574.720324 206.298438 
L 576.808429 206.298438 
L 578.896535 206.298438 
L 580.98464 206.298438 
L 583.072745 206.298438 
L 585.16085 206.298438 
L 587.248955 206.298438 
L 589.337061 206.298438 
L 591.425166 206.298438 
L 593.513271 206.298438 
L 595.601376 206.298438 
L 597.689481 206.298438 
L 599.777586 206.298438 
L 601.865692 206.298438 
L 603.953797 206.298438 
L 606.041902 206.298438 
L 608.130007 206.298438 
L 610.218112 206.298438 
L 612.306218 206.298438 
L 614.394323 206.298438 
L 616.482428 206.298438 
L 618.570533 206.298438 
L 620.658638 206.298438 
L 622.746744 206.298438 
L 624.834849 206.298438 
L 626.922954 206.298438 
L 629.011059 206.298438 
L 631.099164 206.298438 
L 633.187269 206.298438 
L 635.275375 206.298438 
L 637.36348 206.298438 
L 639.451585 206.298438 
L 641.53969 206.298438 
L 643.627795 206.298438 
L 645.715901 206.298438 
L 647.804006 206.298438 
L 649.892111 206.298438 
L 651.980216 206.298438 
L 654.068321 206.298438 
L 656.156427 206.298438 
L 658.244532 206.298438 
L 660.332637 206.298438 
L 662.420742 206.298438 
L 664.508847 206.298438 
L 666.596952 206.298438 
L 668.685058 206.298438 
L 670.773163 206.298438 
L 672.861268 206.298438 
L 674.949373 206.298438 
L 677.037478 206.298438 
L 679.125584 206.298438 
L 681.213689 206.298438 
L 683.301794 206.298438 
L 685.389899 206.298438 
L 687.478004 206.298438 
L 689.56611 206.298438 
L 691.654215 206.298438 
L 693.74232 206.298438 
L 695.830425 206.298438 
L 697.91853 206.298438 
L 700.006635 206.298438 
L 702.094741 206.298438 
L 704.182846 206.298438 
L 706.270951 206.298438 
L 708.359056 206.298438 
L 710.447161 206.298438 
L 712.535267 206.298438 
L 714.623372 206.298438 
L 716.711477 206.298438 
L 718.799582 206.298438 
L 720.887687 206.298438 
L 722.975793 206.298438 
L 725.063898 206.298438 
L 727.152003 206.298438 
L 729.240108 206.298438 
L 731.328213 206.298438 
L 733.416318 206.298438 
L 735.504424 206.298438 
L 737.592529 206.298438 
L 739.680634 206.298438 
L 741.768739 206.298438 
L 743.856844 206.298438 
L 745.94495 206.298438 
L 748.033055 206.298438 
L 750.12116 206.298438 
L 752.209265 206.298438 
L 754.29737 206.298438 
L 756.385476 206.298438 
L 758.473581 206.298438 
L 760.561686 206.298438 
L 762.649791 206.298438 
L 764.737896 206.298438 
L 766.826001 206.298438 
L 768.914107 206.298438 
L 771.002212 206.298438 
L 773.090317 206.298438 
L 775.178422 206.298438 
L 777.266527 206.298438 
L 779.354633 206.298438 
L 781.442738 206.298438 
L 783.530843 206.298438 
L 785.618948 206.298438 
L 787.707053 206.298438 
L 789.795159 206.298438 
L 791.883264 206.298438 
L 793.971369 206.298438 
L 796.059474 206.298438 
L 798.147579 206.298438 
L 800.235684 206.298438 
L 802.32379 206.298438 
L 804.411895 206.298438 
L 804.411895 111.17634 
L 804.411895 111.17634 
L 802.32379 112.341769 
L 800.235684 113.186472 
L 798.147579 113.306112 
L 796.059474 112.321278 
L 793.971369 112.763951 
L 791.883264 111.259795 
L 789.795159 111.780959 
L 787.707053 111.425071 
L 785.618948 110.920196 
L 783.530843 112.593234 
L 781.442738 113.50553 
L 779.354633 113.98443 
L 777.266527 113.702733 
L 775.178422 112.291612 
L 773.090317 114.594269 
L 771.002212 114.532437 
L 768.914107 114.060227 
L 766.826001 114.017895 
L 764.737896 113.111778 
L 762.649791 114.184246 
L 760.561686 114.163491 
L 758.473581 114.364853 
L 756.385476 115.702718 
L 754.29737 115.435321 
L 752.209265 115.776124 
L 750.12116 115.429165 
L 748.033055 115.150682 
L 745.94495 115.418791 
L 743.856844 114.94488 
L 741.768739 115.754972 
L 739.680634 115.390222 
L 737.592529 114.63606 
L 735.504424 114.812699 
L 733.416318 116.117741 
L 731.328213 117.019063 
L 729.240108 118.862299 
L 727.152003 118.119837 
L 725.063898 118.386614 
L 722.975793 117.644833 
L 720.887687 117.473927 
L 718.799582 118.170932 
L 716.711477 117.11013 
L 714.623372 117.115594 
L 712.535267 117.879956 
L 710.447161 117.95898 
L 708.359056 118.018806 
L 706.270951 118.132994 
L 704.182846 119.241967 
L 702.094741 118.265398 
L 700.006635 118.943402 
L 697.91853 119.804096 
L 695.830425 119.764368 
L 693.74232 120.459996 
L 691.654215 121.861486 
L 689.56611 121.962192 
L 687.478004 120.991314 
L 685.389899 123.973785 
L 683.301794 122.530258 
L 681.213689 122.487388 
L 679.125584 122.939107 
L 677.037478 125.814028 
L 674.949373 123.290832 
L 672.861268 124.107068 
L 670.773163 123.145579 
L 668.685058 122.852287 
L 666.596952 123.073596 
L 664.508847 123.231925 
L 662.420742 122.852046 
L 660.332637 122.449697 
L 658.244532 122.557791 
L 656.156427 122.406793 
L 654.068321 122.385314 
L 651.980216 121.682343 
L 649.892111 122.799123 
L 647.804006 124.861321 
L 645.715901 123.750652 
L 643.627795 123.547912 
L 641.53969 123.626617 
L 639.451585 123.928061 
L 637.36348 123.705968 
L 635.275375 123.800166 
L 633.187269 123.591736 
L 631.099164 123.317644 
L 629.011059 124.070094 
L 626.922954 126.309011 
L 624.834849 126.011951 
L 622.746744 126.433833 
L 620.658638 127.637436 
L 618.570533 127.382709 
L 616.482428 126.56458 
L 614.394323 127.138417 
L 612.306218 126.871496 
L 610.218112 126.558085 
L 608.130007 127.557992 
L 606.041902 127.947711 
L 603.953797 128.792549 
L 601.865692 127.667394 
L 599.777586 126.781724 
L 597.689481 126.086936 
L 595.601376 126.42742 
L 593.513271 127.031294 
L 591.425166 125.913447 
L 589.337061 125.562765 
L 587.248955 127.71329 
L 585.16085 128.873316 
L 583.072745 129.36189 
L 580.98464 129.727028 
L 578.896535 127.849535 
L 576.808429 127.571495 
L 574.720324 126.061349 
L 572.632219 124.259527 
L 570.544114 122.85817 
L 568.456009 122.099398 
L 566.367903 121.038002 
L 564.279798 119.768089 
L 562.191693 119.426774 
L 560.103588 115.52787 
L 558.015483 112.783198 
L 555.927378 109.93991 
L 553.839272 106.455684 
L 551.751167 103.927315 
L 549.663062 102.142828 
L 547.574957 100.669621 
L 545.486852 99.098351 
L 543.398746 98.045934 
L 541.310641 96.998617 
L 539.222536 95.796955 
L 537.134431 95.148901 
L 535.046326 94.070852 
L 532.95822 93.14416 
L 530.870115 94.539953 
L 528.78201 93.099188 
L 526.693905 94.852244 
L 524.6058 94.063588 
L 522.517695 94.51144 
L 520.429589 93.214027 
L 518.341484 92.073456 
L 516.253379 91.529982 
L 514.165274 90.926042 
L 512.077169 89.965403 
L 509.989063 90.229796 
L 507.900958 89.5438 
L 505.812853 88.732642 
L 503.724748 89.748632 
L 501.636643 90.091346 
L 499.548537 89.779488 
L 497.460432 91.64155 
L 495.372327 93.112248 
L 493.284222 91.065736 
L 491.196117 90.822496 
L 489.108012 90.790394 
L 487.019906 89.940933 
L 484.931801 90.957522 
L 482.843696 91.098496 
L 480.755591 92.904418 
L 478.667486 93.491541 
L 476.57938 93.030135 
L 474.491275 93.006382 
L 472.40317 91.542839 
L 470.315065 92.0429 
L 468.22696 92.247048 
L 466.138854 92.329976 
L 464.050749 93.157299 
L 461.962644 94.752296 
L 459.874539 95.597165 
L 457.786434 96.179284 
L 455.698329 95.876006 
L 453.610223 94.256504 
L 451.522118 95.634656 
L 449.434013 95.995673 
L 447.345908 94.938893 
L 445.257803 94.545259 
L 443.169697 95.693227 
L 441.081592 97.29252 
L 438.993487 96.983948 
L 436.905382 96.955789 
L 434.817277 96.08806 
L 432.729171 94.34782 
L 430.641066 95.522997 
L 428.552961 96.551531 
L 426.464856 97.589091 
L 424.376751 97.409427 
L 422.288646 98.972981 
L 420.20054 98.984709 
L 418.112435 98.364001 
L 416.02433 97.816521 
L 413.936225 97.053649 
L 411.84812 97.367039 
L 409.760014 95.833233 
L 407.671909 97.078321 
L 405.583804 96.351236 
L 403.495699 95.575405 
L 401.407594 92.761969 
L 399.319488 90.962736 
L 397.231383 92.792479 
L 395.143278 92.494825 
L 393.055173 92.262033 
L 390.967068 90.290526 
L 388.878963 92.334714 
L 386.790857 92.322084 
L 384.702752 91.584056 
L 382.614647 92.76412 
L 380.526542 90.972215 
L 378.438437 90.875012 
L 376.350331 89.266448 
L 374.262226 86.423687 
L 372.174121 88.743473 
L 370.086016 85.770401 
L 367.997911 86.096116 
L 365.909805 84.912171 
L 363.8217 83.388974 
L 361.733595 82.66527 
L 359.64549 82.008829 
L 357.557385 80.559414 
L 355.46928 81.005117 
L 353.381174 81.455063 
L 351.293069 81.625705 
L 349.204964 81.418929 
L 347.116859 80.074833 
L 345.028754 81.520465 
L 342.940648 79.678616 
L 340.852543 80.237172 
L 338.764438 78.84021 
L 336.676333 78.504846 
L 334.588228 78.257628 
L 332.500122 78.375537 
L 330.412017 80.853765 
L 328.323912 81.488307 
L 326.235807 82.165048 
L 324.147702 81.910678 
L 322.059597 82.194161 
L 319.971491 81.80727 
L 317.883386 81.802238 
L 315.795281 81.482794 
L 313.707176 82.046916 
L 311.619071 81.037615 
L 309.530965 81.255118 
L 307.44286 80.261089 
L 305.354755 81.175168 
L 303.26665 80.700603 
L 301.178545 81.660567 
L 299.090439 81.984454 
L 297.002334 83.152574 
L 294.914229 82.174387 
L 292.826124 81.970219 
L 290.738019 81.35302 
L 288.649914 80.923759 
L 286.561808 83.102516 
L 284.473703 82.2888 
L 282.385598 82.204529 
L 280.297493 82.917833 
L 278.209388 81.455529 
L 276.121282 83.188487 
L 274.033177 83.39909 
L 271.945072 82.727312 
L 269.856967 83.081112 
L 267.768862 83.606712 
L 265.680756 82.152365 
L 263.592651 83.761935 
L 261.504546 84.087488 
L 259.416441 84.971715 
L 257.328336 85.429285 
L 255.240231 84.884346 
L 253.152125 85.668331 
L 251.06402 83.719207 
L 248.975915 84.844665 
L 246.88781 84.733378 
L 244.799705 84.897229 
L 242.711599 85.221246 
L 240.623494 86.161474 
L 238.535389 87.069224 
L 236.447284 87.031202 
L 234.359179 87.078503 
L 232.271073 88.32148 
L 230.182968 88.890019 
L 228.094863 89.155368 
L 226.006758 86.940821 
L 223.918653 86.607465 
L 221.830548 87.818237 
L 219.742442 87.087177 
L 217.654337 86.479613 
L 215.566232 87.893693 
L 213.478127 84.914391 
L 211.390022 83.517892 
L 209.301916 83.448021 
L 207.213811 84.115943 
L 205.125706 83.791568 
L 203.037601 85.067975 
L 200.949496 86.17667 
L 198.86139 87.497371 
L 196.773285 88.311587 
L 194.68518 90.376914 
L 192.597075 89.831701 
L 190.50897 89.367859 
L 188.420865 90.500087 
L 186.332759 90.782217 
L 184.244654 90.683936 
L 182.156549 89.879006 
L 180.068444 90.571572 
L 177.980339 90.280295 
L 175.892233 90.842759 
L 173.804128 91.286837 
L 171.716023 89.176884 
L 169.627918 89.99447 
L 167.539813 90.411963 
L 165.451707 90.510981 
L 163.363602 92.143022 
L 161.275497 91.656973 
L 159.187392 91.764134 
L 157.099287 92.096159 
L 155.011182 92.317799 
L 152.923076 92.610581 
L 150.834971 92.713029 
L 148.746866 91.642003 
L 146.658761 91.205367 
L 144.570656 91.159969 
L 142.48255 91.707759 
L 140.394445 91.419909 
L 138.30634 91.247395 
L 136.218235 91.999785 
L 134.13013 93.380051 
L 132.042024 92.13868 
L 129.953919 92.717103 
L 127.865814 91.080426 
L 125.777709 90.636756 
L 123.689604 89.48379 
L 121.601499 89.948921 
L 119.513393 89.247649 
L 117.425288 88.839291 
L 115.337183 88.976524 
L 113.249078 87.170999 
L 111.160973 87.311874 
L 109.072867 87.057411 
L 106.984762 85.112002 
L 104.896657 83.544388 
L 102.808552 82.97874 
L 100.720447 81.918046 
L 98.632341 81.77441 
L 96.544236 79.982963 
L 94.456131 79.201855 
L 92.368026 78.125584 
L 90.279921 77.395333 
L 88.191816 78.048389 
L 86.10371 76.001409 
L 84.015605 76.015255 
L 81.9275 76.057021 
z
" style="fill:#696969;fill-opacity:0.5;"/>
   </g>
   <g id="PolyCollection_2">
    <path clip-path="url(#p75c68bd6fa)" d="M 81.9275 52.177613 
L 81.9275 76.057021 
L 84.015605 76.015255 
L 86.10371 76.001409 
L 88.191816 78.048389 
L 90.279921 77.395333 
L 92.368026 78.125584 
L 94.456131 79.201855 
L 96.544236 79.982963 
L 98.632341 81.77441 
L 100.720447 81.918046 
L 102.808552 82.97874 
L 104.896657 83.544388 
L 106.984762 85.112002 
L 109.072867 87.057411 
L 111.160973 87.311874 
L 113.249078 87.170999 
L 115.337183 88.976524 
L 117.425288 88.839291 
L 119.513393 89.247649 
L 121.601499 89.948921 
L 123.689604 89.48379 
L 125.777709 90.636756 
L 127.865814 91.080426 
L 129.953919 92.717103 
L 132.042024 92.13868 
L 134.13013 93.380051 
L 136.218235 91.999785 
L 138.30634 91.247395 
L 140.394445 91.419909 
L 142.48255 91.707759 
L 144.570656 91.159969 
L 146.658761 91.205367 
L 148.746866 91.642003 
L 150.834971 92.713029 
L 152.923076 92.610581 
L 155.011182 92.317799 
L 157.099287 92.096159 
L 159.187392 91.764134 
L 161.275497 91.656973 
L 163.363602 92.143022 
L 165.451707 90.510981 
L 167.539813 90.411963 
L 169.627918 89.99447 
L 171.716023 89.176884 
L 173.804128 91.286837 
L 175.892233 90.842759 
L 177.980339 90.280295 
L 180.068444 90.571572 
L 182.156549 89.879006 
L 184.244654 90.683936 
L 186.332759 90.782217 
L 188.420865 90.500087 
L 190.50897 89.367859 
L 192.597075 89.831701 
L 194.68518 90.376914 
L 196.773285 88.311587 
L 198.86139 87.497371 
L 200.949496 86.17667 
L 203.037601 85.067975 
L 205.125706 83.791568 
L 207.213811 84.115943 
L 209.301916 83.448021 
L 211.390022 83.517892 
L 213.478127 84.914391 
L 215.566232 87.893693 
L 217.654337 86.479613 
L 219.742442 87.087177 
L 221.830548 87.818237 
L 223.918653 86.607465 
L 226.006758 86.940821 
L 228.094863 89.155368 
L 230.182968 88.890019 
L 232.271073 88.32148 
L 234.359179 87.078503 
L 236.447284 87.031202 
L 238.535389 87.069224 
L 240.623494 86.161474 
L 242.711599 85.221246 
L 244.799705 84.897229 
L 246.88781 84.733378 
L 248.975915 84.844665 
L 251.06402 83.719207 
L 253.152125 85.668331 
L 255.240231 84.884346 
L 257.328336 85.429285 
L 259.416441 84.971715 
L 261.504546 84.087488 
L 263.592651 83.761935 
L 265.680756 82.152365 
L 267.768862 83.606712 
L 269.856967 83.081112 
L 271.945072 82.727312 
L 274.033177 83.39909 
L 276.121282 83.188487 
L 278.209388 81.455529 
L 280.297493 82.917833 
L 282.385598 82.204529 
L 284.473703 82.2888 
L 286.561808 83.102516 
L 288.649914 80.923759 
L 290.738019 81.35302 
L 292.826124 81.970219 
L 294.914229 82.174387 
L 297.002334 83.152574 
L 299.090439 81.984454 
L 301.178545 81.660567 
L 303.26665 80.700603 
L 305.354755 81.175168 
L 307.44286 80.261089 
L 309.530965 81.255118 
L 311.619071 81.037615 
L 313.707176 82.046916 
L 315.795281 81.482794 
L 317.883386 81.802238 
L 319.971491 81.80727 
L 322.059597 82.194161 
L 324.147702 81.910678 
L 326.235807 82.165048 
L 328.323912 81.488307 
L 330.412017 80.853765 
L 332.500122 78.375537 
L 334.588228 78.257628 
L 336.676333 78.504846 
L 338.764438 78.84021 
L 340.852543 80.237172 
L 342.940648 79.678616 
L 345.028754 81.520465 
L 347.116859 80.074833 
L 349.204964 81.418929 
L 351.293069 81.625705 
L 353.381174 81.455063 
L 355.46928 81.005117 
L 357.557385 80.559414 
L 359.64549 82.008829 
L 361.733595 82.66527 
L 363.8217 83.388974 
L 365.909805 84.912171 
L 367.997911 86.096116 
L 370.086016 85.770401 
L 372.174121 88.743473 
L 374.262226 86.423687 
L 376.350331 89.266448 
L 378.438437 90.875012 
L 380.526542 90.972215 
L 382.614647 92.76412 
L 384.702752 91.584056 
L 386.790857 92.322084 
L 388.878963 92.334714 
L 390.967068 90.290526 
L 393.055173 92.262033 
L 395.143278 92.494825 
L 397.231383 92.792479 
L 399.319488 90.962736 
L 401.407594 92.761969 
L 403.495699 95.575405 
L 405.583804 96.351236 
L 407.671909 97.078321 
L 409.760014 95.833233 
L 411.84812 97.367039 
L 413.936225 97.053649 
L 416.02433 97.816521 
L 418.112435 98.364001 
L 420.20054 98.984709 
L 422.288646 98.972981 
L 424.376751 97.409427 
L 426.464856 97.589091 
L 428.552961 96.551531 
L 430.641066 95.522997 
L 432.729171 94.34782 
L 434.817277 96.08806 
L 436.905382 96.955789 
L 438.993487 96.983948 
L 441.081592 97.29252 
L 443.169697 95.693227 
L 445.257803 94.545259 
L 447.345908 94.938893 
L 449.434013 95.995673 
L 451.522118 95.634656 
L 453.610223 94.256504 
L 455.698329 95.876006 
L 457.786434 96.179284 
L 459.874539 95.597165 
L 461.962644 94.752296 
L 464.050749 93.157299 
L 466.138854 92.329976 
L 468.22696 92.247048 
L 470.315065 92.0429 
L 472.40317 91.542839 
L 474.491275 93.006382 
L 476.57938 93.030135 
L 478.667486 93.491541 
L 480.755591 92.904418 
L 482.843696 91.098496 
L 484.931801 90.957522 
L 487.019906 89.940933 
L 489.108012 90.790394 
L 491.196117 90.822496 
L 493.284222 91.065736 
L 495.372327 93.112248 
L 497.460432 91.64155 
L 499.548537 89.779488 
L 501.636643 90.091346 
L 503.724748 89.748632 
L 505.812853 88.732642 
L 507.900958 89.5438 
L 509.989063 90.229796 
L 512.077169 89.965403 
L 514.165274 90.926042 
L 516.253379 91.529982 
L 518.341484 92.073456 
L 520.429589 93.214027 
L 522.517695 94.51144 
L 524.6058 94.063588 
L 526.693905 94.852244 
L 528.78201 93.099188 
L 530.870115 94.539953 
L 532.95822 93.14416 
L 535.046326 94.070852 
L 537.134431 95.148901 
L 539.222536 95.796955 
L 541.310641 96.998617 
L 543.398746 98.045934 
L 545.486852 99.098351 
L 547.574957 100.669621 
L 549.663062 102.142828 
L 551.751167 103.927315 
L 553.839272 106.455684 
L 555.927378 109.93991 
L 558.015483 112.783198 
L 560.103588 115.52787 
L 562.191693 119.426774 
L 564.279798 119.768089 
L 566.367903 121.038002 
L 568.456009 122.099398 
L 570.544114 122.85817 
L 572.632219 124.259527 
L 574.720324 126.061349 
L 576.808429 127.571495 
L 578.896535 127.849535 
L 580.98464 129.727028 
L 583.072745 129.36189 
L 585.16085 128.873316 
L 587.248955 127.71329 
L 589.337061 125.562765 
L 591.425166 125.913447 
L 593.513271 127.031294 
L 595.601376 126.42742 
L 597.689481 126.086936 
L 599.777586 126.781724 
L 601.865692 127.667394 
L 603.953797 128.792549 
L 606.041902 127.947711 
L 608.130007 127.557992 
L 610.218112 126.558085 
L 612.306218 126.871496 
L 614.394323 127.138417 
L 616.482428 126.56458 
L 618.570533 127.382709 
L 620.658638 127.637436 
L 622.746744 126.433833 
L 624.834849 126.011951 
L 626.922954 126.309011 
L 629.011059 124.070094 
L 631.099164 123.317644 
L 633.187269 123.591736 
L 635.275375 123.800166 
L 637.36348 123.705968 
L 639.451585 123.928061 
L 641.53969 123.626617 
L 643.627795 123.547912 
L 645.715901 123.750652 
L 647.804006 124.861321 
L 649.892111 122.799123 
L 651.980216 121.682343 
L 654.068321 122.385314 
L 656.156427 122.406793 
L 658.244532 122.557791 
L 660.332637 122.449697 
L 662.420742 122.852046 
L 664.508847 123.231925 
L 666.596952 123.073596 
L 668.685058 122.852287 
L 670.773163 123.145579 
L 672.861268 124.107068 
L 674.949373 123.290832 
L 677.037478 125.814028 
L 679.125584 122.939107 
L 681.213689 122.487388 
L 683.301794 122.530258 
L 685.389899 123.973785 
L 687.478004 120.991314 
L 689.56611 121.962192 
L 691.654215 121.861486 
L 693.74232 120.459996 
L 695.830425 119.764368 
L 697.91853 119.804096 
L 700.006635 118.943402 
L 702.094741 118.265398 
L 704.182846 119.241967 
L 706.270951 118.132994 
L 708.359056 118.018806 
L 710.447161 117.95898 
L 712.535267 117.879956 
L 714.623372 117.115594 
L 716.711477 117.11013 
L 718.799582 118.170932 
L 720.887687 117.473927 
L 722.975793 117.644833 
L 725.063898 118.386614 
L 727.152003 118.119837 
L 729.240108 118.862299 
L 731.328213 117.019063 
L 733.416318 116.117741 
L 735.504424 114.812699 
L 737.592529 114.63606 
L 739.680634 115.390222 
L 741.768739 115.754972 
L 743.856844 114.94488 
L 745.94495 115.418791 
L 748.033055 115.150682 
L 750.12116 115.429165 
L 752.209265 115.776124 
L 754.29737 115.435321 
L 756.385476 115.702718 
L 758.473581 114.364853 
L 760.561686 114.163491 
L 762.649791 114.184246 
L 764.737896 113.111778 
L 766.826001 114.017895 
L 768.914107 114.060227 
L 771.002212 114.532437 
L 773.090317 114.594269 
L 775.178422 112.291612 
L 777.266527 113.702733 
L 779.354633 113.98443 
L 781.442738 113.50553 
L 783.530843 112.593234 
L 785.618948 110.920196 
L 787.707053 111.425071 
L 789.795159 111.780959 
L 791.883264 111.259795 
L 793.971369 112.763951 
L 796.059474 112.321278 
L 798.147579 113.306112 
L 800.235684 113.186472 
L 802.32379 112.341769 
L 804.411895 111.17634 
L 804.411895 96.869564 
L 804.411895 96.869564 
L 802.32379 97.392598 
L 800.235684 98.371422 
L 798.147579 98.025206 
L 796.059474 97.225399 
L 793.971369 96.416232 
L 791.883264 95.644931 
L 789.795159 95.376372 
L 787.707053 95.018277 
L 785.618948 94.303228 
L 783.530843 95.613314 
L 781.442738 97.054439 
L 779.354633 97.420327 
L 777.266527 97.010001 
L 775.178422 95.412429 
L 773.090317 96.678446 
L 771.002212 97.209455 
L 768.914107 96.742319 
L 766.826001 97.253234 
L 764.737896 95.69301 
L 762.649791 95.87205 
L 760.561686 95.289878 
L 758.473581 95.234518 
L 756.385476 96.486011 
L 754.29737 96.535868 
L 752.209265 95.705916 
L 750.12116 95.213563 
L 748.033055 95.220922 
L 745.94495 95.310073 
L 743.856844 95.123792 
L 741.768739 96.938481 
L 739.680634 95.33146 
L 737.592529 94.693038 
L 735.504424 95.038383 
L 733.416318 96.527218 
L 731.328213 96.662835 
L 729.240108 98.490165 
L 727.152003 98.015296 
L 725.063898 98.235356 
L 722.975793 97.265294 
L 720.887687 96.747574 
L 718.799582 96.878412 
L 716.711477 94.721894 
L 714.623372 95.095964 
L 712.535267 95.623762 
L 710.447161 95.432789 
L 708.359056 94.567773 
L 706.270951 95.307051 
L 704.182846 96.033941 
L 702.094741 96.022593 
L 700.006635 95.465566 
L 697.91853 94.794726 
L 695.830425 94.882244 
L 693.74232 95.377428 
L 691.654215 96.560527 
L 689.56611 96.419641 
L 687.478004 94.270229 
L 685.389899 96.454935 
L 683.301794 95.339202 
L 681.213689 95.444072 
L 679.125584 94.141235 
L 677.037478 95.790816 
L 674.949373 92.294275 
L 672.861268 93.121417 
L 670.773163 92.293142 
L 668.685058 91.646326 
L 666.596952 91.418507 
L 664.508847 91.638585 
L 662.420742 92.491945 
L 660.332637 91.174471 
L 658.244532 89.316447 
L 656.156427 90.585655 
L 654.068321 90.588253 
L 651.980216 89.510599 
L 649.892111 90.430641 
L 647.804006 91.442668 
L 645.715901 90.049962 
L 643.627795 89.537481 
L 641.53969 89.704927 
L 639.451585 90.254249 
L 637.36348 89.832364 
L 635.275375 89.767349 
L 633.187269 89.690896 
L 631.099164 87.894349 
L 629.011059 87.892782 
L 626.922954 88.794513 
L 624.834849 88.166952 
L 622.746744 88.247509 
L 620.658638 89.312614 
L 618.570533 88.430588 
L 616.482428 88.101976 
L 614.394323 88.114613 
L 612.306218 88.447601 
L 610.218112 87.913727 
L 608.130007 88.021062 
L 606.041902 87.022947 
L 603.953797 85.871348 
L 601.865692 86.620811 
L 599.777586 84.847512 
L 597.689481 83.725666 
L 595.601376 84.275495 
L 593.513271 84.410619 
L 591.425166 83.154726 
L 589.337061 80.583934 
L 587.248955 82.684143 
L 585.16085 83.966545 
L 583.072745 84.179328 
L 580.98464 85.023112 
L 578.896535 82.358574 
L 576.808429 81.597538 
L 574.720324 81.168077 
L 572.632219 79.700847 
L 570.544114 79.260025 
L 568.456009 78.128817 
L 566.367903 76.951033 
L 564.279798 77.511613 
L 562.191693 79.134941 
L 560.103588 76.963056 
L 558.015483 76.962588 
L 555.927378 76.481173 
L 553.839272 75.612347 
L 551.751167 74.27667 
L 549.663062 74.043074 
L 547.574957 74.338104 
L 545.486852 72.950994 
L 543.398746 73.680451 
L 541.310641 73.347873 
L 539.222536 74.12639 
L 537.134431 73.268326 
L 535.046326 72.949152 
L 532.95822 71.178375 
L 530.870115 73.210789 
L 528.78201 72.959993 
L 526.693905 74.507876 
L 524.6058 73.930697 
L 522.517695 74.975649 
L 520.429589 73.341948 
L 518.341484 72.260781 
L 516.253379 72.307958 
L 514.165274 71.523815 
L 512.077169 70.826759 
L 509.989063 70.163831 
L 507.900958 69.372344 
L 505.812853 69.719292 
L 503.724748 70.644231 
L 501.636643 71.308672 
L 499.548537 71.327471 
L 497.460432 71.668875 
L 495.372327 73.110178 
L 493.284222 71.54131 
L 491.196117 70.774227 
L 489.108012 70.66227 
L 487.019906 70.157332 
L 484.931801 70.808281 
L 482.843696 71.657326 
L 480.755591 72.705141 
L 478.667486 72.409183 
L 476.57938 72.585524 
L 474.491275 71.782714 
L 472.40317 70.639363 
L 470.315065 71.460644 
L 468.22696 71.212547 
L 466.138854 71.043235 
L 464.050749 71.406824 
L 461.962644 72.370423 
L 459.874539 72.455891 
L 457.786434 73.631064 
L 455.698329 72.467408 
L 453.610223 70.844121 
L 451.522118 71.854561 
L 449.434013 72.538694 
L 447.345908 71.264471 
L 445.257803 71.076557 
L 443.169697 71.801602 
L 441.081592 72.928983 
L 438.993487 72.970935 
L 436.905382 72.477134 
L 434.817277 72.39818 
L 432.729171 69.972344 
L 430.641066 71.126842 
L 428.552961 70.323456 
L 426.464856 71.303621 
L 424.376751 70.432189 
L 422.288646 72.1869 
L 420.20054 71.143283 
L 418.112435 69.983591 
L 416.02433 70.487835 
L 413.936225 70.005196 
L 411.84812 71.772905 
L 409.760014 69.733519 
L 407.671909 70.810778 
L 405.583804 69.995906 
L 403.495699 69.501633 
L 401.407594 67.863501 
L 399.319488 65.865143 
L 397.231383 67.444805 
L 395.143278 67.205745 
L 393.055173 66.790686 
L 390.967068 65.20669 
L 388.878963 66.784689 
L 386.790857 67.218964 
L 384.702752 66.80369 
L 382.614647 67.891954 
L 380.526542 66.308575 
L 378.438437 66.402947 
L 376.350331 65.929522 
L 374.262226 65.262118 
L 372.174121 67.310584 
L 370.086016 65.856709 
L 367.997911 66.29927 
L 365.909805 65.86494 
L 363.8217 64.215064 
L 361.733595 64.101244 
L 359.64549 63.469444 
L 357.557385 62.236808 
L 355.46928 63.698276 
L 353.381174 64.595729 
L 351.293069 64.957264 
L 349.204964 64.791625 
L 347.116859 63.110326 
L 345.028754 64.85741 
L 342.940648 63.219793 
L 340.852543 63.566416 
L 338.764438 62.693555 
L 336.676333 62.120834 
L 334.588228 60.413011 
L 332.500122 61.436703 
L 330.412017 63.630346 
L 328.323912 64.422714 
L 326.235807 64.439111 
L 324.147702 64.285956 
L 322.059597 64.480232 
L 319.971491 63.699674 
L 317.883386 63.880337 
L 315.795281 63.472522 
L 313.707176 64.487935 
L 311.619071 64.150927 
L 309.530965 62.606754 
L 307.44286 62.056534 
L 305.354755 62.532625 
L 303.26665 62.325249 
L 301.178545 62.749874 
L 299.090439 62.28331 
L 297.002334 64.332147 
L 294.914229 62.318507 
L 292.826124 62.872003 
L 290.738019 62.650524 
L 288.649914 63.11173 
L 286.561808 63.304479 
L 284.473703 63.085493 
L 282.385598 62.672668 
L 280.297493 62.837054 
L 278.209388 61.715825 
L 276.121282 62.795573 
L 274.033177 62.902134 
L 271.945072 62.095795 
L 269.856967 62.439224 
L 267.768862 62.002627 
L 265.680756 62.141288 
L 263.592651 61.864789 
L 261.504546 61.987302 
L 259.416441 62.945155 
L 257.328336 62.625574 
L 255.240231 63.113461 
L 253.152125 62.839972 
L 251.06402 61.68551 
L 248.975915 62.397606 
L 246.88781 63.235495 
L 244.799705 61.141694 
L 242.711599 62.15093 
L 240.623494 62.012858 
L 238.535389 62.716994 
L 236.447284 62.64383 
L 234.359179 62.99622 
L 232.271073 64.407517 
L 230.182968 64.523201 
L 228.094863 64.665381 
L 226.006758 63.774312 
L 223.918653 62.30614 
L 221.830548 63.258994 
L 219.742442 62.963359 
L 217.654337 62.347371 
L 215.566232 63.023844 
L 213.478127 60.456684 
L 211.390022 60.329285 
L 209.301916 59.946625 
L 207.213811 59.73967 
L 205.125706 59.891198 
L 203.037601 60.982453 
L 200.949496 60.873137 
L 198.86139 62.272028 
L 196.773285 61.959411 
L 194.68518 63.321128 
L 192.597075 63.644565 
L 190.50897 63.135121 
L 188.420865 62.861832 
L 186.332759 62.686161 
L 184.244654 61.496657 
L 182.156549 60.40511 
L 180.068444 61.937804 
L 177.980339 61.367227 
L 175.892233 60.743156 
L 173.804128 60.995817 
L 171.716023 58.365162 
L 169.627918 58.430969 
L 167.539813 58.234665 
L 165.451707 58.718064 
L 163.363602 59.988834 
L 161.275497 58.942984 
L 159.187392 59.619376 
L 157.099287 59.707196 
L 155.011182 59.206106 
L 152.923076 58.53034 
L 150.834971 58.872059 
L 148.746866 56.830021 
L 146.658761 56.332082 
L 144.570656 56.224285 
L 142.48255 55.36559 
L 140.394445 56.071225 
L 138.30634 57.434457 
L 136.218235 57.706115 
L 134.13013 58.996402 
L 132.042024 58.065263 
L 129.953919 59.844331 
L 127.865814 59.029659 
L 125.777709 59.003115 
L 123.689604 57.6052 
L 121.601499 58.653652 
L 119.513393 57.613154 
L 117.425288 57.344126 
L 115.337183 57.599181 
L 113.249078 56.237932 
L 111.160973 55.766245 
L 109.072867 56.868446 
L 106.984762 56.573671 
L 104.896657 54.785412 
L 102.808552 54.895377 
L 100.720447 55.182906 
L 98.632341 55.864655 
L 96.544236 54.586706 
L 94.456131 54.760695 
L 92.368026 54.841732 
L 90.279921 53.87422 
L 88.191816 54.048044 
L 86.10371 53.066522 
L 84.015605 52.956511 
L 81.9275 52.177613 
z
" style="fill:#d3d3d3;fill-opacity:0.5;"/>
   </g>
   <g id="PolyCollection_3">
    <path clip-path="url(#p75c68bd6fa)" d="M 96.544236 33.378984 
L 96.544236 206.298438 
L 98.632341 206.298438 
L 100.720447 206.298438 
L 102.808552 206.298438 
L 104.896657 206.298438 
L 106.984762 206.298438 
L 109.072867 206.298438 
L 111.160973 206.298438 
L 111.160973 33.378984 
L 111.160973 33.378984 
L 109.072867 33.378984 
L 106.984762 33.378984 
L 104.896657 33.378984 
L 102.808552 33.378984 
L 100.720447 33.378984 
L 98.632341 33.378984 
L 96.544236 33.378984 
z
" style="fill:#bbbbbb;fill-opacity:0.3;stroke:#bbbbbb;stroke-opacity:0.3;"/>
    <path clip-path="url(#p75c68bd6fa)" d="M 363.8217 33.378984 
L 363.8217 206.298438 
L 365.909805 206.298438 
L 367.997911 206.298438 
L 370.086016 206.298438 
L 372.174121 206.298438 
L 374.262226 206.298438 
L 376.350331 206.298438 
L 378.438437 206.298438 
L 378.438437 33.378984 
L 378.438437 33.378984 
L 376.350331 33.378984 
L 374.262226 33.378984 
L 372.174121 33.378984 
L 370.086016 33.378984 
L 367.997911 33.378984 
L 365.909805 33.378984 
L 363.8217 33.378984 
z
" style="fill:#bbbbbb;fill-opacity:0.3;stroke:#bbbbbb;stroke-opacity:0.3;"/>
    <path clip-path="url(#p75c68bd6fa)" d="M 532.95822 33.378984 
L 532.95822 206.298438 
L 535.046326 206.298438 
L 537.134431 206.298438 
L 539.222536 206.298438 
L 541.310641 206.298438 
L 543.398746 206.298438 
L 545.486852 206.298438 
L 547.574957 206.298438 
L 549.663062 206.298438 
L 551.751167 206.298438 
L 553.839272 206.298438 
L 555.927378 206.298438 
L 558.015483 206.298438 
L 560.103588 206.298438 
L 562.191693 206.298438 
L 564.279798 206.298438 
L 566.367903 206.298438 
L 568.456009 206.298438 
L 568.456009 33.378984 
L 568.456009 33.378984 
L 566.367903 33.378984 
L 564.279798 33.378984 
L 562.191693 33.378984 
L 560.103588 33.378984 
L 558.015483 33.378984 
L 555.927378 33.378984 
L 553.839272 33.378984 
L 551.751167 33.378984 
L 549.663062 33.378984 
L 547.574957 33.378984 
L 545.486852 33.378984 
L 543.398746 33.378984 
L 541.310641 33.378984 
L 539.222536 33.378984 
L 537.134431 33.378984 
L 535.046326 33.378984 
L 532.95822 33.378984 
z
" style="fill:#bbbbbb;fill-opacity:0.3;stroke:#bbbbbb;stroke-opacity:0.3;"/>
   </g>
   <g id="matplotlib.axis_1">
    <g id="xtick_1">
     <g id="line2d_1">
      <defs>
       <path d="M 0 0 
L 0 3.5 
" id="me06bb30ca2" style="stroke:#000000;stroke-width:0.8;"/>
      </defs>
      <g>
       <use style="stroke:#000000;stroke-width:0.8;" x="182.156549" xlink:href="#me06bb30ca2" y="206.298438"/>
      </g>
     </g>
     <g id="text_1">
      <!-- 1994 -->
      <defs>
       <path d="M 12.40625 8.296875 
L 28.515625 8.296875 
L 28.515625 63.921875 
L 10.984375 60.40625 
L 10.984375 69.390625 
L 28.421875 72.90625 
L 38.28125 72.90625 
L 38.28125 8.296875 
L 54.390625 8.296875 
L 54.390625 0 
L 12.40625 0 
z
" id="DejaVuSans-31"/>
       <path d="M 10.984375 1.515625 
L 10.984375 10.5 
Q 14.703125 8.734375 18.5 7.8125 
Q 22.3125 6.890625 25.984375 6.890625 
Q 35.75 6.890625 40.890625 13.453125 
Q 46.046875 20.015625 46.78125 33.40625 
Q 43.953125 29.203125 39.59375 26.953125 
Q 35.25 24.703125 29.984375 24.703125 
Q 19.046875 24.703125 12.671875 31.3125 
Q 6.296875 37.9375 6.296875 49.421875 
Q 6.296875 60.640625 12.9375 67.421875 
Q 19.578125 74.21875 30.609375 74.21875 
Q 43.265625 74.21875 49.921875 64.515625 
Q 56.59375 54.828125 56.59375 36.375 
Q 56.59375 19.140625 48.40625 8.859375 
Q 40.234375 -1.421875 26.421875 -1.421875 
Q 22.703125 -1.421875 18.890625 -0.6875 
Q 15.09375 0.046875 10.984375 1.515625 
z
M 30.609375 32.421875 
Q 37.25 32.421875 41.125 36.953125 
Q 45.015625 41.5 45.015625 49.421875 
Q 45.015625 57.28125 41.125 61.84375 
Q 37.25 66.40625 30.609375 66.40625 
Q 23.96875 66.40625 20.09375 61.84375 
Q 16.21875 57.28125 16.21875 49.421875 
Q 16.21875 41.5 20.09375 36.953125 
Q 23.96875 32.421875 30.609375 32.421875 
z
" id="DejaVuSans-39"/>
       <path d="M 37.796875 64.3125 
L 12.890625 25.390625 
L 37.796875 25.390625 
z
M 35.203125 72.90625 
L 47.609375 72.90625 
L 47.609375 25.390625 
L 58.015625 25.390625 
L 58.015625 17.1875 
L 47.609375 17.1875 
L 47.609375 0 
L 37.796875 0 
L 37.796875 17.1875 
L 4.890625 17.1875 
L 4.890625 26.703125 
z
" id="DejaVuSans-34"/>
      </defs>
      <g transform="translate(165.614049 229.676406)scale(0.13 -0.13)">
       <use xlink:href="#DejaVuSans-31"/>
       <use x="63.623047" xlink:href="#DejaVuSans-39"/>
       <use x="127.246094" xlink:href="#DejaVuSans-39"/>
       <use x="190.869141" xlink:href="#DejaVuSans-34"/>
      </g>
     </g>
    </g>
    <g id="xtick_2">
     <g id="line2d_2">
      <g>
       <use style="stroke:#000000;stroke-width:0.8;" x="307.44286" xlink:href="#me06bb30ca2" y="206.298438"/>
      </g>
     </g>
     <g id="text_2">
      <!-- 1999 -->
      <g transform="translate(290.90036 229.676406)scale(0.13 -0.13)">
       <use xlink:href="#DejaVuSans-31"/>
       <use x="63.623047" xlink:href="#DejaVuSans-39"/>
       <use x="127.246094" xlink:href="#DejaVuSans-39"/>
       <use x="190.869141" xlink:href="#DejaVuSans-39"/>
      </g>
     </g>
    </g>
    <g id="xtick_3">
     <g id="line2d_3">
      <g>
       <use style="stroke:#000000;stroke-width:0.8;" x="432.729171" xlink:href="#me06bb30ca2" y="206.298438"/>
      </g>
     </g>
     <g id="text_3">
      <!-- 2004 -->
      <defs>
       <path d="M 19.1875 8.296875 
L 53.609375 8.296875 
L 53.609375 0 
L 7.328125 0 
L 7.328125 8.296875 
Q 12.9375 14.109375 22.625 23.890625 
Q 32.328125 33.6875 34.8125 36.53125 
Q 39.546875 41.84375 41.421875 45.53125 
Q 43.3125 49.21875 43.3125 52.78125 
Q 43.3125 58.59375 39.234375 62.25 
Q 35.15625 65.921875 28.609375 65.921875 
Q 23.96875 65.921875 18.8125 64.3125 
Q 13.671875 62.703125 7.8125 59.421875 
L 7.8125 69.390625 
Q 13.765625 71.78125 18.9375 73 
Q 24.125 74.21875 28.421875 74.21875 
Q 39.75 74.21875 46.484375 68.546875 
Q 53.21875 62.890625 53.21875 53.421875 
Q 53.21875 48.921875 51.53125 44.890625 
Q 49.859375 40.875 45.40625 35.40625 
Q 44.1875 33.984375 37.640625 27.21875 
Q 31.109375 20.453125 19.1875 8.296875 
z
" id="DejaVuSans-32"/>
       <path d="M 31.78125 66.40625 
Q 24.171875 66.40625 20.328125 58.90625 
Q 16.5 51.421875 16.5 36.375 
Q 16.5 21.390625 20.328125 13.890625 
Q 24.171875 6.390625 31.78125 6.390625 
Q 39.453125 6.390625 43.28125 13.890625 
Q 47.125 21.390625 47.125 36.375 
Q 47.125 51.421875 43.28125 58.90625 
Q 39.453125 66.40625 31.78125 66.40625 
z
M 31.78125 74.21875 
Q 44.046875 74.21875 50.515625 64.515625 
Q 56.984375 54.828125 56.984375 36.375 
Q 56.984375 17.96875 50.515625 8.265625 
Q 44.046875 -1.421875 31.78125 -1.421875 
Q 19.53125 -1.421875 13.0625 8.265625 
Q 6.59375 17.96875 6.59375 36.375 
Q 6.59375 54.828125 13.0625 64.515625 
Q 19.53125 74.21875 31.78125 74.21875 
z
" id="DejaVuSans-30"/>
      </defs>
      <g transform="translate(416.186671 229.676406)scale(0.13 -0.13)">
       <use xlink:href="#DejaVuSans-32"/>
       <use x="63.623047" xlink:href="#DejaVuSans-30"/>
       <use x="127.246094" xlink:href="#DejaVuSans-30"/>
       <use x="190.869141" xlink:href="#DejaVuSans-34"/>
      </g>
     </g>
    </g>
    <g id="xtick_4">
     <g id="line2d_4">
      <g>
       <use style="stroke:#000000;stroke-width:0.8;" x="558.015483" xlink:href="#me06bb30ca2" y="206.298438"/>
      </g>
     </g>
     <g id="text_4">
      <!-- 2009 -->
      <g transform="translate(541.472983 229.676406)scale(0.13 -0.13)">
       <use xlink:href="#DejaVuSans-32"/>
       <use x="63.623047" xlink:href="#DejaVuSans-30"/>
       <use x="127.246094" xlink:href="#DejaVuSans-30"/>
       <use x="190.869141" xlink:href="#DejaVuSans-39"/>
      </g>
     </g>
    </g>
    <g id="xtick_5">
     <g id="line2d_5">
      <g>
       <use style="stroke:#000000;stroke-width:0.8;" x="683.301794" xlink:href="#me06bb30ca2" y="206.298438"/>
      </g>
     </g>
     <g id="text_5">
      <!-- 2014 -->
      <g transform="translate(666.759294 229.676406)scale(0.13 -0.13)">
       <use xlink:href="#DejaVuSans-32"/>
       <use x="63.623047" xlink:href="#DejaVuSans-30"/>
       <use x="127.246094" xlink:href="#DejaVuSans-31"/>
       <use x="190.869141" xlink:href="#DejaVuSans-34"/>
      </g>
     </g>
    </g>
    <g id="xtick_6">
     <g id="line2d_6">
      <defs>
       <path d="M 0 0 
L 0 2 
" id="mcf3623c32c" style="stroke:#000000;stroke-width:0.6;"/>
      </defs>
      <g>
       <use style="stroke:#000000;stroke-width:0.6;" x="81.9275" xlink:href="#mcf3623c32c" y="206.298438"/>
      </g>
     </g>
    </g>
    <g id="xtick_7">
     <g id="line2d_7">
      <g>
       <use style="stroke:#000000;stroke-width:0.6;" x="106.984762" xlink:href="#mcf3623c32c" y="206.298438"/>
      </g>
     </g>
    </g>
    <g id="xtick_8">
     <g id="line2d_8">
      <g>
       <use style="stroke:#000000;stroke-width:0.6;" x="132.042024" xlink:href="#mcf3623c32c" y="206.298438"/>
      </g>
     </g>
    </g>
    <g id="xtick_9">
     <g id="line2d_9">
      <g>
       <use style="stroke:#000000;stroke-width:0.6;" x="157.099287" xlink:href="#mcf3623c32c" y="206.298438"/>
      </g>
     </g>
    </g>
    <g id="xtick_10">
     <g id="line2d_10">
      <g>
       <use style="stroke:#000000;stroke-width:0.6;" x="182.156549" xlink:href="#mcf3623c32c" y="206.298438"/>
      </g>
     </g>
    </g>
    <g id="xtick_11">
     <g id="line2d_11">
      <g>
       <use style="stroke:#000000;stroke-width:0.6;" x="207.213811" xlink:href="#mcf3623c32c" y="206.298438"/>
      </g>
     </g>
    </g>
    <g id="xtick_12">
     <g id="line2d_12">
      <g>
       <use style="stroke:#000000;stroke-width:0.6;" x="232.271073" xlink:href="#mcf3623c32c" y="206.298438"/>
      </g>
     </g>
    </g>
    <g id="xtick_13">
     <g id="line2d_13">
      <g>
       <use style="stroke:#000000;stroke-width:0.6;" x="257.328336" xlink:href="#mcf3623c32c" y="206.298438"/>
      </g>
     </g>
    </g>
    <g id="xtick_14">
     <g id="line2d_14">
      <g>
       <use style="stroke:#000000;stroke-width:0.6;" x="282.385598" xlink:href="#mcf3623c32c" y="206.298438"/>
      </g>
     </g>
    </g>
    <g id="xtick_15">
     <g id="line2d_15">
      <g>
       <use style="stroke:#000000;stroke-width:0.6;" x="307.44286" xlink:href="#mcf3623c32c" y="206.298438"/>
      </g>
     </g>
    </g>
    <g id="xtick_16">
     <g id="line2d_16">
      <g>
       <use style="stroke:#000000;stroke-width:0.6;" x="332.500122" xlink:href="#mcf3623c32c" y="206.298438"/>
      </g>
     </g>
    </g>
    <g id="xtick_17">
     <g id="line2d_17">
      <g>
       <use style="stroke:#000000;stroke-width:0.6;" x="357.557385" xlink:href="#mcf3623c32c" y="206.298438"/>
      </g>
     </g>
    </g>
    <g id="xtick_18">
     <g id="line2d_18">
      <g>
       <use style="stroke:#000000;stroke-width:0.6;" x="382.614647" xlink:href="#mcf3623c32c" y="206.298438"/>
      </g>
     </g>
    </g>
    <g id="xtick_19">
     <g id="line2d_19">
      <g>
       <use style="stroke:#000000;stroke-width:0.6;" x="407.671909" xlink:href="#mcf3623c32c" y="206.298438"/>
      </g>
     </g>
    </g>
    <g id="xtick_20">
     <g id="line2d_20">
      <g>
       <use style="stroke:#000000;stroke-width:0.6;" x="432.729171" xlink:href="#mcf3623c32c" y="206.298438"/>
      </g>
     </g>
    </g>
    <g id="xtick_21">
     <g id="line2d_21">
      <g>
       <use style="stroke:#000000;stroke-width:0.6;" x="457.786434" xlink:href="#mcf3623c32c" y="206.298438"/>
      </g>
     </g>
    </g>
    <g id="xtick_22">
     <g id="line2d_22">
      <g>
       <use style="stroke:#000000;stroke-width:0.6;" x="482.843696" xlink:href="#mcf3623c32c" y="206.298438"/>
      </g>
     </g>
    </g>
    <g id="xtick_23">
     <g id="line2d_23">
      <g>
       <use style="stroke:#000000;stroke-width:0.6;" x="507.900958" xlink:href="#mcf3623c32c" y="206.298438"/>
      </g>
     </g>
    </g>
    <g id="xtick_24">
     <g id="line2d_24">
      <g>
       <use style="stroke:#000000;stroke-width:0.6;" x="532.95822" xlink:href="#mcf3623c32c" y="206.298438"/>
      </g>
     </g>
    </g>
    <g id="xtick_25">
     <g id="line2d_25">
      <g>
       <use style="stroke:#000000;stroke-width:0.6;" x="558.015483" xlink:href="#mcf3623c32c" y="206.298438"/>
      </g>
     </g>
    </g>
    <g id="xtick_26">
     <g id="line2d_26">
      <g>
       <use style="stroke:#000000;stroke-width:0.6;" x="583.072745" xlink:href="#mcf3623c32c" y="206.298438"/>
      </g>
     </g>
    </g>
    <g id="xtick_27">
     <g id="line2d_27">
      <g>
       <use style="stroke:#000000;stroke-width:0.6;" x="608.130007" xlink:href="#mcf3623c32c" y="206.298438"/>
      </g>
     </g>
    </g>
    <g id="xtick_28">
     <g id="line2d_28">
      <g>
       <use style="stroke:#000000;stroke-width:0.6;" x="633.187269" xlink:href="#mcf3623c32c" y="206.298438"/>
      </g>
     </g>
    </g>
    <g id="xtick_29">
     <g id="line2d_29">
      <g>
       <use style="stroke:#000000;stroke-width:0.6;" x="658.244532" xlink:href="#mcf3623c32c" y="206.298438"/>
      </g>
     </g>
    </g>
    <g id="xtick_30">
     <g id="line2d_30">
      <g>
       <use style="stroke:#000000;stroke-width:0.6;" x="683.301794" xlink:href="#mcf3623c32c" y="206.298438"/>
      </g>
     </g>
    </g>
    <g id="xtick_31">
     <g id="line2d_31">
      <g>
       <use style="stroke:#000000;stroke-width:0.6;" x="708.359056" xlink:href="#mcf3623c32c" y="206.298438"/>
      </g>
     </g>
    </g>
    <g id="xtick_32">
     <g id="line2d_32">
      <g>
       <use style="stroke:#000000;stroke-width:0.6;" x="733.416318" xlink:href="#mcf3623c32c" y="206.298438"/>
      </g>
     </g>
    </g>
    <g id="xtick_33">
     <g id="line2d_33">
      <g>
       <use style="stroke:#000000;stroke-width:0.6;" x="758.473581" xlink:href="#mcf3623c32c" y="206.298438"/>
      </g>
     </g>
    </g>
    <g id="xtick_34">
     <g id="line2d_34">
      <g>
       <use style="stroke:#000000;stroke-width:0.6;" x="783.530843" xlink:href="#mcf3623c32c" y="206.298438"/>
      </g>
     </g>
    </g>
   </g>
   <g id="matplotlib.axis_2">
    <g id="ytick_1">
     <g id="line2d_35">
      <path clip-path="url(#p75c68bd6fa)" d="M 81.9275 206.298438 
L 806.5 206.298438 
" style="fill:none;stroke:#000000;stroke-dasharray:0.8,1.32;stroke-dashoffset:0;stroke-width:0.8;"/>
     </g>
     <g id="line2d_36">
      <defs>
       <path d="M 0 0 
L -3.5 0 
" id="m815000e0d9" style="stroke:#000000;stroke-width:0.8;"/>
      </defs>
      <g>
       <use style="stroke:#000000;stroke-width:0.8;" x="81.9275" xlink:href="#m815000e0d9" y="206.298438"/>
      </g>
     </g>
     <g id="text_6">
      <!-- 50 -->
      <defs>
       <path d="M 10.796875 72.90625 
L 49.515625 72.90625 
L 49.515625 64.59375 
L 19.828125 64.59375 
L 19.828125 46.734375 
Q 21.96875 47.46875 24.109375 47.828125 
Q 26.265625 48.1875 28.421875 48.1875 
Q 40.625 48.1875 47.75 41.5 
Q 54.890625 34.8125 54.890625 23.390625 
Q 54.890625 11.625 47.5625 5.09375 
Q 40.234375 -1.421875 26.90625 -1.421875 
Q 22.3125 -1.421875 17.546875 -0.640625 
Q 12.796875 0.140625 7.71875 1.703125 
L 7.71875 11.625 
Q 12.109375 9.234375 16.796875 8.0625 
Q 21.484375 6.890625 26.703125 6.890625 
Q 35.15625 6.890625 40.078125 11.328125 
Q 45.015625 15.765625 45.015625 23.390625 
Q 45.015625 31 40.078125 35.4375 
Q 35.15625 39.890625 26.703125 39.890625 
Q 22.75 39.890625 18.8125 39.015625 
Q 14.890625 38.140625 10.796875 36.28125 
z
" id="DejaVuSans-35"/>
      </defs>
      <g transform="translate(51.885 211.237422)scale(0.13 -0.13)">
       <use xlink:href="#DejaVuSans-35"/>
       <use x="63.623047" xlink:href="#DejaVuSans-30"/>
      </g>
     </g>
    </g>
    <g id="ytick_2">
     <g id="line2d_37">
      <path clip-path="url(#p75c68bd6fa)" d="M 81.9275 177.478529 
L 806.5 177.478529 
" style="fill:none;stroke:#000000;stroke-dasharray:0.8,1.32;stroke-dashoffset:0;stroke-width:0.8;"/>
     </g>
     <g id="line2d_38">
      <g>
       <use style="stroke:#000000;stroke-width:0.8;" x="81.9275" xlink:href="#m815000e0d9" y="177.478529"/>
      </g>
     </g>
     <g id="text_7">
      <!-- 55 -->
      <g transform="translate(51.885 182.417513)scale(0.13 -0.13)">
       <use xlink:href="#DejaVuSans-35"/>
       <use x="63.623047" xlink:href="#DejaVuSans-35"/>
      </g>
     </g>
    </g>
    <g id="ytick_3">
     <g id="line2d_39">
      <path clip-path="url(#p75c68bd6fa)" d="M 81.9275 148.65862 
L 806.5 148.65862 
" style="fill:none;stroke:#000000;stroke-dasharray:0.8,1.32;stroke-dashoffset:0;stroke-width:0.8;"/>
     </g>
     <g id="line2d_40">
      <g>
       <use style="stroke:#000000;stroke-width:0.8;" x="81.9275" xlink:href="#m815000e0d9" y="148.65862"/>
      </g>
     </g>
     <g id="text_8">
      <!-- 60 -->
      <defs>
       <path d="M 33.015625 40.375 
Q 26.375 40.375 22.484375 35.828125 
Q 18.609375 31.296875 18.609375 23.390625 
Q 18.609375 15.53125 22.484375 10.953125 
Q 26.375 6.390625 33.015625 6.390625 
Q 39.65625 6.390625 43.53125 10.953125 
Q 47.40625 15.53125 47.40625 23.390625 
Q 47.40625 31.296875 43.53125 35.828125 
Q 39.65625 40.375 33.015625 40.375 
z
M 52.59375 71.296875 
L 52.59375 62.3125 
Q 48.875 64.0625 45.09375 64.984375 
Q 41.3125 65.921875 37.59375 65.921875 
Q 27.828125 65.921875 22.671875 59.328125 
Q 17.53125 52.734375 16.796875 39.40625 
Q 19.671875 43.65625 24.015625 45.921875 
Q 28.375 48.1875 33.59375 48.1875 
Q 44.578125 48.1875 50.953125 41.515625 
Q 57.328125 34.859375 57.328125 23.390625 
Q 57.328125 12.15625 50.6875 5.359375 
Q 44.046875 -1.421875 33.015625 -1.421875 
Q 20.359375 -1.421875 13.671875 8.265625 
Q 6.984375 17.96875 6.984375 36.375 
Q 6.984375 53.65625 15.1875 63.9375 
Q 23.390625 74.21875 37.203125 74.21875 
Q 40.921875 74.21875 44.703125 73.484375 
Q 48.484375 72.75 52.59375 71.296875 
z
" id="DejaVuSans-36"/>
      </defs>
      <g transform="translate(51.885 153.597604)scale(0.13 -0.13)">
       <use xlink:href="#DejaVuSans-36"/>
       <use x="63.623047" xlink:href="#DejaVuSans-30"/>
      </g>
     </g>
    </g>
    <g id="ytick_4">
     <g id="line2d_41">
      <path clip-path="url(#p75c68bd6fa)" d="M 81.9275 119.838711 
L 806.5 119.838711 
" style="fill:none;stroke:#000000;stroke-dasharray:0.8,1.32;stroke-dashoffset:0;stroke-width:0.8;"/>
     </g>
     <g id="line2d_42">
      <g>
       <use style="stroke:#000000;stroke-width:0.8;" x="81.9275" xlink:href="#m815000e0d9" y="119.838711"/>
      </g>
     </g>
     <g id="text_9">
      <!-- 65 -->
      <g transform="translate(51.885 124.777695)scale(0.13 -0.13)">
       <use xlink:href="#DejaVuSans-36"/>
       <use x="63.623047" xlink:href="#DejaVuSans-35"/>
      </g>
     </g>
    </g>
    <g id="ytick_5">
     <g id="line2d_43">
      <path clip-path="url(#p75c68bd6fa)" d="M 81.9275 91.018802 
L 806.5 91.018802 
" style="fill:none;stroke:#000000;stroke-dasharray:0.8,1.32;stroke-dashoffset:0;stroke-width:0.8;"/>
     </g>
     <g id="line2d_44">
      <g>
       <use style="stroke:#000000;stroke-width:0.8;" x="81.9275" xlink:href="#m815000e0d9" y="91.018802"/>
      </g>
     </g>
     <g id="text_10">
      <!-- 70 -->
      <defs>
       <path d="M 8.203125 72.90625 
L 55.078125 72.90625 
L 55.078125 68.703125 
L 28.609375 0 
L 18.3125 0 
L 43.21875 64.59375 
L 8.203125 64.59375 
z
" id="DejaVuSans-37"/>
      </defs>
      <g transform="translate(51.885 95.957786)scale(0.13 -0.13)">
       <use xlink:href="#DejaVuSans-37"/>
       <use x="63.623047" xlink:href="#DejaVuSans-30"/>
      </g>
     </g>
    </g>
    <g id="ytick_6">
     <g id="line2d_45">
      <path clip-path="url(#p75c68bd6fa)" d="M 81.9275 62.198893 
L 806.5 62.198893 
" style="fill:none;stroke:#000000;stroke-dasharray:0.8,1.32;stroke-dashoffset:0;stroke-width:0.8;"/>
     </g>
     <g id="line2d_46">
      <g>
       <use style="stroke:#000000;stroke-width:0.8;" x="81.9275" xlink:href="#m815000e0d9" y="62.198893"/>
      </g>
     </g>
     <g id="text_11">
      <!-- 75 -->
      <g transform="translate(51.885 67.137878)scale(0.13 -0.13)">
       <use xlink:href="#DejaVuSans-37"/>
       <use x="63.623047" xlink:href="#DejaVuSans-35"/>
      </g>
     </g>
    </g>
    <g id="ytick_7">
     <g id="line2d_47">
      <path clip-path="url(#p75c68bd6fa)" d="M 81.9275 33.378984 
L 806.5 33.378984 
" style="fill:none;stroke:#000000;stroke-dasharray:0.8,1.32;stroke-dashoffset:0;stroke-width:0.8;"/>
     </g>
     <g id="line2d_48">
      <g>
       <use style="stroke:#000000;stroke-width:0.8;" x="81.9275" xlink:href="#m815000e0d9" y="33.378984"/>
      </g>
     </g>
     <g id="text_12">
      <!-- 80 -->
      <defs>
       <path d="M 31.78125 34.625 
Q 24.75 34.625 20.71875 30.859375 
Q 16.703125 27.09375 16.703125 20.515625 
Q 16.703125 13.921875 20.71875 10.15625 
Q 24.75 6.390625 31.78125 6.390625 
Q 38.8125 6.390625 42.859375 10.171875 
Q 46.921875 13.96875 46.921875 20.515625 
Q 46.921875 27.09375 42.890625 30.859375 
Q 38.875 34.625 31.78125 34.625 
z
M 21.921875 38.8125 
Q 15.578125 40.375 12.03125 44.71875 
Q 8.5 49.078125 8.5 55.328125 
Q 8.5 64.0625 14.71875 69.140625 
Q 20.953125 74.21875 31.78125 74.21875 
Q 42.671875 74.21875 48.875 69.140625 
Q 55.078125 64.0625 55.078125 55.328125 
Q 55.078125 49.078125 51.53125 44.71875 
Q 48 40.375 41.703125 38.8125 
Q 48.828125 37.15625 52.796875 32.3125 
Q 56.78125 27.484375 56.78125 20.515625 
Q 56.78125 9.90625 50.3125 4.234375 
Q 43.84375 -1.421875 31.78125 -1.421875 
Q 19.734375 -1.421875 13.25 4.234375 
Q 6.78125 9.90625 6.78125 20.515625 
Q 6.78125 27.484375 10.78125 32.3125 
Q 14.796875 37.15625 21.921875 38.8125 
z
M 18.3125 54.390625 
Q 18.3125 48.734375 21.84375 45.5625 
Q 25.390625 42.390625 31.78125 42.390625 
Q 38.140625 42.390625 41.71875 45.5625 
Q 45.3125 48.734375 45.3125 54.390625 
Q 45.3125 60.0625 41.71875 63.234375 
Q 38.140625 66.40625 31.78125 66.40625 
Q 25.390625 66.40625 21.84375 63.234375 
Q 18.3125 60.0625 18.3125 54.390625 
z
" id="DejaVuSans-38"/>
      </defs>
      <g transform="translate(51.885 38.317969)scale(0.13 -0.13)">
       <use xlink:href="#DejaVuSans-38"/>
       <use x="63.623047" xlink:href="#DejaVuSans-30"/>
      </g>
     </g>
    </g>
    <g id="text_13">
     <!-- Percent -->
     <defs>
      <path d="M 19.671875 64.796875 
L 19.671875 37.40625 
L 32.078125 37.40625 
Q 38.96875 37.40625 42.71875 40.96875 
Q 46.484375 44.53125 46.484375 51.125 
Q 46.484375 57.671875 42.71875 61.234375 
Q 38.96875 64.796875 32.078125 64.796875 
z
M 9.8125 72.90625 
L 32.078125 72.90625 
Q 44.34375 72.90625 50.609375 67.359375 
Q 56.890625 61.8125 56.890625 51.125 
Q 56.890625 40.328125 50.609375 34.8125 
Q 44.34375 29.296875 32.078125 29.296875 
L 19.671875 29.296875 
L 19.671875 0 
L 9.8125 0 
z
" id="DejaVuSans-50"/>
      <path d="M 56.203125 29.59375 
L 56.203125 25.203125 
L 14.890625 25.203125 
Q 15.484375 15.921875 20.484375 11.0625 
Q 25.484375 6.203125 34.421875 6.203125 
Q 39.59375 6.203125 44.453125 7.46875 
Q 49.3125 8.734375 54.109375 11.28125 
L 54.109375 2.78125 
Q 49.265625 0.734375 44.1875 -0.34375 
Q 39.109375 -1.421875 33.890625 -1.421875 
Q 20.796875 -1.421875 13.15625 6.1875 
Q 5.515625 13.8125 5.515625 26.8125 
Q 5.515625 40.234375 12.765625 48.109375 
Q 20.015625 56 32.328125 56 
Q 43.359375 56 49.78125 48.890625 
Q 56.203125 41.796875 56.203125 29.59375 
z
M 47.21875 32.234375 
Q 47.125 39.59375 43.09375 43.984375 
Q 39.0625 48.390625 32.421875 48.390625 
Q 24.90625 48.390625 20.390625 44.140625 
Q 15.875 39.890625 15.1875 32.171875 
z
" id="DejaVuSans-65"/>
      <path d="M 41.109375 46.296875 
Q 39.59375 47.171875 37.8125 47.578125 
Q 36.03125 48 33.890625 48 
Q 26.265625 48 22.1875 43.046875 
Q 18.109375 38.09375 18.109375 28.8125 
L 18.109375 0 
L 9.078125 0 
L 9.078125 54.6875 
L 18.109375 54.6875 
L 18.109375 46.1875 
Q 20.953125 51.171875 25.484375 53.578125 
Q 30.03125 56 36.53125 56 
Q 37.453125 56 38.578125 55.875 
Q 39.703125 55.765625 41.0625 55.515625 
z
" id="DejaVuSans-72"/>
      <path d="M 48.78125 52.59375 
L 48.78125 44.1875 
Q 44.96875 46.296875 41.140625 47.34375 
Q 37.3125 48.390625 33.40625 48.390625 
Q 24.65625 48.390625 19.8125 42.84375 
Q 14.984375 37.3125 14.984375 27.296875 
Q 14.984375 17.28125 19.8125 11.734375 
Q 24.65625 6.203125 33.40625 6.203125 
Q 37.3125 6.203125 41.140625 7.25 
Q 44.96875 8.296875 48.78125 10.40625 
L 48.78125 2.09375 
Q 45.015625 0.34375 40.984375 -0.53125 
Q 36.96875 -1.421875 32.421875 -1.421875 
Q 20.0625 -1.421875 12.78125 6.34375 
Q 5.515625 14.109375 5.515625 27.296875 
Q 5.515625 40.671875 12.859375 48.328125 
Q 20.21875 56 33.015625 56 
Q 37.15625 56 41.109375 55.140625 
Q 45.0625 54.296875 48.78125 52.59375 
z
" id="DejaVuSans-63"/>
      <path d="M 54.890625 33.015625 
L 54.890625 0 
L 45.90625 0 
L 45.90625 32.71875 
Q 45.90625 40.484375 42.875 44.328125 
Q 39.84375 48.1875 33.796875 48.1875 
Q 26.515625 48.1875 22.3125 43.546875 
Q 18.109375 38.921875 18.109375 30.90625 
L 18.109375 0 
L 9.078125 0 
L 9.078125 54.6875 
L 18.109375 54.6875 
L 18.109375 46.1875 
Q 21.34375 51.125 25.703125 53.5625 
Q 30.078125 56 35.796875 56 
Q 45.21875 56 50.046875 50.171875 
Q 54.890625 44.34375 54.890625 33.015625 
z
" id="DejaVuSans-6e"/>
      <path d="M 18.3125 70.21875 
L 18.3125 54.6875 
L 36.8125 54.6875 
L 36.8125 47.703125 
L 18.3125 47.703125 
L 18.3125 18.015625 
Q 18.3125 11.328125 20.140625 9.421875 
Q 21.96875 7.515625 27.59375 7.515625 
L 36.8125 7.515625 
L 36.8125 0 
L 27.59375 0 
Q 17.1875 0 13.234375 3.875 
Q 9.28125 7.765625 9.28125 18.015625 
L 9.28125 47.703125 
L 2.6875 47.703125 
L 2.6875 54.6875 
L 9.28125 54.6875 
L 9.28125 70.21875 
z
" id="DejaVuSans-74"/>
     </defs>
     <g transform="translate(44.5575 150.394961)rotate(-90)scale(0.16 -0.16)">
      <use xlink:href="#DejaVuSans-50"/>
      <use x="60.255859" xlink:href="#DejaVuSans-65"/>
      <use x="121.779297" xlink:href="#DejaVuSans-72"/>
      <use x="162.861328" xlink:href="#DejaVuSans-63"/>
      <use x="217.841797" xlink:href="#DejaVuSans-65"/>
      <use x="279.365234" xlink:href="#DejaVuSans-6e"/>
      <use x="342.744141" xlink:href="#DejaVuSans-74"/>
     </g>
    </g>
   </g>
   <g id="line2d_49">
    <path clip-path="url(#p75c68bd6fa)" d="M 81.9275 52.177613 
L 84.015605 52.956511 
L 86.10371 53.066522 
L 88.191816 54.048044 
L 90.279921 53.87422 
L 92.368026 54.841732 
L 96.544236 54.586706 
L 98.632341 55.864655 
L 100.720447 55.182906 
L 102.808552 54.895377 
L 104.896657 54.785412 
L 106.984762 56.573671 
L 109.072867 56.868446 
L 111.160973 55.766245 
L 113.249078 56.237932 
L 115.337183 57.599181 
L 117.425288 57.344126 
L 119.513393 57.613154 
L 121.601499 58.653652 
L 123.689604 57.6052 
L 125.777709 59.003115 
L 127.865814 59.029659 
L 129.953919 59.844331 
L 132.042024 58.065263 
L 134.13013 58.996402 
L 136.218235 57.706115 
L 138.30634 57.434457 
L 140.394445 56.071225 
L 142.48255 55.36559 
L 144.570656 56.224285 
L 146.658761 56.332082 
L 148.746866 56.830021 
L 150.834971 58.872059 
L 152.923076 58.53034 
L 155.011182 59.206106 
L 157.099287 59.707196 
L 159.187392 59.619376 
L 161.275497 58.942984 
L 163.363602 59.988834 
L 165.451707 58.718064 
L 167.539813 58.234665 
L 169.627918 58.430969 
L 171.716023 58.365162 
L 173.804128 60.995817 
L 175.892233 60.743156 
L 180.068444 61.937804 
L 182.156549 60.40511 
L 186.332759 62.686161 
L 190.50897 63.135121 
L 192.597075 63.644565 
L 194.68518 63.321128 
L 196.773285 61.959411 
L 198.86139 62.272028 
L 200.949496 60.873137 
L 203.037601 60.982453 
L 205.125706 59.891198 
L 207.213811 59.73967 
L 209.301916 59.946625 
L 211.390022 60.329285 
L 213.478127 60.456684 
L 215.566232 63.023844 
L 217.654337 62.347371 
L 219.742442 62.963359 
L 221.830548 63.258994 
L 223.918653 62.30614 
L 226.006758 63.774312 
L 228.094863 64.665381 
L 232.271073 64.407517 
L 234.359179 62.99622 
L 236.447284 62.64383 
L 238.535389 62.716994 
L 240.623494 62.012858 
L 242.711599 62.15093 
L 244.799705 61.141694 
L 246.88781 63.235495 
L 248.975915 62.397606 
L 251.06402 61.68551 
L 253.152125 62.839972 
L 255.240231 63.113461 
L 257.328336 62.625574 
L 259.416441 62.945155 
L 261.504546 61.987302 
L 263.592651 61.864789 
L 265.680756 62.141288 
L 267.768862 62.002627 
L 269.856967 62.439224 
L 271.945072 62.095795 
L 274.033177 62.902134 
L 276.121282 62.795573 
L 278.209388 61.715825 
L 280.297493 62.837054 
L 282.385598 62.672668 
L 284.473703 63.085493 
L 286.561808 63.304479 
L 288.649914 63.11173 
L 290.738019 62.650524 
L 292.826124 62.872003 
L 294.914229 62.318507 
L 297.002334 64.332147 
L 299.090439 62.28331 
L 301.178545 62.749874 
L 303.26665 62.325249 
L 305.354755 62.532625 
L 307.44286 62.056534 
L 309.530965 62.606754 
L 311.619071 64.150927 
L 313.707176 64.487935 
L 315.795281 63.472522 
L 317.883386 63.880337 
L 319.971491 63.699674 
L 322.059597 64.480232 
L 324.147702 64.285956 
L 326.235807 64.439111 
L 328.323912 64.422714 
L 330.412017 63.630346 
L 332.500122 61.436703 
L 334.588228 60.413011 
L 336.676333 62.120834 
L 338.764438 62.693555 
L 340.852543 63.566416 
L 342.940648 63.219793 
L 345.028754 64.85741 
L 347.116859 63.110326 
L 349.204964 64.791625 
L 351.293069 64.957264 
L 353.381174 64.595729 
L 355.46928 63.698276 
L 357.557385 62.236808 
L 359.64549 63.469444 
L 361.733595 64.101244 
L 363.8217 64.215064 
L 365.909805 65.86494 
L 367.997911 66.29927 
L 370.086016 65.856709 
L 372.174121 67.310584 
L 374.262226 65.262118 
L 376.350331 65.929522 
L 378.438437 66.402947 
L 380.526542 66.308575 
L 382.614647 67.891954 
L 384.702752 66.80369 
L 386.790857 67.218964 
L 388.878963 66.784689 
L 390.967068 65.20669 
L 393.055173 66.790686 
L 395.143278 67.205745 
L 397.231383 67.444805 
L 399.319488 65.865143 
L 401.407594 67.863501 
L 403.495699 69.501633 
L 405.583804 69.995906 
L 407.671909 70.810778 
L 409.760014 69.733519 
L 411.84812 71.772905 
L 413.936225 70.005196 
L 416.02433 70.487835 
L 418.112435 69.983591 
L 422.288646 72.1869 
L 424.376751 70.432189 
L 426.464856 71.303621 
L 428.552961 70.323456 
L 430.641066 71.126842 
L 432.729171 69.972344 
L 434.817277 72.39818 
L 436.905382 72.477134 
L 438.993487 72.970935 
L 441.081592 72.928983 
L 443.169697 71.801602 
L 445.257803 71.076557 
L 447.345908 71.264471 
L 449.434013 72.538694 
L 451.522118 71.854561 
L 453.610223 70.844121 
L 455.698329 72.467408 
L 457.786434 73.631064 
L 459.874539 72.455891 
L 461.962644 72.370423 
L 464.050749 71.406824 
L 466.138854 71.043235 
L 470.315065 71.460644 
L 472.40317 70.639363 
L 474.491275 71.782714 
L 476.57938 72.585524 
L 478.667486 72.409183 
L 480.755591 72.705141 
L 482.843696 71.657326 
L 484.931801 70.808281 
L 487.019906 70.157332 
L 489.108012 70.66227 
L 491.196117 70.774227 
L 493.284222 71.54131 
L 495.372327 73.110178 
L 497.460432 71.668875 
L 499.548537 71.327471 
L 501.636643 71.308672 
L 503.724748 70.644231 
L 505.812853 69.719292 
L 507.900958 69.372344 
L 509.989063 70.163831 
L 514.165274 71.523815 
L 516.253379 72.307958 
L 518.341484 72.260781 
L 520.429589 73.341948 
L 522.517695 74.975649 
L 524.6058 73.930697 
L 526.693905 74.507876 
L 528.78201 72.959993 
L 530.870115 73.210789 
L 532.95822 71.178375 
L 535.046326 72.949152 
L 537.134431 73.268326 
L 539.222536 74.12639 
L 541.310641 73.347873 
L 543.398746 73.680451 
L 545.486852 72.950994 
L 547.574957 74.338104 
L 549.663062 74.043074 
L 551.751167 74.27667 
L 553.839272 75.612347 
L 555.927378 76.481173 
L 558.015483 76.962588 
L 560.103588 76.963056 
L 562.191693 79.134941 
L 564.279798 77.511613 
L 566.367903 76.951033 
L 570.544114 79.260025 
L 572.632219 79.700847 
L 574.720324 81.168077 
L 576.808429 81.597538 
L 578.896535 82.358574 
L 580.98464 85.023112 
L 583.072745 84.179328 
L 585.16085 83.966545 
L 587.248955 82.684143 
L 589.337061 80.583934 
L 591.425166 83.154726 
L 593.513271 84.410619 
L 595.601376 84.275495 
L 597.689481 83.725666 
L 599.777586 84.847512 
L 601.865692 86.620811 
L 603.953797 85.871348 
L 606.041902 87.022947 
L 608.130007 88.021062 
L 610.218112 87.913727 
L 612.306218 88.447601 
L 614.394323 88.114613 
L 616.482428 88.101976 
L 618.570533 88.430588 
L 620.658638 89.312614 
L 622.746744 88.247509 
L 624.834849 88.166952 
L 626.922954 88.794513 
L 629.011059 87.892782 
L 631.099164 87.894349 
L 633.187269 89.690896 
L 637.36348 89.832364 
L 639.451585 90.254249 
L 641.53969 89.704927 
L 643.627795 89.537481 
L 645.715901 90.049962 
L 647.804006 91.442668 
L 651.980216 89.510599 
L 654.068321 90.588253 
L 656.156427 90.585655 
L 658.244532 89.316447 
L 660.332637 91.174471 
L 662.420742 92.491945 
L 664.508847 91.638585 
L 666.596952 91.418507 
L 668.685058 91.646326 
L 670.773163 92.293142 
L 672.861268 93.121417 
L 674.949373 92.294275 
L 677.037478 95.790816 
L 679.125584 94.141235 
L 681.213689 95.444072 
L 683.301794 95.339202 
L 685.389899 96.454935 
L 687.478004 94.270229 
L 689.56611 96.419641 
L 691.654215 96.560527 
L 693.74232 95.377428 
L 695.830425 94.882244 
L 697.91853 94.794726 
L 702.094741 96.022593 
L 704.182846 96.033941 
L 708.359056 94.567773 
L 710.447161 95.432789 
L 712.535267 95.623762 
L 714.623372 95.095964 
L 716.711477 94.721894 
L 718.799582 96.878412 
L 720.887687 96.747574 
L 722.975793 97.265294 
L 725.063898 98.235356 
L 727.152003 98.015296 
L 729.240108 98.490165 
L 731.328213 96.662835 
L 733.416318 96.527218 
L 735.504424 95.038383 
L 737.592529 94.693038 
L 739.680634 95.33146 
L 741.768739 96.938481 
L 743.856844 95.123792 
L 745.94495 95.310073 
L 750.12116 95.213563 
L 752.209265 95.705916 
L 754.29737 96.535868 
L 756.385476 96.486011 
L 758.473581 95.234518 
L 760.561686 95.289878 
L 762.649791 95.87205 
L 764.737896 95.69301 
L 766.826001 97.253234 
L 768.914107 96.742319 
L 771.002212 97.209455 
L 773.090317 96.678446 
L 775.178422 95.412429 
L 777.266527 97.010001 
L 779.354633 97.420327 
L 781.442738 97.054439 
L 785.618948 94.303228 
L 787.707053 95.018277 
L 791.883264 95.644931 
L 798.147579 98.025206 
L 800.235684 98.371422 
L 802.32379 97.392598 
L 804.411895 96.869564 
L 804.411895 96.869564 
" style="fill:none;stroke:#000000;stroke-linecap:square;stroke-width:3;"/>
   </g>
   <g id="line2d_50">
    <path clip-path="url(#p75c68bd6fa)" d="M 81.9275 76.057021 
L 86.10371 76.001409 
L 88.191816 78.048389 
L 90.279921 77.395333 
L 92.368026 78.125584 
L 94.456131 79.201855 
L 96.544236 79.982963 
L 98.632341 81.77441 
L 100.720447 81.918046 
L 102.808552 82.97874 
L 104.896657 83.544388 
L 106.984762 85.112002 
L 109.072867 87.057411 
L 111.160973 87.311874 
L 113.249078 87.170999 
L 115.337183 88.976524 
L 117.425288 88.839291 
L 119.513393 89.247649 
L 121.601499 89.948921 
L 123.689604 89.48379 
L 125.777709 90.636756 
L 127.865814 91.080426 
L 129.953919 92.717103 
L 132.042024 92.13868 
L 134.13013 93.380051 
L 136.218235 91.999785 
L 138.30634 91.247395 
L 140.394445 91.419909 
L 142.48255 91.707759 
L 144.570656 91.159969 
L 146.658761 91.205367 
L 148.746866 91.642003 
L 150.834971 92.713029 
L 152.923076 92.610581 
L 159.187392 91.764134 
L 161.275497 91.656973 
L 163.363602 92.143022 
L 165.451707 90.510981 
L 167.539813 90.411963 
L 169.627918 89.99447 
L 171.716023 89.176884 
L 173.804128 91.286837 
L 175.892233 90.842759 
L 177.980339 90.280295 
L 180.068444 90.571572 
L 182.156549 89.879006 
L 184.244654 90.683936 
L 186.332759 90.782217 
L 188.420865 90.500087 
L 190.50897 89.367859 
L 194.68518 90.376914 
L 196.773285 88.311587 
L 198.86139 87.497371 
L 200.949496 86.17667 
L 203.037601 85.067975 
L 205.125706 83.791568 
L 207.213811 84.115943 
L 209.301916 83.448021 
L 211.390022 83.517892 
L 213.478127 84.914391 
L 215.566232 87.893693 
L 217.654337 86.479613 
L 219.742442 87.087177 
L 221.830548 87.818237 
L 223.918653 86.607465 
L 226.006758 86.940821 
L 228.094863 89.155368 
L 230.182968 88.890019 
L 232.271073 88.32148 
L 234.359179 87.078503 
L 238.535389 87.069224 
L 242.711599 85.221246 
L 244.799705 84.897229 
L 246.88781 84.733378 
L 248.975915 84.844665 
L 251.06402 83.719207 
L 253.152125 85.668331 
L 255.240231 84.884346 
L 257.328336 85.429285 
L 259.416441 84.971715 
L 261.504546 84.087488 
L 263.592651 83.761935 
L 265.680756 82.152365 
L 267.768862 83.606712 
L 269.856967 83.081112 
L 271.945072 82.727312 
L 274.033177 83.39909 
L 276.121282 83.188487 
L 278.209388 81.455529 
L 280.297493 82.917833 
L 282.385598 82.204529 
L 284.473703 82.2888 
L 286.561808 83.102516 
L 288.649914 80.923759 
L 290.738019 81.35302 
L 292.826124 81.970219 
L 294.914229 82.174387 
L 297.002334 83.152574 
L 299.090439 81.984454 
L 301.178545 81.660567 
L 303.26665 80.700603 
L 305.354755 81.175168 
L 307.44286 80.261089 
L 309.530965 81.255118 
L 311.619071 81.037615 
L 313.707176 82.046916 
L 315.795281 81.482794 
L 317.883386 81.802238 
L 319.971491 81.80727 
L 322.059597 82.194161 
L 324.147702 81.910678 
L 326.235807 82.165048 
L 330.412017 80.853765 
L 332.500122 78.375537 
L 334.588228 78.257628 
L 338.764438 78.84021 
L 340.852543 80.237172 
L 342.940648 79.678616 
L 345.028754 81.520465 
L 347.116859 80.074833 
L 349.204964 81.418929 
L 351.293069 81.625705 
L 353.381174 81.455063 
L 357.557385 80.559414 
L 359.64549 82.008829 
L 363.8217 83.388974 
L 365.909805 84.912171 
L 367.997911 86.096116 
L 370.086016 85.770401 
L 372.174121 88.743473 
L 374.262226 86.423687 
L 376.350331 89.266448 
L 378.438437 90.875012 
L 380.526542 90.972215 
L 382.614647 92.76412 
L 384.702752 91.584056 
L 386.790857 92.322084 
L 388.878963 92.334714 
L 390.967068 90.290526 
L 393.055173 92.262033 
L 397.231383 92.792479 
L 399.319488 90.962736 
L 401.407594 92.761969 
L 403.495699 95.575405 
L 407.671909 97.078321 
L 409.760014 95.833233 
L 411.84812 97.367039 
L 413.936225 97.053649 
L 416.02433 97.816521 
L 420.20054 98.984709 
L 422.288646 98.972981 
L 424.376751 97.409427 
L 426.464856 97.589091 
L 430.641066 95.522997 
L 432.729171 94.34782 
L 434.817277 96.08806 
L 436.905382 96.955789 
L 438.993487 96.983948 
L 441.081592 97.29252 
L 443.169697 95.693227 
L 445.257803 94.545259 
L 447.345908 94.938893 
L 449.434013 95.995673 
L 451.522118 95.634656 
L 453.610223 94.256504 
L 455.698329 95.876006 
L 457.786434 96.179284 
L 459.874539 95.597165 
L 461.962644 94.752296 
L 464.050749 93.157299 
L 466.138854 92.329976 
L 468.22696 92.247048 
L 470.315065 92.0429 
L 472.40317 91.542839 
L 474.491275 93.006382 
L 476.57938 93.030135 
L 478.667486 93.491541 
L 480.755591 92.904418 
L 482.843696 91.098496 
L 484.931801 90.957522 
L 487.019906 89.940933 
L 489.108012 90.790394 
L 491.196117 90.822496 
L 493.284222 91.065736 
L 495.372327 93.112248 
L 497.460432 91.64155 
L 499.548537 89.779488 
L 501.636643 90.091346 
L 503.724748 89.748632 
L 505.812853 88.732642 
L 507.900958 89.5438 
L 509.989063 90.229796 
L 512.077169 89.965403 
L 514.165274 90.926042 
L 518.341484 92.073456 
L 520.429589 93.214027 
L 522.517695 94.51144 
L 524.6058 94.063588 
L 526.693905 94.852244 
L 528.78201 93.099188 
L 530.870115 94.539953 
L 532.95822 93.14416 
L 535.046326 94.070852 
L 537.134431 95.148901 
L 539.222536 95.796955 
L 541.310641 96.998617 
L 545.486852 99.098351 
L 551.751167 103.927315 
L 553.839272 106.455684 
L 555.927378 109.93991 
L 560.103588 115.52787 
L 562.191693 119.426774 
L 564.279798 119.768089 
L 566.367903 121.038002 
L 568.456009 122.099398 
L 570.544114 122.85817 
L 572.632219 124.259527 
L 574.720324 126.061349 
L 576.808429 127.571495 
L 578.896535 127.849535 
L 580.98464 129.727028 
L 583.072745 129.36189 
L 585.16085 128.873316 
L 587.248955 127.71329 
L 589.337061 125.562765 
L 591.425166 125.913447 
L 593.513271 127.031294 
L 595.601376 126.42742 
L 597.689481 126.086936 
L 599.777586 126.781724 
L 601.865692 127.667394 
L 603.953797 128.792549 
L 606.041902 127.947711 
L 608.130007 127.557992 
L 610.218112 126.558085 
L 614.394323 127.138417 
L 616.482428 126.56458 
L 618.570533 127.382709 
L 620.658638 127.637436 
L 622.746744 126.433833 
L 624.834849 126.011951 
L 626.922954 126.309011 
L 629.011059 124.070094 
L 631.099164 123.317644 
L 635.275375 123.800166 
L 637.36348 123.705968 
L 639.451585 123.928061 
L 641.53969 123.626617 
L 643.627795 123.547912 
L 645.715901 123.750652 
L 647.804006 124.861321 
L 649.892111 122.799123 
L 651.980216 121.682343 
L 654.068321 122.385314 
L 656.156427 122.406793 
L 658.244532 122.557791 
L 660.332637 122.449697 
L 664.508847 123.231925 
L 668.685058 122.852287 
L 670.773163 123.145579 
L 672.861268 124.107068 
L 674.949373 123.290832 
L 677.037478 125.814028 
L 679.125584 122.939107 
L 681.213689 122.487388 
L 683.301794 122.530258 
L 685.389899 123.973785 
L 687.478004 120.991314 
L 689.56611 121.962192 
L 691.654215 121.861486 
L 693.74232 120.459996 
L 695.830425 119.764368 
L 697.91853 119.804096 
L 700.006635 118.943402 
L 702.094741 118.265398 
L 704.182846 119.241967 
L 706.270951 118.132994 
L 712.535267 117.879956 
L 714.623372 117.115594 
L 716.711477 117.11013 
L 718.799582 118.170932 
L 720.887687 117.473927 
L 722.975793 117.644833 
L 725.063898 118.386614 
L 727.152003 118.119837 
L 729.240108 118.862299 
L 731.328213 117.019063 
L 733.416318 116.117741 
L 735.504424 114.812699 
L 737.592529 114.63606 
L 739.680634 115.390222 
L 741.768739 115.754972 
L 743.856844 114.94488 
L 745.94495 115.418791 
L 748.033055 115.150682 
L 752.209265 115.776124 
L 754.29737 115.435321 
L 756.385476 115.702718 
L 758.473581 114.364853 
L 760.561686 114.163491 
L 762.649791 114.184246 
L 764.737896 113.111778 
L 766.826001 114.017895 
L 768.914107 114.060227 
L 771.002212 114.532437 
L 773.090317 114.594269 
L 775.178422 112.291612 
L 777.266527 113.702733 
L 779.354633 113.98443 
L 781.442738 113.50553 
L 783.530843 112.593234 
L 785.618948 110.920196 
L 787.707053 111.425071 
L 789.795159 111.780959 
L 791.883264 111.259795 
L 793.971369 112.763951 
L 796.059474 112.321278 
L 798.147579 113.306112 
L 800.235684 113.186472 
L 802.32379 112.341769 
L 804.411895 111.17634 
L 804.411895 111.17634 
" style="fill:none;stroke:#696969;stroke-dasharray:11.1,4.8;stroke-dashoffset:0;stroke-width:3;"/>
   </g>
   <g id="line2d_51">
    <path clip-path="url(#p75c68bd6fa)" d="M 81.9275 52.177613 
L 84.015605 52.956511 
L 86.10371 53.066522 
L 88.191816 54.048044 
L 90.279921 53.87422 
L 92.368026 54.841732 
L 96.544236 54.586706 
L 98.632341 55.864655 
L 100.720447 55.182906 
L 102.808552 54.895377 
L 104.896657 54.785412 
L 106.984762 56.573671 
L 109.072867 56.868446 
L 111.160973 55.766245 
L 113.249078 56.237932 
L 115.337183 57.599181 
L 117.425288 57.344126 
L 119.513393 57.613154 
L 121.601499 58.653652 
L 123.689604 57.6052 
L 125.777709 59.003115 
L 127.865814 59.029659 
L 129.953919 59.844331 
L 132.042024 58.065263 
L 134.13013 58.996402 
L 136.218235 57.706115 
L 138.30634 57.434457 
L 140.394445 56.071225 
L 142.48255 55.36559 
L 144.570656 56.224285 
L 146.658761 56.332082 
L 148.746866 56.830021 
L 150.834971 58.872059 
L 152.923076 58.53034 
L 155.011182 59.206106 
L 157.099287 59.707196 
L 159.187392 59.619376 
L 161.275497 58.942984 
L 163.363602 59.988834 
L 165.451707 58.718064 
L 167.539813 58.234665 
L 169.627918 58.430969 
L 171.716023 58.365162 
L 173.804128 60.995817 
L 175.892233 60.743156 
L 180.068444 61.937804 
L 182.156549 60.40511 
L 186.332759 62.686161 
L 190.50897 63.135121 
L 192.597075 63.644565 
L 194.68518 63.321128 
L 196.773285 61.959411 
L 198.86139 62.272028 
L 200.949496 60.873137 
L 203.037601 60.982453 
L 205.125706 59.891198 
L 207.213811 59.73967 
L 209.301916 59.946625 
L 211.390022 60.329285 
L 213.478127 60.456684 
L 215.566232 63.023844 
L 217.654337 62.347371 
L 219.742442 62.963359 
L 221.830548 63.258994 
L 223.918653 62.30614 
L 226.006758 63.774312 
L 228.094863 64.665381 
L 232.271073 64.407517 
L 234.359179 62.99622 
L 236.447284 62.64383 
L 238.535389 62.716994 
L 240.623494 62.012858 
L 242.711599 62.15093 
L 244.799705 61.141694 
L 246.88781 63.235495 
L 248.975915 62.397606 
L 251.06402 61.68551 
L 253.152125 62.839972 
L 255.240231 63.113461 
L 257.328336 62.625574 
L 259.416441 62.945155 
L 261.504546 61.987302 
L 263.592651 61.864789 
L 265.680756 62.141288 
L 267.768862 62.002627 
L 269.856967 62.439224 
L 271.945072 62.095795 
L 274.033177 62.902134 
L 276.121282 62.795573 
L 278.209388 61.715825 
L 280.297493 62.837054 
L 282.385598 62.672668 
L 284.473703 63.085493 
L 286.561808 63.304479 
L 288.649914 63.11173 
L 290.738019 62.650524 
L 292.826124 62.872003 
L 294.914229 62.318507 
L 297.002334 64.332147 
L 299.090439 62.28331 
L 301.178545 62.749874 
L 303.26665 62.325249 
L 305.354755 62.532625 
L 307.44286 62.056534 
L 309.530965 62.606754 
L 311.619071 64.150927 
L 313.707176 64.487935 
L 315.795281 63.472522 
L 317.883386 63.880337 
L 319.971491 63.699674 
L 322.059597 64.480232 
L 324.147702 64.285956 
L 326.235807 64.439111 
L 328.323912 64.422714 
L 330.412017 63.630346 
L 332.500122 61.436703 
L 334.588228 60.413011 
L 336.676333 62.120834 
L 338.764438 62.693555 
L 340.852543 63.566416 
L 342.940648 63.219793 
L 345.028754 64.85741 
L 347.116859 63.110326 
L 349.204964 64.791625 
L 351.293069 64.957264 
L 353.381174 64.595729 
L 355.46928 63.698276 
L 357.557385 62.236808 
L 359.64549 63.469444 
L 361.733595 64.101244 
L 363.8217 64.215064 
L 365.909805 65.86494 
L 367.997911 66.29927 
L 370.086016 65.856709 
L 372.174121 67.310584 
L 374.262226 65.262118 
L 376.350331 65.929522 
L 378.438437 66.402947 
L 380.526542 66.308575 
L 382.614647 67.891954 
L 384.702752 66.80369 
L 386.790857 67.218964 
L 388.878963 66.784689 
L 390.967068 65.20669 
L 393.055173 66.790686 
L 395.143278 67.205745 
L 397.231383 67.444805 
L 399.319488 65.865143 
L 401.407594 67.863501 
L 403.495699 69.501633 
L 405.583804 69.995906 
L 407.671909 70.810778 
L 409.760014 69.733519 
L 411.84812 71.772905 
L 413.936225 70.005196 
L 416.02433 70.487835 
L 418.112435 69.983591 
L 422.288646 72.1869 
L 424.376751 70.432189 
L 426.464856 71.303621 
L 428.552961 70.323456 
L 430.641066 71.126842 
L 432.729171 69.972344 
L 434.817277 72.39818 
L 436.905382 72.477134 
L 438.993487 72.970935 
L 441.081592 72.928983 
L 443.169697 71.801602 
L 445.257803 71.076557 
L 447.345908 71.264471 
L 449.434013 72.538694 
L 451.522118 71.854561 
L 453.610223 70.844121 
L 455.698329 72.467408 
L 457.786434 73.631064 
L 459.874539 72.455891 
L 461.962644 72.370423 
L 464.050749 71.406824 
L 466.138854 71.043235 
L 470.315065 71.460644 
L 472.40317 70.639363 
L 474.491275 71.782714 
L 476.57938 72.585524 
L 478.667486 72.409183 
L 480.755591 72.705141 
L 482.843696 71.657326 
L 484.931801 70.808281 
L 487.019906 70.157332 
L 489.108012 70.66227 
L 491.196117 70.774227 
L 493.284222 71.54131 
L 495.372327 73.110178 
L 497.460432 71.668875 
L 499.548537 71.327471 
L 501.636643 71.308672 
L 503.724748 70.644231 
L 505.812853 69.719292 
L 507.900958 69.372344 
L 509.989063 70.163831 
L 514.165274 71.523815 
L 516.253379 72.307958 
L 518.341484 72.260781 
L 520.429589 73.341948 
L 522.517695 74.975649 
L 524.6058 73.930697 
L 526.693905 74.507876 
L 528.78201 72.959993 
L 530.870115 73.210789 
L 532.95822 71.178375 
L 535.046326 72.949152 
L 537.134431 73.268326 
L 539.222536 74.12639 
L 541.310641 73.347873 
L 543.398746 73.680451 
L 545.486852 72.950994 
L 547.574957 74.338104 
L 549.663062 74.043074 
L 551.751167 74.27667 
L 553.839272 75.612347 
L 555.927378 76.481173 
L 558.015483 76.962588 
L 560.103588 76.963056 
L 562.191693 79.134941 
L 564.279798 77.511613 
L 566.367903 76.951033 
L 570.544114 79.260025 
L 572.632219 79.700847 
L 574.720324 81.168077 
L 576.808429 81.597538 
L 578.896535 82.358574 
L 580.98464 85.023112 
L 583.072745 84.179328 
L 585.16085 83.966545 
L 587.248955 82.684143 
L 589.337061 80.583934 
L 591.425166 83.154726 
L 593.513271 84.410619 
L 595.601376 84.275495 
L 597.689481 83.725666 
L 599.777586 84.847512 
L 601.865692 86.620811 
L 603.953797 85.871348 
L 606.041902 87.022947 
L 608.130007 88.021062 
L 610.218112 87.913727 
L 612.306218 88.447601 
L 614.394323 88.114613 
L 616.482428 88.101976 
L 618.570533 88.430588 
L 620.658638 89.312614 
L 622.746744 88.247509 
L 624.834849 88.166952 
L 626.922954 88.794513 
L 629.011059 87.892782 
L 631.099164 87.894349 
L 633.187269 89.690896 
L 637.36348 89.832364 
L 639.451585 90.254249 
L 641.53969 89.704927 
L 643.627795 89.537481 
L 645.715901 90.049962 
L 647.804006 91.442668 
L 651.980216 89.510599 
L 654.068321 90.588253 
L 656.156427 90.585655 
L 658.244532 89.316447 
L 660.332637 91.174471 
L 662.420742 92.491945 
L 664.508847 91.638585 
L 666.596952 91.418507 
L 668.685058 91.646326 
L 670.773163 92.293142 
L 672.861268 93.121417 
L 674.949373 92.294275 
L 677.037478 95.790816 
L 679.125584 94.141235 
L 681.213689 95.444072 
L 683.301794 95.339202 
L 685.389899 96.454935 
L 687.478004 94.270229 
L 689.56611 96.419641 
L 691.654215 96.560527 
L 693.74232 95.377428 
L 695.830425 94.882244 
L 697.91853 94.794726 
L 702.094741 96.022593 
L 704.182846 96.033941 
L 708.359056 94.567773 
L 710.447161 95.432789 
L 712.535267 95.623762 
L 714.623372 95.095964 
L 716.711477 94.721894 
L 718.799582 96.878412 
L 720.887687 96.747574 
L 722.975793 97.265294 
L 725.063898 98.235356 
L 727.152003 98.015296 
L 729.240108 98.490165 
L 731.328213 96.662835 
L 733.416318 96.527218 
L 735.504424 95.038383 
L 737.592529 94.693038 
L 739.680634 95.33146 
L 741.768739 96.938481 
L 743.856844 95.123792 
L 745.94495 95.310073 
L 750.12116 95.213563 
L 752.209265 95.705916 
L 754.29737 96.535868 
L 756.385476 96.486011 
L 758.473581 95.234518 
L 760.561686 95.289878 
L 762.649791 95.87205 
L 764.737896 95.69301 
L 766.826001 97.253234 
L 768.914107 96.742319 
L 771.002212 97.209455 
L 773.090317 96.678446 
L 775.178422 95.412429 
L 777.266527 97.010001 
L 779.354633 97.420327 
L 781.442738 97.054439 
L 785.618948 94.303228 
L 787.707053 95.018277 
L 791.883264 95.644931 
L 798.147579 98.025206 
L 800.235684 98.371422 
L 802.32379 97.392598 
L 804.411895 96.869564 
L 804.411895 96.869564 
" style="fill:none;stroke:#d3d3d3;stroke-dasharray:11.1,4.8;stroke-dashoffset:0;stroke-width:3;"/>
   </g>
   <g id="line2d_52">
    <path clip-path="url(#p75c68bd6fa)" style="fill:none;stroke:#000000;stroke-linecap:square;stroke-width:1.5;"/>
   </g>
   <g id="patch_3">
    <path d="M 81.9275 206.298438 
L 806.5 206.298438 
" style="fill:none;stroke:#000000;stroke-linecap:square;stroke-linejoin:miter;stroke-width:0.8;"/>
   </g>
   <g id="legend_1">
    <g id="patch_4">
     <path d="M 91.7275 199.298438 
L 174.6775 199.298438 
Q 177.4775 199.298438 177.4775 196.498438 
L 177.4775 136.250313 
Q 177.4775 133.450312 174.6775 133.450312 
L 91.7275 133.450312 
Q 88.9275 133.450312 88.9275 136.250313 
L 88.9275 196.498438 
Q 88.9275 199.298438 91.7275 199.298438 
z
" style="fill:#ffffff;opacity:0.8;stroke:#cccccc;stroke-linejoin:miter;"/>
    </g>
    <g id="line2d_53">
     <path d="M 94.5275 144.788125 
L 122.5275 144.788125 
" style="fill:none;stroke:#000000;stroke-linecap:square;stroke-width:3;"/>
    </g>
    <g id="line2d_54"/>
    <g id="text_14">
     <!-- LFPR -->
     <defs>
      <path d="M 9.8125 72.90625 
L 19.671875 72.90625 
L 19.671875 8.296875 
L 55.171875 8.296875 
L 55.171875 0 
L 9.8125 0 
z
" id="DejaVuSans-4c"/>
      <path d="M 9.8125 72.90625 
L 51.703125 72.90625 
L 51.703125 64.59375 
L 19.671875 64.59375 
L 19.671875 43.109375 
L 48.578125 43.109375 
L 48.578125 34.8125 
L 19.671875 34.8125 
L 19.671875 0 
L 9.8125 0 
z
" id="DejaVuSans-46"/>
      <path d="M 44.390625 34.1875 
Q 47.5625 33.109375 50.5625 29.59375 
Q 53.5625 26.078125 56.59375 19.921875 
L 66.609375 0 
L 56 0 
L 46.6875 18.703125 
Q 43.0625 26.03125 39.671875 28.421875 
Q 36.28125 30.8125 30.421875 30.8125 
L 19.671875 30.8125 
L 19.671875 0 
L 9.8125 0 
L 9.8125 72.90625 
L 32.078125 72.90625 
Q 44.578125 72.90625 50.734375 67.671875 
Q 56.890625 62.453125 56.890625 51.90625 
Q 56.890625 45.015625 53.6875 40.46875 
Q 50.484375 35.9375 44.390625 34.1875 
z
M 19.671875 64.796875 
L 19.671875 38.921875 
L 32.078125 38.921875 
Q 39.203125 38.921875 42.84375 42.21875 
Q 46.484375 45.515625 46.484375 51.90625 
Q 46.484375 58.296875 42.84375 61.546875 
Q 39.203125 64.796875 32.078125 64.796875 
z
" id="DejaVuSans-52"/>
     </defs>
     <g transform="translate(133.7275 149.688125)scale(0.14 -0.14)">
      <use xlink:href="#DejaVuSans-4c"/>
      <use x="55.712891" xlink:href="#DejaVuSans-46"/>
      <use x="113.232422" xlink:href="#DejaVuSans-50"/>
      <use x="173.535156" xlink:href="#DejaVuSans-52"/>
     </g>
    </g>
    <g id="line2d_55">
     <path d="M 94.5275 165.3375 
L 122.5275 165.3375 
" style="fill:none;stroke:#696969;stroke-dasharray:11.1,4.8;stroke-dashoffset:0;stroke-width:3;"/>
    </g>
    <g id="line2d_56"/>
    <g id="text_15">
     <!-- EPOP -->
     <defs>
      <path d="M 9.8125 72.90625 
L 55.90625 72.90625 
L 55.90625 64.59375 
L 19.671875 64.59375 
L 19.671875 43.015625 
L 54.390625 43.015625 
L 54.390625 34.71875 
L 19.671875 34.71875 
L 19.671875 8.296875 
L 56.78125 8.296875 
L 56.78125 0 
L 9.8125 0 
z
" id="DejaVuSans-45"/>
      <path d="M 39.40625 66.21875 
Q 28.65625 66.21875 22.328125 58.203125 
Q 16.015625 50.203125 16.015625 36.375 
Q 16.015625 22.609375 22.328125 14.59375 
Q 28.65625 6.59375 39.40625 6.59375 
Q 50.140625 6.59375 56.421875 14.59375 
Q 62.703125 22.609375 62.703125 36.375 
Q 62.703125 50.203125 56.421875 58.203125 
Q 50.140625 66.21875 39.40625 66.21875 
z
M 39.40625 74.21875 
Q 54.734375 74.21875 63.90625 63.9375 
Q 73.09375 53.65625 73.09375 36.375 
Q 73.09375 19.140625 63.90625 8.859375 
Q 54.734375 -1.421875 39.40625 -1.421875 
Q 24.03125 -1.421875 14.8125 8.828125 
Q 5.609375 19.09375 5.609375 36.375 
Q 5.609375 53.65625 14.8125 63.9375 
Q 24.03125 74.21875 39.40625 74.21875 
z
" id="DejaVuSans-4f"/>
     </defs>
     <g transform="translate(133.7275 170.2375)scale(0.14 -0.14)">
      <use xlink:href="#DejaVuSans-45"/>
      <use x="63.183594" xlink:href="#DejaVuSans-50"/>
      <use x="123.486328" xlink:href="#DejaVuSans-4f"/>
      <use x="202.197266" xlink:href="#DejaVuSans-50"/>
     </g>
    </g>
    <g id="line2d_57">
     <path d="M 94.5275 185.886875 
L 122.5275 185.886875 
" style="fill:none;stroke:#d3d3d3;stroke-dasharray:11.1,4.8;stroke-dashoffset:0;stroke-width:3;"/>
    </g>
    <g id="line2d_58"/>
    <g id="text_16">
     <!-- UPOP -->
     <defs>
      <path d="M 8.6875 72.90625 
L 18.609375 72.90625 
L 18.609375 28.609375 
Q 18.609375 16.890625 22.84375 11.734375 
Q 27.09375 6.59375 36.625 6.59375 
Q 46.09375 6.59375 50.34375 11.734375 
Q 54.59375 16.890625 54.59375 28.609375 
L 54.59375 72.90625 
L 64.5 72.90625 
L 64.5 27.390625 
Q 64.5 13.140625 57.4375 5.859375 
Q 50.390625 -1.421875 36.625 -1.421875 
Q 22.796875 -1.421875 15.734375 5.859375 
Q 8.6875 13.140625 8.6875 27.390625 
z
" id="DejaVuSans-55"/>
     </defs>
     <g transform="translate(133.7275 190.786875)scale(0.14 -0.14)">
      <use xlink:href="#DejaVuSans-55"/>
      <use x="73.193359" xlink:href="#DejaVuSans-50"/>
      <use x="133.496094" xlink:href="#DejaVuSans-4f"/>
      <use x="212.207031" xlink:href="#DejaVuSans-50"/>
     </g>
    </g>
   </g>
  </g>
 </g>
 <defs>
  <clipPath id="p75c68bd6fa">
   <rect height="172.919453" width="724.5725" x="81.9275" y="33.378984"/>
  </clipPath>
 </defs>
</svg>
