<?xml version="1.0" encoding="utf-8" standalone="no"?>
<!DOCTYPE svg PUBLIC "-//W3C//DTD SVG 1.1//EN"
  "http://www.w3.org/Graphics/SVG/1.1/DTD/svg11.dtd">
<!-- Created with matplotlib (http://matplotlib.org/) -->
<svg height="432pt" version="1.1" viewBox="0 0 972 432" width="972pt" xmlns="http://www.w3.org/2000/svg" xmlns:xlink="http://www.w3.org/1999/xlink">
 <defs>
  <style type="text/css">
*{stroke-linecap:butt;stroke-linejoin:round;}
  </style>
 </defs>
 <g id="figure_1">
  <g id="patch_1">
   <path d="M 0 432 
L 972 432 
L 972 0 
L 0 0 
z
" style="fill:none;"/>
  </g>
  <g id="axes_1">
   <g id="patch_2">
    <path d="M 72.9 388.8 
L 923.4 388.8 
L 923.4 51.84 
L 72.9 51.84 
z
" style="fill:none;"/>
   </g>
   <g id="PolyCollection_1">
    <path clip-path="url(#p2fcb93515f)" d="M 90.057061 51.84 
L 90.057061 388.8 
L 92.508069 388.8 
L 94.959078 388.8 
L 97.410086 388.8 
L 99.861095 388.8 
L 102.312104 388.8 
L 104.763112 388.8 
L 107.214121 388.8 
L 107.214121 51.84 
L 107.214121 51.84 
L 104.763112 51.84 
L 102.312104 51.84 
L 99.861095 51.84 
L 97.410086 51.84 
L 94.959078 51.84 
L 92.508069 51.84 
L 90.057061 51.84 
z
" style="fill:#bbbbbb;fill-opacity:0.3;stroke:#bbbbbb;stroke-opacity:0.3;"/>
    <path clip-path="url(#p2fcb93515f)" d="M 403.786167 51.84 
L 403.786167 388.8 
L 406.237176 388.8 
L 408.688184 388.8 
L 411.139193 388.8 
L 413.590202 388.8 
L 416.04121 388.8 
L 418.492219 388.8 
L 420.943228 388.8 
L 420.943228 51.84 
L 420.943228 51.84 
L 418.492219 51.84 
L 416.04121 51.84 
L 413.590202 51.84 
L 411.139193 51.84 
L 408.688184 51.84 
L 406.237176 51.84 
L 403.786167 51.84 
z
" style="fill:#bbbbbb;fill-opacity:0.3;stroke:#bbbbbb;stroke-opacity:0.3;"/>
    <path clip-path="url(#p2fcb93515f)" d="M 602.317867 51.84 
L 602.317867 388.8 
L 604.768876 388.8 
L 607.219885 388.8 
L 609.670893 388.8 
L 612.121902 388.8 
L 614.572911 388.8 
L 617.023919 388.8 
L 619.474928 388.8 
L 621.925937 388.8 
L 624.376945 388.8 
L 626.827954 388.8 
L 629.278963 388.8 
L 631.729971 388.8 
L 634.18098 388.8 
L 636.631988 388.8 
L 639.082997 388.8 
L 641.534006 388.8 
L 643.985014 388.8 
L 643.985014 51.84 
L 643.985014 51.84 
L 641.534006 51.84 
L 639.082997 51.84 
L 636.631988 51.84 
L 634.18098 51.84 
L 631.729971 51.84 
L 629.278963 51.84 
L 626.827954 51.84 
L 624.376945 51.84 
L 621.925937 51.84 
L 619.474928 51.84 
L 617.023919 51.84 
L 614.572911 51.84 
L 612.121902 51.84 
L 609.670893 51.84 
L 607.219885 51.84 
L 604.768876 51.84 
L 602.317867 51.84 
z
" style="fill:#bbbbbb;fill-opacity:0.3;stroke:#bbbbbb;stroke-opacity:0.3;"/>
   </g>
   <g id="matplotlib.axis_1">
    <g id="xtick_1">
     <g id="line2d_1">
      <defs>
       <path d="M 0 0 
L 0 3.5 
" id="m78e0476adb" style="stroke:#000000;stroke-width:0.8;"/>
      </defs>
      <g>
       <use style="stroke:#000000;stroke-width:0.8;" x="190.548415" xlink:href="#m78e0476adb" y="388.8"/>
      </g>
     </g>
     <g id="text_1">
      <!-- 1994 -->
      <defs>
       <path d="M 12.40625 8.296875 
L 28.515625 8.296875 
L 28.515625 63.921875 
L 10.984375 60.40625 
L 10.984375 69.390625 
L 28.421875 72.90625 
L 38.28125 72.90625 
L 38.28125 8.296875 
L 54.390625 8.296875 
L 54.390625 0 
L 12.40625 0 
z
" id="DejaVuSans-31"/>
       <path d="M 10.984375 1.515625 
L 10.984375 10.5 
Q 14.703125 8.734375 18.5 7.8125 
Q 22.3125 6.890625 25.984375 6.890625 
Q 35.75 6.890625 40.890625 13.453125 
Q 46.046875 20.015625 46.78125 33.40625 
Q 43.953125 29.203125 39.59375 26.953125 
Q 35.25 24.703125 29.984375 24.703125 
Q 19.046875 24.703125 12.671875 31.3125 
Q 6.296875 37.9375 6.296875 49.421875 
Q 6.296875 60.640625 12.9375 67.421875 
Q 19.578125 74.21875 30.609375 74.21875 
Q 43.265625 74.21875 49.921875 64.515625 
Q 56.59375 54.828125 56.59375 36.375 
Q 56.59375 19.140625 48.40625 8.859375 
Q 40.234375 -1.421875 26.421875 -1.421875 
Q 22.703125 -1.421875 18.890625 -0.6875 
Q 15.09375 0.046875 10.984375 1.515625 
z
M 30.609375 32.421875 
Q 37.25 32.421875 41.125 36.953125 
Q 45.015625 41.5 45.015625 49.421875 
Q 45.015625 57.28125 41.125 61.84375 
Q 37.25 66.40625 30.609375 66.40625 
Q 23.96875 66.40625 20.09375 61.84375 
Q 16.21875 57.28125 16.21875 49.421875 
Q 16.21875 41.5 20.09375 36.953125 
Q 23.96875 32.421875 30.609375 32.421875 
z
" id="DejaVuSans-39"/>
       <path d="M 37.796875 64.3125 
L 12.890625 25.390625 
L 37.796875 25.390625 
z
M 35.203125 72.90625 
L 47.609375 72.90625 
L 47.609375 25.390625 
L 58.015625 25.390625 
L 58.015625 17.1875 
L 47.609375 17.1875 
L 47.609375 0 
L 37.796875 0 
L 37.796875 17.1875 
L 4.890625 17.1875 
L 4.890625 26.703125 
z
" id="DejaVuSans-34"/>
      </defs>
      <g transform="translate(172.733415 407.937813)scale(0.14 -0.14)">
       <use xlink:href="#DejaVuSans-31"/>
       <use x="63.623047" xlink:href="#DejaVuSans-39"/>
       <use x="127.246094" xlink:href="#DejaVuSans-39"/>
       <use x="190.869141" xlink:href="#DejaVuSans-34"/>
      </g>
     </g>
    </g>
    <g id="xtick_2">
     <g id="line2d_2">
      <g>
       <use style="stroke:#000000;stroke-width:0.8;" x="337.608934" xlink:href="#m78e0476adb" y="388.8"/>
      </g>
     </g>
     <g id="text_2">
      <!-- 1999 -->
      <g transform="translate(319.793934 407.937813)scale(0.14 -0.14)">
       <use xlink:href="#DejaVuSans-31"/>
       <use x="63.623047" xlink:href="#DejaVuSans-39"/>
       <use x="127.246094" xlink:href="#DejaVuSans-39"/>
       <use x="190.869141" xlink:href="#DejaVuSans-39"/>
      </g>
     </g>
    </g>
    <g id="xtick_3">
     <g id="line2d_3">
      <g>
       <use style="stroke:#000000;stroke-width:0.8;" x="484.669452" xlink:href="#m78e0476adb" y="388.8"/>
      </g>
     </g>
     <g id="text_3">
      <!-- 2004 -->
      <defs>
       <path d="M 19.1875 8.296875 
L 53.609375 8.296875 
L 53.609375 0 
L 7.328125 0 
L 7.328125 8.296875 
Q 12.9375 14.109375 22.625 23.890625 
Q 32.328125 33.6875 34.8125 36.53125 
Q 39.546875 41.84375 41.421875 45.53125 
Q 43.3125 49.21875 43.3125 52.78125 
Q 43.3125 58.59375 39.234375 62.25 
Q 35.15625 65.921875 28.609375 65.921875 
Q 23.96875 65.921875 18.8125 64.3125 
Q 13.671875 62.703125 7.8125 59.421875 
L 7.8125 69.390625 
Q 13.765625 71.78125 18.9375 73 
Q 24.125 74.21875 28.421875 74.21875 
Q 39.75 74.21875 46.484375 68.546875 
Q 53.21875 62.890625 53.21875 53.421875 
Q 53.21875 48.921875 51.53125 44.890625 
Q 49.859375 40.875 45.40625 35.40625 
Q 44.1875 33.984375 37.640625 27.21875 
Q 31.109375 20.453125 19.1875 8.296875 
z
" id="DejaVuSans-32"/>
       <path d="M 31.78125 66.40625 
Q 24.171875 66.40625 20.328125 58.90625 
Q 16.5 51.421875 16.5 36.375 
Q 16.5 21.390625 20.328125 13.890625 
Q 24.171875 6.390625 31.78125 6.390625 
Q 39.453125 6.390625 43.28125 13.890625 
Q 47.125 21.390625 47.125 36.375 
Q 47.125 51.421875 43.28125 58.90625 
Q 39.453125 66.40625 31.78125 66.40625 
z
M 31.78125 74.21875 
Q 44.046875 74.21875 50.515625 64.515625 
Q 56.984375 54.828125 56.984375 36.375 
Q 56.984375 17.96875 50.515625 8.265625 
Q 44.046875 -1.421875 31.78125 -1.421875 
Q 19.53125 -1.421875 13.0625 8.265625 
Q 6.59375 17.96875 6.59375 36.375 
Q 6.59375 54.828125 13.0625 64.515625 
Q 19.53125 74.21875 31.78125 74.21875 
z
" id="DejaVuSans-30"/>
      </defs>
      <g transform="translate(466.854452 407.937813)scale(0.14 -0.14)">
       <use xlink:href="#DejaVuSans-32"/>
       <use x="63.623047" xlink:href="#DejaVuSans-30"/>
       <use x="127.246094" xlink:href="#DejaVuSans-30"/>
       <use x="190.869141" xlink:href="#DejaVuSans-34"/>
      </g>
     </g>
    </g>
    <g id="xtick_4">
     <g id="line2d_4">
      <g>
       <use style="stroke:#000000;stroke-width:0.8;" x="631.729971" xlink:href="#m78e0476adb" y="388.8"/>
      </g>
     </g>
     <g id="text_4">
      <!-- 2009 -->
      <g transform="translate(613.914971 407.937813)scale(0.14 -0.14)">
       <use xlink:href="#DejaVuSans-32"/>
       <use x="63.623047" xlink:href="#DejaVuSans-30"/>
       <use x="127.246094" xlink:href="#DejaVuSans-30"/>
       <use x="190.869141" xlink:href="#DejaVuSans-39"/>
      </g>
     </g>
    </g>
    <g id="xtick_5">
     <g id="line2d_5">
      <g>
       <use style="stroke:#000000;stroke-width:0.8;" x="778.79049" xlink:href="#m78e0476adb" y="388.8"/>
      </g>
     </g>
     <g id="text_5">
      <!-- 2014 -->
      <g transform="translate(760.97549 407.937813)scale(0.14 -0.14)">
       <use xlink:href="#DejaVuSans-32"/>
       <use x="63.623047" xlink:href="#DejaVuSans-30"/>
       <use x="127.246094" xlink:href="#DejaVuSans-31"/>
       <use x="190.869141" xlink:href="#DejaVuSans-34"/>
      </g>
     </g>
    </g>
    <g id="xtick_6">
     <g id="line2d_6">
      <defs>
       <path d="M 0 0 
L 0 2 
" id="m2ae11743c1" style="stroke:#000000;stroke-width:0.6;"/>
      </defs>
      <g>
       <use style="stroke:#000000;stroke-width:0.6;" x="72.9" xlink:href="#m2ae11743c1" y="388.8"/>
      </g>
     </g>
    </g>
    <g id="xtick_7">
     <g id="line2d_7">
      <g>
       <use style="stroke:#000000;stroke-width:0.6;" x="102.312104" xlink:href="#m2ae11743c1" y="388.8"/>
      </g>
     </g>
    </g>
    <g id="xtick_8">
     <g id="line2d_8">
      <g>
       <use style="stroke:#000000;stroke-width:0.6;" x="131.724207" xlink:href="#m2ae11743c1" y="388.8"/>
      </g>
     </g>
    </g>
    <g id="xtick_9">
     <g id="line2d_9">
      <g>
       <use style="stroke:#000000;stroke-width:0.6;" x="161.136311" xlink:href="#m2ae11743c1" y="388.8"/>
      </g>
     </g>
    </g>
    <g id="xtick_10">
     <g id="line2d_10">
      <g>
       <use style="stroke:#000000;stroke-width:0.6;" x="190.548415" xlink:href="#m2ae11743c1" y="388.8"/>
      </g>
     </g>
    </g>
    <g id="xtick_11">
     <g id="line2d_11">
      <g>
       <use style="stroke:#000000;stroke-width:0.6;" x="219.960519" xlink:href="#m2ae11743c1" y="388.8"/>
      </g>
     </g>
    </g>
    <g id="xtick_12">
     <g id="line2d_12">
      <g>
       <use style="stroke:#000000;stroke-width:0.6;" x="249.372622" xlink:href="#m2ae11743c1" y="388.8"/>
      </g>
     </g>
    </g>
    <g id="xtick_13">
     <g id="line2d_13">
      <g>
       <use style="stroke:#000000;stroke-width:0.6;" x="278.784726" xlink:href="#m2ae11743c1" y="388.8"/>
      </g>
     </g>
    </g>
    <g id="xtick_14">
     <g id="line2d_14">
      <g>
       <use style="stroke:#000000;stroke-width:0.6;" x="308.19683" xlink:href="#m2ae11743c1" y="388.8"/>
      </g>
     </g>
    </g>
    <g id="xtick_15">
     <g id="line2d_15">
      <g>
       <use style="stroke:#000000;stroke-width:0.6;" x="337.608934" xlink:href="#m2ae11743c1" y="388.8"/>
      </g>
     </g>
    </g>
    <g id="xtick_16">
     <g id="line2d_16">
      <g>
       <use style="stroke:#000000;stroke-width:0.6;" x="367.021037" xlink:href="#m2ae11743c1" y="388.8"/>
      </g>
     </g>
    </g>
    <g id="xtick_17">
     <g id="line2d_17">
      <g>
       <use style="stroke:#000000;stroke-width:0.6;" x="396.433141" xlink:href="#m2ae11743c1" y="388.8"/>
      </g>
     </g>
    </g>
    <g id="xtick_18">
     <g id="line2d_18">
      <g>
       <use style="stroke:#000000;stroke-width:0.6;" x="425.845245" xlink:href="#m2ae11743c1" y="388.8"/>
      </g>
     </g>
    </g>
    <g id="xtick_19">
     <g id="line2d_19">
      <g>
       <use style="stroke:#000000;stroke-width:0.6;" x="455.257349" xlink:href="#m2ae11743c1" y="388.8"/>
      </g>
     </g>
    </g>
    <g id="xtick_20">
     <g id="line2d_20">
      <g>
       <use style="stroke:#000000;stroke-width:0.6;" x="484.669452" xlink:href="#m2ae11743c1" y="388.8"/>
      </g>
     </g>
    </g>
    <g id="xtick_21">
     <g id="line2d_21">
      <g>
       <use style="stroke:#000000;stroke-width:0.6;" x="514.081556" xlink:href="#m2ae11743c1" y="388.8"/>
      </g>
     </g>
    </g>
    <g id="xtick_22">
     <g id="line2d_22">
      <g>
       <use style="stroke:#000000;stroke-width:0.6;" x="543.49366" xlink:href="#m2ae11743c1" y="388.8"/>
      </g>
     </g>
    </g>
    <g id="xtick_23">
     <g id="line2d_23">
      <g>
       <use style="stroke:#000000;stroke-width:0.6;" x="572.905764" xlink:href="#m2ae11743c1" y="388.8"/>
      </g>
     </g>
    </g>
    <g id="xtick_24">
     <g id="line2d_24">
      <g>
       <use style="stroke:#000000;stroke-width:0.6;" x="602.317867" xlink:href="#m2ae11743c1" y="388.8"/>
      </g>
     </g>
    </g>
    <g id="xtick_25">
     <g id="line2d_25">
      <g>
       <use style="stroke:#000000;stroke-width:0.6;" x="631.729971" xlink:href="#m2ae11743c1" y="388.8"/>
      </g>
     </g>
    </g>
    <g id="xtick_26">
     <g id="line2d_26">
      <g>
       <use style="stroke:#000000;stroke-width:0.6;" x="661.142075" xlink:href="#m2ae11743c1" y="388.8"/>
      </g>
     </g>
    </g>
    <g id="xtick_27">
     <g id="line2d_27">
      <g>
       <use style="stroke:#000000;stroke-width:0.6;" x="690.554179" xlink:href="#m2ae11743c1" y="388.8"/>
      </g>
     </g>
    </g>
    <g id="xtick_28">
     <g id="line2d_28">
      <g>
       <use style="stroke:#000000;stroke-width:0.6;" x="719.966282" xlink:href="#m2ae11743c1" y="388.8"/>
      </g>
     </g>
    </g>
    <g id="xtick_29">
     <g id="line2d_29">
      <g>
       <use style="stroke:#000000;stroke-width:0.6;" x="749.378386" xlink:href="#m2ae11743c1" y="388.8"/>
      </g>
     </g>
    </g>
    <g id="xtick_30">
     <g id="line2d_30">
      <g>
       <use style="stroke:#000000;stroke-width:0.6;" x="778.79049" xlink:href="#m2ae11743c1" y="388.8"/>
      </g>
     </g>
    </g>
    <g id="xtick_31">
     <g id="line2d_31">
      <g>
       <use style="stroke:#000000;stroke-width:0.6;" x="808.202594" xlink:href="#m2ae11743c1" y="388.8"/>
      </g>
     </g>
    </g>
    <g id="xtick_32">
     <g id="line2d_32">
      <g>
       <use style="stroke:#000000;stroke-width:0.6;" x="837.614697" xlink:href="#m2ae11743c1" y="388.8"/>
      </g>
     </g>
    </g>
    <g id="xtick_33">
     <g id="line2d_33">
      <g>
       <use style="stroke:#000000;stroke-width:0.6;" x="867.026801" xlink:href="#m2ae11743c1" y="388.8"/>
      </g>
     </g>
    </g>
    <g id="xtick_34">
     <g id="line2d_34">
      <g>
       <use style="stroke:#000000;stroke-width:0.6;" x="896.438905" xlink:href="#m2ae11743c1" y="388.8"/>
      </g>
     </g>
    </g>
   </g>
   <g id="matplotlib.axis_2">
    <g id="ytick_1">
     <g id="line2d_35">
      <path clip-path="url(#p2fcb93515f)" d="M 72.9 372.453328 
L 923.4 372.453328 
" style="fill:none;stroke:#000000;stroke-dasharray:0.8,1.32;stroke-dashoffset:0;stroke-width:0.8;"/>
     </g>
     <g id="line2d_36">
      <defs>
       <path d="M 0 0 
L -3.5 0 
" id="me2b67d44ae" style="stroke:#000000;stroke-width:0.8;"/>
      </defs>
      <g>
       <use style="stroke:#000000;stroke-width:0.8;" x="72.9" xlink:href="#me2b67d44ae" y="372.453328"/>
      </g>
     </g>
     <g id="text_6">
      <!-- −8 -->
      <defs>
       <path d="M 10.59375 35.5 
L 73.1875 35.5 
L 73.1875 27.203125 
L 10.59375 27.203125 
z
" id="DejaVuSans-2212"/>
       <path d="M 31.78125 34.625 
Q 24.75 34.625 20.71875 30.859375 
Q 16.703125 27.09375 16.703125 20.515625 
Q 16.703125 13.921875 20.71875 10.15625 
Q 24.75 6.390625 31.78125 6.390625 
Q 38.8125 6.390625 42.859375 10.171875 
Q 46.921875 13.96875 46.921875 20.515625 
Q 46.921875 27.09375 42.890625 30.859375 
Q 38.875 34.625 31.78125 34.625 
z
M 21.921875 38.8125 
Q 15.578125 40.375 12.03125 44.71875 
Q 8.5 49.078125 8.5 55.328125 
Q 8.5 64.0625 14.71875 69.140625 
Q 20.953125 74.21875 31.78125 74.21875 
Q 42.671875 74.21875 48.875 69.140625 
Q 55.078125 64.0625 55.078125 55.328125 
Q 55.078125 49.078125 51.53125 44.71875 
Q 48 40.375 41.703125 38.8125 
Q 48.828125 37.15625 52.796875 32.3125 
Q 56.78125 27.484375 56.78125 20.515625 
Q 56.78125 9.90625 50.3125 4.234375 
Q 43.84375 -1.421875 31.78125 -1.421875 
Q 19.734375 -1.421875 13.25 4.234375 
Q 6.78125 9.90625 6.78125 20.515625 
Q 6.78125 27.484375 10.78125 32.3125 
Q 14.796875 37.15625 21.921875 38.8125 
z
M 18.3125 54.390625 
Q 18.3125 48.734375 21.84375 45.5625 
Q 25.390625 42.390625 31.78125 42.390625 
Q 38.140625 42.390625 41.71875 45.5625 
Q 45.3125 48.734375 45.3125 54.390625 
Q 45.3125 60.0625 41.71875 63.234375 
Q 38.140625 66.40625 31.78125 66.40625 
Q 25.390625 66.40625 21.84375 63.234375 
Q 18.3125 60.0625 18.3125 54.390625 
z
" id="DejaVuSans-38"/>
      </defs>
      <g transform="translate(45.760937 377.772235)scale(0.14 -0.14)">
       <use xlink:href="#DejaVuSans-2212"/>
       <use x="83.789062" xlink:href="#DejaVuSans-38"/>
      </g>
     </g>
    </g>
    <g id="ytick_2">
     <g id="line2d_37">
      <path clip-path="url(#p2fcb93515f)" d="M 72.9 313.273136 
L 923.4 313.273136 
" style="fill:none;stroke:#000000;stroke-dasharray:0.8,1.32;stroke-dashoffset:0;stroke-width:0.8;"/>
     </g>
     <g id="line2d_38">
      <g>
       <use style="stroke:#000000;stroke-width:0.8;" x="72.9" xlink:href="#me2b67d44ae" y="313.273136"/>
      </g>
     </g>
     <g id="text_7">
      <!-- −6 -->
      <defs>
       <path d="M 33.015625 40.375 
Q 26.375 40.375 22.484375 35.828125 
Q 18.609375 31.296875 18.609375 23.390625 
Q 18.609375 15.53125 22.484375 10.953125 
Q 26.375 6.390625 33.015625 6.390625 
Q 39.65625 6.390625 43.53125 10.953125 
Q 47.40625 15.53125 47.40625 23.390625 
Q 47.40625 31.296875 43.53125 35.828125 
Q 39.65625 40.375 33.015625 40.375 
z
M 52.59375 71.296875 
L 52.59375 62.3125 
Q 48.875 64.0625 45.09375 64.984375 
Q 41.3125 65.921875 37.59375 65.921875 
Q 27.828125 65.921875 22.671875 59.328125 
Q 17.53125 52.734375 16.796875 39.40625 
Q 19.671875 43.65625 24.015625 45.921875 
Q 28.375 48.1875 33.59375 48.1875 
Q 44.578125 48.1875 50.953125 41.515625 
Q 57.328125 34.859375 57.328125 23.390625 
Q 57.328125 12.15625 50.6875 5.359375 
Q 44.046875 -1.421875 33.015625 -1.421875 
Q 20.359375 -1.421875 13.671875 8.265625 
Q 6.984375 17.96875 6.984375 36.375 
Q 6.984375 53.65625 15.1875 63.9375 
Q 23.390625 74.21875 37.203125 74.21875 
Q 40.921875 74.21875 44.703125 73.484375 
Q 48.484375 72.75 52.59375 71.296875 
z
" id="DejaVuSans-36"/>
      </defs>
      <g transform="translate(45.760937 318.592042)scale(0.14 -0.14)">
       <use xlink:href="#DejaVuSans-2212"/>
       <use x="83.789062" xlink:href="#DejaVuSans-36"/>
      </g>
     </g>
    </g>
    <g id="ytick_3">
     <g id="line2d_39">
      <path clip-path="url(#p2fcb93515f)" d="M 72.9 254.092944 
L 923.4 254.092944 
" style="fill:none;stroke:#000000;stroke-dasharray:0.8,1.32;stroke-dashoffset:0;stroke-width:0.8;"/>
     </g>
     <g id="line2d_40">
      <g>
       <use style="stroke:#000000;stroke-width:0.8;" x="72.9" xlink:href="#me2b67d44ae" y="254.092944"/>
      </g>
     </g>
     <g id="text_8">
      <!-- −4 -->
      <g transform="translate(45.760937 259.41185)scale(0.14 -0.14)">
       <use xlink:href="#DejaVuSans-2212"/>
       <use x="83.789062" xlink:href="#DejaVuSans-34"/>
      </g>
     </g>
    </g>
    <g id="ytick_4">
     <g id="line2d_41">
      <path clip-path="url(#p2fcb93515f)" d="M 72.9 194.912752 
L 923.4 194.912752 
" style="fill:none;stroke:#000000;stroke-dasharray:0.8,1.32;stroke-dashoffset:0;stroke-width:0.8;"/>
     </g>
     <g id="line2d_42">
      <g>
       <use style="stroke:#000000;stroke-width:0.8;" x="72.9" xlink:href="#me2b67d44ae" y="194.912752"/>
      </g>
     </g>
     <g id="text_9">
      <!-- −2 -->
      <g transform="translate(45.760937 200.231658)scale(0.14 -0.14)">
       <use xlink:href="#DejaVuSans-2212"/>
       <use x="83.789062" xlink:href="#DejaVuSans-32"/>
      </g>
     </g>
    </g>
    <g id="ytick_5">
     <g id="line2d_43">
      <path clip-path="url(#p2fcb93515f)" d="M 72.9 135.73256 
L 923.4 135.73256 
" style="fill:none;stroke:#000000;stroke-dasharray:0.8,1.32;stroke-dashoffset:0;stroke-width:0.8;"/>
     </g>
     <g id="line2d_44">
      <g>
       <use style="stroke:#000000;stroke-width:0.8;" x="72.9" xlink:href="#me2b67d44ae" y="135.73256"/>
      </g>
     </g>
     <g id="text_10">
      <!-- 0 -->
      <g transform="translate(57.4925 141.051466)scale(0.14 -0.14)">
       <use xlink:href="#DejaVuSans-30"/>
      </g>
     </g>
    </g>
    <g id="ytick_6">
     <g id="line2d_45">
      <path clip-path="url(#p2fcb93515f)" d="M 72.9 76.552367 
L 923.4 76.552367 
" style="fill:none;stroke:#000000;stroke-dasharray:0.8,1.32;stroke-dashoffset:0;stroke-width:0.8;"/>
     </g>
     <g id="line2d_46">
      <g>
       <use style="stroke:#000000;stroke-width:0.8;" x="72.9" xlink:href="#me2b67d44ae" y="76.552367"/>
      </g>
     </g>
     <g id="text_11">
      <!-- 2 -->
      <g transform="translate(57.4925 81.871274)scale(0.14 -0.14)">
       <use xlink:href="#DejaVuSans-32"/>
      </g>
     </g>
    </g>
    <g id="text_12">
     <!-- Percentage point -->
     <defs>
      <path d="M 19.671875 64.796875 
L 19.671875 37.40625 
L 32.078125 37.40625 
Q 38.96875 37.40625 42.71875 40.96875 
Q 46.484375 44.53125 46.484375 51.125 
Q 46.484375 57.671875 42.71875 61.234375 
Q 38.96875 64.796875 32.078125 64.796875 
z
M 9.8125 72.90625 
L 32.078125 72.90625 
Q 44.34375 72.90625 50.609375 67.359375 
Q 56.890625 61.8125 56.890625 51.125 
Q 56.890625 40.328125 50.609375 34.8125 
Q 44.34375 29.296875 32.078125 29.296875 
L 19.671875 29.296875 
L 19.671875 0 
L 9.8125 0 
z
" id="DejaVuSans-50"/>
      <path d="M 56.203125 29.59375 
L 56.203125 25.203125 
L 14.890625 25.203125 
Q 15.484375 15.921875 20.484375 11.0625 
Q 25.484375 6.203125 34.421875 6.203125 
Q 39.59375 6.203125 44.453125 7.46875 
Q 49.3125 8.734375 54.109375 11.28125 
L 54.109375 2.78125 
Q 49.265625 0.734375 44.1875 -0.34375 
Q 39.109375 -1.421875 33.890625 -1.421875 
Q 20.796875 -1.421875 13.15625 6.1875 
Q 5.515625 13.8125 5.515625 26.8125 
Q 5.515625 40.234375 12.765625 48.109375 
Q 20.015625 56 32.328125 56 
Q 43.359375 56 49.78125 48.890625 
Q 56.203125 41.796875 56.203125 29.59375 
z
M 47.21875 32.234375 
Q 47.125 39.59375 43.09375 43.984375 
Q 39.0625 48.390625 32.421875 48.390625 
Q 24.90625 48.390625 20.390625 44.140625 
Q 15.875 39.890625 15.1875 32.171875 
z
" id="DejaVuSans-65"/>
      <path d="M 41.109375 46.296875 
Q 39.59375 47.171875 37.8125 47.578125 
Q 36.03125 48 33.890625 48 
Q 26.265625 48 22.1875 43.046875 
Q 18.109375 38.09375 18.109375 28.8125 
L 18.109375 0 
L 9.078125 0 
L 9.078125 54.6875 
L 18.109375 54.6875 
L 18.109375 46.1875 
Q 20.953125 51.171875 25.484375 53.578125 
Q 30.03125 56 36.53125 56 
Q 37.453125 56 38.578125 55.875 
Q 39.703125 55.765625 41.0625 55.515625 
z
" id="DejaVuSans-72"/>
      <path d="M 48.78125 52.59375 
L 48.78125 44.1875 
Q 44.96875 46.296875 41.140625 47.34375 
Q 37.3125 48.390625 33.40625 48.390625 
Q 24.65625 48.390625 19.8125 42.84375 
Q 14.984375 37.3125 14.984375 27.296875 
Q 14.984375 17.28125 19.8125 11.734375 
Q 24.65625 6.203125 33.40625 6.203125 
Q 37.3125 6.203125 41.140625 7.25 
Q 44.96875 8.296875 48.78125 10.40625 
L 48.78125 2.09375 
Q 45.015625 0.34375 40.984375 -0.53125 
Q 36.96875 -1.421875 32.421875 -1.421875 
Q 20.0625 -1.421875 12.78125 6.34375 
Q 5.515625 14.109375 5.515625 27.296875 
Q 5.515625 40.671875 12.859375 48.328125 
Q 20.21875 56 33.015625 56 
Q 37.15625 56 41.109375 55.140625 
Q 45.0625 54.296875 48.78125 52.59375 
z
" id="DejaVuSans-63"/>
      <path d="M 54.890625 33.015625 
L 54.890625 0 
L 45.90625 0 
L 45.90625 32.71875 
Q 45.90625 40.484375 42.875 44.328125 
Q 39.84375 48.1875 33.796875 48.1875 
Q 26.515625 48.1875 22.3125 43.546875 
Q 18.109375 38.921875 18.109375 30.90625 
L 18.109375 0 
L 9.078125 0 
L 9.078125 54.6875 
L 18.109375 54.6875 
L 18.109375 46.1875 
Q 21.34375 51.125 25.703125 53.5625 
Q 30.078125 56 35.796875 56 
Q 45.21875 56 50.046875 50.171875 
Q 54.890625 44.34375 54.890625 33.015625 
z
" id="DejaVuSans-6e"/>
      <path d="M 18.3125 70.21875 
L 18.3125 54.6875 
L 36.8125 54.6875 
L 36.8125 47.703125 
L 18.3125 47.703125 
L 18.3125 18.015625 
Q 18.3125 11.328125 20.140625 9.421875 
Q 21.96875 7.515625 27.59375 7.515625 
L 36.8125 7.515625 
L 36.8125 0 
L 27.59375 0 
Q 17.1875 0 13.234375 3.875 
Q 9.28125 7.765625 9.28125 18.015625 
L 9.28125 47.703125 
L 2.6875 47.703125 
L 2.6875 54.6875 
L 9.28125 54.6875 
L 9.28125 70.21875 
z
" id="DejaVuSans-74"/>
      <path d="M 34.28125 27.484375 
Q 23.390625 27.484375 19.1875 25 
Q 14.984375 22.515625 14.984375 16.5 
Q 14.984375 11.71875 18.140625 8.90625 
Q 21.296875 6.109375 26.703125 6.109375 
Q 34.1875 6.109375 38.703125 11.40625 
Q 43.21875 16.703125 43.21875 25.484375 
L 43.21875 27.484375 
z
M 52.203125 31.203125 
L 52.203125 0 
L 43.21875 0 
L 43.21875 8.296875 
Q 40.140625 3.328125 35.546875 0.953125 
Q 30.953125 -1.421875 24.3125 -1.421875 
Q 15.921875 -1.421875 10.953125 3.296875 
Q 6 8.015625 6 15.921875 
Q 6 25.140625 12.171875 29.828125 
Q 18.359375 34.515625 30.609375 34.515625 
L 43.21875 34.515625 
L 43.21875 35.40625 
Q 43.21875 41.609375 39.140625 45 
Q 35.0625 48.390625 27.6875 48.390625 
Q 23 48.390625 18.546875 47.265625 
Q 14.109375 46.140625 10.015625 43.890625 
L 10.015625 52.203125 
Q 14.9375 54.109375 19.578125 55.046875 
Q 24.21875 56 28.609375 56 
Q 40.484375 56 46.34375 49.84375 
Q 52.203125 43.703125 52.203125 31.203125 
z
" id="DejaVuSans-61"/>
      <path d="M 45.40625 27.984375 
Q 45.40625 37.75 41.375 43.109375 
Q 37.359375 48.484375 30.078125 48.484375 
Q 22.859375 48.484375 18.828125 43.109375 
Q 14.796875 37.75 14.796875 27.984375 
Q 14.796875 18.265625 18.828125 12.890625 
Q 22.859375 7.515625 30.078125 7.515625 
Q 37.359375 7.515625 41.375 12.890625 
Q 45.40625 18.265625 45.40625 27.984375 
z
M 54.390625 6.78125 
Q 54.390625 -7.171875 48.1875 -13.984375 
Q 42 -20.796875 29.203125 -20.796875 
Q 24.46875 -20.796875 20.265625 -20.09375 
Q 16.0625 -19.390625 12.109375 -17.921875 
L 12.109375 -9.1875 
Q 16.0625 -11.328125 19.921875 -12.34375 
Q 23.78125 -13.375 27.78125 -13.375 
Q 36.625 -13.375 41.015625 -8.765625 
Q 45.40625 -4.15625 45.40625 5.171875 
L 45.40625 9.625 
Q 42.625 4.78125 38.28125 2.390625 
Q 33.9375 0 27.875 0 
Q 17.828125 0 11.671875 7.65625 
Q 5.515625 15.328125 5.515625 27.984375 
Q 5.515625 40.671875 11.671875 48.328125 
Q 17.828125 56 27.875 56 
Q 33.9375 56 38.28125 53.609375 
Q 42.625 51.21875 45.40625 46.390625 
L 45.40625 54.6875 
L 54.390625 54.6875 
z
" id="DejaVuSans-67"/>
      <path id="DejaVuSans-20"/>
      <path d="M 18.109375 8.203125 
L 18.109375 -20.796875 
L 9.078125 -20.796875 
L 9.078125 54.6875 
L 18.109375 54.6875 
L 18.109375 46.390625 
Q 20.953125 51.265625 25.265625 53.625 
Q 29.59375 56 35.59375 56 
Q 45.5625 56 51.78125 48.09375 
Q 58.015625 40.1875 58.015625 27.296875 
Q 58.015625 14.40625 51.78125 6.484375 
Q 45.5625 -1.421875 35.59375 -1.421875 
Q 29.59375 -1.421875 25.265625 0.953125 
Q 20.953125 3.328125 18.109375 8.203125 
z
M 48.6875 27.296875 
Q 48.6875 37.203125 44.609375 42.84375 
Q 40.53125 48.484375 33.40625 48.484375 
Q 26.265625 48.484375 22.1875 42.84375 
Q 18.109375 37.203125 18.109375 27.296875 
Q 18.109375 17.390625 22.1875 11.75 
Q 26.265625 6.109375 33.40625 6.109375 
Q 40.53125 6.109375 44.609375 11.75 
Q 48.6875 17.390625 48.6875 27.296875 
z
" id="DejaVuSans-70"/>
      <path d="M 30.609375 48.390625 
Q 23.390625 48.390625 19.1875 42.75 
Q 14.984375 37.109375 14.984375 27.296875 
Q 14.984375 17.484375 19.15625 11.84375 
Q 23.34375 6.203125 30.609375 6.203125 
Q 37.796875 6.203125 41.984375 11.859375 
Q 46.1875 17.53125 46.1875 27.296875 
Q 46.1875 37.015625 41.984375 42.703125 
Q 37.796875 48.390625 30.609375 48.390625 
z
M 30.609375 56 
Q 42.328125 56 49.015625 48.375 
Q 55.71875 40.765625 55.71875 27.296875 
Q 55.71875 13.875 49.015625 6.21875 
Q 42.328125 -1.421875 30.609375 -1.421875 
Q 18.84375 -1.421875 12.171875 6.21875 
Q 5.515625 13.875 5.515625 27.296875 
Q 5.515625 40.765625 12.171875 48.375 
Q 18.84375 56 30.609375 56 
z
" id="DejaVuSans-6f"/>
      <path d="M 9.421875 54.6875 
L 18.40625 54.6875 
L 18.40625 0 
L 9.421875 0 
z
M 9.421875 75.984375 
L 18.40625 75.984375 
L 18.40625 64.59375 
L 9.421875 64.59375 
z
" id="DejaVuSans-69"/>
     </defs>
     <g transform="translate(38.849375 280.174375)rotate(-90)scale(0.14 -0.14)">
      <use xlink:href="#DejaVuSans-50"/>
      <use x="60.255859" xlink:href="#DejaVuSans-65"/>
      <use x="121.779297" xlink:href="#DejaVuSans-72"/>
      <use x="162.861328" xlink:href="#DejaVuSans-63"/>
      <use x="217.841797" xlink:href="#DejaVuSans-65"/>
      <use x="279.365234" xlink:href="#DejaVuSans-6e"/>
      <use x="342.744141" xlink:href="#DejaVuSans-74"/>
      <use x="381.953125" xlink:href="#DejaVuSans-61"/>
      <use x="443.232422" xlink:href="#DejaVuSans-67"/>
      <use x="506.708984" xlink:href="#DejaVuSans-65"/>
      <use x="568.232422" xlink:href="#DejaVuSans-20"/>
      <use x="600.019531" xlink:href="#DejaVuSans-70"/>
      <use x="663.496094" xlink:href="#DejaVuSans-6f"/>
      <use x="724.677734" xlink:href="#DejaVuSans-69"/>
      <use x="752.460938" xlink:href="#DejaVuSans-6e"/>
      <use x="815.839844" xlink:href="#DejaVuSans-74"/>
     </g>
    </g>
   </g>
   <g id="line2d_47">
    <path clip-path="url(#p2fcb93515f)" d="M 75.351009 139.731127 
L 77.802017 140.295882 
L 80.253026 145.334642 
L 82.704035 144.4423 
L 85.155043 149.409137 
L 87.606052 148.993125 
L 90.057061 148.099932 
L 92.508069 154.660436 
L 94.959078 151.160594 
L 97.410086 149.684528 
L 99.861095 149.120011 
L 102.312104 158.300256 
L 104.763112 159.813519 
L 107.214121 154.155239 
L 109.66513 156.5767 
L 112.116138 163.564835 
L 114.567147 162.255478 
L 117.018156 163.636568 
L 119.469164 168.978089 
L 121.920173 163.595736 
L 124.371182 170.772099 
L 126.82219 170.908366 
L 129.273199 175.090581 
L 131.724207 165.957523 
L 134.175216 170.737639 
L 136.626225 164.113795 
L 139.077233 162.719203 
L 141.528242 155.720888 
L 143.979251 152.098427 
L 146.430259 156.506643 
L 148.881268 157.060031 
L 151.332277 159.616257 
L 153.783285 170.099307 
L 156.234294 168.34505 
L 158.685303 171.814176 
L 161.136311 174.386583 
L 163.58732 173.935747 
L 166.038329 170.463409 
L 168.489337 175.832409 
L 170.940346 169.308753 
L 173.391354 166.827168 
L 175.842363 167.834921 
L 178.293372 167.497093 
L 180.74438 181.001877 
L 183.195389 179.704809 
L 185.646398 182.908556 
L 188.097406 185.837682 
L 190.548415 177.969411 
L 192.999424 183.572997 
L 195.450432 189.679462 
L 197.901441 190.581287 
L 200.35245 191.984251 
L 202.803458 194.599543 
L 205.254467 192.939141 
L 207.705476 185.948603 
L 210.156484 187.553458 
L 212.607493 180.372081 
L 215.058501 180.933268 
L 217.50951 175.33118 
L 219.960519 174.553292 
L 222.411527 175.615724 
L 224.862536 177.580154 
L 227.313545 178.23417 
L 229.764553 191.412999 
L 232.215562 187.940243 
L 234.666571 191.10249 
L 237.117579 192.620166 
L 239.568588 187.728579 
L 242.019597 195.265617 
L 244.470605 199.840023 
L 246.921614 199.110127 
L 249.372622 198.516251 
L 251.823631 191.271187 
L 254.27464 189.462152 
L 256.725648 189.837745 
L 259.176657 186.222977 
L 261.627666 186.931788 
L 264.078674 181.750753 
L 266.529683 192.49953 
L 268.980692 188.198128 
L 271.4317 184.542497 
L 273.882709 190.469067 
L 276.333718 191.873057 
L 278.784726 189.368429 
L 281.235735 191.009036 
L 283.686744 186.091784 
L 286.137752 185.462847 
L 288.588761 186.882291 
L 291.039769 186.170454 
L 293.490778 188.411779 
L 295.941787 186.648743 
L 298.392795 190.788182 
L 300.843804 190.241138 
L 303.294813 184.698126 
L 305.745821 190.454086 
L 308.19683 189.610195 
L 310.647839 191.729479 
L 313.098847 192.85367 
L 315.549856 191.864173 
L 318.000865 189.496515 
L 320.451873 190.633504 
L 322.902882 187.792064 
L 325.35389 198.129328 
L 327.804899 187.611377 
L 330.255908 190.006537 
L 332.706916 187.826676 
L 335.157925 188.891265 
L 337.608934 186.447194 
L 340.059942 189.271813 
L 342.510951 197.199014 
L 344.96196 198.929086 
L 347.412968 193.716341 
L 349.863977 195.809905 
L 352.314986 194.882454 
L 354.765994 198.889543 
L 357.217003 197.892199 
L 359.668012 198.67844 
L 362.11902 198.594264 
L 364.570029 194.526546 
L 367.021037 183.265215 
L 369.472046 178.00997 
L 371.923055 186.777284 
L 374.374063 189.717417 
L 376.825072 194.198357 
L 379.276081 192.418924 
L 381.727089 200.825832 
L 384.178098 191.856964 
L 386.629107 200.488116 
L 389.080115 201.338442 
L 391.531124 199.482457 
L 393.982133 194.875275 
L 396.433141 187.372652 
L 398.88415 193.700539 
L 401.335159 196.943958 
L 403.786167 197.528269 
L 406.237176 205.998107 
L 408.688184 208.22779 
L 411.139193 205.955853 
L 413.590202 213.419495 
L 416.04121 202.903446 
L 418.492219 206.329647 
L 420.943228 208.760032 
L 423.394236 208.275562 
L 425.845245 216.404028 
L 428.296254 210.817292 
L 430.747262 212.949152 
L 433.198271 210.719748 
L 435.64928 202.618899 
L 438.100288 210.750533 
L 440.551297 212.881292 
L 443.002305 214.108534 
L 445.453314 205.999147 
L 447.904323 216.257959 
L 450.355331 224.667511 
L 452.80634 227.204921 
L 455.257349 231.388163 
L 457.708357 225.857922 
L 460.159366 236.327356 
L 462.610375 227.252611 
L 465.061383 229.730296 
L 467.512392 227.141696 
L 469.963401 233.095116 
L 472.414409 238.452653 
L 474.865418 229.444628 
L 477.316427 233.918233 
L 479.767435 228.886434 
L 482.218444 233.010716 
L 484.669452 227.083963 
L 487.120461 239.537282 
L 489.57147 239.942604 
L 492.022478 242.477591 
L 494.473487 242.262224 
L 496.924496 236.474677 
L 499.375504 232.752572 
L 501.826513 233.717251 
L 504.277522 240.258625 
L 506.72853 236.746547 
L 509.179539 231.559331 
L 511.630548 239.892674 
L 514.081556 245.866441 
L 516.532565 239.83355 
L 518.983573 239.394788 
L 521.434582 234.448035 
L 523.885591 232.58151 
L 526.336599 233.450691 
L 528.787608 234.72433 
L 531.238617 230.508185 
L 533.689625 236.377713 
L 536.140634 240.499034 
L 538.591643 239.593768 
L 541.042651 241.113102 
L 543.49366 235.734021 
L 545.944669 231.375343 
L 548.395677 228.033619 
L 550.846686 230.62578 
L 553.297695 231.200524 
L 555.748703 235.138437 
L 558.199712 243.192412 
L 560.65072 235.793308 
L 563.101729 234.040669 
L 565.552738 233.944161 
L 568.003746 230.533172 
L 570.454755 225.784888 
L 572.905764 224.00379 
L 575.356772 228.066984 
L 580.25879 235.048624 
L 582.709798 239.074119 
L 585.160807 238.831926 
L 587.611816 244.382227 
L 590.062824 252.769032 
L 592.513833 247.404641 
L 594.964841 250.36766 
L 597.41585 242.421415 
L 599.866859 243.708909 
L 602.317867 233.275265 
L 604.768876 242.365765 
L 607.219885 244.004283 
L 609.670893 248.409258 
L 612.121902 244.412647 
L 614.572911 246.119976 
L 617.023919 242.375219 
L 619.474928 249.496117 
L 621.925937 247.981546 
L 624.376945 249.180739 
L 626.827954 256.037598 
L 629.278963 260.497822 
L 631.729971 262.96922 
L 634.18098 262.971623 
L 636.631988 274.121257 
L 639.082997 265.78771 
L 641.534006 262.9099 
L 646.436023 274.763391 
L 648.887032 277.026404 
L 651.33804 284.558605 
L 653.789049 286.763296 
L 656.240058 290.670168 
L 658.691066 304.348892 
L 661.142075 300.017225 
L 663.593084 298.924881 
L 666.044092 292.341515 
L 668.495101 281.559838 
L 670.94611 294.75731 
L 673.397118 301.20459 
L 675.848127 300.510911 
L 678.299135 297.688299 
L 680.750144 303.447432 
L 683.201153 312.550877 
L 685.652161 308.703418 
L 688.10317 314.615291 
L 690.554179 319.739232 
L 693.005187 319.188216 
L 695.456196 321.928924 
L 697.907205 320.219486 
L 700.358213 320.154615 
L 702.809222 321.841585 
L 705.260231 326.369572 
L 707.711239 320.901728 
L 710.162248 320.488175 
L 712.613256 323.709837 
L 715.064265 319.080693 
L 717.515274 319.088737 
L 719.966282 328.311526 
L 724.8683 329.037769 
L 727.319308 331.203568 
L 729.770317 328.383556 
L 732.221326 327.523951 
L 734.672334 330.154838 
L 737.123343 337.304458 
L 739.574352 332.109096 
L 742.02536 327.385948 
L 744.476369 332.918215 
L 746.927378 332.904882 
L 749.378386 326.389247 
L 751.829395 335.927636 
L 754.280403 342.691049 
L 756.731412 338.310224 
L 759.182421 337.180428 
L 761.633429 338.349965 
L 764.084438 341.67047 
L 766.535447 345.922521 
L 768.986455 341.676286 
L 771.437464 359.626201 
L 773.888473 351.157881 
L 776.339481 357.84615 
L 778.79049 357.307786 
L 781.241499 363.035536 
L 783.692507 351.820088 
L 786.143516 362.85435 
L 788.594524 363.577606 
L 791.045533 357.504025 
L 793.496542 354.961938 
L 795.94755 354.512657 
L 798.398559 357.956491 
L 800.849568 360.81606 
L 803.300576 360.874316 
L 808.202594 353.347563 
L 810.653602 357.788228 
L 813.104611 358.768612 
L 815.55562 356.059095 
L 818.006628 354.13876 
L 820.457637 365.209508 
L 822.908646 364.537834 
L 825.359654 367.195616 
L 827.810663 372.175542 
L 830.261671 371.04584 
L 832.71268 373.483636 
L 835.163689 364.102818 
L 837.614697 363.406613 
L 840.065706 355.763497 
L 842.516715 353.990629 
L 844.967723 357.268041 
L 847.418732 365.517877 
L 849.869741 356.201953 
L 852.320749 357.158251 
L 854.771758 356.700584 
L 857.222767 356.662805 
L 859.673775 359.190356 
L 862.124784 363.451016 
L 864.575793 363.195071 
L 867.026801 356.770378 
L 869.47781 357.054576 
L 871.928818 360.043226 
L 874.379827 359.124103 
L 876.830836 367.1337 
L 879.281844 364.510859 
L 881.732853 366.908955 
L 884.183862 364.182959 
L 886.63487 357.68371 
L 889.085879 365.885035 
L 891.536888 367.991494 
L 893.987896 366.113162 
L 896.438905 358.714974 
L 898.889914 351.98949 
L 901.340922 355.66028 
L 903.791931 357.498604 
L 906.242939 358.877285 
L 911.144957 366.990808 
L 913.595965 371.096713 
L 916.046974 372.874056 
L 918.497983 367.849141 
L 920.948991 365.164086 
L 920.948991 365.164086 
" style="fill:none;stroke:#000000;stroke-linecap:square;stroke-width:3;"/>
   </g>
   <g id="line2d_48">
    <path clip-path="url(#p2fcb93515f)" d="M 77.802017 135.128092 
L 80.253026 133.911621 
L 82.704035 128.531983 
L 85.155043 124.447195 
L 87.606052 122.47469 
L 90.057061 116.809897 
L 92.508069 115.919116 
L 97.410086 105.350211 
L 99.861095 100.54858 
L 102.312104 103.862018 
L 104.763112 98.628305 
L 107.214121 92.094383 
L 109.66513 89.037106 
L 112.116138 92.648701 
L 114.567147 91.104508 
L 117.018156 90.832681 
L 119.469164 91.33413 
L 121.920173 87.869671 
L 124.371182 89.271742 
L 126.82219 88.313404 
L 129.273199 89.775787 
L 131.724207 83.873806 
L 136.626225 75.123574 
L 139.077233 73.374904 
L 141.528242 69.596837 
L 143.979251 67.156364 
L 146.430259 69.372584 
L 148.881268 71.079201 
L 151.332277 72.404192 
L 153.783285 78.774472 
L 156.234294 77.360597 
L 158.685303 79.621671 
L 161.136311 81.088745 
L 163.58732 87.05957 
L 166.038329 83.976922 
L 168.489337 86.595202 
L 170.940346 84.046091 
L 173.391354 82.006864 
L 175.842363 83.260551 
L 178.293372 83.082455 
L 180.74438 92.324282 
L 183.195389 88.164334 
L 185.646398 91.045588 
L 188.097406 94.592462 
L 190.548415 93.331313 
L 195.450432 113.600968 
L 197.901441 116.474516 
L 200.35245 118.708901 
L 202.803458 121.275721 
L 205.254467 122.188795 
L 207.705476 118.032612 
L 210.156484 121.907161 
L 212.607493 120.345951 
L 215.058501 122.584723 
L 217.50951 125.091401 
L 219.960519 128.408786 
L 222.411527 125.812662 
L 224.862536 124.405049 
L 229.764553 134.748556 
L 232.215562 133.096821 
L 234.666571 133.857716 
L 237.117579 136.867484 
L 239.568588 135.946549 
L 242.019597 141.350222 
L 244.470605 145.420582 
L 246.921614 143.820942 
L 249.372622 141.676894 
L 251.823631 141.09902 
L 254.27464 141.11203 
L 256.725648 140.467256 
L 259.176657 138.030495 
L 261.627666 139.208537 
L 264.078674 141.499877 
L 266.529683 142.277913 
L 268.980692 140.835986 
L 271.4317 136.941131 
L 273.882709 139.399721 
L 276.333718 137.95652 
L 278.784726 135.16581 
L 281.235735 137.919579 
L 283.686744 139.217265 
L 286.137752 138.290621 
L 288.588761 139.64031 
L 291.039769 139.450133 
L 293.490778 139.424939 
L 295.941787 140.031677 
L 298.392795 143.758945 
L 300.843804 144.259858 
L 303.294813 140.914013 
L 305.745821 146.6767 
L 308.19683 147.439253 
L 310.647839 150.862867 
L 313.098847 152.839995 
L 315.549856 150.229728 
L 318.000865 151.344663 
L 320.451873 153.922082 
L 322.902882 156.700833 
L 325.35389 166.158281 
L 327.804899 166.559695 
L 330.255908 167.678259 
L 332.706916 170.182735 
L 335.157925 172.367708 
L 337.608934 170.840229 
L 340.059942 171.263716 
L 342.510951 172.772683 
L 344.96196 177.556593 
L 347.412968 178.372391 
L 349.863977 177.442411 
L 352.314986 177.568083 
L 354.765994 182.633597 
L 357.217003 183.230984 
L 359.668012 185.487098 
L 362.11902 187.244981 
L 364.570029 187.410444 
L 367.021037 182.170489 
L 369.472046 181.424345 
L 371.923055 186.264771 
L 374.374063 188.100133 
L 376.825072 191.034052 
L 379.276081 191.06939 
L 381.727089 194.516007 
L 384.178098 188.979343 
L 386.629107 195.952959 
L 389.080115 194.477052 
L 391.531124 195.963627 
L 393.982133 191.469848 
L 396.433141 190.012192 
L 398.88415 197.631779 
L 401.335159 201.084915 
L 403.786167 201.460088 
L 406.237176 204.855125 
L 411.139193 204.031683 
L 413.590202 209.885259 
L 416.04121 203.689801 
L 418.492219 203.00663 
L 420.943228 199.31656 
L 423.394236 196.735815 
L 425.845245 197.387765 
L 428.296254 188.791944 
L 430.747262 188.677519 
L 433.198271 185.578255 
L 435.64928 181.082141 
L 438.100288 183.247254 
L 440.551297 184.898128 
L 443.002305 182.655719 
L 445.453314 175.244372 
L 447.904323 180.584858 
L 450.355331 187.02198 
L 452.80634 184.019697 
L 455.257349 187.087292 
L 457.708357 181.552835 
L 460.159366 188.914299 
L 462.610375 182.534419 
L 465.061383 182.898287 
L 467.512392 182.873288 
L 469.963401 184.597102 
L 472.414409 187.632608 
L 474.865418 181.572964 
L 477.316427 183.709895 
L 479.767435 179.286971 
L 482.218444 180.321463 
L 484.669452 176.016891 
L 487.120461 180.740771 
L 489.57147 186.129747 
L 492.022478 187.466908 
L 494.473487 186.863288 
L 496.924496 182.471513 
L 499.375504 181.823129 
L 501.826513 182.248708 
L 504.277522 188.151549 
L 506.72853 189.44551 
L 509.179539 187.002544 
L 511.630548 194.799614 
L 514.081556 198.566672 
L 516.532565 194.643928 
L 521.434582 190.523409 
L 523.885591 190.747025 
L 526.336599 191.184371 
L 528.787608 191.794671 
L 531.238617 189.642526 
L 533.689625 191.471697 
L 536.140634 193.977518 
L 538.591643 194.431286 
L 541.042651 198.130202 
L 543.49366 195.396133 
L 545.944669 195.193463 
L 548.395677 192.296085 
L 550.846686 193.851287 
L 553.297695 194.777577 
L 555.748703 200.716366 
L 558.199712 203.764022 
L 560.65072 200.981137 
L 563.101729 199.003088 
L 565.552738 198.148736 
L 568.003746 197.134109 
L 570.454755 197.046259 
L 575.356772 201.468594 
L 577.807781 202.44984 
L 580.25879 202.06778 
L 582.709798 202.541237 
L 585.160807 201.342986 
L 587.611816 200.766755 
L 590.062824 206.238616 
L 592.513833 202.632338 
L 594.964841 202.200938 
L 597.41585 198.502311 
L 599.866859 197.409298 
L 602.317867 187.641025 
L 604.768876 190.95402 
L 607.219885 190.20637 
L 609.670893 191.271362 
L 612.121902 188.697339 
L 614.572911 187.741783 
L 617.023919 182.925999 
L 619.474928 182.264764 
L 621.925937 180.856419 
L 624.376945 179.115771 
L 629.278963 176.69773 
L 631.729971 175.341958 
L 634.18098 169.806057 
L 636.631988 172.497315 
L 639.082997 164.321207 
L 641.534006 158.438444 
L 643.985014 156.28673 
L 646.436023 155.828178 
L 648.887032 156.123898 
L 651.33804 153.741439 
L 653.789049 152.572593 
L 656.240058 150.460026 
L 658.691066 156.647233 
L 661.142075 153.886459 
L 663.593084 152.487931 
L 666.044092 150.946515 
L 668.495101 146.25856 
L 670.94611 150.784261 
L 673.397118 152.703158 
L 675.848127 152.287174 
L 678.299135 151.481622 
L 680.750144 152.724393 
L 683.201153 156.413235 
L 685.652161 154.42575 
L 688.10317 157.791523 
L 690.554179 161.760969 
L 693.005187 163.59613 
L 695.456196 161.368516 
L 697.907205 162.302688 
L 700.358213 164.023942 
L 702.809222 165.065982 
L 705.260231 170.588852 
L 707.711239 166.342587 
L 710.162248 167.641245 
L 712.613256 166.699925 
L 715.064265 161.606181 
L 717.515274 162.692876 
L 719.966282 171.104987 
L 722.417291 170.505309 
L 727.319308 173.151624 
L 732.221326 174.323255 
L 734.672334 175.093117 
L 737.123343 181.836384 
L 739.574352 183.06011 
L 742.02536 183.389389 
L 744.476369 188.190001 
L 746.927378 189.416378 
L 749.378386 182.86821 
L 751.829395 189.402013 
L 754.280403 192.367285 
L 759.182421 189.772123 
L 761.633429 192.693443 
L 764.084438 194.099915 
L 766.535447 200.673948 
L 768.986455 198.078753 
L 771.437464 207.21716 
L 773.888473 198.93556 
L 776.339481 202.551454 
L 778.79049 203.940158 
L 781.241499 207.099878 
L 783.692507 203.297541 
L 786.143516 208.912517 
L 788.594524 210.966848 
L 791.045533 208.629722 
L 793.496542 210.059651 
L 795.94755 211.069284 
L 798.398559 211.537913 
L 800.849568 216.95788 
L 803.300576 220.662641 
L 805.751585 221.292689 
L 808.202594 226.318988 
L 810.653602 232.924603 
L 813.104611 236.801239 
L 815.55562 236.633253 
L 818.006628 238.348559 
L 820.457637 248.047801 
L 825.359654 251.78387 
L 827.810663 253.62891 
L 830.261671 254.448807 
L 832.71268 256.296531 
L 835.163689 250.457299 
L 837.614697 253.074217 
L 840.065706 253.286812 
L 842.516715 250.627433 
L 844.967723 250.341711 
L 847.418732 253.726931 
L 849.869741 247.032567 
L 852.320749 245.200824 
L 854.771758 246.342338 
L 857.222767 246.399035 
L 859.673775 244.66786 
L 862.124784 250.330773 
L 864.575793 254.06698 
L 867.026801 245.53313 
L 869.47781 243.447029 
L 871.928818 246.65847 
L 874.379827 248.114996 
L 876.830836 251.341632 
L 879.281844 252.576802 
L 881.732853 256.40251 
L 884.183862 254.741189 
L 886.63487 253.254022 
L 889.085879 260.369983 
L 891.536888 260.705017 
L 893.987896 260.304046 
L 896.438905 255.488759 
L 898.889914 251.443239 
L 901.340922 254.747968 
L 903.791931 254.656118 
L 906.242939 252.158769 
L 911.144957 260.705347 
L 913.595965 266.396715 
L 916.046974 268.938693 
L 918.497983 263.506404 
L 920.948991 260.423226 
L 920.948991 260.423226 
" style="fill:none;stroke:#000080;stroke-linecap:square;stroke-width:3;"/>
   </g>
   <g id="line2d_49">
    <path clip-path="url(#p2fcb93515f)" d="M 77.802017 133.874111 
L 80.253026 137.279566 
L 82.704035 138.335963 
L 85.155043 145.030654 
L 87.606052 143.814688 
L 90.057061 145.83337 
L 92.508069 150.562307 
L 94.959078 149.362819 
L 97.410086 150.210366 
L 99.861095 151.269324 
L 102.312104 154.153083 
L 104.763112 157.956132 
L 107.214121 155.09337 
L 109.66513 157.174497 
L 112.116138 157.925363 
L 114.567147 155.26094 
L 117.018156 154.528328 
L 119.469164 157.084274 
L 121.920173 153.112214 
L 124.371182 157.53122 
L 126.82219 156.75969 
L 129.273199 157.958631 
L 131.724207 152.599927 
L 134.175216 159.809105 
L 136.626225 155.450767 
L 139.077233 154.356997 
L 141.528242 149.741481 
L 143.979251 147.213805 
L 146.430259 148.099871 
L 148.881268 145.850008 
L 151.332277 146.07803 
L 153.783285 149.117759 
L 156.234294 148.046389 
L 158.685303 148.549462 
L 161.136311 149.537416 
L 163.58732 143.402954 
L 166.038329 143.020289 
L 168.489337 145.727856 
L 170.940346 142.176458 
L 175.842363 142.372282 
L 178.293372 142.854297 
L 180.74438 147.818414 
L 183.195389 151.254278 
L 185.646398 152.221776 
L 188.097406 152.73312 
L 190.548415 146.932403 
L 195.450432 139.589381 
L 197.901441 138.849248 
L 200.35245 139.01899 
L 202.803458 140.610113 
L 205.254467 139.23634 
L 207.705476 137.183553 
L 210.156484 136.305474 
L 212.607493 132.183009 
L 215.058501 132.070592 
L 217.50951 126.169418 
L 219.960519 124.414502 
L 224.862536 134.315901 
L 227.313545 131.832493 
L 229.764553 140.996517 
L 232.215562 139.639441 
L 234.666571 142.70397 
L 237.117579 141.645585 
L 239.568588 137.759033 
L 242.019597 140.137068 
L 244.470605 141.375702 
L 246.921614 142.236873 
L 249.372622 144.345227 
L 251.823631 138.489193 
L 254.27464 137.702533 
L 256.725648 139.183206 
L 259.176657 138.193268 
L 261.627666 138.037524 
L 264.078674 131.458177 
L 266.529683 142.254149 
L 268.980692 140.617113 
L 271.4317 141.674421 
L 273.882709 146.725714 
L 276.333718 149.844584 
L 278.784726 151.084019 
L 281.235735 150.221732 
L 283.686744 144.726648 
L 286.137752 145.875131 
L 288.588761 146.658421 
L 291.039769 147.637651 
L 293.490778 150.204084 
L 295.941787 148.693039 
L 298.392795 150.053788 
L 300.843804 149.74846 
L 303.294813 148.591082 
L 305.745821 150.211951 
L 308.19683 149.305922 
L 310.647839 148.907077 
L 313.098847 149.12778 
L 315.549856 151.20746 
L 318.000865 149.230999 
L 320.451873 148.811544 
L 322.902882 144.467155 
L 325.35389 146.038548 
L 327.804899 136.127937 
L 330.255908 137.640323 
L 332.706916 133.544305 
L 335.157925 133.18766 
L 337.608934 132.227911 
L 340.059942 135.375269 
L 342.510951 141.831743 
L 344.96196 140.364766 
L 347.412968 134.435381 
L 349.863977 137.615087 
L 352.314986 137.152833 
L 354.765994 136.858276 
L 357.217003 136.141867 
L 359.668012 135.874665 
L 362.11902 134.384038 
L 364.570029 131.157031 
L 367.021037 126.422945 
L 369.472046 123.452814 
L 371.923055 128.14107 
L 374.374063 129.99909 
L 376.825072 132.155145 
L 379.276081 130.415369 
L 381.727089 135.760794 
L 384.178098 132.159564 
L 386.629107 133.877623 
L 389.080115 136.004898 
L 391.531124 133.018543 
L 393.982133 133.614231 
L 396.433141 127.207669 
L 398.88415 125.090928 
L 401.335159 123.712429 
L 403.786167 122.551139 
L 406.237176 126.356389 
L 408.688184 127.784349 
L 411.139193 124.244182 
L 413.590202 124.286488 
L 416.04121 118.459099 
L 418.492219 121.500759 
L 420.943228 125.508397 
L 423.394236 124.333284 
L 425.845245 129.618285 
L 428.296254 129.522584 
L 430.747262 129.7903 
L 433.198271 129.40936 
L 435.64928 124.046173 
L 438.100288 128.991173 
L 440.551297 127.236314 
L 443.002305 128.93972 
L 445.453314 126.533022 
L 447.904323 130.736191 
L 450.355331 131.026909 
L 452.80634 134.452138 
L 455.257349 133.726983 
L 457.708357 131.869291 
L 460.159366 133.904721 
L 462.610375 129.650543 
L 465.061383 130.42645 
L 467.512392 126.432507 
L 469.963401 129.528326 
L 472.414409 130.697298 
L 474.865418 126.983815 
L 477.316427 128.974135 
L 479.767435 128.317911 
L 482.218444 131.676851 
L 484.669452 131.283246 
L 487.120461 140.388115 
L 489.57147 136.035474 
L 492.022478 137.63344 
L 494.473487 138.709704 
L 496.924496 137.730122 
L 499.375504 135.570163 
L 501.826513 136.943789 
L 504.277522 137.987271 
L 506.72853 133.636887 
L 509.179539 131.485591 
L 511.630548 132.786127 
L 514.081556 135.390536 
L 516.532565 134.150861 
L 518.983573 136.71215 
L 521.434582 134.870861 
L 523.885591 133.947469 
L 526.336599 135.652306 
L 528.787608 136.930605 
L 531.238617 135.764666 
L 533.689625 141.076228 
L 536.140634 142.905165 
L 538.591643 142.222235 
L 541.042651 140.99474 
L 543.49366 139.113685 
L 545.944669 136.798826 
L 548.395677 137.305418 
L 550.846686 139.38516 
L 553.297695 139.409829 
L 555.748703 137.643481 
L 558.199712 143.277447 
L 560.65072 138.851753 
L 563.101729 139.789542 
L 565.552738 141.876215 
L 568.003746 139.641284 
L 570.454755 135.214911 
L 572.905764 132.179868 
L 575.356772 134.246843 
L 577.807781 136.654989 
L 580.25879 141.362794 
L 582.709798 145.341265 
L 585.160807 146.753632 
L 587.611816 152.705245 
L 590.062824 155.477428 
L 592.513833 153.870027 
L 594.964841 157.128919 
L 597.41585 152.578944 
L 599.866859 154.93864 
L 602.317867 154.002039 
L 604.768876 159.665155 
L 607.219885 161.516092 
L 609.670893 163.575418 
L 612.121902 160.723452 
L 614.572911 161.632078 
L 617.023919 160.29596 
L 619.474928 165.839046 
L 621.925937 162.585413 
L 624.376945 162.050742 
L 626.827954 166.561075 
L 629.278963 167.282862 
L 631.729971 164.617868 
L 634.18098 163.396728 
L 636.631988 164.327333 
L 639.082997 155.697688 
L 641.534006 152.339666 
L 643.985014 154.309313 
L 646.436023 155.029533 
L 648.887032 151.514013 
L 651.33804 156.646326 
L 653.789049 155.6287 
L 656.240058 157.228678 
L 658.691066 161.43589 
L 661.142075 156.501983 
L 663.593084 154.119206 
L 668.495101 139.303676 
L 670.94611 147.389175 
L 673.397118 151.326903 
L 675.848127 149.964663 
L 678.299135 147.615736 
L 680.750144 151.692733 
L 683.201153 156.701778 
L 685.652161 154.625401 
L 688.10317 156.351368 
L 690.554179 157.184654 
L 693.005187 155.186622 
L 695.456196 161.125121 
L 697.907205 159.2631 
L 700.358213 158.108922 
L 702.809222 159.461106 
L 705.260231 159.426539 
L 710.162248 158.720985 
L 712.613256 163.496676 
L 715.064265 164.764399 
L 717.515274 165.062174 
L 719.966282 167.496289 
L 722.417291 170.745258 
L 724.8683 171.906262 
L 727.319308 174.824648 
L 729.770317 173.234462 
L 732.221326 173.407203 
L 734.672334 176.446904 
L 737.123343 177.841688 
L 739.574352 172.100374 
L 742.02536 168.631883 
L 744.476369 171.355885 
L 746.927378 171.408604 
L 749.378386 172.333388 
L 751.829395 175.56109 
L 754.280403 180.420093 
L 756.731412 178.48101 
L 759.182421 179.210305 
L 761.633429 178.29149 
L 764.084438 180.973478 
L 768.986455 178.251975 
L 771.437464 187.592165 
L 773.888473 187.941193 
L 776.339481 192.674349 
L 778.79049 192.98269 
L 781.241499 197.077414 
L 783.692507 191.176913 
L 786.143516 198.342224 
L 788.594524 198.841973 
L 793.496542 194.68483 
L 795.94755 195.166026 
L 798.398559 199.616136 
L 800.849568 199.69952 
L 803.300576 198.757877 
L 805.751585 196.043299 
L 808.202594 189.542272 
L 810.653602 188.956768 
L 813.104611 187.783948 
L 815.55562 187.235342 
L 818.006628 185.432616 
L 820.457637 188.40518 
L 822.908646 187.713887 
L 825.359654 190.397345 
L 827.810663 195.533959 
L 830.261671 195.211986 
L 832.71268 197.380984 
L 835.163689 194.843731 
L 837.614697 193.1703 
L 840.065706 187.231259 
L 842.516715 189.851651 
L 844.967723 194.107025 
L 847.418732 199.116992 
L 849.869741 197.295192 
L 852.320749 200.842607 
L 854.771758 199.655848 
L 857.222767 199.814082 
L 859.673775 204.390194 
L 862.124784 203.641877 
L 864.575793 200.521652 
L 867.026801 203.090803 
L 869.47781 206.329515 
L 871.928818 207.285368 
L 874.379827 205.966187 
L 876.830836 212.216791 
L 879.281844 209.564698 
L 881.732853 208.852305 
L 884.183862 209.065631 
L 886.63487 204.772974 
L 889.085879 207.232231 
L 891.536888 209.963435 
L 893.987896 209.539415 
L 898.889914 206.426812 
L 901.340922 208.317871 
L 903.791931 211.049866 
L 906.242939 215.656061 
L 908.693948 216.335402 
L 911.144957 216.849446 
L 913.595965 216.180451 
L 916.046974 216.189747 
L 920.948991 218.692349 
L 920.948991 218.692349 
" style="fill:none;stroke:#ffa500;stroke-linecap:square;stroke-width:3;"/>
   </g>
   <g id="line2d_50">
    <path clip-path="url(#p2fcb93515f)" d="M 77.802017 135.662519 
L 80.253026 136.207836 
L 82.704035 137.674672 
L 85.155043 138.474772 
L 87.606052 139.710665 
L 92.508069 142.791483 
L 94.959078 144.835881 
L 97.410086 146.729213 
L 104.763112 153.59713 
L 107.214121 156.69861 
L 109.66513 159.55296 
L 112.116138 161.676156 
L 114.567147 164.110716 
L 119.469164 168.025784 
L 121.920173 169.739132 
L 124.371182 170.821666 
L 126.82219 172.423114 
L 129.273199 173.714384 
L 131.724207 175.620401 
L 134.175216 177.373028 
L 136.626225 179.321776 
L 143.979251 183.081892 
L 146.430259 184.280374 
L 153.783285 187.18365 
L 158.685303 188.483299 
L 161.136311 188.54283 
L 163.58732 188.199413 
L 168.489337 188.147449 
L 175.842363 186.738043 
L 185.646398 184.087013 
L 188.097406 182.940502 
L 192.999424 181.379309 
L 195.450432 180.871443 
L 197.901441 179.628486 
L 200.35245 178.617138 
L 202.803458 177.065713 
L 205.254467 175.857591 
L 207.705476 175.06853 
L 212.607493 172.166339 
L 215.058501 170.595849 
L 219.960519 166.038259 
L 222.411527 164.827023 
L 224.862536 163.160635 
L 227.313545 161.193775 
L 229.764553 159.963559 
L 232.215562 159.497089 
L 234.666571 158.831749 
L 237.117579 158.395979 
L 239.568588 158.309991 
L 242.019597 158.063729 
L 244.470605 157.327677 
L 246.921614 157.334951 
L 249.372622 156.775636 
L 251.823631 155.963339 
L 254.27464 154.926991 
L 256.725648 154.465859 
L 259.176657 154.277024 
L 261.627666 153.962854 
L 266.529683 152.243449 
L 268.980692 151.0205 
L 271.4317 150.201968 
L 273.882709 148.618278 
L 276.333718 148.346257 
L 278.784726 147.392586 
L 281.235735 147.14141 
L 283.686744 146.421267 
L 286.137752 145.570258 
L 288.588761 144.856513 
L 291.039769 143.355433 
L 293.490778 143.055351 
L 300.843804 140.50499 
L 303.294813 139.465087 
L 305.745821 137.837389 
L 308.19683 137.136881 
L 310.647839 136.231313 
L 313.098847 135.157601 
L 315.549856 134.698627 
L 318.000865 133.192434 
L 320.451873 132.171401 
L 322.902882 130.895549 
L 325.35389 130.203926 
L 327.804899 129.195128 
L 330.255908 128.959304 
L 332.706916 128.370952 
L 335.157925 127.607184 
L 337.608934 127.650316 
L 340.059942 126.904068 
L 342.510951 126.86581 
L 344.96196 125.27893 
L 349.863977 125.023577 
L 352.314986 124.432694 
L 357.217003 122.790482 
L 359.668012 121.587801 
L 362.11902 121.236362 
L 364.570029 120.23018 
L 367.021037 118.942882 
L 369.472046 117.403905 
L 374.374063 115.889279 
L 376.825072 115.280241 
L 379.276081 115.205241 
L 381.727089 114.820103 
L 384.178098 114.989127 
L 386.629107 114.928601 
L 389.080115 115.127557 
L 391.531124 114.771349 
L 393.982133 114.062256 
L 396.433141 114.42385 
L 398.88415 115.248889 
L 401.335159 116.417669 
L 406.237176 119.057646 
L 408.688184 120.289026 
L 413.590202 123.518798 
L 416.04121 125.025595 
L 418.492219 126.093306 
L 420.943228 128.206123 
L 423.394236 131.477511 
L 425.845245 133.669024 
L 428.296254 136.77381 
L 430.747262 138.752378 
L 433.198271 140.003178 
L 435.64928 141.76163 
L 438.100288 142.783151 
L 440.551297 145.017895 
L 445.453314 148.492797 
L 447.904323 149.207954 
L 450.355331 150.889666 
L 452.80634 153.004129 
L 457.708357 156.70684 
L 460.159366 157.779379 
L 462.610375 159.338692 
L 469.963401 163.240732 
L 472.414409 164.39379 
L 474.865418 165.158892 
L 477.316427 165.505245 
L 479.767435 165.552595 
L 482.218444 165.283445 
L 484.669452 164.054869 
L 487.120461 162.679439 
L 489.57147 162.048426 
L 492.022478 161.648286 
L 494.473487 160.960274 
L 496.924496 160.544085 
L 501.826513 158.795796 
L 506.72853 157.935193 
L 509.179539 157.342239 
L 511.630548 156.577975 
L 514.081556 156.180276 
L 518.983573 154.394895 
L 523.885591 152.158058 
L 526.336599 150.885056 
L 528.787608 150.270096 
L 531.238617 149.372036 
L 533.689625 148.100831 
L 536.140634 147.887394 
L 538.591643 147.21129 
L 541.042651 146.259202 
L 543.49366 145.495246 
L 545.944669 143.654097 
L 550.846686 141.660375 
L 553.297695 141.284161 
L 555.748703 141.049632 
L 558.199712 140.421986 
L 560.65072 140.231461 
L 563.101729 139.519081 
L 565.552738 138.190253 
L 570.454755 137.79476 
L 572.905764 136.889557 
L 575.356772 136.622589 
L 577.807781 136.636417 
L 580.25879 135.889092 
L 585.160807 135.00635 
L 590.062824 135.324031 
L 592.513833 135.173318 
L 594.964841 135.308846 
L 597.41585 135.611202 
L 599.866859 135.632014 
L 602.317867 135.903244 
L 604.768876 136.017632 
L 607.219885 136.552863 
L 609.670893 137.833522 
L 612.121902 139.262898 
L 614.572911 141.017158 
L 617.023919 143.424303 
L 619.474928 145.66335 
L 621.925937 148.810756 
L 626.827954 155.787797 
L 629.278963 160.788272 
L 634.18098 174.03988 
L 636.631988 181.567652 
L 639.082997 190.039858 
L 643.985014 202.631197 
L 648.887032 213.659536 
L 651.33804 218.441882 
L 656.240058 227.252507 
L 661.142075 233.899825 
L 663.593084 236.588786 
L 666.044092 238.859595 
L 668.495101 240.268645 
L 673.397118 241.445571 
L 675.848127 242.530116 
L 680.750144 243.301349 
L 683.201153 243.706907 
L 685.652161 243.923309 
L 688.10317 244.743442 
L 690.554179 245.064651 
L 693.005187 244.676507 
L 695.456196 243.706331 
L 697.907205 242.924741 
L 702.809222 241.585541 
L 705.260231 240.625224 
L 707.711239 239.784731 
L 710.162248 238.396988 
L 712.613256 237.784278 
L 715.064265 236.981155 
L 717.515274 235.604729 
L 719.966282 233.981293 
L 724.8683 229.51141 
L 727.319308 227.498338 
L 729.770317 225.685171 
L 732.221326 224.064536 
L 734.672334 222.88586 
L 737.123343 221.897428 
L 739.574352 221.219655 
L 742.02536 219.635719 
L 744.476369 217.643372 
L 746.927378 216.350942 
L 749.378386 215.458691 
L 751.829395 215.235576 
L 756.731412 213.020683 
L 759.182421 212.469041 
L 766.535447 209.970447 
L 768.986455 209.616601 
L 773.888473 208.552171 
L 776.339481 206.89139 
L 778.79049 204.655981 
L 783.692507 201.616677 
L 791.045533 196.426414 
L 795.94755 192.548389 
L 798.398559 191.073485 
L 803.300576 185.72484 
L 805.751585 184.077792 
L 808.202594 181.757345 
L 810.653602 180.177899 
L 813.104611 178.454467 
L 815.55562 176.461542 
L 818.006628 174.628627 
L 820.457637 173.02757 
L 827.810663 167.283716 
L 832.71268 164.077164 
L 835.163689 163.072831 
L 837.614697 161.433138 
L 840.065706 159.516468 
L 842.516715 157.782587 
L 844.967723 157.090347 
L 847.418732 156.944997 
L 852.320749 155.385862 
L 854.771758 154.97344 
L 859.673775 154.403345 
L 862.124784 153.749408 
L 864.575793 152.877482 
L 867.026801 152.417488 
L 869.47781 151.549074 
L 874.379827 149.313963 
L 876.830836 147.84632 
L 879.281844 146.640402 
L 881.732853 145.925183 
L 884.183862 144.647181 
L 886.63487 143.927757 
L 889.085879 142.553864 
L 893.987896 140.540744 
L 898.889914 138.390481 
L 901.340922 136.865483 
L 906.242939 135.333497 
L 908.693948 134.283184 
L 911.144957 133.707058 
L 913.595965 132.79059 
L 918.497983 131.193959 
L 920.948991 130.319554 
L 920.948991 130.319554 
" style="fill:none;stroke:#800000;stroke-linecap:square;stroke-width:3;"/>
   </g>
   <g id="line2d_51">
    <path clip-path="url(#p2fcb93515f)" d="M 72.9 135.73256 
L 923.4 135.73256 
" style="fill:none;stroke:#000000;stroke-linecap:square;stroke-width:2;"/>
   </g>
   <g id="patch_3">
    <path d="M 72.9 388.8 
L 923.4 388.8 
" style="fill:none;stroke:#000000;stroke-linecap:square;stroke-linejoin:miter;stroke-width:0.8;"/>
   </g>
   <g id="text_13">
    <!-- Monthly observations; seasonally adjusted; Percentage point change since March 1993; Men -->
    <defs>
     <path d="M 9.8125 72.90625 
L 24.515625 72.90625 
L 43.109375 23.296875 
L 61.8125 72.90625 
L 76.515625 72.90625 
L 76.515625 0 
L 66.890625 0 
L 66.890625 64.015625 
L 48.09375 14.015625 
L 38.1875 14.015625 
L 19.390625 64.015625 
L 19.390625 0 
L 9.8125 0 
z
" id="DejaVuSans-4d"/>
     <path d="M 54.890625 33.015625 
L 54.890625 0 
L 45.90625 0 
L 45.90625 32.71875 
Q 45.90625 40.484375 42.875 44.328125 
Q 39.84375 48.1875 33.796875 48.1875 
Q 26.515625 48.1875 22.3125 43.546875 
Q 18.109375 38.921875 18.109375 30.90625 
L 18.109375 0 
L 9.078125 0 
L 9.078125 75.984375 
L 18.109375 75.984375 
L 18.109375 46.1875 
Q 21.34375 51.125 25.703125 53.5625 
Q 30.078125 56 35.796875 56 
Q 45.21875 56 50.046875 50.171875 
Q 54.890625 44.34375 54.890625 33.015625 
z
" id="DejaVuSans-68"/>
     <path d="M 9.421875 75.984375 
L 18.40625 75.984375 
L 18.40625 0 
L 9.421875 0 
z
" id="DejaVuSans-6c"/>
     <path d="M 32.171875 -5.078125 
Q 28.375 -14.84375 24.75 -17.8125 
Q 21.140625 -20.796875 15.09375 -20.796875 
L 7.90625 -20.796875 
L 7.90625 -13.28125 
L 13.1875 -13.28125 
Q 16.890625 -13.28125 18.9375 -11.515625 
Q 21 -9.765625 23.484375 -3.21875 
L 25.09375 0.875 
L 2.984375 54.6875 
L 12.5 54.6875 
L 29.59375 11.921875 
L 46.6875 54.6875 
L 56.203125 54.6875 
z
" id="DejaVuSans-79"/>
     <path d="M 48.6875 27.296875 
Q 48.6875 37.203125 44.609375 42.84375 
Q 40.53125 48.484375 33.40625 48.484375 
Q 26.265625 48.484375 22.1875 42.84375 
Q 18.109375 37.203125 18.109375 27.296875 
Q 18.109375 17.390625 22.1875 11.75 
Q 26.265625 6.109375 33.40625 6.109375 
Q 40.53125 6.109375 44.609375 11.75 
Q 48.6875 17.390625 48.6875 27.296875 
z
M 18.109375 46.390625 
Q 20.953125 51.265625 25.265625 53.625 
Q 29.59375 56 35.59375 56 
Q 45.5625 56 51.78125 48.09375 
Q 58.015625 40.1875 58.015625 27.296875 
Q 58.015625 14.40625 51.78125 6.484375 
Q 45.5625 -1.421875 35.59375 -1.421875 
Q 29.59375 -1.421875 25.265625 0.953125 
Q 20.953125 3.328125 18.109375 8.203125 
L 18.109375 0 
L 9.078125 0 
L 9.078125 75.984375 
L 18.109375 75.984375 
z
" id="DejaVuSans-62"/>
     <path d="M 44.28125 53.078125 
L 44.28125 44.578125 
Q 40.484375 46.53125 36.375 47.5 
Q 32.28125 48.484375 27.875 48.484375 
Q 21.1875 48.484375 17.84375 46.4375 
Q 14.5 44.390625 14.5 40.28125 
Q 14.5 37.15625 16.890625 35.375 
Q 19.28125 33.59375 26.515625 31.984375 
L 29.59375 31.296875 
Q 39.15625 29.25 43.1875 25.515625 
Q 47.21875 21.78125 47.21875 15.09375 
Q 47.21875 7.46875 41.1875 3.015625 
Q 35.15625 -1.421875 24.609375 -1.421875 
Q 20.21875 -1.421875 15.453125 -0.5625 
Q 10.6875 0.296875 5.421875 2 
L 5.421875 11.28125 
Q 10.40625 8.6875 15.234375 7.390625 
Q 20.0625 6.109375 24.8125 6.109375 
Q 31.15625 6.109375 34.5625 8.28125 
Q 37.984375 10.453125 37.984375 14.40625 
Q 37.984375 18.0625 35.515625 20.015625 
Q 33.0625 21.96875 24.703125 23.78125 
L 21.578125 24.515625 
Q 13.234375 26.265625 9.515625 29.90625 
Q 5.8125 33.546875 5.8125 39.890625 
Q 5.8125 47.609375 11.28125 51.796875 
Q 16.75 56 26.8125 56 
Q 31.78125 56 36.171875 55.265625 
Q 40.578125 54.546875 44.28125 53.078125 
z
" id="DejaVuSans-73"/>
     <path d="M 2.984375 54.6875 
L 12.5 54.6875 
L 29.59375 8.796875 
L 46.6875 54.6875 
L 56.203125 54.6875 
L 35.6875 0 
L 23.484375 0 
z
" id="DejaVuSans-76"/>
     <path d="M 11.71875 51.703125 
L 22.015625 51.703125 
L 22.015625 39.3125 
L 11.71875 39.3125 
z
M 11.71875 12.40625 
L 22.015625 12.40625 
L 22.015625 4 
L 14.015625 -11.625 
L 7.71875 -11.625 
L 11.71875 4 
z
" id="DejaVuSans-3b"/>
     <path d="M 45.40625 46.390625 
L 45.40625 75.984375 
L 54.390625 75.984375 
L 54.390625 0 
L 45.40625 0 
L 45.40625 8.203125 
Q 42.578125 3.328125 38.25 0.953125 
Q 33.9375 -1.421875 27.875 -1.421875 
Q 17.96875 -1.421875 11.734375 6.484375 
Q 5.515625 14.40625 5.515625 27.296875 
Q 5.515625 40.1875 11.734375 48.09375 
Q 17.96875 56 27.875 56 
Q 33.9375 56 38.25 53.625 
Q 42.578125 51.265625 45.40625 46.390625 
z
M 14.796875 27.296875 
Q 14.796875 17.390625 18.875 11.75 
Q 22.953125 6.109375 30.078125 6.109375 
Q 37.203125 6.109375 41.296875 11.75 
Q 45.40625 17.390625 45.40625 27.296875 
Q 45.40625 37.203125 41.296875 42.84375 
Q 37.203125 48.484375 30.078125 48.484375 
Q 22.953125 48.484375 18.875 42.84375 
Q 14.796875 37.203125 14.796875 27.296875 
z
" id="DejaVuSans-64"/>
     <path d="M 9.421875 54.6875 
L 18.40625 54.6875 
L 18.40625 -0.984375 
Q 18.40625 -11.421875 14.421875 -16.109375 
Q 10.453125 -20.796875 1.609375 -20.796875 
L -1.8125 -20.796875 
L -1.8125 -13.1875 
L 0.59375 -13.1875 
Q 5.71875 -13.1875 7.5625 -10.8125 
Q 9.421875 -8.453125 9.421875 -0.984375 
z
M 9.421875 75.984375 
L 18.40625 75.984375 
L 18.40625 64.59375 
L 9.421875 64.59375 
z
" id="DejaVuSans-6a"/>
     <path d="M 8.5 21.578125 
L 8.5 54.6875 
L 17.484375 54.6875 
L 17.484375 21.921875 
Q 17.484375 14.15625 20.5 10.265625 
Q 23.53125 6.390625 29.59375 6.390625 
Q 36.859375 6.390625 41.078125 11.03125 
Q 45.3125 15.671875 45.3125 23.6875 
L 45.3125 54.6875 
L 54.296875 54.6875 
L 54.296875 0 
L 45.3125 0 
L 45.3125 8.40625 
Q 42.046875 3.421875 37.71875 1 
Q 33.40625 -1.421875 27.6875 -1.421875 
Q 18.265625 -1.421875 13.375 4.4375 
Q 8.5 10.296875 8.5 21.578125 
z
M 31.109375 56 
z
" id="DejaVuSans-75"/>
     <path d="M 40.578125 39.3125 
Q 47.65625 37.796875 51.625 33 
Q 55.609375 28.21875 55.609375 21.1875 
Q 55.609375 10.40625 48.1875 4.484375 
Q 40.765625 -1.421875 27.09375 -1.421875 
Q 22.515625 -1.421875 17.65625 -0.515625 
Q 12.796875 0.390625 7.625 2.203125 
L 7.625 11.71875 
Q 11.71875 9.328125 16.59375 8.109375 
Q 21.484375 6.890625 26.8125 6.890625 
Q 36.078125 6.890625 40.9375 10.546875 
Q 45.796875 14.203125 45.796875 21.1875 
Q 45.796875 27.640625 41.28125 31.265625 
Q 36.765625 34.90625 28.71875 34.90625 
L 20.21875 34.90625 
L 20.21875 43.015625 
L 29.109375 43.015625 
Q 36.375 43.015625 40.234375 45.921875 
Q 44.09375 48.828125 44.09375 54.296875 
Q 44.09375 59.90625 40.109375 62.90625 
Q 36.140625 65.921875 28.71875 65.921875 
Q 24.65625 65.921875 20.015625 65.03125 
Q 15.375 64.15625 9.8125 62.3125 
L 9.8125 71.09375 
Q 15.4375 72.65625 20.34375 73.4375 
Q 25.25 74.21875 29.59375 74.21875 
Q 40.828125 74.21875 47.359375 69.109375 
Q 53.90625 64.015625 53.90625 55.328125 
Q 53.90625 49.265625 50.4375 45.09375 
Q 46.96875 40.921875 40.578125 39.3125 
z
" id="DejaVuSans-33"/>
    </defs>
    <g transform="translate(72.9 45.84)scale(0.14 -0.14)">
     <use xlink:href="#DejaVuSans-4d"/>
     <use x="86.279297" xlink:href="#DejaVuSans-6f"/>
     <use x="147.460938" xlink:href="#DejaVuSans-6e"/>
     <use x="210.839844" xlink:href="#DejaVuSans-74"/>
     <use x="250.048828" xlink:href="#DejaVuSans-68"/>
     <use x="313.427734" xlink:href="#DejaVuSans-6c"/>
     <use x="341.210938" xlink:href="#DejaVuSans-79"/>
     <use x="400.390625" xlink:href="#DejaVuSans-20"/>
     <use x="432.177734" xlink:href="#DejaVuSans-6f"/>
     <use x="493.359375" xlink:href="#DejaVuSans-62"/>
     <use x="556.835938" xlink:href="#DejaVuSans-73"/>
     <use x="608.935547" xlink:href="#DejaVuSans-65"/>
     <use x="670.458984" xlink:href="#DejaVuSans-72"/>
     <use x="711.572266" xlink:href="#DejaVuSans-76"/>
     <use x="770.751953" xlink:href="#DejaVuSans-61"/>
     <use x="832.03125" xlink:href="#DejaVuSans-74"/>
     <use x="871.240234" xlink:href="#DejaVuSans-69"/>
     <use x="899.023438" xlink:href="#DejaVuSans-6f"/>
     <use x="960.205078" xlink:href="#DejaVuSans-6e"/>
     <use x="1023.583984" xlink:href="#DejaVuSans-73"/>
     <use x="1075.683594" xlink:href="#DejaVuSans-3b"/>
     <use x="1109.375" xlink:href="#DejaVuSans-20"/>
     <use x="1141.162109" xlink:href="#DejaVuSans-73"/>
     <use x="1193.261719" xlink:href="#DejaVuSans-65"/>
     <use x="1254.785156" xlink:href="#DejaVuSans-61"/>
     <use x="1316.064453" xlink:href="#DejaVuSans-73"/>
     <use x="1368.164062" xlink:href="#DejaVuSans-6f"/>
     <use x="1429.345703" xlink:href="#DejaVuSans-6e"/>
     <use x="1492.724609" xlink:href="#DejaVuSans-61"/>
     <use x="1554.003906" xlink:href="#DejaVuSans-6c"/>
     <use x="1581.787109" xlink:href="#DejaVuSans-6c"/>
     <use x="1609.570312" xlink:href="#DejaVuSans-79"/>
     <use x="1668.75" xlink:href="#DejaVuSans-20"/>
     <use x="1700.537109" xlink:href="#DejaVuSans-61"/>
     <use x="1761.816406" xlink:href="#DejaVuSans-64"/>
     <use x="1825.292969" xlink:href="#DejaVuSans-6a"/>
     <use x="1853.076172" xlink:href="#DejaVuSans-75"/>
     <use x="1916.455078" xlink:href="#DejaVuSans-73"/>
     <use x="1968.554688" xlink:href="#DejaVuSans-74"/>
     <use x="2007.763672" xlink:href="#DejaVuSans-65"/>
     <use x="2069.287109" xlink:href="#DejaVuSans-64"/>
     <use x="2132.763672" xlink:href="#DejaVuSans-3b"/>
     <use x="2166.455078" xlink:href="#DejaVuSans-20"/>
     <use x="2198.242188" xlink:href="#DejaVuSans-50"/>
     <use x="2258.498047" xlink:href="#DejaVuSans-65"/>
     <use x="2320.021484" xlink:href="#DejaVuSans-72"/>
     <use x="2361.103516" xlink:href="#DejaVuSans-63"/>
     <use x="2416.083984" xlink:href="#DejaVuSans-65"/>
     <use x="2477.607422" xlink:href="#DejaVuSans-6e"/>
     <use x="2540.986328" xlink:href="#DejaVuSans-74"/>
     <use x="2580.195312" xlink:href="#DejaVuSans-61"/>
     <use x="2641.474609" xlink:href="#DejaVuSans-67"/>
     <use x="2704.951172" xlink:href="#DejaVuSans-65"/>
     <use x="2766.474609" xlink:href="#DejaVuSans-20"/>
     <use x="2798.261719" xlink:href="#DejaVuSans-70"/>
     <use x="2861.738281" xlink:href="#DejaVuSans-6f"/>
     <use x="2922.919922" xlink:href="#DejaVuSans-69"/>
     <use x="2950.703125" xlink:href="#DejaVuSans-6e"/>
     <use x="3014.082031" xlink:href="#DejaVuSans-74"/>
     <use x="3053.291016" xlink:href="#DejaVuSans-20"/>
     <use x="3085.078125" xlink:href="#DejaVuSans-63"/>
     <use x="3140.058594" xlink:href="#DejaVuSans-68"/>
     <use x="3203.4375" xlink:href="#DejaVuSans-61"/>
     <use x="3264.716797" xlink:href="#DejaVuSans-6e"/>
     <use x="3328.095703" xlink:href="#DejaVuSans-67"/>
     <use x="3391.572266" xlink:href="#DejaVuSans-65"/>
     <use x="3453.095703" xlink:href="#DejaVuSans-20"/>
     <use x="3484.882812" xlink:href="#DejaVuSans-73"/>
     <use x="3536.982422" xlink:href="#DejaVuSans-69"/>
     <use x="3564.765625" xlink:href="#DejaVuSans-6e"/>
     <use x="3628.144531" xlink:href="#DejaVuSans-63"/>
     <use x="3683.125" xlink:href="#DejaVuSans-65"/>
     <use x="3744.648438" xlink:href="#DejaVuSans-20"/>
     <use x="3776.435547" xlink:href="#DejaVuSans-4d"/>
     <use x="3862.714844" xlink:href="#DejaVuSans-61"/>
     <use x="3923.994141" xlink:href="#DejaVuSans-72"/>
     <use x="3965.076172" xlink:href="#DejaVuSans-63"/>
     <use x="4020.056641" xlink:href="#DejaVuSans-68"/>
     <use x="4083.435547" xlink:href="#DejaVuSans-20"/>
     <use x="4115.222656" xlink:href="#DejaVuSans-31"/>
     <use x="4178.845703" xlink:href="#DejaVuSans-39"/>
     <use x="4242.46875" xlink:href="#DejaVuSans-39"/>
     <use x="4306.091797" xlink:href="#DejaVuSans-33"/>
     <use x="4369.714844" xlink:href="#DejaVuSans-3b"/>
     <use x="4403.40625" xlink:href="#DejaVuSans-20"/>
     <use x="4435.193359" xlink:href="#DejaVuSans-4d"/>
     <use x="4521.472656" xlink:href="#DejaVuSans-65"/>
     <use x="4582.996094" xlink:href="#DejaVuSans-6e"/>
    </g>
   </g>
   <g id="legend_1">
    <g id="patch_4">
     <path d="M 81.3 382.8 
L 213.373125 382.8 
Q 215.773125 382.8 215.773125 380.4 
L 215.773125 311.145 
Q 215.773125 308.745 213.373125 308.745 
L 81.3 308.745 
Q 78.9 308.745 78.9 311.145 
L 78.9 380.4 
Q 78.9 382.8 81.3 382.8 
z
" style="fill:#ffffff;opacity:0.8;stroke:#cccccc;stroke-linejoin:miter;"/>
    </g>
    <g id="line2d_52">
     <path d="M 83.7 318.463125 
L 107.7 318.463125 
" style="fill:none;stroke:#000000;stroke-linecap:square;stroke-width:3;"/>
    </g>
    <g id="line2d_53"/>
    <g id="text_14">
     <!-- Change in LFPR -->
     <defs>
      <path d="M 64.40625 67.28125 
L 64.40625 56.890625 
Q 59.421875 61.53125 53.78125 63.8125 
Q 48.140625 66.109375 41.796875 66.109375 
Q 29.296875 66.109375 22.65625 58.46875 
Q 16.015625 50.828125 16.015625 36.375 
Q 16.015625 21.96875 22.65625 14.328125 
Q 29.296875 6.6875 41.796875 6.6875 
Q 48.140625 6.6875 53.78125 8.984375 
Q 59.421875 11.28125 64.40625 15.921875 
L 64.40625 5.609375 
Q 59.234375 2.09375 53.4375 0.328125 
Q 47.65625 -1.421875 41.21875 -1.421875 
Q 24.65625 -1.421875 15.125 8.703125 
Q 5.609375 18.84375 5.609375 36.375 
Q 5.609375 53.953125 15.125 64.078125 
Q 24.65625 74.21875 41.21875 74.21875 
Q 47.75 74.21875 53.53125 72.484375 
Q 59.328125 70.75 64.40625 67.28125 
z
" id="DejaVuSans-43"/>
      <path d="M 9.8125 72.90625 
L 19.671875 72.90625 
L 19.671875 8.296875 
L 55.171875 8.296875 
L 55.171875 0 
L 9.8125 0 
z
" id="DejaVuSans-4c"/>
      <path d="M 9.8125 72.90625 
L 51.703125 72.90625 
L 51.703125 64.59375 
L 19.671875 64.59375 
L 19.671875 43.109375 
L 48.578125 43.109375 
L 48.578125 34.8125 
L 19.671875 34.8125 
L 19.671875 0 
L 9.8125 0 
z
" id="DejaVuSans-46"/>
      <path d="M 44.390625 34.1875 
Q 47.5625 33.109375 50.5625 29.59375 
Q 53.5625 26.078125 56.59375 19.921875 
L 66.609375 0 
L 56 0 
L 46.6875 18.703125 
Q 43.0625 26.03125 39.671875 28.421875 
Q 36.28125 30.8125 30.421875 30.8125 
L 19.671875 30.8125 
L 19.671875 0 
L 9.8125 0 
L 9.8125 72.90625 
L 32.078125 72.90625 
Q 44.578125 72.90625 50.734375 67.671875 
Q 56.890625 62.453125 56.890625 51.90625 
Q 56.890625 45.015625 53.6875 40.46875 
Q 50.484375 35.9375 44.390625 34.1875 
z
M 19.671875 64.796875 
L 19.671875 38.921875 
L 32.078125 38.921875 
Q 39.203125 38.921875 42.84375 42.21875 
Q 46.484375 45.515625 46.484375 51.90625 
Q 46.484375 58.296875 42.84375 61.546875 
Q 39.203125 64.796875 32.078125 64.796875 
z
" id="DejaVuSans-52"/>
     </defs>
     <g transform="translate(117.3 322.663125)scale(0.12 -0.12)">
      <use xlink:href="#DejaVuSans-43"/>
      <use x="69.824219" xlink:href="#DejaVuSans-68"/>
      <use x="133.203125" xlink:href="#DejaVuSans-61"/>
      <use x="194.482422" xlink:href="#DejaVuSans-6e"/>
      <use x="257.861328" xlink:href="#DejaVuSans-67"/>
      <use x="321.337891" xlink:href="#DejaVuSans-65"/>
      <use x="382.861328" xlink:href="#DejaVuSans-20"/>
      <use x="414.648438" xlink:href="#DejaVuSans-69"/>
      <use x="442.431641" xlink:href="#DejaVuSans-6e"/>
      <use x="505.810547" xlink:href="#DejaVuSans-20"/>
      <use x="537.597656" xlink:href="#DejaVuSans-4c"/>
      <use x="593.310547" xlink:href="#DejaVuSans-46"/>
      <use x="650.830078" xlink:href="#DejaVuSans-50"/>
      <use x="711.132812" xlink:href="#DejaVuSans-52"/>
     </g>
    </g>
    <g id="line2d_54">
     <path d="M 83.7 336.076875 
L 107.7 336.076875 
" style="fill:none;stroke:#000080;stroke-linecap:square;stroke-width:3;"/>
    </g>
    <g id="line2d_55"/>
    <g id="text_15">
     <!-- Exit -->
     <defs>
      <path d="M 9.8125 72.90625 
L 55.90625 72.90625 
L 55.90625 64.59375 
L 19.671875 64.59375 
L 19.671875 43.015625 
L 54.390625 43.015625 
L 54.390625 34.71875 
L 19.671875 34.71875 
L 19.671875 8.296875 
L 56.78125 8.296875 
L 56.78125 0 
L 9.8125 0 
z
" id="DejaVuSans-45"/>
      <path d="M 54.890625 54.6875 
L 35.109375 28.078125 
L 55.90625 0 
L 45.3125 0 
L 29.390625 21.484375 
L 13.484375 0 
L 2.875 0 
L 24.125 28.609375 
L 4.6875 54.6875 
L 15.28125 54.6875 
L 29.78125 35.203125 
L 44.28125 54.6875 
z
" id="DejaVuSans-78"/>
     </defs>
     <g transform="translate(117.3 340.276875)scale(0.12 -0.12)">
      <use xlink:href="#DejaVuSans-45"/>
      <use x="63.183594" xlink:href="#DejaVuSans-78"/>
      <use x="122.363281" xlink:href="#DejaVuSans-69"/>
      <use x="150.146484" xlink:href="#DejaVuSans-74"/>
     </g>
    </g>
    <g id="line2d_56">
     <path d="M 83.7 353.690625 
L 107.7 353.690625 
" style="fill:none;stroke:#ffa500;stroke-linecap:square;stroke-width:3;"/>
    </g>
    <g id="line2d_57"/>
    <g id="text_16">
     <!-- Entry -->
     <g transform="translate(117.3 357.890625)scale(0.12 -0.12)">
      <use xlink:href="#DejaVuSans-45"/>
      <use x="63.183594" xlink:href="#DejaVuSans-6e"/>
      <use x="126.5625" xlink:href="#DejaVuSans-74"/>
      <use x="165.771484" xlink:href="#DejaVuSans-72"/>
      <use x="206.884766" xlink:href="#DejaVuSans-79"/>
     </g>
    </g>
    <g id="line2d_58">
     <path d="M 83.7 371.304375 
L 107.7 371.304375 
" style="fill:none;stroke:#800000;stroke-linecap:square;stroke-width:3;"/>
    </g>
    <g id="line2d_59"/>
    <g id="text_17">
     <!-- Churn -->
     <g transform="translate(117.3 375.504375)scale(0.12 -0.12)">
      <use xlink:href="#DejaVuSans-43"/>
      <use x="69.824219" xlink:href="#DejaVuSans-68"/>
      <use x="133.203125" xlink:href="#DejaVuSans-75"/>
      <use x="196.582031" xlink:href="#DejaVuSans-72"/>
      <use x="237.679688" xlink:href="#DejaVuSans-6e"/>
     </g>
    </g>
   </g>
  </g>
  <g id="text_18">
   <!-- Change in Labor force participation rate decomposed -->
   <defs>
    <path d="M 67 4 
Q 61.8125 1.3125 56.203125 -0.046875 
Q 50.59375 -1.421875 44.484375 -1.421875 
Q 26.265625 -1.421875 15.625 8.765625 
Q 4.984375 18.953125 4.984375 36.375 
Q 4.984375 53.859375 15.625 64.03125 
Q 26.265625 74.21875 44.484375 74.21875 
Q 50.59375 74.21875 56.203125 72.84375 
Q 61.8125 71.484375 67 68.796875 
L 67 53.71875 
Q 61.765625 57.28125 56.6875 58.9375 
Q 51.609375 60.59375 46 60.59375 
Q 35.9375 60.59375 30.171875 54.140625 
Q 24.421875 47.703125 24.421875 36.375 
Q 24.421875 25.09375 30.171875 18.640625 
Q 35.9375 12.203125 46 12.203125 
Q 51.609375 12.203125 56.6875 13.859375 
Q 61.765625 15.53125 67 19.09375 
z
" id="DejaVuSans-Bold-43"/>
    <path d="M 63.375 33.296875 
L 63.375 0 
L 45.796875 0 
L 45.796875 5.421875 
L 45.796875 25.390625 
Q 45.796875 32.5625 45.484375 35.25 
Q 45.171875 37.9375 44.390625 39.203125 
Q 43.359375 40.921875 41.59375 41.875 
Q 39.84375 42.828125 37.59375 42.828125 
Q 32.125 42.828125 29 38.59375 
Q 25.875 34.375 25.875 26.90625 
L 25.875 0 
L 8.40625 0 
L 8.40625 75.984375 
L 25.875 75.984375 
L 25.875 46.6875 
Q 29.828125 51.46875 34.265625 53.734375 
Q 38.71875 56 44.09375 56 
Q 53.5625 56 58.46875 50.1875 
Q 63.375 44.390625 63.375 33.296875 
z
" id="DejaVuSans-Bold-68"/>
    <path d="M 32.90625 24.609375 
Q 27.4375 24.609375 24.671875 22.75 
Q 21.921875 20.90625 21.921875 17.28125 
Q 21.921875 13.96875 24.140625 12.078125 
Q 26.375 10.203125 30.328125 10.203125 
Q 35.25 10.203125 38.625 13.734375 
Q 42 17.28125 42 22.609375 
L 42 24.609375 
z
M 59.625 31.203125 
L 59.625 0 
L 42 0 
L 42 8.109375 
Q 38.484375 3.125 34.078125 0.84375 
Q 29.6875 -1.421875 23.390625 -1.421875 
Q 14.890625 -1.421875 9.59375 3.53125 
Q 4.296875 8.5 4.296875 16.40625 
Q 4.296875 26.03125 10.90625 30.515625 
Q 17.53125 35.015625 31.6875 35.015625 
L 42 35.015625 
L 42 36.375 
Q 42 40.53125 38.71875 42.453125 
Q 35.453125 44.390625 28.515625 44.390625 
Q 22.90625 44.390625 18.0625 43.265625 
Q 13.234375 42.140625 9.078125 39.890625 
L 9.078125 53.21875 
Q 14.703125 54.59375 20.359375 55.296875 
Q 26.03125 56 31.6875 56 
Q 46.484375 56 53.046875 50.171875 
Q 59.625 44.34375 59.625 31.203125 
z
" id="DejaVuSans-Bold-61"/>
    <path d="M 63.375 33.296875 
L 63.375 0 
L 45.796875 0 
L 45.796875 5.421875 
L 45.796875 25.484375 
Q 45.796875 32.5625 45.484375 35.25 
Q 45.171875 37.9375 44.390625 39.203125 
Q 43.359375 40.921875 41.59375 41.875 
Q 39.84375 42.828125 37.59375 42.828125 
Q 32.125 42.828125 29 38.59375 
Q 25.875 34.375 25.875 26.90625 
L 25.875 0 
L 8.40625 0 
L 8.40625 54.6875 
L 25.875 54.6875 
L 25.875 46.6875 
Q 29.828125 51.46875 34.265625 53.734375 
Q 38.71875 56 44.09375 56 
Q 53.5625 56 58.46875 50.1875 
Q 63.375 44.390625 63.375 33.296875 
z
" id="DejaVuSans-Bold-6e"/>
    <path d="M 45.609375 9.28125 
Q 42 4.5 37.640625 2.25 
Q 33.296875 0 27.59375 0 
Q 17.578125 0 11.03125 7.875 
Q 4.5 15.765625 4.5 27.984375 
Q 4.5 40.234375 11.03125 48.0625 
Q 17.578125 55.90625 27.59375 55.90625 
Q 33.296875 55.90625 37.640625 53.65625 
Q 42 51.421875 45.609375 46.578125 
L 45.609375 54.6875 
L 63.1875 54.6875 
L 63.1875 5.515625 
Q 63.1875 -7.671875 54.859375 -14.625 
Q 46.53125 -21.578125 30.71875 -21.578125 
Q 25.59375 -21.578125 20.796875 -20.796875 
Q 16.015625 -20.015625 11.1875 -18.40625 
L 11.1875 -4.78125 
Q 15.765625 -7.421875 20.15625 -8.71875 
Q 24.5625 -10.015625 29 -10.015625 
Q 37.59375 -10.015625 41.59375 -6.25 
Q 45.609375 -2.484375 45.609375 5.515625 
z
M 34.078125 43.3125 
Q 28.65625 43.3125 25.625 39.296875 
Q 22.609375 35.296875 22.609375 27.984375 
Q 22.609375 20.453125 25.53125 16.578125 
Q 28.46875 12.703125 34.078125 12.703125 
Q 39.546875 12.703125 42.578125 16.703125 
Q 45.609375 20.703125 45.609375 27.984375 
Q 45.609375 35.296875 42.578125 39.296875 
Q 39.546875 43.3125 34.078125 43.3125 
z
" id="DejaVuSans-Bold-67"/>
    <path d="M 62.984375 27.484375 
L 62.984375 22.515625 
L 22.125 22.515625 
Q 22.75 16.359375 26.5625 13.28125 
Q 30.375 10.203125 37.203125 10.203125 
Q 42.71875 10.203125 48.5 11.84375 
Q 54.296875 13.484375 60.40625 16.796875 
L 60.40625 3.328125 
Q 54.203125 0.984375 48 -0.21875 
Q 41.796875 -1.421875 35.59375 -1.421875 
Q 20.75 -1.421875 12.515625 6.125 
Q 4.296875 13.671875 4.296875 27.296875 
Q 4.296875 40.671875 12.375 48.328125 
Q 20.453125 56 34.625 56 
Q 47.515625 56 55.25 48.234375 
Q 62.984375 40.484375 62.984375 27.484375 
z
M 45.015625 33.296875 
Q 45.015625 38.28125 42.109375 41.328125 
Q 39.203125 44.390625 34.515625 44.390625 
Q 29.4375 44.390625 26.265625 41.53125 
Q 23.09375 38.671875 22.3125 33.296875 
z
" id="DejaVuSans-Bold-65"/>
    <path id="DejaVuSans-Bold-20"/>
    <path d="M 8.40625 54.6875 
L 25.875 54.6875 
L 25.875 0 
L 8.40625 0 
z
M 8.40625 75.984375 
L 25.875 75.984375 
L 25.875 61.71875 
L 8.40625 61.71875 
z
" id="DejaVuSans-Bold-69"/>
    <path d="M 9.1875 72.90625 
L 27.984375 72.90625 
L 27.984375 14.203125 
L 60.984375 14.203125 
L 60.984375 0 
L 9.1875 0 
z
" id="DejaVuSans-Bold-4c"/>
    <path d="M 37.5 11.28125 
Q 43.109375 11.28125 46.0625 15.375 
Q 49.03125 19.484375 49.03125 27.296875 
Q 49.03125 35.109375 46.0625 39.203125 
Q 43.109375 43.3125 37.5 43.3125 
Q 31.890625 43.3125 28.875 39.1875 
Q 25.875 35.0625 25.875 27.296875 
Q 25.875 19.53125 28.875 15.40625 
Q 31.890625 11.28125 37.5 11.28125 
z
M 25.875 46.6875 
Q 29.5 51.46875 33.890625 53.734375 
Q 38.28125 56 44 56 
Q 54.109375 56 60.59375 47.96875 
Q 67.09375 39.9375 67.09375 27.296875 
Q 67.09375 14.65625 60.59375 6.609375 
Q 54.109375 -1.421875 44 -1.421875 
Q 38.28125 -1.421875 33.890625 0.84375 
Q 29.5 3.125 25.875 7.90625 
L 25.875 0 
L 8.40625 0 
L 8.40625 75.984375 
L 25.875 75.984375 
z
" id="DejaVuSans-Bold-62"/>
    <path d="M 34.421875 43.5 
Q 28.609375 43.5 25.5625 39.328125 
Q 22.515625 35.15625 22.515625 27.296875 
Q 22.515625 19.4375 25.5625 15.25 
Q 28.609375 11.078125 34.421875 11.078125 
Q 40.140625 11.078125 43.15625 15.25 
Q 46.1875 19.4375 46.1875 27.296875 
Q 46.1875 35.15625 43.15625 39.328125 
Q 40.140625 43.5 34.421875 43.5 
z
M 34.421875 56 
Q 48.53125 56 56.46875 48.375 
Q 64.40625 40.765625 64.40625 27.296875 
Q 64.40625 13.8125 56.46875 6.1875 
Q 48.53125 -1.421875 34.421875 -1.421875 
Q 20.265625 -1.421875 12.28125 6.1875 
Q 4.296875 13.8125 4.296875 27.296875 
Q 4.296875 40.765625 12.28125 48.375 
Q 20.265625 56 34.421875 56 
z
" id="DejaVuSans-Bold-6f"/>
    <path d="M 49.03125 39.796875 
Q 46.734375 40.875 44.453125 41.375 
Q 42.1875 41.890625 39.890625 41.890625 
Q 33.15625 41.890625 29.515625 37.5625 
Q 25.875 33.25 25.875 25.203125 
L 25.875 0 
L 8.40625 0 
L 8.40625 54.6875 
L 25.875 54.6875 
L 25.875 45.703125 
Q 29.25 51.078125 33.609375 53.53125 
Q 37.984375 56 44.09375 56 
Q 44.96875 56 45.984375 55.921875 
Q 47.015625 55.859375 48.96875 55.609375 
z
" id="DejaVuSans-Bold-72"/>
    <path d="M 44.390625 75.984375 
L 44.390625 64.5 
L 34.71875 64.5 
Q 31 64.5 29.53125 63.15625 
Q 28.078125 61.8125 28.078125 58.5 
L 28.078125 54.6875 
L 43.015625 54.6875 
L 43.015625 42.1875 
L 28.078125 42.1875 
L 28.078125 0 
L 10.59375 0 
L 10.59375 42.1875 
L 1.90625 42.1875 
L 1.90625 54.6875 
L 10.59375 54.6875 
L 10.59375 58.5 
Q 10.59375 67.4375 15.578125 71.703125 
Q 20.5625 75.984375 31 75.984375 
z
" id="DejaVuSans-Bold-66"/>
    <path d="M 52.59375 52.984375 
L 52.59375 38.71875 
Q 49.03125 41.15625 45.4375 42.328125 
Q 41.84375 43.5 37.984375 43.5 
Q 30.671875 43.5 26.59375 39.234375 
Q 22.515625 34.96875 22.515625 27.296875 
Q 22.515625 19.625 26.59375 15.34375 
Q 30.671875 11.078125 37.984375 11.078125 
Q 42.09375 11.078125 45.78125 12.296875 
Q 49.46875 13.53125 52.59375 15.921875 
L 52.59375 1.609375 
Q 48.484375 0.09375 44.265625 -0.65625 
Q 40.046875 -1.421875 35.796875 -1.421875 
Q 21 -1.421875 12.640625 6.171875 
Q 4.296875 13.765625 4.296875 27.296875 
Q 4.296875 40.828125 12.640625 48.40625 
Q 21 56 35.796875 56 
Q 40.09375 56 44.265625 55.25 
Q 48.4375 54.5 52.59375 52.984375 
z
" id="DejaVuSans-Bold-63"/>
    <path d="M 25.875 7.90625 
L 25.875 -20.796875 
L 8.40625 -20.796875 
L 8.40625 54.6875 
L 25.875 54.6875 
L 25.875 46.6875 
Q 29.5 51.46875 33.890625 53.734375 
Q 38.28125 56 44 56 
Q 54.109375 56 60.59375 47.96875 
Q 67.09375 39.9375 67.09375 27.296875 
Q 67.09375 14.65625 60.59375 6.609375 
Q 54.109375 -1.421875 44 -1.421875 
Q 38.28125 -1.421875 33.890625 0.84375 
Q 29.5 3.125 25.875 7.90625 
z
M 37.5 43.3125 
Q 31.890625 43.3125 28.875 39.1875 
Q 25.875 35.0625 25.875 27.296875 
Q 25.875 19.53125 28.875 15.40625 
Q 31.890625 11.28125 37.5 11.28125 
Q 43.109375 11.28125 46.0625 15.375 
Q 49.03125 19.484375 49.03125 27.296875 
Q 49.03125 35.109375 46.0625 39.203125 
Q 43.109375 43.3125 37.5 43.3125 
z
" id="DejaVuSans-Bold-70"/>
    <path d="M 27.484375 70.21875 
L 27.484375 54.6875 
L 45.515625 54.6875 
L 45.515625 42.1875 
L 27.484375 42.1875 
L 27.484375 19 
Q 27.484375 15.1875 29 13.84375 
Q 30.515625 12.5 35.015625 12.5 
L 44 12.5 
L 44 0 
L 29 0 
Q 18.65625 0 14.328125 4.3125 
Q 10.015625 8.640625 10.015625 19 
L 10.015625 42.1875 
L 1.3125 42.1875 
L 1.3125 54.6875 
L 10.015625 54.6875 
L 10.015625 70.21875 
z
" id="DejaVuSans-Bold-74"/>
    <path d="M 45.609375 46.6875 
L 45.609375 75.984375 
L 63.1875 75.984375 
L 63.1875 0 
L 45.609375 0 
L 45.609375 7.90625 
Q 42 3.078125 37.640625 0.828125 
Q 33.296875 -1.421875 27.59375 -1.421875 
Q 17.484375 -1.421875 10.984375 6.609375 
Q 4.5 14.65625 4.5 27.296875 
Q 4.5 39.9375 10.984375 47.96875 
Q 17.484375 56 27.59375 56 
Q 33.25 56 37.625 53.734375 
Q 42 51.46875 45.609375 46.6875 
z
M 34.078125 11.28125 
Q 39.703125 11.28125 42.65625 15.375 
Q 45.609375 19.484375 45.609375 27.296875 
Q 45.609375 35.109375 42.65625 39.203125 
Q 39.703125 43.3125 34.078125 43.3125 
Q 28.515625 43.3125 25.5625 39.203125 
Q 22.609375 35.109375 22.609375 27.296875 
Q 22.609375 19.484375 25.5625 15.375 
Q 28.515625 11.28125 34.078125 11.28125 
z
" id="DejaVuSans-Bold-64"/>
    <path d="M 59.078125 45.609375 
Q 62.40625 50.6875 66.96875 53.34375 
Q 71.53125 56 77 56 
Q 86.421875 56 91.359375 50.1875 
Q 96.296875 44.390625 96.296875 33.296875 
L 96.296875 0 
L 78.71875 0 
L 78.71875 28.515625 
Q 78.765625 29.15625 78.78125 29.828125 
Q 78.8125 30.515625 78.8125 31.78125 
Q 78.8125 37.59375 77.09375 40.203125 
Q 75.390625 42.828125 71.578125 42.828125 
Q 66.609375 42.828125 63.890625 38.71875 
Q 61.1875 34.625 61.078125 26.859375 
L 61.078125 0 
L 43.5 0 
L 43.5 28.515625 
Q 43.5 37.59375 41.9375 40.203125 
Q 40.375 42.828125 36.375 42.828125 
Q 31.34375 42.828125 28.609375 38.703125 
Q 25.875 34.578125 25.875 26.90625 
L 25.875 0 
L 8.296875 0 
L 8.296875 54.6875 
L 25.875 54.6875 
L 25.875 46.6875 
Q 29.109375 51.3125 33.28125 53.65625 
Q 37.453125 56 42.484375 56 
Q 48.140625 56 52.484375 53.265625 
Q 56.84375 50.53125 59.078125 45.609375 
z
" id="DejaVuSans-Bold-6d"/>
    <path d="M 51.125 52.984375 
L 51.125 39.703125 
Q 45.515625 42.046875 40.28125 43.21875 
Q 35.0625 44.390625 30.421875 44.390625 
Q 25.4375 44.390625 23.015625 43.140625 
Q 20.609375 41.890625 20.609375 39.3125 
Q 20.609375 37.203125 22.4375 36.078125 
Q 24.265625 34.96875 29 34.421875 
L 32.078125 33.984375 
Q 45.515625 32.28125 50.140625 28.375 
Q 54.78125 24.46875 54.78125 16.109375 
Q 54.78125 7.375 48.328125 2.96875 
Q 41.890625 -1.421875 29.109375 -1.421875 
Q 23.6875 -1.421875 17.890625 -0.5625 
Q 12.109375 0.296875 6 2 
L 6 15.28125 
Q 11.234375 12.75 16.71875 11.46875 
Q 22.21875 10.203125 27.875 10.203125 
Q 33.015625 10.203125 35.59375 11.609375 
Q 38.1875 13.03125 38.1875 15.828125 
Q 38.1875 18.171875 36.40625 19.3125 
Q 34.625 20.453125 29.296875 21.09375 
L 26.21875 21.484375 
Q 14.546875 22.953125 9.859375 26.90625 
Q 5.171875 30.859375 5.171875 38.921875 
Q 5.171875 47.609375 11.125 51.796875 
Q 17.09375 56 29.390625 56 
Q 34.234375 56 39.546875 55.265625 
Q 44.875 54.546875 51.125 52.984375 
z
" id="DejaVuSans-Bold-73"/>
   </defs>
   <g transform="translate(72.9 26.87625)scale(0.24 -0.24)">
    <use xlink:href="#DejaVuSans-Bold-43"/>
    <use x="73.388672" xlink:href="#DejaVuSans-Bold-68"/>
    <use x="144.580078" xlink:href="#DejaVuSans-Bold-61"/>
    <use x="212.060547" xlink:href="#DejaVuSans-Bold-6e"/>
    <use x="283.251953" xlink:href="#DejaVuSans-Bold-67"/>
    <use x="354.833984" xlink:href="#DejaVuSans-Bold-65"/>
    <use x="422.65625" xlink:href="#DejaVuSans-Bold-20"/>
    <use x="457.470703" xlink:href="#DejaVuSans-Bold-69"/>
    <use x="491.748047" xlink:href="#DejaVuSans-Bold-6e"/>
    <use x="562.939453" xlink:href="#DejaVuSans-Bold-20"/>
    <use x="597.753906" xlink:href="#DejaVuSans-Bold-4c"/>
    <use x="661.474609" xlink:href="#DejaVuSans-Bold-61"/>
    <use x="728.955078" xlink:href="#DejaVuSans-Bold-62"/>
    <use x="800.537109" xlink:href="#DejaVuSans-Bold-6f"/>
    <use x="869.238281" xlink:href="#DejaVuSans-Bold-72"/>
    <use x="918.554688" xlink:href="#DejaVuSans-Bold-20"/>
    <use x="953.369141" xlink:href="#DejaVuSans-Bold-66"/>
    <use x="996.875" xlink:href="#DejaVuSans-Bold-6f"/>
    <use x="1065.576172" xlink:href="#DejaVuSans-Bold-72"/>
    <use x="1114.892578" xlink:href="#DejaVuSans-Bold-63"/>
    <use x="1174.169922" xlink:href="#DejaVuSans-Bold-65"/>
    <use x="1241.992188" xlink:href="#DejaVuSans-Bold-20"/>
    <use x="1276.806641" xlink:href="#DejaVuSans-Bold-70"/>
    <use x="1348.388672" xlink:href="#DejaVuSans-Bold-61"/>
    <use x="1415.869141" xlink:href="#DejaVuSans-Bold-72"/>
    <use x="1465.185547" xlink:href="#DejaVuSans-Bold-74"/>
    <use x="1512.988281" xlink:href="#DejaVuSans-Bold-69"/>
    <use x="1547.265625" xlink:href="#DejaVuSans-Bold-63"/>
    <use x="1606.542969" xlink:href="#DejaVuSans-Bold-69"/>
    <use x="1640.820312" xlink:href="#DejaVuSans-Bold-70"/>
    <use x="1712.402344" xlink:href="#DejaVuSans-Bold-61"/>
    <use x="1779.882812" xlink:href="#DejaVuSans-Bold-74"/>
    <use x="1827.685547" xlink:href="#DejaVuSans-Bold-69"/>
    <use x="1861.962891" xlink:href="#DejaVuSans-Bold-6f"/>
    <use x="1930.664062" xlink:href="#DejaVuSans-Bold-6e"/>
    <use x="2001.855469" xlink:href="#DejaVuSans-Bold-20"/>
    <use x="2036.669922" xlink:href="#DejaVuSans-Bold-72"/>
    <use x="2085.986328" xlink:href="#DejaVuSans-Bold-61"/>
    <use x="2153.466797" xlink:href="#DejaVuSans-Bold-74"/>
    <use x="2201.269531" xlink:href="#DejaVuSans-Bold-65"/>
    <use x="2269.091797" xlink:href="#DejaVuSans-Bold-20"/>
    <use x="2303.90625" xlink:href="#DejaVuSans-Bold-64"/>
    <use x="2375.488281" xlink:href="#DejaVuSans-Bold-65"/>
    <use x="2443.310547" xlink:href="#DejaVuSans-Bold-63"/>
    <use x="2502.587891" xlink:href="#DejaVuSans-Bold-6f"/>
    <use x="2571.289062" xlink:href="#DejaVuSans-Bold-6d"/>
    <use x="2675.488281" xlink:href="#DejaVuSans-Bold-70"/>
    <use x="2747.070312" xlink:href="#DejaVuSans-Bold-6f"/>
    <use x="2815.771484" xlink:href="#DejaVuSans-Bold-73"/>
    <use x="2875.292969" xlink:href="#DejaVuSans-Bold-65"/>
    <use x="2943.115234" xlink:href="#DejaVuSans-Bold-64"/>
   </g>
  </g>
  <g id="text_19">
   <!-- Source: Bureau of Labor Statistics -->
   <defs>
    <path d="M 53.515625 70.515625 
L 53.515625 60.890625 
Q 47.90625 63.578125 42.921875 64.890625 
Q 37.9375 66.21875 33.296875 66.21875 
Q 25.25 66.21875 20.875 63.09375 
Q 16.5 59.96875 16.5 54.203125 
Q 16.5 49.359375 19.40625 46.890625 
Q 22.3125 44.4375 30.421875 42.921875 
L 36.375 41.703125 
Q 47.40625 39.59375 52.65625 34.296875 
Q 57.90625 29 57.90625 20.125 
Q 57.90625 9.515625 50.796875 4.046875 
Q 43.703125 -1.421875 29.984375 -1.421875 
Q 24.8125 -1.421875 18.96875 -0.25 
Q 13.140625 0.921875 6.890625 3.21875 
L 6.890625 13.375 
Q 12.890625 10.015625 18.65625 8.296875 
Q 24.421875 6.59375 29.984375 6.59375 
Q 38.421875 6.59375 43.015625 9.90625 
Q 47.609375 13.234375 47.609375 19.390625 
Q 47.609375 24.75 44.3125 27.78125 
Q 41.015625 30.8125 33.5 32.328125 
L 27.484375 33.5 
Q 16.453125 35.6875 11.515625 40.375 
Q 6.59375 45.0625 6.59375 53.421875 
Q 6.59375 63.09375 13.40625 68.65625 
Q 20.21875 74.21875 32.171875 74.21875 
Q 37.3125 74.21875 42.625 73.28125 
Q 47.953125 72.359375 53.515625 70.515625 
z
" id="DejaVuSans-53"/>
    <path d="M 11.71875 12.40625 
L 22.015625 12.40625 
L 22.015625 0 
L 11.71875 0 
z
M 11.71875 51.703125 
L 22.015625 51.703125 
L 22.015625 39.3125 
L 11.71875 39.3125 
z
" id="DejaVuSans-3a"/>
    <path d="M 19.671875 34.8125 
L 19.671875 8.109375 
L 35.5 8.109375 
Q 43.453125 8.109375 47.28125 11.40625 
Q 51.125 14.703125 51.125 21.484375 
Q 51.125 28.328125 47.28125 31.5625 
Q 43.453125 34.8125 35.5 34.8125 
z
M 19.671875 64.796875 
L 19.671875 42.828125 
L 34.28125 42.828125 
Q 41.5 42.828125 45.03125 45.53125 
Q 48.578125 48.25 48.578125 53.8125 
Q 48.578125 59.328125 45.03125 62.0625 
Q 41.5 64.796875 34.28125 64.796875 
z
M 9.8125 72.90625 
L 35.015625 72.90625 
Q 46.296875 72.90625 52.390625 68.21875 
Q 58.5 63.53125 58.5 54.890625 
Q 58.5 48.1875 55.375 44.234375 
Q 52.25 40.28125 46.1875 39.3125 
Q 53.46875 37.75 57.5 32.78125 
Q 61.53125 27.828125 61.53125 20.40625 
Q 61.53125 10.640625 54.890625 5.3125 
Q 48.25 0 35.984375 0 
L 9.8125 0 
z
" id="DejaVuSans-42"/>
    <path d="M 37.109375 75.984375 
L 37.109375 68.5 
L 28.515625 68.5 
Q 23.6875 68.5 21.796875 66.546875 
Q 19.921875 64.59375 19.921875 59.515625 
L 19.921875 54.6875 
L 34.71875 54.6875 
L 34.71875 47.703125 
L 19.921875 47.703125 
L 19.921875 0 
L 10.890625 0 
L 10.890625 47.703125 
L 2.296875 47.703125 
L 2.296875 54.6875 
L 10.890625 54.6875 
L 10.890625 58.5 
Q 10.890625 67.625 15.140625 71.796875 
Q 19.390625 75.984375 28.609375 75.984375 
z
" id="DejaVuSans-66"/>
   </defs>
   <g transform="translate(72.9 421.2)scale(0.1 -0.1)">
    <use xlink:href="#DejaVuSans-53"/>
    <use x="63.476562" xlink:href="#DejaVuSans-6f"/>
    <use x="124.658203" xlink:href="#DejaVuSans-75"/>
    <use x="188.037109" xlink:href="#DejaVuSans-72"/>
    <use x="229.119141" xlink:href="#DejaVuSans-63"/>
    <use x="284.099609" xlink:href="#DejaVuSans-65"/>
    <use x="345.623047" xlink:href="#DejaVuSans-3a"/>
    <use x="379.314453" xlink:href="#DejaVuSans-20"/>
    <use x="411.101562" xlink:href="#DejaVuSans-42"/>
    <use x="479.705078" xlink:href="#DejaVuSans-75"/>
    <use x="543.083984" xlink:href="#DejaVuSans-72"/>
    <use x="584.166016" xlink:href="#DejaVuSans-65"/>
    <use x="645.689453" xlink:href="#DejaVuSans-61"/>
    <use x="706.96875" xlink:href="#DejaVuSans-75"/>
    <use x="770.347656" xlink:href="#DejaVuSans-20"/>
    <use x="802.134766" xlink:href="#DejaVuSans-6f"/>
    <use x="863.316406" xlink:href="#DejaVuSans-66"/>
    <use x="898.521484" xlink:href="#DejaVuSans-20"/>
    <use x="930.308594" xlink:href="#DejaVuSans-4c"/>
    <use x="986.021484" xlink:href="#DejaVuSans-61"/>
    <use x="1047.300781" xlink:href="#DejaVuSans-62"/>
    <use x="1110.777344" xlink:href="#DejaVuSans-6f"/>
    <use x="1171.958984" xlink:href="#DejaVuSans-72"/>
    <use x="1213.072266" xlink:href="#DejaVuSans-20"/>
    <use x="1244.859375" xlink:href="#DejaVuSans-53"/>
    <use x="1308.335938" xlink:href="#DejaVuSans-74"/>
    <use x="1347.544922" xlink:href="#DejaVuSans-61"/>
    <use x="1408.824219" xlink:href="#DejaVuSans-74"/>
    <use x="1448.033203" xlink:href="#DejaVuSans-69"/>
    <use x="1475.816406" xlink:href="#DejaVuSans-73"/>
    <use x="1527.916016" xlink:href="#DejaVuSans-74"/>
    <use x="1567.125" xlink:href="#DejaVuSans-69"/>
    <use x="1594.908203" xlink:href="#DejaVuSans-63"/>
    <use x="1649.888672" xlink:href="#DejaVuSans-73"/>
   </g>
  </g>
 </g>
 <defs>
  <clipPath id="p2fcb93515f">
   <rect height="336.96" width="850.5" x="72.9" y="51.84"/>
  </clipPath>
 </defs>
</svg>
