<?xml version="1.0" encoding="utf-8" standalone="no"?>
<!DOCTYPE svg PUBLIC "-//W3C//DTD SVG 1.1//EN"
  "http://www.w3.org/Graphics/SVG/1.1/DTD/svg11.dtd">
<!-- Created with matplotlib (http://matplotlib.org/) -->
<svg height="432pt" version="1.1" viewBox="0 0 576 432" width="576pt" xmlns="http://www.w3.org/2000/svg" xmlns:xlink="http://www.w3.org/1999/xlink">
 <defs>
  <style type="text/css">
*{stroke-linecap:butt;stroke-linejoin:round;}
  </style>
 </defs>
 <g id="figure_1">
  <g id="patch_1">
   <path d="M 0 432 
L 576 432 
L 576 0 
L 0 0 
z
" style="fill:none;"/>
  </g>
  <g id="axes_1">
   <g id="patch_2">
    <path d="M 69.055937 382.901875 
L 532.9 382.901875 
L 532.9 44.54 
L 69.055937 44.54 
z
" style="fill:none;"/>
   </g>
   <g id="PolyCollection_1">
    <path clip-path="url(#p75e42e650c)" d="M 78.413022 44.54 
L 78.413022 382.901875 
L 79.749749 382.901875 
L 81.086475 382.901875 
L 82.423202 382.901875 
L 83.759928 382.901875 
L 85.096654 382.901875 
L 86.433381 382.901875 
L 87.770107 382.901875 
L 87.770107 44.54 
L 87.770107 44.54 
L 86.433381 44.54 
L 85.096654 44.54 
L 83.759928 44.54 
L 82.423202 44.54 
L 81.086475 44.54 
L 79.749749 44.54 
L 78.413022 44.54 
z
" style="fill:#bbbbbb;fill-opacity:0.3;stroke:#bbbbbb;stroke-opacity:0.3;"/>
    <path clip-path="url(#p75e42e650c)" d="M 249.514002 44.54 
L 249.514002 382.901875 
L 250.850729 382.901875 
L 252.187455 382.901875 
L 253.524181 382.901875 
L 254.860908 382.901875 
L 256.197634 382.901875 
L 257.534361 382.901875 
L 258.871087 382.901875 
L 258.871087 44.54 
L 258.871087 44.54 
L 257.534361 44.54 
L 256.197634 44.54 
L 254.860908 44.54 
L 253.524181 44.54 
L 252.187455 44.54 
L 250.850729 44.54 
L 249.514002 44.54 
z
" style="fill:#bbbbbb;fill-opacity:0.3;stroke:#bbbbbb;stroke-opacity:0.3;"/>
    <path clip-path="url(#p75e42e650c)" d="M 357.788841 44.54 
L 357.788841 382.901875 
L 359.125567 382.901875 
L 360.462294 382.901875 
L 361.79902 382.901875 
L 363.135747 382.901875 
L 364.472473 382.901875 
L 365.809199 382.901875 
L 367.145926 382.901875 
L 368.482652 382.901875 
L 369.819379 382.901875 
L 371.156105 382.901875 
L 372.492831 382.901875 
L 373.829558 382.901875 
L 375.166284 382.901875 
L 376.503011 382.901875 
L 377.839737 382.901875 
L 379.176463 382.901875 
L 380.51319 382.901875 
L 380.51319 44.54 
L 380.51319 44.54 
L 379.176463 44.54 
L 377.839737 44.54 
L 376.503011 44.54 
L 375.166284 44.54 
L 373.829558 44.54 
L 372.492831 44.54 
L 371.156105 44.54 
L 369.819379 44.54 
L 368.482652 44.54 
L 367.145926 44.54 
L 365.809199 44.54 
L 364.472473 44.54 
L 363.135747 44.54 
L 361.79902 44.54 
L 360.462294 44.54 
L 359.125567 44.54 
L 357.788841 44.54 
z
" style="fill:#bbbbbb;fill-opacity:0.3;stroke:#bbbbbb;stroke-opacity:0.3;"/>
   </g>
   <g id="matplotlib.axis_1">
    <g id="xtick_1">
     <g id="line2d_1">
      <defs>
       <path d="M 0 0 
L 0 3.5 
" id="m9b81bf18bd" style="stroke:#000000;stroke-width:0.8;"/>
      </defs>
      <g>
       <use style="stroke:#000000;stroke-width:0.8;" x="133.218805" xlink:href="#m9b81bf18bd" y="382.901875"/>
      </g>
     </g>
     <g id="text_1">
      <!-- 1994 -->
      <defs>
       <path d="M 12.40625 8.296875 
L 28.515625 8.296875 
L 28.515625 63.921875 
L 10.984375 60.40625 
L 10.984375 69.390625 
L 28.421875 72.90625 
L 38.28125 72.90625 
L 38.28125 8.296875 
L 54.390625 8.296875 
L 54.390625 0 
L 12.40625 0 
z
" id="DejaVuSans-31"/>
       <path d="M 10.984375 1.515625 
L 10.984375 10.5 
Q 14.703125 8.734375 18.5 7.8125 
Q 22.3125 6.890625 25.984375 6.890625 
Q 35.75 6.890625 40.890625 13.453125 
Q 46.046875 20.015625 46.78125 33.40625 
Q 43.953125 29.203125 39.59375 26.953125 
Q 35.25 24.703125 29.984375 24.703125 
Q 19.046875 24.703125 12.671875 31.3125 
Q 6.296875 37.9375 6.296875 49.421875 
Q 6.296875 60.640625 12.9375 67.421875 
Q 19.578125 74.21875 30.609375 74.21875 
Q 43.265625 74.21875 49.921875 64.515625 
Q 56.59375 54.828125 56.59375 36.375 
Q 56.59375 19.140625 48.40625 8.859375 
Q 40.234375 -1.421875 26.421875 -1.421875 
Q 22.703125 -1.421875 18.890625 -0.6875 
Q 15.09375 0.046875 10.984375 1.515625 
z
M 30.609375 32.421875 
Q 37.25 32.421875 41.125 36.953125 
Q 45.015625 41.5 45.015625 49.421875 
Q 45.015625 57.28125 41.125 61.84375 
Q 37.25 66.40625 30.609375 66.40625 
Q 23.96875 66.40625 20.09375 61.84375 
Q 16.21875 57.28125 16.21875 49.421875 
Q 16.21875 41.5 20.09375 36.953125 
Q 23.96875 32.421875 30.609375 32.421875 
z
" id="DejaVuSans-39"/>
       <path d="M 37.796875 64.3125 
L 12.890625 25.390625 
L 37.796875 25.390625 
z
M 35.203125 72.90625 
L 47.609375 72.90625 
L 47.609375 25.390625 
L 58.015625 25.390625 
L 58.015625 17.1875 
L 47.609375 17.1875 
L 47.609375 0 
L 37.796875 0 
L 37.796875 17.1875 
L 4.890625 17.1875 
L 4.890625 26.703125 
z
" id="DejaVuSans-34"/>
      </defs>
      <g transform="translate(120.493805 404.000313)scale(0.1 -0.1)">
       <use xlink:href="#DejaVuSans-31"/>
       <use x="63.623047" xlink:href="#DejaVuSans-39"/>
       <use x="127.246094" xlink:href="#DejaVuSans-39"/>
       <use x="190.869141" xlink:href="#DejaVuSans-34"/>
      </g>
     </g>
    </g>
    <g id="xtick_2">
     <g id="line2d_2">
      <g>
       <use style="stroke:#000000;stroke-width:0.8;" x="213.422389" xlink:href="#m9b81bf18bd" y="382.901875"/>
      </g>
     </g>
     <g id="text_2">
      <!-- 1999 -->
      <g transform="translate(200.697389 404.000313)scale(0.1 -0.1)">
       <use xlink:href="#DejaVuSans-31"/>
       <use x="63.623047" xlink:href="#DejaVuSans-39"/>
       <use x="127.246094" xlink:href="#DejaVuSans-39"/>
       <use x="190.869141" xlink:href="#DejaVuSans-39"/>
      </g>
     </g>
    </g>
    <g id="xtick_3">
     <g id="line2d_3">
      <g>
       <use style="stroke:#000000;stroke-width:0.8;" x="293.625974" xlink:href="#m9b81bf18bd" y="382.901875"/>
      </g>
     </g>
     <g id="text_3">
      <!-- 2004 -->
      <defs>
       <path d="M 19.1875 8.296875 
L 53.609375 8.296875 
L 53.609375 0 
L 7.328125 0 
L 7.328125 8.296875 
Q 12.9375 14.109375 22.625 23.890625 
Q 32.328125 33.6875 34.8125 36.53125 
Q 39.546875 41.84375 41.421875 45.53125 
Q 43.3125 49.21875 43.3125 52.78125 
Q 43.3125 58.59375 39.234375 62.25 
Q 35.15625 65.921875 28.609375 65.921875 
Q 23.96875 65.921875 18.8125 64.3125 
Q 13.671875 62.703125 7.8125 59.421875 
L 7.8125 69.390625 
Q 13.765625 71.78125 18.9375 73 
Q 24.125 74.21875 28.421875 74.21875 
Q 39.75 74.21875 46.484375 68.546875 
Q 53.21875 62.890625 53.21875 53.421875 
Q 53.21875 48.921875 51.53125 44.890625 
Q 49.859375 40.875 45.40625 35.40625 
Q 44.1875 33.984375 37.640625 27.21875 
Q 31.109375 20.453125 19.1875 8.296875 
z
" id="DejaVuSans-32"/>
       <path d="M 31.78125 66.40625 
Q 24.171875 66.40625 20.328125 58.90625 
Q 16.5 51.421875 16.5 36.375 
Q 16.5 21.390625 20.328125 13.890625 
Q 24.171875 6.390625 31.78125 6.390625 
Q 39.453125 6.390625 43.28125 13.890625 
Q 47.125 21.390625 47.125 36.375 
Q 47.125 51.421875 43.28125 58.90625 
Q 39.453125 66.40625 31.78125 66.40625 
z
M 31.78125 74.21875 
Q 44.046875 74.21875 50.515625 64.515625 
Q 56.984375 54.828125 56.984375 36.375 
Q 56.984375 17.96875 50.515625 8.265625 
Q 44.046875 -1.421875 31.78125 -1.421875 
Q 19.53125 -1.421875 13.0625 8.265625 
Q 6.59375 17.96875 6.59375 36.375 
Q 6.59375 54.828125 13.0625 64.515625 
Q 19.53125 74.21875 31.78125 74.21875 
z
" id="DejaVuSans-30"/>
      </defs>
      <g transform="translate(280.900974 404.000313)scale(0.1 -0.1)">
       <use xlink:href="#DejaVuSans-32"/>
       <use x="63.623047" xlink:href="#DejaVuSans-30"/>
       <use x="127.246094" xlink:href="#DejaVuSans-30"/>
       <use x="190.869141" xlink:href="#DejaVuSans-34"/>
      </g>
     </g>
    </g>
    <g id="xtick_4">
     <g id="line2d_4">
      <g>
       <use style="stroke:#000000;stroke-width:0.8;" x="373.829558" xlink:href="#m9b81bf18bd" y="382.901875"/>
      </g>
     </g>
     <g id="text_4">
      <!-- 2009 -->
      <g transform="translate(361.104558 404.000313)scale(0.1 -0.1)">
       <use xlink:href="#DejaVuSans-32"/>
       <use x="63.623047" xlink:href="#DejaVuSans-30"/>
       <use x="127.246094" xlink:href="#DejaVuSans-30"/>
       <use x="190.869141" xlink:href="#DejaVuSans-39"/>
      </g>
     </g>
    </g>
    <g id="xtick_5">
     <g id="line2d_5">
      <g>
       <use style="stroke:#000000;stroke-width:0.8;" x="454.033142" xlink:href="#m9b81bf18bd" y="382.901875"/>
      </g>
     </g>
     <g id="text_5">
      <!-- 2014 -->
      <g transform="translate(441.308142 404.000313)scale(0.1 -0.1)">
       <use xlink:href="#DejaVuSans-32"/>
       <use x="63.623047" xlink:href="#DejaVuSans-30"/>
       <use x="127.246094" xlink:href="#DejaVuSans-31"/>
       <use x="190.869141" xlink:href="#DejaVuSans-34"/>
      </g>
     </g>
    </g>
    <g id="xtick_6">
     <g id="line2d_6">
      <defs>
       <path d="M 0 0 
L 0 2 
" id="mec38b548e6" style="stroke:#000000;stroke-width:0.6;"/>
      </defs>
      <g>
       <use style="stroke:#000000;stroke-width:0.6;" x="69.055938" xlink:href="#mec38b548e6" y="382.901875"/>
      </g>
     </g>
    </g>
    <g id="xtick_7">
     <g id="line2d_7">
      <g>
       <use style="stroke:#000000;stroke-width:0.6;" x="85.096654" xlink:href="#mec38b548e6" y="382.901875"/>
      </g>
     </g>
    </g>
    <g id="xtick_8">
     <g id="line2d_8">
      <g>
       <use style="stroke:#000000;stroke-width:0.6;" x="101.137371" xlink:href="#mec38b548e6" y="382.901875"/>
      </g>
     </g>
    </g>
    <g id="xtick_9">
     <g id="line2d_9">
      <g>
       <use style="stroke:#000000;stroke-width:0.6;" x="117.178088" xlink:href="#mec38b548e6" y="382.901875"/>
      </g>
     </g>
    </g>
    <g id="xtick_10">
     <g id="line2d_10">
      <g>
       <use style="stroke:#000000;stroke-width:0.6;" x="133.218805" xlink:href="#mec38b548e6" y="382.901875"/>
      </g>
     </g>
    </g>
    <g id="xtick_11">
     <g id="line2d_11">
      <g>
       <use style="stroke:#000000;stroke-width:0.6;" x="149.259522" xlink:href="#mec38b548e6" y="382.901875"/>
      </g>
     </g>
    </g>
    <g id="xtick_12">
     <g id="line2d_12">
      <g>
       <use style="stroke:#000000;stroke-width:0.6;" x="165.300239" xlink:href="#mec38b548e6" y="382.901875"/>
      </g>
     </g>
    </g>
    <g id="xtick_13">
     <g id="line2d_13">
      <g>
       <use style="stroke:#000000;stroke-width:0.6;" x="181.340956" xlink:href="#mec38b548e6" y="382.901875"/>
      </g>
     </g>
    </g>
    <g id="xtick_14">
     <g id="line2d_14">
      <g>
       <use style="stroke:#000000;stroke-width:0.6;" x="197.381672" xlink:href="#mec38b548e6" y="382.901875"/>
      </g>
     </g>
    </g>
    <g id="xtick_15">
     <g id="line2d_15">
      <g>
       <use style="stroke:#000000;stroke-width:0.6;" x="213.422389" xlink:href="#mec38b548e6" y="382.901875"/>
      </g>
     </g>
    </g>
    <g id="xtick_16">
     <g id="line2d_16">
      <g>
       <use style="stroke:#000000;stroke-width:0.6;" x="229.463106" xlink:href="#mec38b548e6" y="382.901875"/>
      </g>
     </g>
    </g>
    <g id="xtick_17">
     <g id="line2d_17">
      <g>
       <use style="stroke:#000000;stroke-width:0.6;" x="245.503823" xlink:href="#mec38b548e6" y="382.901875"/>
      </g>
     </g>
    </g>
    <g id="xtick_18">
     <g id="line2d_18">
      <g>
       <use style="stroke:#000000;stroke-width:0.6;" x="261.54454" xlink:href="#mec38b548e6" y="382.901875"/>
      </g>
     </g>
    </g>
    <g id="xtick_19">
     <g id="line2d_19">
      <g>
       <use style="stroke:#000000;stroke-width:0.6;" x="277.585257" xlink:href="#mec38b548e6" y="382.901875"/>
      </g>
     </g>
    </g>
    <g id="xtick_20">
     <g id="line2d_20">
      <g>
       <use style="stroke:#000000;stroke-width:0.6;" x="293.625974" xlink:href="#mec38b548e6" y="382.901875"/>
      </g>
     </g>
    </g>
    <g id="xtick_21">
     <g id="line2d_21">
      <g>
       <use style="stroke:#000000;stroke-width:0.6;" x="309.66669" xlink:href="#mec38b548e6" y="382.901875"/>
      </g>
     </g>
    </g>
    <g id="xtick_22">
     <g id="line2d_22">
      <g>
       <use style="stroke:#000000;stroke-width:0.6;" x="325.707407" xlink:href="#mec38b548e6" y="382.901875"/>
      </g>
     </g>
    </g>
    <g id="xtick_23">
     <g id="line2d_23">
      <g>
       <use style="stroke:#000000;stroke-width:0.6;" x="341.748124" xlink:href="#mec38b548e6" y="382.901875"/>
      </g>
     </g>
    </g>
    <g id="xtick_24">
     <g id="line2d_24">
      <g>
       <use style="stroke:#000000;stroke-width:0.6;" x="357.788841" xlink:href="#mec38b548e6" y="382.901875"/>
      </g>
     </g>
    </g>
    <g id="xtick_25">
     <g id="line2d_25">
      <g>
       <use style="stroke:#000000;stroke-width:0.6;" x="373.829558" xlink:href="#mec38b548e6" y="382.901875"/>
      </g>
     </g>
    </g>
    <g id="xtick_26">
     <g id="line2d_26">
      <g>
       <use style="stroke:#000000;stroke-width:0.6;" x="389.870275" xlink:href="#mec38b548e6" y="382.901875"/>
      </g>
     </g>
    </g>
    <g id="xtick_27">
     <g id="line2d_27">
      <g>
       <use style="stroke:#000000;stroke-width:0.6;" x="405.910992" xlink:href="#mec38b548e6" y="382.901875"/>
      </g>
     </g>
    </g>
    <g id="xtick_28">
     <g id="line2d_28">
      <g>
       <use style="stroke:#000000;stroke-width:0.6;" x="421.951708" xlink:href="#mec38b548e6" y="382.901875"/>
      </g>
     </g>
    </g>
    <g id="xtick_29">
     <g id="line2d_29">
      <g>
       <use style="stroke:#000000;stroke-width:0.6;" x="437.992425" xlink:href="#mec38b548e6" y="382.901875"/>
      </g>
     </g>
    </g>
    <g id="xtick_30">
     <g id="line2d_30">
      <g>
       <use style="stroke:#000000;stroke-width:0.6;" x="454.033142" xlink:href="#mec38b548e6" y="382.901875"/>
      </g>
     </g>
    </g>
    <g id="xtick_31">
     <g id="line2d_31">
      <g>
       <use style="stroke:#000000;stroke-width:0.6;" x="470.073859" xlink:href="#mec38b548e6" y="382.901875"/>
      </g>
     </g>
    </g>
    <g id="xtick_32">
     <g id="line2d_32">
      <g>
       <use style="stroke:#000000;stroke-width:0.6;" x="486.114576" xlink:href="#mec38b548e6" y="382.901875"/>
      </g>
     </g>
    </g>
    <g id="xtick_33">
     <g id="line2d_33">
      <g>
       <use style="stroke:#000000;stroke-width:0.6;" x="502.155293" xlink:href="#mec38b548e6" y="382.901875"/>
      </g>
     </g>
    </g>
    <g id="xtick_34">
     <g id="line2d_34">
      <g>
       <use style="stroke:#000000;stroke-width:0.6;" x="518.19601" xlink:href="#mec38b548e6" y="382.901875"/>
      </g>
     </g>
    </g>
   </g>
   <g id="matplotlib.axis_2">
    <g id="ytick_1">
     <g id="line2d_35">
      <path clip-path="url(#p75e42e650c)" d="M 69.055937 349.924424 
L 532.9 349.924424 
" style="fill:none;stroke:#000000;stroke-dasharray:0.8,1.32;stroke-dashoffset:0;stroke-width:0.8;"/>
     </g>
     <g id="line2d_36">
      <defs>
       <path d="M 0 0 
L -3.5 0 
" id="mecbdc6ac9d" style="stroke:#000000;stroke-width:0.8;"/>
      </defs>
      <g>
       <use style="stroke:#000000;stroke-width:0.8;" x="69.055937" xlink:href="#mecbdc6ac9d" y="349.924424"/>
      </g>
     </g>
     <g id="text_6">
      <!-- −4 -->
      <defs>
       <path d="M 10.59375 35.5 
L 73.1875 35.5 
L 73.1875 27.203125 
L 10.59375 27.203125 
z
" id="DejaVuSans-2212"/>
      </defs>
      <g transform="translate(40.81375 353.723642)scale(0.1 -0.1)">
       <use xlink:href="#DejaVuSans-2212"/>
       <use x="83.789062" xlink:href="#DejaVuSans-34"/>
      </g>
     </g>
    </g>
    <g id="ytick_2">
     <g id="line2d_37">
      <path clip-path="url(#p75e42e650c)" d="M 69.055937 309.566653 
L 532.9 309.566653 
" style="fill:none;stroke:#000000;stroke-dasharray:0.8,1.32;stroke-dashoffset:0;stroke-width:0.8;"/>
     </g>
     <g id="line2d_38">
      <g>
       <use style="stroke:#000000;stroke-width:0.8;" x="69.055937" xlink:href="#mecbdc6ac9d" y="309.566653"/>
      </g>
     </g>
     <g id="text_7">
      <!-- −3 -->
      <defs>
       <path d="M 40.578125 39.3125 
Q 47.65625 37.796875 51.625 33 
Q 55.609375 28.21875 55.609375 21.1875 
Q 55.609375 10.40625 48.1875 4.484375 
Q 40.765625 -1.421875 27.09375 -1.421875 
Q 22.515625 -1.421875 17.65625 -0.515625 
Q 12.796875 0.390625 7.625 2.203125 
L 7.625 11.71875 
Q 11.71875 9.328125 16.59375 8.109375 
Q 21.484375 6.890625 26.8125 6.890625 
Q 36.078125 6.890625 40.9375 10.546875 
Q 45.796875 14.203125 45.796875 21.1875 
Q 45.796875 27.640625 41.28125 31.265625 
Q 36.765625 34.90625 28.71875 34.90625 
L 20.21875 34.90625 
L 20.21875 43.015625 
L 29.109375 43.015625 
Q 36.375 43.015625 40.234375 45.921875 
Q 44.09375 48.828125 44.09375 54.296875 
Q 44.09375 59.90625 40.109375 62.90625 
Q 36.140625 65.921875 28.71875 65.921875 
Q 24.65625 65.921875 20.015625 65.03125 
Q 15.375 64.15625 9.8125 62.3125 
L 9.8125 71.09375 
Q 15.4375 72.65625 20.34375 73.4375 
Q 25.25 74.21875 29.59375 74.21875 
Q 40.828125 74.21875 47.359375 69.109375 
Q 53.90625 64.015625 53.90625 55.328125 
Q 53.90625 49.265625 50.4375 45.09375 
Q 46.96875 40.921875 40.578125 39.3125 
z
" id="DejaVuSans-33"/>
      </defs>
      <g transform="translate(40.81375 313.365871)scale(0.1 -0.1)">
       <use xlink:href="#DejaVuSans-2212"/>
       <use x="83.789062" xlink:href="#DejaVuSans-33"/>
      </g>
     </g>
    </g>
    <g id="ytick_3">
     <g id="line2d_39">
      <path clip-path="url(#p75e42e650c)" d="M 69.055937 269.208881 
L 532.9 269.208881 
" style="fill:none;stroke:#000000;stroke-dasharray:0.8,1.32;stroke-dashoffset:0;stroke-width:0.8;"/>
     </g>
     <g id="line2d_40">
      <g>
       <use style="stroke:#000000;stroke-width:0.8;" x="69.055937" xlink:href="#mecbdc6ac9d" y="269.208881"/>
      </g>
     </g>
     <g id="text_8">
      <!-- −2 -->
      <g transform="translate(40.81375 273.0081)scale(0.1 -0.1)">
       <use xlink:href="#DejaVuSans-2212"/>
       <use x="83.789062" xlink:href="#DejaVuSans-32"/>
      </g>
     </g>
    </g>
    <g id="ytick_4">
     <g id="line2d_41">
      <path clip-path="url(#p75e42e650c)" d="M 69.055937 228.85111 
L 532.9 228.85111 
" style="fill:none;stroke:#000000;stroke-dasharray:0.8,1.32;stroke-dashoffset:0;stroke-width:0.8;"/>
     </g>
     <g id="line2d_42">
      <g>
       <use style="stroke:#000000;stroke-width:0.8;" x="69.055937" xlink:href="#mecbdc6ac9d" y="228.85111"/>
      </g>
     </g>
     <g id="text_9">
      <!-- −1 -->
      <g transform="translate(40.81375 232.650329)scale(0.1 -0.1)">
       <use xlink:href="#DejaVuSans-2212"/>
       <use x="83.789062" xlink:href="#DejaVuSans-31"/>
      </g>
     </g>
    </g>
    <g id="ytick_5">
     <g id="line2d_43">
      <path clip-path="url(#p75e42e650c)" d="M 69.055937 188.493339 
L 532.9 188.493339 
" style="fill:none;stroke:#000000;stroke-dasharray:0.8,1.32;stroke-dashoffset:0;stroke-width:0.8;"/>
     </g>
     <g id="line2d_44">
      <g>
       <use style="stroke:#000000;stroke-width:0.8;" x="69.055937" xlink:href="#mecbdc6ac9d" y="188.493339"/>
      </g>
     </g>
     <g id="text_10">
      <!-- 0 -->
      <g transform="translate(49.193438 192.292558)scale(0.1 -0.1)">
       <use xlink:href="#DejaVuSans-30"/>
      </g>
     </g>
    </g>
    <g id="ytick_6">
     <g id="line2d_45">
      <path clip-path="url(#p75e42e650c)" d="M 69.055937 148.135568 
L 532.9 148.135568 
" style="fill:none;stroke:#000000;stroke-dasharray:0.8,1.32;stroke-dashoffset:0;stroke-width:0.8;"/>
     </g>
     <g id="line2d_46">
      <g>
       <use style="stroke:#000000;stroke-width:0.8;" x="69.055937" xlink:href="#mecbdc6ac9d" y="148.135568"/>
      </g>
     </g>
     <g id="text_11">
      <!-- 1 -->
      <g transform="translate(49.193438 151.934786)scale(0.1 -0.1)">
       <use xlink:href="#DejaVuSans-31"/>
      </g>
     </g>
    </g>
    <g id="ytick_7">
     <g id="line2d_47">
      <path clip-path="url(#p75e42e650c)" d="M 69.055937 107.777796 
L 532.9 107.777796 
" style="fill:none;stroke:#000000;stroke-dasharray:0.8,1.32;stroke-dashoffset:0;stroke-width:0.8;"/>
     </g>
     <g id="line2d_48">
      <g>
       <use style="stroke:#000000;stroke-width:0.8;" x="69.055937" xlink:href="#mecbdc6ac9d" y="107.777796"/>
      </g>
     </g>
     <g id="text_12">
      <!-- 2 -->
      <g transform="translate(49.193438 111.577015)scale(0.1 -0.1)">
       <use xlink:href="#DejaVuSans-32"/>
      </g>
     </g>
    </g>
    <g id="ytick_8">
     <g id="line2d_49">
      <path clip-path="url(#p75e42e650c)" d="M 69.055937 67.420025 
L 532.9 67.420025 
" style="fill:none;stroke:#000000;stroke-dasharray:0.8,1.32;stroke-dashoffset:0;stroke-width:0.8;"/>
     </g>
     <g id="line2d_50">
      <g>
       <use style="stroke:#000000;stroke-width:0.8;" x="69.055937" xlink:href="#mecbdc6ac9d" y="67.420025"/>
      </g>
     </g>
     <g id="text_13">
      <!-- 3 -->
      <g transform="translate(49.193438 71.219244)scale(0.1 -0.1)">
       <use xlink:href="#DejaVuSans-33"/>
      </g>
     </g>
    </g>
    <g id="text_14">
     <!-- Percentage point -->
     <defs>
      <path d="M 19.671875 64.796875 
L 19.671875 37.40625 
L 32.078125 37.40625 
Q 38.96875 37.40625 42.71875 40.96875 
Q 46.484375 44.53125 46.484375 51.125 
Q 46.484375 57.671875 42.71875 61.234375 
Q 38.96875 64.796875 32.078125 64.796875 
z
M 9.8125 72.90625 
L 32.078125 72.90625 
Q 44.34375 72.90625 50.609375 67.359375 
Q 56.890625 61.8125 56.890625 51.125 
Q 56.890625 40.328125 50.609375 34.8125 
Q 44.34375 29.296875 32.078125 29.296875 
L 19.671875 29.296875 
L 19.671875 0 
L 9.8125 0 
z
" id="DejaVuSans-50"/>
      <path d="M 56.203125 29.59375 
L 56.203125 25.203125 
L 14.890625 25.203125 
Q 15.484375 15.921875 20.484375 11.0625 
Q 25.484375 6.203125 34.421875 6.203125 
Q 39.59375 6.203125 44.453125 7.46875 
Q 49.3125 8.734375 54.109375 11.28125 
L 54.109375 2.78125 
Q 49.265625 0.734375 44.1875 -0.34375 
Q 39.109375 -1.421875 33.890625 -1.421875 
Q 20.796875 -1.421875 13.15625 6.1875 
Q 5.515625 13.8125 5.515625 26.8125 
Q 5.515625 40.234375 12.765625 48.109375 
Q 20.015625 56 32.328125 56 
Q 43.359375 56 49.78125 48.890625 
Q 56.203125 41.796875 56.203125 29.59375 
z
M 47.21875 32.234375 
Q 47.125 39.59375 43.09375 43.984375 
Q 39.0625 48.390625 32.421875 48.390625 
Q 24.90625 48.390625 20.390625 44.140625 
Q 15.875 39.890625 15.1875 32.171875 
z
" id="DejaVuSans-65"/>
      <path d="M 41.109375 46.296875 
Q 39.59375 47.171875 37.8125 47.578125 
Q 36.03125 48 33.890625 48 
Q 26.265625 48 22.1875 43.046875 
Q 18.109375 38.09375 18.109375 28.8125 
L 18.109375 0 
L 9.078125 0 
L 9.078125 54.6875 
L 18.109375 54.6875 
L 18.109375 46.1875 
Q 20.953125 51.171875 25.484375 53.578125 
Q 30.03125 56 36.53125 56 
Q 37.453125 56 38.578125 55.875 
Q 39.703125 55.765625 41.0625 55.515625 
z
" id="DejaVuSans-72"/>
      <path d="M 48.78125 52.59375 
L 48.78125 44.1875 
Q 44.96875 46.296875 41.140625 47.34375 
Q 37.3125 48.390625 33.40625 48.390625 
Q 24.65625 48.390625 19.8125 42.84375 
Q 14.984375 37.3125 14.984375 27.296875 
Q 14.984375 17.28125 19.8125 11.734375 
Q 24.65625 6.203125 33.40625 6.203125 
Q 37.3125 6.203125 41.140625 7.25 
Q 44.96875 8.296875 48.78125 10.40625 
L 48.78125 2.09375 
Q 45.015625 0.34375 40.984375 -0.53125 
Q 36.96875 -1.421875 32.421875 -1.421875 
Q 20.0625 -1.421875 12.78125 6.34375 
Q 5.515625 14.109375 5.515625 27.296875 
Q 5.515625 40.671875 12.859375 48.328125 
Q 20.21875 56 33.015625 56 
Q 37.15625 56 41.109375 55.140625 
Q 45.0625 54.296875 48.78125 52.59375 
z
" id="DejaVuSans-63"/>
      <path d="M 54.890625 33.015625 
L 54.890625 0 
L 45.90625 0 
L 45.90625 32.71875 
Q 45.90625 40.484375 42.875 44.328125 
Q 39.84375 48.1875 33.796875 48.1875 
Q 26.515625 48.1875 22.3125 43.546875 
Q 18.109375 38.921875 18.109375 30.90625 
L 18.109375 0 
L 9.078125 0 
L 9.078125 54.6875 
L 18.109375 54.6875 
L 18.109375 46.1875 
Q 21.34375 51.125 25.703125 53.5625 
Q 30.078125 56 35.796875 56 
Q 45.21875 56 50.046875 50.171875 
Q 54.890625 44.34375 54.890625 33.015625 
z
" id="DejaVuSans-6e"/>
      <path d="M 18.3125 70.21875 
L 18.3125 54.6875 
L 36.8125 54.6875 
L 36.8125 47.703125 
L 18.3125 47.703125 
L 18.3125 18.015625 
Q 18.3125 11.328125 20.140625 9.421875 
Q 21.96875 7.515625 27.59375 7.515625 
L 36.8125 7.515625 
L 36.8125 0 
L 27.59375 0 
Q 17.1875 0 13.234375 3.875 
Q 9.28125 7.765625 9.28125 18.015625 
L 9.28125 47.703125 
L 2.6875 47.703125 
L 2.6875 54.6875 
L 9.28125 54.6875 
L 9.28125 70.21875 
z
" id="DejaVuSans-74"/>
      <path d="M 34.28125 27.484375 
Q 23.390625 27.484375 19.1875 25 
Q 14.984375 22.515625 14.984375 16.5 
Q 14.984375 11.71875 18.140625 8.90625 
Q 21.296875 6.109375 26.703125 6.109375 
Q 34.1875 6.109375 38.703125 11.40625 
Q 43.21875 16.703125 43.21875 25.484375 
L 43.21875 27.484375 
z
M 52.203125 31.203125 
L 52.203125 0 
L 43.21875 0 
L 43.21875 8.296875 
Q 40.140625 3.328125 35.546875 0.953125 
Q 30.953125 -1.421875 24.3125 -1.421875 
Q 15.921875 -1.421875 10.953125 3.296875 
Q 6 8.015625 6 15.921875 
Q 6 25.140625 12.171875 29.828125 
Q 18.359375 34.515625 30.609375 34.515625 
L 43.21875 34.515625 
L 43.21875 35.40625 
Q 43.21875 41.609375 39.140625 45 
Q 35.0625 48.390625 27.6875 48.390625 
Q 23 48.390625 18.546875 47.265625 
Q 14.109375 46.140625 10.015625 43.890625 
L 10.015625 52.203125 
Q 14.9375 54.109375 19.578125 55.046875 
Q 24.21875 56 28.609375 56 
Q 40.484375 56 46.34375 49.84375 
Q 52.203125 43.703125 52.203125 31.203125 
z
" id="DejaVuSans-61"/>
      <path d="M 45.40625 27.984375 
Q 45.40625 37.75 41.375 43.109375 
Q 37.359375 48.484375 30.078125 48.484375 
Q 22.859375 48.484375 18.828125 43.109375 
Q 14.796875 37.75 14.796875 27.984375 
Q 14.796875 18.265625 18.828125 12.890625 
Q 22.859375 7.515625 30.078125 7.515625 
Q 37.359375 7.515625 41.375 12.890625 
Q 45.40625 18.265625 45.40625 27.984375 
z
M 54.390625 6.78125 
Q 54.390625 -7.171875 48.1875 -13.984375 
Q 42 -20.796875 29.203125 -20.796875 
Q 24.46875 -20.796875 20.265625 -20.09375 
Q 16.0625 -19.390625 12.109375 -17.921875 
L 12.109375 -9.1875 
Q 16.0625 -11.328125 19.921875 -12.34375 
Q 23.78125 -13.375 27.78125 -13.375 
Q 36.625 -13.375 41.015625 -8.765625 
Q 45.40625 -4.15625 45.40625 5.171875 
L 45.40625 9.625 
Q 42.625 4.78125 38.28125 2.390625 
Q 33.9375 0 27.875 0 
Q 17.828125 0 11.671875 7.65625 
Q 5.515625 15.328125 5.515625 27.984375 
Q 5.515625 40.671875 11.671875 48.328125 
Q 17.828125 56 27.875 56 
Q 33.9375 56 38.28125 53.609375 
Q 42.625 51.21875 45.40625 46.390625 
L 45.40625 54.6875 
L 54.390625 54.6875 
z
" id="DejaVuSans-67"/>
      <path id="DejaVuSans-20"/>
      <path d="M 18.109375 8.203125 
L 18.109375 -20.796875 
L 9.078125 -20.796875 
L 9.078125 54.6875 
L 18.109375 54.6875 
L 18.109375 46.390625 
Q 20.953125 51.265625 25.265625 53.625 
Q 29.59375 56 35.59375 56 
Q 45.5625 56 51.78125 48.09375 
Q 58.015625 40.1875 58.015625 27.296875 
Q 58.015625 14.40625 51.78125 6.484375 
Q 45.5625 -1.421875 35.59375 -1.421875 
Q 29.59375 -1.421875 25.265625 0.953125 
Q 20.953125 3.328125 18.109375 8.203125 
z
M 48.6875 27.296875 
Q 48.6875 37.203125 44.609375 42.84375 
Q 40.53125 48.484375 33.40625 48.484375 
Q 26.265625 48.484375 22.1875 42.84375 
Q 18.109375 37.203125 18.109375 27.296875 
Q 18.109375 17.390625 22.1875 11.75 
Q 26.265625 6.109375 33.40625 6.109375 
Q 40.53125 6.109375 44.609375 11.75 
Q 48.6875 17.390625 48.6875 27.296875 
z
" id="DejaVuSans-70"/>
      <path d="M 30.609375 48.390625 
Q 23.390625 48.390625 19.1875 42.75 
Q 14.984375 37.109375 14.984375 27.296875 
Q 14.984375 17.484375 19.15625 11.84375 
Q 23.34375 6.203125 30.609375 6.203125 
Q 37.796875 6.203125 41.984375 11.859375 
Q 46.1875 17.53125 46.1875 27.296875 
Q 46.1875 37.015625 41.984375 42.703125 
Q 37.796875 48.390625 30.609375 48.390625 
z
M 30.609375 56 
Q 42.328125 56 49.015625 48.375 
Q 55.71875 40.765625 55.71875 27.296875 
Q 55.71875 13.875 49.015625 6.21875 
Q 42.328125 -1.421875 30.609375 -1.421875 
Q 18.84375 -1.421875 12.171875 6.21875 
Q 5.515625 13.875 5.515625 27.296875 
Q 5.515625 40.765625 12.171875 48.375 
Q 18.84375 56 30.609375 56 
z
" id="DejaVuSans-6f"/>
      <path d="M 9.421875 54.6875 
L 18.40625 54.6875 
L 18.40625 0 
L 9.421875 0 
z
M 9.421875 75.984375 
L 18.40625 75.984375 
L 18.40625 64.59375 
L 9.421875 64.59375 
z
" id="DejaVuSans-69"/>
     </defs>
     <g transform="translate(34.318125 265.024687)rotate(-90)scale(0.12 -0.12)">
      <use xlink:href="#DejaVuSans-50"/>
      <use x="60.255859" xlink:href="#DejaVuSans-65"/>
      <use x="121.779297" xlink:href="#DejaVuSans-72"/>
      <use x="162.861328" xlink:href="#DejaVuSans-63"/>
      <use x="217.841797" xlink:href="#DejaVuSans-65"/>
      <use x="279.365234" xlink:href="#DejaVuSans-6e"/>
      <use x="342.744141" xlink:href="#DejaVuSans-74"/>
      <use x="381.953125" xlink:href="#DejaVuSans-61"/>
      <use x="443.232422" xlink:href="#DejaVuSans-67"/>
      <use x="506.708984" xlink:href="#DejaVuSans-65"/>
      <use x="568.232422" xlink:href="#DejaVuSans-20"/>
      <use x="600.019531" xlink:href="#DejaVuSans-70"/>
      <use x="663.496094" xlink:href="#DejaVuSans-6f"/>
      <use x="724.677734" xlink:href="#DejaVuSans-69"/>
      <use x="752.460938" xlink:href="#DejaVuSans-6e"/>
      <use x="815.839844" xlink:href="#DejaVuSans-74"/>
     </g>
    </g>
   </g>
   <g id="line2d_51">
    <path clip-path="url(#p75e42e650c)" d="M 70.392664 192.599191 
L 71.72939 192.278686 
L 73.066117 197.638345 
L 74.402843 194.345318 
L 75.73957 203.239002 
L 77.076296 201.68915 
L 78.413022 198.371434 
L 79.749749 203.093686 
L 81.086475 203.474301 
L 82.423202 204.167043 
L 83.759928 204.682645 
L 85.096654 210.708233 
L 86.433381 210.846826 
L 87.770107 207.769981 
L 89.106834 203.113449 
L 90.44356 212.858231 
L 91.780286 211.6795 
L 93.117013 217.463673 
L 94.453739 219.919894 
L 95.790466 211.961776 
L 97.127192 214.851106 
L 98.463918 215.836844 
L 99.800645 218.576752 
L 101.137371 208.177088 
L 102.474098 210.899861 
L 103.810824 204.469121 
L 105.14755 201.586015 
L 106.484277 197.833898 
L 107.821003 192.942419 
L 109.15773 193.040392 
L 110.494456 194.671536 
L 111.831182 199.947228 
L 113.167909 212.812367 
L 114.504635 206.631541 
L 115.841362 206.530079 
L 117.178088 212.191326 
L 118.514814 212.99491 
L 119.851541 212.011149 
L 121.188267 214.363394 
L 122.524994 202.329196 
L 123.86172 201.623531 
L 125.198447 204.156851 
L 126.535173 202.050228 
L 127.871899 211.996935 
L 129.208626 208.227951 
L 130.545352 207.856548 
L 131.882079 205.425465 
L 133.218805 194.108619 
L 134.555531 194.485376 
L 135.892258 201.704122 
L 137.228984 199.210832 
L 138.565711 197.974174 
L 139.902437 204.945996 
L 141.239163 205.339357 
L 142.57589 195.080433 
L 143.912616 194.887617 
L 145.249343 190.763771 
L 146.586069 190.173767 
L 147.922795 191.101377 
L 149.259522 189.162468 
L 150.596248 189.389567 
L 151.932975 191.192385 
L 153.269701 183.291298 
L 154.606427 200.211866 
L 155.943154 200.477198 
L 157.27988 194.659937 
L 158.616607 197.31804 
L 159.953333 194.495031 
L 161.290059 194.892369 
L 163.963512 203.298219 
L 165.300239 202.867374 
L 166.636965 197.931497 
L 167.973691 195.330668 
L 169.310418 193.130451 
L 170.647144 190.309477 
L 171.983871 192.137539 
L 173.320597 182.771978 
L 174.657323 190.163893 
L 175.99405 183.777515 
L 177.330776 178.480643 
L 178.667503 179.309267 
L 180.004229 179.508078 
L 181.340956 181.341257 
L 182.677682 183.833294 
L 184.014408 175.714958 
L 185.351135 175.377136 
L 186.687861 175.437523 
L 188.024588 175.849918 
L 189.361314 172.778566 
L 190.69804 172.619939 
L 192.034767 174.233473 
L 193.371493 177.684918 
L 194.70822 173.502983 
L 196.044946 171.751758 
L 197.381672 174.802916 
L 198.718399 176.601335 
L 200.055125 176.106841 
L 201.391852 180.235651 
L 202.728578 178.079755 
L 204.065304 178.89389 
L 205.402031 178.723301 
L 206.738757 181.847923 
L 208.075484 170.670333 
L 209.41221 173.706199 
L 210.748936 174.147953 
L 212.085663 171.358962 
L 213.422389 170.046506 
L 214.759116 172.782109 
L 216.095842 179.536383 
L 217.432568 177.686623 
L 218.769295 177.2989 
L 220.106021 175.669102 
L 221.442748 176.087048 
L 222.779474 179.001291 
L 224.1162 178.196463 
L 225.452927 178.154253 
L 226.789653 175.614543 
L 228.12638 174.836167 
L 229.463106 167.953497 
L 230.799832 166.492024 
L 232.136559 169.42623 
L 233.473285 166.541563 
L 234.810012 176.299053 
L 236.146738 175.323072 
L 237.483465 183.924293 
L 238.820191 182.475341 
L 240.156917 185.548689 
L 241.493644 186.629089 
L 242.83037 181.939987 
L 244.167097 178.998506 
L 245.503823 170.499016 
L 246.840549 175.184555 
L 248.177276 173.449668 
L 249.514002 182.901465 
L 250.850729 190.228758 
L 252.187455 192.215803 
L 253.524181 189.53495 
L 254.860908 199.474679 
L 256.197634 189.331312 
L 257.534361 190.48218 
L 258.871087 190.254656 
L 260.207813 191.526114 
L 261.54454 201.767518 
L 262.881266 189.368231 
L 264.217993 194.570422 
L 265.554719 192.288058 
L 266.891445 190.709558 
L 268.228172 195.724109 
L 269.564898 198.558899 
L 270.901625 197.639364 
L 272.238351 190.553815 
L 274.911804 205.455462 
L 276.24853 207.345144 
L 277.585257 205.429879 
L 278.921983 205.093949 
L 280.258709 208.978772 
L 281.595436 203.405915 
L 282.932162 205.698825 
L 284.268889 198.533137 
L 285.605615 211.83709 
L 286.942341 215.641872 
L 288.279068 217.367475 
L 289.615794 217.121072 
L 290.952521 214.843972 
L 292.289247 222.512268 
L 293.625974 216.284572 
L 294.9627 221.049857 
L 296.299426 219.097516 
L 297.636153 223.276778 
L 298.972879 221.909118 
L 300.309606 217.467922 
L 301.646332 215.986245 
L 302.983058 221.343298 
L 304.319785 227.167286 
L 306.993238 219.403822 
L 308.329964 223.857894 
L 309.66669 226.727018 
L 311.003417 223.121834 
L 312.340143 224.959477 
L 313.67687 217.776223 
L 315.013596 214.508489 
L 316.350322 217.760919 
L 317.687049 217.151795 
L 319.023775 214.123151 
L 320.360502 214.210916 
L 321.697228 216.503989 
L 323.033954 218.231671 
L 324.370681 221.437019 
L 325.707407 219.689019 
L 327.044134 214.579278 
L 328.38086 214.004894 
L 329.717586 215.434676 
L 331.054313 214.788229 
L 332.391039 212.594585 
L 333.727766 215.001369 
L 335.064492 212.001022 
L 336.401218 215.885746 
L 340.411398 205.107862 
L 341.748124 204.193577 
L 343.084851 209.138471 
L 344.421577 210.260341 
L 345.758303 223.54815 
L 347.09503 222.071663 
L 348.431756 218.263087 
L 349.768483 220.869729 
L 351.105209 229.060481 
L 352.441935 220.38183 
L 353.778662 227.294908 
L 355.115388 218.564723 
L 356.452115 219.597185 
L 357.788841 210.908216 
L 359.125567 220.22 
L 360.462294 217.929418 
L 361.79902 222.655651 
L 363.135747 215.782428 
L 364.472473 218.150801 
L 365.809199 218.154271 
L 367.145926 217.95608 
L 368.482652 222.056622 
L 369.819379 219.651867 
L 371.156105 226.181399 
L 372.492831 228.241432 
L 373.829558 232.543532 
L 375.166284 228.861027 
L 376.503011 237.778836 
L 377.839737 233.409682 
L 379.176463 231.367689 
L 380.51319 234.17224 
L 383.186643 246.029424 
L 384.523369 256.843715 
L 385.860095 260.10936 
L 387.196822 260.645859 
L 388.533548 275.714974 
L 389.870275 268.3567 
L 391.207001 266.60157 
L 392.543727 263.970868 
L 393.880454 254.471139 
L 396.553907 275.562566 
L 397.890633 276.466058 
L 399.22736 272.070475 
L 400.564086 276.383039 
L 401.900812 284.409327 
L 403.237539 278.139757 
L 404.574265 288.079175 
L 405.910992 292.593546 
L 407.247718 295.01624 
L 409.921171 292.657537 
L 411.257897 295.545024 
L 412.594624 299.699195 
L 413.93135 302.633446 
L 415.268076 296.838228 
L 416.604803 292.756612 
L 417.941529 297.741285 
L 419.278256 296.783432 
L 420.614982 300.562948 
L 421.951708 312.099597 
L 423.288435 309.043538 
L 424.625161 309.528985 
L 425.961888 314.828635 
L 427.298614 311.421045 
L 428.63534 309.829439 
L 429.972067 314.151988 
L 431.308793 319.470583 
L 433.982246 310.757264 
L 435.318972 316.346086 
L 436.655699 313.405629 
L 437.992425 314.467125 
L 439.329152 323.633063 
L 440.665878 330.435382 
L 442.002604 325.890284 
L 443.339331 325.531002 
L 444.676057 323.993322 
L 446.012784 328.577101 
L 447.34951 330.608364 
L 448.686236 331.415334 
L 450.022963 350.237495 
L 451.359689 342.452882 
L 452.696416 345.649812 
L 455.369869 343.523699 
L 456.706595 335.801597 
L 458.043321 349.15807 
L 459.380048 348.407261 
L 460.716774 347.484917 
L 462.053501 345.239036 
L 463.390227 345.508561 
L 464.726953 349.447467 
L 466.06368 345.673968 
L 467.400406 346.423812 
L 468.737133 350.774004 
L 470.073859 345.513127 
L 471.410585 352.620036 
L 472.747312 354.1353 
L 474.084038 351.209837 
L 475.420765 346.711853 
L 476.757491 354.909075 
L 478.094217 357.629286 
L 479.430944 358.279535 
L 480.76767 367.52179 
L 482.104397 362.661225 
L 483.441123 359.969015 
L 484.777849 352.122764 
L 486.114576 351.240422 
L 488.788029 341.130767 
L 490.124755 348.463656 
L 491.461481 357.014437 
L 492.798208 351.854097 
L 494.134934 350.404539 
L 495.471661 347.859119 
L 496.808387 346.730196 
L 498.145113 349.564198 
L 499.48184 354.212098 
L 500.818566 353.188012 
L 502.155293 346.894468 
L 503.492019 344.092197 
L 504.828745 342.003862 
L 506.165472 344.591223 
L 507.502198 353.541319 
L 508.838925 347.749755 
L 510.175651 345.676259 
L 511.512378 345.653429 
L 512.849104 340.040369 
L 514.18583 353.30001 
L 515.522557 352.549014 
L 516.859283 353.121868 
L 518.19601 351.599425 
L 519.532736 340.441222 
L 520.869462 344.553699 
L 522.206189 349.973159 
L 523.542915 351.576281 
L 524.879642 344.009809 
L 526.216368 344.346233 
L 527.553094 353.875119 
L 528.889821 353.725443 
L 530.226547 344.818006 
L 531.563274 344.637371 
L 531.563274 344.637371 
" style="fill:none;stroke:#000000;stroke-linecap:square;stroke-width:3;"/>
   </g>
   <g id="line2d_52">
    <path clip-path="url(#p75e42e650c)" d="M 71.72939 186.336669 
L 73.066117 185.439236 
L 74.402843 174.633212 
L 75.73957 172.5586 
L 77.076296 169.225301 
L 78.413022 159.976007 
L 79.749749 156.748685 
L 81.086475 151.633807 
L 82.423202 149.331245 
L 83.759928 144.035237 
L 85.096654 141.949031 
L 87.770107 126.95136 
L 89.106834 116.573307 
L 90.44356 118.944166 
L 91.780286 115.74681 
L 93.117013 113.938593 
L 94.453739 110.662993 
L 95.790466 103.715377 
L 97.127192 101.984521 
L 98.463918 96.195464 
L 99.800645 92.473337 
L 102.474098 78.464234 
L 103.810824 72.579704 
L 105.14755 68.17837 
L 106.484277 67.434325 
L 107.821003 62.028682 
L 109.15773 61.502566 
L 110.494456 59.920085 
L 111.831182 61.936789 
L 113.167909 69.654687 
L 114.504635 65.561118 
L 115.841362 66.709405 
L 117.178088 68.528664 
L 118.514814 73.74431 
L 119.851541 71.859125 
L 121.188267 73.015196 
L 122.524994 67.088834 
L 123.86172 62.337348 
L 125.198447 62.022451 
L 126.535173 62.721642 
L 127.871899 71.105339 
L 129.208626 68.432067 
L 130.545352 68.416624 
L 131.882079 70.30785 
L 133.218805 69.567666 
L 134.555531 79.857654 
L 135.892258 92.313296 
L 137.228984 93.752494 
L 138.565711 95.819853 
L 139.902437 103.706664 
L 141.239163 106.705509 
L 142.57589 104.752392 
L 145.249343 104.397318 
L 146.586069 108.047554 
L 147.922795 114.452104 
L 149.259522 116.08679 
L 150.596248 112.41402 
L 151.932975 111.79933 
L 153.269701 112.632363 
L 154.606427 120.243393 
L 155.943154 122.875267 
L 157.27988 121.206075 
L 159.953333 124.413222 
L 161.290059 127.130125 
L 162.626786 129.574665 
L 163.963512 127.369289 
L 165.300239 123.782934 
L 166.636965 123.285962 
L 167.973691 121.753837 
L 169.310418 117.898349 
L 170.647144 116.7717 
L 171.983871 117.528991 
L 173.320597 116.205325 
L 174.657323 117.887886 
L 175.99405 114.202509 
L 177.330776 109.080106 
L 178.667503 108.105172 
L 180.004229 102.849603 
L 181.340956 104.652001 
L 182.677682 105.988934 
L 184.014408 105.513547 
L 185.351135 106.493461 
L 186.687861 106.879454 
L 188.024588 107.05097 
L 189.361314 103.176722 
L 190.69804 105.23496 
L 193.371493 105.215265 
L 194.70822 104.462306 
L 196.044946 109.071232 
L 200.055125 116.220132 
L 201.391852 118.163783 
L 202.728578 118.191824 
L 204.065304 119.753105 
L 205.402031 122.551311 
L 206.738757 131.40989 
L 208.075484 133.60086 
L 209.41221 139.105481 
L 210.748936 143.820948 
L 213.422389 149.667182 
L 216.095842 155.233875 
L 217.432568 158.9897 
L 218.769295 161.549297 
L 220.106021 161.199844 
L 221.442748 164.306174 
L 222.779474 166.903055 
L 224.1162 167.320056 
L 225.452927 168.04755 
L 226.789653 167.748556 
L 228.12638 168.414954 
L 229.463106 164.017412 
L 230.799832 164.858236 
L 232.136559 166.493357 
L 233.473285 162.627774 
L 234.810012 167.821312 
L 236.146738 168.088628 
L 237.483465 168.665729 
L 238.820191 168.090772 
L 240.156917 171.899175 
L 241.493644 172.741151 
L 242.83037 173.047248 
L 244.167097 171.294557 
L 245.503823 171.348591 
L 246.840549 178.724688 
L 248.177276 179.261284 
L 249.514002 186.726804 
L 250.850729 191.011152 
L 252.187455 191.160882 
L 253.524181 191.966099 
L 254.860908 201.917462 
L 256.197634 198.286367 
L 257.534361 195.516143 
L 258.871087 189.811371 
L 260.207813 187.3176 
L 261.54454 187.35972 
L 262.881266 174.866498 
L 264.217993 174.855932 
L 265.554719 171.475548 
L 266.891445 170.868942 
L 268.228172 172.977348 
L 269.564898 173.646528 
L 270.901625 168.595929 
L 272.238351 158.980673 
L 273.575077 162.224998 
L 274.911804 166.806674 
L 276.24853 162.729535 
L 277.585257 163.16073 
L 278.921983 159.571913 
L 280.258709 161.453805 
L 281.595436 155.322135 
L 282.932162 152.801295 
L 284.268889 150.576662 
L 285.605615 156.468404 
L 286.942341 157.404205 
L 288.279068 158.545153 
L 289.615794 159.283449 
L 290.952521 157.766888 
L 292.289247 160.962707 
L 293.625974 156.400202 
L 294.9627 157.292605 
L 296.299426 160.012546 
L 297.636153 159.877198 
L 298.972879 159.08665 
L 300.309606 154.567494 
L 301.646332 156.146863 
L 302.983058 160.745902 
L 304.319785 164.592264 
L 305.656511 165.77762 
L 306.993238 163.614409 
L 308.329964 168.08063 
L 309.66669 168.513718 
L 311.003417 166.099637 
L 312.340143 166.523438 
L 313.67687 164.857826 
L 316.350322 165.648761 
L 317.687049 168.310298 
L 319.023775 167.082466 
L 320.360502 168.470528 
L 321.697228 170.855408 
L 323.033954 172.084189 
L 324.370681 178.748678 
L 325.707407 179.071887 
L 327.044134 175.000883 
L 328.38086 175.911764 
L 329.717586 180.656719 
L 331.054313 183.027924 
L 332.391039 185.86226 
L 333.727766 189.094518 
L 335.064492 189.434727 
L 336.401218 190.015846 
L 337.737945 187.894198 
L 339.074671 186.78256 
L 340.411398 187.262164 
L 341.748124 190.121218 
L 343.084851 194.662119 
L 344.421577 194.627462 
L 345.758303 198.32056 
L 347.09503 194.000056 
L 348.431756 191.408969 
L 349.768483 188.051435 
L 351.105209 191.715062 
L 352.441935 182.898945 
L 353.778662 185.249389 
L 355.115388 179.160711 
L 356.452115 176.399014 
L 357.788841 165.849694 
L 359.125567 168.812714 
L 360.462294 166.53507 
L 361.79902 165.947752 
L 363.135747 159.923396 
L 364.472473 158.281838 
L 365.809199 155.112058 
L 367.145926 150.322568 
L 368.482652 150.562885 
L 369.819379 144.588199 
L 371.156105 141.2196 
L 372.492831 138.565201 
L 373.829558 137.789382 
L 375.166284 128.2455 
L 376.503011 125.163187 
L 380.51319 102.36367 
L 381.849916 98.951222 
L 383.186643 100.58681 
L 384.523369 98.881092 
L 385.860095 95.829162 
L 387.196822 88.900586 
L 388.533548 93.589936 
L 389.870275 89.25201 
L 391.207001 86.735472 
L 392.543727 87.475878 
L 393.880454 81.475804 
L 395.21718 86.874218 
L 396.553907 89.408038 
L 397.890633 88.89206 
L 399.22736 86.702298 
L 400.564086 87.070421 
L 401.900812 92.697993 
L 403.237539 90.141357 
L 404.574265 94.345811 
L 405.910992 97.668993 
L 407.247718 99.215771 
L 408.584444 95.545329 
L 409.921171 95.175008 
L 411.257897 97.049049 
L 412.594624 99.975052 
L 413.93135 105.395712 
L 415.268076 100.280623 
L 416.604803 100.807528 
L 419.278256 98.941348 
L 420.614982 102.802535 
L 421.951708 110.913926 
L 423.288435 108.025589 
L 424.625161 107.332228 
L 425.961888 111.875144 
L 427.298614 111.325138 
L 428.63534 110.948444 
L 429.972067 114.414253 
L 431.308793 122.918954 
L 432.64552 120.371703 
L 433.982246 120.702599 
L 435.318972 127.837151 
L 436.655699 126.697706 
L 437.992425 121.4597 
L 439.329152 128.416595 
L 440.665878 133.790381 
L 442.002604 132.126218 
L 443.339331 131.229053 
L 444.676057 133.052006 
L 446.012784 135.882714 
L 447.34951 139.855023 
L 448.686236 140.365069 
L 450.022963 153.252566 
L 451.359689 143.496742 
L 452.696416 145.161372 
L 454.033142 149.251544 
L 455.369869 148.005418 
L 456.706595 147.769748 
L 458.043321 152.988112 
L 459.380048 155.694825 
L 462.053501 155.838058 
L 463.390227 156.271803 
L 464.726953 159.524624 
L 466.06368 162.375169 
L 467.400406 165.923434 
L 468.737133 171.815872 
L 470.073859 176.026421 
L 471.410585 186.712751 
L 472.747312 192.028009 
L 474.084038 194.001794 
L 475.420765 196.725036 
L 476.757491 206.454083 
L 479.430944 218.556977 
L 480.76767 222.732084 
L 482.104397 221.364583 
L 483.441123 219.740871 
L 484.777849 214.651731 
L 486.114576 217.147926 
L 487.451302 217.129301 
L 488.788029 212.410745 
L 490.124755 214.974656 
L 491.461481 218.098645 
L 492.798208 212.877458 
L 494.134934 209.86437 
L 495.471661 207.408239 
L 496.808387 206.540395 
L 498.145113 206.370342 
L 499.48184 213.380464 
L 500.818566 217.61277 
L 502.155293 210.684651 
L 503.492019 208.34582 
L 504.828745 208.261117 
L 506.165472 211.405324 
L 507.502198 216.866042 
L 508.838925 217.423208 
L 510.175651 219.604619 
L 511.512378 221.170606 
L 512.849104 221.803081 
L 514.18583 233.351402 
L 515.522557 234.083398 
L 516.859283 234.624768 
L 518.19601 234.012271 
L 519.532736 226.535728 
L 520.869462 228.36833 
L 522.206189 231.027538 
L 523.542915 228.672863 
L 524.879642 226.016339 
L 526.216368 227.833306 
L 527.553094 238.215617 
L 528.889821 238.556239 
L 530.226547 233.816081 
L 531.563274 234.41697 
L 531.563274 234.41697 
" style="fill:none;stroke:#000080;stroke-linecap:square;stroke-width:3;"/>
   </g>
   <g id="line2d_53">
    <path clip-path="url(#p75e42e650c)" d="M 71.72939 187.081376 
L 73.066117 190.294331 
L 74.402843 194.147951 
L 75.73957 202.301863 
L 77.076296 201.361634 
L 78.413022 203.948124 
L 79.749749 208.740755 
L 81.086475 210.891034 
L 82.423202 210.76393 
L 83.759928 213.050454 
L 86.433381 222.463726 
L 87.770107 222.794217 
L 89.106834 224.648441 
L 90.44356 229.377419 
L 91.780286 227.859253 
L 93.117013 232.897356 
L 94.453739 235.998625 
L 95.790466 232.378898 
L 97.127192 235.225089 
L 99.800645 244.634847 
L 101.137371 238.626488 
L 102.474098 246.407639 
L 103.810824 243.331672 
L 105.14755 243.132043 
L 106.484277 238.449591 
L 109.15773 235.91659 
L 111.831182 239.39676 
L 113.167909 242.982257 
L 114.504635 239.984865 
L 115.841362 238.127263 
L 117.178088 241.433693 
L 118.514814 236.865766 
L 119.851541 237.542821 
L 121.188267 238.764038 
L 122.524994 232.917066 
L 123.86172 237.440546 
L 125.198447 240.646567 
L 126.535173 238.424993 
L 127.871899 240.784831 
L 129.208626 240.226568 
L 130.545352 240.572272 
L 131.882079 237.395838 
L 134.555531 219.6539 
L 135.892258 215.729958 
L 137.228984 213.145247 
L 138.565711 211.116669 
L 139.902437 212.248021 
L 141.239163 211.119259 
L 142.57589 204.326484 
L 143.912616 206.142841 
L 146.586069 202.409277 
L 147.922795 199.270331 
L 149.259522 198.27016 
L 150.596248 203.597586 
L 151.932975 208.063891 
L 153.269701 201.210608 
L 154.606427 211.844727 
L 155.943154 210.440621 
L 157.27988 207.036305 
L 158.616607 208.899822 
L 159.953333 205.21665 
L 161.290059 203.254392 
L 162.626786 205.771069 
L 163.963512 212.557128 
L 165.300239 216.267572 
L 166.636965 212.060807 
L 167.973691 211.832837 
L 169.310418 214.363249 
L 170.647144 213.310945 
L 171.983871 214.745373 
L 173.320597 207.373343 
L 174.657323 213.813852 
L 175.99405 212.678685 
L 177.330776 213.727203 
L 178.667503 217.169003 
L 180.004229 223.136458 
L 181.340956 223.990257 
L 182.677682 225.959637 
L 184.014408 219.163707 
L 185.351135 219.091994 
L 186.687861 219.723143 
L 189.361314 223.107048 
L 190.69804 222.347759 
L 192.034767 225.07659 
L 193.371493 229.250095 
L 194.70822 226.736283 
L 196.044946 221.778463 
L 197.381672 223.285639 
L 198.718399 223.587839 
L 200.055125 221.518579 
L 201.391852 224.119697 
L 202.728578 223.687324 
L 204.065304 224.223104 
L 205.402031 222.683322 
L 206.738757 217.8193 
L 208.075484 205.468868 
L 209.41221 203.771047 
L 210.748936 200.205193 
L 212.085663 195.399384 
L 213.422389 191.838067 
L 214.759116 192.779415 
L 216.095842 197.413578 
L 217.432568 193.44159 
L 218.769295 190.804684 
L 220.106021 189.985403 
L 221.442748 187.936914 
L 222.779474 188.957588 
L 224.1162 188.859856 
L 225.452927 189.483758 
L 226.789653 188.113016 
L 228.12638 188.089681 
L 229.463106 187.090753 
L 230.799832 186.615496 
L 232.136559 188.549484 
L 233.473285 190.035426 
L 234.810012 195.898931 
L 236.146738 194.763428 
L 237.483465 203.156754 
L 238.820191 202.486421 
L 240.156917 201.507409 
L 241.493644 201.892279 
L 242.83037 197.817077 
L 244.167097 197.583364 
L 245.503823 189.637681 
L 248.177276 183.789502 
L 249.514002 184.838161 
L 250.850729 186.520745 
L 252.187455 187.491681 
L 253.524181 182.555777 
L 254.860908 181.029747 
L 256.197634 172.42058 
L 257.534361 174.721812 
L 258.871087 177.550668 
L 260.207813 178.021282 
L 261.54454 185.249512 
L 262.881266 181.637431 
L 264.217993 184.463139 
L 265.554719 183.622125 
L 266.891445 180.131951 
L 268.228172 181.056148 
L 269.564898 180.817666 
L 270.901625 182.619949 
L 272.238351 183.441109 
L 273.575077 186.463081 
L 274.911804 187.935068 
L 276.24853 191.739556 
L 277.585257 187.331275 
L 278.921983 188.969255 
L 280.258709 189.538871 
L 281.595436 188.542004 
L 282.932162 192.148345 
L 284.268889 185.627339 
L 285.605615 191.827102 
L 286.942341 193.68109 
L 288.279068 193.005019 
L 289.615794 190.903337 
L 290.952521 189.938319 
L 292.289247 194.585586 
L 293.625974 193.693943 
L 294.9627 198.642371 
L 296.299426 194.639094 
L 297.636153 199.122692 
L 298.972879 199.29009 
L 300.309606 200.161864 
L 301.646332 197.913742 
L 302.983058 199.640962 
L 304.319785 202.138472 
L 305.656511 197.942078 
L 306.993238 197.065667 
L 308.329964 198.279385 
L 309.66669 201.701124 
L 311.003417 201.302089 
L 312.340143 203.419072 
L 313.67687 198.986181 
L 315.013596 196.79304 
L 316.350322 200.741557 
L 317.687049 198.185976 
L 319.023775 197.040393 
L 320.360502 197.146608 
L 321.697228 197.401541 
L 323.033954 198.453617 
L 324.370681 196.165317 
L 325.707407 194.976944 
L 327.044134 195.625447 
L 328.38086 195.234566 
L 331.054313 190.564763 
L 332.391039 186.473907 
L 333.727766 186.823434 
L 335.064492 184.175038 
L 336.401218 188.495447 
L 337.737945 188.129579 
L 339.074671 186.262888 
L 340.411398 183.039753 
L 341.748124 180.183521 
L 343.084851 180.833471 
L 344.421577 182.571732 
L 345.758303 193.325417 
L 347.09503 196.737471 
L 348.431756 196.30682 
L 349.768483 202.169556 
L 351.105209 206.267106 
L 352.441935 206.365195 
L 353.778662 210.644284 
L 355.115388 207.465917 
L 356.452115 211.047376 
L 357.788841 212.457986 
L 359.125567 218.432994 
L 360.462294 217.554272 
L 361.79902 221.619063 
L 363.135747 219.590806 
L 364.472473 221.580035 
L 365.809199 222.317686 
L 367.145926 224.677153 
L 369.819379 225.555323 
L 371.156105 231.838896 
L 372.492831 231.293075 
L 373.829558 229.528356 
L 375.166284 228.018078 
L 376.503011 232.265843 
L 377.839737 227.035789 
L 379.176463 225.991582 
L 380.51319 228.285964 
L 381.849916 231.284815 
L 383.186643 229.374652 
L 384.523369 236.07989 
L 385.860095 236.940696 
L 387.196822 238.927795 
L 388.533548 245.08402 
L 389.870275 237.690282 
L 391.207001 235.264312 
L 392.543727 228.985019 
L 393.880454 223.426097 
L 395.21718 227.783725 
L 396.553907 234.448347 
L 397.890633 234.783274 
L 399.22736 231.634713 
L 400.564086 234.494439 
L 401.900812 235.721171 
L 403.237539 231.236671 
L 404.574265 235.460647 
L 407.247718 236.789507 
L 408.584444 239.660797 
L 409.921171 239.40944 
L 411.257897 240.454277 
L 412.594624 241.802125 
L 413.93135 239.831804 
L 415.268076 239.809649 
L 416.604803 236.369507 
L 417.941529 242.347443 
L 419.278256 243.068472 
L 420.614982 244.158349 
L 421.951708 249.071021 
L 423.288435 250.803286 
L 424.625161 253.977416 
L 425.961888 256.568075 
L 427.298614 255.350721 
L 428.63534 255.807614 
L 429.972067 258.029421 
L 431.308793 255.783157 
L 432.64552 254.560496 
L 433.982246 251.466265 
L 435.318972 251.952377 
L 436.655699 251.76582 
L 437.992425 258.574703 
L 439.329152 261.120525 
L 440.665878 263.971658 
L 442.002604 262.466134 
L 443.339331 264.240018 
L 444.676057 262.524994 
L 446.012784 265.528335 
L 447.34951 265.369857 
L 448.686236 267.167395 
L 450.022963 274.522425 
L 451.359689 276.728222 
L 452.696416 280.165531 
L 454.033142 277.579371 
L 455.369869 280.100801 
L 456.706595 275.226942 
L 458.043321 285.594004 
L 459.380048 284.84721 
L 460.716774 285.931067 
L 462.053501 286.00662 
L 463.390227 287.63083 
L 464.726953 289.910108 
L 466.06368 285.917146 
L 467.400406 286.442517 
L 468.737133 287.249914 
L 470.073859 280.67087 
L 471.410585 279.32133 
L 472.747312 277.579906 
L 474.084038 274.833699 
L 475.420765 269.79566 
L 476.757491 270.199916 
L 478.094217 268.995736 
L 479.430944 265.788525 
L 480.76767 273.278848 
L 482.104397 271.872531 
L 483.441123 272.880421 
L 484.777849 272.07864 
L 486.114576 270.739202 
L 487.451302 267.781297 
L 488.788029 269.064817 
L 491.461481 280.861841 
L 492.798208 281.900432 
L 494.134934 284.357476 
L 495.471661 285.324623 
L 496.808387 285.964526 
L 498.145113 290.023587 
L 499.48184 288.937645 
L 500.818566 284.80607 
L 502.155293 286.355135 
L 503.492019 286.998271 
L 504.828745 286.434354 
L 506.165472 287.456727 
L 507.502198 292.554684 
L 508.838925 287.941141 
L 510.175651 284.862531 
L 511.512378 285.018426 
L 512.849104 279.75771 
L 514.18583 282.983099 
L 515.522557 283.216307 
L 516.859283 284.615689 
L 518.19601 285.000376 
L 519.532736 282.525202 
L 522.206189 290.114146 
L 523.542915 295.165638 
L 524.879642 291.809917 
L 526.216368 291.428116 
L 527.553094 291.61887 
L 528.889821 292.129711 
L 530.226547 289.065283 
L 531.563274 289.521106 
L 531.563274 289.521106 
" style="fill:none;stroke:#ffa500;stroke-linecap:square;stroke-width:3;"/>
   </g>
   <g id="line2d_54">
    <path clip-path="url(#p75e42e650c)" d="M 71.72939 188.453787 
L 73.066117 188.809896 
L 74.402843 190.21891 
L 77.076296 191.940874 
L 79.749749 195.390572 
L 82.423202 199.332808 
L 86.433381 206.600066 
L 89.106834 212.810799 
L 90.44356 214.815435 
L 91.780286 217.75591 
L 94.453739 221.966408 
L 95.790466 224.135814 
L 97.127192 225.528291 
L 98.463918 227.228084 
L 99.800645 228.711654 
L 101.137371 231.091803 
L 102.474098 232.72491 
L 103.810824 235.012912 
L 107.821003 239.582951 
L 109.15773 241.325057 
L 113.167909 245.489523 
L 114.504635 246.289644 
L 117.178088 247.247839 
L 121.188267 247.383459 
L 122.524994 247.06079 
L 123.86172 246.532039 
L 125.198447 246.127575 
L 126.535173 245.498699 
L 127.871899 244.661761 
L 129.208626 244.088467 
L 130.545352 243.354394 
L 131.882079 242.178145 
L 138.565711 235.377365 
L 139.902437 233.314944 
L 142.57589 230.296359 
L 143.912616 228.504238 
L 145.249343 226.413331 
L 149.259522 219.050205 
L 150.596248 217.615786 
L 153.269701 213.673444 
L 154.606427 212.343842 
L 155.943154 211.376461 
L 159.953333 209.068214 
L 161.290059 208.707611 
L 162.626786 208.006949 
L 166.636965 206.774585 
L 169.310418 205.055049 
L 170.647144 204.411434 
L 171.983871 204.04636 
L 174.657323 202.642801 
L 175.99405 201.075903 
L 177.330776 199.851948 
L 178.667503 198.212854 
L 180.004229 197.699029 
L 184.014408 195.212707 
L 185.351135 193.966145 
L 186.687861 193.008902 
L 188.024588 191.481029 
L 189.361314 190.667943 
L 190.69804 189.210004 
L 192.034767 188.131415 
L 193.371493 187.391731 
L 194.70822 186.476292 
L 196.044946 185.0737 
L 200.055125 182.539154 
L 201.391852 182.123031 
L 202.728578 180.371316 
L 205.402031 177.65911 
L 206.738757 176.789055 
L 208.075484 175.770815 
L 210.748936 174.291841 
L 212.085663 173.307024 
L 213.422389 172.711138 
L 214.759116 171.683017 
L 216.095842 171.058695 
L 217.432568 169.425045 
L 218.769295 169.114585 
L 220.106021 168.65348 
L 222.779474 167.310202 
L 224.1162 166.186075 
L 225.452927 164.792443 
L 226.789653 163.922444 
L 229.463106 161.014763 
L 230.799832 159.187705 
L 232.136559 158.552786 
L 233.473285 158.047746 
L 234.810012 156.74818 
L 236.146738 156.640374 
L 237.483465 156.271159 
L 238.820191 156.067487 
L 240.156917 156.311434 
L 241.493644 156.164981 
L 244.167097 154.289893 
L 245.503823 153.682046 
L 246.840549 153.848062 
L 248.177276 154.568174 
L 249.514002 155.505787 
L 250.850729 156.866145 
L 252.187455 157.73252 
L 254.860908 160.696745 
L 256.197634 162.793637 
L 257.534361 164.413495 
L 258.871087 167.061884 
L 260.207813 170.356497 
L 261.54454 173.327551 
L 262.881266 177.033565 
L 264.217993 179.420612 
L 265.554719 181.359645 
L 266.891445 183.877923 
L 268.228172 185.85987 
L 270.901625 190.592742 
L 272.238351 192.301288 
L 273.575077 193.32056 
L 274.911804 194.882974 
L 277.585257 199.107128 
L 278.921983 200.722034 
L 284.268889 206.498388 
L 285.605615 207.710836 
L 286.942341 208.725828 
L 289.615794 211.103536 
L 290.952521 211.308016 
L 292.289247 211.133225 
L 293.625974 210.359676 
L 294.9627 209.284132 
L 296.299426 208.615125 
L 297.636153 208.446137 
L 301.646332 206.094889 
L 302.983058 205.125684 
L 304.319785 204.605799 
L 306.993238 202.892994 
L 308.329964 201.667129 
L 309.66669 200.681425 
L 312.340143 199.186217 
L 313.67687 198.101465 
L 315.013596 196.675557 
L 316.350322 195.539851 
L 319.023775 194.169541 
L 320.360502 192.763029 
L 321.697228 192.416289 
L 323.033954 191.863114 
L 324.370681 190.692273 
L 325.707407 189.809437 
L 327.044134 188.122197 
L 329.717586 185.986743 
L 331.054313 185.36479 
L 332.391039 184.427667 
L 333.727766 183.252666 
L 335.064492 182.560506 
L 336.401218 181.543701 
L 337.737945 180.345274 
L 339.074671 179.589074 
L 340.411398 178.975195 
L 341.748124 178.058086 
L 343.084851 177.812129 
L 344.421577 177.230396 
L 345.758303 176.071422 
L 347.09503 175.503385 
L 348.431756 174.716547 
L 349.768483 174.817987 
L 351.105209 175.247562 
L 352.441935 175.286939 
L 353.778662 175.570484 
L 355.115388 176.107343 
L 356.452115 176.320044 
L 359.125567 177.143541 
L 360.462294 178.009324 
L 363.135747 180.437475 
L 364.472473 182.458176 
L 367.145926 187.125608 
L 368.482652 190.591387 
L 369.819379 193.677594 
L 371.156105 197.292151 
L 372.492831 202.552405 
L 375.166284 216.766697 
L 376.503011 224.519054 
L 377.839737 233.190976 
L 381.849916 254.182257 
L 384.523369 266.051982 
L 387.196822 276.986727 
L 389.870275 285.583657 
L 392.543727 291.67922 
L 393.880454 293.738487 
L 395.21718 294.90469 
L 399.22736 297.902712 
L 401.900812 300.159412 
L 403.237539 300.930978 
L 404.574265 302.441965 
L 405.910992 303.024469 
L 407.247718 303.180211 
L 408.584444 302.846917 
L 409.921171 302.242338 
L 412.594624 302.091267 
L 413.93135 301.575179 
L 415.268076 300.917205 
L 416.604803 299.748826 
L 417.941529 299.647192 
L 419.278256 298.942861 
L 420.614982 297.771313 
L 421.951708 296.283898 
L 425.961888 290.554664 
L 428.63534 287.24263 
L 429.972067 285.877563 
L 431.308793 284.93772 
L 432.64552 284.312608 
L 433.982246 282.75765 
L 435.318972 280.725807 
L 436.655699 279.111352 
L 437.992425 278.601971 
L 439.329152 278.265191 
L 442.002604 275.467181 
L 443.339331 274.231181 
L 444.676057 272.585571 
L 446.012784 271.335301 
L 447.34951 269.552734 
L 450.022963 266.631753 
L 451.359689 266.397167 
L 452.696416 264.492158 
L 454.033142 261.86504 
L 455.369869 259.58673 
L 456.706595 256.974156 
L 458.043321 254.745203 
L 459.380048 252.034475 
L 460.716774 249.904263 
L 462.053501 247.563607 
L 463.390227 245.775178 
L 464.726953 244.181983 
L 466.06368 241.550902 
L 467.400406 238.227111 
L 468.737133 235.877467 
L 470.073859 232.985085 
L 472.747312 228.696633 
L 483.441123 211.516973 
L 488.788029 203.824454 
L 490.124755 202.758081 
L 491.461481 202.223199 
L 498.145113 197.339518 
L 500.818566 194.93842 
L 502.155293 194.023931 
L 503.492019 192.917355 
L 506.165472 189.898421 
L 508.838925 186.554655 
L 510.175651 185.378358 
L 511.512378 183.633645 
L 512.849104 182.648827 
L 514.18583 181.134758 
L 515.522557 179.418557 
L 518.19601 176.756027 
L 519.532736 175.549541 
L 520.869462 174.047195 
L 523.542915 171.907029 
L 524.879642 170.352803 
L 527.553094 168.20988 
L 530.226547 166.105892 
L 531.563274 164.868544 
L 531.563274 164.868544 
" style="fill:none;stroke:#800000;stroke-linecap:square;stroke-width:3;"/>
   </g>
   <g id="line2d_55">
    <path clip-path="url(#p75e42e650c)" d="M 69.055937 188.493339 
L 532.9 188.493339 
" style="fill:none;stroke:#000000;stroke-linecap:square;stroke-width:1.5;"/>
   </g>
   <g id="patch_3">
    <path d="M 69.055938 382.901875 
L 532.9 382.901875 
" style="fill:none;stroke:#000000;stroke-linecap:square;stroke-linejoin:miter;stroke-width:0.8;"/>
   </g>
   <g id="legend_1">
    <g id="patch_4">
     <path d="M 76.055937 377.901875 
L 186.116875 377.901875 
Q 188.116875 377.901875 188.116875 375.901875 
L 188.116875 318.189375 
Q 188.116875 316.189375 186.116875 316.189375 
L 76.055937 316.189375 
Q 74.055937 316.189375 74.055937 318.189375 
L 74.055937 375.901875 
Q 74.055937 377.901875 76.055937 377.901875 
z
" style="fill:#ffffff;opacity:0.8;stroke:#cccccc;stroke-linejoin:miter;"/>
    </g>
    <g id="line2d_56">
     <path d="M 78.055937 324.287812 
L 98.055937 324.287812 
" style="fill:none;stroke:#000000;stroke-linecap:square;stroke-width:3;"/>
    </g>
    <g id="line2d_57"/>
    <g id="text_15">
     <!-- Change in LFPR -->
     <defs>
      <path d="M 64.40625 67.28125 
L 64.40625 56.890625 
Q 59.421875 61.53125 53.78125 63.8125 
Q 48.140625 66.109375 41.796875 66.109375 
Q 29.296875 66.109375 22.65625 58.46875 
Q 16.015625 50.828125 16.015625 36.375 
Q 16.015625 21.96875 22.65625 14.328125 
Q 29.296875 6.6875 41.796875 6.6875 
Q 48.140625 6.6875 53.78125 8.984375 
Q 59.421875 11.28125 64.40625 15.921875 
L 64.40625 5.609375 
Q 59.234375 2.09375 53.4375 0.328125 
Q 47.65625 -1.421875 41.21875 -1.421875 
Q 24.65625 -1.421875 15.125 8.703125 
Q 5.609375 18.84375 5.609375 36.375 
Q 5.609375 53.953125 15.125 64.078125 
Q 24.65625 74.21875 41.21875 74.21875 
Q 47.75 74.21875 53.53125 72.484375 
Q 59.328125 70.75 64.40625 67.28125 
z
" id="DejaVuSans-43"/>
      <path d="M 54.890625 33.015625 
L 54.890625 0 
L 45.90625 0 
L 45.90625 32.71875 
Q 45.90625 40.484375 42.875 44.328125 
Q 39.84375 48.1875 33.796875 48.1875 
Q 26.515625 48.1875 22.3125 43.546875 
Q 18.109375 38.921875 18.109375 30.90625 
L 18.109375 0 
L 9.078125 0 
L 9.078125 75.984375 
L 18.109375 75.984375 
L 18.109375 46.1875 
Q 21.34375 51.125 25.703125 53.5625 
Q 30.078125 56 35.796875 56 
Q 45.21875 56 50.046875 50.171875 
Q 54.890625 44.34375 54.890625 33.015625 
z
" id="DejaVuSans-68"/>
      <path d="M 9.8125 72.90625 
L 19.671875 72.90625 
L 19.671875 8.296875 
L 55.171875 8.296875 
L 55.171875 0 
L 9.8125 0 
z
" id="DejaVuSans-4c"/>
      <path d="M 9.8125 72.90625 
L 51.703125 72.90625 
L 51.703125 64.59375 
L 19.671875 64.59375 
L 19.671875 43.109375 
L 48.578125 43.109375 
L 48.578125 34.8125 
L 19.671875 34.8125 
L 19.671875 0 
L 9.8125 0 
z
" id="DejaVuSans-46"/>
      <path d="M 44.390625 34.1875 
Q 47.5625 33.109375 50.5625 29.59375 
Q 53.5625 26.078125 56.59375 19.921875 
L 66.609375 0 
L 56 0 
L 46.6875 18.703125 
Q 43.0625 26.03125 39.671875 28.421875 
Q 36.28125 30.8125 30.421875 30.8125 
L 19.671875 30.8125 
L 19.671875 0 
L 9.8125 0 
L 9.8125 72.90625 
L 32.078125 72.90625 
Q 44.578125 72.90625 50.734375 67.671875 
Q 56.890625 62.453125 56.890625 51.90625 
Q 56.890625 45.015625 53.6875 40.46875 
Q 50.484375 35.9375 44.390625 34.1875 
z
M 19.671875 64.796875 
L 19.671875 38.921875 
L 32.078125 38.921875 
Q 39.203125 38.921875 42.84375 42.21875 
Q 46.484375 45.515625 46.484375 51.90625 
Q 46.484375 58.296875 42.84375 61.546875 
Q 39.203125 64.796875 32.078125 64.796875 
z
" id="DejaVuSans-52"/>
     </defs>
     <g transform="translate(106.055937 327.787812)scale(0.1 -0.1)">
      <use xlink:href="#DejaVuSans-43"/>
      <use x="69.824219" xlink:href="#DejaVuSans-68"/>
      <use x="133.203125" xlink:href="#DejaVuSans-61"/>
      <use x="194.482422" xlink:href="#DejaVuSans-6e"/>
      <use x="257.861328" xlink:href="#DejaVuSans-67"/>
      <use x="321.337891" xlink:href="#DejaVuSans-65"/>
      <use x="382.861328" xlink:href="#DejaVuSans-20"/>
      <use x="414.648438" xlink:href="#DejaVuSans-69"/>
      <use x="442.431641" xlink:href="#DejaVuSans-6e"/>
      <use x="505.810547" xlink:href="#DejaVuSans-20"/>
      <use x="537.597656" xlink:href="#DejaVuSans-4c"/>
      <use x="593.310547" xlink:href="#DejaVuSans-46"/>
      <use x="650.830078" xlink:href="#DejaVuSans-50"/>
      <use x="711.132812" xlink:href="#DejaVuSans-52"/>
     </g>
    </g>
    <g id="line2d_58">
     <path d="M 78.055937 338.965937 
L 98.055937 338.965937 
" style="fill:none;stroke:#000080;stroke-linecap:square;stroke-width:3;"/>
    </g>
    <g id="line2d_59"/>
    <g id="text_16">
     <!-- Exit -->
     <defs>
      <path d="M 9.8125 72.90625 
L 55.90625 72.90625 
L 55.90625 64.59375 
L 19.671875 64.59375 
L 19.671875 43.015625 
L 54.390625 43.015625 
L 54.390625 34.71875 
L 19.671875 34.71875 
L 19.671875 8.296875 
L 56.78125 8.296875 
L 56.78125 0 
L 9.8125 0 
z
" id="DejaVuSans-45"/>
      <path d="M 54.890625 54.6875 
L 35.109375 28.078125 
L 55.90625 0 
L 45.3125 0 
L 29.390625 21.484375 
L 13.484375 0 
L 2.875 0 
L 24.125 28.609375 
L 4.6875 54.6875 
L 15.28125 54.6875 
L 29.78125 35.203125 
L 44.28125 54.6875 
z
" id="DejaVuSans-78"/>
     </defs>
     <g transform="translate(106.055937 342.465937)scale(0.1 -0.1)">
      <use xlink:href="#DejaVuSans-45"/>
      <use x="63.183594" xlink:href="#DejaVuSans-78"/>
      <use x="122.363281" xlink:href="#DejaVuSans-69"/>
      <use x="150.146484" xlink:href="#DejaVuSans-74"/>
     </g>
    </g>
    <g id="line2d_60">
     <path d="M 78.055937 353.644063 
L 98.055937 353.644063 
" style="fill:none;stroke:#ffa500;stroke-linecap:square;stroke-width:3;"/>
    </g>
    <g id="line2d_61"/>
    <g id="text_17">
     <!-- Entry -->
     <defs>
      <path d="M 32.171875 -5.078125 
Q 28.375 -14.84375 24.75 -17.8125 
Q 21.140625 -20.796875 15.09375 -20.796875 
L 7.90625 -20.796875 
L 7.90625 -13.28125 
L 13.1875 -13.28125 
Q 16.890625 -13.28125 18.9375 -11.515625 
Q 21 -9.765625 23.484375 -3.21875 
L 25.09375 0.875 
L 2.984375 54.6875 
L 12.5 54.6875 
L 29.59375 11.921875 
L 46.6875 54.6875 
L 56.203125 54.6875 
z
" id="DejaVuSans-79"/>
     </defs>
     <g transform="translate(106.055937 357.144063)scale(0.1 -0.1)">
      <use xlink:href="#DejaVuSans-45"/>
      <use x="63.183594" xlink:href="#DejaVuSans-6e"/>
      <use x="126.5625" xlink:href="#DejaVuSans-74"/>
      <use x="165.771484" xlink:href="#DejaVuSans-72"/>
      <use x="206.884766" xlink:href="#DejaVuSans-79"/>
     </g>
    </g>
    <g id="line2d_62">
     <path d="M 78.055937 368.322187 
L 98.055937 368.322187 
" style="fill:none;stroke:#800000;stroke-linecap:square;stroke-width:3;"/>
    </g>
    <g id="line2d_63"/>
    <g id="text_18">
     <!-- Churn -->
     <defs>
      <path d="M 8.5 21.578125 
L 8.5 54.6875 
L 17.484375 54.6875 
L 17.484375 21.921875 
Q 17.484375 14.15625 20.5 10.265625 
Q 23.53125 6.390625 29.59375 6.390625 
Q 36.859375 6.390625 41.078125 11.03125 
Q 45.3125 15.671875 45.3125 23.6875 
L 45.3125 54.6875 
L 54.296875 54.6875 
L 54.296875 0 
L 45.3125 0 
L 45.3125 8.40625 
Q 42.046875 3.421875 37.71875 1 
Q 33.40625 -1.421875 27.6875 -1.421875 
Q 18.265625 -1.421875 13.375 4.4375 
Q 8.5 10.296875 8.5 21.578125 
z
M 31.109375 56 
z
" id="DejaVuSans-75"/>
     </defs>
     <g transform="translate(106.055937 371.822187)scale(0.1 -0.1)">
      <use xlink:href="#DejaVuSans-43"/>
      <use x="69.824219" xlink:href="#DejaVuSans-68"/>
      <use x="133.203125" xlink:href="#DejaVuSans-75"/>
      <use x="196.582031" xlink:href="#DejaVuSans-72"/>
      <use x="237.679688" xlink:href="#DejaVuSans-6e"/>
     </g>
    </g>
   </g>
  </g>
 </g>
 <defs>
  <clipPath id="p75e42e650c">
   <rect height="338.361875" width="463.844063" x="69.055937" y="44.54"/>
  </clipPath>
 </defs>
</svg>
