<?xml version="1.0" encoding="utf-8" standalone="no"?>
<!DOCTYPE svg PUBLIC "-//W3C//DTD SVG 1.1//EN"
  "http://www.w3.org/Graphics/SVG/1.1/DTD/svg11.dtd">
<!-- Created with matplotlib (http://matplotlib.org/) -->
<svg height="252pt" version="1.1" viewBox="0 0 864 252" width="864pt" xmlns="http://www.w3.org/2000/svg" xmlns:xlink="http://www.w3.org/1999/xlink">
 <defs>
  <style type="text/css">
*{stroke-linecap:butt;stroke-linejoin:round;}
  </style>
 </defs>
 <g id="figure_1">
  <g id="patch_1">
   <path d="M 0 252 
L 864 252 
L 864 0 
L 0 0 
z
" style="fill:none;"/>
  </g>
  <g id="axes_1">
   <g id="patch_2">
    <path d="M 84.549844 206.298438 
L 806.5 206.298438 
L 806.5 31.94 
L 84.549844 31.94 
z
" style="fill:none;"/>
   </g>
   <g id="PolyCollection_1">
    <path clip-path="url(#p986496a659)" d="M 99.11368 31.94 
L 99.11368 206.298438 
L 101.194228 206.298438 
L 103.274776 206.298438 
L 105.355324 206.298438 
L 107.435872 206.298438 
L 109.51642 206.298438 
L 111.596968 206.298438 
L 113.677516 206.298438 
L 113.677516 31.94 
L 113.677516 31.94 
L 111.596968 31.94 
L 109.51642 31.94 
L 107.435872 31.94 
L 105.355324 31.94 
L 103.274776 31.94 
L 101.194228 31.94 
L 99.11368 31.94 
z
" style="fill:#bbbbbb;fill-opacity:0.3;stroke:#bbbbbb;stroke-opacity:0.3;"/>
    <path clip-path="url(#p986496a659)" d="M 365.423824 31.94 
L 365.423824 206.298438 
L 367.504372 206.298438 
L 369.58492 206.298438 
L 371.665468 206.298438 
L 373.746016 206.298438 
L 375.826564 206.298438 
L 377.907112 206.298438 
L 379.98766 206.298438 
L 379.98766 31.94 
L 379.98766 31.94 
L 377.907112 31.94 
L 375.826564 31.94 
L 373.746016 31.94 
L 371.665468 31.94 
L 369.58492 31.94 
L 367.504372 31.94 
L 365.423824 31.94 
z
" style="fill:#bbbbbb;fill-opacity:0.3;stroke:#bbbbbb;stroke-opacity:0.3;"/>
    <path clip-path="url(#p986496a659)" d="M 533.948212 31.94 
L 533.948212 206.298438 
L 536.02876 206.298438 
L 538.109308 206.298438 
L 540.189856 206.298438 
L 542.270404 206.298438 
L 544.350952 206.298438 
L 546.4315 206.298438 
L 548.512048 206.298438 
L 550.592596 206.298438 
L 552.673144 206.298438 
L 554.753692 206.298438 
L 556.83424 206.298438 
L 558.914788 206.298438 
L 560.995336 206.298438 
L 563.075884 206.298438 
L 565.156432 206.298438 
L 567.23698 206.298438 
L 569.317528 206.298438 
L 569.317528 31.94 
L 569.317528 31.94 
L 567.23698 31.94 
L 565.156432 31.94 
L 563.075884 31.94 
L 560.995336 31.94 
L 558.914788 31.94 
L 556.83424 31.94 
L 554.753692 31.94 
L 552.673144 31.94 
L 550.592596 31.94 
L 548.512048 31.94 
L 546.4315 31.94 
L 544.350952 31.94 
L 542.270404 31.94 
L 540.189856 31.94 
L 538.109308 31.94 
L 536.02876 31.94 
L 533.948212 31.94 
z
" style="fill:#bbbbbb;fill-opacity:0.3;stroke:#bbbbbb;stroke-opacity:0.3;"/>
   </g>
   <g id="matplotlib.axis_1">
    <g id="xtick_1">
     <g id="line2d_1">
      <defs>
       <path d="M 0 0 
L 0 3.5 
" id="m58fe32e930" style="stroke:#000000;stroke-width:0.8;"/>
      </defs>
      <g>
       <use style="stroke:#000000;stroke-width:0.8;" x="184.416148" xlink:href="#m58fe32e930" y="206.298438"/>
      </g>
     </g>
     <g id="text_1">
      <!-- 1994 -->
      <defs>
       <path d="M 12.40625 8.296875 
L 28.515625 8.296875 
L 28.515625 63.921875 
L 10.984375 60.40625 
L 10.984375 69.390625 
L 28.421875 72.90625 
L 38.28125 72.90625 
L 38.28125 8.296875 
L 54.390625 8.296875 
L 54.390625 0 
L 12.40625 0 
z
" id="DejaVuSans-31"/>
       <path d="M 10.984375 1.515625 
L 10.984375 10.5 
Q 14.703125 8.734375 18.5 7.8125 
Q 22.3125 6.890625 25.984375 6.890625 
Q 35.75 6.890625 40.890625 13.453125 
Q 46.046875 20.015625 46.78125 33.40625 
Q 43.953125 29.203125 39.59375 26.953125 
Q 35.25 24.703125 29.984375 24.703125 
Q 19.046875 24.703125 12.671875 31.3125 
Q 6.296875 37.9375 6.296875 49.421875 
Q 6.296875 60.640625 12.9375 67.421875 
Q 19.578125 74.21875 30.609375 74.21875 
Q 43.265625 74.21875 49.921875 64.515625 
Q 56.59375 54.828125 56.59375 36.375 
Q 56.59375 19.140625 48.40625 8.859375 
Q 40.234375 -1.421875 26.421875 -1.421875 
Q 22.703125 -1.421875 18.890625 -0.6875 
Q 15.09375 0.046875 10.984375 1.515625 
z
M 30.609375 32.421875 
Q 37.25 32.421875 41.125 36.953125 
Q 45.015625 41.5 45.015625 49.421875 
Q 45.015625 57.28125 41.125 61.84375 
Q 37.25 66.40625 30.609375 66.40625 
Q 23.96875 66.40625 20.09375 61.84375 
Q 16.21875 57.28125 16.21875 49.421875 
Q 16.21875 41.5 20.09375 36.953125 
Q 23.96875 32.421875 30.609375 32.421875 
z
" id="DejaVuSans-39"/>
       <path d="M 37.796875 64.3125 
L 12.890625 25.390625 
L 37.796875 25.390625 
z
M 35.203125 72.90625 
L 47.609375 72.90625 
L 47.609375 25.390625 
L 58.015625 25.390625 
L 58.015625 17.1875 
L 47.609375 17.1875 
L 47.609375 0 
L 37.796875 0 
L 37.796875 17.1875 
L 4.890625 17.1875 
L 4.890625 26.703125 
z
" id="DejaVuSans-34"/>
      </defs>
      <g transform="translate(167.873648 229.676406)scale(0.13 -0.13)">
       <use xlink:href="#DejaVuSans-31"/>
       <use x="63.623047" xlink:href="#DejaVuSans-39"/>
       <use x="127.246094" xlink:href="#DejaVuSans-39"/>
       <use x="190.869141" xlink:href="#DejaVuSans-34"/>
      </g>
     </g>
    </g>
    <g id="xtick_2">
     <g id="line2d_2">
      <g>
       <use style="stroke:#000000;stroke-width:0.8;" x="309.249028" xlink:href="#m58fe32e930" y="206.298438"/>
      </g>
     </g>
     <g id="text_2">
      <!-- 1999 -->
      <g transform="translate(292.706528 229.676406)scale(0.13 -0.13)">
       <use xlink:href="#DejaVuSans-31"/>
       <use x="63.623047" xlink:href="#DejaVuSans-39"/>
       <use x="127.246094" xlink:href="#DejaVuSans-39"/>
       <use x="190.869141" xlink:href="#DejaVuSans-39"/>
      </g>
     </g>
    </g>
    <g id="xtick_3">
     <g id="line2d_3">
      <g>
       <use style="stroke:#000000;stroke-width:0.8;" x="434.081908" xlink:href="#m58fe32e930" y="206.298438"/>
      </g>
     </g>
     <g id="text_3">
      <!-- 2004 -->
      <defs>
       <path d="M 19.1875 8.296875 
L 53.609375 8.296875 
L 53.609375 0 
L 7.328125 0 
L 7.328125 8.296875 
Q 12.9375 14.109375 22.625 23.890625 
Q 32.328125 33.6875 34.8125 36.53125 
Q 39.546875 41.84375 41.421875 45.53125 
Q 43.3125 49.21875 43.3125 52.78125 
Q 43.3125 58.59375 39.234375 62.25 
Q 35.15625 65.921875 28.609375 65.921875 
Q 23.96875 65.921875 18.8125 64.3125 
Q 13.671875 62.703125 7.8125 59.421875 
L 7.8125 69.390625 
Q 13.765625 71.78125 18.9375 73 
Q 24.125 74.21875 28.421875 74.21875 
Q 39.75 74.21875 46.484375 68.546875 
Q 53.21875 62.890625 53.21875 53.421875 
Q 53.21875 48.921875 51.53125 44.890625 
Q 49.859375 40.875 45.40625 35.40625 
Q 44.1875 33.984375 37.640625 27.21875 
Q 31.109375 20.453125 19.1875 8.296875 
z
" id="DejaVuSans-32"/>
       <path d="M 31.78125 66.40625 
Q 24.171875 66.40625 20.328125 58.90625 
Q 16.5 51.421875 16.5 36.375 
Q 16.5 21.390625 20.328125 13.890625 
Q 24.171875 6.390625 31.78125 6.390625 
Q 39.453125 6.390625 43.28125 13.890625 
Q 47.125 21.390625 47.125 36.375 
Q 47.125 51.421875 43.28125 58.90625 
Q 39.453125 66.40625 31.78125 66.40625 
z
M 31.78125 74.21875 
Q 44.046875 74.21875 50.515625 64.515625 
Q 56.984375 54.828125 56.984375 36.375 
Q 56.984375 17.96875 50.515625 8.265625 
Q 44.046875 -1.421875 31.78125 -1.421875 
Q 19.53125 -1.421875 13.0625 8.265625 
Q 6.59375 17.96875 6.59375 36.375 
Q 6.59375 54.828125 13.0625 64.515625 
Q 19.53125 74.21875 31.78125 74.21875 
z
" id="DejaVuSans-30"/>
      </defs>
      <g transform="translate(417.539408 229.676406)scale(0.13 -0.13)">
       <use xlink:href="#DejaVuSans-32"/>
       <use x="63.623047" xlink:href="#DejaVuSans-30"/>
       <use x="127.246094" xlink:href="#DejaVuSans-30"/>
       <use x="190.869141" xlink:href="#DejaVuSans-34"/>
      </g>
     </g>
    </g>
    <g id="xtick_4">
     <g id="line2d_4">
      <g>
       <use style="stroke:#000000;stroke-width:0.8;" x="558.914788" xlink:href="#m58fe32e930" y="206.298438"/>
      </g>
     </g>
     <g id="text_4">
      <!-- 2009 -->
      <g transform="translate(542.372288 229.676406)scale(0.13 -0.13)">
       <use xlink:href="#DejaVuSans-32"/>
       <use x="63.623047" xlink:href="#DejaVuSans-30"/>
       <use x="127.246094" xlink:href="#DejaVuSans-30"/>
       <use x="190.869141" xlink:href="#DejaVuSans-39"/>
      </g>
     </g>
    </g>
    <g id="xtick_5">
     <g id="line2d_5">
      <g>
       <use style="stroke:#000000;stroke-width:0.8;" x="683.747668" xlink:href="#m58fe32e930" y="206.298438"/>
      </g>
     </g>
     <g id="text_5">
      <!-- 2014 -->
      <g transform="translate(667.205168 229.676406)scale(0.13 -0.13)">
       <use xlink:href="#DejaVuSans-32"/>
       <use x="63.623047" xlink:href="#DejaVuSans-30"/>
       <use x="127.246094" xlink:href="#DejaVuSans-31"/>
       <use x="190.869141" xlink:href="#DejaVuSans-34"/>
      </g>
     </g>
    </g>
    <g id="xtick_6">
     <g id="line2d_6">
      <defs>
       <path d="M 0 0 
L 0 2 
" id="m6264228209" style="stroke:#000000;stroke-width:0.6;"/>
      </defs>
      <g>
       <use style="stroke:#000000;stroke-width:0.6;" x="84.549844" xlink:href="#m6264228209" y="206.298438"/>
      </g>
     </g>
    </g>
    <g id="xtick_7">
     <g id="line2d_7">
      <g>
       <use style="stroke:#000000;stroke-width:0.6;" x="109.51642" xlink:href="#m6264228209" y="206.298438"/>
      </g>
     </g>
    </g>
    <g id="xtick_8">
     <g id="line2d_8">
      <g>
       <use style="stroke:#000000;stroke-width:0.6;" x="134.482996" xlink:href="#m6264228209" y="206.298438"/>
      </g>
     </g>
    </g>
    <g id="xtick_9">
     <g id="line2d_9">
      <g>
       <use style="stroke:#000000;stroke-width:0.6;" x="159.449572" xlink:href="#m6264228209" y="206.298438"/>
      </g>
     </g>
    </g>
    <g id="xtick_10">
     <g id="line2d_10">
      <g>
       <use style="stroke:#000000;stroke-width:0.6;" x="184.416148" xlink:href="#m6264228209" y="206.298438"/>
      </g>
     </g>
    </g>
    <g id="xtick_11">
     <g id="line2d_11">
      <g>
       <use style="stroke:#000000;stroke-width:0.6;" x="209.382724" xlink:href="#m6264228209" y="206.298438"/>
      </g>
     </g>
    </g>
    <g id="xtick_12">
     <g id="line2d_12">
      <g>
       <use style="stroke:#000000;stroke-width:0.6;" x="234.3493" xlink:href="#m6264228209" y="206.298438"/>
      </g>
     </g>
    </g>
    <g id="xtick_13">
     <g id="line2d_13">
      <g>
       <use style="stroke:#000000;stroke-width:0.6;" x="259.315876" xlink:href="#m6264228209" y="206.298438"/>
      </g>
     </g>
    </g>
    <g id="xtick_14">
     <g id="line2d_14">
      <g>
       <use style="stroke:#000000;stroke-width:0.6;" x="284.282452" xlink:href="#m6264228209" y="206.298438"/>
      </g>
     </g>
    </g>
    <g id="xtick_15">
     <g id="line2d_15">
      <g>
       <use style="stroke:#000000;stroke-width:0.6;" x="309.249028" xlink:href="#m6264228209" y="206.298438"/>
      </g>
     </g>
    </g>
    <g id="xtick_16">
     <g id="line2d_16">
      <g>
       <use style="stroke:#000000;stroke-width:0.6;" x="334.215604" xlink:href="#m6264228209" y="206.298438"/>
      </g>
     </g>
    </g>
    <g id="xtick_17">
     <g id="line2d_17">
      <g>
       <use style="stroke:#000000;stroke-width:0.6;" x="359.18218" xlink:href="#m6264228209" y="206.298438"/>
      </g>
     </g>
    </g>
    <g id="xtick_18">
     <g id="line2d_18">
      <g>
       <use style="stroke:#000000;stroke-width:0.6;" x="384.148756" xlink:href="#m6264228209" y="206.298438"/>
      </g>
     </g>
    </g>
    <g id="xtick_19">
     <g id="line2d_19">
      <g>
       <use style="stroke:#000000;stroke-width:0.6;" x="409.115332" xlink:href="#m6264228209" y="206.298438"/>
      </g>
     </g>
    </g>
    <g id="xtick_20">
     <g id="line2d_20">
      <g>
       <use style="stroke:#000000;stroke-width:0.6;" x="434.081908" xlink:href="#m6264228209" y="206.298438"/>
      </g>
     </g>
    </g>
    <g id="xtick_21">
     <g id="line2d_21">
      <g>
       <use style="stroke:#000000;stroke-width:0.6;" x="459.048484" xlink:href="#m6264228209" y="206.298438"/>
      </g>
     </g>
    </g>
    <g id="xtick_22">
     <g id="line2d_22">
      <g>
       <use style="stroke:#000000;stroke-width:0.6;" x="484.01506" xlink:href="#m6264228209" y="206.298438"/>
      </g>
     </g>
    </g>
    <g id="xtick_23">
     <g id="line2d_23">
      <g>
       <use style="stroke:#000000;stroke-width:0.6;" x="508.981636" xlink:href="#m6264228209" y="206.298438"/>
      </g>
     </g>
    </g>
    <g id="xtick_24">
     <g id="line2d_24">
      <g>
       <use style="stroke:#000000;stroke-width:0.6;" x="533.948212" xlink:href="#m6264228209" y="206.298438"/>
      </g>
     </g>
    </g>
    <g id="xtick_25">
     <g id="line2d_25">
      <g>
       <use style="stroke:#000000;stroke-width:0.6;" x="558.914788" xlink:href="#m6264228209" y="206.298438"/>
      </g>
     </g>
    </g>
    <g id="xtick_26">
     <g id="line2d_26">
      <g>
       <use style="stroke:#000000;stroke-width:0.6;" x="583.881364" xlink:href="#m6264228209" y="206.298438"/>
      </g>
     </g>
    </g>
    <g id="xtick_27">
     <g id="line2d_27">
      <g>
       <use style="stroke:#000000;stroke-width:0.6;" x="608.84794" xlink:href="#m6264228209" y="206.298438"/>
      </g>
     </g>
    </g>
    <g id="xtick_28">
     <g id="line2d_28">
      <g>
       <use style="stroke:#000000;stroke-width:0.6;" x="633.814516" xlink:href="#m6264228209" y="206.298438"/>
      </g>
     </g>
    </g>
    <g id="xtick_29">
     <g id="line2d_29">
      <g>
       <use style="stroke:#000000;stroke-width:0.6;" x="658.781092" xlink:href="#m6264228209" y="206.298438"/>
      </g>
     </g>
    </g>
    <g id="xtick_30">
     <g id="line2d_30">
      <g>
       <use style="stroke:#000000;stroke-width:0.6;" x="683.747668" xlink:href="#m6264228209" y="206.298438"/>
      </g>
     </g>
    </g>
    <g id="xtick_31">
     <g id="line2d_31">
      <g>
       <use style="stroke:#000000;stroke-width:0.6;" x="708.714244" xlink:href="#m6264228209" y="206.298438"/>
      </g>
     </g>
    </g>
    <g id="xtick_32">
     <g id="line2d_32">
      <g>
       <use style="stroke:#000000;stroke-width:0.6;" x="733.68082" xlink:href="#m6264228209" y="206.298438"/>
      </g>
     </g>
    </g>
    <g id="xtick_33">
     <g id="line2d_33">
      <g>
       <use style="stroke:#000000;stroke-width:0.6;" x="758.647396" xlink:href="#m6264228209" y="206.298438"/>
      </g>
     </g>
    </g>
    <g id="xtick_34">
     <g id="line2d_34">
      <g>
       <use style="stroke:#000000;stroke-width:0.6;" x="783.613972" xlink:href="#m6264228209" y="206.298438"/>
      </g>
     </g>
    </g>
   </g>
   <g id="matplotlib.axis_2">
    <g id="ytick_1">
     <g id="line2d_35">
      <path clip-path="url(#p986496a659)" d="M 84.549844 197.348593 
L 806.5 197.348593 
" style="fill:none;stroke:#000000;stroke-dasharray:0.8,1.32;stroke-dashoffset:0;stroke-width:0.8;"/>
     </g>
     <g id="line2d_36">
      <defs>
       <path d="M 0 0 
L -3.5 0 
" id="m98ad4d7e21" style="stroke:#000000;stroke-width:0.8;"/>
      </defs>
      <g>
       <use style="stroke:#000000;stroke-width:0.8;" x="84.549844" xlink:href="#m98ad4d7e21" y="197.348593"/>
      </g>
     </g>
     <g id="text_6">
      <!-- −4 -->
      <defs>
       <path d="M 10.59375 35.5 
L 73.1875 35.5 
L 73.1875 27.203125 
L 10.59375 27.203125 
z
" id="DejaVuSans-2212"/>
      </defs>
      <g transform="translate(51.885 202.287577)scale(0.13 -0.13)">
       <use xlink:href="#DejaVuSans-2212"/>
       <use x="83.789062" xlink:href="#DejaVuSans-34"/>
      </g>
     </g>
    </g>
    <g id="ytick_2">
     <g id="line2d_37">
      <path clip-path="url(#p986496a659)" d="M 84.549844 153.761699 
L 806.5 153.761699 
" style="fill:none;stroke:#000000;stroke-dasharray:0.8,1.32;stroke-dashoffset:0;stroke-width:0.8;"/>
     </g>
     <g id="line2d_38">
      <g>
       <use style="stroke:#000000;stroke-width:0.8;" x="84.549844" xlink:href="#m98ad4d7e21" y="153.761699"/>
      </g>
     </g>
     <g id="text_7">
      <!-- −2 -->
      <g transform="translate(51.885 158.700683)scale(0.13 -0.13)">
       <use xlink:href="#DejaVuSans-2212"/>
       <use x="83.789062" xlink:href="#DejaVuSans-32"/>
      </g>
     </g>
    </g>
    <g id="ytick_3">
     <g id="line2d_39">
      <path clip-path="url(#p986496a659)" d="M 84.549844 110.174804 
L 806.5 110.174804 
" style="fill:none;stroke:#000000;stroke-dasharray:0.8,1.32;stroke-dashoffset:0;stroke-width:0.8;"/>
     </g>
     <g id="line2d_40">
      <g>
       <use style="stroke:#000000;stroke-width:0.8;" x="84.549844" xlink:href="#m98ad4d7e21" y="110.174804"/>
      </g>
     </g>
     <g id="text_8">
      <!-- 0 -->
      <g transform="translate(62.778594 115.113789)scale(0.13 -0.13)">
       <use xlink:href="#DejaVuSans-30"/>
      </g>
     </g>
    </g>
    <g id="ytick_4">
     <g id="line2d_41">
      <path clip-path="url(#p986496a659)" d="M 84.549844 66.58791 
L 806.5 66.58791 
" style="fill:none;stroke:#000000;stroke-dasharray:0.8,1.32;stroke-dashoffset:0;stroke-width:0.8;"/>
     </g>
     <g id="line2d_42">
      <g>
       <use style="stroke:#000000;stroke-width:0.8;" x="84.549844" xlink:href="#m98ad4d7e21" y="66.58791"/>
      </g>
     </g>
     <g id="text_9">
      <!-- 2 -->
      <g transform="translate(62.778594 71.526894)scale(0.13 -0.13)">
       <use xlink:href="#DejaVuSans-32"/>
      </g>
     </g>
    </g>
    <g id="text_10">
     <!-- Percentage point -->
     <defs>
      <path d="M 19.671875 64.796875 
L 19.671875 37.40625 
L 32.078125 37.40625 
Q 38.96875 37.40625 42.71875 40.96875 
Q 46.484375 44.53125 46.484375 51.125 
Q 46.484375 57.671875 42.71875 61.234375 
Q 38.96875 64.796875 32.078125 64.796875 
z
M 9.8125 72.90625 
L 32.078125 72.90625 
Q 44.34375 72.90625 50.609375 67.359375 
Q 56.890625 61.8125 56.890625 51.125 
Q 56.890625 40.328125 50.609375 34.8125 
Q 44.34375 29.296875 32.078125 29.296875 
L 19.671875 29.296875 
L 19.671875 0 
L 9.8125 0 
z
" id="DejaVuSans-50"/>
      <path d="M 56.203125 29.59375 
L 56.203125 25.203125 
L 14.890625 25.203125 
Q 15.484375 15.921875 20.484375 11.0625 
Q 25.484375 6.203125 34.421875 6.203125 
Q 39.59375 6.203125 44.453125 7.46875 
Q 49.3125 8.734375 54.109375 11.28125 
L 54.109375 2.78125 
Q 49.265625 0.734375 44.1875 -0.34375 
Q 39.109375 -1.421875 33.890625 -1.421875 
Q 20.796875 -1.421875 13.15625 6.1875 
Q 5.515625 13.8125 5.515625 26.8125 
Q 5.515625 40.234375 12.765625 48.109375 
Q 20.015625 56 32.328125 56 
Q 43.359375 56 49.78125 48.890625 
Q 56.203125 41.796875 56.203125 29.59375 
z
M 47.21875 32.234375 
Q 47.125 39.59375 43.09375 43.984375 
Q 39.0625 48.390625 32.421875 48.390625 
Q 24.90625 48.390625 20.390625 44.140625 
Q 15.875 39.890625 15.1875 32.171875 
z
" id="DejaVuSans-65"/>
      <path d="M 41.109375 46.296875 
Q 39.59375 47.171875 37.8125 47.578125 
Q 36.03125 48 33.890625 48 
Q 26.265625 48 22.1875 43.046875 
Q 18.109375 38.09375 18.109375 28.8125 
L 18.109375 0 
L 9.078125 0 
L 9.078125 54.6875 
L 18.109375 54.6875 
L 18.109375 46.1875 
Q 20.953125 51.171875 25.484375 53.578125 
Q 30.03125 56 36.53125 56 
Q 37.453125 56 38.578125 55.875 
Q 39.703125 55.765625 41.0625 55.515625 
z
" id="DejaVuSans-72"/>
      <path d="M 48.78125 52.59375 
L 48.78125 44.1875 
Q 44.96875 46.296875 41.140625 47.34375 
Q 37.3125 48.390625 33.40625 48.390625 
Q 24.65625 48.390625 19.8125 42.84375 
Q 14.984375 37.3125 14.984375 27.296875 
Q 14.984375 17.28125 19.8125 11.734375 
Q 24.65625 6.203125 33.40625 6.203125 
Q 37.3125 6.203125 41.140625 7.25 
Q 44.96875 8.296875 48.78125 10.40625 
L 48.78125 2.09375 
Q 45.015625 0.34375 40.984375 -0.53125 
Q 36.96875 -1.421875 32.421875 -1.421875 
Q 20.0625 -1.421875 12.78125 6.34375 
Q 5.515625 14.109375 5.515625 27.296875 
Q 5.515625 40.671875 12.859375 48.328125 
Q 20.21875 56 33.015625 56 
Q 37.15625 56 41.109375 55.140625 
Q 45.0625 54.296875 48.78125 52.59375 
z
" id="DejaVuSans-63"/>
      <path d="M 54.890625 33.015625 
L 54.890625 0 
L 45.90625 0 
L 45.90625 32.71875 
Q 45.90625 40.484375 42.875 44.328125 
Q 39.84375 48.1875 33.796875 48.1875 
Q 26.515625 48.1875 22.3125 43.546875 
Q 18.109375 38.921875 18.109375 30.90625 
L 18.109375 0 
L 9.078125 0 
L 9.078125 54.6875 
L 18.109375 54.6875 
L 18.109375 46.1875 
Q 21.34375 51.125 25.703125 53.5625 
Q 30.078125 56 35.796875 56 
Q 45.21875 56 50.046875 50.171875 
Q 54.890625 44.34375 54.890625 33.015625 
z
" id="DejaVuSans-6e"/>
      <path d="M 18.3125 70.21875 
L 18.3125 54.6875 
L 36.8125 54.6875 
L 36.8125 47.703125 
L 18.3125 47.703125 
L 18.3125 18.015625 
Q 18.3125 11.328125 20.140625 9.421875 
Q 21.96875 7.515625 27.59375 7.515625 
L 36.8125 7.515625 
L 36.8125 0 
L 27.59375 0 
Q 17.1875 0 13.234375 3.875 
Q 9.28125 7.765625 9.28125 18.015625 
L 9.28125 47.703125 
L 2.6875 47.703125 
L 2.6875 54.6875 
L 9.28125 54.6875 
L 9.28125 70.21875 
z
" id="DejaVuSans-74"/>
      <path d="M 34.28125 27.484375 
Q 23.390625 27.484375 19.1875 25 
Q 14.984375 22.515625 14.984375 16.5 
Q 14.984375 11.71875 18.140625 8.90625 
Q 21.296875 6.109375 26.703125 6.109375 
Q 34.1875 6.109375 38.703125 11.40625 
Q 43.21875 16.703125 43.21875 25.484375 
L 43.21875 27.484375 
z
M 52.203125 31.203125 
L 52.203125 0 
L 43.21875 0 
L 43.21875 8.296875 
Q 40.140625 3.328125 35.546875 0.953125 
Q 30.953125 -1.421875 24.3125 -1.421875 
Q 15.921875 -1.421875 10.953125 3.296875 
Q 6 8.015625 6 15.921875 
Q 6 25.140625 12.171875 29.828125 
Q 18.359375 34.515625 30.609375 34.515625 
L 43.21875 34.515625 
L 43.21875 35.40625 
Q 43.21875 41.609375 39.140625 45 
Q 35.0625 48.390625 27.6875 48.390625 
Q 23 48.390625 18.546875 47.265625 
Q 14.109375 46.140625 10.015625 43.890625 
L 10.015625 52.203125 
Q 14.9375 54.109375 19.578125 55.046875 
Q 24.21875 56 28.609375 56 
Q 40.484375 56 46.34375 49.84375 
Q 52.203125 43.703125 52.203125 31.203125 
z
" id="DejaVuSans-61"/>
      <path d="M 45.40625 27.984375 
Q 45.40625 37.75 41.375 43.109375 
Q 37.359375 48.484375 30.078125 48.484375 
Q 22.859375 48.484375 18.828125 43.109375 
Q 14.796875 37.75 14.796875 27.984375 
Q 14.796875 18.265625 18.828125 12.890625 
Q 22.859375 7.515625 30.078125 7.515625 
Q 37.359375 7.515625 41.375 12.890625 
Q 45.40625 18.265625 45.40625 27.984375 
z
M 54.390625 6.78125 
Q 54.390625 -7.171875 48.1875 -13.984375 
Q 42 -20.796875 29.203125 -20.796875 
Q 24.46875 -20.796875 20.265625 -20.09375 
Q 16.0625 -19.390625 12.109375 -17.921875 
L 12.109375 -9.1875 
Q 16.0625 -11.328125 19.921875 -12.34375 
Q 23.78125 -13.375 27.78125 -13.375 
Q 36.625 -13.375 41.015625 -8.765625 
Q 45.40625 -4.15625 45.40625 5.171875 
L 45.40625 9.625 
Q 42.625 4.78125 38.28125 2.390625 
Q 33.9375 0 27.875 0 
Q 17.828125 0 11.671875 7.65625 
Q 5.515625 15.328125 5.515625 27.984375 
Q 5.515625 40.671875 11.671875 48.328125 
Q 17.828125 56 27.875 56 
Q 33.9375 56 38.28125 53.609375 
Q 42.625 51.21875 45.40625 46.390625 
L 45.40625 54.6875 
L 54.390625 54.6875 
z
" id="DejaVuSans-67"/>
      <path id="DejaVuSans-20"/>
      <path d="M 18.109375 8.203125 
L 18.109375 -20.796875 
L 9.078125 -20.796875 
L 9.078125 54.6875 
L 18.109375 54.6875 
L 18.109375 46.390625 
Q 20.953125 51.265625 25.265625 53.625 
Q 29.59375 56 35.59375 56 
Q 45.5625 56 51.78125 48.09375 
Q 58.015625 40.1875 58.015625 27.296875 
Q 58.015625 14.40625 51.78125 6.484375 
Q 45.5625 -1.421875 35.59375 -1.421875 
Q 29.59375 -1.421875 25.265625 0.953125 
Q 20.953125 3.328125 18.109375 8.203125 
z
M 48.6875 27.296875 
Q 48.6875 37.203125 44.609375 42.84375 
Q 40.53125 48.484375 33.40625 48.484375 
Q 26.265625 48.484375 22.1875 42.84375 
Q 18.109375 37.203125 18.109375 27.296875 
Q 18.109375 17.390625 22.1875 11.75 
Q 26.265625 6.109375 33.40625 6.109375 
Q 40.53125 6.109375 44.609375 11.75 
Q 48.6875 17.390625 48.6875 27.296875 
z
" id="DejaVuSans-70"/>
      <path d="M 30.609375 48.390625 
Q 23.390625 48.390625 19.1875 42.75 
Q 14.984375 37.109375 14.984375 27.296875 
Q 14.984375 17.484375 19.15625 11.84375 
Q 23.34375 6.203125 30.609375 6.203125 
Q 37.796875 6.203125 41.984375 11.859375 
Q 46.1875 17.53125 46.1875 27.296875 
Q 46.1875 37.015625 41.984375 42.703125 
Q 37.796875 48.390625 30.609375 48.390625 
z
M 30.609375 56 
Q 42.328125 56 49.015625 48.375 
Q 55.71875 40.765625 55.71875 27.296875 
Q 55.71875 13.875 49.015625 6.21875 
Q 42.328125 -1.421875 30.609375 -1.421875 
Q 18.84375 -1.421875 12.171875 6.21875 
Q 5.515625 13.875 5.515625 27.296875 
Q 5.515625 40.765625 12.171875 48.375 
Q 18.84375 56 30.609375 56 
z
" id="DejaVuSans-6f"/>
      <path d="M 9.421875 54.6875 
L 18.40625 54.6875 
L 18.40625 0 
L 9.421875 0 
z
M 9.421875 75.984375 
L 18.40625 75.984375 
L 18.40625 64.59375 
L 9.421875 64.59375 
z
" id="DejaVuSans-69"/>
     </defs>
     <g transform="translate(44.5575 187.524219)rotate(-90)scale(0.16 -0.16)">
      <use xlink:href="#DejaVuSans-50"/>
      <use x="60.255859" xlink:href="#DejaVuSans-65"/>
      <use x="121.779297" xlink:href="#DejaVuSans-72"/>
      <use x="162.861328" xlink:href="#DejaVuSans-63"/>
      <use x="217.841797" xlink:href="#DejaVuSans-65"/>
      <use x="279.365234" xlink:href="#DejaVuSans-6e"/>
      <use x="342.744141" xlink:href="#DejaVuSans-74"/>
      <use x="381.953125" xlink:href="#DejaVuSans-61"/>
      <use x="443.232422" xlink:href="#DejaVuSans-67"/>
      <use x="506.708984" xlink:href="#DejaVuSans-65"/>
      <use x="568.232422" xlink:href="#DejaVuSans-20"/>
      <use x="600.019531" xlink:href="#DejaVuSans-70"/>
      <use x="663.496094" xlink:href="#DejaVuSans-6f"/>
      <use x="724.677734" xlink:href="#DejaVuSans-69"/>
      <use x="752.460938" xlink:href="#DejaVuSans-6e"/>
      <use x="815.839844" xlink:href="#DejaVuSans-74"/>
     </g>
    </g>
   </g>
   <g id="line2d_43">
    <path clip-path="url(#p986496a659)" d="M 86.630392 103.913764 
L 88.71094 103.740689 
L 90.791488 106.634939 
L 92.872036 104.856684 
L 94.952584 109.659328 
L 97.033132 108.822398 
L 99.11368 107.030811 
L 101.194228 109.580857 
L 103.274776 109.786391 
L 107.435872 110.438904 
L 109.51642 113.692759 
L 111.596968 113.7676 
L 113.677516 112.106085 
L 115.758064 109.591529 
L 117.838612 114.853771 
L 119.91916 114.21725 
L 121.999708 117.340739 
L 124.080256 118.667113 
L 126.160804 114.36968 
L 128.241352 115.929936 
L 130.3219 116.462241 
L 132.402448 117.941808 
L 134.482996 112.325925 
L 136.563544 113.796239 
L 138.644092 110.3236 
L 140.72464 108.766705 
L 142.805188 106.740538 
L 144.885736 104.099109 
L 146.966284 104.152015 
L 149.046832 105.032843 
L 151.12738 107.881749 
L 153.207928 114.829005 
L 155.288476 111.49132 
L 157.369024 111.43653 
L 159.449572 114.493638 
L 161.53012 114.927579 
L 163.610668 114.396342 
L 165.691216 115.666569 
L 167.771764 109.168027 
L 169.852312 108.786964 
L 171.93286 110.154972 
L 174.013408 109.017383 
L 176.093956 114.388666 
L 178.174504 112.353391 
L 180.255052 112.152831 
L 182.3356 110.840031 
L 184.416148 104.728865 
L 186.496696 104.932316 
L 188.577244 108.830483 
L 190.657792 107.484091 
L 192.73834 106.816288 
L 194.818888 110.581115 
L 196.899436 110.793533 
L 198.979984 105.25365 
L 201.060532 105.149528 
L 203.14108 102.922626 
L 205.221628 102.60402 
L 207.302176 103.104935 
L 209.382724 102.057912 
L 211.463272 102.180547 
L 213.54382 103.15408 
L 215.624368 98.887444 
L 217.704916 108.024656 
L 219.785464 108.167937 
L 221.866012 105.02658 
L 223.94656 106.461972 
L 226.027108 104.937529 
L 228.107656 105.152094 
L 232.268752 109.691306 
L 234.3493 109.458647 
L 236.429848 106.793242 
L 238.510396 105.388778 
L 240.590944 104.200648 
L 242.671492 102.677304 
L 244.75204 103.664469 
L 246.832588 98.607008 
L 248.913136 102.598688 
L 250.993684 99.150004 
L 253.074232 96.289661 
L 255.15478 96.737122 
L 257.235328 96.844481 
L 259.315876 97.83441 
L 261.396424 99.180125 
L 263.476972 94.796173 
L 265.55752 94.613747 
L 267.638068 94.646357 
L 269.718616 94.869052 
L 271.799164 93.210503 
L 273.879712 93.124844 
L 275.96026 93.996162 
L 278.040808 95.859964 
L 280.121356 93.601693 
L 282.201904 92.656021 
L 284.282452 94.303665 
L 286.363 95.274822 
L 288.443548 95.007793 
L 290.524096 97.237376 
L 292.604644 96.073179 
L 294.685192 96.512816 
L 296.76574 96.420697 
L 298.846288 98.108012 
L 300.926836 92.072044 
L 303.007384 93.711431 
L 305.087932 93.949981 
L 307.16848 92.443909 
L 309.249028 91.735174 
L 311.329576 93.212417 
L 313.410124 96.859766 
L 315.490672 95.860884 
L 317.57122 95.651512 
L 319.651768 94.771411 
L 321.732316 94.997104 
L 323.812864 96.570814 
L 325.893412 96.136201 
L 327.97396 96.113408 
L 330.054508 94.741949 
L 332.135056 94.321621 
L 334.215604 90.604936 
L 336.296152 89.815731 
L 338.3767 91.400221 
L 340.457248 89.842483 
L 342.537796 95.111588 
L 344.618344 94.584552 
L 346.698892 99.229265 
L 348.77944 98.446822 
L 350.859988 100.106449 
L 352.940536 100.689872 
L 355.021084 98.157727 
L 357.101632 96.56931 
L 359.18218 91.979532 
L 361.262728 94.509753 
L 363.343276 93.572903 
L 365.423824 98.676932 
L 367.504372 102.633716 
L 369.58492 103.706732 
L 371.665468 102.259055 
L 373.746016 107.62657 
L 375.826564 102.149089 
L 377.907112 102.770565 
L 379.98766 102.6477 
L 382.068208 103.334296 
L 384.148756 108.864718 
L 386.229304 102.169026 
L 388.309852 104.978241 
L 390.3904 103.74575 
L 392.470948 102.89335 
L 394.551496 105.601239 
L 396.632044 107.132043 
L 398.712592 106.635489 
L 400.79314 102.809248 
L 404.954236 110.85623 
L 407.034784 111.87667 
L 409.115332 110.842415 
L 411.19588 110.661011 
L 413.276428 112.75884 
L 415.356976 109.749462 
L 417.437524 110.987648 
L 419.518072 107.118132 
L 421.59862 114.302349 
L 423.679168 116.356955 
L 425.759716 117.288791 
L 427.840264 117.155732 
L 429.920812 115.926084 
L 432.00136 120.067011 
L 434.081908 116.704017 
L 436.162456 119.277301 
L 438.243004 118.223024 
L 440.323552 120.479851 
L 442.4041 119.741307 
L 444.484648 117.343033 
L 446.565196 116.542919 
L 448.645744 119.43576 
L 450.726292 122.58075 
L 454.887388 118.388431 
L 456.967936 120.793658 
L 459.048484 122.343002 
L 461.129032 120.396181 
L 463.20958 121.38852 
L 465.290128 117.509518 
L 467.370676 115.744921 
L 469.451224 117.501253 
L 471.531772 117.172323 
L 473.61232 115.536836 
L 475.692868 115.58423 
L 477.773416 116.822503 
L 479.853964 117.755462 
L 481.934512 119.48637 
L 484.01506 118.542439 
L 486.095608 115.783147 
L 488.176156 115.472977 
L 490.256704 116.245068 
L 492.337252 115.895982 
L 494.4178 114.711401 
L 496.498348 116.011079 
L 498.578896 114.390873 
L 500.659444 116.488648 
L 506.901088 110.668524 
L 508.981636 110.174804 
L 511.062184 112.845078 
L 513.142732 113.450895 
L 515.22328 120.626394 
L 517.303828 119.829082 
L 519.384376 117.772427 
L 521.464924 119.18003 
L 523.545472 123.603087 
L 525.62602 118.916561 
L 527.706568 122.649666 
L 529.787116 117.935312 
L 531.867664 118.492849 
L 533.948212 113.800751 
L 536.02876 118.829172 
L 538.109308 117.592244 
L 540.189856 120.144439 
L 542.270404 116.432856 
L 544.350952 117.711792 
L 548.512048 117.606642 
L 550.592596 119.82096 
L 552.673144 118.522377 
L 554.753692 122.048365 
L 556.83424 123.160796 
L 558.914788 125.483956 
L 560.995336 123.495381 
L 563.075884 128.311053 
L 565.156432 125.951682 
L 567.23698 124.848994 
L 569.317528 126.363469 
L 573.478624 132.766421 
L 575.559172 138.606206 
L 577.63972 140.369675 
L 579.720268 140.659387 
L 581.800816 148.796803 
L 583.881364 144.823289 
L 585.961912 143.875508 
L 588.04246 142.454913 
L 590.123008 137.325 
L 592.203556 143.22308 
L 594.284104 148.714502 
L 596.364652 149.202393 
L 598.4452 146.828751 
L 600.525748 149.157562 
L 602.606296 153.491808 
L 604.686844 150.106201 
L 606.767392 155.473548 
L 608.84794 157.911337 
L 610.928488 159.219607 
L 615.089584 157.945892 
L 617.170132 159.505153 
L 619.25068 161.748432 
L 621.331228 163.332945 
L 623.411776 160.203492 
L 625.492324 157.999394 
L 627.572872 160.691148 
L 629.65342 160.173901 
L 631.733968 162.214863 
L 633.814516 168.444726 
L 635.895064 166.794435 
L 637.975612 167.056579 
L 640.05616 169.918423 
L 642.136708 168.078303 
L 644.217256 167.218826 
L 646.297804 169.55303 
L 648.378352 172.425104 
L 652.539448 167.719858 
L 654.619996 170.737856 
L 656.700544 169.149991 
L 658.781092 169.723205 
L 660.86164 174.672869 
L 662.942188 178.346163 
L 665.022736 175.891782 
L 667.103284 175.697768 
L 669.183832 174.867411 
L 671.26438 177.34268 
L 673.344928 178.439575 
L 675.425476 178.875344 
L 677.506024 189.039427 
L 679.586572 184.835688 
L 681.66712 186.56205 
L 685.828216 185.413936 
L 687.908764 181.243953 
L 689.989312 188.456531 
L 694.150408 187.553018 
L 696.230956 186.340228 
L 698.311504 186.485774 
L 700.392052 188.612807 
L 702.4726 186.575095 
L 704.553148 186.980015 
L 706.633696 189.329145 
L 708.714244 186.488239 
L 710.794792 190.326014 
L 712.87534 191.144266 
L 714.955888 189.564498 
L 717.036436 187.135559 
L 719.116984 191.562109 
L 721.197532 193.03104 
L 723.27808 193.382179 
L 725.358628 198.373054 
L 727.439176 195.748319 
L 729.519724 194.294509 
L 731.600272 190.057484 
L 733.68082 189.581014 
L 737.841916 184.121738 
L 739.922464 188.081543 
L 742.003012 192.699018 
L 744.08356 189.912402 
L 746.164108 189.129632 
L 748.244656 187.755089 
L 750.325204 187.145464 
L 752.405752 188.675843 
L 754.4863 191.185738 
L 756.566848 190.632725 
L 758.647396 187.234172 
L 760.727944 185.720928 
L 762.808492 184.593215 
L 764.88904 185.990405 
L 766.969588 190.823513 
L 769.050136 187.696033 
L 771.130684 186.576332 
L 773.211232 186.564003 
L 775.29178 183.532916 
L 777.372328 190.693204 
L 779.452876 190.287662 
L 781.533424 190.597007 
L 783.613972 189.774878 
L 785.69452 183.749379 
L 787.775068 185.970142 
L 789.855616 188.896684 
L 791.936164 189.76238 
L 794.016712 185.676438 
L 796.09726 185.858109 
L 798.177808 191.003767 
L 800.258356 190.922941 
L 802.338904 186.11287 
L 804.419452 186.015326 
L 804.419452 186.015326 
" style="fill:none;stroke:#000000;stroke-linecap:square;stroke-width:3;"/>
   </g>
   <g id="line2d_44">
    <path clip-path="url(#p986496a659)" d="M 88.71094 108.131124 
L 90.791488 107.646505 
L 92.872036 101.811185 
L 94.952584 100.690881 
L 97.033132 98.890879 
L 99.11368 93.896203 
L 101.194228 92.153429 
L 103.274776 89.391363 
L 105.355324 88.147965 
L 107.435872 85.288088 
L 109.51642 84.161524 
L 111.596968 79.975591 
L 113.677516 76.062688 
L 115.758064 70.458475 
L 117.838612 71.738754 
L 119.91916 70.012162 
L 121.999708 69.035713 
L 124.080256 67.266869 
L 126.160804 63.515113 
L 128.241352 62.58044 
L 130.3219 59.454313 
L 132.402448 57.444342 
L 136.563544 49.879339 
L 138.644092 46.701656 
L 140.72464 44.324908 
L 142.805188 43.923119 
L 144.885736 41.004039 
L 146.966284 40.719933 
L 149.046832 39.865384 
L 151.12738 40.954416 
L 153.207928 45.122129 
L 155.288476 42.911576 
L 157.369024 43.531658 
L 159.449572 44.51407 
L 161.53012 47.330551 
L 163.610668 46.312539 
L 165.691216 46.936825 
L 167.771764 43.736552 
L 169.852312 41.17072 
L 171.93286 41.000674 
L 174.013408 41.378242 
L 176.093956 45.90549 
L 178.174504 44.461907 
L 180.255052 44.453567 
L 182.3356 45.474841 
L 184.416148 45.075137 
L 186.496696 50.631795 
L 188.577244 57.357919 
L 190.657792 58.135094 
L 192.73834 59.251481 
L 194.818888 63.510408 
L 196.899436 65.129803 
L 198.979984 64.075108 
L 203.14108 63.883366 
L 205.221628 65.854516 
L 207.302176 69.313012 
L 209.382724 70.195753 
L 211.463272 68.212435 
L 213.54382 67.880498 
L 215.624368 68.330341 
L 217.704916 72.440344 
L 219.785464 73.861573 
L 221.866012 72.960199 
L 226.027108 74.692078 
L 228.107656 76.159222 
L 230.188204 77.479289 
L 232.268752 76.288372 
L 234.3493 74.351718 
L 236.429848 74.08335 
L 238.510396 73.255994 
L 240.590944 71.174006 
L 242.671492 70.565609 
L 244.75204 70.974551 
L 246.832588 70.259762 
L 248.913136 71.168356 
L 250.993684 69.17823 
L 253.074232 66.4121 
L 255.15478 65.88563 
L 257.235328 63.04759 
L 259.315876 64.020896 
L 261.396424 64.742848 
L 263.476972 64.486136 
L 265.55752 65.015296 
L 267.638068 65.223735 
L 269.718616 65.316354 
L 271.799164 63.224236 
L 273.879712 64.335697 
L 278.040808 64.325062 
L 280.121356 63.918459 
L 282.201904 66.407308 
L 288.443548 70.267759 
L 290.524096 71.317342 
L 292.604644 71.332484 
L 294.685192 72.175586 
L 296.76574 73.686635 
L 298.846288 78.470322 
L 300.926836 79.65346 
L 303.007384 82.625989 
L 305.087932 85.172371 
L 309.249028 88.329373 
L 313.410124 91.335422 
L 315.490672 93.363591 
L 317.57122 94.745789 
L 319.651768 94.557082 
L 321.732316 96.23452 
L 323.812864 97.636852 
L 325.893412 97.862035 
L 327.97396 98.254886 
L 330.054508 98.093428 
L 332.135056 98.453286 
L 334.215604 96.078587 
L 336.296152 96.532637 
L 338.3767 97.415612 
L 340.457248 95.328174 
L 342.537796 98.132716 
L 344.618344 98.277069 
L 346.698892 98.588707 
L 348.77944 98.278226 
L 350.859988 100.334788 
L 352.940536 100.78946 
L 355.021084 100.954754 
L 357.101632 100.00829 
L 359.18218 100.037469 
L 361.262728 104.020607 
L 363.343276 104.310372 
L 365.423824 108.341799 
L 367.504372 110.655374 
L 369.58492 110.736229 
L 371.665468 111.171051 
L 373.746016 116.544849 
L 375.826564 114.584035 
L 377.907112 113.088097 
L 379.98766 110.007485 
L 382.068208 108.660833 
L 384.148756 108.683578 
L 386.229304 101.937161 
L 388.309852 101.931455 
L 390.3904 100.106026 
L 392.470948 99.778456 
L 394.551496 100.917008 
L 396.632044 101.278369 
L 398.712592 98.551014 
L 400.79314 93.358716 
L 402.873688 95.110672 
L 404.954236 97.584805 
L 407.034784 95.383125 
L 409.115332 95.615973 
L 411.19588 93.677989 
L 413.276428 94.694223 
L 415.356976 91.383083 
L 417.437524 90.021814 
L 419.518072 88.820498 
L 421.59862 92.002075 
L 427.840264 93.522217 
L 429.920812 92.703265 
L 432.00136 94.429027 
L 434.081908 91.965246 
L 436.162456 92.447149 
L 438.243004 93.915934 
L 440.323552 93.842845 
L 442.4041 93.415944 
L 444.484648 90.975572 
L 446.565196 91.828441 
L 448.645744 94.311951 
L 450.726292 96.38901 
L 452.80684 97.02911 
L 454.887388 95.860963 
L 456.967936 98.272749 
L 459.048484 98.50662 
L 461.129032 97.203001 
L 463.20958 97.431856 
L 465.290128 96.532416 
L 469.451224 96.959525 
L 471.531772 98.396772 
L 473.61232 97.733735 
L 475.692868 98.483297 
L 477.773416 99.771147 
L 479.853964 100.434696 
L 481.934512 104.033562 
L 484.01506 104.208097 
L 486.095608 102.009729 
L 488.176156 102.501611 
L 490.256704 105.063916 
L 492.337252 106.344381 
L 494.4178 107.87494 
L 496.498348 109.62038 
L 498.578896 109.804095 
L 500.659444 110.117903 
L 502.739992 108.972199 
L 504.82054 108.371908 
L 506.901088 108.630897 
L 508.981636 110.174804 
L 511.062184 112.626919 
L 513.142732 112.608204 
L 515.22328 114.602499 
L 517.303828 112.269401 
L 519.384376 110.870197 
L 521.464924 109.057108 
L 523.545472 111.03549 
L 525.62602 106.274732 
L 527.706568 107.543986 
L 529.787116 104.256062 
L 531.867664 102.764728 
L 533.948212 97.06803 
L 536.02876 98.668079 
L 538.109308 97.438138 
L 540.189856 97.120982 
L 542.270404 93.867792 
L 544.350952 92.981341 
L 546.4315 91.26964 
L 548.512048 88.683286 
L 550.592596 88.813059 
L 552.673144 85.586691 
L 554.753692 83.767627 
L 556.83424 82.334235 
L 558.914788 81.915288 
L 560.995336 76.761532 
L 563.075884 75.097064 
L 567.23698 66.568908 
L 569.317528 62.785183 
L 571.398076 60.94244 
L 573.478624 61.825667 
L 575.559172 60.904569 
L 577.63972 59.256508 
L 579.720268 55.515034 
L 581.800816 58.047312 
L 583.881364 55.704805 
L 585.961912 54.345859 
L 588.04246 54.745683 
L 590.123008 51.505606 
L 592.203556 54.420782 
L 594.284104 55.789061 
L 596.364652 55.51043 
L 598.4452 54.327945 
L 600.525748 54.526733 
L 602.606296 57.565657 
L 604.686844 56.185058 
L 606.767392 58.455489 
L 608.84794 60.250028 
L 610.928488 61.085298 
L 613.009036 59.103237 
L 615.089584 58.903261 
L 617.170132 59.915255 
L 619.25068 61.495314 
L 621.331228 64.422505 
L 623.411776 61.660325 
L 625.492324 61.944857 
L 629.65342 60.937108 
L 631.733968 63.022173 
L 633.814516 67.402375 
L 635.895064 65.842655 
L 637.975612 65.468235 
L 640.05616 67.921438 
L 644.217256 67.421014 
L 646.297804 69.292573 
L 648.378352 73.885164 
L 650.4589 72.509633 
L 652.539448 72.688318 
L 654.619996 76.541021 
L 656.700544 75.925714 
L 658.781092 73.097158 
L 660.86164 76.853924 
L 662.942188 79.755802 
L 665.022736 78.857144 
L 667.103284 78.372669 
L 669.183832 79.357075 
L 671.26438 80.885675 
L 673.344928 83.030746 
L 675.425476 83.306174 
L 677.506024 90.265503 
L 679.586572 84.997297 
L 681.66712 85.896208 
L 683.747668 88.104926 
L 685.828216 87.43201 
L 687.908764 87.304747 
L 689.989312 90.122696 
L 692.06986 91.584338 
L 698.311504 91.895909 
L 700.392052 93.652453 
L 702.4726 95.191765 
L 704.553148 97.10785 
L 706.633696 100.289804 
L 708.714244 102.563526 
L 710.794792 108.334211 
L 712.87534 111.204483 
L 714.955888 112.270339 
L 717.036436 113.740907 
L 719.116984 118.994653 
L 721.197532 122.384876 
L 723.27808 125.53029 
L 725.358628 127.784874 
L 727.439176 127.046415 
L 729.519724 126.169601 
L 731.600272 123.421434 
L 733.68082 124.769394 
L 735.761368 124.759336 
L 737.841916 122.211287 
L 739.922464 123.595815 
L 742.003012 125.282789 
L 744.08356 122.463315 
L 746.164108 120.836229 
L 748.244656 119.509903 
L 750.325204 119.041262 
L 752.405752 118.949432 
L 754.4863 122.734942 
L 756.566848 125.020413 
L 758.647396 121.279186 
L 760.727944 120.016202 
L 762.808492 119.970462 
L 764.88904 121.668354 
L 766.969588 124.617175 
L 769.050136 124.918048 
L 771.130684 126.096024 
L 773.211232 126.941667 
L 775.29178 127.283207 
L 777.372328 133.519372 
L 781.533424 134.206998 
L 783.613972 133.876246 
L 785.69452 129.838866 
L 787.775068 130.828482 
L 789.855616 132.264471 
L 791.936164 130.992932 
L 794.016712 129.558392 
L 796.09726 130.539566 
L 798.177808 136.146078 
L 800.258356 136.330016 
L 802.338904 133.770301 
L 804.419452 134.094785 
L 804.419452 134.094785 
" style="fill:none;stroke:#d3d3d3;stroke-dasharray:3,4.95;stroke-dashoffset:0;stroke-width:3;"/>
   </g>
   <g id="line2d_45">
    <path clip-path="url(#p986496a659)" d="M 88.71094 113.899689 
L 90.791488 115.634705 
L 92.872036 117.715683 
L 94.952584 122.118846 
L 97.033132 121.611117 
L 99.11368 123.007838 
L 101.194228 125.595888 
L 103.274776 126.757052 
L 105.355324 126.688415 
L 107.435872 127.923152 
L 111.596968 133.006378 
L 113.677516 133.184845 
L 115.758064 134.186137 
L 117.838612 136.739815 
L 119.91916 135.919996 
L 121.999708 138.640602 
L 124.080256 140.315307 
L 126.160804 138.360632 
L 128.241352 139.897593 
L 132.402448 144.978921 
L 134.482996 141.734369 
L 136.563544 145.93624 
L 138.644092 144.275198 
L 140.72464 144.167397 
L 142.805188 141.638844 
L 146.966284 140.271008 
L 151.12738 142.150321 
L 153.207928 144.086512 
L 155.288476 142.467902 
L 157.369024 141.464785 
L 159.449572 143.250278 
L 161.53012 140.783569 
L 163.610668 141.149183 
L 165.691216 141.808647 
L 167.771764 138.651246 
L 169.852312 141.093953 
L 171.93286 142.825224 
L 174.013408 141.625561 
L 176.093956 142.899888 
L 178.174504 142.598422 
L 180.255052 142.785105 
L 182.3356 141.069811 
L 184.416148 136.076263 
L 186.496696 131.489054 
L 188.577244 129.370101 
L 190.657792 127.974341 
L 192.73834 126.878897 
L 194.818888 127.489833 
L 196.899436 126.880295 
L 198.979984 123.212154 
L 201.060532 124.192998 
L 205.221628 122.176851 
L 207.302176 120.4818 
L 209.382724 119.941702 
L 211.463272 122.818545 
L 213.54382 125.230377 
L 215.624368 121.529562 
L 217.704916 127.272052 
L 219.785464 126.513826 
L 221.866012 124.675474 
L 223.94656 125.681785 
L 226.027108 123.692849 
L 228.107656 122.633218 
L 230.188204 123.992239 
L 232.268752 127.656753 
L 234.3493 129.660416 
L 236.429848 127.388737 
L 238.510396 127.265631 
L 240.590944 128.63207 
L 242.671492 128.063819 
L 244.75204 128.838419 
L 246.832588 124.857477 
L 248.913136 128.335392 
L 250.993684 127.722395 
L 253.074232 128.288601 
L 255.15478 130.147194 
L 257.235328 133.369657 
L 259.315876 133.830714 
L 261.396424 134.894191 
L 263.476972 131.224347 
L 265.55752 131.185621 
L 267.638068 131.526446 
L 271.799164 133.353776 
L 273.879712 132.943755 
L 275.96026 134.417341 
L 278.040808 136.671059 
L 280.121356 135.313585 
L 282.201904 132.636332 
L 284.282452 133.450216 
L 286.363 133.613405 
L 288.443548 132.495993 
L 290.524096 133.900612 
L 292.604644 133.667128 
L 294.685192 133.956453 
L 296.76574 133.124961 
L 298.846288 130.498359 
L 300.926836 123.829049 
L 303.007384 122.912215 
L 305.087932 120.986632 
L 307.16848 118.391465 
L 309.249028 116.468332 
L 311.329576 116.976665 
L 313.410124 119.479142 
L 315.490672 117.334244 
L 317.57122 115.910298 
L 319.651768 115.467881 
L 321.732316 114.361685 
L 323.812864 114.912855 
L 325.893412 114.860079 
L 327.97396 115.19699 
L 330.054508 114.456781 
L 332.135056 114.44418 
L 334.215604 113.904753 
L 336.296152 113.648111 
L 338.3767 114.692476 
L 340.457248 115.494894 
L 342.537796 118.661223 
L 344.618344 118.048045 
L 346.698892 122.580493 
L 348.77944 122.218509 
L 350.859988 121.689836 
L 352.940536 121.897669 
L 355.021084 119.697034 
L 357.101632 119.570828 
L 359.18218 115.280109 
L 363.343276 112.122056 
L 365.423824 112.688339 
L 367.504372 113.596945 
L 369.58492 114.121256 
L 371.665468 111.455837 
L 373.746016 110.631771 
L 375.826564 105.982768 
L 377.907112 107.225448 
L 379.98766 108.753047 
L 382.068208 109.007182 
L 384.148756 112.910471 
L 386.229304 110.959925 
L 388.309852 112.485825 
L 390.3904 112.031672 
L 392.470948 110.146956 
L 394.551496 110.646028 
L 396.632044 110.517246 
L 398.712592 111.490491 
L 400.79314 111.933922 
L 402.873688 113.565805 
L 404.954236 114.360688 
L 407.034784 116.415135 
L 409.115332 114.034636 
L 411.19588 114.919155 
L 413.276428 115.226751 
L 415.356976 114.688437 
L 417.437524 116.635883 
L 419.518072 113.1145 
L 421.59862 116.46241 
L 423.679168 117.463576 
L 425.759716 117.098493 
L 427.840264 115.963572 
L 429.920812 115.442456 
L 432.00136 117.952009 
L 434.081908 117.470516 
L 436.162456 120.142698 
L 438.243004 117.980904 
L 440.323552 120.402074 
L 442.4041 120.49247 
L 444.484648 120.963233 
L 446.565196 119.749234 
L 448.645744 120.681943 
L 450.726292 122.030614 
L 452.80684 119.764535 
L 454.887388 119.291268 
L 456.967936 119.946683 
L 459.048484 121.794443 
L 461.129032 121.578962 
L 463.20958 122.722146 
L 465.290128 120.328358 
L 467.370676 119.144048 
L 469.451224 121.276271 
L 471.531772 119.896242 
L 473.61232 119.27762 
L 477.773416 119.472642 
L 479.853964 120.04077 
L 481.934512 118.805073 
L 484.01506 118.163345 
L 486.095608 118.51354 
L 488.176156 118.302462 
L 492.337252 115.78074 
L 494.4178 113.571652 
L 496.498348 113.760398 
L 498.578896 112.330248 
L 500.659444 114.663296 
L 502.739992 114.465725 
L 504.82054 113.4577 
L 506.901088 111.717187 
L 508.981636 110.174804 
L 511.062184 110.525781 
L 513.142732 111.464453 
L 515.22328 117.27151 
L 517.303828 119.11404 
L 519.384376 118.881486 
L 521.464924 122.0474 
L 523.545472 124.260102 
L 525.62602 124.313071 
L 527.706568 126.623805 
L 529.787116 124.907468 
L 531.867664 126.841478 
L 533.948212 127.603216 
L 536.02876 130.829757 
L 538.109308 130.355242 
L 540.189856 132.550255 
L 542.270404 131.454983 
L 544.350952 132.529179 
L 546.4315 132.927515 
L 548.512048 134.201642 
L 552.673144 134.675859 
L 554.753692 138.069028 
L 556.83424 137.774281 
L 558.914788 136.821321 
L 560.995336 136.005762 
L 563.075884 138.299582 
L 565.156432 135.47532 
L 567.23698 134.911442 
L 569.317528 136.150423 
L 571.398076 137.769821 
L 573.478624 136.73832 
L 575.559172 140.359191 
L 577.63972 140.824031 
L 579.720268 141.897077 
L 581.800816 145.221477 
L 583.881364 141.228813 
L 585.961912 139.918774 
L 588.04246 136.527916 
L 590.123008 133.526064 
L 592.203556 135.87921 
L 594.284104 139.478147 
L 596.364652 139.65901 
L 598.4452 137.958768 
L 600.525748 139.503038 
L 602.606296 140.16548 
L 604.686844 137.743823 
L 606.767392 140.024796 
L 610.928488 140.742388 
L 613.009036 142.292903 
L 615.089584 142.157168 
L 617.170132 142.721387 
L 619.25068 143.449233 
L 621.331228 142.385248 
L 623.411776 142.373284 
L 625.492324 140.515586 
L 627.572872 143.743708 
L 629.65342 144.133068 
L 631.733968 144.721609 
L 633.814516 147.374482 
L 635.895064 148.309916 
L 637.975612 150.023966 
L 640.05616 151.422938 
L 642.136708 150.765559 
L 644.217256 151.012284 
L 646.297804 152.212074 
L 648.378352 150.999077 
L 650.4589 150.338833 
L 652.539448 148.667929 
L 654.619996 148.930432 
L 656.700544 148.82969 
L 658.781092 152.50653 
L 660.86164 153.881289 
L 662.942188 155.420919 
L 665.022736 154.607926 
L 667.103284 155.565835 
L 669.183832 154.639711 
L 671.26438 156.261534 
L 673.344928 156.175955 
L 675.425476 157.146637 
L 677.506024 161.118399 
L 679.586572 162.309543 
L 681.66712 164.165711 
L 683.747668 162.769168 
L 685.828216 164.130756 
L 687.908764 161.498842 
L 689.989312 167.09712 
L 692.06986 166.693847 
L 694.150408 167.279136 
L 696.230956 167.319935 
L 698.311504 168.197019 
L 700.392052 169.427843 
L 702.4726 167.271618 
L 704.553148 167.555322 
L 706.633696 167.991321 
L 708.714244 164.438597 
L 710.794792 163.709837 
L 712.87534 162.769457 
L 714.955888 161.286488 
L 717.036436 158.565916 
L 719.116984 158.784217 
L 721.197532 158.133952 
L 723.27808 156.402038 
L 725.358628 160.446859 
L 727.439176 159.687439 
L 729.519724 160.231706 
L 731.600272 159.798739 
L 733.68082 159.075434 
L 735.761368 157.478148 
L 737.841916 158.171256 
L 742.003012 164.541723 
L 744.08356 165.102568 
L 746.164108 166.429387 
L 748.244656 166.951652 
L 750.325204 167.297204 
L 752.405752 169.489122 
L 754.4863 168.902707 
L 756.566848 166.671631 
L 758.647396 167.508136 
L 760.727944 167.855433 
L 762.808492 167.550914 
L 764.88904 168.103002 
L 766.969588 170.85593 
L 769.050136 168.364589 
L 771.130684 166.70212 
L 773.211232 166.786304 
L 775.29178 163.945485 
L 777.372328 165.687215 
L 779.452876 165.813149 
L 781.533424 166.568824 
L 783.613972 166.776557 
L 785.69452 165.439948 
L 789.855616 169.538025 
L 791.936164 172.265862 
L 794.016712 170.453751 
L 796.09726 170.247577 
L 798.177808 170.350585 
L 800.258356 170.626442 
L 802.338904 168.971632 
L 804.419452 169.217779 
L 804.419452 169.217779 
" style="fill:none;stroke:#696969;stroke-dasharray:11.1,4.8;stroke-dashoffset:0;stroke-width:3;"/>
   </g>
   <g id="line2d_46">
    <path clip-path="url(#p986496a659)" d="M 88.71094 115.788547 
L 90.791488 115.980848 
L 92.872036 116.741725 
L 97.033132 117.671596 
L 101.194228 119.534454 
L 105.355324 121.663286 
L 111.596968 125.587651 
L 115.758064 128.941485 
L 117.838612 130.024001 
L 119.91916 131.611876 
L 124.080256 133.885571 
L 126.160804 135.057064 
L 128.241352 135.80901 
L 132.402448 137.528045 
L 134.482996 138.813341 
L 136.563544 139.695229 
L 138.644092 140.930764 
L 144.885736 143.398613 
L 146.966284 144.339361 
L 153.207928 146.588199 
L 155.288476 147.020269 
L 159.449572 147.5377 
L 165.691216 147.610936 
L 169.852312 147.151164 
L 171.93286 146.932751 
L 178.174504 145.83162 
L 180.255052 145.435216 
L 184.416148 144.066629 
L 190.657792 141.826091 
L 192.73834 141.127571 
L 194.818888 140.013851 
L 198.979984 138.383796 
L 201.060532 137.41604 
L 203.14108 136.286937 
L 209.382724 132.310803 
L 211.463272 131.536208 
L 215.624368 129.407319 
L 217.704916 128.689325 
L 219.785464 128.166934 
L 226.027108 126.920466 
L 228.107656 126.725738 
L 230.188204 126.347376 
L 236.429848 125.681892 
L 242.671492 124.405776 
L 244.75204 124.208634 
L 248.913136 123.450703 
L 250.993684 122.604568 
L 253.074232 121.943625 
L 255.15478 121.058504 
L 257.235328 120.781035 
L 263.476972 119.438406 
L 265.55752 118.765255 
L 267.638068 118.248338 
L 269.718616 117.423277 
L 271.799164 116.984205 
L 273.879712 116.196909 
L 275.96026 115.614464 
L 280.121356 114.720688 
L 282.201904 113.963279 
L 288.443548 112.594608 
L 290.524096 112.3699 
L 292.604644 111.423963 
L 296.76574 109.959354 
L 307.16848 107.609201 
L 309.249028 107.287419 
L 311.329576 106.732227 
L 313.410124 106.395089 
L 315.490672 105.512908 
L 319.651768 105.096258 
L 323.812864 104.37088 
L 325.893412 103.763844 
L 327.97396 103.011274 
L 330.054508 102.54147 
L 334.215604 100.971304 
L 336.296152 99.984681 
L 340.457248 99.369096 
L 342.537796 98.667323 
L 344.618344 98.609106 
L 348.77944 98.299744 
L 350.859988 98.431477 
L 352.940536 98.352391 
L 357.101632 97.339832 
L 359.18218 97.011591 
L 361.262728 97.101241 
L 363.343276 97.490105 
L 365.423824 97.996423 
L 367.504372 98.731024 
L 369.58492 99.198872 
L 373.746016 100.799572 
L 375.826564 101.931907 
L 377.907112 102.80664 
L 379.98766 104.236787 
L 382.068208 106.015898 
L 384.148756 107.620286 
L 386.229304 109.621556 
L 388.309852 110.910576 
L 390.3904 111.957667 
L 392.470948 113.317552 
L 394.551496 114.387816 
L 398.712592 116.943596 
L 400.79314 117.866222 
L 402.873688 118.416635 
L 404.954236 119.260348 
L 409.115332 121.541417 
L 413.276428 123.187476 
L 415.356976 124.027552 
L 417.437524 124.679561 
L 419.518072 125.532744 
L 425.759716 127.416375 
L 427.840264 128.019552 
L 429.920812 128.129973 
L 432.00136 128.035585 
L 434.081908 127.617863 
L 436.162456 127.037063 
L 438.243004 126.675795 
L 440.323552 126.584541 
L 446.565196 125.314852 
L 448.645744 124.791475 
L 450.726292 124.510734 
L 454.887388 123.585809 
L 456.967936 122.923834 
L 461.129032 121.963827 
L 463.20958 121.584126 
L 465.290128 120.998353 
L 467.370676 120.228354 
L 469.451224 119.615066 
L 473.61232 118.87509 
L 475.692868 118.115565 
L 479.853964 117.629605 
L 481.934512 116.997344 
L 484.01506 116.520607 
L 486.095608 115.609487 
L 490.256704 114.456328 
L 492.337252 114.12047 
L 494.4178 113.614418 
L 496.498348 112.979909 
L 498.578896 112.606139 
L 504.82054 111.001547 
L 506.901088 110.670049 
L 508.981636 110.174804 
L 511.062184 110.041986 
L 513.142732 109.727846 
L 515.22328 109.101993 
L 517.303828 108.79525 
L 519.384376 108.370353 
L 521.464924 108.425131 
L 523.545472 108.657104 
L 525.62602 108.678367 
L 527.706568 108.831484 
L 529.787116 109.121391 
L 531.867664 109.236251 
L 536.02876 109.680944 
L 538.109308 110.148472 
L 542.270404 111.459689 
L 544.350952 112.55088 
L 548.512048 115.071322 
L 550.592596 116.942864 
L 552.673144 118.609435 
L 554.753692 120.561319 
L 556.83424 123.401888 
L 558.914788 127.096956 
L 563.075884 135.264015 
L 565.156432 139.946907 
L 567.23698 143.718252 
L 569.317528 147.777472 
L 571.398076 151.282329 
L 575.559172 157.692055 
L 579.720268 163.596885 
L 583.881364 168.23928 
L 585.961912 169.960484 
L 588.04246 171.530922 
L 590.123008 172.642939 
L 594.284104 173.796902 
L 602.606296 176.110279 
L 604.686844 176.526929 
L 606.767392 177.342872 
L 608.84794 177.657427 
L 610.928488 177.741529 
L 613.009036 177.561548 
L 615.089584 177.235071 
L 619.25068 177.153493 
L 623.411776 176.519492 
L 625.492324 175.888559 
L 627.572872 175.833677 
L 629.65342 175.453334 
L 631.733968 174.82069 
L 633.814516 174.017477 
L 640.05616 170.923655 
L 644.217256 169.135136 
L 646.297804 168.397992 
L 648.378352 167.890471 
L 650.4589 167.552906 
L 652.539448 166.713219 
L 654.619996 165.616011 
L 656.700544 164.744196 
L 660.86164 164.287264 
L 665.022736 162.77632 
L 667.103284 162.108873 
L 669.183832 161.220233 
L 671.26438 160.54508 
L 673.344928 159.582482 
L 677.506024 158.005135 
L 679.586572 157.878456 
L 681.66712 156.84974 
L 683.747668 155.43108 
L 685.828216 154.200778 
L 687.908764 152.789972 
L 689.989312 151.586324 
L 692.06986 150.122514 
L 698.311504 146.742454 
L 700.392052 145.882119 
L 702.4726 144.461319 
L 704.553148 142.666451 
L 706.633696 141.397629 
L 708.714244 139.835725 
L 712.87534 137.519934 
L 729.519724 128.242811 
L 737.841916 124.088803 
L 739.922464 123.512955 
L 742.003012 123.224115 
L 752.405752 120.586897 
L 756.566848 119.290289 
L 760.727944 118.198902 
L 764.88904 116.568658 
L 769.050136 114.763004 
L 771.130684 114.127796 
L 773.211232 113.185641 
L 775.29178 112.653833 
L 783.613972 109.471684 
L 785.69452 108.820174 
L 787.775068 108.008898 
L 791.936164 106.853195 
L 794.016712 106.013903 
L 804.419452 103.052369 
L 804.419452 103.052369 
" style="fill:none;stroke:#808080;stroke-dasharray:19.2,4.8,3,4.8;stroke-dashoffset:0;stroke-width:3;"/>
   </g>
   <g id="line2d_47">
    <path clip-path="url(#p986496a659)" d="M 84.549844 110.174804 
L 806.5 110.174804 
" style="fill:none;stroke:#000000;stroke-linecap:square;stroke-width:1.5;"/>
   </g>
   <g id="patch_3">
    <path d="M 84.549844 206.298438 
L 806.5 206.298438 
" style="fill:none;stroke:#000000;stroke-linecap:square;stroke-linejoin:miter;stroke-width:0.8;"/>
   </g>
   <g id="legend_1">
    <g id="patch_4">
     <path d="M 654.320781 118.66625 
L 797.4 118.66625 
Q 800 118.66625 800 116.06625 
L 800 41.04 
Q 800 38.44 797.4 38.44 
L 654.320781 38.44 
Q 651.720781 38.44 651.720781 41.04 
L 651.720781 116.06625 
Q 651.720781 118.66625 654.320781 118.66625 
z
" style="fill:#ffffff;opacity:0.8;stroke:#cccccc;stroke-linejoin:miter;"/>
    </g>
    <g id="line2d_48">
     <path d="M 656.920781 48.967969 
L 682.920781 48.967969 
" style="fill:none;stroke:#000000;stroke-linecap:square;stroke-width:3;"/>
    </g>
    <g id="line2d_49"/>
    <g id="text_11">
     <!-- Change in LFPR -->
     <defs>
      <path d="M 64.40625 67.28125 
L 64.40625 56.890625 
Q 59.421875 61.53125 53.78125 63.8125 
Q 48.140625 66.109375 41.796875 66.109375 
Q 29.296875 66.109375 22.65625 58.46875 
Q 16.015625 50.828125 16.015625 36.375 
Q 16.015625 21.96875 22.65625 14.328125 
Q 29.296875 6.6875 41.796875 6.6875 
Q 48.140625 6.6875 53.78125 8.984375 
Q 59.421875 11.28125 64.40625 15.921875 
L 64.40625 5.609375 
Q 59.234375 2.09375 53.4375 0.328125 
Q 47.65625 -1.421875 41.21875 -1.421875 
Q 24.65625 -1.421875 15.125 8.703125 
Q 5.609375 18.84375 5.609375 36.375 
Q 5.609375 53.953125 15.125 64.078125 
Q 24.65625 74.21875 41.21875 74.21875 
Q 47.75 74.21875 53.53125 72.484375 
Q 59.328125 70.75 64.40625 67.28125 
z
" id="DejaVuSans-43"/>
      <path d="M 54.890625 33.015625 
L 54.890625 0 
L 45.90625 0 
L 45.90625 32.71875 
Q 45.90625 40.484375 42.875 44.328125 
Q 39.84375 48.1875 33.796875 48.1875 
Q 26.515625 48.1875 22.3125 43.546875 
Q 18.109375 38.921875 18.109375 30.90625 
L 18.109375 0 
L 9.078125 0 
L 9.078125 75.984375 
L 18.109375 75.984375 
L 18.109375 46.1875 
Q 21.34375 51.125 25.703125 53.5625 
Q 30.078125 56 35.796875 56 
Q 45.21875 56 50.046875 50.171875 
Q 54.890625 44.34375 54.890625 33.015625 
z
" id="DejaVuSans-68"/>
      <path d="M 9.8125 72.90625 
L 19.671875 72.90625 
L 19.671875 8.296875 
L 55.171875 8.296875 
L 55.171875 0 
L 9.8125 0 
z
" id="DejaVuSans-4c"/>
      <path d="M 9.8125 72.90625 
L 51.703125 72.90625 
L 51.703125 64.59375 
L 19.671875 64.59375 
L 19.671875 43.109375 
L 48.578125 43.109375 
L 48.578125 34.8125 
L 19.671875 34.8125 
L 19.671875 0 
L 9.8125 0 
z
" id="DejaVuSans-46"/>
      <path d="M 44.390625 34.1875 
Q 47.5625 33.109375 50.5625 29.59375 
Q 53.5625 26.078125 56.59375 19.921875 
L 66.609375 0 
L 56 0 
L 46.6875 18.703125 
Q 43.0625 26.03125 39.671875 28.421875 
Q 36.28125 30.8125 30.421875 30.8125 
L 19.671875 30.8125 
L 19.671875 0 
L 9.8125 0 
L 9.8125 72.90625 
L 32.078125 72.90625 
Q 44.578125 72.90625 50.734375 67.671875 
Q 56.890625 62.453125 56.890625 51.90625 
Q 56.890625 45.015625 53.6875 40.46875 
Q 50.484375 35.9375 44.390625 34.1875 
z
M 19.671875 64.796875 
L 19.671875 38.921875 
L 32.078125 38.921875 
Q 39.203125 38.921875 42.84375 42.21875 
Q 46.484375 45.515625 46.484375 51.90625 
Q 46.484375 58.296875 42.84375 61.546875 
Q 39.203125 64.796875 32.078125 64.796875 
z
" id="DejaVuSans-52"/>
     </defs>
     <g transform="translate(693.320781 53.517969)scale(0.13 -0.13)">
      <use xlink:href="#DejaVuSans-43"/>
      <use x="69.824219" xlink:href="#DejaVuSans-68"/>
      <use x="133.203125" xlink:href="#DejaVuSans-61"/>
      <use x="194.482422" xlink:href="#DejaVuSans-6e"/>
      <use x="257.861328" xlink:href="#DejaVuSans-67"/>
      <use x="321.337891" xlink:href="#DejaVuSans-65"/>
      <use x="382.861328" xlink:href="#DejaVuSans-20"/>
      <use x="414.648438" xlink:href="#DejaVuSans-69"/>
      <use x="442.431641" xlink:href="#DejaVuSans-6e"/>
      <use x="505.810547" xlink:href="#DejaVuSans-20"/>
      <use x="537.597656" xlink:href="#DejaVuSans-4c"/>
      <use x="593.310547" xlink:href="#DejaVuSans-46"/>
      <use x="650.830078" xlink:href="#DejaVuSans-50"/>
      <use x="711.132812" xlink:href="#DejaVuSans-52"/>
     </g>
    </g>
    <g id="line2d_50">
     <path d="M 656.920781 68.049531 
L 682.920781 68.049531 
" style="fill:none;stroke:#d3d3d3;stroke-dasharray:3,4.95;stroke-dashoffset:0;stroke-width:3;"/>
    </g>
    <g id="line2d_51"/>
    <g id="text_12">
     <!-- Exit -->
     <defs>
      <path d="M 9.8125 72.90625 
L 55.90625 72.90625 
L 55.90625 64.59375 
L 19.671875 64.59375 
L 19.671875 43.015625 
L 54.390625 43.015625 
L 54.390625 34.71875 
L 19.671875 34.71875 
L 19.671875 8.296875 
L 56.78125 8.296875 
L 56.78125 0 
L 9.8125 0 
z
" id="DejaVuSans-45"/>
      <path d="M 54.890625 54.6875 
L 35.109375 28.078125 
L 55.90625 0 
L 45.3125 0 
L 29.390625 21.484375 
L 13.484375 0 
L 2.875 0 
L 24.125 28.609375 
L 4.6875 54.6875 
L 15.28125 54.6875 
L 29.78125 35.203125 
L 44.28125 54.6875 
z
" id="DejaVuSans-78"/>
     </defs>
     <g transform="translate(693.320781 72.599531)scale(0.13 -0.13)">
      <use xlink:href="#DejaVuSans-45"/>
      <use x="63.183594" xlink:href="#DejaVuSans-78"/>
      <use x="122.363281" xlink:href="#DejaVuSans-69"/>
      <use x="150.146484" xlink:href="#DejaVuSans-74"/>
     </g>
    </g>
    <g id="line2d_52">
     <path d="M 656.920781 87.131094 
L 682.920781 87.131094 
" style="fill:none;stroke:#696969;stroke-dasharray:11.1,4.8;stroke-dashoffset:0;stroke-width:3;"/>
    </g>
    <g id="line2d_53"/>
    <g id="text_13">
     <!-- Entry -->
     <defs>
      <path d="M 32.171875 -5.078125 
Q 28.375 -14.84375 24.75 -17.8125 
Q 21.140625 -20.796875 15.09375 -20.796875 
L 7.90625 -20.796875 
L 7.90625 -13.28125 
L 13.1875 -13.28125 
Q 16.890625 -13.28125 18.9375 -11.515625 
Q 21 -9.765625 23.484375 -3.21875 
L 25.09375 0.875 
L 2.984375 54.6875 
L 12.5 54.6875 
L 29.59375 11.921875 
L 46.6875 54.6875 
L 56.203125 54.6875 
z
" id="DejaVuSans-79"/>
     </defs>
     <g transform="translate(693.320781 91.681094)scale(0.13 -0.13)">
      <use xlink:href="#DejaVuSans-45"/>
      <use x="63.183594" xlink:href="#DejaVuSans-6e"/>
      <use x="126.5625" xlink:href="#DejaVuSans-74"/>
      <use x="165.771484" xlink:href="#DejaVuSans-72"/>
      <use x="206.884766" xlink:href="#DejaVuSans-79"/>
     </g>
    </g>
    <g id="line2d_54">
     <path d="M 656.920781 106.212656 
L 682.920781 106.212656 
" style="fill:none;stroke:#808080;stroke-dasharray:19.2,4.8,3,4.8;stroke-dashoffset:0;stroke-width:3;"/>
    </g>
    <g id="line2d_55"/>
    <g id="text_14">
     <!-- Churn -->
     <defs>
      <path d="M 8.5 21.578125 
L 8.5 54.6875 
L 17.484375 54.6875 
L 17.484375 21.921875 
Q 17.484375 14.15625 20.5 10.265625 
Q 23.53125 6.390625 29.59375 6.390625 
Q 36.859375 6.390625 41.078125 11.03125 
Q 45.3125 15.671875 45.3125 23.6875 
L 45.3125 54.6875 
L 54.296875 54.6875 
L 54.296875 0 
L 45.3125 0 
L 45.3125 8.40625 
Q 42.046875 3.421875 37.71875 1 
Q 33.40625 -1.421875 27.6875 -1.421875 
Q 18.265625 -1.421875 13.375 4.4375 
Q 8.5 10.296875 8.5 21.578125 
z
M 31.109375 56 
z
" id="DejaVuSans-75"/>
     </defs>
     <g transform="translate(693.320781 110.762656)scale(0.13 -0.13)">
      <use xlink:href="#DejaVuSans-43"/>
      <use x="69.824219" xlink:href="#DejaVuSans-68"/>
      <use x="133.203125" xlink:href="#DejaVuSans-75"/>
      <use x="196.582031" xlink:href="#DejaVuSans-72"/>
      <use x="237.679688" xlink:href="#DejaVuSans-6e"/>
     </g>
    </g>
   </g>
  </g>
 </g>
 <defs>
  <clipPath id="p986496a659">
   <rect height="174.358438" width="721.950156" x="84.549844" y="31.94"/>
  </clipPath>
 </defs>
</svg>
