<?xml version="1.0" encoding="utf-8" standalone="no"?>
<!DOCTYPE svg PUBLIC "-//W3C//DTD SVG 1.1//EN"
  "http://www.w3.org/Graphics/SVG/1.1/DTD/svg11.dtd">
<!-- Created with matplotlib (http://matplotlib.org/) -->
<svg height="432pt" version="1.1" viewBox="0 0 972 432" width="972pt" xmlns="http://www.w3.org/2000/svg" xmlns:xlink="http://www.w3.org/1999/xlink">
 <defs>
  <style type="text/css">
*{stroke-linecap:butt;stroke-linejoin:round;}
  </style>
 </defs>
 <g id="figure_1">
  <g id="patch_1">
   <path d="M 0 432 
L 972 432 
L 972 0 
L 0 0 
z
" style="fill:none;"/>
  </g>
  <g id="axes_1">
   <g id="patch_2">
    <path d="M 72.9 388.8 
L 923.4 388.8 
L 923.4 51.84 
L 72.9 51.84 
z
" style="fill:none;"/>
   </g>
   <g id="PolyCollection_1">
    <path clip-path="url(#p72cff4d065)" d="M 90.057061 51.84 
L 90.057061 388.8 
L 92.508069 388.8 
L 94.959078 388.8 
L 97.410086 388.8 
L 99.861095 388.8 
L 102.312104 388.8 
L 104.763112 388.8 
L 107.214121 388.8 
L 107.214121 51.84 
L 107.214121 51.84 
L 104.763112 51.84 
L 102.312104 51.84 
L 99.861095 51.84 
L 97.410086 51.84 
L 94.959078 51.84 
L 92.508069 51.84 
L 90.057061 51.84 
z
" style="fill:#bbbbbb;fill-opacity:0.3;stroke:#bbbbbb;stroke-opacity:0.3;"/>
    <path clip-path="url(#p72cff4d065)" d="M 403.786167 51.84 
L 403.786167 388.8 
L 406.237176 388.8 
L 408.688184 388.8 
L 411.139193 388.8 
L 413.590202 388.8 
L 416.04121 388.8 
L 418.492219 388.8 
L 420.943228 388.8 
L 420.943228 51.84 
L 420.943228 51.84 
L 418.492219 51.84 
L 416.04121 51.84 
L 413.590202 51.84 
L 411.139193 51.84 
L 408.688184 51.84 
L 406.237176 51.84 
L 403.786167 51.84 
z
" style="fill:#bbbbbb;fill-opacity:0.3;stroke:#bbbbbb;stroke-opacity:0.3;"/>
    <path clip-path="url(#p72cff4d065)" d="M 602.317867 51.84 
L 602.317867 388.8 
L 604.768876 388.8 
L 607.219885 388.8 
L 609.670893 388.8 
L 612.121902 388.8 
L 614.572911 388.8 
L 617.023919 388.8 
L 619.474928 388.8 
L 621.925937 388.8 
L 624.376945 388.8 
L 626.827954 388.8 
L 629.278963 388.8 
L 631.729971 388.8 
L 634.18098 388.8 
L 636.631988 388.8 
L 639.082997 388.8 
L 641.534006 388.8 
L 643.985014 388.8 
L 643.985014 51.84 
L 643.985014 51.84 
L 641.534006 51.84 
L 639.082997 51.84 
L 636.631988 51.84 
L 634.18098 51.84 
L 631.729971 51.84 
L 629.278963 51.84 
L 626.827954 51.84 
L 624.376945 51.84 
L 621.925937 51.84 
L 619.474928 51.84 
L 617.023919 51.84 
L 614.572911 51.84 
L 612.121902 51.84 
L 609.670893 51.84 
L 607.219885 51.84 
L 604.768876 51.84 
L 602.317867 51.84 
z
" style="fill:#bbbbbb;fill-opacity:0.3;stroke:#bbbbbb;stroke-opacity:0.3;"/>
   </g>
   <g id="matplotlib.axis_1">
    <g id="xtick_1">
     <g id="line2d_1">
      <defs>
       <path d="M 0 0 
L 0 3.5 
" id="m3c1b3a4de9" style="stroke:#000000;stroke-width:0.8;"/>
      </defs>
      <g>
       <use style="stroke:#000000;stroke-width:0.8;" x="190.548415" xlink:href="#m3c1b3a4de9" y="388.8"/>
      </g>
     </g>
     <g id="text_1">
      <!-- 1994 -->
      <defs>
       <path d="M 12.40625 8.296875 
L 28.515625 8.296875 
L 28.515625 63.921875 
L 10.984375 60.40625 
L 10.984375 69.390625 
L 28.421875 72.90625 
L 38.28125 72.90625 
L 38.28125 8.296875 
L 54.390625 8.296875 
L 54.390625 0 
L 12.40625 0 
z
" id="DejaVuSans-31"/>
       <path d="M 10.984375 1.515625 
L 10.984375 10.5 
Q 14.703125 8.734375 18.5 7.8125 
Q 22.3125 6.890625 25.984375 6.890625 
Q 35.75 6.890625 40.890625 13.453125 
Q 46.046875 20.015625 46.78125 33.40625 
Q 43.953125 29.203125 39.59375 26.953125 
Q 35.25 24.703125 29.984375 24.703125 
Q 19.046875 24.703125 12.671875 31.3125 
Q 6.296875 37.9375 6.296875 49.421875 
Q 6.296875 60.640625 12.9375 67.421875 
Q 19.578125 74.21875 30.609375 74.21875 
Q 43.265625 74.21875 49.921875 64.515625 
Q 56.59375 54.828125 56.59375 36.375 
Q 56.59375 19.140625 48.40625 8.859375 
Q 40.234375 -1.421875 26.421875 -1.421875 
Q 22.703125 -1.421875 18.890625 -0.6875 
Q 15.09375 0.046875 10.984375 1.515625 
z
M 30.609375 32.421875 
Q 37.25 32.421875 41.125 36.953125 
Q 45.015625 41.5 45.015625 49.421875 
Q 45.015625 57.28125 41.125 61.84375 
Q 37.25 66.40625 30.609375 66.40625 
Q 23.96875 66.40625 20.09375 61.84375 
Q 16.21875 57.28125 16.21875 49.421875 
Q 16.21875 41.5 20.09375 36.953125 
Q 23.96875 32.421875 30.609375 32.421875 
z
" id="DejaVuSans-39"/>
       <path d="M 37.796875 64.3125 
L 12.890625 25.390625 
L 37.796875 25.390625 
z
M 35.203125 72.90625 
L 47.609375 72.90625 
L 47.609375 25.390625 
L 58.015625 25.390625 
L 58.015625 17.1875 
L 47.609375 17.1875 
L 47.609375 0 
L 37.796875 0 
L 37.796875 17.1875 
L 4.890625 17.1875 
L 4.890625 26.703125 
z
" id="DejaVuSans-34"/>
      </defs>
      <g transform="translate(172.733415 407.937813)scale(0.14 -0.14)">
       <use xlink:href="#DejaVuSans-31"/>
       <use x="63.623047" xlink:href="#DejaVuSans-39"/>
       <use x="127.246094" xlink:href="#DejaVuSans-39"/>
       <use x="190.869141" xlink:href="#DejaVuSans-34"/>
      </g>
     </g>
    </g>
    <g id="xtick_2">
     <g id="line2d_2">
      <g>
       <use style="stroke:#000000;stroke-width:0.8;" x="337.608934" xlink:href="#m3c1b3a4de9" y="388.8"/>
      </g>
     </g>
     <g id="text_2">
      <!-- 1999 -->
      <g transform="translate(319.793934 407.937813)scale(0.14 -0.14)">
       <use xlink:href="#DejaVuSans-31"/>
       <use x="63.623047" xlink:href="#DejaVuSans-39"/>
       <use x="127.246094" xlink:href="#DejaVuSans-39"/>
       <use x="190.869141" xlink:href="#DejaVuSans-39"/>
      </g>
     </g>
    </g>
    <g id="xtick_3">
     <g id="line2d_3">
      <g>
       <use style="stroke:#000000;stroke-width:0.8;" x="484.669452" xlink:href="#m3c1b3a4de9" y="388.8"/>
      </g>
     </g>
     <g id="text_3">
      <!-- 2004 -->
      <defs>
       <path d="M 19.1875 8.296875 
L 53.609375 8.296875 
L 53.609375 0 
L 7.328125 0 
L 7.328125 8.296875 
Q 12.9375 14.109375 22.625 23.890625 
Q 32.328125 33.6875 34.8125 36.53125 
Q 39.546875 41.84375 41.421875 45.53125 
Q 43.3125 49.21875 43.3125 52.78125 
Q 43.3125 58.59375 39.234375 62.25 
Q 35.15625 65.921875 28.609375 65.921875 
Q 23.96875 65.921875 18.8125 64.3125 
Q 13.671875 62.703125 7.8125 59.421875 
L 7.8125 69.390625 
Q 13.765625 71.78125 18.9375 73 
Q 24.125 74.21875 28.421875 74.21875 
Q 39.75 74.21875 46.484375 68.546875 
Q 53.21875 62.890625 53.21875 53.421875 
Q 53.21875 48.921875 51.53125 44.890625 
Q 49.859375 40.875 45.40625 35.40625 
Q 44.1875 33.984375 37.640625 27.21875 
Q 31.109375 20.453125 19.1875 8.296875 
z
" id="DejaVuSans-32"/>
       <path d="M 31.78125 66.40625 
Q 24.171875 66.40625 20.328125 58.90625 
Q 16.5 51.421875 16.5 36.375 
Q 16.5 21.390625 20.328125 13.890625 
Q 24.171875 6.390625 31.78125 6.390625 
Q 39.453125 6.390625 43.28125 13.890625 
Q 47.125 21.390625 47.125 36.375 
Q 47.125 51.421875 43.28125 58.90625 
Q 39.453125 66.40625 31.78125 66.40625 
z
M 31.78125 74.21875 
Q 44.046875 74.21875 50.515625 64.515625 
Q 56.984375 54.828125 56.984375 36.375 
Q 56.984375 17.96875 50.515625 8.265625 
Q 44.046875 -1.421875 31.78125 -1.421875 
Q 19.53125 -1.421875 13.0625 8.265625 
Q 6.59375 17.96875 6.59375 36.375 
Q 6.59375 54.828125 13.0625 64.515625 
Q 19.53125 74.21875 31.78125 74.21875 
z
" id="DejaVuSans-30"/>
      </defs>
      <g transform="translate(466.854452 407.937813)scale(0.14 -0.14)">
       <use xlink:href="#DejaVuSans-32"/>
       <use x="63.623047" xlink:href="#DejaVuSans-30"/>
       <use x="127.246094" xlink:href="#DejaVuSans-30"/>
       <use x="190.869141" xlink:href="#DejaVuSans-34"/>
      </g>
     </g>
    </g>
    <g id="xtick_4">
     <g id="line2d_4">
      <g>
       <use style="stroke:#000000;stroke-width:0.8;" x="631.729971" xlink:href="#m3c1b3a4de9" y="388.8"/>
      </g>
     </g>
     <g id="text_4">
      <!-- 2009 -->
      <g transform="translate(613.914971 407.937813)scale(0.14 -0.14)">
       <use xlink:href="#DejaVuSans-32"/>
       <use x="63.623047" xlink:href="#DejaVuSans-30"/>
       <use x="127.246094" xlink:href="#DejaVuSans-30"/>
       <use x="190.869141" xlink:href="#DejaVuSans-39"/>
      </g>
     </g>
    </g>
    <g id="xtick_5">
     <g id="line2d_5">
      <g>
       <use style="stroke:#000000;stroke-width:0.8;" x="778.79049" xlink:href="#m3c1b3a4de9" y="388.8"/>
      </g>
     </g>
     <g id="text_5">
      <!-- 2014 -->
      <g transform="translate(760.97549 407.937813)scale(0.14 -0.14)">
       <use xlink:href="#DejaVuSans-32"/>
       <use x="63.623047" xlink:href="#DejaVuSans-30"/>
       <use x="127.246094" xlink:href="#DejaVuSans-31"/>
       <use x="190.869141" xlink:href="#DejaVuSans-34"/>
      </g>
     </g>
    </g>
    <g id="xtick_6">
     <g id="line2d_6">
      <defs>
       <path d="M 0 0 
L 0 2 
" id="m59809de3be" style="stroke:#000000;stroke-width:0.6;"/>
      </defs>
      <g>
       <use style="stroke:#000000;stroke-width:0.6;" x="72.9" xlink:href="#m59809de3be" y="388.8"/>
      </g>
     </g>
    </g>
    <g id="xtick_7">
     <g id="line2d_7">
      <g>
       <use style="stroke:#000000;stroke-width:0.6;" x="102.312104" xlink:href="#m59809de3be" y="388.8"/>
      </g>
     </g>
    </g>
    <g id="xtick_8">
     <g id="line2d_8">
      <g>
       <use style="stroke:#000000;stroke-width:0.6;" x="131.724207" xlink:href="#m59809de3be" y="388.8"/>
      </g>
     </g>
    </g>
    <g id="xtick_9">
     <g id="line2d_9">
      <g>
       <use style="stroke:#000000;stroke-width:0.6;" x="161.136311" xlink:href="#m59809de3be" y="388.8"/>
      </g>
     </g>
    </g>
    <g id="xtick_10">
     <g id="line2d_10">
      <g>
       <use style="stroke:#000000;stroke-width:0.6;" x="190.548415" xlink:href="#m59809de3be" y="388.8"/>
      </g>
     </g>
    </g>
    <g id="xtick_11">
     <g id="line2d_11">
      <g>
       <use style="stroke:#000000;stroke-width:0.6;" x="219.960519" xlink:href="#m59809de3be" y="388.8"/>
      </g>
     </g>
    </g>
    <g id="xtick_12">
     <g id="line2d_12">
      <g>
       <use style="stroke:#000000;stroke-width:0.6;" x="249.372622" xlink:href="#m59809de3be" y="388.8"/>
      </g>
     </g>
    </g>
    <g id="xtick_13">
     <g id="line2d_13">
      <g>
       <use style="stroke:#000000;stroke-width:0.6;" x="278.784726" xlink:href="#m59809de3be" y="388.8"/>
      </g>
     </g>
    </g>
    <g id="xtick_14">
     <g id="line2d_14">
      <g>
       <use style="stroke:#000000;stroke-width:0.6;" x="308.19683" xlink:href="#m59809de3be" y="388.8"/>
      </g>
     </g>
    </g>
    <g id="xtick_15">
     <g id="line2d_15">
      <g>
       <use style="stroke:#000000;stroke-width:0.6;" x="337.608934" xlink:href="#m59809de3be" y="388.8"/>
      </g>
     </g>
    </g>
    <g id="xtick_16">
     <g id="line2d_16">
      <g>
       <use style="stroke:#000000;stroke-width:0.6;" x="367.021037" xlink:href="#m59809de3be" y="388.8"/>
      </g>
     </g>
    </g>
    <g id="xtick_17">
     <g id="line2d_17">
      <g>
       <use style="stroke:#000000;stroke-width:0.6;" x="396.433141" xlink:href="#m59809de3be" y="388.8"/>
      </g>
     </g>
    </g>
    <g id="xtick_18">
     <g id="line2d_18">
      <g>
       <use style="stroke:#000000;stroke-width:0.6;" x="425.845245" xlink:href="#m59809de3be" y="388.8"/>
      </g>
     </g>
    </g>
    <g id="xtick_19">
     <g id="line2d_19">
      <g>
       <use style="stroke:#000000;stroke-width:0.6;" x="455.257349" xlink:href="#m59809de3be" y="388.8"/>
      </g>
     </g>
    </g>
    <g id="xtick_20">
     <g id="line2d_20">
      <g>
       <use style="stroke:#000000;stroke-width:0.6;" x="484.669452" xlink:href="#m59809de3be" y="388.8"/>
      </g>
     </g>
    </g>
    <g id="xtick_21">
     <g id="line2d_21">
      <g>
       <use style="stroke:#000000;stroke-width:0.6;" x="514.081556" xlink:href="#m59809de3be" y="388.8"/>
      </g>
     </g>
    </g>
    <g id="xtick_22">
     <g id="line2d_22">
      <g>
       <use style="stroke:#000000;stroke-width:0.6;" x="543.49366" xlink:href="#m59809de3be" y="388.8"/>
      </g>
     </g>
    </g>
    <g id="xtick_23">
     <g id="line2d_23">
      <g>
       <use style="stroke:#000000;stroke-width:0.6;" x="572.905764" xlink:href="#m59809de3be" y="388.8"/>
      </g>
     </g>
    </g>
    <g id="xtick_24">
     <g id="line2d_24">
      <g>
       <use style="stroke:#000000;stroke-width:0.6;" x="602.317867" xlink:href="#m59809de3be" y="388.8"/>
      </g>
     </g>
    </g>
    <g id="xtick_25">
     <g id="line2d_25">
      <g>
       <use style="stroke:#000000;stroke-width:0.6;" x="631.729971" xlink:href="#m59809de3be" y="388.8"/>
      </g>
     </g>
    </g>
    <g id="xtick_26">
     <g id="line2d_26">
      <g>
       <use style="stroke:#000000;stroke-width:0.6;" x="661.142075" xlink:href="#m59809de3be" y="388.8"/>
      </g>
     </g>
    </g>
    <g id="xtick_27">
     <g id="line2d_27">
      <g>
       <use style="stroke:#000000;stroke-width:0.6;" x="690.554179" xlink:href="#m59809de3be" y="388.8"/>
      </g>
     </g>
    </g>
    <g id="xtick_28">
     <g id="line2d_28">
      <g>
       <use style="stroke:#000000;stroke-width:0.6;" x="719.966282" xlink:href="#m59809de3be" y="388.8"/>
      </g>
     </g>
    </g>
    <g id="xtick_29">
     <g id="line2d_29">
      <g>
       <use style="stroke:#000000;stroke-width:0.6;" x="749.378386" xlink:href="#m59809de3be" y="388.8"/>
      </g>
     </g>
    </g>
    <g id="xtick_30">
     <g id="line2d_30">
      <g>
       <use style="stroke:#000000;stroke-width:0.6;" x="778.79049" xlink:href="#m59809de3be" y="388.8"/>
      </g>
     </g>
    </g>
    <g id="xtick_31">
     <g id="line2d_31">
      <g>
       <use style="stroke:#000000;stroke-width:0.6;" x="808.202594" xlink:href="#m59809de3be" y="388.8"/>
      </g>
     </g>
    </g>
    <g id="xtick_32">
     <g id="line2d_32">
      <g>
       <use style="stroke:#000000;stroke-width:0.6;" x="837.614697" xlink:href="#m59809de3be" y="388.8"/>
      </g>
     </g>
    </g>
    <g id="xtick_33">
     <g id="line2d_33">
      <g>
       <use style="stroke:#000000;stroke-width:0.6;" x="867.026801" xlink:href="#m59809de3be" y="388.8"/>
      </g>
     </g>
    </g>
    <g id="xtick_34">
     <g id="line2d_34">
      <g>
       <use style="stroke:#000000;stroke-width:0.6;" x="896.438905" xlink:href="#m59809de3be" y="388.8"/>
      </g>
     </g>
    </g>
   </g>
   <g id="matplotlib.axis_2">
    <g id="ytick_1">
     <g id="line2d_35">
      <path clip-path="url(#p72cff4d065)" d="M 72.9 371.503793 
L 923.4 371.503793 
" style="fill:none;stroke:#000000;stroke-dasharray:0.8,1.32;stroke-dashoffset:0;stroke-width:0.8;"/>
     </g>
     <g id="line2d_36">
      <defs>
       <path d="M 0 0 
L -3.5 0 
" id="m92490a7f98" style="stroke:#000000;stroke-width:0.8;"/>
      </defs>
      <g>
       <use style="stroke:#000000;stroke-width:0.8;" x="72.9" xlink:href="#m92490a7f98" y="371.503793"/>
      </g>
     </g>
     <g id="text_6">
      <!-- −4 -->
      <defs>
       <path d="M 10.59375 35.5 
L 73.1875 35.5 
L 73.1875 27.203125 
L 10.59375 27.203125 
z
" id="DejaVuSans-2212"/>
      </defs>
      <g transform="translate(45.760937 376.822699)scale(0.14 -0.14)">
       <use xlink:href="#DejaVuSans-2212"/>
       <use x="83.789062" xlink:href="#DejaVuSans-34"/>
      </g>
     </g>
    </g>
    <g id="ytick_2">
     <g id="line2d_37">
      <path clip-path="url(#p72cff4d065)" d="M 72.9 329.386416 
L 923.4 329.386416 
" style="fill:none;stroke:#000000;stroke-dasharray:0.8,1.32;stroke-dashoffset:0;stroke-width:0.8;"/>
     </g>
     <g id="line2d_38">
      <g>
       <use style="stroke:#000000;stroke-width:0.8;" x="72.9" xlink:href="#m92490a7f98" y="329.386416"/>
      </g>
     </g>
     <g id="text_7">
      <!-- −3 -->
      <defs>
       <path d="M 40.578125 39.3125 
Q 47.65625 37.796875 51.625 33 
Q 55.609375 28.21875 55.609375 21.1875 
Q 55.609375 10.40625 48.1875 4.484375 
Q 40.765625 -1.421875 27.09375 -1.421875 
Q 22.515625 -1.421875 17.65625 -0.515625 
Q 12.796875 0.390625 7.625 2.203125 
L 7.625 11.71875 
Q 11.71875 9.328125 16.59375 8.109375 
Q 21.484375 6.890625 26.8125 6.890625 
Q 36.078125 6.890625 40.9375 10.546875 
Q 45.796875 14.203125 45.796875 21.1875 
Q 45.796875 27.640625 41.28125 31.265625 
Q 36.765625 34.90625 28.71875 34.90625 
L 20.21875 34.90625 
L 20.21875 43.015625 
L 29.109375 43.015625 
Q 36.375 43.015625 40.234375 45.921875 
Q 44.09375 48.828125 44.09375 54.296875 
Q 44.09375 59.90625 40.109375 62.90625 
Q 36.140625 65.921875 28.71875 65.921875 
Q 24.65625 65.921875 20.015625 65.03125 
Q 15.375 64.15625 9.8125 62.3125 
L 9.8125 71.09375 
Q 15.4375 72.65625 20.34375 73.4375 
Q 25.25 74.21875 29.59375 74.21875 
Q 40.828125 74.21875 47.359375 69.109375 
Q 53.90625 64.015625 53.90625 55.328125 
Q 53.90625 49.265625 50.4375 45.09375 
Q 46.96875 40.921875 40.578125 39.3125 
z
" id="DejaVuSans-33"/>
      </defs>
      <g transform="translate(45.760937 334.705323)scale(0.14 -0.14)">
       <use xlink:href="#DejaVuSans-2212"/>
       <use x="83.789062" xlink:href="#DejaVuSans-33"/>
      </g>
     </g>
    </g>
    <g id="ytick_3">
     <g id="line2d_39">
      <path clip-path="url(#p72cff4d065)" d="M 72.9 287.26904 
L 923.4 287.26904 
" style="fill:none;stroke:#000000;stroke-dasharray:0.8,1.32;stroke-dashoffset:0;stroke-width:0.8;"/>
     </g>
     <g id="line2d_40">
      <g>
       <use style="stroke:#000000;stroke-width:0.8;" x="72.9" xlink:href="#m92490a7f98" y="287.26904"/>
      </g>
     </g>
     <g id="text_8">
      <!-- −2 -->
      <g transform="translate(45.760937 292.587946)scale(0.14 -0.14)">
       <use xlink:href="#DejaVuSans-2212"/>
       <use x="83.789062" xlink:href="#DejaVuSans-32"/>
      </g>
     </g>
    </g>
    <g id="ytick_4">
     <g id="line2d_41">
      <path clip-path="url(#p72cff4d065)" d="M 72.9 245.151663 
L 923.4 245.151663 
" style="fill:none;stroke:#000000;stroke-dasharray:0.8,1.32;stroke-dashoffset:0;stroke-width:0.8;"/>
     </g>
     <g id="line2d_42">
      <g>
       <use style="stroke:#000000;stroke-width:0.8;" x="72.9" xlink:href="#m92490a7f98" y="245.151663"/>
      </g>
     </g>
     <g id="text_9">
      <!-- −1 -->
      <g transform="translate(45.760937 250.47057)scale(0.14 -0.14)">
       <use xlink:href="#DejaVuSans-2212"/>
       <use x="83.789062" xlink:href="#DejaVuSans-31"/>
      </g>
     </g>
    </g>
    <g id="ytick_5">
     <g id="line2d_43">
      <path clip-path="url(#p72cff4d065)" d="M 72.9 203.034287 
L 923.4 203.034287 
" style="fill:none;stroke:#000000;stroke-dasharray:0.8,1.32;stroke-dashoffset:0;stroke-width:0.8;"/>
     </g>
     <g id="line2d_44">
      <g>
       <use style="stroke:#000000;stroke-width:0.8;" x="72.9" xlink:href="#m92490a7f98" y="203.034287"/>
      </g>
     </g>
     <g id="text_10">
      <!-- 0 -->
      <g transform="translate(57.4925 208.353193)scale(0.14 -0.14)">
       <use xlink:href="#DejaVuSans-30"/>
      </g>
     </g>
    </g>
    <g id="ytick_6">
     <g id="line2d_45">
      <path clip-path="url(#p72cff4d065)" d="M 72.9 160.916911 
L 923.4 160.916911 
" style="fill:none;stroke:#000000;stroke-dasharray:0.8,1.32;stroke-dashoffset:0;stroke-width:0.8;"/>
     </g>
     <g id="line2d_46">
      <g>
       <use style="stroke:#000000;stroke-width:0.8;" x="72.9" xlink:href="#m92490a7f98" y="160.916911"/>
      </g>
     </g>
     <g id="text_11">
      <!-- 1 -->
      <g transform="translate(57.4925 166.235817)scale(0.14 -0.14)">
       <use xlink:href="#DejaVuSans-31"/>
      </g>
     </g>
    </g>
    <g id="ytick_7">
     <g id="line2d_47">
      <path clip-path="url(#p72cff4d065)" d="M 72.9 118.799534 
L 923.4 118.799534 
" style="fill:none;stroke:#000000;stroke-dasharray:0.8,1.32;stroke-dashoffset:0;stroke-width:0.8;"/>
     </g>
     <g id="line2d_48">
      <g>
       <use style="stroke:#000000;stroke-width:0.8;" x="72.9" xlink:href="#m92490a7f98" y="118.799534"/>
      </g>
     </g>
     <g id="text_12">
      <!-- 2 -->
      <g transform="translate(57.4925 124.11844)scale(0.14 -0.14)">
       <use xlink:href="#DejaVuSans-32"/>
      </g>
     </g>
    </g>
    <g id="ytick_8">
     <g id="line2d_49">
      <path clip-path="url(#p72cff4d065)" d="M 72.9 76.682158 
L 923.4 76.682158 
" style="fill:none;stroke:#000000;stroke-dasharray:0.8,1.32;stroke-dashoffset:0;stroke-width:0.8;"/>
     </g>
     <g id="line2d_50">
      <g>
       <use style="stroke:#000000;stroke-width:0.8;" x="72.9" xlink:href="#m92490a7f98" y="76.682158"/>
      </g>
     </g>
     <g id="text_13">
      <!-- 3 -->
      <g transform="translate(57.4925 82.001064)scale(0.14 -0.14)">
       <use xlink:href="#DejaVuSans-33"/>
      </g>
     </g>
    </g>
    <g id="text_14">
     <!-- Percentage point -->
     <defs>
      <path d="M 19.671875 64.796875 
L 19.671875 37.40625 
L 32.078125 37.40625 
Q 38.96875 37.40625 42.71875 40.96875 
Q 46.484375 44.53125 46.484375 51.125 
Q 46.484375 57.671875 42.71875 61.234375 
Q 38.96875 64.796875 32.078125 64.796875 
z
M 9.8125 72.90625 
L 32.078125 72.90625 
Q 44.34375 72.90625 50.609375 67.359375 
Q 56.890625 61.8125 56.890625 51.125 
Q 56.890625 40.328125 50.609375 34.8125 
Q 44.34375 29.296875 32.078125 29.296875 
L 19.671875 29.296875 
L 19.671875 0 
L 9.8125 0 
z
" id="DejaVuSans-50"/>
      <path d="M 56.203125 29.59375 
L 56.203125 25.203125 
L 14.890625 25.203125 
Q 15.484375 15.921875 20.484375 11.0625 
Q 25.484375 6.203125 34.421875 6.203125 
Q 39.59375 6.203125 44.453125 7.46875 
Q 49.3125 8.734375 54.109375 11.28125 
L 54.109375 2.78125 
Q 49.265625 0.734375 44.1875 -0.34375 
Q 39.109375 -1.421875 33.890625 -1.421875 
Q 20.796875 -1.421875 13.15625 6.1875 
Q 5.515625 13.8125 5.515625 26.8125 
Q 5.515625 40.234375 12.765625 48.109375 
Q 20.015625 56 32.328125 56 
Q 43.359375 56 49.78125 48.890625 
Q 56.203125 41.796875 56.203125 29.59375 
z
M 47.21875 32.234375 
Q 47.125 39.59375 43.09375 43.984375 
Q 39.0625 48.390625 32.421875 48.390625 
Q 24.90625 48.390625 20.390625 44.140625 
Q 15.875 39.890625 15.1875 32.171875 
z
" id="DejaVuSans-65"/>
      <path d="M 41.109375 46.296875 
Q 39.59375 47.171875 37.8125 47.578125 
Q 36.03125 48 33.890625 48 
Q 26.265625 48 22.1875 43.046875 
Q 18.109375 38.09375 18.109375 28.8125 
L 18.109375 0 
L 9.078125 0 
L 9.078125 54.6875 
L 18.109375 54.6875 
L 18.109375 46.1875 
Q 20.953125 51.171875 25.484375 53.578125 
Q 30.03125 56 36.53125 56 
Q 37.453125 56 38.578125 55.875 
Q 39.703125 55.765625 41.0625 55.515625 
z
" id="DejaVuSans-72"/>
      <path d="M 48.78125 52.59375 
L 48.78125 44.1875 
Q 44.96875 46.296875 41.140625 47.34375 
Q 37.3125 48.390625 33.40625 48.390625 
Q 24.65625 48.390625 19.8125 42.84375 
Q 14.984375 37.3125 14.984375 27.296875 
Q 14.984375 17.28125 19.8125 11.734375 
Q 24.65625 6.203125 33.40625 6.203125 
Q 37.3125 6.203125 41.140625 7.25 
Q 44.96875 8.296875 48.78125 10.40625 
L 48.78125 2.09375 
Q 45.015625 0.34375 40.984375 -0.53125 
Q 36.96875 -1.421875 32.421875 -1.421875 
Q 20.0625 -1.421875 12.78125 6.34375 
Q 5.515625 14.109375 5.515625 27.296875 
Q 5.515625 40.671875 12.859375 48.328125 
Q 20.21875 56 33.015625 56 
Q 37.15625 56 41.109375 55.140625 
Q 45.0625 54.296875 48.78125 52.59375 
z
" id="DejaVuSans-63"/>
      <path d="M 54.890625 33.015625 
L 54.890625 0 
L 45.90625 0 
L 45.90625 32.71875 
Q 45.90625 40.484375 42.875 44.328125 
Q 39.84375 48.1875 33.796875 48.1875 
Q 26.515625 48.1875 22.3125 43.546875 
Q 18.109375 38.921875 18.109375 30.90625 
L 18.109375 0 
L 9.078125 0 
L 9.078125 54.6875 
L 18.109375 54.6875 
L 18.109375 46.1875 
Q 21.34375 51.125 25.703125 53.5625 
Q 30.078125 56 35.796875 56 
Q 45.21875 56 50.046875 50.171875 
Q 54.890625 44.34375 54.890625 33.015625 
z
" id="DejaVuSans-6e"/>
      <path d="M 18.3125 70.21875 
L 18.3125 54.6875 
L 36.8125 54.6875 
L 36.8125 47.703125 
L 18.3125 47.703125 
L 18.3125 18.015625 
Q 18.3125 11.328125 20.140625 9.421875 
Q 21.96875 7.515625 27.59375 7.515625 
L 36.8125 7.515625 
L 36.8125 0 
L 27.59375 0 
Q 17.1875 0 13.234375 3.875 
Q 9.28125 7.765625 9.28125 18.015625 
L 9.28125 47.703125 
L 2.6875 47.703125 
L 2.6875 54.6875 
L 9.28125 54.6875 
L 9.28125 70.21875 
z
" id="DejaVuSans-74"/>
      <path d="M 34.28125 27.484375 
Q 23.390625 27.484375 19.1875 25 
Q 14.984375 22.515625 14.984375 16.5 
Q 14.984375 11.71875 18.140625 8.90625 
Q 21.296875 6.109375 26.703125 6.109375 
Q 34.1875 6.109375 38.703125 11.40625 
Q 43.21875 16.703125 43.21875 25.484375 
L 43.21875 27.484375 
z
M 52.203125 31.203125 
L 52.203125 0 
L 43.21875 0 
L 43.21875 8.296875 
Q 40.140625 3.328125 35.546875 0.953125 
Q 30.953125 -1.421875 24.3125 -1.421875 
Q 15.921875 -1.421875 10.953125 3.296875 
Q 6 8.015625 6 15.921875 
Q 6 25.140625 12.171875 29.828125 
Q 18.359375 34.515625 30.609375 34.515625 
L 43.21875 34.515625 
L 43.21875 35.40625 
Q 43.21875 41.609375 39.140625 45 
Q 35.0625 48.390625 27.6875 48.390625 
Q 23 48.390625 18.546875 47.265625 
Q 14.109375 46.140625 10.015625 43.890625 
L 10.015625 52.203125 
Q 14.9375 54.109375 19.578125 55.046875 
Q 24.21875 56 28.609375 56 
Q 40.484375 56 46.34375 49.84375 
Q 52.203125 43.703125 52.203125 31.203125 
z
" id="DejaVuSans-61"/>
      <path d="M 45.40625 27.984375 
Q 45.40625 37.75 41.375 43.109375 
Q 37.359375 48.484375 30.078125 48.484375 
Q 22.859375 48.484375 18.828125 43.109375 
Q 14.796875 37.75 14.796875 27.984375 
Q 14.796875 18.265625 18.828125 12.890625 
Q 22.859375 7.515625 30.078125 7.515625 
Q 37.359375 7.515625 41.375 12.890625 
Q 45.40625 18.265625 45.40625 27.984375 
z
M 54.390625 6.78125 
Q 54.390625 -7.171875 48.1875 -13.984375 
Q 42 -20.796875 29.203125 -20.796875 
Q 24.46875 -20.796875 20.265625 -20.09375 
Q 16.0625 -19.390625 12.109375 -17.921875 
L 12.109375 -9.1875 
Q 16.0625 -11.328125 19.921875 -12.34375 
Q 23.78125 -13.375 27.78125 -13.375 
Q 36.625 -13.375 41.015625 -8.765625 
Q 45.40625 -4.15625 45.40625 5.171875 
L 45.40625 9.625 
Q 42.625 4.78125 38.28125 2.390625 
Q 33.9375 0 27.875 0 
Q 17.828125 0 11.671875 7.65625 
Q 5.515625 15.328125 5.515625 27.984375 
Q 5.515625 40.671875 11.671875 48.328125 
Q 17.828125 56 27.875 56 
Q 33.9375 56 38.28125 53.609375 
Q 42.625 51.21875 45.40625 46.390625 
L 45.40625 54.6875 
L 54.390625 54.6875 
z
" id="DejaVuSans-67"/>
      <path id="DejaVuSans-20"/>
      <path d="M 18.109375 8.203125 
L 18.109375 -20.796875 
L 9.078125 -20.796875 
L 9.078125 54.6875 
L 18.109375 54.6875 
L 18.109375 46.390625 
Q 20.953125 51.265625 25.265625 53.625 
Q 29.59375 56 35.59375 56 
Q 45.5625 56 51.78125 48.09375 
Q 58.015625 40.1875 58.015625 27.296875 
Q 58.015625 14.40625 51.78125 6.484375 
Q 45.5625 -1.421875 35.59375 -1.421875 
Q 29.59375 -1.421875 25.265625 0.953125 
Q 20.953125 3.328125 18.109375 8.203125 
z
M 48.6875 27.296875 
Q 48.6875 37.203125 44.609375 42.84375 
Q 40.53125 48.484375 33.40625 48.484375 
Q 26.265625 48.484375 22.1875 42.84375 
Q 18.109375 37.203125 18.109375 27.296875 
Q 18.109375 17.390625 22.1875 11.75 
Q 26.265625 6.109375 33.40625 6.109375 
Q 40.53125 6.109375 44.609375 11.75 
Q 48.6875 17.390625 48.6875 27.296875 
z
" id="DejaVuSans-70"/>
      <path d="M 30.609375 48.390625 
Q 23.390625 48.390625 19.1875 42.75 
Q 14.984375 37.109375 14.984375 27.296875 
Q 14.984375 17.484375 19.15625 11.84375 
Q 23.34375 6.203125 30.609375 6.203125 
Q 37.796875 6.203125 41.984375 11.859375 
Q 46.1875 17.53125 46.1875 27.296875 
Q 46.1875 37.015625 41.984375 42.703125 
Q 37.796875 48.390625 30.609375 48.390625 
z
M 30.609375 56 
Q 42.328125 56 49.015625 48.375 
Q 55.71875 40.765625 55.71875 27.296875 
Q 55.71875 13.875 49.015625 6.21875 
Q 42.328125 -1.421875 30.609375 -1.421875 
Q 18.84375 -1.421875 12.171875 6.21875 
Q 5.515625 13.875 5.515625 27.296875 
Q 5.515625 40.765625 12.171875 48.375 
Q 18.84375 56 30.609375 56 
z
" id="DejaVuSans-6f"/>
      <path d="M 9.421875 54.6875 
L 18.40625 54.6875 
L 18.40625 0 
L 9.421875 0 
z
M 9.421875 75.984375 
L 18.40625 75.984375 
L 18.40625 64.59375 
L 9.421875 64.59375 
z
" id="DejaVuSans-69"/>
     </defs>
     <g transform="translate(38.849375 280.174375)rotate(-90)scale(0.14 -0.14)">
      <use xlink:href="#DejaVuSans-50"/>
      <use x="60.255859" xlink:href="#DejaVuSans-65"/>
      <use x="121.779297" xlink:href="#DejaVuSans-72"/>
      <use x="162.861328" xlink:href="#DejaVuSans-63"/>
      <use x="217.841797" xlink:href="#DejaVuSans-65"/>
      <use x="279.365234" xlink:href="#DejaVuSans-6e"/>
      <use x="342.744141" xlink:href="#DejaVuSans-74"/>
      <use x="381.953125" xlink:href="#DejaVuSans-61"/>
      <use x="443.232422" xlink:href="#DejaVuSans-67"/>
      <use x="506.708984" xlink:href="#DejaVuSans-65"/>
      <use x="568.232422" xlink:href="#DejaVuSans-20"/>
      <use x="600.019531" xlink:href="#DejaVuSans-70"/>
      <use x="663.496094" xlink:href="#DejaVuSans-6f"/>
      <use x="724.677734" xlink:href="#DejaVuSans-69"/>
      <use x="752.460938" xlink:href="#DejaVuSans-6e"/>
      <use x="815.839844" xlink:href="#DejaVuSans-74"/>
     </g>
    </g>
   </g>
   <g id="line2d_51">
    <path clip-path="url(#p72cff4d065)" d="M 75.351009 190.934385 
L 77.802017 190.599905 
L 80.253026 196.193246 
L 82.704035 192.756643 
L 85.155043 202.038093 
L 87.606052 200.420667 
L 90.057061 196.958298 
L 92.508069 201.886441 
L 94.959078 202.283651 
L 97.410086 203.006596 
L 99.861095 203.544679 
L 102.312104 209.832983 
L 104.763112 209.977619 
L 107.214121 206.766623 
L 109.66513 201.907066 
L 112.116138 212.076721 
L 114.567147 210.846598 
L 117.018156 216.882962 
L 119.469164 219.446274 
L 121.920173 211.141181 
L 124.371182 214.156486 
L 126.82219 215.185203 
L 129.273199 218.044571 
L 131.724207 207.19148 
L 134.175216 210.032966 
L 136.626225 203.321845 
L 139.077233 200.313035 
L 141.528242 196.397325 
L 143.979251 191.292577 
L 146.430259 191.394822 
L 148.881268 193.097084 
L 151.332277 198.602797 
L 153.783285 212.028858 
L 156.234294 205.578547 
L 158.685303 205.472662 
L 161.136311 211.380739 
L 163.58732 212.21936 
L 166.038329 211.192706 
L 168.489337 213.64751 
L 170.940346 201.08862 
L 173.391354 200.352188 
L 175.842363 202.99596 
L 178.293372 200.797488 
L 180.74438 211.177873 
L 183.195389 207.24456 
L 185.646398 206.856964 
L 188.097406 204.319885 
L 190.548415 192.509624 
L 192.999424 192.902807 
L 195.450432 200.436292 
L 197.901441 197.834294 
L 200.35245 196.543717 
L 202.803458 203.819512 
L 205.254467 204.230024 
L 207.705476 193.523808 
L 210.156484 193.322586 
L 212.607493 189.018939 
L 215.058501 188.403211 
L 217.50951 189.371266 
L 219.960519 187.34782 
L 222.411527 187.58482 
L 224.862536 189.466241 
L 227.313545 181.220666 
L 229.764553 198.878973 
L 232.215562 199.155873 
L 234.666571 193.084979 
L 237.117579 195.858976 
L 239.568588 192.912883 
L 242.019597 193.327545 
L 246.921614 202.099892 
L 249.372622 201.650262 
L 251.823631 196.499179 
L 254.27464 193.784954 
L 256.725648 191.488808 
L 259.176657 188.544839 
L 261.627666 190.452605 
L 264.078674 180.678703 
L 266.529683 188.392907 
L 268.980692 181.728082 
L 271.4317 176.200266 
L 273.882709 177.065017 
L 276.333718 177.272496 
L 278.784726 179.185603 
L 281.235735 181.786293 
L 283.686744 173.313996 
L 286.137752 172.961445 
L 288.588761 173.024465 
L 291.039769 173.45484 
L 293.490778 170.249577 
L 295.941787 170.084034 
L 298.392795 171.767919 
L 300.843804 175.369847 
L 303.294813 171.005579 
L 305.745821 169.178 
L 308.19683 172.362189 
L 310.647839 174.239019 
L 313.098847 173.722965 
L 315.549856 178.031792 
L 318.000865 175.781899 
L 320.451873 176.63153 
L 322.902882 176.453503 
L 325.35389 179.714359 
L 327.804899 168.049424 
L 330.255908 171.217655 
L 332.706916 171.67867 
L 335.157925 168.768078 
L 337.608934 167.398399 
L 340.059942 170.253275 
L 342.510951 177.302036 
L 344.96196 175.371626 
L 347.412968 174.966998 
L 349.863977 173.26614 
L 352.314986 173.70231 
L 354.765994 176.743614 
L 357.217003 175.903695 
L 359.668012 175.859645 
L 362.11902 173.209203 
L 364.570029 172.39689 
L 367.021037 165.214134 
L 369.472046 163.68894 
L 371.923055 166.751078 
L 374.374063 163.740639 
L 376.825072 173.923558 
L 379.276081 172.905023 
L 381.727089 181.88126 
L 384.178098 180.369133 
L 386.629107 183.576479 
L 389.080115 184.703985 
L 391.531124 179.810437 
L 393.982133 176.740708 
L 396.433141 167.870638 
L 398.88415 172.760468 
L 401.335159 170.949939 
L 403.786167 180.813836 
L 406.237176 188.4606 
L 408.688184 190.53428 
L 411.139193 187.736541 
L 413.590202 198.109645 
L 416.04121 187.524026 
L 418.492219 188.725071 
L 420.943228 188.487627 
L 423.394236 189.814521 
L 425.845245 200.502452 
L 428.296254 187.562554 
L 430.747262 192.991562 
L 433.198271 190.609686 
L 435.64928 188.962363 
L 438.100288 194.195549 
L 440.551297 197.153937 
L 443.002305 196.19431 
L 445.453314 188.799829 
L 450.355331 204.351191 
L 452.80634 206.323263 
L 455.257349 204.324493 
L 457.708357 203.973916 
L 460.159366 208.028118 
L 462.610375 202.212284 
L 465.061383 204.605165 
L 467.512392 197.127051 
L 469.963401 211.011059 
L 472.414409 214.98173 
L 474.865418 216.782569 
L 477.316427 216.525423 
L 479.767435 214.149041 
L 482.218444 222.151676 
L 484.669452 215.652451 
L 487.120461 220.625504 
L 489.57147 218.58804 
L 492.022478 222.949519 
L 494.473487 221.522229 
L 496.924496 216.887396 
L 499.375504 215.341118 
L 501.826513 220.931739 
L 504.277522 227.009653 
L 509.179539 218.907701 
L 511.630548 223.555972 
L 514.081556 226.55019 
L 516.532565 222.78782 
L 518.983573 224.705584 
L 521.434582 217.209139 
L 523.885591 213.798932 
L 526.336599 217.193168 
L 528.787608 216.557486 
L 531.238617 213.396793 
L 533.689625 213.488384 
L 536.140634 215.881435 
L 538.591643 217.684445 
L 541.042651 221.029546 
L 543.49366 219.205333 
L 545.944669 213.872806 
L 548.395677 213.273379 
L 550.846686 214.7655 
L 553.297695 214.090867 
L 555.748703 211.801581 
L 558.199712 214.313301 
L 560.65072 211.182138 
L 563.101729 215.236237 
L 568.003746 207.49223 
L 570.454755 203.988436 
L 572.905764 203.034287 
L 575.356772 208.194779 
L 577.807781 209.365564 
L 580.25879 223.232723 
L 582.709798 221.691861 
L 585.160807 217.717231 
L 587.611816 220.437522 
L 590.062824 228.985392 
L 592.513833 219.92835 
L 594.964841 227.14284 
L 597.41585 218.032017 
L 599.866859 219.109496 
L 602.317867 210.041686 
L 604.768876 219.759465 
L 607.219885 217.369013 
L 609.670893 222.301311 
L 612.121902 215.128414 
L 614.572911 217.600048 
L 617.023919 217.603669 
L 619.474928 217.396838 
L 621.925937 221.676164 
L 624.376945 219.166561 
L 626.827954 225.980782 
L 629.278963 228.130633 
L 631.729971 232.620305 
L 634.18098 228.777242 
L 636.631988 238.083869 
L 639.082997 233.524219 
L 641.534006 231.393195 
L 643.985014 234.320025 
L 646.436023 240.661779 
L 648.887032 246.694184 
L 651.33804 257.97998 
L 653.789049 261.388007 
L 656.240058 261.947898 
L 658.691066 277.674029 
L 661.142075 269.994933 
L 663.593084 268.163279 
L 666.044092 265.417878 
L 668.495101 255.503959 
L 670.94611 266.902415 
L 673.397118 277.514976 
L 675.848127 278.45786 
L 678.299135 273.870629 
L 680.750144 278.371222 
L 683.201153 286.747457 
L 685.652161 280.204532 
L 688.10317 290.577311 
L 690.554179 295.28851 
L 693.005187 297.816833 
L 697.907205 295.35529 
L 700.358213 298.368672 
L 702.809222 302.703966 
L 705.260231 305.766151 
L 707.711239 299.71826 
L 710.162248 295.458685 
L 712.613256 300.66069 
L 715.064265 299.661075 
L 717.515274 303.605378 
L 719.966282 315.645027 
L 722.417291 312.455724 
L 724.8683 312.962336 
L 727.319308 318.493052 
L 729.770317 314.93689 
L 732.221326 313.27589 
L 734.672334 317.786903 
L 737.123343 323.337389 
L 742.02536 314.244169 
L 744.476369 320.076664 
L 746.927378 317.008003 
L 749.378386 318.11578 
L 751.829395 327.681354 
L 754.280403 334.780255 
L 756.731412 330.03699 
L 759.182421 329.662044 
L 761.633429 328.05732 
L 764.084438 332.840953 
L 766.535447 334.960779 
L 768.986455 335.802933 
L 771.437464 355.445743 
L 773.888473 347.32172 
L 776.339481 350.658037 
L 778.79049 349.485963 
L 781.241499 348.439225 
L 783.692507 340.380438 
L 786.143516 354.319256 
L 788.594524 353.535711 
L 791.045533 352.573152 
L 793.496542 350.22935 
L 795.94755 350.510628 
L 798.398559 354.62127 
L 800.849568 350.683246 
L 803.300576 351.465783 
L 805.751585 356.005644 
L 808.202594 350.515392 
L 810.653602 357.932164 
L 813.104611 359.513493 
L 815.55562 356.46048 
L 818.006628 351.766383 
L 820.457637 360.321005 
L 822.908646 363.159818 
L 825.359654 363.838417 
L 827.810663 373.483636 
L 830.261671 368.411151 
L 832.71268 365.60156 
L 835.163689 357.413211 
L 837.614697 356.492398 
L 842.516715 345.941961 
L 844.967723 353.594565 
L 847.418732 362.518161 
L 849.869741 357.13283 
L 852.320749 355.620071 
L 854.771758 352.963669 
L 857.222767 351.785526 
L 859.673775 354.743091 
L 862.124784 359.59364 
L 864.575793 358.524903 
L 867.026801 351.956961 
L 869.47781 349.03251 
L 871.928818 346.853123 
L 874.379827 349.553293 
L 876.830836 358.893615 
L 879.281844 352.849538 
L 881.732853 350.685637 
L 884.183862 350.661811 
L 886.63487 344.804022 
L 889.085879 358.641784 
L 891.536888 357.858045 
L 893.987896 358.455876 
L 896.438905 356.867054 
L 898.889914 345.222351 
L 901.340922 349.514134 
L 903.791931 355.169882 
L 906.242939 356.842901 
L 908.693948 348.94653 
L 911.144957 349.297622 
L 913.595965 359.241968 
L 916.046974 359.085767 
L 918.497983 349.789964 
L 920.948991 349.601453 
L 920.948991 349.601453 
" style="fill:none;stroke:#000000;stroke-linecap:square;stroke-width:3;"/>
   </g>
   <g id="line2d_52">
    <path clip-path="url(#p72cff4d065)" d="M 77.802017 199.084731 
L 80.253026 198.148169 
L 82.704035 186.871001 
L 85.155043 184.705935 
L 87.606052 181.227304 
L 90.057061 171.574739 
L 92.508069 168.206705 
L 94.959078 162.868819 
L 97.410086 160.465864 
L 99.861095 154.93895 
L 102.312104 152.761784 
L 104.763112 144.672173 
L 107.214121 137.110212 
L 109.66513 126.279675 
L 112.116138 128.753903 
L 114.567147 125.417142 
L 117.018156 123.530087 
L 119.469164 120.11167 
L 121.920173 112.861138 
L 124.371182 111.054816 
L 126.82219 105.013354 
L 129.273199 101.128942 
L 134.175216 86.50904 
L 136.626225 80.367944 
L 139.077233 75.774711 
L 141.528242 74.998225 
L 143.979251 69.356895 
L 146.430259 68.807841 
L 148.881268 67.156364 
L 151.332277 69.260996 
L 153.783285 77.315396 
L 156.234294 73.043347 
L 158.685303 74.241699 
L 161.136311 76.140278 
L 163.58732 81.583327 
L 166.038329 79.615947 
L 168.489337 80.822424 
L 170.940346 74.637671 
L 173.391354 69.679019 
L 175.842363 69.350393 
L 178.293372 70.080069 
L 180.74438 78.829296 
L 183.195389 76.039469 
L 185.646398 76.023352 
L 188.097406 77.997037 
L 190.548415 77.224581 
L 192.999424 87.963214 
L 195.450432 100.961924 
L 197.901441 102.463871 
L 200.35245 104.621367 
L 202.803458 112.852044 
L 205.254467 115.98164 
L 207.705476 113.943367 
L 212.607493 113.572811 
L 215.058501 117.382198 
L 217.50951 124.065987 
L 219.960519 125.771946 
L 222.411527 121.939043 
L 224.862536 121.297552 
L 227.313545 122.166905 
L 229.764553 130.109777 
L 232.215562 132.856401 
L 234.666571 131.114432 
L 239.568588 134.461412 
L 242.019597 137.296771 
L 244.470605 139.847894 
L 246.921614 137.546363 
L 249.372622 133.803642 
L 251.823631 133.285002 
L 254.27464 131.686077 
L 256.725648 127.662489 
L 259.176657 126.486718 
L 261.627666 127.277027 
L 264.078674 125.895648 
L 266.529683 127.651569 
L 268.980692 123.80551 
L 271.4317 118.459769 
L 273.882709 117.442328 
L 276.333718 111.957615 
L 278.784726 113.838598 
L 281.235735 115.233822 
L 283.686744 114.737708 
L 286.137752 115.760346 
L 288.588761 116.163169 
L 291.039769 116.342162 
L 293.490778 112.298997 
L 295.941787 114.446974 
L 300.843804 114.426421 
L 303.294813 113.640632 
L 305.745821 118.450508 
L 313.098847 125.911102 
L 315.549856 127.939496 
L 318.000865 127.968759 
L 320.451873 129.598113 
L 322.902882 132.518321 
L 325.35389 141.763135 
L 327.804899 144.049632 
L 330.255908 149.794255 
L 332.706916 154.715317 
L 337.608934 160.816448 
L 342.510951 166.625849 
L 344.96196 170.54543 
L 347.412968 173.216626 
L 349.863977 172.851936 
L 352.314986 176.093703 
L 354.765994 178.803808 
L 357.217003 179.23899 
L 359.668012 179.998203 
L 362.11902 179.686173 
L 364.570029 180.381626 
L 367.021037 175.792351 
L 369.472046 176.669834 
L 371.923055 178.376247 
L 374.374063 174.342124 
L 376.825072 179.762101 
L 379.276081 180.041072 
L 381.727089 180.643335 
L 384.178098 180.043309 
L 386.629107 184.01776 
L 389.080115 184.896446 
L 391.531124 185.215889 
L 393.982133 183.38678 
L 396.433141 183.44317 
L 398.88415 191.140866 
L 401.335159 191.700858 
L 403.786167 199.491876 
L 406.237176 203.963022 
L 408.688184 204.11928 
L 411.139193 204.959605 
L 413.590202 215.344849 
L 416.04121 211.555437 
L 418.492219 208.664431 
L 420.943228 202.71093 
L 423.394236 200.108431 
L 425.845245 200.152387 
L 428.296254 187.114459 
L 430.747262 187.103432 
L 433.198271 183.575662 
L 435.64928 182.942609 
L 438.100288 185.142941 
L 440.551297 185.841298 
L 443.002305 180.570492 
L 445.453314 170.536009 
L 447.904323 173.921787 
L 450.355331 178.703225 
L 452.80634 174.448322 
L 455.257349 174.898317 
L 457.708357 171.153027 
L 460.159366 173.116969 
L 462.610375 166.717958 
L 465.061383 164.087209 
L 467.512392 161.765581 
L 469.963401 167.914204 
L 472.414409 168.890806 
L 474.865418 170.081501 
L 477.316427 170.851986 
L 479.767435 169.269302 
L 482.218444 172.60446 
L 484.669452 167.843029 
L 487.120461 168.77434 
L 489.57147 171.612871 
L 492.022478 171.471622 
L 494.473487 170.646606 
L 496.924496 165.930415 
L 499.375504 167.578645 
L 501.826513 172.378202 
L 504.277522 176.392266 
L 506.72853 177.629303 
L 509.179539 175.371777 
L 511.630548 180.032725 
L 514.081556 180.484697 
L 516.532565 177.965361 
L 518.983573 178.40764 
L 521.434582 176.669407 
L 526.336599 177.494826 
L 528.787608 180.272408 
L 531.238617 178.991042 
L 533.689625 180.439623 
L 536.140634 182.928484 
L 538.591643 184.21084 
L 541.042651 191.165902 
L 543.49366 191.503203 
L 545.944669 187.254702 
L 548.395677 188.205298 
L 550.846686 193.157134 
L 553.297695 195.631724 
L 555.748703 198.589638 
L 558.199712 201.962823 
L 560.65072 202.317864 
L 563.101729 202.924321 
L 565.552738 200.710168 
L 568.003746 199.550063 
L 570.454755 200.050577 
L 572.905764 203.034287 
L 575.356772 207.773172 
L 577.807781 207.737004 
L 580.25879 211.591121 
L 582.709798 207.082243 
L 585.160807 204.378184 
L 587.611816 200.87426 
L 590.062824 204.697622 
L 592.513833 195.497121 
L 594.964841 197.950045 
L 597.41585 191.5959 
L 599.866859 188.713792 
L 602.317867 177.70452 
L 604.768876 180.796728 
L 607.219885 178.419779 
L 609.670893 177.806854 
L 612.121902 171.519834 
L 614.572911 169.806705 
L 617.023919 166.498721 
L 619.474928 161.500409 
L 621.925937 161.751204 
L 624.376945 155.516021 
L 626.827954 152.00055 
L 629.278963 149.230419 
L 631.729971 148.420774 
L 634.18098 138.460778 
L 636.631988 135.244075 
L 641.534006 118.762811 
L 643.985014 111.450495 
L 646.436023 107.889264 
L 648.887032 109.596164 
L 651.33804 107.816077 
L 653.789049 104.631082 
L 656.240058 97.400419 
L 658.691066 102.294225 
L 661.142075 97.767165 
L 663.593084 95.140905 
L 666.044092 95.913593 
L 668.495101 89.651915 
L 670.94611 95.285701 
L 673.397118 97.929996 
L 675.848127 97.391522 
L 678.299135 95.106285 
L 680.750144 95.490458 
L 683.201153 101.363393 
L 685.652161 98.695287 
L 688.10317 103.083057 
L 690.554179 106.55113 
L 693.005187 108.165348 
L 695.456196 104.334874 
L 697.907205 103.948407 
L 700.358213 105.904156 
L 702.809222 108.957733 
L 705.260231 114.614735 
L 707.711239 109.276627 
L 710.162248 109.826506 
L 715.064265 107.878959 
L 717.515274 111.908495 
L 719.966282 120.373544 
L 722.417291 117.359276 
L 724.8683 116.635683 
L 727.319308 121.376672 
L 729.770317 120.802685 
L 732.221326 120.409567 
L 734.672334 124.026486 
L 737.123343 132.901994 
L 739.574352 130.243682 
L 742.02536 130.589005 
L 744.476369 138.034624 
L 746.927378 136.845499 
L 749.378386 131.379115 
L 751.829395 138.639332 
L 754.280403 144.247416 
L 756.731412 142.510695 
L 759.182421 141.574414 
L 761.633429 143.476848 
L 764.084438 146.430975 
L 766.535447 150.576477 
L 768.986455 151.108761 
L 771.437464 164.558155 
L 773.888473 154.376975 
L 776.339481 156.114184 
L 778.79049 160.382688 
L 781.241499 159.082231 
L 783.692507 158.836285 
L 786.143516 164.282171 
L 788.594524 167.106898 
L 793.496542 167.256375 
L 795.94755 167.709031 
L 798.398559 171.103676 
L 800.849568 174.078506 
L 803.300576 177.781475 
L 805.751585 183.930825 
L 808.202594 188.324954 
L 810.653602 199.47721 
L 813.104611 205.024214 
L 815.55562 207.084056 
L 818.006628 209.926032 
L 820.457637 220.079267 
L 822.908646 226.631114 
L 825.359654 232.709849 
L 827.810663 237.066992 
L 830.261671 235.639868 
L 832.71268 233.945361 
L 835.163689 228.634334 
L 837.614697 231.239363 
L 840.065706 231.219926 
L 842.516715 226.29564 
L 844.967723 228.971339 
L 847.418732 232.231534 
L 849.869741 226.782703 
L 852.320749 223.638244 
L 854.771758 221.075024 
L 857.222767 220.169342 
L 859.673775 219.991875 
L 862.124784 227.30764 
L 864.575793 231.724475 
L 867.026801 224.494289 
L 869.47781 222.053484 
L 871.928818 221.965088 
L 874.379827 225.246383 
L 876.830836 230.945189 
L 879.281844 231.526648 
L 881.732853 233.803169 
L 884.183862 235.437433 
L 886.63487 236.097484 
L 889.085879 248.149314 
L 891.536888 248.913225 
L 893.987896 249.478199 
L 896.438905 248.838997 
L 898.889914 241.036475 
L 901.340922 242.948979 
L 903.791931 245.724129 
L 906.242939 243.266789 
L 908.693948 240.49444 
L 911.144957 242.390628 
L 913.595965 253.225609 
L 916.046974 253.581083 
L 918.497983 248.634252 
L 920.948991 249.261341 
L 920.948991 249.261341 
" style="fill:none;stroke:#000080;stroke-dasharray:11.1,4.8;stroke-dashoffset:0;stroke-width:3;"/>
   </g>
   <g id="line2d_53">
    <path clip-path="url(#p72cff4d065)" d="M 77.802017 210.232889 
L 80.253026 213.58593 
L 82.704035 217.607568 
L 85.155043 226.116992 
L 87.606052 225.135769 
L 90.057061 227.835031 
L 92.508069 232.836621 
L 94.959078 235.080653 
L 97.410086 234.948006 
L 99.861095 237.334224 
L 102.312104 242.413055 
L 104.763112 247.157916 
L 107.214121 247.502816 
L 109.66513 249.437885 
L 112.116138 254.373047 
L 114.567147 252.788688 
L 117.018156 258.046453 
L 119.469164 261.282939 
L 121.920173 257.50539 
L 124.371182 260.475677 
L 129.273199 270.295701 
L 131.724207 264.025376 
L 134.175216 272.145787 
L 136.626225 268.935707 
L 139.077233 268.727374 
L 141.528242 263.840767 
L 146.430259 261.197327 
L 148.881268 262.926711 
L 151.332277 264.829233 
L 153.783285 268.571058 
L 156.234294 265.442979 
L 158.685303 263.504386 
L 161.136311 266.954976 
L 163.58732 262.187887 
L 166.038329 262.894462 
L 168.489337 264.168924 
L 170.940346 258.067023 
L 173.391354 262.787727 
L 175.842363 266.133531 
L 178.293372 263.815096 
L 180.74438 266.277824 
L 183.195389 265.69522 
L 185.646398 266.055997 
L 188.097406 262.74107 
L 190.548415 253.090687 
L 192.999424 244.225581 
L 195.450432 240.130554 
L 197.901441 237.43315 
L 200.35245 235.316126 
L 202.803458 236.496804 
L 205.254467 235.318828 
L 207.705476 228.229887 
L 210.156484 230.125437 
L 215.058501 226.229089 
L 217.50951 222.953285 
L 219.960519 221.909507 
L 222.411527 227.469209 
L 224.862536 232.130246 
L 227.313545 224.978158 
L 229.764553 236.075927 
L 232.215562 234.610602 
L 234.666571 231.057856 
L 237.117579 233.002623 
L 239.568588 229.158865 
L 242.019597 227.111051 
L 244.470605 229.737456 
L 246.921614 236.819389 
L 249.372622 240.691608 
L 251.823631 236.301428 
L 254.27464 236.063518 
L 256.725648 238.704257 
L 259.176657 237.606072 
L 261.627666 239.103041 
L 264.078674 231.409589 
L 266.529683 238.130905 
L 268.980692 236.946245 
L 271.4317 238.040479 
L 273.882709 241.632342 
L 276.333718 247.859979 
L 278.784726 248.751004 
L 281.235735 250.806249 
L 283.686744 243.714015 
L 286.137752 243.639176 
L 288.588761 244.297843 
L 291.039769 246.143257 
L 293.490778 247.829287 
L 295.941787 247.036893 
L 298.392795 249.884701 
L 300.843804 254.240172 
L 303.294813 251.616756 
L 305.745821 246.442776 
L 308.19683 248.015664 
L 310.647839 248.33104 
L 313.098847 246.171561 
L 315.549856 248.886087 
L 318.000865 248.434863 
L 320.451873 248.994003 
L 322.902882 247.387086 
L 325.35389 242.310992 
L 327.804899 229.422079 
L 330.255908 227.650233 
L 332.706916 223.928907 
L 335.157925 218.913564 
L 337.608934 215.196973 
L 340.059942 216.179364 
L 342.510951 221.015577 
L 344.96196 216.87041 
L 347.412968 214.118534 
L 349.863977 213.263533 
L 352.314986 211.12573 
L 354.765994 212.190904 
L 357.217003 212.088912 
L 359.668012 212.740016 
L 362.11902 211.309509 
L 364.570029 211.285157 
L 367.021037 210.242676 
L 369.472046 209.746697 
L 371.923055 211.765007 
L 374.374063 213.315736 
L 376.825072 219.434891 
L 379.276081 218.249881 
L 381.727089 227.009156 
L 384.178098 226.309597 
L 386.629107 225.2879 
L 389.080115 225.68955 
L 391.531124 221.436669 
L 393.982133 221.192766 
L 396.433141 212.900649 
L 401.335159 206.797489 
L 403.786167 207.891871 
L 406.237176 209.647815 
L 408.688184 210.661084 
L 411.139193 205.509974 
L 413.590202 203.917408 
L 416.04121 194.93288 
L 418.492219 197.334447 
L 420.943228 200.286641 
L 423.394236 200.777774 
L 425.845245 208.321156 
L 428.296254 204.551587 
L 430.747262 207.500498 
L 433.198271 206.622814 
L 435.64928 202.980469 
L 438.100288 203.944961 
L 440.551297 203.696081 
L 443.002305 205.576944 
L 445.453314 206.433907 
L 447.904323 209.587636 
L 450.355331 211.123803 
L 452.80634 215.094167 
L 455.257349 210.493684 
L 457.708357 212.203081 
L 460.159366 212.797532 
L 462.610375 211.757202 
L 465.061383 215.520779 
L 467.512392 208.715456 
L 469.963401 215.18553 
L 472.414409 217.120353 
L 474.865418 216.414804 
L 477.316427 214.221489 
L 479.767435 213.214395 
L 482.218444 218.064285 
L 484.669452 217.133766 
L 487.120461 222.297946 
L 489.57147 218.120126 
L 492.022478 222.799209 
L 494.473487 222.973906 
L 496.924496 223.883689 
L 499.375504 221.537549 
L 501.826513 223.340075 
L 504.277522 225.946478 
L 506.72853 221.56712 
L 509.179539 220.652498 
L 511.630548 221.919134 
L 514.081556 225.490061 
L 516.532565 225.073628 
L 518.983573 227.282911 
L 521.434582 222.656746 
L 523.885591 220.367983 
L 526.336599 224.488656 
L 528.787608 221.821652 
L 531.238617 220.626122 
L 533.689625 220.736967 
L 536.140634 221.003015 
L 538.591643 222.100962 
L 541.042651 219.712892 
L 543.49366 218.472706 
L 545.944669 219.149484 
L 548.395677 218.74156 
L 553.297695 213.868153 
L 555.748703 209.598935 
L 558.199712 209.963701 
L 560.65072 207.199835 
L 563.101729 211.708614 
L 565.552738 211.326794 
L 568.003746 209.378715 
L 570.454755 206.015051 
L 572.905764 203.034287 
L 575.356772 203.712575 
L 577.807781 205.526625 
L 580.25879 216.749172 
L 582.709798 220.309992 
L 585.160807 219.860564 
L 587.611816 225.978917 
L 590.062824 230.255121 
L 592.513833 230.357486 
L 594.964841 234.823144 
L 597.41585 231.5062 
L 599.866859 235.243811 
L 602.317867 236.715924 
L 604.768876 242.951443 
L 607.219885 242.034409 
L 609.670893 246.276426 
L 612.121902 244.159736 
L 614.572911 246.235696 
L 617.023919 247.005508 
L 619.474928 249.467849 
L 624.376945 250.384307 
L 626.827954 256.941845 
L 629.278963 256.372226 
L 631.729971 254.530564 
L 634.18098 252.954438 
L 636.631988 257.387407 
L 639.082997 251.929322 
L 641.534006 250.839587 
L 643.985014 253.234005 
L 646.436023 256.363606 
L 648.887032 254.370159 
L 651.33804 261.367746 
L 653.789049 262.266084 
L 656.240058 264.339821 
L 658.691066 270.764459 
L 661.142075 263.048352 
L 663.593084 260.51661 
L 666.044092 253.963538 
L 668.495101 248.162247 
L 670.94611 252.709867 
L 673.397118 259.665068 
L 675.848127 260.014598 
L 678.299135 256.72876 
L 680.750144 259.71317 
L 683.201153 260.993388 
L 685.652161 256.313363 
L 688.10317 260.721505 
L 690.554179 261.35673 
L 693.005187 262.108303 
L 695.456196 265.104782 
L 697.907205 264.842465 
L 700.358213 265.932858 
L 702.809222 267.339472 
L 705.260231 265.283245 
L 707.711239 265.260124 
L 710.162248 261.669991 
L 712.613256 267.908566 
L 715.064265 268.661032 
L 717.515274 269.798428 
L 719.966282 274.925293 
L 722.417291 276.733085 
L 724.8683 280.045607 
L 727.319308 282.74922 
L 729.770317 281.478789 
L 732.221326 281.955603 
L 734.672334 284.27428 
L 737.123343 281.930079 
L 739.574352 280.65411 
L 742.02536 277.42497 
L 744.476369 277.932277 
L 746.927378 277.737586 
L 749.378386 284.843337 
L 751.829395 287.500158 
L 754.280403 290.4756 
L 756.731412 288.904435 
L 759.182421 290.75566 
L 761.633429 288.965861 
L 764.084438 292.100148 
L 766.535447 291.93476 
L 768.986455 293.810672 
L 771.437464 301.486382 
L 773.888473 303.788353 
L 776.339481 307.375528 
L 778.79049 304.676612 
L 781.241499 307.307976 
L 783.692507 302.221616 
L 786.143516 313.040684 
L 788.594524 312.26133 
L 791.045533 313.392443 
L 793.496542 313.47129 
L 795.94755 315.166316 
L 798.398559 317.544971 
L 800.849568 313.377915 
L 803.300576 313.926192 
L 805.751585 314.768791 
L 808.202594 307.9029 
L 810.653602 306.49452 
L 813.104611 304.67717 
L 815.55562 301.811227 
L 818.006628 296.553529 
L 820.457637 296.975411 
L 822.908646 295.718728 
L 825.359654 292.371683 
L 827.810663 300.188585 
L 830.261671 298.720953 
L 832.71268 299.772786 
L 835.163689 298.936048 
L 837.614697 297.53821 
L 840.065706 294.451341 
L 842.516715 295.790822 
L 847.418732 308.102198 
L 849.869741 309.186071 
L 852.320749 311.750243 
L 854.771758 312.759558 
L 857.222767 313.427361 
L 859.673775 317.663398 
L 862.124784 316.530109 
L 864.575793 312.218396 
L 867.026801 313.835001 
L 869.47781 314.506177 
L 871.928818 313.917673 
L 874.379827 314.984622 
L 876.830836 320.304851 
L 879.281844 315.490157 
L 881.732853 312.277319 
L 884.183862 312.440011 
L 886.63487 306.949926 
L 889.085879 310.315943 
L 891.536888 310.559319 
L 893.987896 312.019715 
L 896.438905 312.421174 
L 898.889914 309.838082 
L 903.791931 317.757905 
L 906.242939 323.029643 
L 908.693948 319.527612 
L 911.144957 319.129164 
L 913.595965 319.328235 
L 916.046974 319.861349 
L 918.497983 316.663311 
L 920.948991 317.139008 
L 920.948991 317.139008 
" style="fill:none;stroke:#ffa500;stroke-dasharray:3,4.95;stroke-dashoffset:0;stroke-width:3;"/>
   </g>
   <g id="line2d_54">
    <path clip-path="url(#p72cff4d065)" d="M 77.802017 213.883242 
L 80.253026 214.254878 
L 82.704035 215.725324 
L 87.606052 217.522366 
L 92.508069 221.122472 
L 97.410086 225.23659 
L 99.861095 227.804341 
L 102.312104 230.207797 
L 104.763112 232.820702 
L 109.66513 239.302224 
L 112.116138 241.394262 
L 114.567147 244.462942 
L 119.469164 248.857019 
L 121.920173 251.121011 
L 124.371182 252.5742 
L 126.82219 254.348104 
L 129.273199 255.896358 
L 131.724207 258.380283 
L 134.175216 260.084593 
L 136.626225 262.472352 
L 143.979251 267.241645 
L 146.430259 269.059708 
L 153.783285 273.405745 
L 156.234294 274.240752 
L 161.136311 275.240724 
L 168.489337 275.382257 
L 170.940346 275.04552 
L 173.391354 274.493715 
L 175.842363 274.071616 
L 178.293372 273.415322 
L 180.74438 272.541893 
L 183.195389 271.943603 
L 185.646398 271.177524 
L 188.097406 269.949991 
L 200.35245 262.852695 
L 202.803458 260.700353 
L 207.705476 257.550156 
L 210.156484 255.679899 
L 212.607493 253.497828 
L 219.960519 245.813669 
L 222.411527 244.316708 
L 224.862536 242.171939 
L 227.313545 240.20248 
L 229.764553 238.814907 
L 232.215562 237.805348 
L 239.568588 235.396461 
L 242.019597 235.020136 
L 244.470605 234.288925 
L 246.921614 233.828923 
L 249.372622 233.247408 
L 251.823631 233.00283 
L 256.725648 231.208322 
L 259.176657 230.536645 
L 261.627666 230.155654 
L 266.529683 228.6909 
L 268.980692 227.055685 
L 271.4317 225.778365 
L 273.882709 224.067806 
L 276.333718 223.531578 
L 283.686744 220.936851 
L 286.137752 219.635939 
L 288.588761 218.636961 
L 291.039769 217.042473 
L 293.490778 216.193936 
L 295.941787 214.67243 
L 298.392795 213.546814 
L 300.843804 212.77488 
L 303.294813 211.819528 
L 305.745821 210.355782 
L 313.098847 207.71073 
L 315.549856 207.276464 
L 318.000865 205.448374 
L 320.451873 204.109365 
L 322.902882 202.617915 
L 325.35389 201.709926 
L 327.804899 200.64729 
L 332.706916 199.103832 
L 335.157925 198.076078 
L 337.608934 197.454211 
L 340.059942 196.381263 
L 342.510951 195.729721 
L 344.96196 194.024843 
L 347.412968 193.700848 
L 349.863977 193.219638 
L 354.765994 191.817793 
L 357.217003 190.644654 
L 359.668012 189.190259 
L 362.11902 188.282329 
L 367.021037 185.247872 
L 369.472046 183.341154 
L 371.923055 182.678553 
L 374.374063 182.151493 
L 376.825072 180.795266 
L 379.276081 180.682759 
L 381.727089 180.297446 
L 384.178098 180.084895 
L 386.629107 180.339477 
L 389.080115 180.186639 
L 393.982133 178.229797 
L 396.433141 177.595448 
L 398.88415 177.768702 
L 401.335159 178.52021 
L 403.786167 179.498704 
L 406.237176 180.918373 
L 408.688184 181.822523 
L 413.590202 184.915988 
L 416.04121 187.104305 
L 418.492219 188.794789 
L 420.943228 191.558649 
L 423.394236 194.996908 
L 425.845245 198.097499 
L 428.296254 201.965096 
L 430.747262 204.456219 
L 433.198271 206.479794 
L 435.64928 209.10787 
L 438.100288 211.17623 
L 443.002305 216.115456 
L 445.453314 217.898495 
L 447.904323 218.962207 
L 450.355331 220.592743 
L 455.257349 225.00107 
L 457.708357 226.686386 
L 467.512392 232.714591 
L 469.963401 233.979901 
L 472.414409 235.039147 
L 474.865418 236.354841 
L 477.316427 237.520524 
L 479.767435 237.733919 
L 482.218444 237.551507 
L 484.669452 236.744231 
L 487.120461 235.621793 
L 489.57147 234.923618 
L 492.022478 234.747262 
L 496.924496 233.141867 
L 499.375504 232.293499 
L 501.826513 231.282036 
L 504.277522 230.739484 
L 509.179539 228.952001 
L 511.630548 227.672687 
L 514.081556 226.644007 
L 518.983573 225.083608 
L 521.434582 223.951561 
L 523.885591 222.463483 
L 526.336599 221.27826 
L 531.238617 219.848203 
L 533.689625 218.380368 
L 536.140634 218.01851 
L 538.591643 217.441217 
L 541.042651 216.219327 
L 543.49366 215.297999 
L 545.944669 213.537195 
L 550.846686 211.308635 
L 553.297695 210.659564 
L 555.748703 209.681583 
L 558.199712 208.455351 
L 560.65072 207.733013 
L 563.101729 206.671875 
L 565.552738 205.421196 
L 568.003746 204.632026 
L 570.454755 203.991382 
L 572.905764 203.034287 
L 575.356772 202.777606 
L 577.807781 202.17051 
L 580.25879 200.961004 
L 582.709798 200.368201 
L 585.160807 199.547057 
L 587.611816 199.652919 
L 590.062824 200.101223 
L 592.513833 200.142317 
L 594.964841 200.438225 
L 597.41585 200.998491 
L 599.866859 201.220466 
L 604.768876 202.079868 
L 607.219885 202.983399 
L 612.121902 205.517418 
L 614.572911 207.626222 
L 617.023919 210.168014 
L 619.474928 212.497154 
L 621.925937 216.114041 
L 624.376945 219.334807 
L 626.827954 223.106961 
L 629.278963 228.596562 
L 631.729971 235.73754 
L 634.18098 243.4306 
L 636.631988 251.52096 
L 639.082997 260.570979 
L 641.534006 267.85937 
L 643.985014 275.704099 
L 646.436023 282.477483 
L 651.33804 294.864731 
L 656.240058 306.276232 
L 661.142075 315.24799 
L 663.593084 318.574337 
L 666.044092 321.60932 
L 668.495101 323.758371 
L 670.94611 324.975422 
L 678.299135 328.104158 
L 683.201153 330.45925 
L 685.652161 331.264456 
L 688.10317 332.841323 
L 690.554179 333.449224 
L 693.005187 333.611756 
L 695.456196 333.263931 
L 697.907205 332.632992 
L 702.809222 332.475335 
L 705.260231 331.936744 
L 707.711239 331.250083 
L 710.162248 330.030762 
L 712.613256 329.924698 
L 715.064265 329.189657 
L 717.515274 327.967029 
L 719.966282 326.414763 
L 727.319308 320.435734 
L 732.221326 316.979294 
L 734.672334 315.554711 
L 737.123343 314.57389 
L 739.574352 313.921523 
L 742.02536 312.298768 
L 744.476369 310.178337 
L 746.927378 308.493492 
L 749.378386 307.961902 
L 751.829395 307.610438 
L 756.731412 304.690434 
L 759.182421 303.400544 
L 761.633429 301.683185 
L 764.084438 300.378403 
L 766.535447 298.518116 
L 771.437464 295.46978 
L 773.888473 295.224966 
L 776.339481 293.236899 
L 778.79049 290.495237 
L 781.241499 288.117592 
L 783.692507 285.39111 
L 786.143516 283.064975 
L 788.594524 280.236058 
L 791.045533 278.012968 
L 793.496542 275.570259 
L 795.94755 273.703854 
L 798.398559 272.041196 
L 800.849568 269.2954 
L 803.300576 265.826691 
L 805.751585 263.374602 
L 808.202594 260.356112 
L 810.653602 258.029008 
L 815.55562 253.63377 
L 818.006628 251.355396 
L 820.457637 249.334901 
L 822.908646 246.87855 
L 825.359654 244.82546 
L 827.810663 242.296633 
L 835.163689 235.911402 
L 840.065706 231.703021 
L 842.516715 229.924073 
L 844.967723 228.811206 
L 847.418732 228.253003 
L 859.673775 223.156392 
L 862.124784 221.824465 
L 864.575793 220.650606 
L 867.026801 219.696245 
L 869.47781 218.541422 
L 871.928818 217.038936 
L 876.830836 213.712149 
L 879.281844 211.901307 
L 881.732853 210.673724 
L 884.183862 208.852941 
L 886.63487 207.825185 
L 889.085879 206.245102 
L 891.536888 204.454075 
L 896.438905 201.675458 
L 898.889914 200.416369 
L 901.340922 198.848521 
L 906.242939 196.615043 
L 908.693948 194.993052 
L 913.595965 192.756698 
L 918.497983 190.560975 
L 920.948991 189.269679 
L 920.948991 189.269679 
" style="fill:none;stroke:#800000;stroke-dasharray:19.2,4.8,3,4.8;stroke-dashoffset:0;stroke-width:3;"/>
   </g>
   <g id="line2d_55">
    <path clip-path="url(#p72cff4d065)" d="M 72.9 203.034287 
L 923.4 203.034287 
" style="fill:none;stroke:#000000;stroke-linecap:square;stroke-width:2;"/>
   </g>
   <g id="patch_3">
    <path d="M 72.9 388.8 
L 923.4 388.8 
" style="fill:none;stroke:#000000;stroke-linecap:square;stroke-linejoin:miter;stroke-width:0.8;"/>
   </g>
   <g id="text_15">
    <!-- Monthly observations; seasonally adjusted; Percentage point change since January 2007; Total -->
    <defs>
     <path d="M 9.8125 72.90625 
L 24.515625 72.90625 
L 43.109375 23.296875 
L 61.8125 72.90625 
L 76.515625 72.90625 
L 76.515625 0 
L 66.890625 0 
L 66.890625 64.015625 
L 48.09375 14.015625 
L 38.1875 14.015625 
L 19.390625 64.015625 
L 19.390625 0 
L 9.8125 0 
z
" id="DejaVuSans-4d"/>
     <path d="M 54.890625 33.015625 
L 54.890625 0 
L 45.90625 0 
L 45.90625 32.71875 
Q 45.90625 40.484375 42.875 44.328125 
Q 39.84375 48.1875 33.796875 48.1875 
Q 26.515625 48.1875 22.3125 43.546875 
Q 18.109375 38.921875 18.109375 30.90625 
L 18.109375 0 
L 9.078125 0 
L 9.078125 75.984375 
L 18.109375 75.984375 
L 18.109375 46.1875 
Q 21.34375 51.125 25.703125 53.5625 
Q 30.078125 56 35.796875 56 
Q 45.21875 56 50.046875 50.171875 
Q 54.890625 44.34375 54.890625 33.015625 
z
" id="DejaVuSans-68"/>
     <path d="M 9.421875 75.984375 
L 18.40625 75.984375 
L 18.40625 0 
L 9.421875 0 
z
" id="DejaVuSans-6c"/>
     <path d="M 32.171875 -5.078125 
Q 28.375 -14.84375 24.75 -17.8125 
Q 21.140625 -20.796875 15.09375 -20.796875 
L 7.90625 -20.796875 
L 7.90625 -13.28125 
L 13.1875 -13.28125 
Q 16.890625 -13.28125 18.9375 -11.515625 
Q 21 -9.765625 23.484375 -3.21875 
L 25.09375 0.875 
L 2.984375 54.6875 
L 12.5 54.6875 
L 29.59375 11.921875 
L 46.6875 54.6875 
L 56.203125 54.6875 
z
" id="DejaVuSans-79"/>
     <path d="M 48.6875 27.296875 
Q 48.6875 37.203125 44.609375 42.84375 
Q 40.53125 48.484375 33.40625 48.484375 
Q 26.265625 48.484375 22.1875 42.84375 
Q 18.109375 37.203125 18.109375 27.296875 
Q 18.109375 17.390625 22.1875 11.75 
Q 26.265625 6.109375 33.40625 6.109375 
Q 40.53125 6.109375 44.609375 11.75 
Q 48.6875 17.390625 48.6875 27.296875 
z
M 18.109375 46.390625 
Q 20.953125 51.265625 25.265625 53.625 
Q 29.59375 56 35.59375 56 
Q 45.5625 56 51.78125 48.09375 
Q 58.015625 40.1875 58.015625 27.296875 
Q 58.015625 14.40625 51.78125 6.484375 
Q 45.5625 -1.421875 35.59375 -1.421875 
Q 29.59375 -1.421875 25.265625 0.953125 
Q 20.953125 3.328125 18.109375 8.203125 
L 18.109375 0 
L 9.078125 0 
L 9.078125 75.984375 
L 18.109375 75.984375 
z
" id="DejaVuSans-62"/>
     <path d="M 44.28125 53.078125 
L 44.28125 44.578125 
Q 40.484375 46.53125 36.375 47.5 
Q 32.28125 48.484375 27.875 48.484375 
Q 21.1875 48.484375 17.84375 46.4375 
Q 14.5 44.390625 14.5 40.28125 
Q 14.5 37.15625 16.890625 35.375 
Q 19.28125 33.59375 26.515625 31.984375 
L 29.59375 31.296875 
Q 39.15625 29.25 43.1875 25.515625 
Q 47.21875 21.78125 47.21875 15.09375 
Q 47.21875 7.46875 41.1875 3.015625 
Q 35.15625 -1.421875 24.609375 -1.421875 
Q 20.21875 -1.421875 15.453125 -0.5625 
Q 10.6875 0.296875 5.421875 2 
L 5.421875 11.28125 
Q 10.40625 8.6875 15.234375 7.390625 
Q 20.0625 6.109375 24.8125 6.109375 
Q 31.15625 6.109375 34.5625 8.28125 
Q 37.984375 10.453125 37.984375 14.40625 
Q 37.984375 18.0625 35.515625 20.015625 
Q 33.0625 21.96875 24.703125 23.78125 
L 21.578125 24.515625 
Q 13.234375 26.265625 9.515625 29.90625 
Q 5.8125 33.546875 5.8125 39.890625 
Q 5.8125 47.609375 11.28125 51.796875 
Q 16.75 56 26.8125 56 
Q 31.78125 56 36.171875 55.265625 
Q 40.578125 54.546875 44.28125 53.078125 
z
" id="DejaVuSans-73"/>
     <path d="M 2.984375 54.6875 
L 12.5 54.6875 
L 29.59375 8.796875 
L 46.6875 54.6875 
L 56.203125 54.6875 
L 35.6875 0 
L 23.484375 0 
z
" id="DejaVuSans-76"/>
     <path d="M 11.71875 51.703125 
L 22.015625 51.703125 
L 22.015625 39.3125 
L 11.71875 39.3125 
z
M 11.71875 12.40625 
L 22.015625 12.40625 
L 22.015625 4 
L 14.015625 -11.625 
L 7.71875 -11.625 
L 11.71875 4 
z
" id="DejaVuSans-3b"/>
     <path d="M 45.40625 46.390625 
L 45.40625 75.984375 
L 54.390625 75.984375 
L 54.390625 0 
L 45.40625 0 
L 45.40625 8.203125 
Q 42.578125 3.328125 38.25 0.953125 
Q 33.9375 -1.421875 27.875 -1.421875 
Q 17.96875 -1.421875 11.734375 6.484375 
Q 5.515625 14.40625 5.515625 27.296875 
Q 5.515625 40.1875 11.734375 48.09375 
Q 17.96875 56 27.875 56 
Q 33.9375 56 38.25 53.625 
Q 42.578125 51.265625 45.40625 46.390625 
z
M 14.796875 27.296875 
Q 14.796875 17.390625 18.875 11.75 
Q 22.953125 6.109375 30.078125 6.109375 
Q 37.203125 6.109375 41.296875 11.75 
Q 45.40625 17.390625 45.40625 27.296875 
Q 45.40625 37.203125 41.296875 42.84375 
Q 37.203125 48.484375 30.078125 48.484375 
Q 22.953125 48.484375 18.875 42.84375 
Q 14.796875 37.203125 14.796875 27.296875 
z
" id="DejaVuSans-64"/>
     <path d="M 9.421875 54.6875 
L 18.40625 54.6875 
L 18.40625 -0.984375 
Q 18.40625 -11.421875 14.421875 -16.109375 
Q 10.453125 -20.796875 1.609375 -20.796875 
L -1.8125 -20.796875 
L -1.8125 -13.1875 
L 0.59375 -13.1875 
Q 5.71875 -13.1875 7.5625 -10.8125 
Q 9.421875 -8.453125 9.421875 -0.984375 
z
M 9.421875 75.984375 
L 18.40625 75.984375 
L 18.40625 64.59375 
L 9.421875 64.59375 
z
" id="DejaVuSans-6a"/>
     <path d="M 8.5 21.578125 
L 8.5 54.6875 
L 17.484375 54.6875 
L 17.484375 21.921875 
Q 17.484375 14.15625 20.5 10.265625 
Q 23.53125 6.390625 29.59375 6.390625 
Q 36.859375 6.390625 41.078125 11.03125 
Q 45.3125 15.671875 45.3125 23.6875 
L 45.3125 54.6875 
L 54.296875 54.6875 
L 54.296875 0 
L 45.3125 0 
L 45.3125 8.40625 
Q 42.046875 3.421875 37.71875 1 
Q 33.40625 -1.421875 27.6875 -1.421875 
Q 18.265625 -1.421875 13.375 4.4375 
Q 8.5 10.296875 8.5 21.578125 
z
M 31.109375 56 
z
" id="DejaVuSans-75"/>
     <path d="M 9.8125 72.90625 
L 19.671875 72.90625 
L 19.671875 5.078125 
Q 19.671875 -8.109375 14.671875 -14.0625 
Q 9.671875 -20.015625 -1.421875 -20.015625 
L -5.171875 -20.015625 
L -5.171875 -11.71875 
L -2.09375 -11.71875 
Q 4.4375 -11.71875 7.125 -8.046875 
Q 9.8125 -4.390625 9.8125 5.078125 
z
" id="DejaVuSans-4a"/>
     <path d="M 8.203125 72.90625 
L 55.078125 72.90625 
L 55.078125 68.703125 
L 28.609375 0 
L 18.3125 0 
L 43.21875 64.59375 
L 8.203125 64.59375 
z
" id="DejaVuSans-37"/>
     <path d="M -0.296875 72.90625 
L 61.375 72.90625 
L 61.375 64.59375 
L 35.5 64.59375 
L 35.5 0 
L 25.59375 0 
L 25.59375 64.59375 
L -0.296875 64.59375 
z
" id="DejaVuSans-54"/>
    </defs>
    <g transform="translate(72.9 45.84)scale(0.14 -0.14)">
     <use xlink:href="#DejaVuSans-4d"/>
     <use x="86.279297" xlink:href="#DejaVuSans-6f"/>
     <use x="147.460938" xlink:href="#DejaVuSans-6e"/>
     <use x="210.839844" xlink:href="#DejaVuSans-74"/>
     <use x="250.048828" xlink:href="#DejaVuSans-68"/>
     <use x="313.427734" xlink:href="#DejaVuSans-6c"/>
     <use x="341.210938" xlink:href="#DejaVuSans-79"/>
     <use x="400.390625" xlink:href="#DejaVuSans-20"/>
     <use x="432.177734" xlink:href="#DejaVuSans-6f"/>
     <use x="493.359375" xlink:href="#DejaVuSans-62"/>
     <use x="556.835938" xlink:href="#DejaVuSans-73"/>
     <use x="608.935547" xlink:href="#DejaVuSans-65"/>
     <use x="670.458984" xlink:href="#DejaVuSans-72"/>
     <use x="711.572266" xlink:href="#DejaVuSans-76"/>
     <use x="770.751953" xlink:href="#DejaVuSans-61"/>
     <use x="832.03125" xlink:href="#DejaVuSans-74"/>
     <use x="871.240234" xlink:href="#DejaVuSans-69"/>
     <use x="899.023438" xlink:href="#DejaVuSans-6f"/>
     <use x="960.205078" xlink:href="#DejaVuSans-6e"/>
     <use x="1023.583984" xlink:href="#DejaVuSans-73"/>
     <use x="1075.683594" xlink:href="#DejaVuSans-3b"/>
     <use x="1109.375" xlink:href="#DejaVuSans-20"/>
     <use x="1141.162109" xlink:href="#DejaVuSans-73"/>
     <use x="1193.261719" xlink:href="#DejaVuSans-65"/>
     <use x="1254.785156" xlink:href="#DejaVuSans-61"/>
     <use x="1316.064453" xlink:href="#DejaVuSans-73"/>
     <use x="1368.164062" xlink:href="#DejaVuSans-6f"/>
     <use x="1429.345703" xlink:href="#DejaVuSans-6e"/>
     <use x="1492.724609" xlink:href="#DejaVuSans-61"/>
     <use x="1554.003906" xlink:href="#DejaVuSans-6c"/>
     <use x="1581.787109" xlink:href="#DejaVuSans-6c"/>
     <use x="1609.570312" xlink:href="#DejaVuSans-79"/>
     <use x="1668.75" xlink:href="#DejaVuSans-20"/>
     <use x="1700.537109" xlink:href="#DejaVuSans-61"/>
     <use x="1761.816406" xlink:href="#DejaVuSans-64"/>
     <use x="1825.292969" xlink:href="#DejaVuSans-6a"/>
     <use x="1853.076172" xlink:href="#DejaVuSans-75"/>
     <use x="1916.455078" xlink:href="#DejaVuSans-73"/>
     <use x="1968.554688" xlink:href="#DejaVuSans-74"/>
     <use x="2007.763672" xlink:href="#DejaVuSans-65"/>
     <use x="2069.287109" xlink:href="#DejaVuSans-64"/>
     <use x="2132.763672" xlink:href="#DejaVuSans-3b"/>
     <use x="2166.455078" xlink:href="#DejaVuSans-20"/>
     <use x="2198.242188" xlink:href="#DejaVuSans-50"/>
     <use x="2258.498047" xlink:href="#DejaVuSans-65"/>
     <use x="2320.021484" xlink:href="#DejaVuSans-72"/>
     <use x="2361.103516" xlink:href="#DejaVuSans-63"/>
     <use x="2416.083984" xlink:href="#DejaVuSans-65"/>
     <use x="2477.607422" xlink:href="#DejaVuSans-6e"/>
     <use x="2540.986328" xlink:href="#DejaVuSans-74"/>
     <use x="2580.195312" xlink:href="#DejaVuSans-61"/>
     <use x="2641.474609" xlink:href="#DejaVuSans-67"/>
     <use x="2704.951172" xlink:href="#DejaVuSans-65"/>
     <use x="2766.474609" xlink:href="#DejaVuSans-20"/>
     <use x="2798.261719" xlink:href="#DejaVuSans-70"/>
     <use x="2861.738281" xlink:href="#DejaVuSans-6f"/>
     <use x="2922.919922" xlink:href="#DejaVuSans-69"/>
     <use x="2950.703125" xlink:href="#DejaVuSans-6e"/>
     <use x="3014.082031" xlink:href="#DejaVuSans-74"/>
     <use x="3053.291016" xlink:href="#DejaVuSans-20"/>
     <use x="3085.078125" xlink:href="#DejaVuSans-63"/>
     <use x="3140.058594" xlink:href="#DejaVuSans-68"/>
     <use x="3203.4375" xlink:href="#DejaVuSans-61"/>
     <use x="3264.716797" xlink:href="#DejaVuSans-6e"/>
     <use x="3328.095703" xlink:href="#DejaVuSans-67"/>
     <use x="3391.572266" xlink:href="#DejaVuSans-65"/>
     <use x="3453.095703" xlink:href="#DejaVuSans-20"/>
     <use x="3484.882812" xlink:href="#DejaVuSans-73"/>
     <use x="3536.982422" xlink:href="#DejaVuSans-69"/>
     <use x="3564.765625" xlink:href="#DejaVuSans-6e"/>
     <use x="3628.144531" xlink:href="#DejaVuSans-63"/>
     <use x="3683.125" xlink:href="#DejaVuSans-65"/>
     <use x="3744.648438" xlink:href="#DejaVuSans-20"/>
     <use x="3776.435547" xlink:href="#DejaVuSans-4a"/>
     <use x="3805.927734" xlink:href="#DejaVuSans-61"/>
     <use x="3867.207031" xlink:href="#DejaVuSans-6e"/>
     <use x="3930.585938" xlink:href="#DejaVuSans-75"/>
     <use x="3993.964844" xlink:href="#DejaVuSans-61"/>
     <use x="4055.244141" xlink:href="#DejaVuSans-72"/>
     <use x="4096.357422" xlink:href="#DejaVuSans-79"/>
     <use x="4155.537109" xlink:href="#DejaVuSans-20"/>
     <use x="4187.324219" xlink:href="#DejaVuSans-32"/>
     <use x="4250.947266" xlink:href="#DejaVuSans-30"/>
     <use x="4314.570312" xlink:href="#DejaVuSans-30"/>
     <use x="4378.193359" xlink:href="#DejaVuSans-37"/>
     <use x="4441.816406" xlink:href="#DejaVuSans-3b"/>
     <use x="4475.507812" xlink:href="#DejaVuSans-20"/>
     <use x="4507.294922" xlink:href="#DejaVuSans-54"/>
     <use x="4568.113281" xlink:href="#DejaVuSans-6f"/>
     <use x="4629.294922" xlink:href="#DejaVuSans-74"/>
     <use x="4668.503906" xlink:href="#DejaVuSans-61"/>
     <use x="4729.783203" xlink:href="#DejaVuSans-6c"/>
    </g>
   </g>
   <g id="legend_1">
    <g id="patch_4">
     <path d="M 782.926875 131.895 
L 915 131.895 
Q 917.4 131.895 917.4 129.495 
L 917.4 60.24 
Q 917.4 57.84 915 57.84 
L 782.926875 57.84 
Q 780.526875 57.84 780.526875 60.24 
L 780.526875 129.495 
Q 780.526875 131.895 782.926875 131.895 
z
" style="fill:#ffffff;opacity:0.8;stroke:#cccccc;stroke-linejoin:miter;"/>
    </g>
    <g id="line2d_56">
     <path d="M 785.326875 67.558125 
L 809.326875 67.558125 
" style="fill:none;stroke:#000000;stroke-linecap:square;stroke-width:3;"/>
    </g>
    <g id="line2d_57"/>
    <g id="text_16">
     <!-- Change in LFPR -->
     <defs>
      <path d="M 64.40625 67.28125 
L 64.40625 56.890625 
Q 59.421875 61.53125 53.78125 63.8125 
Q 48.140625 66.109375 41.796875 66.109375 
Q 29.296875 66.109375 22.65625 58.46875 
Q 16.015625 50.828125 16.015625 36.375 
Q 16.015625 21.96875 22.65625 14.328125 
Q 29.296875 6.6875 41.796875 6.6875 
Q 48.140625 6.6875 53.78125 8.984375 
Q 59.421875 11.28125 64.40625 15.921875 
L 64.40625 5.609375 
Q 59.234375 2.09375 53.4375 0.328125 
Q 47.65625 -1.421875 41.21875 -1.421875 
Q 24.65625 -1.421875 15.125 8.703125 
Q 5.609375 18.84375 5.609375 36.375 
Q 5.609375 53.953125 15.125 64.078125 
Q 24.65625 74.21875 41.21875 74.21875 
Q 47.75 74.21875 53.53125 72.484375 
Q 59.328125 70.75 64.40625 67.28125 
z
" id="DejaVuSans-43"/>
      <path d="M 9.8125 72.90625 
L 19.671875 72.90625 
L 19.671875 8.296875 
L 55.171875 8.296875 
L 55.171875 0 
L 9.8125 0 
z
" id="DejaVuSans-4c"/>
      <path d="M 9.8125 72.90625 
L 51.703125 72.90625 
L 51.703125 64.59375 
L 19.671875 64.59375 
L 19.671875 43.109375 
L 48.578125 43.109375 
L 48.578125 34.8125 
L 19.671875 34.8125 
L 19.671875 0 
L 9.8125 0 
z
" id="DejaVuSans-46"/>
      <path d="M 44.390625 34.1875 
Q 47.5625 33.109375 50.5625 29.59375 
Q 53.5625 26.078125 56.59375 19.921875 
L 66.609375 0 
L 56 0 
L 46.6875 18.703125 
Q 43.0625 26.03125 39.671875 28.421875 
Q 36.28125 30.8125 30.421875 30.8125 
L 19.671875 30.8125 
L 19.671875 0 
L 9.8125 0 
L 9.8125 72.90625 
L 32.078125 72.90625 
Q 44.578125 72.90625 50.734375 67.671875 
Q 56.890625 62.453125 56.890625 51.90625 
Q 56.890625 45.015625 53.6875 40.46875 
Q 50.484375 35.9375 44.390625 34.1875 
z
M 19.671875 64.796875 
L 19.671875 38.921875 
L 32.078125 38.921875 
Q 39.203125 38.921875 42.84375 42.21875 
Q 46.484375 45.515625 46.484375 51.90625 
Q 46.484375 58.296875 42.84375 61.546875 
Q 39.203125 64.796875 32.078125 64.796875 
z
" id="DejaVuSans-52"/>
     </defs>
     <g transform="translate(818.926875 71.758125)scale(0.12 -0.12)">
      <use xlink:href="#DejaVuSans-43"/>
      <use x="69.824219" xlink:href="#DejaVuSans-68"/>
      <use x="133.203125" xlink:href="#DejaVuSans-61"/>
      <use x="194.482422" xlink:href="#DejaVuSans-6e"/>
      <use x="257.861328" xlink:href="#DejaVuSans-67"/>
      <use x="321.337891" xlink:href="#DejaVuSans-65"/>
      <use x="382.861328" xlink:href="#DejaVuSans-20"/>
      <use x="414.648438" xlink:href="#DejaVuSans-69"/>
      <use x="442.431641" xlink:href="#DejaVuSans-6e"/>
      <use x="505.810547" xlink:href="#DejaVuSans-20"/>
      <use x="537.597656" xlink:href="#DejaVuSans-4c"/>
      <use x="593.310547" xlink:href="#DejaVuSans-46"/>
      <use x="650.830078" xlink:href="#DejaVuSans-50"/>
      <use x="711.132812" xlink:href="#DejaVuSans-52"/>
     </g>
    </g>
    <g id="line2d_58">
     <path d="M 785.326875 85.171875 
L 809.326875 85.171875 
" style="fill:none;stroke:#000080;stroke-dasharray:11.1,4.8;stroke-dashoffset:0;stroke-width:3;"/>
    </g>
    <g id="line2d_59"/>
    <g id="text_17">
     <!-- Exit -->
     <defs>
      <path d="M 9.8125 72.90625 
L 55.90625 72.90625 
L 55.90625 64.59375 
L 19.671875 64.59375 
L 19.671875 43.015625 
L 54.390625 43.015625 
L 54.390625 34.71875 
L 19.671875 34.71875 
L 19.671875 8.296875 
L 56.78125 8.296875 
L 56.78125 0 
L 9.8125 0 
z
" id="DejaVuSans-45"/>
      <path d="M 54.890625 54.6875 
L 35.109375 28.078125 
L 55.90625 0 
L 45.3125 0 
L 29.390625 21.484375 
L 13.484375 0 
L 2.875 0 
L 24.125 28.609375 
L 4.6875 54.6875 
L 15.28125 54.6875 
L 29.78125 35.203125 
L 44.28125 54.6875 
z
" id="DejaVuSans-78"/>
     </defs>
     <g transform="translate(818.926875 89.371875)scale(0.12 -0.12)">
      <use xlink:href="#DejaVuSans-45"/>
      <use x="63.183594" xlink:href="#DejaVuSans-78"/>
      <use x="122.363281" xlink:href="#DejaVuSans-69"/>
      <use x="150.146484" xlink:href="#DejaVuSans-74"/>
     </g>
    </g>
    <g id="line2d_60">
     <path d="M 785.326875 102.785625 
L 809.326875 102.785625 
" style="fill:none;stroke:#ffa500;stroke-dasharray:3,4.95;stroke-dashoffset:0;stroke-width:3;"/>
    </g>
    <g id="line2d_61"/>
    <g id="text_18">
     <!-- Entry -->
     <g transform="translate(818.926875 106.985625)scale(0.12 -0.12)">
      <use xlink:href="#DejaVuSans-45"/>
      <use x="63.183594" xlink:href="#DejaVuSans-6e"/>
      <use x="126.5625" xlink:href="#DejaVuSans-74"/>
      <use x="165.771484" xlink:href="#DejaVuSans-72"/>
      <use x="206.884766" xlink:href="#DejaVuSans-79"/>
     </g>
    </g>
    <g id="line2d_62">
     <path d="M 785.326875 120.399375 
L 809.326875 120.399375 
" style="fill:none;stroke:#800000;stroke-dasharray:19.2,4.8,3,4.8;stroke-dashoffset:0;stroke-width:3;"/>
    </g>
    <g id="line2d_63"/>
    <g id="text_19">
     <!-- Churn -->
     <g transform="translate(818.926875 124.599375)scale(0.12 -0.12)">
      <use xlink:href="#DejaVuSans-43"/>
      <use x="69.824219" xlink:href="#DejaVuSans-68"/>
      <use x="133.203125" xlink:href="#DejaVuSans-75"/>
      <use x="196.582031" xlink:href="#DejaVuSans-72"/>
      <use x="237.679688" xlink:href="#DejaVuSans-6e"/>
     </g>
    </g>
   </g>
  </g>
  <g id="text_20">
   <!-- Change in Labor force participation rate decomposed -->
   <defs>
    <path d="M 67 4 
Q 61.8125 1.3125 56.203125 -0.046875 
Q 50.59375 -1.421875 44.484375 -1.421875 
Q 26.265625 -1.421875 15.625 8.765625 
Q 4.984375 18.953125 4.984375 36.375 
Q 4.984375 53.859375 15.625 64.03125 
Q 26.265625 74.21875 44.484375 74.21875 
Q 50.59375 74.21875 56.203125 72.84375 
Q 61.8125 71.484375 67 68.796875 
L 67 53.71875 
Q 61.765625 57.28125 56.6875 58.9375 
Q 51.609375 60.59375 46 60.59375 
Q 35.9375 60.59375 30.171875 54.140625 
Q 24.421875 47.703125 24.421875 36.375 
Q 24.421875 25.09375 30.171875 18.640625 
Q 35.9375 12.203125 46 12.203125 
Q 51.609375 12.203125 56.6875 13.859375 
Q 61.765625 15.53125 67 19.09375 
z
" id="DejaVuSans-Bold-43"/>
    <path d="M 63.375 33.296875 
L 63.375 0 
L 45.796875 0 
L 45.796875 5.421875 
L 45.796875 25.390625 
Q 45.796875 32.5625 45.484375 35.25 
Q 45.171875 37.9375 44.390625 39.203125 
Q 43.359375 40.921875 41.59375 41.875 
Q 39.84375 42.828125 37.59375 42.828125 
Q 32.125 42.828125 29 38.59375 
Q 25.875 34.375 25.875 26.90625 
L 25.875 0 
L 8.40625 0 
L 8.40625 75.984375 
L 25.875 75.984375 
L 25.875 46.6875 
Q 29.828125 51.46875 34.265625 53.734375 
Q 38.71875 56 44.09375 56 
Q 53.5625 56 58.46875 50.1875 
Q 63.375 44.390625 63.375 33.296875 
z
" id="DejaVuSans-Bold-68"/>
    <path d="M 32.90625 24.609375 
Q 27.4375 24.609375 24.671875 22.75 
Q 21.921875 20.90625 21.921875 17.28125 
Q 21.921875 13.96875 24.140625 12.078125 
Q 26.375 10.203125 30.328125 10.203125 
Q 35.25 10.203125 38.625 13.734375 
Q 42 17.28125 42 22.609375 
L 42 24.609375 
z
M 59.625 31.203125 
L 59.625 0 
L 42 0 
L 42 8.109375 
Q 38.484375 3.125 34.078125 0.84375 
Q 29.6875 -1.421875 23.390625 -1.421875 
Q 14.890625 -1.421875 9.59375 3.53125 
Q 4.296875 8.5 4.296875 16.40625 
Q 4.296875 26.03125 10.90625 30.515625 
Q 17.53125 35.015625 31.6875 35.015625 
L 42 35.015625 
L 42 36.375 
Q 42 40.53125 38.71875 42.453125 
Q 35.453125 44.390625 28.515625 44.390625 
Q 22.90625 44.390625 18.0625 43.265625 
Q 13.234375 42.140625 9.078125 39.890625 
L 9.078125 53.21875 
Q 14.703125 54.59375 20.359375 55.296875 
Q 26.03125 56 31.6875 56 
Q 46.484375 56 53.046875 50.171875 
Q 59.625 44.34375 59.625 31.203125 
z
" id="DejaVuSans-Bold-61"/>
    <path d="M 63.375 33.296875 
L 63.375 0 
L 45.796875 0 
L 45.796875 5.421875 
L 45.796875 25.484375 
Q 45.796875 32.5625 45.484375 35.25 
Q 45.171875 37.9375 44.390625 39.203125 
Q 43.359375 40.921875 41.59375 41.875 
Q 39.84375 42.828125 37.59375 42.828125 
Q 32.125 42.828125 29 38.59375 
Q 25.875 34.375 25.875 26.90625 
L 25.875 0 
L 8.40625 0 
L 8.40625 54.6875 
L 25.875 54.6875 
L 25.875 46.6875 
Q 29.828125 51.46875 34.265625 53.734375 
Q 38.71875 56 44.09375 56 
Q 53.5625 56 58.46875 50.1875 
Q 63.375 44.390625 63.375 33.296875 
z
" id="DejaVuSans-Bold-6e"/>
    <path d="M 45.609375 9.28125 
Q 42 4.5 37.640625 2.25 
Q 33.296875 0 27.59375 0 
Q 17.578125 0 11.03125 7.875 
Q 4.5 15.765625 4.5 27.984375 
Q 4.5 40.234375 11.03125 48.0625 
Q 17.578125 55.90625 27.59375 55.90625 
Q 33.296875 55.90625 37.640625 53.65625 
Q 42 51.421875 45.609375 46.578125 
L 45.609375 54.6875 
L 63.1875 54.6875 
L 63.1875 5.515625 
Q 63.1875 -7.671875 54.859375 -14.625 
Q 46.53125 -21.578125 30.71875 -21.578125 
Q 25.59375 -21.578125 20.796875 -20.796875 
Q 16.015625 -20.015625 11.1875 -18.40625 
L 11.1875 -4.78125 
Q 15.765625 -7.421875 20.15625 -8.71875 
Q 24.5625 -10.015625 29 -10.015625 
Q 37.59375 -10.015625 41.59375 -6.25 
Q 45.609375 -2.484375 45.609375 5.515625 
z
M 34.078125 43.3125 
Q 28.65625 43.3125 25.625 39.296875 
Q 22.609375 35.296875 22.609375 27.984375 
Q 22.609375 20.453125 25.53125 16.578125 
Q 28.46875 12.703125 34.078125 12.703125 
Q 39.546875 12.703125 42.578125 16.703125 
Q 45.609375 20.703125 45.609375 27.984375 
Q 45.609375 35.296875 42.578125 39.296875 
Q 39.546875 43.3125 34.078125 43.3125 
z
" id="DejaVuSans-Bold-67"/>
    <path d="M 62.984375 27.484375 
L 62.984375 22.515625 
L 22.125 22.515625 
Q 22.75 16.359375 26.5625 13.28125 
Q 30.375 10.203125 37.203125 10.203125 
Q 42.71875 10.203125 48.5 11.84375 
Q 54.296875 13.484375 60.40625 16.796875 
L 60.40625 3.328125 
Q 54.203125 0.984375 48 -0.21875 
Q 41.796875 -1.421875 35.59375 -1.421875 
Q 20.75 -1.421875 12.515625 6.125 
Q 4.296875 13.671875 4.296875 27.296875 
Q 4.296875 40.671875 12.375 48.328125 
Q 20.453125 56 34.625 56 
Q 47.515625 56 55.25 48.234375 
Q 62.984375 40.484375 62.984375 27.484375 
z
M 45.015625 33.296875 
Q 45.015625 38.28125 42.109375 41.328125 
Q 39.203125 44.390625 34.515625 44.390625 
Q 29.4375 44.390625 26.265625 41.53125 
Q 23.09375 38.671875 22.3125 33.296875 
z
" id="DejaVuSans-Bold-65"/>
    <path id="DejaVuSans-Bold-20"/>
    <path d="M 8.40625 54.6875 
L 25.875 54.6875 
L 25.875 0 
L 8.40625 0 
z
M 8.40625 75.984375 
L 25.875 75.984375 
L 25.875 61.71875 
L 8.40625 61.71875 
z
" id="DejaVuSans-Bold-69"/>
    <path d="M 9.1875 72.90625 
L 27.984375 72.90625 
L 27.984375 14.203125 
L 60.984375 14.203125 
L 60.984375 0 
L 9.1875 0 
z
" id="DejaVuSans-Bold-4c"/>
    <path d="M 37.5 11.28125 
Q 43.109375 11.28125 46.0625 15.375 
Q 49.03125 19.484375 49.03125 27.296875 
Q 49.03125 35.109375 46.0625 39.203125 
Q 43.109375 43.3125 37.5 43.3125 
Q 31.890625 43.3125 28.875 39.1875 
Q 25.875 35.0625 25.875 27.296875 
Q 25.875 19.53125 28.875 15.40625 
Q 31.890625 11.28125 37.5 11.28125 
z
M 25.875 46.6875 
Q 29.5 51.46875 33.890625 53.734375 
Q 38.28125 56 44 56 
Q 54.109375 56 60.59375 47.96875 
Q 67.09375 39.9375 67.09375 27.296875 
Q 67.09375 14.65625 60.59375 6.609375 
Q 54.109375 -1.421875 44 -1.421875 
Q 38.28125 -1.421875 33.890625 0.84375 
Q 29.5 3.125 25.875 7.90625 
L 25.875 0 
L 8.40625 0 
L 8.40625 75.984375 
L 25.875 75.984375 
z
" id="DejaVuSans-Bold-62"/>
    <path d="M 34.421875 43.5 
Q 28.609375 43.5 25.5625 39.328125 
Q 22.515625 35.15625 22.515625 27.296875 
Q 22.515625 19.4375 25.5625 15.25 
Q 28.609375 11.078125 34.421875 11.078125 
Q 40.140625 11.078125 43.15625 15.25 
Q 46.1875 19.4375 46.1875 27.296875 
Q 46.1875 35.15625 43.15625 39.328125 
Q 40.140625 43.5 34.421875 43.5 
z
M 34.421875 56 
Q 48.53125 56 56.46875 48.375 
Q 64.40625 40.765625 64.40625 27.296875 
Q 64.40625 13.8125 56.46875 6.1875 
Q 48.53125 -1.421875 34.421875 -1.421875 
Q 20.265625 -1.421875 12.28125 6.1875 
Q 4.296875 13.8125 4.296875 27.296875 
Q 4.296875 40.765625 12.28125 48.375 
Q 20.265625 56 34.421875 56 
z
" id="DejaVuSans-Bold-6f"/>
    <path d="M 49.03125 39.796875 
Q 46.734375 40.875 44.453125 41.375 
Q 42.1875 41.890625 39.890625 41.890625 
Q 33.15625 41.890625 29.515625 37.5625 
Q 25.875 33.25 25.875 25.203125 
L 25.875 0 
L 8.40625 0 
L 8.40625 54.6875 
L 25.875 54.6875 
L 25.875 45.703125 
Q 29.25 51.078125 33.609375 53.53125 
Q 37.984375 56 44.09375 56 
Q 44.96875 56 45.984375 55.921875 
Q 47.015625 55.859375 48.96875 55.609375 
z
" id="DejaVuSans-Bold-72"/>
    <path d="M 44.390625 75.984375 
L 44.390625 64.5 
L 34.71875 64.5 
Q 31 64.5 29.53125 63.15625 
Q 28.078125 61.8125 28.078125 58.5 
L 28.078125 54.6875 
L 43.015625 54.6875 
L 43.015625 42.1875 
L 28.078125 42.1875 
L 28.078125 0 
L 10.59375 0 
L 10.59375 42.1875 
L 1.90625 42.1875 
L 1.90625 54.6875 
L 10.59375 54.6875 
L 10.59375 58.5 
Q 10.59375 67.4375 15.578125 71.703125 
Q 20.5625 75.984375 31 75.984375 
z
" id="DejaVuSans-Bold-66"/>
    <path d="M 52.59375 52.984375 
L 52.59375 38.71875 
Q 49.03125 41.15625 45.4375 42.328125 
Q 41.84375 43.5 37.984375 43.5 
Q 30.671875 43.5 26.59375 39.234375 
Q 22.515625 34.96875 22.515625 27.296875 
Q 22.515625 19.625 26.59375 15.34375 
Q 30.671875 11.078125 37.984375 11.078125 
Q 42.09375 11.078125 45.78125 12.296875 
Q 49.46875 13.53125 52.59375 15.921875 
L 52.59375 1.609375 
Q 48.484375 0.09375 44.265625 -0.65625 
Q 40.046875 -1.421875 35.796875 -1.421875 
Q 21 -1.421875 12.640625 6.171875 
Q 4.296875 13.765625 4.296875 27.296875 
Q 4.296875 40.828125 12.640625 48.40625 
Q 21 56 35.796875 56 
Q 40.09375 56 44.265625 55.25 
Q 48.4375 54.5 52.59375 52.984375 
z
" id="DejaVuSans-Bold-63"/>
    <path d="M 25.875 7.90625 
L 25.875 -20.796875 
L 8.40625 -20.796875 
L 8.40625 54.6875 
L 25.875 54.6875 
L 25.875 46.6875 
Q 29.5 51.46875 33.890625 53.734375 
Q 38.28125 56 44 56 
Q 54.109375 56 60.59375 47.96875 
Q 67.09375 39.9375 67.09375 27.296875 
Q 67.09375 14.65625 60.59375 6.609375 
Q 54.109375 -1.421875 44 -1.421875 
Q 38.28125 -1.421875 33.890625 0.84375 
Q 29.5 3.125 25.875 7.90625 
z
M 37.5 43.3125 
Q 31.890625 43.3125 28.875 39.1875 
Q 25.875 35.0625 25.875 27.296875 
Q 25.875 19.53125 28.875 15.40625 
Q 31.890625 11.28125 37.5 11.28125 
Q 43.109375 11.28125 46.0625 15.375 
Q 49.03125 19.484375 49.03125 27.296875 
Q 49.03125 35.109375 46.0625 39.203125 
Q 43.109375 43.3125 37.5 43.3125 
z
" id="DejaVuSans-Bold-70"/>
    <path d="M 27.484375 70.21875 
L 27.484375 54.6875 
L 45.515625 54.6875 
L 45.515625 42.1875 
L 27.484375 42.1875 
L 27.484375 19 
Q 27.484375 15.1875 29 13.84375 
Q 30.515625 12.5 35.015625 12.5 
L 44 12.5 
L 44 0 
L 29 0 
Q 18.65625 0 14.328125 4.3125 
Q 10.015625 8.640625 10.015625 19 
L 10.015625 42.1875 
L 1.3125 42.1875 
L 1.3125 54.6875 
L 10.015625 54.6875 
L 10.015625 70.21875 
z
" id="DejaVuSans-Bold-74"/>
    <path d="M 45.609375 46.6875 
L 45.609375 75.984375 
L 63.1875 75.984375 
L 63.1875 0 
L 45.609375 0 
L 45.609375 7.90625 
Q 42 3.078125 37.640625 0.828125 
Q 33.296875 -1.421875 27.59375 -1.421875 
Q 17.484375 -1.421875 10.984375 6.609375 
Q 4.5 14.65625 4.5 27.296875 
Q 4.5 39.9375 10.984375 47.96875 
Q 17.484375 56 27.59375 56 
Q 33.25 56 37.625 53.734375 
Q 42 51.46875 45.609375 46.6875 
z
M 34.078125 11.28125 
Q 39.703125 11.28125 42.65625 15.375 
Q 45.609375 19.484375 45.609375 27.296875 
Q 45.609375 35.109375 42.65625 39.203125 
Q 39.703125 43.3125 34.078125 43.3125 
Q 28.515625 43.3125 25.5625 39.203125 
Q 22.609375 35.109375 22.609375 27.296875 
Q 22.609375 19.484375 25.5625 15.375 
Q 28.515625 11.28125 34.078125 11.28125 
z
" id="DejaVuSans-Bold-64"/>
    <path d="M 59.078125 45.609375 
Q 62.40625 50.6875 66.96875 53.34375 
Q 71.53125 56 77 56 
Q 86.421875 56 91.359375 50.1875 
Q 96.296875 44.390625 96.296875 33.296875 
L 96.296875 0 
L 78.71875 0 
L 78.71875 28.515625 
Q 78.765625 29.15625 78.78125 29.828125 
Q 78.8125 30.515625 78.8125 31.78125 
Q 78.8125 37.59375 77.09375 40.203125 
Q 75.390625 42.828125 71.578125 42.828125 
Q 66.609375 42.828125 63.890625 38.71875 
Q 61.1875 34.625 61.078125 26.859375 
L 61.078125 0 
L 43.5 0 
L 43.5 28.515625 
Q 43.5 37.59375 41.9375 40.203125 
Q 40.375 42.828125 36.375 42.828125 
Q 31.34375 42.828125 28.609375 38.703125 
Q 25.875 34.578125 25.875 26.90625 
L 25.875 0 
L 8.296875 0 
L 8.296875 54.6875 
L 25.875 54.6875 
L 25.875 46.6875 
Q 29.109375 51.3125 33.28125 53.65625 
Q 37.453125 56 42.484375 56 
Q 48.140625 56 52.484375 53.265625 
Q 56.84375 50.53125 59.078125 45.609375 
z
" id="DejaVuSans-Bold-6d"/>
    <path d="M 51.125 52.984375 
L 51.125 39.703125 
Q 45.515625 42.046875 40.28125 43.21875 
Q 35.0625 44.390625 30.421875 44.390625 
Q 25.4375 44.390625 23.015625 43.140625 
Q 20.609375 41.890625 20.609375 39.3125 
Q 20.609375 37.203125 22.4375 36.078125 
Q 24.265625 34.96875 29 34.421875 
L 32.078125 33.984375 
Q 45.515625 32.28125 50.140625 28.375 
Q 54.78125 24.46875 54.78125 16.109375 
Q 54.78125 7.375 48.328125 2.96875 
Q 41.890625 -1.421875 29.109375 -1.421875 
Q 23.6875 -1.421875 17.890625 -0.5625 
Q 12.109375 0.296875 6 2 
L 6 15.28125 
Q 11.234375 12.75 16.71875 11.46875 
Q 22.21875 10.203125 27.875 10.203125 
Q 33.015625 10.203125 35.59375 11.609375 
Q 38.1875 13.03125 38.1875 15.828125 
Q 38.1875 18.171875 36.40625 19.3125 
Q 34.625 20.453125 29.296875 21.09375 
L 26.21875 21.484375 
Q 14.546875 22.953125 9.859375 26.90625 
Q 5.171875 30.859375 5.171875 38.921875 
Q 5.171875 47.609375 11.125 51.796875 
Q 17.09375 56 29.390625 56 
Q 34.234375 56 39.546875 55.265625 
Q 44.875 54.546875 51.125 52.984375 
z
" id="DejaVuSans-Bold-73"/>
   </defs>
   <g transform="translate(72.9 26.87625)scale(0.24 -0.24)">
    <use xlink:href="#DejaVuSans-Bold-43"/>
    <use x="73.388672" xlink:href="#DejaVuSans-Bold-68"/>
    <use x="144.580078" xlink:href="#DejaVuSans-Bold-61"/>
    <use x="212.060547" xlink:href="#DejaVuSans-Bold-6e"/>
    <use x="283.251953" xlink:href="#DejaVuSans-Bold-67"/>
    <use x="354.833984" xlink:href="#DejaVuSans-Bold-65"/>
    <use x="422.65625" xlink:href="#DejaVuSans-Bold-20"/>
    <use x="457.470703" xlink:href="#DejaVuSans-Bold-69"/>
    <use x="491.748047" xlink:href="#DejaVuSans-Bold-6e"/>
    <use x="562.939453" xlink:href="#DejaVuSans-Bold-20"/>
    <use x="597.753906" xlink:href="#DejaVuSans-Bold-4c"/>
    <use x="661.474609" xlink:href="#DejaVuSans-Bold-61"/>
    <use x="728.955078" xlink:href="#DejaVuSans-Bold-62"/>
    <use x="800.537109" xlink:href="#DejaVuSans-Bold-6f"/>
    <use x="869.238281" xlink:href="#DejaVuSans-Bold-72"/>
    <use x="918.554688" xlink:href="#DejaVuSans-Bold-20"/>
    <use x="953.369141" xlink:href="#DejaVuSans-Bold-66"/>
    <use x="996.875" xlink:href="#DejaVuSans-Bold-6f"/>
    <use x="1065.576172" xlink:href="#DejaVuSans-Bold-72"/>
    <use x="1114.892578" xlink:href="#DejaVuSans-Bold-63"/>
    <use x="1174.169922" xlink:href="#DejaVuSans-Bold-65"/>
    <use x="1241.992188" xlink:href="#DejaVuSans-Bold-20"/>
    <use x="1276.806641" xlink:href="#DejaVuSans-Bold-70"/>
    <use x="1348.388672" xlink:href="#DejaVuSans-Bold-61"/>
    <use x="1415.869141" xlink:href="#DejaVuSans-Bold-72"/>
    <use x="1465.185547" xlink:href="#DejaVuSans-Bold-74"/>
    <use x="1512.988281" xlink:href="#DejaVuSans-Bold-69"/>
    <use x="1547.265625" xlink:href="#DejaVuSans-Bold-63"/>
    <use x="1606.542969" xlink:href="#DejaVuSans-Bold-69"/>
    <use x="1640.820312" xlink:href="#DejaVuSans-Bold-70"/>
    <use x="1712.402344" xlink:href="#DejaVuSans-Bold-61"/>
    <use x="1779.882812" xlink:href="#DejaVuSans-Bold-74"/>
    <use x="1827.685547" xlink:href="#DejaVuSans-Bold-69"/>
    <use x="1861.962891" xlink:href="#DejaVuSans-Bold-6f"/>
    <use x="1930.664062" xlink:href="#DejaVuSans-Bold-6e"/>
    <use x="2001.855469" xlink:href="#DejaVuSans-Bold-20"/>
    <use x="2036.669922" xlink:href="#DejaVuSans-Bold-72"/>
    <use x="2085.986328" xlink:href="#DejaVuSans-Bold-61"/>
    <use x="2153.466797" xlink:href="#DejaVuSans-Bold-74"/>
    <use x="2201.269531" xlink:href="#DejaVuSans-Bold-65"/>
    <use x="2269.091797" xlink:href="#DejaVuSans-Bold-20"/>
    <use x="2303.90625" xlink:href="#DejaVuSans-Bold-64"/>
    <use x="2375.488281" xlink:href="#DejaVuSans-Bold-65"/>
    <use x="2443.310547" xlink:href="#DejaVuSans-Bold-63"/>
    <use x="2502.587891" xlink:href="#DejaVuSans-Bold-6f"/>
    <use x="2571.289062" xlink:href="#DejaVuSans-Bold-6d"/>
    <use x="2675.488281" xlink:href="#DejaVuSans-Bold-70"/>
    <use x="2747.070312" xlink:href="#DejaVuSans-Bold-6f"/>
    <use x="2815.771484" xlink:href="#DejaVuSans-Bold-73"/>
    <use x="2875.292969" xlink:href="#DejaVuSans-Bold-65"/>
    <use x="2943.115234" xlink:href="#DejaVuSans-Bold-64"/>
   </g>
  </g>
  <g id="text_21">
   <!-- Source: Bureau of Labor Statistics -->
   <defs>
    <path d="M 53.515625 70.515625 
L 53.515625 60.890625 
Q 47.90625 63.578125 42.921875 64.890625 
Q 37.9375 66.21875 33.296875 66.21875 
Q 25.25 66.21875 20.875 63.09375 
Q 16.5 59.96875 16.5 54.203125 
Q 16.5 49.359375 19.40625 46.890625 
Q 22.3125 44.4375 30.421875 42.921875 
L 36.375 41.703125 
Q 47.40625 39.59375 52.65625 34.296875 
Q 57.90625 29 57.90625 20.125 
Q 57.90625 9.515625 50.796875 4.046875 
Q 43.703125 -1.421875 29.984375 -1.421875 
Q 24.8125 -1.421875 18.96875 -0.25 
Q 13.140625 0.921875 6.890625 3.21875 
L 6.890625 13.375 
Q 12.890625 10.015625 18.65625 8.296875 
Q 24.421875 6.59375 29.984375 6.59375 
Q 38.421875 6.59375 43.015625 9.90625 
Q 47.609375 13.234375 47.609375 19.390625 
Q 47.609375 24.75 44.3125 27.78125 
Q 41.015625 30.8125 33.5 32.328125 
L 27.484375 33.5 
Q 16.453125 35.6875 11.515625 40.375 
Q 6.59375 45.0625 6.59375 53.421875 
Q 6.59375 63.09375 13.40625 68.65625 
Q 20.21875 74.21875 32.171875 74.21875 
Q 37.3125 74.21875 42.625 73.28125 
Q 47.953125 72.359375 53.515625 70.515625 
z
" id="DejaVuSans-53"/>
    <path d="M 11.71875 12.40625 
L 22.015625 12.40625 
L 22.015625 0 
L 11.71875 0 
z
M 11.71875 51.703125 
L 22.015625 51.703125 
L 22.015625 39.3125 
L 11.71875 39.3125 
z
" id="DejaVuSans-3a"/>
    <path d="M 19.671875 34.8125 
L 19.671875 8.109375 
L 35.5 8.109375 
Q 43.453125 8.109375 47.28125 11.40625 
Q 51.125 14.703125 51.125 21.484375 
Q 51.125 28.328125 47.28125 31.5625 
Q 43.453125 34.8125 35.5 34.8125 
z
M 19.671875 64.796875 
L 19.671875 42.828125 
L 34.28125 42.828125 
Q 41.5 42.828125 45.03125 45.53125 
Q 48.578125 48.25 48.578125 53.8125 
Q 48.578125 59.328125 45.03125 62.0625 
Q 41.5 64.796875 34.28125 64.796875 
z
M 9.8125 72.90625 
L 35.015625 72.90625 
Q 46.296875 72.90625 52.390625 68.21875 
Q 58.5 63.53125 58.5 54.890625 
Q 58.5 48.1875 55.375 44.234375 
Q 52.25 40.28125 46.1875 39.3125 
Q 53.46875 37.75 57.5 32.78125 
Q 61.53125 27.828125 61.53125 20.40625 
Q 61.53125 10.640625 54.890625 5.3125 
Q 48.25 0 35.984375 0 
L 9.8125 0 
z
" id="DejaVuSans-42"/>
    <path d="M 37.109375 75.984375 
L 37.109375 68.5 
L 28.515625 68.5 
Q 23.6875 68.5 21.796875 66.546875 
Q 19.921875 64.59375 19.921875 59.515625 
L 19.921875 54.6875 
L 34.71875 54.6875 
L 34.71875 47.703125 
L 19.921875 47.703125 
L 19.921875 0 
L 10.890625 0 
L 10.890625 47.703125 
L 2.296875 47.703125 
L 2.296875 54.6875 
L 10.890625 54.6875 
L 10.890625 58.5 
Q 10.890625 67.625 15.140625 71.796875 
Q 19.390625 75.984375 28.609375 75.984375 
z
" id="DejaVuSans-66"/>
   </defs>
   <g transform="translate(72.9 421.2)scale(0.1 -0.1)">
    <use xlink:href="#DejaVuSans-53"/>
    <use x="63.476562" xlink:href="#DejaVuSans-6f"/>
    <use x="124.658203" xlink:href="#DejaVuSans-75"/>
    <use x="188.037109" xlink:href="#DejaVuSans-72"/>
    <use x="229.119141" xlink:href="#DejaVuSans-63"/>
    <use x="284.099609" xlink:href="#DejaVuSans-65"/>
    <use x="345.623047" xlink:href="#DejaVuSans-3a"/>
    <use x="379.314453" xlink:href="#DejaVuSans-20"/>
    <use x="411.101562" xlink:href="#DejaVuSans-42"/>
    <use x="479.705078" xlink:href="#DejaVuSans-75"/>
    <use x="543.083984" xlink:href="#DejaVuSans-72"/>
    <use x="584.166016" xlink:href="#DejaVuSans-65"/>
    <use x="645.689453" xlink:href="#DejaVuSans-61"/>
    <use x="706.96875" xlink:href="#DejaVuSans-75"/>
    <use x="770.347656" xlink:href="#DejaVuSans-20"/>
    <use x="802.134766" xlink:href="#DejaVuSans-6f"/>
    <use x="863.316406" xlink:href="#DejaVuSans-66"/>
    <use x="898.521484" xlink:href="#DejaVuSans-20"/>
    <use x="930.308594" xlink:href="#DejaVuSans-4c"/>
    <use x="986.021484" xlink:href="#DejaVuSans-61"/>
    <use x="1047.300781" xlink:href="#DejaVuSans-62"/>
    <use x="1110.777344" xlink:href="#DejaVuSans-6f"/>
    <use x="1171.958984" xlink:href="#DejaVuSans-72"/>
    <use x="1213.072266" xlink:href="#DejaVuSans-20"/>
    <use x="1244.859375" xlink:href="#DejaVuSans-53"/>
    <use x="1308.335938" xlink:href="#DejaVuSans-74"/>
    <use x="1347.544922" xlink:href="#DejaVuSans-61"/>
    <use x="1408.824219" xlink:href="#DejaVuSans-74"/>
    <use x="1448.033203" xlink:href="#DejaVuSans-69"/>
    <use x="1475.816406" xlink:href="#DejaVuSans-73"/>
    <use x="1527.916016" xlink:href="#DejaVuSans-74"/>
    <use x="1567.125" xlink:href="#DejaVuSans-69"/>
    <use x="1594.908203" xlink:href="#DejaVuSans-63"/>
    <use x="1649.888672" xlink:href="#DejaVuSans-73"/>
   </g>
  </g>
 </g>
 <defs>
  <clipPath id="p72cff4d065">
   <rect height="336.96" width="850.5" x="72.9" y="51.84"/>
  </clipPath>
 </defs>
</svg>
