<?xml version="1.0" encoding="utf-8" standalone="no"?>
<!DOCTYPE svg PUBLIC "-//W3C//DTD SVG 1.1//EN"
  "http://www.w3.org/Graphics/SVG/1.1/DTD/svg11.dtd">
<!-- Created with matplotlib (http://matplotlib.org/) -->
<svg height="252pt" version="1.1" viewBox="0 0 864 252" width="864pt" xmlns="http://www.w3.org/2000/svg" xmlns:xlink="http://www.w3.org/1999/xlink">
 <defs>
  <style type="text/css">
*{stroke-linecap:butt;stroke-linejoin:round;}
  </style>
 </defs>
 <g id="figure_1">
  <g id="patch_1">
   <path d="M 0 252 
L 864 252 
L 864 0 
L 0 0 
z
" style="fill:none;"/>
  </g>
  <g id="axes_1">
   <g id="patch_2">
    <path d="M 81.9275 206.298438 
L 806.5 206.298438 
L 806.5 31.94 
L 81.9275 31.94 
z
" style="fill:none;"/>
   </g>
   <g id="PolyCollection_1">
    <path clip-path="url(#pb67a4fba4a)" d="M 81.9275 106.87726 
L 81.9275 206.298437 
L 84.015605 206.298437 
L 86.10371 206.298437 
L 88.191816 206.298437 
L 90.279921 206.298437 
L 92.368026 206.298437 
L 94.456131 206.298437 
L 96.544236 206.298437 
L 98.632341 206.298437 
L 100.720447 206.298437 
L 102.808552 206.298437 
L 104.896657 206.298437 
L 106.984762 206.298437 
L 109.072867 206.298437 
L 111.160973 206.298437 
L 113.249078 206.298437 
L 115.337183 206.298437 
L 117.425288 206.298437 
L 119.513393 206.298437 
L 121.601499 206.298437 
L 123.689604 206.298437 
L 125.777709 206.298437 
L 127.865814 206.298437 
L 129.953919 206.298437 
L 132.042024 206.298437 
L 134.13013 206.298437 
L 136.218235 206.298437 
L 138.30634 206.298437 
L 140.394445 206.298437 
L 142.48255 206.298437 
L 144.570656 206.298437 
L 146.658761 206.298437 
L 148.746866 206.298437 
L 150.834971 206.298437 
L 152.923076 206.298437 
L 155.011182 206.298437 
L 157.099287 206.298437 
L 159.187392 206.298437 
L 161.275497 206.298437 
L 163.363602 206.298437 
L 165.451707 206.298437 
L 167.539813 206.298437 
L 169.627918 206.298437 
L 171.716023 206.298437 
L 173.804128 206.298437 
L 175.892233 206.298437 
L 177.980339 206.298437 
L 180.068444 206.298437 
L 182.156549 206.298437 
L 184.244654 206.298437 
L 186.332759 206.298437 
L 188.420865 206.298437 
L 190.50897 206.298437 
L 192.597075 206.298437 
L 194.68518 206.298437 
L 196.773285 206.298437 
L 198.86139 206.298437 
L 200.949496 206.298437 
L 203.037601 206.298437 
L 205.125706 206.298437 
L 207.213811 206.298437 
L 209.301916 206.298437 
L 211.390022 206.298437 
L 213.478127 206.298437 
L 215.566232 206.298437 
L 217.654337 206.298437 
L 219.742442 206.298437 
L 221.830548 206.298437 
L 223.918653 206.298437 
L 226.006758 206.298437 
L 228.094863 206.298437 
L 230.182968 206.298437 
L 232.271073 206.298437 
L 234.359179 206.298437 
L 236.447284 206.298437 
L 238.535389 206.298437 
L 240.623494 206.298437 
L 242.711599 206.298437 
L 244.799705 206.298437 
L 246.88781 206.298437 
L 248.975915 206.298437 
L 251.06402 206.298437 
L 253.152125 206.298437 
L 255.240231 206.298437 
L 257.328336 206.298437 
L 259.416441 206.298437 
L 261.504546 206.298437 
L 263.592651 206.298437 
L 265.680756 206.298437 
L 267.768862 206.298437 
L 269.856967 206.298437 
L 271.945072 206.298437 
L 274.033177 206.298437 
L 276.121282 206.298437 
L 278.209388 206.298437 
L 280.297493 206.298437 
L 282.385598 206.298437 
L 284.473703 206.298437 
L 286.561808 206.298437 
L 288.649914 206.298437 
L 290.738019 206.298437 
L 292.826124 206.298437 
L 294.914229 206.298437 
L 297.002334 206.298437 
L 299.090439 206.298437 
L 301.178545 206.298437 
L 303.26665 206.298437 
L 305.354755 206.298437 
L 307.44286 206.298437 
L 309.530965 206.298437 
L 311.619071 206.298437 
L 313.707176 206.298437 
L 315.795281 206.298437 
L 317.883386 206.298437 
L 319.971491 206.298437 
L 322.059597 206.298437 
L 324.147702 206.298437 
L 326.235807 206.298437 
L 328.323912 206.298437 
L 330.412017 206.298437 
L 332.500122 206.298437 
L 334.588228 206.298437 
L 336.676333 206.298437 
L 338.764438 206.298437 
L 340.852543 206.298437 
L 342.940648 206.298437 
L 345.028754 206.298437 
L 347.116859 206.298437 
L 349.204964 206.298437 
L 351.293069 206.298437 
L 353.381174 206.298437 
L 355.46928 206.298437 
L 357.557385 206.298437 
L 359.64549 206.298437 
L 361.733595 206.298437 
L 363.8217 206.298437 
L 365.909805 206.298437 
L 367.997911 206.298437 
L 370.086016 206.298437 
L 372.174121 206.298437 
L 374.262226 206.298437 
L 376.350331 206.298437 
L 378.438437 206.298437 
L 380.526542 206.298437 
L 382.614647 206.298437 
L 384.702752 206.298437 
L 386.790857 206.298437 
L 388.878963 206.298437 
L 390.967068 206.298437 
L 393.055173 206.298437 
L 395.143278 206.298437 
L 397.231383 206.298437 
L 399.319488 206.298437 
L 401.407594 206.298437 
L 403.495699 206.298437 
L 405.583804 206.298437 
L 407.671909 206.298437 
L 409.760014 206.298437 
L 411.84812 206.298437 
L 413.936225 206.298437 
L 416.02433 206.298437 
L 418.112435 206.298437 
L 420.20054 206.298437 
L 422.288646 206.298437 
L 424.376751 206.298437 
L 426.464856 206.298437 
L 428.552961 206.298437 
L 430.641066 206.298437 
L 432.729171 206.298437 
L 434.817277 206.298437 
L 436.905382 206.298437 
L 438.993487 206.298437 
L 441.081592 206.298437 
L 443.169697 206.298437 
L 445.257803 206.298437 
L 447.345908 206.298437 
L 449.434013 206.298437 
L 451.522118 206.298437 
L 453.610223 206.298437 
L 455.698329 206.298437 
L 457.786434 206.298437 
L 459.874539 206.298437 
L 461.962644 206.298437 
L 464.050749 206.298437 
L 466.138854 206.298437 
L 468.22696 206.298437 
L 470.315065 206.298437 
L 472.40317 206.298437 
L 474.491275 206.298437 
L 476.57938 206.298437 
L 478.667486 206.298437 
L 480.755591 206.298437 
L 482.843696 206.298437 
L 484.931801 206.298437 
L 487.019906 206.298437 
L 489.108012 206.298437 
L 491.196117 206.298437 
L 493.284222 206.298437 
L 495.372327 206.298437 
L 497.460432 206.298437 
L 499.548537 206.298437 
L 501.636643 206.298437 
L 503.724748 206.298437 
L 505.812853 206.298437 
L 507.900958 206.298437 
L 509.989063 206.298437 
L 512.077169 206.298437 
L 514.165274 206.298437 
L 516.253379 206.298437 
L 518.341484 206.298437 
L 520.429589 206.298437 
L 522.517695 206.298437 
L 524.6058 206.298437 
L 526.693905 206.298437 
L 528.78201 206.298437 
L 530.870115 206.298437 
L 532.95822 206.298437 
L 535.046326 206.298437 
L 537.134431 206.298437 
L 539.222536 206.298437 
L 541.310641 206.298437 
L 543.398746 206.298437 
L 545.486852 206.298437 
L 547.574957 206.298437 
L 549.663062 206.298437 
L 551.751167 206.298437 
L 553.839272 206.298437 
L 555.927378 206.298437 
L 558.015483 206.298437 
L 560.103588 206.298437 
L 562.191693 206.298437 
L 564.279798 206.298437 
L 566.367903 206.298437 
L 568.456009 206.298437 
L 570.544114 206.298437 
L 572.632219 206.298437 
L 574.720324 206.298437 
L 576.808429 206.298437 
L 578.896535 206.298437 
L 580.98464 206.298437 
L 583.072745 206.298437 
L 585.16085 206.298437 
L 587.248955 206.298437 
L 589.337061 206.298437 
L 591.425166 206.298437 
L 593.513271 206.298437 
L 595.601376 206.298437 
L 597.689481 206.298437 
L 599.777586 206.298437 
L 601.865692 206.298437 
L 603.953797 206.298437 
L 606.041902 206.298437 
L 608.130007 206.298437 
L 610.218112 206.298437 
L 612.306218 206.298437 
L 614.394323 206.298437 
L 616.482428 206.298437 
L 618.570533 206.298437 
L 620.658638 206.298437 
L 622.746744 206.298437 
L 624.834849 206.298437 
L 626.922954 206.298437 
L 629.011059 206.298437 
L 631.099164 206.298437 
L 633.187269 206.298437 
L 635.275375 206.298437 
L 637.36348 206.298437 
L 639.451585 206.298437 
L 641.53969 206.298437 
L 643.627795 206.298437 
L 645.715901 206.298437 
L 647.804006 206.298437 
L 649.892111 206.298437 
L 651.980216 206.298437 
L 654.068321 206.298437 
L 656.156427 206.298437 
L 658.244532 206.298437 
L 660.332637 206.298437 
L 662.420742 206.298437 
L 664.508847 206.298437 
L 666.596952 206.298437 
L 668.685058 206.298437 
L 670.773163 206.298437 
L 672.861268 206.298437 
L 674.949373 206.298437 
L 677.037478 206.298437 
L 679.125584 206.298437 
L 681.213689 206.298437 
L 683.301794 206.298437 
L 685.389899 206.298437 
L 687.478004 206.298437 
L 689.56611 206.298437 
L 691.654215 206.298437 
L 693.74232 206.298437 
L 695.830425 206.298437 
L 697.91853 206.298437 
L 700.006635 206.298437 
L 702.094741 206.298437 
L 704.182846 206.298437 
L 706.270951 206.298437 
L 708.359056 206.298437 
L 710.447161 206.298437 
L 712.535267 206.298437 
L 714.623372 206.298437 
L 716.711477 206.298437 
L 718.799582 206.298437 
L 720.887687 206.298437 
L 722.975793 206.298437 
L 725.063898 206.298437 
L 727.152003 206.298437 
L 729.240108 206.298437 
L 731.328213 206.298437 
L 733.416318 206.298437 
L 735.504424 206.298437 
L 737.592529 206.298437 
L 739.680634 206.298437 
L 741.768739 206.298437 
L 743.856844 206.298437 
L 745.94495 206.298437 
L 748.033055 206.298437 
L 750.12116 206.298437 
L 752.209265 206.298437 
L 754.29737 206.298437 
L 756.385476 206.298437 
L 758.473581 206.298437 
L 760.561686 206.298437 
L 762.649791 206.298437 
L 764.737896 206.298437 
L 766.826001 206.298437 
L 768.914107 206.298437 
L 771.002212 206.298437 
L 773.090317 206.298437 
L 775.178422 206.298437 
L 777.266527 206.298437 
L 779.354633 206.298437 
L 781.442738 206.298437 
L 783.530843 206.298437 
L 785.618948 206.298437 
L 787.707053 206.298437 
L 789.795159 206.298437 
L 791.883264 206.298437 
L 793.971369 206.298437 
L 796.059474 206.298437 
L 798.147579 206.298437 
L 800.235684 206.298437 
L 802.32379 206.298437 
L 804.411895 206.298437 
L 804.411895 152.122248 
L 804.411895 152.122248 
L 802.32379 152.904817 
L 800.235684 156.039343 
L 798.147579 157.963167 
L 796.059474 154.193874 
L 793.971369 156.003619 
L 791.883264 155.925581 
L 789.795159 157.166432 
L 787.707053 156.475008 
L 785.618948 155.548089 
L 783.530843 160.246697 
L 781.442738 160.287911 
L 779.354633 160.340896 
L 777.266527 160.070597 
L 775.178422 155.980456 
L 773.090317 160.955391 
L 771.002212 159.836008 
L 768.914107 160.822704 
L 766.826001 162.491194 
L 764.737896 159.917329 
L 762.649791 159.860582 
L 760.561686 162.955712 
L 758.473581 165.269835 
L 756.385476 166.894947 
L 754.29737 166.809188 
L 752.209265 167.189806 
L 750.12116 167.097793 
L 748.033055 167.004359 
L 745.94495 167.438684 
L 743.856844 168.724059 
L 741.768739 168.610879 
L 739.680634 168.246248 
L 737.592529 165.687369 
L 735.504424 166.444829 
L 733.416318 168.664994 
L 731.328213 169.809539 
L 729.240108 173.524417 
L 727.152003 174.288778 
L 725.063898 176.484009 
L 722.975793 173.270535 
L 720.887687 174.497345 
L 718.799582 173.781215 
L 716.711477 173.05104 
L 714.623372 174.232168 
L 712.535267 175.763452 
L 710.447161 175.542609 
L 708.359056 174.727722 
L 706.270951 175.446116 
L 704.182846 176.133682 
L 702.094741 175.212637 
L 700.006635 178.959619 
L 697.91853 179.67483 
L 695.830425 179.670644 
L 693.74232 179.741304 
L 691.654215 182.063915 
L 689.56611 182.326266 
L 687.478004 181.620024 
L 685.389899 184.513777 
L 683.301794 184.079766 
L 681.213689 185.808698 
L 679.125584 187.188649 
L 677.037478 193.079541 
L 674.949373 185.964741 
L 672.861268 185.747734 
L 670.773163 185.334169 
L 668.685058 186.373854 
L 666.596952 186.413497 
L 664.508847 187.38605 
L 662.420742 188.905828 
L 660.332637 187.882509 
L 658.244532 187.692819 
L 656.156427 186.113603 
L 654.068321 185.354988 
L 651.980216 183.857607 
L 649.892111 185.734224 
L 647.804006 190.25512 
L 645.715901 189.360586 
L 643.627795 187.824715 
L 641.53969 188.353869 
L 639.451585 189.79362 
L 637.36348 188.052911 
L 635.275375 188.625691 
L 633.187269 189.894376 
L 631.099164 187.700417 
L 629.011059 187.639967 
L 626.922954 190.241017 
L 624.834849 190.740278 
L 622.746744 191.64318 
L 620.658638 193.831013 
L 618.570533 194.087377 
L 616.482428 191.588244 
L 614.394323 191.154919 
L 612.306218 190.14231 
L 610.218112 191.29955 
L 608.130007 191.724741 
L 606.041902 192.140194 
L 603.953797 193.276244 
L 601.865692 191.940346 
L 599.777586 189.026255 
L 597.689481 187.767819 
L 595.601376 188.764747 
L 593.513271 188.185157 
L 591.425166 186.630172 
L 589.337061 185.486529 
L 587.248955 188.767129 
L 585.16085 189.324831 
L 583.072745 189.667306 
L 580.98464 193.186451 
L 578.896535 187.652212 
L 576.808429 188.492206 
L 574.720324 184.659862 
L 572.632219 178.658291 
L 570.544114 174.687105 
L 568.456009 172.94449 
L 566.367903 170.285895 
L 564.279798 166.463221 
L 562.191693 165.264655 
L 560.103588 157.566667 
L 558.015483 152.988865 
L 555.927378 145.290418 
L 553.839272 138.920696 
L 551.751167 132.723089 
L 549.663062 129.527456 
L 547.574957 127.415148 
L 545.486852 123.838581 
L 543.398746 121.203302 
L 541.310641 118.896046 
L 539.222536 116.253719 
L 537.134431 115.646006 
L 535.046326 114.248343 
L 532.95822 111.680856 
L 530.870115 115.002476 
L 528.78201 111.577958 
L 526.693905 115.379595 
L 524.6058 111.949635 
L 522.517695 114.983828 
L 520.429589 112.119189 
L 518.341484 109.770647 
L 516.253379 109.864766 
L 514.165274 111.185576 
L 512.077169 104.596141 
L 509.989063 105.635492 
L 507.900958 104.969841 
L 505.812853 102.809202 
L 503.724748 105.139184 
L 501.636643 105.704038 
L 499.548537 108.265469 
L 497.460432 108.500805 
L 495.372327 110.496964 
L 493.284222 108.188029 
L 491.196117 109.032247 
L 489.108012 110.434686 
L 487.019906 109.503554 
L 484.931801 110.659202 
L 482.843696 111.998048 
L 480.755591 114.43203 
L 478.667486 115.304219 
L 476.57938 113.752119 
L 474.491275 113.597762 
L 472.40317 112.027901 
L 470.315065 113.873694 
L 468.22696 115.108745 
L 466.138854 114.747104 
L 464.050749 116.381333 
L 461.962644 120.041378 
L 459.874539 121.182075 
L 457.786434 121.276045 
L 455.698329 121.253681 
L 453.610223 119.373661 
L 451.522118 122.136769 
L 449.434013 122.821435 
L 447.345908 120.869226 
L 445.257803 119.764999 
L 443.169697 121.641497 
L 441.081592 123.047752 
L 438.993487 123.370417 
L 436.905382 124.139222 
L 434.817277 122.499831 
L 432.729171 122.090778 
L 430.641066 124.263587 
L 428.552961 123.049108 
L 426.464856 125.330601 
L 424.376751 127.003632 
L 422.288646 126.147452 
L 420.20054 125.490632 
L 418.112435 121.83107 
L 416.02433 122.567586 
L 413.936225 120.740925 
L 411.84812 121.209499 
L 409.760014 119.83114 
L 407.671909 119.266898 
L 405.583804 121.407892 
L 403.495699 119.694632 
L 401.407594 114.768064 
L 399.319488 111.243962 
L 397.231383 114.802574 
L 395.143278 115.960609 
L 393.055173 114.828587 
L 390.967068 112.775387 
L 388.878963 115.12395 
L 386.790857 113.795764 
L 384.702752 110.881649 
L 382.614647 116.020718 
L 380.526542 112.266875 
L 378.438437 109.721264 
L 376.350331 107.388144 
L 374.262226 102.497022 
L 372.174121 106.135558 
L 370.086016 98.185348 
L 367.997911 98.597837 
L 365.909805 95.697609 
L 363.8217 92.946272 
L 361.733595 87.857676 
L 359.64549 88.229249 
L 357.557385 85.71816 
L 355.46928 86.25203 
L 353.381174 87.605854 
L 351.293069 88.803152 
L 349.204964 89.131846 
L 347.116859 89.724546 
L 345.028754 89.535607 
L 342.940648 85.07814 
L 340.852543 86.428193 
L 338.764438 79.984418 
L 336.676333 83.35784 
L 334.588228 83.164013 
L 332.500122 82.596434 
L 330.412017 85.691912 
L 328.323912 86.591936 
L 326.235807 88.249614 
L 324.147702 89.465626 
L 322.059597 89.22179 
L 319.971491 89.580787 
L 317.883386 88.826526 
L 315.795281 88.277385 
L 313.707176 90.239809 
L 311.619071 89.226578 
L 309.530965 89.111367 
L 307.44286 86.829448 
L 305.354755 87.979557 
L 303.26665 89.800822 
L 301.178545 91.180201 
L 299.090439 90.095009 
L 297.002334 93.954519 
L 294.914229 93.337495 
L 292.826124 93.059312 
L 290.738019 91.351715 
L 288.649914 91.42261 
L 286.561808 93.784451 
L 284.473703 93.047684 
L 282.385598 92.843202 
L 280.297493 92.48466 
L 278.209388 91.847526 
L 276.121282 94.949594 
L 274.033177 95.24204 
L 271.945072 94.191151 
L 269.856967 94.718255 
L 267.768862 97.328709 
L 265.680756 95.961057 
L 263.592651 97.854998 
L 261.504546 99.141392 
L 259.416441 103.564731 
L 257.328336 103.001935 
L 255.240231 103.230011 
L 253.152125 103.050847 
L 251.06402 100.976102 
L 248.975915 102.877802 
L 246.88781 104.859333 
L 244.799705 105.681111 
L 242.711599 107.680314 
L 240.623494 109.801814 
L 238.535389 111.008019 
L 236.447284 111.170783 
L 234.359179 112.298387 
L 232.271073 116.0296 
L 230.182968 115.662778 
L 228.094863 113.949164 
L 226.006758 111.302535 
L 223.918653 112.505374 
L 221.830548 113.844859 
L 219.742442 113.135427 
L 217.654337 114.824021 
L 215.566232 114.790727 
L 213.478127 109.417875 
L 211.390022 108.546911 
L 209.301916 108.106446 
L 207.213811 109.708194 
L 205.125706 109.263535 
L 203.037601 110.193151 
L 200.949496 112.776062 
L 198.86139 115.52152 
L 196.773285 117.43685 
L 194.68518 122.049786 
L 192.597075 121.770811 
L 190.50897 118.717727 
L 188.420865 122.998404 
L 186.332759 125.367315 
L 184.244654 123.300567 
L 182.156549 123.609358 
L 180.068444 127.19846 
L 177.980339 128.893318 
L 175.892233 130.979882 
L 173.804128 132.360696 
L 171.716023 128.579578 
L 169.627918 131.056583 
L 167.539813 131.739272 
L 165.451707 132.36645 
L 163.363602 137.279501 
L 161.275497 135.841644 
L 159.187392 137.466072 
L 157.099287 138.45747 
L 155.011182 138.176064 
L 152.923076 138.36433 
L 150.834971 139.609098 
L 148.746866 137.600289 
L 146.658761 135.471702 
L 144.570656 135.424689 
L 142.48255 137.177199 
L 140.394445 136.684991 
L 138.30634 135.392183 
L 136.218235 137.112599 
L 134.13013 139.897628 
L 132.042024 137.219013 
L 129.953919 141.007431 
L 127.865814 137.456208 
L 125.777709 136.287876 
L 123.689604 134.02794 
L 121.601499 137.032569 
L 119.513393 135.311289 
L 117.425288 133.840992 
L 115.337183 134.815136 
L 113.249078 127.942753 
L 111.160973 131.355979 
L 109.072867 129.78919 
L 106.984762 127.480104 
L 104.896657 123.887266 
L 102.808552 122.461811 
L 100.720447 119.420217 
L 98.632341 118.484445 
L 96.544236 114.853311 
L 94.456131 113.889055 
L 92.368026 111.540643 
L 90.279921 109.14783 
L 88.191816 111.123011 
L 86.10371 107.017285 
L 84.015605 107.682831 
L 81.9275 106.87726 
z
" style="fill:#696969;fill-opacity:0.5;"/>
   </g>
   <g id="PolyCollection_2">
    <path clip-path="url(#pb67a4fba4a)" d="M 81.9275 44.393877 
L 81.9275 106.87726 
L 84.015605 107.682831 
L 86.10371 107.017285 
L 88.191816 111.123011 
L 90.279921 109.14783 
L 92.368026 111.540643 
L 94.456131 113.889055 
L 96.544236 114.853311 
L 98.632341 118.484445 
L 100.720447 119.420217 
L 102.808552 122.461811 
L 104.896657 123.887266 
L 106.984762 127.480104 
L 109.072867 129.78919 
L 111.160973 131.355979 
L 113.249078 127.942753 
L 115.337183 134.815136 
L 117.425288 133.840992 
L 119.513393 135.311289 
L 121.601499 137.032569 
L 123.689604 134.02794 
L 125.777709 136.287876 
L 127.865814 137.456208 
L 129.953919 141.007431 
L 132.042024 137.219013 
L 134.13013 139.897628 
L 136.218235 137.112599 
L 138.30634 135.392183 
L 140.394445 136.684991 
L 142.48255 137.177199 
L 144.570656 135.424689 
L 146.658761 135.471702 
L 148.746866 137.600289 
L 150.834971 139.609098 
L 152.923076 138.36433 
L 155.011182 138.176064 
L 157.099287 138.45747 
L 159.187392 137.466072 
L 161.275497 135.841644 
L 163.363602 137.279501 
L 165.451707 132.36645 
L 167.539813 131.739272 
L 169.627918 131.056583 
L 171.716023 128.579578 
L 173.804128 132.360696 
L 175.892233 130.979882 
L 177.980339 128.893318 
L 180.068444 127.19846 
L 182.156549 123.609358 
L 184.244654 123.300567 
L 186.332759 125.367315 
L 188.420865 122.998404 
L 190.50897 118.717727 
L 192.597075 121.770811 
L 194.68518 122.049786 
L 196.773285 117.43685 
L 198.86139 115.52152 
L 200.949496 112.776062 
L 203.037601 110.193151 
L 205.125706 109.263535 
L 207.213811 109.708194 
L 209.301916 108.106446 
L 211.390022 108.546911 
L 213.478127 109.417875 
L 215.566232 114.790727 
L 217.654337 114.824021 
L 219.742442 113.135427 
L 221.830548 113.844859 
L 223.918653 112.505374 
L 226.006758 111.302535 
L 228.094863 113.949164 
L 230.182968 115.662778 
L 232.271073 116.0296 
L 234.359179 112.298387 
L 236.447284 111.170783 
L 238.535389 111.008019 
L 240.623494 109.801814 
L 242.711599 107.680314 
L 244.799705 105.681111 
L 246.88781 104.859333 
L 248.975915 102.877802 
L 251.06402 100.976102 
L 253.152125 103.050847 
L 255.240231 103.230011 
L 257.328336 103.001935 
L 259.416441 103.564731 
L 261.504546 99.141392 
L 263.592651 97.854998 
L 265.680756 95.961057 
L 267.768862 97.328709 
L 269.856967 94.718255 
L 271.945072 94.191151 
L 274.033177 95.24204 
L 276.121282 94.949594 
L 278.209388 91.847526 
L 280.297493 92.48466 
L 282.385598 92.843202 
L 284.473703 93.047684 
L 286.561808 93.784451 
L 288.649914 91.42261 
L 290.738019 91.351715 
L 292.826124 93.059312 
L 294.914229 93.337495 
L 297.002334 93.954519 
L 299.090439 90.095009 
L 301.178545 91.180201 
L 303.26665 89.800822 
L 305.354755 87.979557 
L 307.44286 86.829448 
L 309.530965 89.111367 
L 311.619071 89.226578 
L 313.707176 90.239809 
L 315.795281 88.277385 
L 317.883386 88.826526 
L 319.971491 89.580787 
L 322.059597 89.22179 
L 324.147702 89.465626 
L 326.235807 88.249614 
L 328.323912 86.591936 
L 330.412017 85.691912 
L 332.500122 82.596434 
L 334.588228 83.164013 
L 336.676333 83.35784 
L 338.764438 79.984418 
L 340.852543 86.428193 
L 342.940648 85.07814 
L 345.028754 89.535607 
L 347.116859 89.724546 
L 349.204964 89.131846 
L 351.293069 88.803152 
L 353.381174 87.605854 
L 355.46928 86.25203 
L 357.557385 85.71816 
L 359.64549 88.229249 
L 361.733595 87.857676 
L 363.8217 92.946272 
L 365.909805 95.697609 
L 367.997911 98.597837 
L 370.086016 98.185348 
L 372.174121 106.135558 
L 374.262226 102.497022 
L 376.350331 107.388144 
L 378.438437 109.721264 
L 380.526542 112.266875 
L 382.614647 116.020718 
L 384.702752 110.881649 
L 386.790857 113.795764 
L 388.878963 115.12395 
L 390.967068 112.775387 
L 393.055173 114.828587 
L 395.143278 115.960609 
L 397.231383 114.802574 
L 399.319488 111.243962 
L 401.407594 114.768064 
L 403.495699 119.694632 
L 405.583804 121.407892 
L 407.671909 119.266898 
L 409.760014 119.83114 
L 411.84812 121.209499 
L 413.936225 120.740925 
L 416.02433 122.567586 
L 418.112435 121.83107 
L 420.20054 125.490632 
L 422.288646 126.147452 
L 424.376751 127.003632 
L 426.464856 125.330601 
L 428.552961 123.049108 
L 430.641066 124.263587 
L 432.729171 122.090778 
L 434.817277 122.499831 
L 436.905382 124.139222 
L 438.993487 123.370417 
L 441.081592 123.047752 
L 443.169697 121.641497 
L 445.257803 119.764999 
L 447.345908 120.869226 
L 449.434013 122.821435 
L 451.522118 122.136769 
L 453.610223 119.373661 
L 455.698329 121.253681 
L 457.786434 121.276045 
L 459.874539 121.182075 
L 461.962644 120.041378 
L 464.050749 116.381333 
L 466.138854 114.747104 
L 468.22696 115.108745 
L 470.315065 113.873694 
L 472.40317 112.027901 
L 474.491275 113.597762 
L 476.57938 113.752119 
L 478.667486 115.304219 
L 480.755591 114.43203 
L 482.843696 111.998048 
L 484.931801 110.659202 
L 487.019906 109.503554 
L 489.108012 110.434686 
L 491.196117 109.032247 
L 493.284222 108.188029 
L 495.372327 110.496964 
L 497.460432 108.500805 
L 499.548537 108.265469 
L 501.636643 105.704038 
L 503.724748 105.139184 
L 505.812853 102.809202 
L 507.900958 104.969841 
L 509.989063 105.635492 
L 512.077169 104.596141 
L 514.165274 111.185576 
L 516.253379 109.864766 
L 518.341484 109.770647 
L 520.429589 112.119189 
L 522.517695 114.983828 
L 524.6058 111.949635 
L 526.693905 115.379595 
L 528.78201 111.577958 
L 530.870115 115.002476 
L 532.95822 111.680856 
L 535.046326 114.248343 
L 537.134431 115.646006 
L 539.222536 116.253719 
L 541.310641 118.896046 
L 543.398746 121.203302 
L 545.486852 123.838581 
L 547.574957 127.415148 
L 549.663062 129.527456 
L 551.751167 132.723089 
L 553.839272 138.920696 
L 555.927378 145.290418 
L 558.015483 152.988865 
L 560.103588 157.566667 
L 562.191693 165.264655 
L 564.279798 166.463221 
L 566.367903 170.285895 
L 568.456009 172.94449 
L 570.544114 174.687105 
L 572.632219 178.658291 
L 574.720324 184.659862 
L 576.808429 188.492206 
L 578.896535 187.652212 
L 580.98464 193.186451 
L 583.072745 189.667306 
L 585.16085 189.324831 
L 587.248955 188.767129 
L 589.337061 185.486529 
L 591.425166 186.630172 
L 593.513271 188.185157 
L 595.601376 188.764747 
L 597.689481 187.767819 
L 599.777586 189.026255 
L 601.865692 191.940346 
L 603.953797 193.276244 
L 606.041902 192.140194 
L 608.130007 191.724741 
L 610.218112 191.29955 
L 612.306218 190.14231 
L 614.394323 191.154919 
L 616.482428 191.588244 
L 618.570533 194.087377 
L 620.658638 193.831013 
L 622.746744 191.64318 
L 624.834849 190.740278 
L 626.922954 190.241017 
L 629.011059 187.639967 
L 631.099164 187.700417 
L 633.187269 189.894376 
L 635.275375 188.625691 
L 637.36348 188.052911 
L 639.451585 189.79362 
L 641.53969 188.353869 
L 643.627795 187.824715 
L 645.715901 189.360586 
L 647.804006 190.25512 
L 649.892111 185.734224 
L 651.980216 183.857607 
L 654.068321 185.354988 
L 656.156427 186.113603 
L 658.244532 187.692819 
L 660.332637 187.882509 
L 662.420742 188.905828 
L 664.508847 187.38605 
L 666.596952 186.413497 
L 668.685058 186.373854 
L 670.773163 185.334169 
L 672.861268 185.747734 
L 674.949373 185.964741 
L 677.037478 193.079541 
L 679.125584 187.188649 
L 681.213689 185.808698 
L 683.301794 184.079766 
L 685.389899 184.513777 
L 687.478004 181.620024 
L 689.56611 182.326266 
L 691.654215 182.063915 
L 693.74232 179.741304 
L 695.830425 179.670644 
L 697.91853 179.67483 
L 700.006635 178.959619 
L 702.094741 175.212637 
L 704.182846 176.133682 
L 706.270951 175.446116 
L 708.359056 174.727722 
L 710.447161 175.542609 
L 712.535267 175.763452 
L 714.623372 174.232168 
L 716.711477 173.05104 
L 718.799582 173.781215 
L 720.887687 174.497345 
L 722.975793 173.270535 
L 725.063898 176.484009 
L 727.152003 174.288778 
L 729.240108 173.524417 
L 731.328213 169.809539 
L 733.416318 168.664994 
L 735.504424 166.444829 
L 737.592529 165.687369 
L 739.680634 168.246248 
L 741.768739 168.610879 
L 743.856844 168.724059 
L 745.94495 167.438684 
L 748.033055 167.004359 
L 750.12116 167.097793 
L 752.209265 167.189806 
L 754.29737 166.809188 
L 756.385476 166.894947 
L 758.473581 165.269835 
L 760.561686 162.955712 
L 762.649791 159.860582 
L 764.737896 159.917329 
L 766.826001 162.491194 
L 768.914107 160.822704 
L 771.002212 159.836008 
L 773.090317 160.955391 
L 775.178422 155.980456 
L 777.266527 160.070597 
L 779.354633 160.340896 
L 781.442738 160.287911 
L 783.530843 160.246697 
L 785.618948 155.548089 
L 787.707053 156.475008 
L 789.795159 157.166432 
L 791.883264 155.925581 
L 793.971369 156.003619 
L 796.059474 154.193874 
L 798.147579 157.963167 
L 800.235684 156.039343 
L 802.32379 152.904817 
L 804.411895 152.122248 
L 804.411895 111.853076 
L 804.411895 111.853076 
L 802.32379 111.931117 
L 800.235684 115.779413 
L 798.147579 115.844078 
L 796.059474 111.727295 
L 793.971369 111.58195 
L 791.883264 114.850907 
L 789.795159 114.158307 
L 787.707053 111.816928 
L 785.618948 110.040206 
L 783.530843 114.860906 
L 781.442738 115.51865 
L 779.354633 115.271158 
L 777.266527 115.595612 
L 775.178422 109.867025 
L 773.090317 112.292046 
L 771.002212 112.301909 
L 768.914107 113.197726 
L 766.826001 115.699866 
L 764.737896 111.833139 
L 762.649791 110.715317 
L 760.561686 111.617544 
L 758.473581 112.828214 
L 756.385476 115.547226 
L 754.29737 115.989664 
L 752.209265 113.981623 
L 750.12116 112.757243 
L 748.033055 113.244974 
L 745.94495 114.344677 
L 743.856844 114.970932 
L 741.768739 117.200363 
L 739.680634 113.506153 
L 737.592529 110.338112 
L 735.504424 112.55861 
L 733.416318 114.705805 
L 731.328213 115.087005 
L 729.240108 118.476835 
L 727.152003 119.639956 
L 725.063898 121.739875 
L 722.975793 117.746926 
L 720.887687 117.465998 
L 718.799582 116.29078 
L 716.711477 112.749319 
L 714.623372 114.692591 
L 712.535267 115.956484 
L 710.447161 115.301842 
L 708.359056 112.231431 
L 706.270951 114.504297 
L 704.182846 112.624876 
L 702.094741 112.300919 
L 700.006635 113.931191 
L 697.91853 112.229458 
L 695.830425 112.113015 
L 693.74232 113.083307 
L 691.654215 113.481789 
L 689.56611 113.806163 
L 687.478004 108.03574 
L 685.389899 111.371935 
L 683.301794 111.805265 
L 681.213689 112.290483 
L 679.125584 110.909307 
L 677.037478 114.272508 
L 674.949373 106.140735 
L 672.861268 105.792098 
L 670.773163 104.914528 
L 668.685058 102.934189 
L 666.596952 103.598516 
L 664.508847 103.753737 
L 662.420742 105.717364 
L 660.332637 102.778546 
L 658.244532 98.818568 
L 656.156427 98.359968 
L 654.068321 99.630339 
L 651.980216 97.21579 
L 649.892111 99.081431 
L 647.804006 100.980222 
L 645.715901 98.682419 
L 643.627795 96.81494 
L 641.53969 97.502564 
L 639.451585 98.974752 
L 637.36348 96.685134 
L 635.275375 96.475406 
L 633.187269 97.795721 
L 631.099164 92.81152 
L 629.011059 91.178649 
L 626.922954 91.592472 
L 624.834849 89.438935 
L 622.746744 91.202323 
L 620.658638 93.706042 
L 618.570533 92.438352 
L 616.482428 90.643617 
L 614.394323 89.396131 
L 612.306218 89.925913 
L 610.218112 90.415166 
L 608.130007 89.368485 
L 606.041902 87.418133 
L 603.953797 83.123987 
L 601.865692 85.832641 
L 599.777586 82.365029 
L 597.689481 80.501864 
L 595.601376 82.400896 
L 593.513271 82.010558 
L 591.425166 77.617147 
L 589.337061 72.89839 
L 587.248955 77.002575 
L 585.16085 78.139122 
L 583.072745 78.897395 
L 580.98464 82.076404 
L 578.896535 75.566066 
L 576.808429 75.334281 
L 574.720324 73.923418 
L 572.632219 69.251299 
L 570.544114 66.753992 
L 568.456009 64.128618 
L 566.367903 62.916963 
L 564.279798 63.799169 
L 562.191693 65.686782 
L 560.103588 61.834005 
L 558.015483 63.424964 
L 555.927378 61.56632 
L 553.839272 60.67632 
L 551.751167 57.855354 
L 549.663062 58.894285 
L 547.574957 57.12272 
L 545.486852 57.208345 
L 543.398746 57.206846 
L 541.310641 56.183633 
L 539.222536 59.153084 
L 537.134431 57.111201 
L 535.046326 58.100806 
L 532.95822 54.077818 
L 530.870115 57.83173 
L 528.78201 57.385673 
L 526.693905 61.157391 
L 524.6058 58.170721 
L 522.517695 61.920175 
L 520.429589 58.381509 
L 518.341484 57.255357 
L 516.253379 58.900783 
L 514.165274 59.538673 
L 512.077169 53.797916 
L 509.989063 53.313232 
L 507.900958 51.17688 
L 505.812853 51.57188 
L 503.724748 53.022389 
L 501.636643 54.635824 
L 499.548537 56.22827 
L 497.460432 54.549945 
L 495.372327 55.846191 
L 493.284222 54.806383 
L 491.196117 55.754107 
L 489.108012 56.033393 
L 487.019906 55.415682 
L 484.931801 55.663834 
L 482.843696 57.871405 
L 480.755591 58.626597 
L 478.667486 57.241784 
L 476.57938 56.49537 
L 474.491275 55.50469 
L 472.40317 55.466773 
L 470.315065 56.775243 
L 468.22696 57.038404 
L 466.138854 55.633251 
L 464.050749 57.045016 
L 461.962644 60.148411 
L 459.874539 59.354491 
L 457.786434 60.912045 
L 455.698329 59.672492 
L 453.610223 57.748191 
L 451.522118 59.44482 
L 449.434013 61.102255 
L 447.345908 58.586106 
L 445.257803 56.271689 
L 443.169697 56.91182 
L 441.081592 58.830559 
L 438.993487 59.421431 
L 436.905382 57.615857 
L 434.817277 58.45933 
L 432.729171 56.400575 
L 430.641066 59.091138 
L 428.552961 55.77819 
L 426.464856 56.76197 
L 424.376751 56.868424 
L 422.288646 56.122908 
L 420.20054 54.479121 
L 418.112435 48.73139 
L 416.02433 51.827195 
L 413.936225 50.836585 
L 411.84812 53.244237 
L 409.760014 51.565869 
L 407.671909 51.711002 
L 405.583804 52.538457 
L 403.495699 51.722054 
L 401.407594 48.431666 
L 399.319488 45.284068 
L 397.231383 48.345251 
L 395.143278 48.74252 
L 393.055173 47.5178 
L 390.967068 45.351354 
L 388.878963 46.033316 
L 386.790857 47.01937 
L 384.702752 44.771858 
L 382.614647 50.128745 
L 380.526542 45.704132 
L 378.438437 45.154822 
L 376.350331 45.253119 
L 374.262226 44.755908 
L 372.174121 49.138166 
L 370.086016 44.843886 
L 367.997911 46.0021 
L 365.909805 45.143633 
L 363.8217 41.978009 
L 361.733595 37.894531 
L 359.64549 38.644058 
L 357.557385 36.619755 
L 355.46928 40.291806 
L 353.381174 41.56262 
L 351.293069 43.588461 
L 349.204964 43.121694 
L 347.116859 41.79391 
L 345.028754 42.419903 
L 342.940648 38.703901 
L 340.852543 39.125556 
L 338.764438 34.91001 
L 336.676333 36.156278 
L 334.588228 34.888607 
L 332.500122 35.52001 
L 330.412017 38.493543 
L 328.323912 38.829826 
L 326.235807 39.927062 
L 324.147702 39.945298 
L 322.059597 40.293009 
L 319.971491 39.033964 
L 317.883386 38.853397 
L 315.795281 39.557522 
L 313.707176 39.725031 
L 311.619071 40.524186 
L 309.530965 37.606125 
L 307.44286 36.424257 
L 305.354755 36.99128 
L 303.26665 38.196213 
L 301.178545 38.005361 
L 299.090439 36.69377 
L 297.002334 41.522845 
L 294.914229 40.172909 
L 292.826124 40.246609 
L 290.738019 39.894877 
L 288.649914 40.826292 
L 286.561808 39.042515 
L 284.473703 39.256152 
L 282.385598 38.479178 
L 280.297493 37.16098 
L 278.209388 37.917565 
L 276.121282 39.724294 
L 274.033177 38.23316 
L 271.945072 37.536062 
L 269.856967 37.604594 
L 267.768862 38.931516 
L 265.680756 38.753348 
L 263.592651 38.727259 
L 261.504546 38.873209 
L 259.416441 42.380589 
L 257.328336 41.303949 
L 255.240231 40.511957 
L 253.152125 40.426065 
L 251.06402 40.068073 
L 248.975915 42.35649 
L 246.88781 45.115609 
L 244.799705 41.922066 
L 242.711599 45.968287 
L 240.623494 45.178506 
L 238.535389 46.397257 
L 236.447284 47.347821 
L 234.359179 48.471462 
L 232.271073 50.603918 
L 230.182968 50.790057 
L 228.094863 49.000416 
L 226.006758 47.158462 
L 223.918653 46.986799 
L 221.830548 48.206429 
L 219.742442 47.058044 
L 217.654337 49.571286 
L 215.566232 49.456654 
L 213.478127 42.146429 
L 211.390022 45.559951 
L 209.301916 44.781076 
L 207.213811 44.682962 
L 205.125706 45.520632 
L 203.037601 45.119875 
L 200.949496 45.374776 
L 198.86139 47.156408 
L 196.773285 47.239711 
L 194.68518 51.671894 
L 192.597075 51.501949 
L 190.50897 48.4899 
L 188.420865 49.024175 
L 186.332759 50.101356 
L 184.244654 46.982628 
L 182.156549 46.819857 
L 180.068444 51.709095 
L 177.980339 52.7594 
L 175.892233 52.919858 
L 173.804128 54.548179 
L 171.716023 50.250885 
L 169.627918 51.161013 
L 167.539813 50.066538 
L 165.451707 50.371408 
L 163.363602 55.570565 
L 161.275497 54.55432 
L 159.187392 54.979337 
L 157.099287 54.632162 
L 155.011182 52.186324 
L 152.923076 52.230158 
L 150.834971 54.900472 
L 148.746866 49.342322 
L 146.658761 47.063055 
L 144.570656 46.358348 
L 142.48255 46.316021 
L 140.394445 48.429296 
L 138.30634 50.05033 
L 136.218235 51.295924 
L 134.13013 54.074208 
L 132.042024 52.897884 
L 129.953919 57.39087 
L 127.865814 56.207143 
L 125.777709 55.781272 
L 123.689604 54.53299 
L 121.601499 57.97115 
L 119.513393 56.909984 
L 117.425288 54.411038 
L 115.337183 54.920287 
L 113.249078 50.71023 
L 111.160973 52.722001 
L 109.072867 54.051296 
L 106.984762 53.991419 
L 104.896657 51.388173 
L 102.808552 51.165416 
L 100.720447 50.86613 
L 98.632341 50.701692 
L 96.544236 48.661529 
L 94.456131 50.094888 
L 92.368026 50.764473 
L 90.279921 46.922118 
L 88.191816 48.344811 
L 86.10371 46.029267 
L 84.015605 46.167736 
L 81.9275 44.393877 
z
" style="fill:#d3d3d3;fill-opacity:0.5;"/>
   </g>
   <g id="PolyCollection_3">
    <path clip-path="url(#pb67a4fba4a)" d="M 96.544236 31.94 
L 96.544236 206.298437 
L 98.632341 206.298437 
L 100.720447 206.298437 
L 102.808552 206.298437 
L 104.896657 206.298437 
L 106.984762 206.298437 
L 109.072867 206.298437 
L 111.160973 206.298437 
L 111.160973 31.94 
L 111.160973 31.94 
L 109.072867 31.94 
L 106.984762 31.94 
L 104.896657 31.94 
L 102.808552 31.94 
L 100.720447 31.94 
L 98.632341 31.94 
L 96.544236 31.94 
z
" style="fill:#bbbbbb;fill-opacity:0.3;stroke:#bbbbbb;stroke-opacity:0.3;"/>
    <path clip-path="url(#pb67a4fba4a)" d="M 363.8217 31.94 
L 363.8217 206.298437 
L 365.909805 206.298437 
L 367.997911 206.298437 
L 370.086016 206.298437 
L 372.174121 206.298437 
L 374.262226 206.298437 
L 376.350331 206.298437 
L 378.438437 206.298437 
L 378.438437 31.94 
L 378.438437 31.94 
L 376.350331 31.94 
L 374.262226 31.94 
L 372.174121 31.94 
L 370.086016 31.94 
L 367.997911 31.94 
L 365.909805 31.94 
L 363.8217 31.94 
z
" style="fill:#bbbbbb;fill-opacity:0.3;stroke:#bbbbbb;stroke-opacity:0.3;"/>
    <path clip-path="url(#pb67a4fba4a)" d="M 532.95822 31.94 
L 532.95822 206.298437 
L 535.046326 206.298437 
L 537.134431 206.298437 
L 539.222536 206.298437 
L 541.310641 206.298437 
L 543.398746 206.298437 
L 545.486852 206.298437 
L 547.574957 206.298437 
L 549.663062 206.298437 
L 551.751167 206.298437 
L 553.839272 206.298437 
L 555.927378 206.298437 
L 558.015483 206.298437 
L 560.103588 206.298437 
L 562.191693 206.298437 
L 564.279798 206.298437 
L 566.367903 206.298437 
L 568.456009 206.298437 
L 568.456009 31.94 
L 568.456009 31.94 
L 566.367903 31.94 
L 564.279798 31.94 
L 562.191693 31.94 
L 560.103588 31.94 
L 558.015483 31.94 
L 555.927378 31.94 
L 553.839272 31.94 
L 551.751167 31.94 
L 549.663062 31.94 
L 547.574957 31.94 
L 545.486852 31.94 
L 543.398746 31.94 
L 541.310641 31.94 
L 539.222536 31.94 
L 537.134431 31.94 
L 535.046326 31.94 
L 532.95822 31.94 
z
" style="fill:#bbbbbb;fill-opacity:0.3;stroke:#bbbbbb;stroke-opacity:0.3;"/>
   </g>
   <g id="matplotlib.axis_1">
    <g id="xtick_1">
     <g id="line2d_1">
      <defs>
       <path d="M 0 0 
L 0 3.5 
" id="m8fe0eab565" style="stroke:#000000;stroke-width:0.8;"/>
      </defs>
      <g>
       <use style="stroke:#000000;stroke-width:0.8;" x="182.156549" xlink:href="#m8fe0eab565" y="206.298438"/>
      </g>
     </g>
     <g id="text_1">
      <!-- 1994 -->
      <defs>
       <path d="M 12.40625 8.296875 
L 28.515625 8.296875 
L 28.515625 63.921875 
L 10.984375 60.40625 
L 10.984375 69.390625 
L 28.421875 72.90625 
L 38.28125 72.90625 
L 38.28125 8.296875 
L 54.390625 8.296875 
L 54.390625 0 
L 12.40625 0 
z
" id="DejaVuSans-31"/>
       <path d="M 10.984375 1.515625 
L 10.984375 10.5 
Q 14.703125 8.734375 18.5 7.8125 
Q 22.3125 6.890625 25.984375 6.890625 
Q 35.75 6.890625 40.890625 13.453125 
Q 46.046875 20.015625 46.78125 33.40625 
Q 43.953125 29.203125 39.59375 26.953125 
Q 35.25 24.703125 29.984375 24.703125 
Q 19.046875 24.703125 12.671875 31.3125 
Q 6.296875 37.9375 6.296875 49.421875 
Q 6.296875 60.640625 12.9375 67.421875 
Q 19.578125 74.21875 30.609375 74.21875 
Q 43.265625 74.21875 49.921875 64.515625 
Q 56.59375 54.828125 56.59375 36.375 
Q 56.59375 19.140625 48.40625 8.859375 
Q 40.234375 -1.421875 26.421875 -1.421875 
Q 22.703125 -1.421875 18.890625 -0.6875 
Q 15.09375 0.046875 10.984375 1.515625 
z
M 30.609375 32.421875 
Q 37.25 32.421875 41.125 36.953125 
Q 45.015625 41.5 45.015625 49.421875 
Q 45.015625 57.28125 41.125 61.84375 
Q 37.25 66.40625 30.609375 66.40625 
Q 23.96875 66.40625 20.09375 61.84375 
Q 16.21875 57.28125 16.21875 49.421875 
Q 16.21875 41.5 20.09375 36.953125 
Q 23.96875 32.421875 30.609375 32.421875 
z
" id="DejaVuSans-39"/>
       <path d="M 37.796875 64.3125 
L 12.890625 25.390625 
L 37.796875 25.390625 
z
M 35.203125 72.90625 
L 47.609375 72.90625 
L 47.609375 25.390625 
L 58.015625 25.390625 
L 58.015625 17.1875 
L 47.609375 17.1875 
L 47.609375 0 
L 37.796875 0 
L 37.796875 17.1875 
L 4.890625 17.1875 
L 4.890625 26.703125 
z
" id="DejaVuSans-34"/>
      </defs>
      <g transform="translate(165.614049 229.676406)scale(0.13 -0.13)">
       <use xlink:href="#DejaVuSans-31"/>
       <use x="63.623047" xlink:href="#DejaVuSans-39"/>
       <use x="127.246094" xlink:href="#DejaVuSans-39"/>
       <use x="190.869141" xlink:href="#DejaVuSans-34"/>
      </g>
     </g>
    </g>
    <g id="xtick_2">
     <g id="line2d_2">
      <g>
       <use style="stroke:#000000;stroke-width:0.8;" x="307.44286" xlink:href="#m8fe0eab565" y="206.298438"/>
      </g>
     </g>
     <g id="text_2">
      <!-- 1999 -->
      <g transform="translate(290.90036 229.676406)scale(0.13 -0.13)">
       <use xlink:href="#DejaVuSans-31"/>
       <use x="63.623047" xlink:href="#DejaVuSans-39"/>
       <use x="127.246094" xlink:href="#DejaVuSans-39"/>
       <use x="190.869141" xlink:href="#DejaVuSans-39"/>
      </g>
     </g>
    </g>
    <g id="xtick_3">
     <g id="line2d_3">
      <g>
       <use style="stroke:#000000;stroke-width:0.8;" x="432.729171" xlink:href="#m8fe0eab565" y="206.298438"/>
      </g>
     </g>
     <g id="text_3">
      <!-- 2004 -->
      <defs>
       <path d="M 19.1875 8.296875 
L 53.609375 8.296875 
L 53.609375 0 
L 7.328125 0 
L 7.328125 8.296875 
Q 12.9375 14.109375 22.625 23.890625 
Q 32.328125 33.6875 34.8125 36.53125 
Q 39.546875 41.84375 41.421875 45.53125 
Q 43.3125 49.21875 43.3125 52.78125 
Q 43.3125 58.59375 39.234375 62.25 
Q 35.15625 65.921875 28.609375 65.921875 
Q 23.96875 65.921875 18.8125 64.3125 
Q 13.671875 62.703125 7.8125 59.421875 
L 7.8125 69.390625 
Q 13.765625 71.78125 18.9375 73 
Q 24.125 74.21875 28.421875 74.21875 
Q 39.75 74.21875 46.484375 68.546875 
Q 53.21875 62.890625 53.21875 53.421875 
Q 53.21875 48.921875 51.53125 44.890625 
Q 49.859375 40.875 45.40625 35.40625 
Q 44.1875 33.984375 37.640625 27.21875 
Q 31.109375 20.453125 19.1875 8.296875 
z
" id="DejaVuSans-32"/>
       <path d="M 31.78125 66.40625 
Q 24.171875 66.40625 20.328125 58.90625 
Q 16.5 51.421875 16.5 36.375 
Q 16.5 21.390625 20.328125 13.890625 
Q 24.171875 6.390625 31.78125 6.390625 
Q 39.453125 6.390625 43.28125 13.890625 
Q 47.125 21.390625 47.125 36.375 
Q 47.125 51.421875 43.28125 58.90625 
Q 39.453125 66.40625 31.78125 66.40625 
z
M 31.78125 74.21875 
Q 44.046875 74.21875 50.515625 64.515625 
Q 56.984375 54.828125 56.984375 36.375 
Q 56.984375 17.96875 50.515625 8.265625 
Q 44.046875 -1.421875 31.78125 -1.421875 
Q 19.53125 -1.421875 13.0625 8.265625 
Q 6.59375 17.96875 6.59375 36.375 
Q 6.59375 54.828125 13.0625 64.515625 
Q 19.53125 74.21875 31.78125 74.21875 
z
" id="DejaVuSans-30"/>
      </defs>
      <g transform="translate(416.186671 229.676406)scale(0.13 -0.13)">
       <use xlink:href="#DejaVuSans-32"/>
       <use x="63.623047" xlink:href="#DejaVuSans-30"/>
       <use x="127.246094" xlink:href="#DejaVuSans-30"/>
       <use x="190.869141" xlink:href="#DejaVuSans-34"/>
      </g>
     </g>
    </g>
    <g id="xtick_4">
     <g id="line2d_4">
      <g>
       <use style="stroke:#000000;stroke-width:0.8;" x="558.015483" xlink:href="#m8fe0eab565" y="206.298438"/>
      </g>
     </g>
     <g id="text_4">
      <!-- 2009 -->
      <g transform="translate(541.472983 229.676406)scale(0.13 -0.13)">
       <use xlink:href="#DejaVuSans-32"/>
       <use x="63.623047" xlink:href="#DejaVuSans-30"/>
       <use x="127.246094" xlink:href="#DejaVuSans-30"/>
       <use x="190.869141" xlink:href="#DejaVuSans-39"/>
      </g>
     </g>
    </g>
    <g id="xtick_5">
     <g id="line2d_5">
      <g>
       <use style="stroke:#000000;stroke-width:0.8;" x="683.301794" xlink:href="#m8fe0eab565" y="206.298438"/>
      </g>
     </g>
     <g id="text_5">
      <!-- 2014 -->
      <g transform="translate(666.759294 229.676406)scale(0.13 -0.13)">
       <use xlink:href="#DejaVuSans-32"/>
       <use x="63.623047" xlink:href="#DejaVuSans-30"/>
       <use x="127.246094" xlink:href="#DejaVuSans-31"/>
       <use x="190.869141" xlink:href="#DejaVuSans-34"/>
      </g>
     </g>
    </g>
    <g id="xtick_6">
     <g id="line2d_6">
      <defs>
       <path d="M 0 0 
L 0 2 
" id="mc764785af1" style="stroke:#000000;stroke-width:0.6;"/>
      </defs>
      <g>
       <use style="stroke:#000000;stroke-width:0.6;" x="81.9275" xlink:href="#mc764785af1" y="206.298438"/>
      </g>
     </g>
    </g>
    <g id="xtick_7">
     <g id="line2d_7">
      <g>
       <use style="stroke:#000000;stroke-width:0.6;" x="106.984762" xlink:href="#mc764785af1" y="206.298438"/>
      </g>
     </g>
    </g>
    <g id="xtick_8">
     <g id="line2d_8">
      <g>
       <use style="stroke:#000000;stroke-width:0.6;" x="132.042024" xlink:href="#mc764785af1" y="206.298438"/>
      </g>
     </g>
    </g>
    <g id="xtick_9">
     <g id="line2d_9">
      <g>
       <use style="stroke:#000000;stroke-width:0.6;" x="157.099287" xlink:href="#mc764785af1" y="206.298438"/>
      </g>
     </g>
    </g>
    <g id="xtick_10">
     <g id="line2d_10">
      <g>
       <use style="stroke:#000000;stroke-width:0.6;" x="182.156549" xlink:href="#mc764785af1" y="206.298438"/>
      </g>
     </g>
    </g>
    <g id="xtick_11">
     <g id="line2d_11">
      <g>
       <use style="stroke:#000000;stroke-width:0.6;" x="207.213811" xlink:href="#mc764785af1" y="206.298438"/>
      </g>
     </g>
    </g>
    <g id="xtick_12">
     <g id="line2d_12">
      <g>
       <use style="stroke:#000000;stroke-width:0.6;" x="232.271073" xlink:href="#mc764785af1" y="206.298438"/>
      </g>
     </g>
    </g>
    <g id="xtick_13">
     <g id="line2d_13">
      <g>
       <use style="stroke:#000000;stroke-width:0.6;" x="257.328336" xlink:href="#mc764785af1" y="206.298438"/>
      </g>
     </g>
    </g>
    <g id="xtick_14">
     <g id="line2d_14">
      <g>
       <use style="stroke:#000000;stroke-width:0.6;" x="282.385598" xlink:href="#mc764785af1" y="206.298438"/>
      </g>
     </g>
    </g>
    <g id="xtick_15">
     <g id="line2d_15">
      <g>
       <use style="stroke:#000000;stroke-width:0.6;" x="307.44286" xlink:href="#mc764785af1" y="206.298438"/>
      </g>
     </g>
    </g>
    <g id="xtick_16">
     <g id="line2d_16">
      <g>
       <use style="stroke:#000000;stroke-width:0.6;" x="332.500122" xlink:href="#mc764785af1" y="206.298438"/>
      </g>
     </g>
    </g>
    <g id="xtick_17">
     <g id="line2d_17">
      <g>
       <use style="stroke:#000000;stroke-width:0.6;" x="357.557385" xlink:href="#mc764785af1" y="206.298438"/>
      </g>
     </g>
    </g>
    <g id="xtick_18">
     <g id="line2d_18">
      <g>
       <use style="stroke:#000000;stroke-width:0.6;" x="382.614647" xlink:href="#mc764785af1" y="206.298438"/>
      </g>
     </g>
    </g>
    <g id="xtick_19">
     <g id="line2d_19">
      <g>
       <use style="stroke:#000000;stroke-width:0.6;" x="407.671909" xlink:href="#mc764785af1" y="206.298438"/>
      </g>
     </g>
    </g>
    <g id="xtick_20">
     <g id="line2d_20">
      <g>
       <use style="stroke:#000000;stroke-width:0.6;" x="432.729171" xlink:href="#mc764785af1" y="206.298438"/>
      </g>
     </g>
    </g>
    <g id="xtick_21">
     <g id="line2d_21">
      <g>
       <use style="stroke:#000000;stroke-width:0.6;" x="457.786434" xlink:href="#mc764785af1" y="206.298438"/>
      </g>
     </g>
    </g>
    <g id="xtick_22">
     <g id="line2d_22">
      <g>
       <use style="stroke:#000000;stroke-width:0.6;" x="482.843696" xlink:href="#mc764785af1" y="206.298438"/>
      </g>
     </g>
    </g>
    <g id="xtick_23">
     <g id="line2d_23">
      <g>
       <use style="stroke:#000000;stroke-width:0.6;" x="507.900958" xlink:href="#mc764785af1" y="206.298438"/>
      </g>
     </g>
    </g>
    <g id="xtick_24">
     <g id="line2d_24">
      <g>
       <use style="stroke:#000000;stroke-width:0.6;" x="532.95822" xlink:href="#mc764785af1" y="206.298438"/>
      </g>
     </g>
    </g>
    <g id="xtick_25">
     <g id="line2d_25">
      <g>
       <use style="stroke:#000000;stroke-width:0.6;" x="558.015483" xlink:href="#mc764785af1" y="206.298438"/>
      </g>
     </g>
    </g>
    <g id="xtick_26">
     <g id="line2d_26">
      <g>
       <use style="stroke:#000000;stroke-width:0.6;" x="583.072745" xlink:href="#mc764785af1" y="206.298438"/>
      </g>
     </g>
    </g>
    <g id="xtick_27">
     <g id="line2d_27">
      <g>
       <use style="stroke:#000000;stroke-width:0.6;" x="608.130007" xlink:href="#mc764785af1" y="206.298438"/>
      </g>
     </g>
    </g>
    <g id="xtick_28">
     <g id="line2d_28">
      <g>
       <use style="stroke:#000000;stroke-width:0.6;" x="633.187269" xlink:href="#mc764785af1" y="206.298438"/>
      </g>
     </g>
    </g>
    <g id="xtick_29">
     <g id="line2d_29">
      <g>
       <use style="stroke:#000000;stroke-width:0.6;" x="658.244532" xlink:href="#mc764785af1" y="206.298438"/>
      </g>
     </g>
    </g>
    <g id="xtick_30">
     <g id="line2d_30">
      <g>
       <use style="stroke:#000000;stroke-width:0.6;" x="683.301794" xlink:href="#mc764785af1" y="206.298438"/>
      </g>
     </g>
    </g>
    <g id="xtick_31">
     <g id="line2d_31">
      <g>
       <use style="stroke:#000000;stroke-width:0.6;" x="708.359056" xlink:href="#mc764785af1" y="206.298438"/>
      </g>
     </g>
    </g>
    <g id="xtick_32">
     <g id="line2d_32">
      <g>
       <use style="stroke:#000000;stroke-width:0.6;" x="733.416318" xlink:href="#mc764785af1" y="206.298438"/>
      </g>
     </g>
    </g>
    <g id="xtick_33">
     <g id="line2d_33">
      <g>
       <use style="stroke:#000000;stroke-width:0.6;" x="758.473581" xlink:href="#mc764785af1" y="206.298438"/>
      </g>
     </g>
    </g>
    <g id="xtick_34">
     <g id="line2d_34">
      <g>
       <use style="stroke:#000000;stroke-width:0.6;" x="783.530843" xlink:href="#mc764785af1" y="206.298438"/>
      </g>
     </g>
    </g>
   </g>
   <g id="matplotlib.axis_2">
    <g id="ytick_1">
     <g id="line2d_35">
      <path clip-path="url(#pb67a4fba4a)" d="M 81.9275 197.580516 
L 806.5 197.580516 
" style="fill:none;stroke:#000000;stroke-dasharray:0.8,1.32;stroke-dashoffset:0;stroke-width:0.8;"/>
     </g>
     <g id="line2d_36">
      <defs>
       <path d="M 0 0 
L -3.5 0 
" id="mca48595df0" style="stroke:#000000;stroke-width:0.8;"/>
      </defs>
      <g>
       <use style="stroke:#000000;stroke-width:0.8;" x="81.9275" xlink:href="#mca48595df0" y="197.580516"/>
      </g>
     </g>
     <g id="text_6">
      <!-- 58 -->
      <defs>
       <path d="M 10.796875 72.90625 
L 49.515625 72.90625 
L 49.515625 64.59375 
L 19.828125 64.59375 
L 19.828125 46.734375 
Q 21.96875 47.46875 24.109375 47.828125 
Q 26.265625 48.1875 28.421875 48.1875 
Q 40.625 48.1875 47.75 41.5 
Q 54.890625 34.8125 54.890625 23.390625 
Q 54.890625 11.625 47.5625 5.09375 
Q 40.234375 -1.421875 26.90625 -1.421875 
Q 22.3125 -1.421875 17.546875 -0.640625 
Q 12.796875 0.140625 7.71875 1.703125 
L 7.71875 11.625 
Q 12.109375 9.234375 16.796875 8.0625 
Q 21.484375 6.890625 26.703125 6.890625 
Q 35.15625 6.890625 40.078125 11.328125 
Q 45.015625 15.765625 45.015625 23.390625 
Q 45.015625 31 40.078125 35.4375 
Q 35.15625 39.890625 26.703125 39.890625 
Q 22.75 39.890625 18.8125 39.015625 
Q 14.890625 38.140625 10.796875 36.28125 
z
" id="DejaVuSans-35"/>
       <path d="M 31.78125 34.625 
Q 24.75 34.625 20.71875 30.859375 
Q 16.703125 27.09375 16.703125 20.515625 
Q 16.703125 13.921875 20.71875 10.15625 
Q 24.75 6.390625 31.78125 6.390625 
Q 38.8125 6.390625 42.859375 10.171875 
Q 46.921875 13.96875 46.921875 20.515625 
Q 46.921875 27.09375 42.890625 30.859375 
Q 38.875 34.625 31.78125 34.625 
z
M 21.921875 38.8125 
Q 15.578125 40.375 12.03125 44.71875 
Q 8.5 49.078125 8.5 55.328125 
Q 8.5 64.0625 14.71875 69.140625 
Q 20.953125 74.21875 31.78125 74.21875 
Q 42.671875 74.21875 48.875 69.140625 
Q 55.078125 64.0625 55.078125 55.328125 
Q 55.078125 49.078125 51.53125 44.71875 
Q 48 40.375 41.703125 38.8125 
Q 48.828125 37.15625 52.796875 32.3125 
Q 56.78125 27.484375 56.78125 20.515625 
Q 56.78125 9.90625 50.3125 4.234375 
Q 43.84375 -1.421875 31.78125 -1.421875 
Q 19.734375 -1.421875 13.25 4.234375 
Q 6.78125 9.90625 6.78125 20.515625 
Q 6.78125 27.484375 10.78125 32.3125 
Q 14.796875 37.15625 21.921875 38.8125 
z
M 18.3125 54.390625 
Q 18.3125 48.734375 21.84375 45.5625 
Q 25.390625 42.390625 31.78125 42.390625 
Q 38.140625 42.390625 41.71875 45.5625 
Q 45.3125 48.734375 45.3125 54.390625 
Q 45.3125 60.0625 41.71875 63.234375 
Q 38.140625 66.40625 31.78125 66.40625 
Q 25.390625 66.40625 21.84375 63.234375 
Q 18.3125 60.0625 18.3125 54.390625 
z
" id="DejaVuSans-38"/>
      </defs>
      <g transform="translate(51.885 202.5195)scale(0.13 -0.13)">
       <use xlink:href="#DejaVuSans-35"/>
       <use x="63.623047" xlink:href="#DejaVuSans-38"/>
      </g>
     </g>
    </g>
    <g id="ytick_2">
     <g id="line2d_37">
      <path clip-path="url(#pb67a4fba4a)" d="M 81.9275 162.708828 
L 806.5 162.708828 
" style="fill:none;stroke:#000000;stroke-dasharray:0.8,1.32;stroke-dashoffset:0;stroke-width:0.8;"/>
     </g>
     <g id="line2d_38">
      <g>
       <use style="stroke:#000000;stroke-width:0.8;" x="81.9275" xlink:href="#mca48595df0" y="162.708828"/>
      </g>
     </g>
     <g id="text_7">
      <!-- 60 -->
      <defs>
       <path d="M 33.015625 40.375 
Q 26.375 40.375 22.484375 35.828125 
Q 18.609375 31.296875 18.609375 23.390625 
Q 18.609375 15.53125 22.484375 10.953125 
Q 26.375 6.390625 33.015625 6.390625 
Q 39.65625 6.390625 43.53125 10.953125 
Q 47.40625 15.53125 47.40625 23.390625 
Q 47.40625 31.296875 43.53125 35.828125 
Q 39.65625 40.375 33.015625 40.375 
z
M 52.59375 71.296875 
L 52.59375 62.3125 
Q 48.875 64.0625 45.09375 64.984375 
Q 41.3125 65.921875 37.59375 65.921875 
Q 27.828125 65.921875 22.671875 59.328125 
Q 17.53125 52.734375 16.796875 39.40625 
Q 19.671875 43.65625 24.015625 45.921875 
Q 28.375 48.1875 33.59375 48.1875 
Q 44.578125 48.1875 50.953125 41.515625 
Q 57.328125 34.859375 57.328125 23.390625 
Q 57.328125 12.15625 50.6875 5.359375 
Q 44.046875 -1.421875 33.015625 -1.421875 
Q 20.359375 -1.421875 13.671875 8.265625 
Q 6.984375 17.96875 6.984375 36.375 
Q 6.984375 53.65625 15.1875 63.9375 
Q 23.390625 74.21875 37.203125 74.21875 
Q 40.921875 74.21875 44.703125 73.484375 
Q 48.484375 72.75 52.59375 71.296875 
z
" id="DejaVuSans-36"/>
      </defs>
      <g transform="translate(51.885 167.647812)scale(0.13 -0.13)">
       <use xlink:href="#DejaVuSans-36"/>
       <use x="63.623047" xlink:href="#DejaVuSans-30"/>
      </g>
     </g>
    </g>
    <g id="ytick_3">
     <g id="line2d_39">
      <path clip-path="url(#pb67a4fba4a)" d="M 81.9275 127.837141 
L 806.5 127.837141 
" style="fill:none;stroke:#000000;stroke-dasharray:0.8,1.32;stroke-dashoffset:0;stroke-width:0.8;"/>
     </g>
     <g id="line2d_40">
      <g>
       <use style="stroke:#000000;stroke-width:0.8;" x="81.9275" xlink:href="#mca48595df0" y="127.837141"/>
      </g>
     </g>
     <g id="text_8">
      <!-- 62 -->
      <g transform="translate(51.885 132.776125)scale(0.13 -0.13)">
       <use xlink:href="#DejaVuSans-36"/>
       <use x="63.623047" xlink:href="#DejaVuSans-32"/>
      </g>
     </g>
    </g>
    <g id="ytick_4">
     <g id="line2d_41">
      <path clip-path="url(#pb67a4fba4a)" d="M 81.9275 92.965453 
L 806.5 92.965453 
" style="fill:none;stroke:#000000;stroke-dasharray:0.8,1.32;stroke-dashoffset:0;stroke-width:0.8;"/>
     </g>
     <g id="line2d_42">
      <g>
       <use style="stroke:#000000;stroke-width:0.8;" x="81.9275" xlink:href="#mca48595df0" y="92.965453"/>
      </g>
     </g>
     <g id="text_9">
      <!-- 64 -->
      <g transform="translate(51.885 97.904437)scale(0.13 -0.13)">
       <use xlink:href="#DejaVuSans-36"/>
       <use x="63.623047" xlink:href="#DejaVuSans-34"/>
      </g>
     </g>
    </g>
    <g id="ytick_5">
     <g id="line2d_43">
      <path clip-path="url(#pb67a4fba4a)" d="M 81.9275 58.093766 
L 806.5 58.093766 
" style="fill:none;stroke:#000000;stroke-dasharray:0.8,1.32;stroke-dashoffset:0;stroke-width:0.8;"/>
     </g>
     <g id="line2d_44">
      <g>
       <use style="stroke:#000000;stroke-width:0.8;" x="81.9275" xlink:href="#mca48595df0" y="58.093766"/>
      </g>
     </g>
     <g id="text_10">
      <!-- 66 -->
      <g transform="translate(51.885 63.03275)scale(0.13 -0.13)">
       <use xlink:href="#DejaVuSans-36"/>
       <use x="63.623047" xlink:href="#DejaVuSans-36"/>
      </g>
     </g>
    </g>
    <g id="text_11">
     <!-- Percent -->
     <defs>
      <path d="M 19.671875 64.796875 
L 19.671875 37.40625 
L 32.078125 37.40625 
Q 38.96875 37.40625 42.71875 40.96875 
Q 46.484375 44.53125 46.484375 51.125 
Q 46.484375 57.671875 42.71875 61.234375 
Q 38.96875 64.796875 32.078125 64.796875 
z
M 9.8125 72.90625 
L 32.078125 72.90625 
Q 44.34375 72.90625 50.609375 67.359375 
Q 56.890625 61.8125 56.890625 51.125 
Q 56.890625 40.328125 50.609375 34.8125 
Q 44.34375 29.296875 32.078125 29.296875 
L 19.671875 29.296875 
L 19.671875 0 
L 9.8125 0 
z
" id="DejaVuSans-50"/>
      <path d="M 56.203125 29.59375 
L 56.203125 25.203125 
L 14.890625 25.203125 
Q 15.484375 15.921875 20.484375 11.0625 
Q 25.484375 6.203125 34.421875 6.203125 
Q 39.59375 6.203125 44.453125 7.46875 
Q 49.3125 8.734375 54.109375 11.28125 
L 54.109375 2.78125 
Q 49.265625 0.734375 44.1875 -0.34375 
Q 39.109375 -1.421875 33.890625 -1.421875 
Q 20.796875 -1.421875 13.15625 6.1875 
Q 5.515625 13.8125 5.515625 26.8125 
Q 5.515625 40.234375 12.765625 48.109375 
Q 20.015625 56 32.328125 56 
Q 43.359375 56 49.78125 48.890625 
Q 56.203125 41.796875 56.203125 29.59375 
z
M 47.21875 32.234375 
Q 47.125 39.59375 43.09375 43.984375 
Q 39.0625 48.390625 32.421875 48.390625 
Q 24.90625 48.390625 20.390625 44.140625 
Q 15.875 39.890625 15.1875 32.171875 
z
" id="DejaVuSans-65"/>
      <path d="M 41.109375 46.296875 
Q 39.59375 47.171875 37.8125 47.578125 
Q 36.03125 48 33.890625 48 
Q 26.265625 48 22.1875 43.046875 
Q 18.109375 38.09375 18.109375 28.8125 
L 18.109375 0 
L 9.078125 0 
L 9.078125 54.6875 
L 18.109375 54.6875 
L 18.109375 46.1875 
Q 20.953125 51.171875 25.484375 53.578125 
Q 30.03125 56 36.53125 56 
Q 37.453125 56 38.578125 55.875 
Q 39.703125 55.765625 41.0625 55.515625 
z
" id="DejaVuSans-72"/>
      <path d="M 48.78125 52.59375 
L 48.78125 44.1875 
Q 44.96875 46.296875 41.140625 47.34375 
Q 37.3125 48.390625 33.40625 48.390625 
Q 24.65625 48.390625 19.8125 42.84375 
Q 14.984375 37.3125 14.984375 27.296875 
Q 14.984375 17.28125 19.8125 11.734375 
Q 24.65625 6.203125 33.40625 6.203125 
Q 37.3125 6.203125 41.140625 7.25 
Q 44.96875 8.296875 48.78125 10.40625 
L 48.78125 2.09375 
Q 45.015625 0.34375 40.984375 -0.53125 
Q 36.96875 -1.421875 32.421875 -1.421875 
Q 20.0625 -1.421875 12.78125 6.34375 
Q 5.515625 14.109375 5.515625 27.296875 
Q 5.515625 40.671875 12.859375 48.328125 
Q 20.21875 56 33.015625 56 
Q 37.15625 56 41.109375 55.140625 
Q 45.0625 54.296875 48.78125 52.59375 
z
" id="DejaVuSans-63"/>
      <path d="M 54.890625 33.015625 
L 54.890625 0 
L 45.90625 0 
L 45.90625 32.71875 
Q 45.90625 40.484375 42.875 44.328125 
Q 39.84375 48.1875 33.796875 48.1875 
Q 26.515625 48.1875 22.3125 43.546875 
Q 18.109375 38.921875 18.109375 30.90625 
L 18.109375 0 
L 9.078125 0 
L 9.078125 54.6875 
L 18.109375 54.6875 
L 18.109375 46.1875 
Q 21.34375 51.125 25.703125 53.5625 
Q 30.078125 56 35.796875 56 
Q 45.21875 56 50.046875 50.171875 
Q 54.890625 44.34375 54.890625 33.015625 
z
" id="DejaVuSans-6e"/>
      <path d="M 18.3125 70.21875 
L 18.3125 54.6875 
L 36.8125 54.6875 
L 36.8125 47.703125 
L 18.3125 47.703125 
L 18.3125 18.015625 
Q 18.3125 11.328125 20.140625 9.421875 
Q 21.96875 7.515625 27.59375 7.515625 
L 36.8125 7.515625 
L 36.8125 0 
L 27.59375 0 
Q 17.1875 0 13.234375 3.875 
Q 9.28125 7.765625 9.28125 18.015625 
L 9.28125 47.703125 
L 2.6875 47.703125 
L 2.6875 54.6875 
L 9.28125 54.6875 
L 9.28125 70.21875 
z
" id="DejaVuSans-74"/>
     </defs>
     <g transform="translate(44.5575 149.675469)rotate(-90)scale(0.16 -0.16)">
      <use xlink:href="#DejaVuSans-50"/>
      <use x="60.255859" xlink:href="#DejaVuSans-65"/>
      <use x="121.779297" xlink:href="#DejaVuSans-72"/>
      <use x="162.861328" xlink:href="#DejaVuSans-63"/>
      <use x="217.841797" xlink:href="#DejaVuSans-65"/>
      <use x="279.365234" xlink:href="#DejaVuSans-6e"/>
      <use x="342.744141" xlink:href="#DejaVuSans-74"/>
     </g>
    </g>
   </g>
   <g id="line2d_45">
    <path clip-path="url(#pb67a4fba4a)" d="M 81.9275 44.393877 
L 84.015605 46.167736 
L 86.10371 46.029267 
L 88.191816 48.344811 
L 90.279921 46.922118 
L 92.368026 50.764473 
L 94.456131 50.094888 
L 96.544236 48.661529 
L 98.632341 50.701692 
L 100.720447 50.86613 
L 104.896657 51.388173 
L 106.984762 53.991419 
L 109.072867 54.051296 
L 111.160973 52.722001 
L 113.249078 50.71023 
L 115.337183 54.920287 
L 117.425288 54.411038 
L 119.513393 56.909984 
L 121.601499 57.97115 
L 123.689604 54.53299 
L 125.777709 55.781272 
L 127.865814 56.207143 
L 129.953919 57.39087 
L 132.042024 52.897884 
L 134.13013 54.074208 
L 136.218235 51.295924 
L 138.30634 50.05033 
L 140.394445 48.429296 
L 142.48255 46.316021 
L 144.570656 46.358348 
L 146.658761 47.063055 
L 148.746866 49.342322 
L 150.834971 54.900472 
L 152.923076 52.230158 
L 155.011182 52.186324 
L 157.099287 54.632162 
L 159.187392 54.979337 
L 161.275497 54.55432 
L 163.363602 55.570565 
L 165.451707 50.371408 
L 167.539813 50.066538 
L 169.627918 51.161013 
L 171.716023 50.250885 
L 173.804128 54.548179 
L 175.892233 52.919858 
L 177.980339 52.7594 
L 180.068444 51.709095 
L 182.156549 46.819857 
L 184.244654 46.982628 
L 186.332759 50.101356 
L 188.420865 49.024175 
L 190.50897 48.4899 
L 192.597075 51.501949 
L 194.68518 51.671894 
L 196.773285 47.239711 
L 198.86139 47.156408 
L 200.949496 45.374776 
L 203.037601 45.119875 
L 205.125706 45.520632 
L 207.213811 44.682962 
L 209.301916 44.781076 
L 211.390022 45.559951 
L 213.478127 42.146429 
L 215.566232 49.456654 
L 217.654337 49.571286 
L 219.742442 47.058044 
L 221.830548 48.206429 
L 223.918653 46.986799 
L 226.006758 47.158462 
L 230.182968 50.790057 
L 232.271073 50.603918 
L 234.359179 48.471462 
L 236.447284 47.347821 
L 238.535389 46.397257 
L 240.623494 45.178506 
L 242.711599 45.968287 
L 244.799705 41.922066 
L 246.88781 45.115609 
L 248.975915 42.35649 
L 251.06402 40.068073 
L 253.152125 40.426065 
L 255.240231 40.511957 
L 257.328336 41.303949 
L 259.416441 42.380589 
L 261.504546 38.873209 
L 263.592651 38.727259 
L 265.680756 38.753348 
L 267.768862 38.931516 
L 269.856967 37.604594 
L 271.945072 37.536062 
L 274.033177 38.23316 
L 276.121282 39.724294 
L 278.209388 37.917565 
L 280.297493 37.16098 
L 282.385598 38.479178 
L 284.473703 39.256152 
L 286.561808 39.042515 
L 288.649914 40.826292 
L 290.738019 39.894877 
L 292.826124 40.246609 
L 294.914229 40.172909 
L 297.002334 41.522845 
L 299.090439 36.69377 
L 301.178545 38.005361 
L 303.26665 38.196213 
L 305.354755 36.99128 
L 307.44286 36.424257 
L 309.530965 37.606125 
L 311.619071 40.524186 
L 313.707176 39.725031 
L 315.795281 39.557522 
L 317.883386 38.853397 
L 319.971491 39.033964 
L 322.059597 40.293009 
L 324.147702 39.945298 
L 326.235807 39.927062 
L 328.323912 38.829826 
L 330.412017 38.493543 
L 332.500122 35.52001 
L 334.588228 34.888607 
L 336.676333 36.156278 
L 338.764438 34.91001 
L 340.852543 39.125556 
L 342.940648 38.703901 
L 345.028754 42.419903 
L 347.116859 41.79391 
L 349.204964 43.121694 
L 351.293069 43.588461 
L 353.381174 41.56262 
L 355.46928 40.291806 
L 357.557385 36.619755 
L 359.64549 38.644058 
L 361.733595 37.894531 
L 363.8217 41.978009 
L 365.909805 45.143633 
L 367.997911 46.0021 
L 370.086016 44.843886 
L 372.174121 49.138166 
L 374.262226 44.755908 
L 376.350331 45.253119 
L 378.438437 45.154822 
L 380.526542 45.704132 
L 382.614647 50.128745 
L 384.702752 44.771858 
L 386.790857 47.01937 
L 388.878963 46.033316 
L 390.967068 45.351354 
L 393.055173 47.5178 
L 395.143278 48.74252 
L 397.231383 48.345251 
L 399.319488 45.284068 
L 403.495699 51.722054 
L 405.583804 52.538457 
L 407.671909 51.711002 
L 409.760014 51.565869 
L 411.84812 53.244237 
L 413.936225 50.836585 
L 416.02433 51.827195 
L 418.112435 48.73139 
L 420.20054 54.479121 
L 422.288646 56.122908 
L 424.376751 56.868424 
L 426.464856 56.76197 
L 428.552961 55.77819 
L 430.641066 59.091138 
L 432.729171 56.400575 
L 434.817277 58.45933 
L 436.905382 57.615857 
L 438.993487 59.421431 
L 441.081592 58.830559 
L 443.169697 56.91182 
L 445.257803 56.271689 
L 447.345908 58.586106 
L 449.434013 61.102255 
L 453.610223 57.748191 
L 455.698329 59.672492 
L 457.786434 60.912045 
L 459.874539 59.354491 
L 461.962644 60.148411 
L 464.050749 57.045016 
L 466.138854 55.633251 
L 468.22696 57.038404 
L 470.315065 56.775243 
L 472.40317 55.466773 
L 474.491275 55.50469 
L 476.57938 56.49537 
L 478.667486 57.241784 
L 480.755591 58.626597 
L 482.843696 57.871405 
L 484.931801 55.663834 
L 487.019906 55.415682 
L 489.108012 56.033393 
L 491.196117 55.754107 
L 493.284222 54.806383 
L 495.372327 55.846191 
L 497.460432 54.549945 
L 499.548537 56.22827 
L 505.812853 51.57188 
L 507.900958 51.17688 
L 509.989063 53.313232 
L 512.077169 53.797916 
L 514.165274 59.538673 
L 516.253379 58.900783 
L 518.341484 57.255357 
L 520.429589 58.381509 
L 522.517695 61.920175 
L 524.6058 58.170721 
L 526.693905 61.157391 
L 528.78201 57.385673 
L 530.870115 57.83173 
L 532.95822 54.077818 
L 535.046326 58.100806 
L 537.134431 57.111201 
L 539.222536 59.153084 
L 541.310641 56.183633 
L 543.398746 57.206846 
L 547.574957 57.12272 
L 549.663062 58.894285 
L 551.751167 57.855354 
L 553.839272 60.67632 
L 555.927378 61.56632 
L 558.015483 63.424964 
L 560.103588 61.834005 
L 562.191693 65.686782 
L 564.279798 63.799169 
L 566.367903 62.916963 
L 568.456009 64.128618 
L 572.632219 69.251299 
L 574.720324 73.923418 
L 576.808429 75.334281 
L 578.896535 75.566066 
L 580.98464 82.076404 
L 583.072745 78.897395 
L 585.16085 78.139122 
L 587.248955 77.002575 
L 589.337061 72.89839 
L 591.425166 77.617147 
L 593.513271 82.010558 
L 595.601376 82.400896 
L 597.689481 80.501864 
L 599.777586 82.365029 
L 601.865692 85.832641 
L 603.953797 83.123987 
L 606.041902 87.418133 
L 608.130007 89.368485 
L 610.218112 90.415166 
L 614.394323 89.396131 
L 616.482428 90.643617 
L 618.570533 92.438352 
L 620.658638 93.706042 
L 622.746744 91.202323 
L 624.834849 89.438935 
L 626.922954 91.592472 
L 629.011059 91.178649 
L 631.099164 92.81152 
L 633.187269 97.795721 
L 635.275375 96.475406 
L 637.36348 96.685134 
L 639.451585 98.974752 
L 641.53969 97.502564 
L 643.627795 96.81494 
L 645.715901 98.682419 
L 647.804006 100.980222 
L 651.980216 97.21579 
L 654.068321 99.630339 
L 656.156427 98.359968 
L 658.244532 98.818568 
L 660.332637 102.778546 
L 662.420742 105.717364 
L 664.508847 103.753737 
L 666.596952 103.598516 
L 668.685058 102.934189 
L 670.773163 104.914528 
L 672.861268 105.792098 
L 674.949373 106.140735 
L 677.037478 114.272508 
L 679.125584 110.909307 
L 681.213689 112.290483 
L 685.389899 111.371935 
L 687.478004 108.03574 
L 689.56611 113.806163 
L 693.74232 113.083307 
L 695.830425 112.113015 
L 697.91853 112.229458 
L 700.006635 113.931191 
L 702.094741 112.300919 
L 704.182846 112.624876 
L 706.270951 114.504297 
L 708.359056 112.231431 
L 710.447161 115.301842 
L 712.535267 115.956484 
L 714.623372 114.692591 
L 716.711477 112.749319 
L 718.799582 116.29078 
L 720.887687 117.465998 
L 722.975793 117.746926 
L 725.063898 121.739875 
L 727.152003 119.639956 
L 729.240108 118.476835 
L 731.328213 115.087005 
L 733.416318 114.705805 
L 737.592529 110.338112 
L 739.680634 113.506153 
L 741.768739 117.200363 
L 743.856844 114.970932 
L 745.94495 114.344677 
L 748.033055 113.244974 
L 750.12116 112.757243 
L 752.209265 113.981623 
L 754.29737 115.989664 
L 756.385476 115.547226 
L 758.473581 112.828214 
L 760.561686 111.617544 
L 762.649791 110.715317 
L 764.737896 111.833139 
L 766.826001 115.699866 
L 768.914107 113.197726 
L 771.002212 112.301909 
L 773.090317 112.292046 
L 775.178422 109.867025 
L 777.266527 115.595612 
L 779.354633 115.271158 
L 781.442738 115.51865 
L 783.530843 114.860906 
L 785.618948 110.040206 
L 787.707053 111.816928 
L 789.795159 114.158307 
L 791.883264 114.850907 
L 793.971369 111.58195 
L 796.059474 111.727295 
L 798.147579 115.844078 
L 800.235684 115.779413 
L 802.32379 111.931117 
L 804.411895 111.853076 
L 804.411895 111.853076 
" style="fill:none;stroke:#000000;stroke-linecap:square;stroke-width:3;"/>
   </g>
   <g id="line2d_46">
    <path clip-path="url(#pb67a4fba4a)" d="M 81.9275 106.87726 
L 84.015605 107.682831 
L 86.10371 107.017285 
L 88.191816 111.123011 
L 90.279921 109.14783 
L 94.456131 113.889055 
L 96.544236 114.853311 
L 98.632341 118.484445 
L 100.720447 119.420217 
L 102.808552 122.461811 
L 104.896657 123.887266 
L 106.984762 127.480104 
L 109.072867 129.78919 
L 111.160973 131.355979 
L 113.249078 127.942753 
L 115.337183 134.815136 
L 117.425288 133.840992 
L 119.513393 135.311289 
L 121.601499 137.032569 
L 123.689604 134.02794 
L 125.777709 136.287876 
L 127.865814 137.456208 
L 129.953919 141.007431 
L 132.042024 137.219013 
L 134.13013 139.897628 
L 136.218235 137.112599 
L 138.30634 135.392183 
L 140.394445 136.684991 
L 142.48255 137.177199 
L 144.570656 135.424689 
L 146.658761 135.471702 
L 150.834971 139.609098 
L 152.923076 138.36433 
L 155.011182 138.176064 
L 157.099287 138.45747 
L 159.187392 137.466072 
L 161.275497 135.841644 
L 163.363602 137.279501 
L 165.451707 132.36645 
L 169.627918 131.056583 
L 171.716023 128.579578 
L 173.804128 132.360696 
L 175.892233 130.979882 
L 177.980339 128.893318 
L 180.068444 127.19846 
L 182.156549 123.609358 
L 184.244654 123.300567 
L 186.332759 125.367315 
L 188.420865 122.998404 
L 190.50897 118.717727 
L 192.597075 121.770811 
L 194.68518 122.049786 
L 196.773285 117.43685 
L 198.86139 115.52152 
L 203.037601 110.193151 
L 205.125706 109.263535 
L 207.213811 109.708194 
L 209.301916 108.106446 
L 211.390022 108.546911 
L 213.478127 109.417875 
L 215.566232 114.790727 
L 217.654337 114.824021 
L 219.742442 113.135427 
L 221.830548 113.844859 
L 223.918653 112.505374 
L 226.006758 111.302535 
L 228.094863 113.949164 
L 230.182968 115.662778 
L 232.271073 116.0296 
L 234.359179 112.298387 
L 236.447284 111.170783 
L 238.535389 111.008019 
L 240.623494 109.801814 
L 244.799705 105.681111 
L 246.88781 104.859333 
L 251.06402 100.976102 
L 253.152125 103.050847 
L 255.240231 103.230011 
L 257.328336 103.001935 
L 259.416441 103.564731 
L 261.504546 99.141392 
L 263.592651 97.854998 
L 265.680756 95.961057 
L 267.768862 97.328709 
L 269.856967 94.718255 
L 271.945072 94.191151 
L 274.033177 95.24204 
L 276.121282 94.949594 
L 278.209388 91.847526 
L 280.297493 92.48466 
L 282.385598 92.843202 
L 284.473703 93.047684 
L 286.561808 93.784451 
L 288.649914 91.42261 
L 290.738019 91.351715 
L 292.826124 93.059312 
L 294.914229 93.337495 
L 297.002334 93.954519 
L 299.090439 90.095009 
L 301.178545 91.180201 
L 303.26665 89.800822 
L 305.354755 87.979557 
L 307.44286 86.829448 
L 309.530965 89.111367 
L 311.619071 89.226578 
L 313.707176 90.239809 
L 315.795281 88.277385 
L 317.883386 88.826526 
L 319.971491 89.580787 
L 322.059597 89.22179 
L 324.147702 89.465626 
L 326.235807 88.249614 
L 328.323912 86.591936 
L 330.412017 85.691912 
L 332.500122 82.596434 
L 334.588228 83.164013 
L 336.676333 83.35784 
L 338.764438 79.984418 
L 340.852543 86.428193 
L 342.940648 85.07814 
L 345.028754 89.535607 
L 347.116859 89.724546 
L 349.204964 89.131846 
L 351.293069 88.803152 
L 353.381174 87.605854 
L 355.46928 86.25203 
L 357.557385 85.71816 
L 359.64549 88.229249 
L 361.733595 87.857676 
L 363.8217 92.946272 
L 367.997911 98.597837 
L 370.086016 98.185348 
L 372.174121 106.135558 
L 374.262226 102.497022 
L 376.350331 107.388144 
L 378.438437 109.721264 
L 380.526542 112.266875 
L 382.614647 116.020718 
L 384.702752 110.881649 
L 386.790857 113.795764 
L 388.878963 115.12395 
L 390.967068 112.775387 
L 393.055173 114.828587 
L 395.143278 115.960609 
L 397.231383 114.802574 
L 399.319488 111.243962 
L 401.407594 114.768064 
L 403.495699 119.694632 
L 405.583804 121.407892 
L 407.671909 119.266898 
L 409.760014 119.83114 
L 411.84812 121.209499 
L 413.936225 120.740925 
L 416.02433 122.567586 
L 418.112435 121.83107 
L 420.20054 125.490632 
L 422.288646 126.147452 
L 424.376751 127.003632 
L 426.464856 125.330601 
L 428.552961 123.049108 
L 430.641066 124.263587 
L 432.729171 122.090778 
L 434.817277 122.499831 
L 436.905382 124.139222 
L 438.993487 123.370417 
L 441.081592 123.047752 
L 443.169697 121.641497 
L 445.257803 119.764999 
L 447.345908 120.869226 
L 449.434013 122.821435 
L 451.522118 122.136769 
L 453.610223 119.373661 
L 455.698329 121.253681 
L 457.786434 121.276045 
L 459.874539 121.182075 
L 461.962644 120.041378 
L 464.050749 116.381333 
L 466.138854 114.747104 
L 468.22696 115.108745 
L 470.315065 113.873694 
L 472.40317 112.027901 
L 474.491275 113.597762 
L 476.57938 113.752119 
L 478.667486 115.304219 
L 480.755591 114.43203 
L 482.843696 111.998048 
L 484.931801 110.659202 
L 487.019906 109.503554 
L 489.108012 110.434686 
L 491.196117 109.032247 
L 493.284222 108.188029 
L 495.372327 110.496964 
L 497.460432 108.500805 
L 499.548537 108.265469 
L 501.636643 105.704038 
L 503.724748 105.139184 
L 505.812853 102.809202 
L 507.900958 104.969841 
L 509.989063 105.635492 
L 512.077169 104.596141 
L 514.165274 111.185576 
L 516.253379 109.864766 
L 518.341484 109.770647 
L 520.429589 112.119189 
L 522.517695 114.983828 
L 524.6058 111.949635 
L 526.693905 115.379595 
L 528.78201 111.577958 
L 530.870115 115.002476 
L 532.95822 111.680856 
L 535.046326 114.248343 
L 537.134431 115.646006 
L 539.222536 116.253719 
L 541.310641 118.896046 
L 543.398746 121.203302 
L 545.486852 123.838581 
L 547.574957 127.415148 
L 549.663062 129.527456 
L 551.751167 132.723089 
L 555.927378 145.290418 
L 558.015483 152.988865 
L 560.103588 157.566667 
L 562.191693 165.264655 
L 564.279798 166.463221 
L 566.367903 170.285895 
L 568.456009 172.94449 
L 570.544114 174.687105 
L 572.632219 178.658291 
L 574.720324 184.659862 
L 576.808429 188.492206 
L 578.896535 187.652212 
L 580.98464 193.186451 
L 583.072745 189.667306 
L 585.16085 189.324831 
L 587.248955 188.767129 
L 589.337061 185.486529 
L 591.425166 186.630172 
L 593.513271 188.185157 
L 595.601376 188.764747 
L 597.689481 187.767819 
L 599.777586 189.026255 
L 601.865692 191.940346 
L 603.953797 193.276244 
L 606.041902 192.140194 
L 610.218112 191.29955 
L 612.306218 190.14231 
L 614.394323 191.154919 
L 616.482428 191.588244 
L 618.570533 194.087377 
L 620.658638 193.831013 
L 622.746744 191.64318 
L 624.834849 190.740278 
L 626.922954 190.241017 
L 629.011059 187.639967 
L 631.099164 187.700417 
L 633.187269 189.894376 
L 635.275375 188.625691 
L 637.36348 188.052911 
L 639.451585 189.79362 
L 641.53969 188.353869 
L 643.627795 187.824715 
L 645.715901 189.360586 
L 647.804006 190.25512 
L 649.892111 185.734224 
L 651.980216 183.857607 
L 654.068321 185.354988 
L 656.156427 186.113603 
L 658.244532 187.692819 
L 660.332637 187.882509 
L 662.420742 188.905828 
L 664.508847 187.38605 
L 666.596952 186.413497 
L 668.685058 186.373854 
L 670.773163 185.334169 
L 672.861268 185.747734 
L 674.949373 185.964741 
L 677.037478 193.079541 
L 679.125584 187.188649 
L 681.213689 185.808698 
L 683.301794 184.079766 
L 685.389899 184.513777 
L 687.478004 181.620024 
L 689.56611 182.326266 
L 691.654215 182.063915 
L 693.74232 179.741304 
L 697.91853 179.67483 
L 700.006635 178.959619 
L 702.094741 175.212637 
L 704.182846 176.133682 
L 708.359056 174.727722 
L 710.447161 175.542609 
L 712.535267 175.763452 
L 714.623372 174.232168 
L 716.711477 173.05104 
L 720.887687 174.497345 
L 722.975793 173.270535 
L 725.063898 176.484009 
L 727.152003 174.288778 
L 729.240108 173.524417 
L 731.328213 169.809539 
L 733.416318 168.664994 
L 735.504424 166.444829 
L 737.592529 165.687369 
L 739.680634 168.246248 
L 741.768739 168.610879 
L 743.856844 168.724059 
L 745.94495 167.438684 
L 748.033055 167.004359 
L 752.209265 167.189806 
L 754.29737 166.809188 
L 756.385476 166.894947 
L 758.473581 165.269835 
L 760.561686 162.955712 
L 762.649791 159.860582 
L 764.737896 159.917329 
L 766.826001 162.491194 
L 768.914107 160.822704 
L 771.002212 159.836008 
L 773.090317 160.955391 
L 775.178422 155.980456 
L 777.266527 160.070597 
L 779.354633 160.340896 
L 783.530843 160.246697 
L 785.618948 155.548089 
L 787.707053 156.475008 
L 789.795159 157.166432 
L 791.883264 155.925581 
L 793.971369 156.003619 
L 796.059474 154.193874 
L 798.147579 157.963167 
L 800.235684 156.039343 
L 802.32379 152.904817 
L 804.411895 152.122248 
L 804.411895 152.122248 
" style="fill:none;stroke:#696969;stroke-dasharray:11.1,4.8;stroke-dashoffset:0;stroke-width:3;"/>
   </g>
   <g id="line2d_47">
    <path clip-path="url(#pb67a4fba4a)" d="M 81.9275 44.393877 
L 84.015605 46.167736 
L 86.10371 46.029267 
L 88.191816 48.344811 
L 90.279921 46.922118 
L 92.368026 50.764473 
L 94.456131 50.094888 
L 96.544236 48.661529 
L 98.632341 50.701692 
L 100.720447 50.86613 
L 104.896657 51.388173 
L 106.984762 53.991419 
L 109.072867 54.051296 
L 111.160973 52.722001 
L 113.249078 50.71023 
L 115.337183 54.920287 
L 117.425288 54.411038 
L 119.513393 56.909984 
L 121.601499 57.97115 
L 123.689604 54.53299 
L 125.777709 55.781272 
L 127.865814 56.207143 
L 129.953919 57.39087 
L 132.042024 52.897884 
L 134.13013 54.074208 
L 136.218235 51.295924 
L 138.30634 50.05033 
L 140.394445 48.429296 
L 142.48255 46.316021 
L 144.570656 46.358348 
L 146.658761 47.063055 
L 148.746866 49.342322 
L 150.834971 54.900472 
L 152.923076 52.230158 
L 155.011182 52.186324 
L 157.099287 54.632162 
L 159.187392 54.979337 
L 161.275497 54.55432 
L 163.363602 55.570565 
L 165.451707 50.371408 
L 167.539813 50.066538 
L 169.627918 51.161013 
L 171.716023 50.250885 
L 173.804128 54.548179 
L 175.892233 52.919858 
L 177.980339 52.7594 
L 180.068444 51.709095 
L 182.156549 46.819857 
L 184.244654 46.982628 
L 186.332759 50.101356 
L 188.420865 49.024175 
L 190.50897 48.4899 
L 192.597075 51.501949 
L 194.68518 51.671894 
L 196.773285 47.239711 
L 198.86139 47.156408 
L 200.949496 45.374776 
L 203.037601 45.119875 
L 205.125706 45.520632 
L 207.213811 44.682962 
L 209.301916 44.781076 
L 211.390022 45.559951 
L 213.478127 42.146429 
L 215.566232 49.456654 
L 217.654337 49.571286 
L 219.742442 47.058044 
L 221.830548 48.206429 
L 223.918653 46.986799 
L 226.006758 47.158462 
L 230.182968 50.790057 
L 232.271073 50.603918 
L 234.359179 48.471462 
L 236.447284 47.347821 
L 238.535389 46.397257 
L 240.623494 45.178506 
L 242.711599 45.968287 
L 244.799705 41.922066 
L 246.88781 45.115609 
L 248.975915 42.35649 
L 251.06402 40.068073 
L 253.152125 40.426065 
L 255.240231 40.511957 
L 257.328336 41.303949 
L 259.416441 42.380589 
L 261.504546 38.873209 
L 263.592651 38.727259 
L 265.680756 38.753348 
L 267.768862 38.931516 
L 269.856967 37.604594 
L 271.945072 37.536062 
L 274.033177 38.23316 
L 276.121282 39.724294 
L 278.209388 37.917565 
L 280.297493 37.16098 
L 282.385598 38.479178 
L 284.473703 39.256152 
L 286.561808 39.042515 
L 288.649914 40.826292 
L 290.738019 39.894877 
L 292.826124 40.246609 
L 294.914229 40.172909 
L 297.002334 41.522845 
L 299.090439 36.69377 
L 301.178545 38.005361 
L 303.26665 38.196213 
L 305.354755 36.99128 
L 307.44286 36.424257 
L 309.530965 37.606125 
L 311.619071 40.524186 
L 313.707176 39.725031 
L 315.795281 39.557522 
L 317.883386 38.853397 
L 319.971491 39.033964 
L 322.059597 40.293009 
L 324.147702 39.945298 
L 326.235807 39.927062 
L 328.323912 38.829826 
L 330.412017 38.493543 
L 332.500122 35.52001 
L 334.588228 34.888607 
L 336.676333 36.156278 
L 338.764438 34.91001 
L 340.852543 39.125556 
L 342.940648 38.703901 
L 345.028754 42.419903 
L 347.116859 41.79391 
L 349.204964 43.121694 
L 351.293069 43.588461 
L 353.381174 41.56262 
L 355.46928 40.291806 
L 357.557385 36.619755 
L 359.64549 38.644058 
L 361.733595 37.894531 
L 363.8217 41.978009 
L 365.909805 45.143633 
L 367.997911 46.0021 
L 370.086016 44.843886 
L 372.174121 49.138166 
L 374.262226 44.755908 
L 376.350331 45.253119 
L 378.438437 45.154822 
L 380.526542 45.704132 
L 382.614647 50.128745 
L 384.702752 44.771858 
L 386.790857 47.01937 
L 388.878963 46.033316 
L 390.967068 45.351354 
L 393.055173 47.5178 
L 395.143278 48.74252 
L 397.231383 48.345251 
L 399.319488 45.284068 
L 403.495699 51.722054 
L 405.583804 52.538457 
L 407.671909 51.711002 
L 409.760014 51.565869 
L 411.84812 53.244237 
L 413.936225 50.836585 
L 416.02433 51.827195 
L 418.112435 48.73139 
L 420.20054 54.479121 
L 422.288646 56.122908 
L 424.376751 56.868424 
L 426.464856 56.76197 
L 428.552961 55.77819 
L 430.641066 59.091138 
L 432.729171 56.400575 
L 434.817277 58.45933 
L 436.905382 57.615857 
L 438.993487 59.421431 
L 441.081592 58.830559 
L 443.169697 56.91182 
L 445.257803 56.271689 
L 447.345908 58.586106 
L 449.434013 61.102255 
L 453.610223 57.748191 
L 455.698329 59.672492 
L 457.786434 60.912045 
L 459.874539 59.354491 
L 461.962644 60.148411 
L 464.050749 57.045016 
L 466.138854 55.633251 
L 468.22696 57.038404 
L 470.315065 56.775243 
L 472.40317 55.466773 
L 474.491275 55.50469 
L 476.57938 56.49537 
L 478.667486 57.241784 
L 480.755591 58.626597 
L 482.843696 57.871405 
L 484.931801 55.663834 
L 487.019906 55.415682 
L 489.108012 56.033393 
L 491.196117 55.754107 
L 493.284222 54.806383 
L 495.372327 55.846191 
L 497.460432 54.549945 
L 499.548537 56.22827 
L 505.812853 51.57188 
L 507.900958 51.17688 
L 509.989063 53.313232 
L 512.077169 53.797916 
L 514.165274 59.538673 
L 516.253379 58.900783 
L 518.341484 57.255357 
L 520.429589 58.381509 
L 522.517695 61.920175 
L 524.6058 58.170721 
L 526.693905 61.157391 
L 528.78201 57.385673 
L 530.870115 57.83173 
L 532.95822 54.077818 
L 535.046326 58.100806 
L 537.134431 57.111201 
L 539.222536 59.153084 
L 541.310641 56.183633 
L 543.398746 57.206846 
L 547.574957 57.12272 
L 549.663062 58.894285 
L 551.751167 57.855354 
L 553.839272 60.67632 
L 555.927378 61.56632 
L 558.015483 63.424964 
L 560.103588 61.834005 
L 562.191693 65.686782 
L 564.279798 63.799169 
L 566.367903 62.916963 
L 568.456009 64.128618 
L 572.632219 69.251299 
L 574.720324 73.923418 
L 576.808429 75.334281 
L 578.896535 75.566066 
L 580.98464 82.076404 
L 583.072745 78.897395 
L 585.16085 78.139122 
L 587.248955 77.002575 
L 589.337061 72.89839 
L 591.425166 77.617147 
L 593.513271 82.010558 
L 595.601376 82.400896 
L 597.689481 80.501864 
L 599.777586 82.365029 
L 601.865692 85.832641 
L 603.953797 83.123987 
L 606.041902 87.418133 
L 608.130007 89.368485 
L 610.218112 90.415166 
L 614.394323 89.396131 
L 616.482428 90.643617 
L 618.570533 92.438352 
L 620.658638 93.706042 
L 622.746744 91.202323 
L 624.834849 89.438935 
L 626.922954 91.592472 
L 629.011059 91.178649 
L 631.099164 92.81152 
L 633.187269 97.795721 
L 635.275375 96.475406 
L 637.36348 96.685134 
L 639.451585 98.974752 
L 641.53969 97.502564 
L 643.627795 96.81494 
L 645.715901 98.682419 
L 647.804006 100.980222 
L 651.980216 97.21579 
L 654.068321 99.630339 
L 656.156427 98.359968 
L 658.244532 98.818568 
L 660.332637 102.778546 
L 662.420742 105.717364 
L 664.508847 103.753737 
L 666.596952 103.598516 
L 668.685058 102.934189 
L 670.773163 104.914528 
L 672.861268 105.792098 
L 674.949373 106.140735 
L 677.037478 114.272508 
L 679.125584 110.909307 
L 681.213689 112.290483 
L 685.389899 111.371935 
L 687.478004 108.03574 
L 689.56611 113.806163 
L 693.74232 113.083307 
L 695.830425 112.113015 
L 697.91853 112.229458 
L 700.006635 113.931191 
L 702.094741 112.300919 
L 704.182846 112.624876 
L 706.270951 114.504297 
L 708.359056 112.231431 
L 710.447161 115.301842 
L 712.535267 115.956484 
L 714.623372 114.692591 
L 716.711477 112.749319 
L 718.799582 116.29078 
L 720.887687 117.465998 
L 722.975793 117.746926 
L 725.063898 121.739875 
L 727.152003 119.639956 
L 729.240108 118.476835 
L 731.328213 115.087005 
L 733.416318 114.705805 
L 737.592529 110.338112 
L 739.680634 113.506153 
L 741.768739 117.200363 
L 743.856844 114.970932 
L 745.94495 114.344677 
L 748.033055 113.244974 
L 750.12116 112.757243 
L 752.209265 113.981623 
L 754.29737 115.989664 
L 756.385476 115.547226 
L 758.473581 112.828214 
L 760.561686 111.617544 
L 762.649791 110.715317 
L 764.737896 111.833139 
L 766.826001 115.699866 
L 768.914107 113.197726 
L 771.002212 112.301909 
L 773.090317 112.292046 
L 775.178422 109.867025 
L 777.266527 115.595612 
L 779.354633 115.271158 
L 781.442738 115.51865 
L 783.530843 114.860906 
L 785.618948 110.040206 
L 787.707053 111.816928 
L 789.795159 114.158307 
L 791.883264 114.850907 
L 793.971369 111.58195 
L 796.059474 111.727295 
L 798.147579 115.844078 
L 800.235684 115.779413 
L 802.32379 111.931117 
L 804.411895 111.853076 
L 804.411895 111.853076 
" style="fill:none;stroke:#d3d3d3;stroke-dasharray:11.1,4.8;stroke-dashoffset:0;stroke-width:3;"/>
   </g>
   <g id="line2d_48">
    <path clip-path="url(#pb67a4fba4a)" style="fill:none;stroke:#000000;stroke-linecap:square;stroke-width:1.5;"/>
   </g>
   <g id="patch_3">
    <path d="M 81.9275 206.298438 
L 806.5 206.298438 
" style="fill:none;stroke:#000000;stroke-linecap:square;stroke-linejoin:miter;stroke-width:0.8;"/>
   </g>
   <g id="legend_1">
    <g id="patch_4">
     <path d="M 713.75 104.788125 
L 796.7 104.788125 
Q 799.5 104.788125 799.5 101.988125 
L 799.5 41.74 
Q 799.5 38.94 796.7 38.94 
L 713.75 38.94 
Q 710.95 38.94 710.95 41.74 
L 710.95 101.988125 
Q 710.95 104.788125 713.75 104.788125 
z
" style="fill:#ffffff;opacity:0.8;stroke:#cccccc;stroke-linejoin:miter;"/>
    </g>
    <g id="line2d_49">
     <path d="M 716.55 50.277812 
L 744.55 50.277812 
" style="fill:none;stroke:#000000;stroke-linecap:square;stroke-width:3;"/>
    </g>
    <g id="line2d_50"/>
    <g id="text_12">
     <!-- LFPR -->
     <defs>
      <path d="M 9.8125 72.90625 
L 19.671875 72.90625 
L 19.671875 8.296875 
L 55.171875 8.296875 
L 55.171875 0 
L 9.8125 0 
z
" id="DejaVuSans-4c"/>
      <path d="M 9.8125 72.90625 
L 51.703125 72.90625 
L 51.703125 64.59375 
L 19.671875 64.59375 
L 19.671875 43.109375 
L 48.578125 43.109375 
L 48.578125 34.8125 
L 19.671875 34.8125 
L 19.671875 0 
L 9.8125 0 
z
" id="DejaVuSans-46"/>
      <path d="M 44.390625 34.1875 
Q 47.5625 33.109375 50.5625 29.59375 
Q 53.5625 26.078125 56.59375 19.921875 
L 66.609375 0 
L 56 0 
L 46.6875 18.703125 
Q 43.0625 26.03125 39.671875 28.421875 
Q 36.28125 30.8125 30.421875 30.8125 
L 19.671875 30.8125 
L 19.671875 0 
L 9.8125 0 
L 9.8125 72.90625 
L 32.078125 72.90625 
Q 44.578125 72.90625 50.734375 67.671875 
Q 56.890625 62.453125 56.890625 51.90625 
Q 56.890625 45.015625 53.6875 40.46875 
Q 50.484375 35.9375 44.390625 34.1875 
z
M 19.671875 64.796875 
L 19.671875 38.921875 
L 32.078125 38.921875 
Q 39.203125 38.921875 42.84375 42.21875 
Q 46.484375 45.515625 46.484375 51.90625 
Q 46.484375 58.296875 42.84375 61.546875 
Q 39.203125 64.796875 32.078125 64.796875 
z
" id="DejaVuSans-52"/>
     </defs>
     <g transform="translate(755.75 55.177812)scale(0.14 -0.14)">
      <use xlink:href="#DejaVuSans-4c"/>
      <use x="55.712891" xlink:href="#DejaVuSans-46"/>
      <use x="113.232422" xlink:href="#DejaVuSans-50"/>
      <use x="173.535156" xlink:href="#DejaVuSans-52"/>
     </g>
    </g>
    <g id="line2d_51">
     <path d="M 716.55 70.827187 
L 744.55 70.827187 
" style="fill:none;stroke:#696969;stroke-dasharray:11.1,4.8;stroke-dashoffset:0;stroke-width:3;"/>
    </g>
    <g id="line2d_52"/>
    <g id="text_13">
     <!-- EPOP -->
     <defs>
      <path d="M 9.8125 72.90625 
L 55.90625 72.90625 
L 55.90625 64.59375 
L 19.671875 64.59375 
L 19.671875 43.015625 
L 54.390625 43.015625 
L 54.390625 34.71875 
L 19.671875 34.71875 
L 19.671875 8.296875 
L 56.78125 8.296875 
L 56.78125 0 
L 9.8125 0 
z
" id="DejaVuSans-45"/>
      <path d="M 39.40625 66.21875 
Q 28.65625 66.21875 22.328125 58.203125 
Q 16.015625 50.203125 16.015625 36.375 
Q 16.015625 22.609375 22.328125 14.59375 
Q 28.65625 6.59375 39.40625 6.59375 
Q 50.140625 6.59375 56.421875 14.59375 
Q 62.703125 22.609375 62.703125 36.375 
Q 62.703125 50.203125 56.421875 58.203125 
Q 50.140625 66.21875 39.40625 66.21875 
z
M 39.40625 74.21875 
Q 54.734375 74.21875 63.90625 63.9375 
Q 73.09375 53.65625 73.09375 36.375 
Q 73.09375 19.140625 63.90625 8.859375 
Q 54.734375 -1.421875 39.40625 -1.421875 
Q 24.03125 -1.421875 14.8125 8.828125 
Q 5.609375 19.09375 5.609375 36.375 
Q 5.609375 53.65625 14.8125 63.9375 
Q 24.03125 74.21875 39.40625 74.21875 
z
" id="DejaVuSans-4f"/>
     </defs>
     <g transform="translate(755.75 75.727187)scale(0.14 -0.14)">
      <use xlink:href="#DejaVuSans-45"/>
      <use x="63.183594" xlink:href="#DejaVuSans-50"/>
      <use x="123.486328" xlink:href="#DejaVuSans-4f"/>
      <use x="202.197266" xlink:href="#DejaVuSans-50"/>
     </g>
    </g>
    <g id="line2d_53">
     <path d="M 716.55 91.376562 
L 744.55 91.376562 
" style="fill:none;stroke:#d3d3d3;stroke-dasharray:11.1,4.8;stroke-dashoffset:0;stroke-width:3;"/>
    </g>
    <g id="line2d_54"/>
    <g id="text_14">
     <!-- UPOP -->
     <defs>
      <path d="M 8.6875 72.90625 
L 18.609375 72.90625 
L 18.609375 28.609375 
Q 18.609375 16.890625 22.84375 11.734375 
Q 27.09375 6.59375 36.625 6.59375 
Q 46.09375 6.59375 50.34375 11.734375 
Q 54.59375 16.890625 54.59375 28.609375 
L 54.59375 72.90625 
L 64.5 72.90625 
L 64.5 27.390625 
Q 64.5 13.140625 57.4375 5.859375 
Q 50.390625 -1.421875 36.625 -1.421875 
Q 22.796875 -1.421875 15.734375 5.859375 
Q 8.6875 13.140625 8.6875 27.390625 
z
" id="DejaVuSans-55"/>
     </defs>
     <g transform="translate(755.75 96.276562)scale(0.14 -0.14)">
      <use xlink:href="#DejaVuSans-55"/>
      <use x="73.193359" xlink:href="#DejaVuSans-50"/>
      <use x="133.496094" xlink:href="#DejaVuSans-4f"/>
      <use x="212.207031" xlink:href="#DejaVuSans-50"/>
     </g>
    </g>
   </g>
  </g>
 </g>
 <defs>
  <clipPath id="pb67a4fba4a">
   <rect height="174.358438" width="724.5725" x="81.9275" y="31.94"/>
  </clipPath>
 </defs>
</svg>
