<?xml version="1.0" encoding="utf-8" standalone="no"?>
<!DOCTYPE svg PUBLIC "-//W3C//DTD SVG 1.1//EN"
  "http://www.w3.org/Graphics/SVG/1.1/DTD/svg11.dtd">
<!-- Created with matplotlib (http://matplotlib.org/) -->
<svg height="432pt" version="1.1" viewBox="0 0 972 432" width="972pt" xmlns="http://www.w3.org/2000/svg" xmlns:xlink="http://www.w3.org/1999/xlink">
 <defs>
  <style type="text/css">
*{stroke-linecap:butt;stroke-linejoin:round;}
  </style>
 </defs>
 <g id="figure_1">
  <g id="patch_1">
   <path d="M 0 432 
L 972 432 
L 972 0 
L 0 0 
z
" style="fill:none;"/>
  </g>
  <g id="axes_1">
   <g id="patch_2">
    <path d="M 72.9 388.8 
L 923.4 388.8 
L 923.4 51.84 
L 72.9 51.84 
z
" style="fill:none;"/>
   </g>
   <g id="PolyCollection_1">
    <path clip-path="url(#p79d1780921)" d="M 90.057061 51.84 
L 90.057061 388.8 
L 92.508069 388.8 
L 94.959078 388.8 
L 97.410086 388.8 
L 99.861095 388.8 
L 102.312104 388.8 
L 104.763112 388.8 
L 107.214121 388.8 
L 107.214121 51.84 
L 107.214121 51.84 
L 104.763112 51.84 
L 102.312104 51.84 
L 99.861095 51.84 
L 97.410086 51.84 
L 94.959078 51.84 
L 92.508069 51.84 
L 90.057061 51.84 
z
" style="fill:#bbbbbb;fill-opacity:0.3;stroke:#bbbbbb;stroke-opacity:0.3;"/>
    <path clip-path="url(#p79d1780921)" d="M 403.786167 51.84 
L 403.786167 388.8 
L 406.237176 388.8 
L 408.688184 388.8 
L 411.139193 388.8 
L 413.590202 388.8 
L 416.04121 388.8 
L 418.492219 388.8 
L 420.943228 388.8 
L 420.943228 51.84 
L 420.943228 51.84 
L 418.492219 51.84 
L 416.04121 51.84 
L 413.590202 51.84 
L 411.139193 51.84 
L 408.688184 51.84 
L 406.237176 51.84 
L 403.786167 51.84 
z
" style="fill:#bbbbbb;fill-opacity:0.3;stroke:#bbbbbb;stroke-opacity:0.3;"/>
    <path clip-path="url(#p79d1780921)" d="M 602.317867 51.84 
L 602.317867 388.8 
L 604.768876 388.8 
L 607.219885 388.8 
L 609.670893 388.8 
L 612.121902 388.8 
L 614.572911 388.8 
L 617.023919 388.8 
L 619.474928 388.8 
L 621.925937 388.8 
L 624.376945 388.8 
L 626.827954 388.8 
L 629.278963 388.8 
L 631.729971 388.8 
L 634.18098 388.8 
L 636.631988 388.8 
L 639.082997 388.8 
L 641.534006 388.8 
L 643.985014 388.8 
L 643.985014 51.84 
L 643.985014 51.84 
L 641.534006 51.84 
L 639.082997 51.84 
L 636.631988 51.84 
L 634.18098 51.84 
L 631.729971 51.84 
L 629.278963 51.84 
L 626.827954 51.84 
L 624.376945 51.84 
L 621.925937 51.84 
L 619.474928 51.84 
L 617.023919 51.84 
L 614.572911 51.84 
L 612.121902 51.84 
L 609.670893 51.84 
L 607.219885 51.84 
L 604.768876 51.84 
L 602.317867 51.84 
z
" style="fill:#bbbbbb;fill-opacity:0.3;stroke:#bbbbbb;stroke-opacity:0.3;"/>
   </g>
   <g id="matplotlib.axis_1">
    <g id="xtick_1">
     <g id="line2d_1">
      <defs>
       <path d="M 0 0 
L 0 3.5 
" id="m359a248e5b" style="stroke:#000000;stroke-width:0.8;"/>
      </defs>
      <g>
       <use style="stroke:#000000;stroke-width:0.8;" x="190.548415" xlink:href="#m359a248e5b" y="388.8"/>
      </g>
     </g>
     <g id="text_1">
      <!-- 1994 -->
      <defs>
       <path d="M 12.40625 8.296875 
L 28.515625 8.296875 
L 28.515625 63.921875 
L 10.984375 60.40625 
L 10.984375 69.390625 
L 28.421875 72.90625 
L 38.28125 72.90625 
L 38.28125 8.296875 
L 54.390625 8.296875 
L 54.390625 0 
L 12.40625 0 
z
" id="DejaVuSans-31"/>
       <path d="M 10.984375 1.515625 
L 10.984375 10.5 
Q 14.703125 8.734375 18.5 7.8125 
Q 22.3125 6.890625 25.984375 6.890625 
Q 35.75 6.890625 40.890625 13.453125 
Q 46.046875 20.015625 46.78125 33.40625 
Q 43.953125 29.203125 39.59375 26.953125 
Q 35.25 24.703125 29.984375 24.703125 
Q 19.046875 24.703125 12.671875 31.3125 
Q 6.296875 37.9375 6.296875 49.421875 
Q 6.296875 60.640625 12.9375 67.421875 
Q 19.578125 74.21875 30.609375 74.21875 
Q 43.265625 74.21875 49.921875 64.515625 
Q 56.59375 54.828125 56.59375 36.375 
Q 56.59375 19.140625 48.40625 8.859375 
Q 40.234375 -1.421875 26.421875 -1.421875 
Q 22.703125 -1.421875 18.890625 -0.6875 
Q 15.09375 0.046875 10.984375 1.515625 
z
M 30.609375 32.421875 
Q 37.25 32.421875 41.125 36.953125 
Q 45.015625 41.5 45.015625 49.421875 
Q 45.015625 57.28125 41.125 61.84375 
Q 37.25 66.40625 30.609375 66.40625 
Q 23.96875 66.40625 20.09375 61.84375 
Q 16.21875 57.28125 16.21875 49.421875 
Q 16.21875 41.5 20.09375 36.953125 
Q 23.96875 32.421875 30.609375 32.421875 
z
" id="DejaVuSans-39"/>
       <path d="M 37.796875 64.3125 
L 12.890625 25.390625 
L 37.796875 25.390625 
z
M 35.203125 72.90625 
L 47.609375 72.90625 
L 47.609375 25.390625 
L 58.015625 25.390625 
L 58.015625 17.1875 
L 47.609375 17.1875 
L 47.609375 0 
L 37.796875 0 
L 37.796875 17.1875 
L 4.890625 17.1875 
L 4.890625 26.703125 
z
" id="DejaVuSans-34"/>
      </defs>
      <g transform="translate(172.733415 407.937813)scale(0.14 -0.14)">
       <use xlink:href="#DejaVuSans-31"/>
       <use x="63.623047" xlink:href="#DejaVuSans-39"/>
       <use x="127.246094" xlink:href="#DejaVuSans-39"/>
       <use x="190.869141" xlink:href="#DejaVuSans-34"/>
      </g>
     </g>
    </g>
    <g id="xtick_2">
     <g id="line2d_2">
      <g>
       <use style="stroke:#000000;stroke-width:0.8;" x="337.608934" xlink:href="#m359a248e5b" y="388.8"/>
      </g>
     </g>
     <g id="text_2">
      <!-- 1999 -->
      <g transform="translate(319.793934 407.937813)scale(0.14 -0.14)">
       <use xlink:href="#DejaVuSans-31"/>
       <use x="63.623047" xlink:href="#DejaVuSans-39"/>
       <use x="127.246094" xlink:href="#DejaVuSans-39"/>
       <use x="190.869141" xlink:href="#DejaVuSans-39"/>
      </g>
     </g>
    </g>
    <g id="xtick_3">
     <g id="line2d_3">
      <g>
       <use style="stroke:#000000;stroke-width:0.8;" x="484.669452" xlink:href="#m359a248e5b" y="388.8"/>
      </g>
     </g>
     <g id="text_3">
      <!-- 2004 -->
      <defs>
       <path d="M 19.1875 8.296875 
L 53.609375 8.296875 
L 53.609375 0 
L 7.328125 0 
L 7.328125 8.296875 
Q 12.9375 14.109375 22.625 23.890625 
Q 32.328125 33.6875 34.8125 36.53125 
Q 39.546875 41.84375 41.421875 45.53125 
Q 43.3125 49.21875 43.3125 52.78125 
Q 43.3125 58.59375 39.234375 62.25 
Q 35.15625 65.921875 28.609375 65.921875 
Q 23.96875 65.921875 18.8125 64.3125 
Q 13.671875 62.703125 7.8125 59.421875 
L 7.8125 69.390625 
Q 13.765625 71.78125 18.9375 73 
Q 24.125 74.21875 28.421875 74.21875 
Q 39.75 74.21875 46.484375 68.546875 
Q 53.21875 62.890625 53.21875 53.421875 
Q 53.21875 48.921875 51.53125 44.890625 
Q 49.859375 40.875 45.40625 35.40625 
Q 44.1875 33.984375 37.640625 27.21875 
Q 31.109375 20.453125 19.1875 8.296875 
z
" id="DejaVuSans-32"/>
       <path d="M 31.78125 66.40625 
Q 24.171875 66.40625 20.328125 58.90625 
Q 16.5 51.421875 16.5 36.375 
Q 16.5 21.390625 20.328125 13.890625 
Q 24.171875 6.390625 31.78125 6.390625 
Q 39.453125 6.390625 43.28125 13.890625 
Q 47.125 21.390625 47.125 36.375 
Q 47.125 51.421875 43.28125 58.90625 
Q 39.453125 66.40625 31.78125 66.40625 
z
M 31.78125 74.21875 
Q 44.046875 74.21875 50.515625 64.515625 
Q 56.984375 54.828125 56.984375 36.375 
Q 56.984375 17.96875 50.515625 8.265625 
Q 44.046875 -1.421875 31.78125 -1.421875 
Q 19.53125 -1.421875 13.0625 8.265625 
Q 6.59375 17.96875 6.59375 36.375 
Q 6.59375 54.828125 13.0625 64.515625 
Q 19.53125 74.21875 31.78125 74.21875 
z
" id="DejaVuSans-30"/>
      </defs>
      <g transform="translate(466.854452 407.937813)scale(0.14 -0.14)">
       <use xlink:href="#DejaVuSans-32"/>
       <use x="63.623047" xlink:href="#DejaVuSans-30"/>
       <use x="127.246094" xlink:href="#DejaVuSans-30"/>
       <use x="190.869141" xlink:href="#DejaVuSans-34"/>
      </g>
     </g>
    </g>
    <g id="xtick_4">
     <g id="line2d_4">
      <g>
       <use style="stroke:#000000;stroke-width:0.8;" x="631.729971" xlink:href="#m359a248e5b" y="388.8"/>
      </g>
     </g>
     <g id="text_4">
      <!-- 2009 -->
      <g transform="translate(613.914971 407.937813)scale(0.14 -0.14)">
       <use xlink:href="#DejaVuSans-32"/>
       <use x="63.623047" xlink:href="#DejaVuSans-30"/>
       <use x="127.246094" xlink:href="#DejaVuSans-30"/>
       <use x="190.869141" xlink:href="#DejaVuSans-39"/>
      </g>
     </g>
    </g>
    <g id="xtick_5">
     <g id="line2d_5">
      <g>
       <use style="stroke:#000000;stroke-width:0.8;" x="778.79049" xlink:href="#m359a248e5b" y="388.8"/>
      </g>
     </g>
     <g id="text_5">
      <!-- 2014 -->
      <g transform="translate(760.97549 407.937813)scale(0.14 -0.14)">
       <use xlink:href="#DejaVuSans-32"/>
       <use x="63.623047" xlink:href="#DejaVuSans-30"/>
       <use x="127.246094" xlink:href="#DejaVuSans-31"/>
       <use x="190.869141" xlink:href="#DejaVuSans-34"/>
      </g>
     </g>
    </g>
    <g id="xtick_6">
     <g id="line2d_6">
      <defs>
       <path d="M 0 0 
L 0 2 
" id="mfb6922938e" style="stroke:#000000;stroke-width:0.6;"/>
      </defs>
      <g>
       <use style="stroke:#000000;stroke-width:0.6;" x="72.9" xlink:href="#mfb6922938e" y="388.8"/>
      </g>
     </g>
    </g>
    <g id="xtick_7">
     <g id="line2d_7">
      <g>
       <use style="stroke:#000000;stroke-width:0.6;" x="102.312104" xlink:href="#mfb6922938e" y="388.8"/>
      </g>
     </g>
    </g>
    <g id="xtick_8">
     <g id="line2d_8">
      <g>
       <use style="stroke:#000000;stroke-width:0.6;" x="131.724207" xlink:href="#mfb6922938e" y="388.8"/>
      </g>
     </g>
    </g>
    <g id="xtick_9">
     <g id="line2d_9">
      <g>
       <use style="stroke:#000000;stroke-width:0.6;" x="161.136311" xlink:href="#mfb6922938e" y="388.8"/>
      </g>
     </g>
    </g>
    <g id="xtick_10">
     <g id="line2d_10">
      <g>
       <use style="stroke:#000000;stroke-width:0.6;" x="190.548415" xlink:href="#mfb6922938e" y="388.8"/>
      </g>
     </g>
    </g>
    <g id="xtick_11">
     <g id="line2d_11">
      <g>
       <use style="stroke:#000000;stroke-width:0.6;" x="219.960519" xlink:href="#mfb6922938e" y="388.8"/>
      </g>
     </g>
    </g>
    <g id="xtick_12">
     <g id="line2d_12">
      <g>
       <use style="stroke:#000000;stroke-width:0.6;" x="249.372622" xlink:href="#mfb6922938e" y="388.8"/>
      </g>
     </g>
    </g>
    <g id="xtick_13">
     <g id="line2d_13">
      <g>
       <use style="stroke:#000000;stroke-width:0.6;" x="278.784726" xlink:href="#mfb6922938e" y="388.8"/>
      </g>
     </g>
    </g>
    <g id="xtick_14">
     <g id="line2d_14">
      <g>
       <use style="stroke:#000000;stroke-width:0.6;" x="308.19683" xlink:href="#mfb6922938e" y="388.8"/>
      </g>
     </g>
    </g>
    <g id="xtick_15">
     <g id="line2d_15">
      <g>
       <use style="stroke:#000000;stroke-width:0.6;" x="337.608934" xlink:href="#mfb6922938e" y="388.8"/>
      </g>
     </g>
    </g>
    <g id="xtick_16">
     <g id="line2d_16">
      <g>
       <use style="stroke:#000000;stroke-width:0.6;" x="367.021037" xlink:href="#mfb6922938e" y="388.8"/>
      </g>
     </g>
    </g>
    <g id="xtick_17">
     <g id="line2d_17">
      <g>
       <use style="stroke:#000000;stroke-width:0.6;" x="396.433141" xlink:href="#mfb6922938e" y="388.8"/>
      </g>
     </g>
    </g>
    <g id="xtick_18">
     <g id="line2d_18">
      <g>
       <use style="stroke:#000000;stroke-width:0.6;" x="425.845245" xlink:href="#mfb6922938e" y="388.8"/>
      </g>
     </g>
    </g>
    <g id="xtick_19">
     <g id="line2d_19">
      <g>
       <use style="stroke:#000000;stroke-width:0.6;" x="455.257349" xlink:href="#mfb6922938e" y="388.8"/>
      </g>
     </g>
    </g>
    <g id="xtick_20">
     <g id="line2d_20">
      <g>
       <use style="stroke:#000000;stroke-width:0.6;" x="484.669452" xlink:href="#mfb6922938e" y="388.8"/>
      </g>
     </g>
    </g>
    <g id="xtick_21">
     <g id="line2d_21">
      <g>
       <use style="stroke:#000000;stroke-width:0.6;" x="514.081556" xlink:href="#mfb6922938e" y="388.8"/>
      </g>
     </g>
    </g>
    <g id="xtick_22">
     <g id="line2d_22">
      <g>
       <use style="stroke:#000000;stroke-width:0.6;" x="543.49366" xlink:href="#mfb6922938e" y="388.8"/>
      </g>
     </g>
    </g>
    <g id="xtick_23">
     <g id="line2d_23">
      <g>
       <use style="stroke:#000000;stroke-width:0.6;" x="572.905764" xlink:href="#mfb6922938e" y="388.8"/>
      </g>
     </g>
    </g>
    <g id="xtick_24">
     <g id="line2d_24">
      <g>
       <use style="stroke:#000000;stroke-width:0.6;" x="602.317867" xlink:href="#mfb6922938e" y="388.8"/>
      </g>
     </g>
    </g>
    <g id="xtick_25">
     <g id="line2d_25">
      <g>
       <use style="stroke:#000000;stroke-width:0.6;" x="631.729971" xlink:href="#mfb6922938e" y="388.8"/>
      </g>
     </g>
    </g>
    <g id="xtick_26">
     <g id="line2d_26">
      <g>
       <use style="stroke:#000000;stroke-width:0.6;" x="661.142075" xlink:href="#mfb6922938e" y="388.8"/>
      </g>
     </g>
    </g>
    <g id="xtick_27">
     <g id="line2d_27">
      <g>
       <use style="stroke:#000000;stroke-width:0.6;" x="690.554179" xlink:href="#mfb6922938e" y="388.8"/>
      </g>
     </g>
    </g>
    <g id="xtick_28">
     <g id="line2d_28">
      <g>
       <use style="stroke:#000000;stroke-width:0.6;" x="719.966282" xlink:href="#mfb6922938e" y="388.8"/>
      </g>
     </g>
    </g>
    <g id="xtick_29">
     <g id="line2d_29">
      <g>
       <use style="stroke:#000000;stroke-width:0.6;" x="749.378386" xlink:href="#mfb6922938e" y="388.8"/>
      </g>
     </g>
    </g>
    <g id="xtick_30">
     <g id="line2d_30">
      <g>
       <use style="stroke:#000000;stroke-width:0.6;" x="778.79049" xlink:href="#mfb6922938e" y="388.8"/>
      </g>
     </g>
    </g>
    <g id="xtick_31">
     <g id="line2d_31">
      <g>
       <use style="stroke:#000000;stroke-width:0.6;" x="808.202594" xlink:href="#mfb6922938e" y="388.8"/>
      </g>
     </g>
    </g>
    <g id="xtick_32">
     <g id="line2d_32">
      <g>
       <use style="stroke:#000000;stroke-width:0.6;" x="837.614697" xlink:href="#mfb6922938e" y="388.8"/>
      </g>
     </g>
    </g>
    <g id="xtick_33">
     <g id="line2d_33">
      <g>
       <use style="stroke:#000000;stroke-width:0.6;" x="867.026801" xlink:href="#mfb6922938e" y="388.8"/>
      </g>
     </g>
    </g>
    <g id="xtick_34">
     <g id="line2d_34">
      <g>
       <use style="stroke:#000000;stroke-width:0.6;" x="896.438905" xlink:href="#mfb6922938e" y="388.8"/>
      </g>
     </g>
    </g>
   </g>
   <g id="matplotlib.axis_2">
    <g id="ytick_1">
     <g id="line2d_35">
      <path clip-path="url(#p79d1780921)" d="M 72.9 355.959178 
L 923.4 355.959178 
" style="fill:none;stroke:#000000;stroke-dasharray:0.8,1.32;stroke-dashoffset:0;stroke-width:0.8;"/>
     </g>
     <g id="line2d_36">
      <defs>
       <path d="M 0 0 
L -3.5 0 
" id="m1e95b777b8" style="stroke:#000000;stroke-width:0.8;"/>
      </defs>
      <g>
       <use style="stroke:#000000;stroke-width:0.8;" x="72.9" xlink:href="#m1e95b777b8" y="355.959178"/>
      </g>
     </g>
     <g id="text_6">
      <!-- −4 -->
      <defs>
       <path d="M 10.59375 35.5 
L 73.1875 35.5 
L 73.1875 27.203125 
L 10.59375 27.203125 
z
" id="DejaVuSans-2212"/>
      </defs>
      <g transform="translate(45.760937 361.278085)scale(0.14 -0.14)">
       <use xlink:href="#DejaVuSans-2212"/>
       <use x="83.789062" xlink:href="#DejaVuSans-34"/>
      </g>
     </g>
    </g>
    <g id="ytick_2">
     <g id="line2d_37">
      <path clip-path="url(#p79d1780921)" d="M 72.9 315.768614 
L 923.4 315.768614 
" style="fill:none;stroke:#000000;stroke-dasharray:0.8,1.32;stroke-dashoffset:0;stroke-width:0.8;"/>
     </g>
     <g id="line2d_38">
      <g>
       <use style="stroke:#000000;stroke-width:0.8;" x="72.9" xlink:href="#m1e95b777b8" y="315.768614"/>
      </g>
     </g>
     <g id="text_7">
      <!-- −3 -->
      <defs>
       <path d="M 40.578125 39.3125 
Q 47.65625 37.796875 51.625 33 
Q 55.609375 28.21875 55.609375 21.1875 
Q 55.609375 10.40625 48.1875 4.484375 
Q 40.765625 -1.421875 27.09375 -1.421875 
Q 22.515625 -1.421875 17.65625 -0.515625 
Q 12.796875 0.390625 7.625 2.203125 
L 7.625 11.71875 
Q 11.71875 9.328125 16.59375 8.109375 
Q 21.484375 6.890625 26.8125 6.890625 
Q 36.078125 6.890625 40.9375 10.546875 
Q 45.796875 14.203125 45.796875 21.1875 
Q 45.796875 27.640625 41.28125 31.265625 
Q 36.765625 34.90625 28.71875 34.90625 
L 20.21875 34.90625 
L 20.21875 43.015625 
L 29.109375 43.015625 
Q 36.375 43.015625 40.234375 45.921875 
Q 44.09375 48.828125 44.09375 54.296875 
Q 44.09375 59.90625 40.109375 62.90625 
Q 36.140625 65.921875 28.71875 65.921875 
Q 24.65625 65.921875 20.015625 65.03125 
Q 15.375 64.15625 9.8125 62.3125 
L 9.8125 71.09375 
Q 15.4375 72.65625 20.34375 73.4375 
Q 25.25 74.21875 29.59375 74.21875 
Q 40.828125 74.21875 47.359375 69.109375 
Q 53.90625 64.015625 53.90625 55.328125 
Q 53.90625 49.265625 50.4375 45.09375 
Q 46.96875 40.921875 40.578125 39.3125 
z
" id="DejaVuSans-33"/>
      </defs>
      <g transform="translate(45.760937 321.087521)scale(0.14 -0.14)">
       <use xlink:href="#DejaVuSans-2212"/>
       <use x="83.789062" xlink:href="#DejaVuSans-33"/>
      </g>
     </g>
    </g>
    <g id="ytick_3">
     <g id="line2d_39">
      <path clip-path="url(#p79d1780921)" d="M 72.9 275.57805 
L 923.4 275.57805 
" style="fill:none;stroke:#000000;stroke-dasharray:0.8,1.32;stroke-dashoffset:0;stroke-width:0.8;"/>
     </g>
     <g id="line2d_40">
      <g>
       <use style="stroke:#000000;stroke-width:0.8;" x="72.9" xlink:href="#m1e95b777b8" y="275.57805"/>
      </g>
     </g>
     <g id="text_8">
      <!-- −2 -->
      <g transform="translate(45.760937 280.896957)scale(0.14 -0.14)">
       <use xlink:href="#DejaVuSans-2212"/>
       <use x="83.789062" xlink:href="#DejaVuSans-32"/>
      </g>
     </g>
    </g>
    <g id="ytick_4">
     <g id="line2d_41">
      <path clip-path="url(#p79d1780921)" d="M 72.9 235.387486 
L 923.4 235.387486 
" style="fill:none;stroke:#000000;stroke-dasharray:0.8,1.32;stroke-dashoffset:0;stroke-width:0.8;"/>
     </g>
     <g id="line2d_42">
      <g>
       <use style="stroke:#000000;stroke-width:0.8;" x="72.9" xlink:href="#m1e95b777b8" y="235.387486"/>
      </g>
     </g>
     <g id="text_9">
      <!-- −1 -->
      <g transform="translate(45.760937 240.706393)scale(0.14 -0.14)">
       <use xlink:href="#DejaVuSans-2212"/>
       <use x="83.789062" xlink:href="#DejaVuSans-31"/>
      </g>
     </g>
    </g>
    <g id="ytick_5">
     <g id="line2d_43">
      <path clip-path="url(#p79d1780921)" d="M 72.9 195.196922 
L 923.4 195.196922 
" style="fill:none;stroke:#000000;stroke-dasharray:0.8,1.32;stroke-dashoffset:0;stroke-width:0.8;"/>
     </g>
     <g id="line2d_44">
      <g>
       <use style="stroke:#000000;stroke-width:0.8;" x="72.9" xlink:href="#m1e95b777b8" y="195.196922"/>
      </g>
     </g>
     <g id="text_10">
      <!-- 0 -->
      <g transform="translate(57.4925 200.515829)scale(0.14 -0.14)">
       <use xlink:href="#DejaVuSans-30"/>
      </g>
     </g>
    </g>
    <g id="ytick_6">
     <g id="line2d_45">
      <path clip-path="url(#p79d1780921)" d="M 72.9 155.006358 
L 923.4 155.006358 
" style="fill:none;stroke:#000000;stroke-dasharray:0.8,1.32;stroke-dashoffset:0;stroke-width:0.8;"/>
     </g>
     <g id="line2d_46">
      <g>
       <use style="stroke:#000000;stroke-width:0.8;" x="72.9" xlink:href="#m1e95b777b8" y="155.006358"/>
      </g>
     </g>
     <g id="text_11">
      <!-- 1 -->
      <g transform="translate(57.4925 160.325265)scale(0.14 -0.14)">
       <use xlink:href="#DejaVuSans-31"/>
      </g>
     </g>
    </g>
    <g id="ytick_7">
     <g id="line2d_47">
      <path clip-path="url(#p79d1780921)" d="M 72.9 114.815794 
L 923.4 114.815794 
" style="fill:none;stroke:#000000;stroke-dasharray:0.8,1.32;stroke-dashoffset:0;stroke-width:0.8;"/>
     </g>
     <g id="line2d_48">
      <g>
       <use style="stroke:#000000;stroke-width:0.8;" x="72.9" xlink:href="#m1e95b777b8" y="114.815794"/>
      </g>
     </g>
     <g id="text_12">
      <!-- 2 -->
      <g transform="translate(57.4925 120.134701)scale(0.14 -0.14)">
       <use xlink:href="#DejaVuSans-32"/>
      </g>
     </g>
    </g>
    <g id="ytick_8">
     <g id="line2d_49">
      <path clip-path="url(#p79d1780921)" d="M 72.9 74.62523 
L 923.4 74.62523 
" style="fill:none;stroke:#000000;stroke-dasharray:0.8,1.32;stroke-dashoffset:0;stroke-width:0.8;"/>
     </g>
     <g id="line2d_50">
      <g>
       <use style="stroke:#000000;stroke-width:0.8;" x="72.9" xlink:href="#m1e95b777b8" y="74.62523"/>
      </g>
     </g>
     <g id="text_13">
      <!-- 3 -->
      <g transform="translate(57.4925 79.944137)scale(0.14 -0.14)">
       <use xlink:href="#DejaVuSans-33"/>
      </g>
     </g>
    </g>
    <g id="text_14">
     <!-- Percentage point -->
     <defs>
      <path d="M 19.671875 64.796875 
L 19.671875 37.40625 
L 32.078125 37.40625 
Q 38.96875 37.40625 42.71875 40.96875 
Q 46.484375 44.53125 46.484375 51.125 
Q 46.484375 57.671875 42.71875 61.234375 
Q 38.96875 64.796875 32.078125 64.796875 
z
M 9.8125 72.90625 
L 32.078125 72.90625 
Q 44.34375 72.90625 50.609375 67.359375 
Q 56.890625 61.8125 56.890625 51.125 
Q 56.890625 40.328125 50.609375 34.8125 
Q 44.34375 29.296875 32.078125 29.296875 
L 19.671875 29.296875 
L 19.671875 0 
L 9.8125 0 
z
" id="DejaVuSans-50"/>
      <path d="M 56.203125 29.59375 
L 56.203125 25.203125 
L 14.890625 25.203125 
Q 15.484375 15.921875 20.484375 11.0625 
Q 25.484375 6.203125 34.421875 6.203125 
Q 39.59375 6.203125 44.453125 7.46875 
Q 49.3125 8.734375 54.109375 11.28125 
L 54.109375 2.78125 
Q 49.265625 0.734375 44.1875 -0.34375 
Q 39.109375 -1.421875 33.890625 -1.421875 
Q 20.796875 -1.421875 13.15625 6.1875 
Q 5.515625 13.8125 5.515625 26.8125 
Q 5.515625 40.234375 12.765625 48.109375 
Q 20.015625 56 32.328125 56 
Q 43.359375 56 49.78125 48.890625 
Q 56.203125 41.796875 56.203125 29.59375 
z
M 47.21875 32.234375 
Q 47.125 39.59375 43.09375 43.984375 
Q 39.0625 48.390625 32.421875 48.390625 
Q 24.90625 48.390625 20.390625 44.140625 
Q 15.875 39.890625 15.1875 32.171875 
z
" id="DejaVuSans-65"/>
      <path d="M 41.109375 46.296875 
Q 39.59375 47.171875 37.8125 47.578125 
Q 36.03125 48 33.890625 48 
Q 26.265625 48 22.1875 43.046875 
Q 18.109375 38.09375 18.109375 28.8125 
L 18.109375 0 
L 9.078125 0 
L 9.078125 54.6875 
L 18.109375 54.6875 
L 18.109375 46.1875 
Q 20.953125 51.171875 25.484375 53.578125 
Q 30.03125 56 36.53125 56 
Q 37.453125 56 38.578125 55.875 
Q 39.703125 55.765625 41.0625 55.515625 
z
" id="DejaVuSans-72"/>
      <path d="M 48.78125 52.59375 
L 48.78125 44.1875 
Q 44.96875 46.296875 41.140625 47.34375 
Q 37.3125 48.390625 33.40625 48.390625 
Q 24.65625 48.390625 19.8125 42.84375 
Q 14.984375 37.3125 14.984375 27.296875 
Q 14.984375 17.28125 19.8125 11.734375 
Q 24.65625 6.203125 33.40625 6.203125 
Q 37.3125 6.203125 41.140625 7.25 
Q 44.96875 8.296875 48.78125 10.40625 
L 48.78125 2.09375 
Q 45.015625 0.34375 40.984375 -0.53125 
Q 36.96875 -1.421875 32.421875 -1.421875 
Q 20.0625 -1.421875 12.78125 6.34375 
Q 5.515625 14.109375 5.515625 27.296875 
Q 5.515625 40.671875 12.859375 48.328125 
Q 20.21875 56 33.015625 56 
Q 37.15625 56 41.109375 55.140625 
Q 45.0625 54.296875 48.78125 52.59375 
z
" id="DejaVuSans-63"/>
      <path d="M 54.890625 33.015625 
L 54.890625 0 
L 45.90625 0 
L 45.90625 32.71875 
Q 45.90625 40.484375 42.875 44.328125 
Q 39.84375 48.1875 33.796875 48.1875 
Q 26.515625 48.1875 22.3125 43.546875 
Q 18.109375 38.921875 18.109375 30.90625 
L 18.109375 0 
L 9.078125 0 
L 9.078125 54.6875 
L 18.109375 54.6875 
L 18.109375 46.1875 
Q 21.34375 51.125 25.703125 53.5625 
Q 30.078125 56 35.796875 56 
Q 45.21875 56 50.046875 50.171875 
Q 54.890625 44.34375 54.890625 33.015625 
z
" id="DejaVuSans-6e"/>
      <path d="M 18.3125 70.21875 
L 18.3125 54.6875 
L 36.8125 54.6875 
L 36.8125 47.703125 
L 18.3125 47.703125 
L 18.3125 18.015625 
Q 18.3125 11.328125 20.140625 9.421875 
Q 21.96875 7.515625 27.59375 7.515625 
L 36.8125 7.515625 
L 36.8125 0 
L 27.59375 0 
Q 17.1875 0 13.234375 3.875 
Q 9.28125 7.765625 9.28125 18.015625 
L 9.28125 47.703125 
L 2.6875 47.703125 
L 2.6875 54.6875 
L 9.28125 54.6875 
L 9.28125 70.21875 
z
" id="DejaVuSans-74"/>
      <path d="M 34.28125 27.484375 
Q 23.390625 27.484375 19.1875 25 
Q 14.984375 22.515625 14.984375 16.5 
Q 14.984375 11.71875 18.140625 8.90625 
Q 21.296875 6.109375 26.703125 6.109375 
Q 34.1875 6.109375 38.703125 11.40625 
Q 43.21875 16.703125 43.21875 25.484375 
L 43.21875 27.484375 
z
M 52.203125 31.203125 
L 52.203125 0 
L 43.21875 0 
L 43.21875 8.296875 
Q 40.140625 3.328125 35.546875 0.953125 
Q 30.953125 -1.421875 24.3125 -1.421875 
Q 15.921875 -1.421875 10.953125 3.296875 
Q 6 8.015625 6 15.921875 
Q 6 25.140625 12.171875 29.828125 
Q 18.359375 34.515625 30.609375 34.515625 
L 43.21875 34.515625 
L 43.21875 35.40625 
Q 43.21875 41.609375 39.140625 45 
Q 35.0625 48.390625 27.6875 48.390625 
Q 23 48.390625 18.546875 47.265625 
Q 14.109375 46.140625 10.015625 43.890625 
L 10.015625 52.203125 
Q 14.9375 54.109375 19.578125 55.046875 
Q 24.21875 56 28.609375 56 
Q 40.484375 56 46.34375 49.84375 
Q 52.203125 43.703125 52.203125 31.203125 
z
" id="DejaVuSans-61"/>
      <path d="M 45.40625 27.984375 
Q 45.40625 37.75 41.375 43.109375 
Q 37.359375 48.484375 30.078125 48.484375 
Q 22.859375 48.484375 18.828125 43.109375 
Q 14.796875 37.75 14.796875 27.984375 
Q 14.796875 18.265625 18.828125 12.890625 
Q 22.859375 7.515625 30.078125 7.515625 
Q 37.359375 7.515625 41.375 12.890625 
Q 45.40625 18.265625 45.40625 27.984375 
z
M 54.390625 6.78125 
Q 54.390625 -7.171875 48.1875 -13.984375 
Q 42 -20.796875 29.203125 -20.796875 
Q 24.46875 -20.796875 20.265625 -20.09375 
Q 16.0625 -19.390625 12.109375 -17.921875 
L 12.109375 -9.1875 
Q 16.0625 -11.328125 19.921875 -12.34375 
Q 23.78125 -13.375 27.78125 -13.375 
Q 36.625 -13.375 41.015625 -8.765625 
Q 45.40625 -4.15625 45.40625 5.171875 
L 45.40625 9.625 
Q 42.625 4.78125 38.28125 2.390625 
Q 33.9375 0 27.875 0 
Q 17.828125 0 11.671875 7.65625 
Q 5.515625 15.328125 5.515625 27.984375 
Q 5.515625 40.671875 11.671875 48.328125 
Q 17.828125 56 27.875 56 
Q 33.9375 56 38.28125 53.609375 
Q 42.625 51.21875 45.40625 46.390625 
L 45.40625 54.6875 
L 54.390625 54.6875 
z
" id="DejaVuSans-67"/>
      <path id="DejaVuSans-20"/>
      <path d="M 18.109375 8.203125 
L 18.109375 -20.796875 
L 9.078125 -20.796875 
L 9.078125 54.6875 
L 18.109375 54.6875 
L 18.109375 46.390625 
Q 20.953125 51.265625 25.265625 53.625 
Q 29.59375 56 35.59375 56 
Q 45.5625 56 51.78125 48.09375 
Q 58.015625 40.1875 58.015625 27.296875 
Q 58.015625 14.40625 51.78125 6.484375 
Q 45.5625 -1.421875 35.59375 -1.421875 
Q 29.59375 -1.421875 25.265625 0.953125 
Q 20.953125 3.328125 18.109375 8.203125 
z
M 48.6875 27.296875 
Q 48.6875 37.203125 44.609375 42.84375 
Q 40.53125 48.484375 33.40625 48.484375 
Q 26.265625 48.484375 22.1875 42.84375 
Q 18.109375 37.203125 18.109375 27.296875 
Q 18.109375 17.390625 22.1875 11.75 
Q 26.265625 6.109375 33.40625 6.109375 
Q 40.53125 6.109375 44.609375 11.75 
Q 48.6875 17.390625 48.6875 27.296875 
z
" id="DejaVuSans-70"/>
      <path d="M 30.609375 48.390625 
Q 23.390625 48.390625 19.1875 42.75 
Q 14.984375 37.109375 14.984375 27.296875 
Q 14.984375 17.484375 19.15625 11.84375 
Q 23.34375 6.203125 30.609375 6.203125 
Q 37.796875 6.203125 41.984375 11.859375 
Q 46.1875 17.53125 46.1875 27.296875 
Q 46.1875 37.015625 41.984375 42.703125 
Q 37.796875 48.390625 30.609375 48.390625 
z
M 30.609375 56 
Q 42.328125 56 49.015625 48.375 
Q 55.71875 40.765625 55.71875 27.296875 
Q 55.71875 13.875 49.015625 6.21875 
Q 42.328125 -1.421875 30.609375 -1.421875 
Q 18.84375 -1.421875 12.171875 6.21875 
Q 5.515625 13.875 5.515625 27.296875 
Q 5.515625 40.765625 12.171875 48.375 
Q 18.84375 56 30.609375 56 
z
" id="DejaVuSans-6f"/>
      <path d="M 9.421875 54.6875 
L 18.40625 54.6875 
L 18.40625 0 
L 9.421875 0 
z
M 9.421875 75.984375 
L 18.40625 75.984375 
L 18.40625 64.59375 
L 9.421875 64.59375 
z
" id="DejaVuSans-69"/>
     </defs>
     <g transform="translate(38.849375 280.174375)rotate(-90)scale(0.14 -0.14)">
      <use xlink:href="#DejaVuSans-50"/>
      <use x="60.255859" xlink:href="#DejaVuSans-65"/>
      <use x="121.779297" xlink:href="#DejaVuSans-72"/>
      <use x="162.861328" xlink:href="#DejaVuSans-63"/>
      <use x="217.841797" xlink:href="#DejaVuSans-65"/>
      <use x="279.365234" xlink:href="#DejaVuSans-6e"/>
      <use x="342.744141" xlink:href="#DejaVuSans-74"/>
      <use x="381.953125" xlink:href="#DejaVuSans-61"/>
      <use x="443.232422" xlink:href="#DejaVuSans-67"/>
      <use x="506.708984" xlink:href="#DejaVuSans-65"/>
      <use x="568.232422" xlink:href="#DejaVuSans-20"/>
      <use x="600.019531" xlink:href="#DejaVuSans-70"/>
      <use x="663.496094" xlink:href="#DejaVuSans-6f"/>
      <use x="724.677734" xlink:href="#DejaVuSans-69"/>
      <use x="752.460938" xlink:href="#DejaVuSans-6e"/>
      <use x="815.839844" xlink:href="#DejaVuSans-74"/>
     </g>
    </g>
   </g>
   <g id="line2d_51">
    <path clip-path="url(#p79d1780921)" d="M 75.351009 199.285764 
L 77.802017 198.966586 
L 80.253026 204.30404 
L 82.704035 201.024656 
L 85.155043 209.881492 
L 87.606052 208.338061 
L 90.057061 205.034091 
L 92.508069 209.736779 
L 94.959078 210.115817 
L 97.410086 210.805688 
L 99.861095 211.319154 
L 102.312104 217.319777 
L 104.763112 217.457796 
L 107.214121 214.393699 
L 109.66513 209.75646 
L 112.116138 219.460867 
L 114.567147 218.287021 
L 117.018156 224.047229 
L 119.469164 226.493273 
L 121.920173 218.568127 
L 124.371182 221.445486 
L 126.82219 222.42714 
L 129.273199 225.155696 
L 131.724207 214.799119 
L 134.175216 217.510611 
L 136.626225 211.106515 
L 139.077233 208.235354 
L 141.528242 204.498782 
L 143.979251 199.62757 
L 146.430259 199.725136 
L 148.881268 201.349522 
L 151.332277 206.603356 
L 153.783285 219.415194 
L 156.234294 213.259976 
L 158.685303 213.158934 
L 161.136311 218.796726 
L 163.58732 219.596981 
L 166.038329 218.617295 
L 168.489337 220.959794 
L 170.940346 208.975456 
L 173.391354 208.272715 
L 175.842363 210.795539 
L 178.293372 208.697644 
L 180.74438 218.60314 
L 183.195389 214.849771 
L 185.646398 214.479907 
L 188.097406 212.058896 
L 190.548415 200.788938 
L 192.999424 201.164134 
L 195.450432 208.352972 
L 197.901441 205.870012 
L 200.35245 204.638477 
L 202.803458 211.581414 
L 205.254467 211.973146 
L 207.705476 201.756725 
L 210.156484 201.564708 
L 212.607493 197.457947 
L 215.058501 196.870388 
L 217.50951 197.794156 
L 219.960519 195.863279 
L 222.411527 196.089437 
L 224.862536 197.884786 
L 227.313545 190.016434 
L 229.764553 206.866898 
L 232.215562 207.131131 
L 234.666571 201.337972 
L 237.117579 203.985062 
L 239.568588 201.173749 
L 242.019597 201.56944 
L 246.921614 209.940464 
L 249.372622 209.511404 
L 251.823631 204.595977 
L 254.27464 202.005923 
L 256.725648 199.814823 
L 259.176657 197.005536 
L 261.627666 198.826025 
L 264.078674 189.499266 
L 266.529683 196.860555 
L 268.980692 190.500637 
L 271.4317 185.225711 
L 273.882709 186.050901 
L 276.333718 186.248888 
L 278.784726 188.074472 
L 281.235735 190.556185 
L 283.686744 182.471484 
L 286.137752 182.135061 
L 288.588761 182.195198 
L 291.039769 182.605885 
L 293.490778 179.547258 
L 295.941787 179.389288 
L 298.392795 180.996137 
L 300.843804 184.433282 
L 303.294813 180.268674 
L 305.745821 178.524704 
L 308.19683 181.563221 
L 310.647839 183.354188 
L 313.098847 182.861744 
L 315.549856 186.973448 
L 318.000865 184.826484 
L 320.451873 185.637245 
L 322.902882 185.467363 
L 325.35389 188.579039 
L 327.804899 177.447759 
L 330.255908 180.471048 
L 332.706916 180.910972 
L 335.157925 178.133536 
L 337.608934 176.826518 
L 340.059942 179.550786 
L 342.510951 186.277076 
L 344.96196 184.43498 
L 347.412968 184.048863 
L 349.863977 182.425818 
L 352.314986 182.842033 
L 354.765994 185.744201 
L 357.217003 184.942708 
L 359.668012 184.900673 
L 362.11902 182.371485 
L 364.570029 181.596334 
L 367.021037 174.74218 
L 369.472046 173.286761 
L 371.923055 176.208811 
L 374.374063 173.336095 
L 376.825072 183.053159 
L 379.276081 182.081221 
L 381.727089 190.646807 
L 384.178098 189.203858 
L 386.629107 192.264472 
L 389.080115 193.340397 
L 391.531124 188.670722 
L 393.982133 185.741428 
L 396.433141 177.277152 
L 398.88415 181.943279 
L 401.335159 180.215579 
L 403.786167 189.628216 
L 406.237176 196.925152 
L 408.688184 198.903964 
L 411.139193 196.234218 
L 413.590202 206.132766 
L 416.04121 196.031424 
L 418.492219 197.177524 
L 420.943228 196.950942 
L 423.394236 198.217133 
L 425.845245 208.416105 
L 428.296254 196.06819 
L 430.747262 201.248828 
L 433.198271 198.975919 
L 435.64928 197.403959 
L 438.100288 202.397734 
L 440.551297 205.22078 
L 443.002305 204.305054 
L 445.453314 197.248862 
L 450.355331 212.088769 
L 452.80634 213.970622 
L 455.257349 212.063293 
L 457.708357 211.728754 
L 460.159366 215.597482 
L 462.610375 210.047714 
L 465.061383 212.331124 
L 467.512392 205.195124 
L 469.963401 218.443958 
L 472.414409 222.232976 
L 474.865418 223.951429 
L 477.316427 223.706047 
L 479.767435 221.438382 
L 482.218444 229.074907 
L 484.669452 222.873013 
L 487.120461 227.618555 
L 489.57147 225.674302 
L 492.022478 229.836249 
L 494.473487 228.474256 
L 496.924496 224.05146 
L 499.375504 222.575922 
L 501.826513 227.91078 
L 504.277522 233.710638 
L 509.179539 225.979339 
L 511.630548 230.414958 
L 514.081556 233.272194 
L 516.532565 229.681947 
L 518.983573 231.511977 
L 521.434582 224.358484 
L 523.885591 221.104289 
L 526.336599 224.343243 
L 528.787608 223.736643 
L 531.238617 220.720547 
L 533.689625 220.807948 
L 536.140634 223.091521 
L 538.591643 224.812045 
L 541.042651 228.004113 
L 543.49366 226.263355 
L 545.944669 221.174784 
L 548.395677 220.60278 
L 550.846686 222.026638 
L 553.297695 221.382869 
L 555.748703 219.198314 
L 558.199712 221.595126 
L 560.65072 218.60721 
L 563.101729 222.475839 
L 568.003746 215.08611 
L 570.454755 211.74261 
L 572.905764 210.832112 
L 575.356772 215.756519 
L 577.807781 216.873742 
L 580.25879 230.106497 
L 582.709798 228.636128 
L 585.160807 224.843331 
L 587.611816 227.439173 
L 590.062824 235.59599 
L 592.513833 226.953295 
L 594.964841 233.837731 
L 597.41585 225.143717 
L 599.866859 226.171902 
L 602.317867 217.518932 
L 604.768876 226.792136 
L 607.219885 224.511044 
L 609.670893 229.217696 
L 612.121902 222.372949 
L 614.572911 224.73151 
L 617.023919 224.734965 
L 619.474928 224.537596 
L 621.925937 228.621148 
L 624.376945 226.226357 
L 626.827954 232.728836 
L 629.278963 234.780335 
L 631.729971 239.06461 
L 634.18098 235.397362 
L 636.631988 244.278223 
L 639.082997 239.927171 
L 641.534006 237.893639 
L 643.985014 240.68657 
L 648.887032 252.494628 
L 651.33804 263.264115 
L 653.789049 266.516229 
L 656.240058 267.050506 
L 658.691066 282.057187 
L 661.142075 274.7294 
L 663.593084 272.981541 
L 666.044092 270.361739 
L 668.495101 260.901368 
L 670.94611 271.778361 
L 673.397118 281.905411 
L 675.848127 282.80516 
L 678.299135 278.427788 
L 680.750144 282.722485 
L 683.201153 290.715519 
L 685.652161 284.471924 
L 688.10317 294.370162 
L 690.554179 298.86583 
L 693.005187 301.278486 
L 697.907205 298.929555 
L 700.358213 301.805079 
L 702.809222 305.942039 
L 705.260231 308.864133 
L 707.711239 303.092926 
L 710.162248 299.02822 
L 712.613256 303.992241 
L 715.064265 303.038356 
L 717.515274 306.802213 
L 719.966282 318.291065 
L 722.417291 315.247668 
L 724.8683 315.731103 
L 727.319308 321.008796 
L 729.770317 317.615324 
L 732.221326 316.030312 
L 734.672334 320.334953 
L 737.123343 325.631511 
L 742.02536 316.954293 
L 744.476369 322.51996 
L 746.927378 319.591686 
L 749.378386 320.648784 
L 751.829395 329.776746 
L 754.280403 336.550882 
L 756.731412 332.024615 
L 759.182421 331.666822 
L 761.633429 330.135512 
L 764.084438 334.7003 
L 766.535447 336.723147 
L 768.986455 337.526774 
L 771.437464 356.270952 
L 773.888473 348.518592 
L 776.339481 351.702277 
L 781.241499 349.584973 
L 783.692507 341.894864 
L 786.143516 355.196 
L 788.594524 354.448302 
L 791.045533 353.529778 
L 793.496542 351.293202 
L 795.94755 351.561612 
L 798.398559 355.484197 
L 800.849568 351.726333 
L 803.300576 352.47307 
L 805.751585 356.805238 
L 808.202594 351.566158 
L 810.653602 358.643622 
L 813.104611 360.152608 
L 815.55562 357.239266 
L 818.006628 352.759918 
L 820.457637 360.923177 
L 822.908646 363.632118 
L 825.359654 364.279673 
L 827.810663 373.483636 
L 830.261671 368.64321 
L 832.71268 365.962154 
L 835.163689 358.148411 
L 837.614697 357.269724 
L 842.516715 347.201955 
L 844.967723 354.504463 
L 847.418732 363.019817 
L 849.869741 357.880857 
L 852.320749 356.437304 
L 854.771758 353.90243 
L 857.222767 352.778185 
L 859.673775 355.600445 
L 862.124784 360.229088 
L 864.575793 359.209245 
L 867.026801 352.941777 
L 869.47781 350.151115 
L 871.928818 348.071433 
L 874.379827 350.648073 
L 876.830836 359.561088 
L 879.281844 353.79352 
L 881.732853 351.728615 
L 884.183862 351.705879 
L 886.63487 346.116075 
L 889.085879 359.320779 
L 891.536888 358.572895 
L 893.987896 359.143375 
L 896.438905 357.62724 
L 898.889914 346.515267 
L 901.340922 350.610706 
L 903.791931 356.007711 
L 906.242939 357.604192 
L 908.693948 350.069069 
L 911.144957 350.404099 
L 913.595965 359.893505 
L 916.046974 359.74445 
L 918.497983 350.873918 
L 920.948991 350.694031 
L 920.948991 350.694031 
" style="fill:none;stroke:#000000;stroke-linecap:square;stroke-width:3;"/>
   </g>
   <g id="line2d_52">
    <path clip-path="url(#p79d1780921)" d="M 77.802017 193.049188 
L 80.253026 192.155473 
L 82.704035 181.39422 
L 85.155043 179.328203 
L 87.606052 176.008714 
L 90.057061 166.797741 
L 92.508069 163.58379 
L 94.959078 158.490104 
L 97.410086 156.197082 
L 99.861095 150.923016 
L 102.312104 148.845453 
L 104.763112 141.12593 
L 107.214121 133.909919 
L 109.66513 123.574864 
L 112.116138 125.9359 
L 114.567147 122.751791 
L 117.018156 120.951066 
L 119.469164 117.689037 
L 121.920173 110.770207 
L 124.371182 109.046521 
L 126.82219 103.281449 
L 129.273199 99.574743 
L 134.175216 85.623682 
L 136.626225 79.763532 
L 139.077233 75.380433 
L 141.528242 74.639471 
L 143.979251 69.256224 
L 146.430259 68.732288 
L 148.881268 67.156364 
L 151.332277 69.164712 
L 153.783285 76.850634 
L 156.234294 72.774025 
L 158.685303 73.917555 
L 161.136311 75.729276 
L 163.58732 80.923313 
L 166.038329 79.045938 
L 168.489337 80.19722 
L 170.940346 74.295411 
L 173.391354 69.563611 
L 175.842363 69.250019 
L 178.293372 69.946314 
L 180.74438 78.295276 
L 183.195389 75.633079 
L 185.646398 75.6177 
L 188.097406 77.501091 
L 190.548415 76.763973 
L 192.999424 87.011329 
L 195.450432 99.415366 
L 197.901441 100.848601 
L 200.35245 102.907394 
L 202.803458 110.761529 
L 205.254467 113.74795 
L 207.705476 111.802925 
L 212.607493 111.449322 
L 215.058501 115.084434 
L 217.50951 121.46245 
L 219.960519 123.090363 
L 222.411527 119.43281 
L 224.862536 118.820666 
L 227.313545 119.650248 
L 229.764553 127.229745 
L 232.215562 129.850714 
L 234.666571 128.188438 
L 239.568588 131.382298 
L 242.019597 134.087944 
L 244.470605 136.522355 
L 246.921614 134.326117 
L 249.372622 130.75462 
L 251.823631 130.259707 
L 254.27464 128.733931 
L 256.725648 124.894416 
L 259.176657 123.772436 
L 261.627666 124.526589 
L 264.078674 123.208406 
L 266.529683 124.883996 
L 268.980692 121.213889 
L 271.4317 116.112708 
L 273.882709 115.141814 
L 276.333718 109.908019 
L 278.784726 111.702949 
L 281.235735 113.034344 
L 283.686744 112.560926 
L 286.137752 113.53678 
L 288.588761 113.921174 
L 291.039769 114.091979 
L 293.490778 110.233783 
L 295.941787 112.283493 
L 300.843804 112.26388 
L 303.294813 111.51404 
L 305.745821 116.103871 
L 313.098847 123.223153 
L 315.549856 125.158751 
L 318.000865 125.186675 
L 320.451873 126.741488 
L 322.902882 129.528101 
L 325.35389 138.349977 
L 327.804899 140.53187 
L 330.255908 146.013684 
L 332.706916 150.709615 
L 337.608934 156.531627 
L 342.510951 162.075256 
L 344.96196 165.815521 
L 347.412968 168.364513 
L 349.863977 168.016508 
L 352.314986 171.109968 
L 354.765994 173.69609 
L 357.217003 174.111363 
L 359.668012 174.835842 
L 362.11902 174.538088 
L 364.570029 175.201724 
L 367.021037 170.822403 
L 369.472046 171.659743 
L 371.923055 173.288089 
L 374.374063 169.438522 
L 376.825072 174.610542 
L 379.276081 174.876751 
L 381.727089 175.451461 
L 384.178098 174.878886 
L 386.629107 178.671511 
L 389.080115 179.509998 
L 391.531124 179.814826 
L 393.982133 178.069397 
L 396.433141 178.123207 
L 398.88415 185.468745 
L 401.335159 186.003118 
L 403.786167 193.437707 
L 406.237176 197.704304 
L 408.688184 197.853414 
L 411.139193 198.655295 
L 413.590202 208.565428 
L 416.04121 204.949377 
L 418.492219 202.19063 
L 420.943228 196.509493 
L 423.394236 194.026055 
L 425.845245 194.068 
L 428.296254 181.62654 
L 430.747262 181.616017 
L 433.198271 178.249638 
L 435.64928 177.645546 
L 438.100288 179.745216 
L 440.551297 180.411624 
L 443.002305 175.38195 
L 445.453314 165.806531 
L 447.904323 169.037415 
L 450.355331 173.600108 
L 452.80634 169.539861 
L 455.257349 169.96927 
L 457.708357 166.395321 
L 460.159366 168.269416 
L 462.610375 162.163151 
L 465.061383 159.652756 
L 467.512392 157.437339 
L 469.963401 163.30467 
L 472.414409 164.236594 
L 474.865418 165.372816 
L 477.316427 166.108053 
L 479.767435 164.597775 
L 482.218444 167.780353 
L 484.669452 163.236752 
L 487.120461 164.125457 
L 489.57147 166.834129 
L 492.022478 166.699342 
L 494.473487 165.912069 
L 496.924496 161.411637 
L 499.375504 162.984462 
L 501.826513 167.564447 
L 504.277522 171.394873 
L 506.72853 172.575317 
L 509.179539 170.421069 
L 511.630548 174.868785 
L 514.081556 175.30008 
L 516.532565 172.896 
L 518.983573 173.318046 
L 521.434582 171.659335 
L 526.336599 172.446992 
L 528.787608 175.097503 
L 531.238617 173.874758 
L 533.689625 175.257069 
L 536.140634 177.632068 
L 538.591643 178.855757 
L 541.042651 185.492635 
L 543.49366 185.814505 
L 545.944669 181.760367 
L 548.395677 182.667475 
L 550.846686 187.392771 
L 553.297695 189.754152 
L 555.748703 192.576745 
L 558.199712 195.795611 
L 560.65072 196.13441 
L 563.101729 196.713122 
L 565.552738 194.600264 
L 568.003746 193.493232 
L 570.454755 193.970848 
L 572.905764 196.818057 
L 575.356772 201.340145 
L 577.807781 201.305631 
L 580.25879 204.983428 
L 582.709798 200.680825 
L 585.160807 198.100473 
L 587.611816 194.756849 
L 590.062824 198.405297 
L 592.513833 189.625707 
L 594.964841 191.966412 
L 597.41585 185.902961 
L 599.866859 183.152706 
L 602.317867 172.647093 
L 604.768876 175.597836 
L 607.219885 173.329629 
L 609.670893 172.744745 
L 612.121902 166.745348 
L 614.572911 165.110592 
L 617.023919 161.953944 
L 619.474928 157.184297 
L 621.925937 157.423619 
L 624.376945 151.473687 
L 626.827954 148.119044 
L 629.278963 145.475643 
L 631.729971 144.703039 
L 634.18098 135.198698 
L 636.631988 132.129155 
L 641.534006 116.401887 
L 643.985014 109.424099 
L 646.436023 106.025789 
L 648.887032 107.654601 
L 651.33804 105.95595 
L 653.789049 102.916665 
L 656.240058 96.016795 
L 658.691066 100.686716 
L 661.142075 96.366762 
L 663.593084 93.860651 
L 666.044092 94.597989 
L 668.495101 88.622775 
L 670.94611 93.998822 
L 673.397118 96.522144 
L 675.848127 96.008304 
L 678.299135 93.827615 
L 680.750144 94.194212 
L 683.201153 99.798468 
L 685.652161 97.252425 
L 688.10317 101.43946 
L 690.554179 104.748873 
L 693.005187 106.289243 
L 695.456196 102.634008 
L 697.907205 102.265221 
L 700.358213 104.131498 
L 702.809222 107.045378 
L 705.260231 112.443579 
L 707.711239 107.349683 
L 710.162248 107.874405 
L 715.064265 106.015956 
L 717.515274 109.861146 
L 719.966282 117.938931 
L 722.417291 115.062561 
L 724.8683 114.372072 
L 727.319308 118.896167 
L 729.770317 118.348439 
L 732.221326 117.973306 
L 734.672334 121.424755 
L 737.123343 129.894221 
L 739.574352 127.357523 
L 742.02536 127.687048 
L 744.476369 134.792041 
L 746.927378 133.657316 
L 749.378386 128.441012 
L 751.829395 135.369084 
L 754.280403 140.720606 
L 756.731412 139.063337 
L 759.182421 138.169889 
L 761.633429 139.98529 
L 764.084438 142.80427 
L 766.535447 146.760121 
L 768.986455 147.268053 
L 771.437464 160.102156 
L 773.888473 150.386752 
L 776.339481 152.044485 
L 778.79049 156.117711 
L 781.241499 154.876748 
L 783.692507 154.642054 
L 786.143516 159.838798 
L 788.594524 162.534297 
L 793.496542 162.676936 
L 795.94755 163.108884 
L 798.398559 166.348229 
L 800.849568 169.186964 
L 803.300576 172.720527 
L 805.751585 178.588553 
L 808.202594 182.781656 
L 810.653602 193.423712 
L 813.104611 198.716948 
L 815.55562 200.682555 
L 818.006628 203.394514 
L 820.457637 213.083253 
L 822.908646 219.335362 
L 825.359654 225.136003 
L 827.810663 229.293812 
L 830.261671 227.931977 
L 832.71268 226.314992 
L 835.163689 221.246937 
L 837.614697 223.73279 
L 840.065706 223.714242 
L 842.516715 219.015236 
L 844.967723 221.568524 
L 847.418732 224.679571 
L 849.869741 219.480016 
L 852.320749 216.479411 
L 854.771758 214.033455 
L 857.222767 213.169207 
L 859.673775 212.999859 
L 862.124784 219.980937 
L 864.575793 224.195708 
L 867.026801 217.296293 
L 869.47781 214.967153 
L 871.928818 214.8828 
L 874.379827 218.013981 
L 876.830836 223.452074 
L 879.281844 224.006932 
L 881.732853 226.179305 
L 884.183862 227.738804 
L 886.63487 228.368658 
L 889.085879 239.869134 
L 891.536888 240.598097 
L 893.987896 241.137223 
L 896.438905 240.527264 
L 898.889914 233.081697 
L 901.340922 234.906707 
L 903.791931 237.554898 
L 906.242939 235.209978 
L 908.693948 232.56446 
L 911.144957 234.373899 
L 913.595965 244.713195 
L 916.046974 245.052406 
L 918.497983 240.331886 
L 920.948991 240.930287 
L 920.948991 240.930287 
" style="fill:none;stroke:#000080;stroke-linecap:square;stroke-width:3;"/>
   </g>
   <g id="line2d_53">
    <path clip-path="url(#p79d1780921)" d="M 77.802017 193.790809 
L 80.253026 196.990453 
L 82.704035 200.828106 
L 85.155043 208.948236 
L 87.606052 208.011903 
L 90.057061 210.587677 
L 92.508069 215.360451 
L 94.959078 217.501821 
L 97.410086 217.375243 
L 99.861095 219.652295 
L 102.312104 224.498777 
L 104.763112 229.026566 
L 107.214121 229.355688 
L 109.66513 231.20223 
L 112.116138 235.911615 
L 114.567147 234.399738 
L 117.018156 239.416968 
L 119.469164 242.505389 
L 121.920173 238.900658 
L 124.371182 241.735057 
L 129.273199 251.105829 
L 131.724207 245.122363 
L 134.175216 252.871277 
L 136.626225 249.808053 
L 139.077233 249.609251 
L 141.528242 244.9462 
L 146.430259 242.423693 
L 148.881268 244.07396 
L 151.332277 245.889445 
L 153.783285 249.460086 
L 156.234294 246.475113 
L 158.685303 244.625207 
L 161.136311 247.917938 
L 163.58732 243.368936 
L 166.038329 244.043187 
L 168.489337 245.259344 
L 170.940346 239.436596 
L 173.391354 243.941335 
L 175.842363 247.134073 
L 178.293372 244.921703 
L 180.74438 247.271764 
L 183.195389 246.715814 
L 185.646398 247.060086 
L 188.097406 243.896812 
L 190.548415 234.687921 
L 192.999424 226.228382 
L 195.450432 222.320697 
L 197.901441 219.746695 
L 200.35245 217.726522 
L 202.803458 218.853186 
L 205.254467 217.7291 
L 207.705476 210.964469 
L 210.156484 212.7733 
L 215.058501 209.055205 
L 217.50951 205.929265 
L 219.960519 204.933237 
L 222.411527 210.238591 
L 224.862536 214.686391 
L 227.313545 207.861502 
L 229.764553 218.451563 
L 232.215562 217.053274 
L 234.666571 213.663062 
L 237.117579 215.518859 
L 239.568588 211.850947 
L 242.019597 209.896818 
L 244.470605 212.403069 
L 246.921614 219.161013 
L 249.372622 222.856084 
L 251.823631 218.666748 
L 254.27464 218.439722 
L 256.725648 220.959651 
L 259.176657 219.911706 
L 261.627666 221.340191 
L 264.078674 213.998704 
L 266.529683 220.412529 
L 268.980692 219.282066 
L 271.4317 220.326239 
L 273.882709 223.75378 
L 276.333718 229.696511 
L 278.784726 230.546772 
L 281.235735 232.507993 
L 283.686744 225.740219 
L 286.137752 225.668804 
L 288.588761 226.297338 
L 291.039769 228.058327 
L 293.490778 229.667223 
L 295.941787 228.91108 
L 298.392795 231.628605 
L 300.843804 235.784819 
L 303.294813 233.281421 
L 305.745821 228.344143 
L 308.19683 229.845074 
L 310.647839 230.146021 
L 313.098847 228.085335 
L 315.549856 230.675676 
L 318.000865 230.245095 
L 320.451873 230.778655 
L 322.902882 229.245252 
L 325.35389 224.401382 
L 327.804899 212.10212 
L 330.255908 210.411333 
L 332.706916 206.860253 
L 335.157925 202.074355 
L 337.608934 198.527793 
L 340.059942 199.465241 
L 342.510951 204.080204 
L 344.96196 200.124672 
L 347.412968 197.498691 
L 349.863977 196.682805 
L 352.314986 194.642803 
L 354.765994 195.659248 
L 357.217003 195.561921 
L 359.668012 196.183239 
L 362.11902 194.818175 
L 364.570029 194.794937 
L 367.021037 193.800148 
L 369.472046 193.32686 
L 371.923055 195.252835 
L 374.374063 196.73262 
L 376.825072 202.571832 
L 379.276081 201.441034 
L 381.727089 209.799585 
L 384.178098 209.13203 
L 386.629107 208.157074 
L 389.080115 208.540349 
L 391.531124 204.482031 
L 393.982133 204.249287 
L 396.433141 196.336523 
L 401.335159 190.512574 
L 403.786167 191.556889 
L 406.237176 193.232501 
L 408.688184 194.199415 
L 411.139193 189.28396 
L 413.590202 187.764253 
L 416.04121 179.190755 
L 418.492219 181.482453 
L 420.943228 184.299588 
L 423.394236 184.768252 
L 425.845245 191.966535 
L 428.296254 188.369419 
L 430.747262 191.183421 
L 433.198271 190.34589 
L 435.64928 186.870177 
L 438.100288 187.790545 
L 440.551297 187.553051 
L 443.002305 189.347867 
L 445.453314 190.165625 
L 447.904323 193.175076 
L 450.355331 194.640964 
L 452.80634 198.42969 
L 455.257349 194.039673 
L 457.708357 195.670867 
L 460.159366 196.238123 
L 462.610375 195.245386 
L 465.061383 198.836785 
L 467.512392 192.342796 
L 469.963401 198.516873 
L 472.414409 200.363181 
L 474.865418 199.68991 
L 477.316427 197.596936 
L 479.767435 196.635916 
L 482.218444 201.263929 
L 484.669452 200.37598 
L 487.120461 205.303906 
L 489.57147 201.317215 
L 492.022478 205.782237 
L 494.473487 205.948942 
L 496.924496 206.817103 
L 499.375504 204.578296 
L 501.826513 206.298359 
L 504.277522 208.785523 
L 506.72853 204.606514 
L 509.179539 203.733735 
L 511.630548 204.942424 
L 514.081556 208.349986 
L 516.532565 207.952604 
L 518.983573 210.060816 
L 521.434582 205.646292 
L 523.885591 203.462237 
L 526.336599 207.394394 
L 528.787608 204.849401 
L 531.238617 203.708566 
L 533.689625 203.81434 
L 536.140634 204.068217 
L 538.591643 205.115934 
L 541.042651 202.837115 
L 543.49366 201.653666 
L 545.944669 202.299482 
L 548.395677 201.910219 
L 553.297695 197.259765 
L 555.748703 193.185857 
L 558.199712 193.533936 
L 560.65072 190.896513 
L 563.101729 195.199022 
L 565.552738 194.83467 
L 568.003746 192.975713 
L 570.454755 189.765931 
L 572.905764 186.921533 
L 575.356772 187.56879 
L 577.807781 189.29985 
L 580.25879 200.008981 
L 582.709798 203.406898 
L 585.160807 202.978031 
L 587.611816 208.816477 
L 590.062824 212.897051 
L 592.513833 212.994733 
L 594.964841 217.256093 
L 597.41585 214.090895 
L 599.866859 217.657516 
L 602.317867 219.062281 
L 604.768876 225.012534 
L 607.219885 224.137453 
L 609.670893 228.185403 
L 612.121902 226.165549 
L 614.572911 228.146536 
L 617.023919 228.881131 
L 619.474928 231.230823 
L 624.376945 232.105354 
L 626.827954 238.362894 
L 629.278963 237.819334 
L 631.729971 236.061926 
L 634.18098 234.557906 
L 636.631988 238.788072 
L 639.082997 233.579687 
L 641.534006 232.539806 
L 643.985014 234.824682 
L 646.436023 237.811108 
L 648.887032 235.908859 
L 651.33804 242.586316 
L 653.789049 243.443556 
L 656.240058 245.422423 
L 658.691066 251.553142 
L 661.142075 244.190037 
L 663.593084 241.774118 
L 666.044092 235.520841 
L 668.495101 229.98495 
L 670.94611 234.324523 
L 673.397118 240.961533 
L 675.848127 241.295073 
L 678.299135 238.159557 
L 680.750144 241.007435 
L 683.201153 242.229084 
L 685.652161 237.763164 
L 688.10317 241.969639 
L 693.005187 243.292994 
L 695.456196 246.152387 
L 697.907205 245.902071 
L 700.358213 246.94258 
L 702.809222 248.284843 
L 705.260231 246.322686 
L 707.711239 246.300623 
L 710.162248 242.874734 
L 712.613256 248.827902 
L 715.064265 249.545944 
L 717.515274 250.631306 
L 719.966282 255.523624 
L 722.417291 257.248712 
L 724.8683 260.409691 
L 727.319308 262.989617 
L 729.770317 261.777306 
L 732.221326 262.232306 
L 734.672334 264.444908 
L 737.123343 262.20795 
L 739.574352 260.990355 
L 742.02536 257.908943 
L 744.476369 258.393042 
L 746.927378 258.207258 
L 749.378386 264.987931 
L 751.829395 267.523205 
L 754.280403 270.362526 
L 756.731412 268.863239 
L 759.182421 270.629773 
L 761.633429 268.921855 
L 764.084438 271.912753 
L 766.535447 271.754931 
L 768.986455 273.545022 
L 771.437464 280.86958 
L 773.888473 283.066238 
L 776.339481 286.489305 
L 778.79049 283.91386 
L 781.241499 286.424843 
L 783.692507 281.571178 
L 786.143516 291.895288 
L 788.594524 291.151588 
L 791.045533 292.230954 
L 793.496542 292.306194 
L 795.94755 293.923675 
L 798.398559 296.19351 
L 800.849568 292.21709 
L 803.300576 292.740285 
L 805.751585 293.544336 
L 808.202594 286.99255 
L 810.653602 285.648602 
L 813.104611 283.914393 
L 815.55562 281.179563 
L 818.006628 276.162398 
L 820.457637 276.564979 
L 822.908646 275.365788 
L 825.359654 272.171865 
L 827.810663 279.631155 
L 830.261671 278.230665 
L 832.71268 279.234378 
L 835.163689 278.435919 
L 837.614697 277.10203 
L 840.065706 274.156381 
L 842.516715 275.434583 
L 847.418732 287.182731 
L 849.869741 288.217018 
L 852.320749 290.663883 
L 854.771758 291.627022 
L 857.222767 292.264274 
L 859.673775 296.306518 
L 862.124784 295.225076 
L 864.575793 291.110618 
L 867.026801 292.653265 
L 869.47781 293.293736 
L 871.928818 292.732156 
L 874.379827 293.750293 
L 876.830836 298.827128 
L 879.281844 294.2327 
L 881.732853 291.166845 
L 884.183862 291.322094 
L 886.63487 286.083174 
L 889.085879 289.2952 
L 891.536888 289.527442 
L 893.987896 290.921026 
L 896.438905 291.304119 
L 898.889914 288.8392 
L 903.791931 296.396702 
L 906.242939 301.427265 
L 908.693948 298.085447 
L 911.144957 297.705228 
L 913.595965 297.895192 
L 916.046974 298.403916 
L 918.497983 295.352184 
L 920.948991 295.806119 
L 920.948991 295.806119 
" style="fill:none;stroke:#ffa500;stroke-linecap:square;stroke-width:3;"/>
   </g>
   <g id="line2d_54">
    <path clip-path="url(#p79d1780921)" d="M 77.802017 195.157535 
L 80.253026 195.512168 
L 82.704035 196.915344 
L 87.606052 198.630174 
L 92.508069 202.06558 
L 97.410086 205.991482 
L 104.763112 213.228631 
L 109.66513 219.413633 
L 112.116138 221.409963 
L 114.567147 224.338255 
L 119.469164 228.531309 
L 121.920173 230.691727 
L 124.371182 232.078434 
L 126.82219 233.771185 
L 129.273199 235.248608 
L 131.724207 237.618896 
L 134.175216 239.245236 
L 136.626225 241.523759 
L 143.979251 246.074864 
L 146.430259 247.809752 
L 153.783285 251.956964 
L 156.234294 252.75377 
L 161.136311 253.707995 
L 168.489337 253.843054 
L 170.940346 253.521721 
L 173.391354 252.995161 
L 175.842363 252.592372 
L 178.293372 251.966103 
L 180.74438 251.132632 
L 183.195389 250.561713 
L 185.646398 249.830682 
L 188.097406 248.659306 
L 200.35245 241.886702 
L 202.803458 239.832826 
L 207.705476 236.826747 
L 210.156484 235.042052 
L 212.607493 232.959807 
L 219.960519 225.627188 
L 222.411527 224.198711 
L 224.862536 222.152062 
L 227.313545 220.272703 
L 229.764553 218.94861 
L 232.215562 217.985237 
L 239.568588 215.686553 
L 242.019597 215.327445 
L 244.470605 214.629686 
L 246.921614 214.190727 
L 249.372622 213.635817 
L 251.823631 213.402427 
L 256.725648 211.690015 
L 259.176657 211.049067 
L 261.627666 210.685506 
L 266.529683 209.287762 
L 268.980692 207.727356 
L 271.4317 206.508471 
L 273.882709 204.876169 
L 276.333718 204.364472 
L 283.686744 201.888451 
L 286.137752 200.647054 
L 288.588761 199.693777 
L 291.039769 198.172235 
L 293.490778 197.362517 
L 295.941787 195.910619 
L 298.392795 194.836498 
L 300.843804 194.099879 
L 303.294813 193.188232 
L 305.745821 191.791451 
L 313.098847 189.267406 
L 315.549856 188.853008 
L 318.000865 187.10855 
L 320.451873 185.830799 
L 322.902882 184.407581 
L 325.35389 183.541131 
L 327.804899 182.527109 
L 332.706916 181.054263 
L 335.157925 180.073526 
L 337.608934 179.480109 
L 340.059942 178.456247 
L 342.510951 177.834512 
L 344.96196 176.207631 
L 347.412968 175.898457 
L 349.863977 175.439262 
L 354.765994 174.10155 
L 357.217003 172.98208 
L 359.668012 171.594222 
L 362.11902 170.727828 
L 367.021037 167.832193 
L 369.472046 166.012705 
L 371.923055 165.380417 
L 374.374063 164.877469 
L 376.825072 163.583288 
L 379.276081 163.475928 
L 381.727089 163.108243 
L 384.178098 162.905415 
L 386.629107 163.148351 
L 389.080115 163.002505 
L 393.982133 161.135186 
L 396.433141 160.529857 
L 398.88415 160.695185 
L 401.335159 161.412313 
L 403.786167 162.346042 
L 406.237176 163.700764 
L 408.688184 164.56355 
L 413.590202 167.515493 
L 416.04121 169.603698 
L 418.492219 171.216844 
L 420.943228 173.854261 
L 423.394236 177.135224 
L 425.845245 180.093968 
L 428.296254 183.784628 
L 430.747262 186.161785 
L 433.198271 188.092784 
L 435.64928 190.600629 
L 438.100288 192.574364 
L 443.002305 197.287627 
L 445.453314 198.989095 
L 447.904323 200.004144 
L 450.355331 201.560085 
L 455.257349 205.766737 
L 457.708357 207.374952 
L 467.512392 213.127375 
L 469.963401 214.334799 
L 472.414409 215.345586 
L 474.865418 216.601088 
L 477.316427 217.713443 
L 479.767435 217.917076 
L 482.218444 217.743008 
L 484.669452 216.972665 
L 487.120461 215.901577 
L 489.57147 215.235342 
L 492.022478 215.067054 
L 496.924496 213.535103 
L 499.375504 212.725548 
L 501.826513 211.760358 
L 504.277522 211.242626 
L 509.179539 209.536918 
L 511.630548 208.316132 
L 514.081556 207.334512 
L 518.983573 205.845499 
L 521.434582 204.765241 
L 523.885591 203.345241 
L 526.336599 202.21424 
L 531.238617 200.849607 
L 533.689625 199.448923 
L 536.140634 199.10362 
L 538.591643 198.552737 
L 541.042651 197.386747 
L 543.49366 196.507568 
L 545.944669 194.827318 
L 550.846686 192.700712 
L 553.297695 192.081336 
L 555.748703 191.148095 
L 558.199712 189.977962 
L 560.65072 189.28867 
L 563.101729 188.276078 
L 565.552738 187.082616 
L 568.003746 186.329549 
L 570.454755 185.718214 
L 572.905764 184.804904 
L 575.356772 184.559966 
L 577.807781 183.980643 
L 580.25879 182.826471 
L 582.709798 182.260788 
L 585.160807 181.47721 
L 587.611816 181.578229 
L 590.062824 182.006024 
L 592.513833 182.045238 
L 594.964841 182.327609 
L 597.41585 182.862243 
L 599.866859 183.074063 
L 604.768876 183.894148 
L 607.219885 184.756344 
L 612.121902 187.174435 
L 614.572911 189.186764 
L 617.023919 191.612273 
L 619.474928 193.834858 
L 621.925937 197.286278 
L 624.376945 200.359698 
L 626.827954 203.95928 
L 629.278963 209.19774 
L 631.729971 216.012028 
L 634.18098 223.353141 
L 636.631988 231.073379 
L 639.082997 239.709372 
L 641.534006 246.664329 
L 643.985014 254.150172 
L 646.436023 260.613683 
L 651.33804 272.434231 
L 656.240058 283.323671 
L 661.142075 291.884983 
L 663.593084 295.059155 
L 666.044092 297.955292 
L 668.495101 300.006026 
L 670.94611 301.167398 
L 678.299135 304.152999 
L 683.201153 306.400349 
L 685.652161 307.168718 
L 688.10317 308.673446 
L 690.554179 309.253536 
L 693.005187 309.408633 
L 695.456196 309.076719 
L 697.907205 308.474645 
L 702.809222 308.324201 
L 705.260231 307.81025 
L 707.711239 307.155003 
L 710.162248 305.991464 
L 712.613256 305.890252 
L 715.064265 305.188838 
L 717.515274 304.022144 
L 719.966282 302.540892 
L 727.319308 296.835395 
L 732.221326 293.537083 
L 734.672334 292.177672 
L 737.123343 291.241723 
L 739.574352 290.619201 
L 742.02536 289.070685 
L 744.476369 287.04726 
L 746.927378 285.439494 
L 749.378386 284.932224 
L 751.829395 284.596839 
L 756.731412 281.810421 
L 759.182421 280.579542 
L 761.633429 278.94075 
L 764.084438 277.69566 
L 766.535447 275.920478 
L 771.437464 273.0116 
L 773.888473 272.777985 
L 776.339481 270.88087 
L 778.79049 268.264635 
L 781.241499 265.995765 
L 783.692507 263.394015 
L 786.143516 261.174297 
L 788.594524 258.474799 
L 791.045533 256.353413 
L 793.496542 254.022455 
L 795.94755 252.241436 
L 798.398559 250.654842 
L 800.849568 248.034662 
L 803.300576 244.724641 
L 805.751585 242.384732 
L 808.202594 239.504334 
L 810.653602 237.283692 
L 815.55562 233.08953 
L 818.006628 230.915388 
L 820.457637 228.987328 
L 822.908646 226.643352 
L 825.359654 224.684188 
L 827.810663 222.271052 
L 835.163689 216.177937 
L 840.065706 212.162082 
L 842.516715 210.464519 
L 844.967723 209.402564 
L 847.418732 208.869898 
L 859.673775 204.006451 
L 862.124784 202.735458 
L 864.575793 201.615301 
L 867.026801 200.704601 
L 869.47781 199.602609 
L 871.928818 198.16886 
L 876.830836 194.994269 
L 879.281844 193.26627 
L 881.732853 192.094847 
L 884.183862 190.357363 
L 886.63487 189.376626 
L 889.085879 187.868829 
L 891.536888 186.159739 
L 896.438905 183.508239 
L 898.889914 182.306752 
L 901.340922 180.810631 
L 906.242939 178.679332 
L 908.693948 177.131545 
L 913.595965 174.997501 
L 918.497983 172.902229 
L 920.948991 171.670008 
L 920.948991 171.670008 
" style="fill:none;stroke:#800000;stroke-linecap:square;stroke-width:3;"/>
   </g>
   <g id="line2d_55">
    <path clip-path="url(#p79d1780921)" d="M 72.9 195.196922 
L 923.4 195.196922 
" style="fill:none;stroke:#000000;stroke-linecap:square;stroke-width:2;"/>
   </g>
   <g id="patch_3">
    <path d="M 72.9 388.8 
L 923.4 388.8 
" style="fill:none;stroke:#000000;stroke-linecap:square;stroke-linejoin:miter;stroke-width:0.8;"/>
   </g>
   <g id="text_15">
    <!-- Monthly observations; seasonally adjusted; Percentage point change since March 1993; Total -->
    <defs>
     <path d="M 9.8125 72.90625 
L 24.515625 72.90625 
L 43.109375 23.296875 
L 61.8125 72.90625 
L 76.515625 72.90625 
L 76.515625 0 
L 66.890625 0 
L 66.890625 64.015625 
L 48.09375 14.015625 
L 38.1875 14.015625 
L 19.390625 64.015625 
L 19.390625 0 
L 9.8125 0 
z
" id="DejaVuSans-4d"/>
     <path d="M 54.890625 33.015625 
L 54.890625 0 
L 45.90625 0 
L 45.90625 32.71875 
Q 45.90625 40.484375 42.875 44.328125 
Q 39.84375 48.1875 33.796875 48.1875 
Q 26.515625 48.1875 22.3125 43.546875 
Q 18.109375 38.921875 18.109375 30.90625 
L 18.109375 0 
L 9.078125 0 
L 9.078125 75.984375 
L 18.109375 75.984375 
L 18.109375 46.1875 
Q 21.34375 51.125 25.703125 53.5625 
Q 30.078125 56 35.796875 56 
Q 45.21875 56 50.046875 50.171875 
Q 54.890625 44.34375 54.890625 33.015625 
z
" id="DejaVuSans-68"/>
     <path d="M 9.421875 75.984375 
L 18.40625 75.984375 
L 18.40625 0 
L 9.421875 0 
z
" id="DejaVuSans-6c"/>
     <path d="M 32.171875 -5.078125 
Q 28.375 -14.84375 24.75 -17.8125 
Q 21.140625 -20.796875 15.09375 -20.796875 
L 7.90625 -20.796875 
L 7.90625 -13.28125 
L 13.1875 -13.28125 
Q 16.890625 -13.28125 18.9375 -11.515625 
Q 21 -9.765625 23.484375 -3.21875 
L 25.09375 0.875 
L 2.984375 54.6875 
L 12.5 54.6875 
L 29.59375 11.921875 
L 46.6875 54.6875 
L 56.203125 54.6875 
z
" id="DejaVuSans-79"/>
     <path d="M 48.6875 27.296875 
Q 48.6875 37.203125 44.609375 42.84375 
Q 40.53125 48.484375 33.40625 48.484375 
Q 26.265625 48.484375 22.1875 42.84375 
Q 18.109375 37.203125 18.109375 27.296875 
Q 18.109375 17.390625 22.1875 11.75 
Q 26.265625 6.109375 33.40625 6.109375 
Q 40.53125 6.109375 44.609375 11.75 
Q 48.6875 17.390625 48.6875 27.296875 
z
M 18.109375 46.390625 
Q 20.953125 51.265625 25.265625 53.625 
Q 29.59375 56 35.59375 56 
Q 45.5625 56 51.78125 48.09375 
Q 58.015625 40.1875 58.015625 27.296875 
Q 58.015625 14.40625 51.78125 6.484375 
Q 45.5625 -1.421875 35.59375 -1.421875 
Q 29.59375 -1.421875 25.265625 0.953125 
Q 20.953125 3.328125 18.109375 8.203125 
L 18.109375 0 
L 9.078125 0 
L 9.078125 75.984375 
L 18.109375 75.984375 
z
" id="DejaVuSans-62"/>
     <path d="M 44.28125 53.078125 
L 44.28125 44.578125 
Q 40.484375 46.53125 36.375 47.5 
Q 32.28125 48.484375 27.875 48.484375 
Q 21.1875 48.484375 17.84375 46.4375 
Q 14.5 44.390625 14.5 40.28125 
Q 14.5 37.15625 16.890625 35.375 
Q 19.28125 33.59375 26.515625 31.984375 
L 29.59375 31.296875 
Q 39.15625 29.25 43.1875 25.515625 
Q 47.21875 21.78125 47.21875 15.09375 
Q 47.21875 7.46875 41.1875 3.015625 
Q 35.15625 -1.421875 24.609375 -1.421875 
Q 20.21875 -1.421875 15.453125 -0.5625 
Q 10.6875 0.296875 5.421875 2 
L 5.421875 11.28125 
Q 10.40625 8.6875 15.234375 7.390625 
Q 20.0625 6.109375 24.8125 6.109375 
Q 31.15625 6.109375 34.5625 8.28125 
Q 37.984375 10.453125 37.984375 14.40625 
Q 37.984375 18.0625 35.515625 20.015625 
Q 33.0625 21.96875 24.703125 23.78125 
L 21.578125 24.515625 
Q 13.234375 26.265625 9.515625 29.90625 
Q 5.8125 33.546875 5.8125 39.890625 
Q 5.8125 47.609375 11.28125 51.796875 
Q 16.75 56 26.8125 56 
Q 31.78125 56 36.171875 55.265625 
Q 40.578125 54.546875 44.28125 53.078125 
z
" id="DejaVuSans-73"/>
     <path d="M 2.984375 54.6875 
L 12.5 54.6875 
L 29.59375 8.796875 
L 46.6875 54.6875 
L 56.203125 54.6875 
L 35.6875 0 
L 23.484375 0 
z
" id="DejaVuSans-76"/>
     <path d="M 11.71875 51.703125 
L 22.015625 51.703125 
L 22.015625 39.3125 
L 11.71875 39.3125 
z
M 11.71875 12.40625 
L 22.015625 12.40625 
L 22.015625 4 
L 14.015625 -11.625 
L 7.71875 -11.625 
L 11.71875 4 
z
" id="DejaVuSans-3b"/>
     <path d="M 45.40625 46.390625 
L 45.40625 75.984375 
L 54.390625 75.984375 
L 54.390625 0 
L 45.40625 0 
L 45.40625 8.203125 
Q 42.578125 3.328125 38.25 0.953125 
Q 33.9375 -1.421875 27.875 -1.421875 
Q 17.96875 -1.421875 11.734375 6.484375 
Q 5.515625 14.40625 5.515625 27.296875 
Q 5.515625 40.1875 11.734375 48.09375 
Q 17.96875 56 27.875 56 
Q 33.9375 56 38.25 53.625 
Q 42.578125 51.265625 45.40625 46.390625 
z
M 14.796875 27.296875 
Q 14.796875 17.390625 18.875 11.75 
Q 22.953125 6.109375 30.078125 6.109375 
Q 37.203125 6.109375 41.296875 11.75 
Q 45.40625 17.390625 45.40625 27.296875 
Q 45.40625 37.203125 41.296875 42.84375 
Q 37.203125 48.484375 30.078125 48.484375 
Q 22.953125 48.484375 18.875 42.84375 
Q 14.796875 37.203125 14.796875 27.296875 
z
" id="DejaVuSans-64"/>
     <path d="M 9.421875 54.6875 
L 18.40625 54.6875 
L 18.40625 -0.984375 
Q 18.40625 -11.421875 14.421875 -16.109375 
Q 10.453125 -20.796875 1.609375 -20.796875 
L -1.8125 -20.796875 
L -1.8125 -13.1875 
L 0.59375 -13.1875 
Q 5.71875 -13.1875 7.5625 -10.8125 
Q 9.421875 -8.453125 9.421875 -0.984375 
z
M 9.421875 75.984375 
L 18.40625 75.984375 
L 18.40625 64.59375 
L 9.421875 64.59375 
z
" id="DejaVuSans-6a"/>
     <path d="M 8.5 21.578125 
L 8.5 54.6875 
L 17.484375 54.6875 
L 17.484375 21.921875 
Q 17.484375 14.15625 20.5 10.265625 
Q 23.53125 6.390625 29.59375 6.390625 
Q 36.859375 6.390625 41.078125 11.03125 
Q 45.3125 15.671875 45.3125 23.6875 
L 45.3125 54.6875 
L 54.296875 54.6875 
L 54.296875 0 
L 45.3125 0 
L 45.3125 8.40625 
Q 42.046875 3.421875 37.71875 1 
Q 33.40625 -1.421875 27.6875 -1.421875 
Q 18.265625 -1.421875 13.375 4.4375 
Q 8.5 10.296875 8.5 21.578125 
z
M 31.109375 56 
z
" id="DejaVuSans-75"/>
     <path d="M -0.296875 72.90625 
L 61.375 72.90625 
L 61.375 64.59375 
L 35.5 64.59375 
L 35.5 0 
L 25.59375 0 
L 25.59375 64.59375 
L -0.296875 64.59375 
z
" id="DejaVuSans-54"/>
    </defs>
    <g transform="translate(72.9 45.84)scale(0.14 -0.14)">
     <use xlink:href="#DejaVuSans-4d"/>
     <use x="86.279297" xlink:href="#DejaVuSans-6f"/>
     <use x="147.460938" xlink:href="#DejaVuSans-6e"/>
     <use x="210.839844" xlink:href="#DejaVuSans-74"/>
     <use x="250.048828" xlink:href="#DejaVuSans-68"/>
     <use x="313.427734" xlink:href="#DejaVuSans-6c"/>
     <use x="341.210938" xlink:href="#DejaVuSans-79"/>
     <use x="400.390625" xlink:href="#DejaVuSans-20"/>
     <use x="432.177734" xlink:href="#DejaVuSans-6f"/>
     <use x="493.359375" xlink:href="#DejaVuSans-62"/>
     <use x="556.835938" xlink:href="#DejaVuSans-73"/>
     <use x="608.935547" xlink:href="#DejaVuSans-65"/>
     <use x="670.458984" xlink:href="#DejaVuSans-72"/>
     <use x="711.572266" xlink:href="#DejaVuSans-76"/>
     <use x="770.751953" xlink:href="#DejaVuSans-61"/>
     <use x="832.03125" xlink:href="#DejaVuSans-74"/>
     <use x="871.240234" xlink:href="#DejaVuSans-69"/>
     <use x="899.023438" xlink:href="#DejaVuSans-6f"/>
     <use x="960.205078" xlink:href="#DejaVuSans-6e"/>
     <use x="1023.583984" xlink:href="#DejaVuSans-73"/>
     <use x="1075.683594" xlink:href="#DejaVuSans-3b"/>
     <use x="1109.375" xlink:href="#DejaVuSans-20"/>
     <use x="1141.162109" xlink:href="#DejaVuSans-73"/>
     <use x="1193.261719" xlink:href="#DejaVuSans-65"/>
     <use x="1254.785156" xlink:href="#DejaVuSans-61"/>
     <use x="1316.064453" xlink:href="#DejaVuSans-73"/>
     <use x="1368.164062" xlink:href="#DejaVuSans-6f"/>
     <use x="1429.345703" xlink:href="#DejaVuSans-6e"/>
     <use x="1492.724609" xlink:href="#DejaVuSans-61"/>
     <use x="1554.003906" xlink:href="#DejaVuSans-6c"/>
     <use x="1581.787109" xlink:href="#DejaVuSans-6c"/>
     <use x="1609.570312" xlink:href="#DejaVuSans-79"/>
     <use x="1668.75" xlink:href="#DejaVuSans-20"/>
     <use x="1700.537109" xlink:href="#DejaVuSans-61"/>
     <use x="1761.816406" xlink:href="#DejaVuSans-64"/>
     <use x="1825.292969" xlink:href="#DejaVuSans-6a"/>
     <use x="1853.076172" xlink:href="#DejaVuSans-75"/>
     <use x="1916.455078" xlink:href="#DejaVuSans-73"/>
     <use x="1968.554688" xlink:href="#DejaVuSans-74"/>
     <use x="2007.763672" xlink:href="#DejaVuSans-65"/>
     <use x="2069.287109" xlink:href="#DejaVuSans-64"/>
     <use x="2132.763672" xlink:href="#DejaVuSans-3b"/>
     <use x="2166.455078" xlink:href="#DejaVuSans-20"/>
     <use x="2198.242188" xlink:href="#DejaVuSans-50"/>
     <use x="2258.498047" xlink:href="#DejaVuSans-65"/>
     <use x="2320.021484" xlink:href="#DejaVuSans-72"/>
     <use x="2361.103516" xlink:href="#DejaVuSans-63"/>
     <use x="2416.083984" xlink:href="#DejaVuSans-65"/>
     <use x="2477.607422" xlink:href="#DejaVuSans-6e"/>
     <use x="2540.986328" xlink:href="#DejaVuSans-74"/>
     <use x="2580.195312" xlink:href="#DejaVuSans-61"/>
     <use x="2641.474609" xlink:href="#DejaVuSans-67"/>
     <use x="2704.951172" xlink:href="#DejaVuSans-65"/>
     <use x="2766.474609" xlink:href="#DejaVuSans-20"/>
     <use x="2798.261719" xlink:href="#DejaVuSans-70"/>
     <use x="2861.738281" xlink:href="#DejaVuSans-6f"/>
     <use x="2922.919922" xlink:href="#DejaVuSans-69"/>
     <use x="2950.703125" xlink:href="#DejaVuSans-6e"/>
     <use x="3014.082031" xlink:href="#DejaVuSans-74"/>
     <use x="3053.291016" xlink:href="#DejaVuSans-20"/>
     <use x="3085.078125" xlink:href="#DejaVuSans-63"/>
     <use x="3140.058594" xlink:href="#DejaVuSans-68"/>
     <use x="3203.4375" xlink:href="#DejaVuSans-61"/>
     <use x="3264.716797" xlink:href="#DejaVuSans-6e"/>
     <use x="3328.095703" xlink:href="#DejaVuSans-67"/>
     <use x="3391.572266" xlink:href="#DejaVuSans-65"/>
     <use x="3453.095703" xlink:href="#DejaVuSans-20"/>
     <use x="3484.882812" xlink:href="#DejaVuSans-73"/>
     <use x="3536.982422" xlink:href="#DejaVuSans-69"/>
     <use x="3564.765625" xlink:href="#DejaVuSans-6e"/>
     <use x="3628.144531" xlink:href="#DejaVuSans-63"/>
     <use x="3683.125" xlink:href="#DejaVuSans-65"/>
     <use x="3744.648438" xlink:href="#DejaVuSans-20"/>
     <use x="3776.435547" xlink:href="#DejaVuSans-4d"/>
     <use x="3862.714844" xlink:href="#DejaVuSans-61"/>
     <use x="3923.994141" xlink:href="#DejaVuSans-72"/>
     <use x="3965.076172" xlink:href="#DejaVuSans-63"/>
     <use x="4020.056641" xlink:href="#DejaVuSans-68"/>
     <use x="4083.435547" xlink:href="#DejaVuSans-20"/>
     <use x="4115.222656" xlink:href="#DejaVuSans-31"/>
     <use x="4178.845703" xlink:href="#DejaVuSans-39"/>
     <use x="4242.46875" xlink:href="#DejaVuSans-39"/>
     <use x="4306.091797" xlink:href="#DejaVuSans-33"/>
     <use x="4369.714844" xlink:href="#DejaVuSans-3b"/>
     <use x="4403.40625" xlink:href="#DejaVuSans-20"/>
     <use x="4435.193359" xlink:href="#DejaVuSans-54"/>
     <use x="4496.011719" xlink:href="#DejaVuSans-6f"/>
     <use x="4557.193359" xlink:href="#DejaVuSans-74"/>
     <use x="4596.402344" xlink:href="#DejaVuSans-61"/>
     <use x="4657.681641" xlink:href="#DejaVuSans-6c"/>
    </g>
   </g>
   <g id="legend_1">
    <g id="patch_4">
     <path d="M 782.926875 131.895 
L 915 131.895 
Q 917.4 131.895 917.4 129.495 
L 917.4 60.24 
Q 917.4 57.84 915 57.84 
L 782.926875 57.84 
Q 780.526875 57.84 780.526875 60.24 
L 780.526875 129.495 
Q 780.526875 131.895 782.926875 131.895 
z
" style="fill:#ffffff;opacity:0.8;stroke:#cccccc;stroke-linejoin:miter;"/>
    </g>
    <g id="line2d_56">
     <path d="M 785.326875 67.558125 
L 809.326875 67.558125 
" style="fill:none;stroke:#000000;stroke-linecap:square;stroke-width:3;"/>
    </g>
    <g id="line2d_57"/>
    <g id="text_16">
     <!-- Change in LFPR -->
     <defs>
      <path d="M 64.40625 67.28125 
L 64.40625 56.890625 
Q 59.421875 61.53125 53.78125 63.8125 
Q 48.140625 66.109375 41.796875 66.109375 
Q 29.296875 66.109375 22.65625 58.46875 
Q 16.015625 50.828125 16.015625 36.375 
Q 16.015625 21.96875 22.65625 14.328125 
Q 29.296875 6.6875 41.796875 6.6875 
Q 48.140625 6.6875 53.78125 8.984375 
Q 59.421875 11.28125 64.40625 15.921875 
L 64.40625 5.609375 
Q 59.234375 2.09375 53.4375 0.328125 
Q 47.65625 -1.421875 41.21875 -1.421875 
Q 24.65625 -1.421875 15.125 8.703125 
Q 5.609375 18.84375 5.609375 36.375 
Q 5.609375 53.953125 15.125 64.078125 
Q 24.65625 74.21875 41.21875 74.21875 
Q 47.75 74.21875 53.53125 72.484375 
Q 59.328125 70.75 64.40625 67.28125 
z
" id="DejaVuSans-43"/>
      <path d="M 9.8125 72.90625 
L 19.671875 72.90625 
L 19.671875 8.296875 
L 55.171875 8.296875 
L 55.171875 0 
L 9.8125 0 
z
" id="DejaVuSans-4c"/>
      <path d="M 9.8125 72.90625 
L 51.703125 72.90625 
L 51.703125 64.59375 
L 19.671875 64.59375 
L 19.671875 43.109375 
L 48.578125 43.109375 
L 48.578125 34.8125 
L 19.671875 34.8125 
L 19.671875 0 
L 9.8125 0 
z
" id="DejaVuSans-46"/>
      <path d="M 44.390625 34.1875 
Q 47.5625 33.109375 50.5625 29.59375 
Q 53.5625 26.078125 56.59375 19.921875 
L 66.609375 0 
L 56 0 
L 46.6875 18.703125 
Q 43.0625 26.03125 39.671875 28.421875 
Q 36.28125 30.8125 30.421875 30.8125 
L 19.671875 30.8125 
L 19.671875 0 
L 9.8125 0 
L 9.8125 72.90625 
L 32.078125 72.90625 
Q 44.578125 72.90625 50.734375 67.671875 
Q 56.890625 62.453125 56.890625 51.90625 
Q 56.890625 45.015625 53.6875 40.46875 
Q 50.484375 35.9375 44.390625 34.1875 
z
M 19.671875 64.796875 
L 19.671875 38.921875 
L 32.078125 38.921875 
Q 39.203125 38.921875 42.84375 42.21875 
Q 46.484375 45.515625 46.484375 51.90625 
Q 46.484375 58.296875 42.84375 61.546875 
Q 39.203125 64.796875 32.078125 64.796875 
z
" id="DejaVuSans-52"/>
     </defs>
     <g transform="translate(818.926875 71.758125)scale(0.12 -0.12)">
      <use xlink:href="#DejaVuSans-43"/>
      <use x="69.824219" xlink:href="#DejaVuSans-68"/>
      <use x="133.203125" xlink:href="#DejaVuSans-61"/>
      <use x="194.482422" xlink:href="#DejaVuSans-6e"/>
      <use x="257.861328" xlink:href="#DejaVuSans-67"/>
      <use x="321.337891" xlink:href="#DejaVuSans-65"/>
      <use x="382.861328" xlink:href="#DejaVuSans-20"/>
      <use x="414.648438" xlink:href="#DejaVuSans-69"/>
      <use x="442.431641" xlink:href="#DejaVuSans-6e"/>
      <use x="505.810547" xlink:href="#DejaVuSans-20"/>
      <use x="537.597656" xlink:href="#DejaVuSans-4c"/>
      <use x="593.310547" xlink:href="#DejaVuSans-46"/>
      <use x="650.830078" xlink:href="#DejaVuSans-50"/>
      <use x="711.132812" xlink:href="#DejaVuSans-52"/>
     </g>
    </g>
    <g id="line2d_58">
     <path d="M 785.326875 85.171875 
L 809.326875 85.171875 
" style="fill:none;stroke:#000080;stroke-linecap:square;stroke-width:3;"/>
    </g>
    <g id="line2d_59"/>
    <g id="text_17">
     <!-- Exit -->
     <defs>
      <path d="M 9.8125 72.90625 
L 55.90625 72.90625 
L 55.90625 64.59375 
L 19.671875 64.59375 
L 19.671875 43.015625 
L 54.390625 43.015625 
L 54.390625 34.71875 
L 19.671875 34.71875 
L 19.671875 8.296875 
L 56.78125 8.296875 
L 56.78125 0 
L 9.8125 0 
z
" id="DejaVuSans-45"/>
      <path d="M 54.890625 54.6875 
L 35.109375 28.078125 
L 55.90625 0 
L 45.3125 0 
L 29.390625 21.484375 
L 13.484375 0 
L 2.875 0 
L 24.125 28.609375 
L 4.6875 54.6875 
L 15.28125 54.6875 
L 29.78125 35.203125 
L 44.28125 54.6875 
z
" id="DejaVuSans-78"/>
     </defs>
     <g transform="translate(818.926875 89.371875)scale(0.12 -0.12)">
      <use xlink:href="#DejaVuSans-45"/>
      <use x="63.183594" xlink:href="#DejaVuSans-78"/>
      <use x="122.363281" xlink:href="#DejaVuSans-69"/>
      <use x="150.146484" xlink:href="#DejaVuSans-74"/>
     </g>
    </g>
    <g id="line2d_60">
     <path d="M 785.326875 102.785625 
L 809.326875 102.785625 
" style="fill:none;stroke:#ffa500;stroke-linecap:square;stroke-width:3;"/>
    </g>
    <g id="line2d_61"/>
    <g id="text_18">
     <!-- Entry -->
     <g transform="translate(818.926875 106.985625)scale(0.12 -0.12)">
      <use xlink:href="#DejaVuSans-45"/>
      <use x="63.183594" xlink:href="#DejaVuSans-6e"/>
      <use x="126.5625" xlink:href="#DejaVuSans-74"/>
      <use x="165.771484" xlink:href="#DejaVuSans-72"/>
      <use x="206.884766" xlink:href="#DejaVuSans-79"/>
     </g>
    </g>
    <g id="line2d_62">
     <path d="M 785.326875 120.399375 
L 809.326875 120.399375 
" style="fill:none;stroke:#800000;stroke-linecap:square;stroke-width:3;"/>
    </g>
    <g id="line2d_63"/>
    <g id="text_19">
     <!-- Churn -->
     <g transform="translate(818.926875 124.599375)scale(0.12 -0.12)">
      <use xlink:href="#DejaVuSans-43"/>
      <use x="69.824219" xlink:href="#DejaVuSans-68"/>
      <use x="133.203125" xlink:href="#DejaVuSans-75"/>
      <use x="196.582031" xlink:href="#DejaVuSans-72"/>
      <use x="237.679688" xlink:href="#DejaVuSans-6e"/>
     </g>
    </g>
   </g>
  </g>
  <g id="text_20">
   <!-- Change in Labor force participation rate decomposed -->
   <defs>
    <path d="M 67 4 
Q 61.8125 1.3125 56.203125 -0.046875 
Q 50.59375 -1.421875 44.484375 -1.421875 
Q 26.265625 -1.421875 15.625 8.765625 
Q 4.984375 18.953125 4.984375 36.375 
Q 4.984375 53.859375 15.625 64.03125 
Q 26.265625 74.21875 44.484375 74.21875 
Q 50.59375 74.21875 56.203125 72.84375 
Q 61.8125 71.484375 67 68.796875 
L 67 53.71875 
Q 61.765625 57.28125 56.6875 58.9375 
Q 51.609375 60.59375 46 60.59375 
Q 35.9375 60.59375 30.171875 54.140625 
Q 24.421875 47.703125 24.421875 36.375 
Q 24.421875 25.09375 30.171875 18.640625 
Q 35.9375 12.203125 46 12.203125 
Q 51.609375 12.203125 56.6875 13.859375 
Q 61.765625 15.53125 67 19.09375 
z
" id="DejaVuSans-Bold-43"/>
    <path d="M 63.375 33.296875 
L 63.375 0 
L 45.796875 0 
L 45.796875 5.421875 
L 45.796875 25.390625 
Q 45.796875 32.5625 45.484375 35.25 
Q 45.171875 37.9375 44.390625 39.203125 
Q 43.359375 40.921875 41.59375 41.875 
Q 39.84375 42.828125 37.59375 42.828125 
Q 32.125 42.828125 29 38.59375 
Q 25.875 34.375 25.875 26.90625 
L 25.875 0 
L 8.40625 0 
L 8.40625 75.984375 
L 25.875 75.984375 
L 25.875 46.6875 
Q 29.828125 51.46875 34.265625 53.734375 
Q 38.71875 56 44.09375 56 
Q 53.5625 56 58.46875 50.1875 
Q 63.375 44.390625 63.375 33.296875 
z
" id="DejaVuSans-Bold-68"/>
    <path d="M 32.90625 24.609375 
Q 27.4375 24.609375 24.671875 22.75 
Q 21.921875 20.90625 21.921875 17.28125 
Q 21.921875 13.96875 24.140625 12.078125 
Q 26.375 10.203125 30.328125 10.203125 
Q 35.25 10.203125 38.625 13.734375 
Q 42 17.28125 42 22.609375 
L 42 24.609375 
z
M 59.625 31.203125 
L 59.625 0 
L 42 0 
L 42 8.109375 
Q 38.484375 3.125 34.078125 0.84375 
Q 29.6875 -1.421875 23.390625 -1.421875 
Q 14.890625 -1.421875 9.59375 3.53125 
Q 4.296875 8.5 4.296875 16.40625 
Q 4.296875 26.03125 10.90625 30.515625 
Q 17.53125 35.015625 31.6875 35.015625 
L 42 35.015625 
L 42 36.375 
Q 42 40.53125 38.71875 42.453125 
Q 35.453125 44.390625 28.515625 44.390625 
Q 22.90625 44.390625 18.0625 43.265625 
Q 13.234375 42.140625 9.078125 39.890625 
L 9.078125 53.21875 
Q 14.703125 54.59375 20.359375 55.296875 
Q 26.03125 56 31.6875 56 
Q 46.484375 56 53.046875 50.171875 
Q 59.625 44.34375 59.625 31.203125 
z
" id="DejaVuSans-Bold-61"/>
    <path d="M 63.375 33.296875 
L 63.375 0 
L 45.796875 0 
L 45.796875 5.421875 
L 45.796875 25.484375 
Q 45.796875 32.5625 45.484375 35.25 
Q 45.171875 37.9375 44.390625 39.203125 
Q 43.359375 40.921875 41.59375 41.875 
Q 39.84375 42.828125 37.59375 42.828125 
Q 32.125 42.828125 29 38.59375 
Q 25.875 34.375 25.875 26.90625 
L 25.875 0 
L 8.40625 0 
L 8.40625 54.6875 
L 25.875 54.6875 
L 25.875 46.6875 
Q 29.828125 51.46875 34.265625 53.734375 
Q 38.71875 56 44.09375 56 
Q 53.5625 56 58.46875 50.1875 
Q 63.375 44.390625 63.375 33.296875 
z
" id="DejaVuSans-Bold-6e"/>
    <path d="M 45.609375 9.28125 
Q 42 4.5 37.640625 2.25 
Q 33.296875 0 27.59375 0 
Q 17.578125 0 11.03125 7.875 
Q 4.5 15.765625 4.5 27.984375 
Q 4.5 40.234375 11.03125 48.0625 
Q 17.578125 55.90625 27.59375 55.90625 
Q 33.296875 55.90625 37.640625 53.65625 
Q 42 51.421875 45.609375 46.578125 
L 45.609375 54.6875 
L 63.1875 54.6875 
L 63.1875 5.515625 
Q 63.1875 -7.671875 54.859375 -14.625 
Q 46.53125 -21.578125 30.71875 -21.578125 
Q 25.59375 -21.578125 20.796875 -20.796875 
Q 16.015625 -20.015625 11.1875 -18.40625 
L 11.1875 -4.78125 
Q 15.765625 -7.421875 20.15625 -8.71875 
Q 24.5625 -10.015625 29 -10.015625 
Q 37.59375 -10.015625 41.59375 -6.25 
Q 45.609375 -2.484375 45.609375 5.515625 
z
M 34.078125 43.3125 
Q 28.65625 43.3125 25.625 39.296875 
Q 22.609375 35.296875 22.609375 27.984375 
Q 22.609375 20.453125 25.53125 16.578125 
Q 28.46875 12.703125 34.078125 12.703125 
Q 39.546875 12.703125 42.578125 16.703125 
Q 45.609375 20.703125 45.609375 27.984375 
Q 45.609375 35.296875 42.578125 39.296875 
Q 39.546875 43.3125 34.078125 43.3125 
z
" id="DejaVuSans-Bold-67"/>
    <path d="M 62.984375 27.484375 
L 62.984375 22.515625 
L 22.125 22.515625 
Q 22.75 16.359375 26.5625 13.28125 
Q 30.375 10.203125 37.203125 10.203125 
Q 42.71875 10.203125 48.5 11.84375 
Q 54.296875 13.484375 60.40625 16.796875 
L 60.40625 3.328125 
Q 54.203125 0.984375 48 -0.21875 
Q 41.796875 -1.421875 35.59375 -1.421875 
Q 20.75 -1.421875 12.515625 6.125 
Q 4.296875 13.671875 4.296875 27.296875 
Q 4.296875 40.671875 12.375 48.328125 
Q 20.453125 56 34.625 56 
Q 47.515625 56 55.25 48.234375 
Q 62.984375 40.484375 62.984375 27.484375 
z
M 45.015625 33.296875 
Q 45.015625 38.28125 42.109375 41.328125 
Q 39.203125 44.390625 34.515625 44.390625 
Q 29.4375 44.390625 26.265625 41.53125 
Q 23.09375 38.671875 22.3125 33.296875 
z
" id="DejaVuSans-Bold-65"/>
    <path id="DejaVuSans-Bold-20"/>
    <path d="M 8.40625 54.6875 
L 25.875 54.6875 
L 25.875 0 
L 8.40625 0 
z
M 8.40625 75.984375 
L 25.875 75.984375 
L 25.875 61.71875 
L 8.40625 61.71875 
z
" id="DejaVuSans-Bold-69"/>
    <path d="M 9.1875 72.90625 
L 27.984375 72.90625 
L 27.984375 14.203125 
L 60.984375 14.203125 
L 60.984375 0 
L 9.1875 0 
z
" id="DejaVuSans-Bold-4c"/>
    <path d="M 37.5 11.28125 
Q 43.109375 11.28125 46.0625 15.375 
Q 49.03125 19.484375 49.03125 27.296875 
Q 49.03125 35.109375 46.0625 39.203125 
Q 43.109375 43.3125 37.5 43.3125 
Q 31.890625 43.3125 28.875 39.1875 
Q 25.875 35.0625 25.875 27.296875 
Q 25.875 19.53125 28.875 15.40625 
Q 31.890625 11.28125 37.5 11.28125 
z
M 25.875 46.6875 
Q 29.5 51.46875 33.890625 53.734375 
Q 38.28125 56 44 56 
Q 54.109375 56 60.59375 47.96875 
Q 67.09375 39.9375 67.09375 27.296875 
Q 67.09375 14.65625 60.59375 6.609375 
Q 54.109375 -1.421875 44 -1.421875 
Q 38.28125 -1.421875 33.890625 0.84375 
Q 29.5 3.125 25.875 7.90625 
L 25.875 0 
L 8.40625 0 
L 8.40625 75.984375 
L 25.875 75.984375 
z
" id="DejaVuSans-Bold-62"/>
    <path d="M 34.421875 43.5 
Q 28.609375 43.5 25.5625 39.328125 
Q 22.515625 35.15625 22.515625 27.296875 
Q 22.515625 19.4375 25.5625 15.25 
Q 28.609375 11.078125 34.421875 11.078125 
Q 40.140625 11.078125 43.15625 15.25 
Q 46.1875 19.4375 46.1875 27.296875 
Q 46.1875 35.15625 43.15625 39.328125 
Q 40.140625 43.5 34.421875 43.5 
z
M 34.421875 56 
Q 48.53125 56 56.46875 48.375 
Q 64.40625 40.765625 64.40625 27.296875 
Q 64.40625 13.8125 56.46875 6.1875 
Q 48.53125 -1.421875 34.421875 -1.421875 
Q 20.265625 -1.421875 12.28125 6.1875 
Q 4.296875 13.8125 4.296875 27.296875 
Q 4.296875 40.765625 12.28125 48.375 
Q 20.265625 56 34.421875 56 
z
" id="DejaVuSans-Bold-6f"/>
    <path d="M 49.03125 39.796875 
Q 46.734375 40.875 44.453125 41.375 
Q 42.1875 41.890625 39.890625 41.890625 
Q 33.15625 41.890625 29.515625 37.5625 
Q 25.875 33.25 25.875 25.203125 
L 25.875 0 
L 8.40625 0 
L 8.40625 54.6875 
L 25.875 54.6875 
L 25.875 45.703125 
Q 29.25 51.078125 33.609375 53.53125 
Q 37.984375 56 44.09375 56 
Q 44.96875 56 45.984375 55.921875 
Q 47.015625 55.859375 48.96875 55.609375 
z
" id="DejaVuSans-Bold-72"/>
    <path d="M 44.390625 75.984375 
L 44.390625 64.5 
L 34.71875 64.5 
Q 31 64.5 29.53125 63.15625 
Q 28.078125 61.8125 28.078125 58.5 
L 28.078125 54.6875 
L 43.015625 54.6875 
L 43.015625 42.1875 
L 28.078125 42.1875 
L 28.078125 0 
L 10.59375 0 
L 10.59375 42.1875 
L 1.90625 42.1875 
L 1.90625 54.6875 
L 10.59375 54.6875 
L 10.59375 58.5 
Q 10.59375 67.4375 15.578125 71.703125 
Q 20.5625 75.984375 31 75.984375 
z
" id="DejaVuSans-Bold-66"/>
    <path d="M 52.59375 52.984375 
L 52.59375 38.71875 
Q 49.03125 41.15625 45.4375 42.328125 
Q 41.84375 43.5 37.984375 43.5 
Q 30.671875 43.5 26.59375 39.234375 
Q 22.515625 34.96875 22.515625 27.296875 
Q 22.515625 19.625 26.59375 15.34375 
Q 30.671875 11.078125 37.984375 11.078125 
Q 42.09375 11.078125 45.78125 12.296875 
Q 49.46875 13.53125 52.59375 15.921875 
L 52.59375 1.609375 
Q 48.484375 0.09375 44.265625 -0.65625 
Q 40.046875 -1.421875 35.796875 -1.421875 
Q 21 -1.421875 12.640625 6.171875 
Q 4.296875 13.765625 4.296875 27.296875 
Q 4.296875 40.828125 12.640625 48.40625 
Q 21 56 35.796875 56 
Q 40.09375 56 44.265625 55.25 
Q 48.4375 54.5 52.59375 52.984375 
z
" id="DejaVuSans-Bold-63"/>
    <path d="M 25.875 7.90625 
L 25.875 -20.796875 
L 8.40625 -20.796875 
L 8.40625 54.6875 
L 25.875 54.6875 
L 25.875 46.6875 
Q 29.5 51.46875 33.890625 53.734375 
Q 38.28125 56 44 56 
Q 54.109375 56 60.59375 47.96875 
Q 67.09375 39.9375 67.09375 27.296875 
Q 67.09375 14.65625 60.59375 6.609375 
Q 54.109375 -1.421875 44 -1.421875 
Q 38.28125 -1.421875 33.890625 0.84375 
Q 29.5 3.125 25.875 7.90625 
z
M 37.5 43.3125 
Q 31.890625 43.3125 28.875 39.1875 
Q 25.875 35.0625 25.875 27.296875 
Q 25.875 19.53125 28.875 15.40625 
Q 31.890625 11.28125 37.5 11.28125 
Q 43.109375 11.28125 46.0625 15.375 
Q 49.03125 19.484375 49.03125 27.296875 
Q 49.03125 35.109375 46.0625 39.203125 
Q 43.109375 43.3125 37.5 43.3125 
z
" id="DejaVuSans-Bold-70"/>
    <path d="M 27.484375 70.21875 
L 27.484375 54.6875 
L 45.515625 54.6875 
L 45.515625 42.1875 
L 27.484375 42.1875 
L 27.484375 19 
Q 27.484375 15.1875 29 13.84375 
Q 30.515625 12.5 35.015625 12.5 
L 44 12.5 
L 44 0 
L 29 0 
Q 18.65625 0 14.328125 4.3125 
Q 10.015625 8.640625 10.015625 19 
L 10.015625 42.1875 
L 1.3125 42.1875 
L 1.3125 54.6875 
L 10.015625 54.6875 
L 10.015625 70.21875 
z
" id="DejaVuSans-Bold-74"/>
    <path d="M 45.609375 46.6875 
L 45.609375 75.984375 
L 63.1875 75.984375 
L 63.1875 0 
L 45.609375 0 
L 45.609375 7.90625 
Q 42 3.078125 37.640625 0.828125 
Q 33.296875 -1.421875 27.59375 -1.421875 
Q 17.484375 -1.421875 10.984375 6.609375 
Q 4.5 14.65625 4.5 27.296875 
Q 4.5 39.9375 10.984375 47.96875 
Q 17.484375 56 27.59375 56 
Q 33.25 56 37.625 53.734375 
Q 42 51.46875 45.609375 46.6875 
z
M 34.078125 11.28125 
Q 39.703125 11.28125 42.65625 15.375 
Q 45.609375 19.484375 45.609375 27.296875 
Q 45.609375 35.109375 42.65625 39.203125 
Q 39.703125 43.3125 34.078125 43.3125 
Q 28.515625 43.3125 25.5625 39.203125 
Q 22.609375 35.109375 22.609375 27.296875 
Q 22.609375 19.484375 25.5625 15.375 
Q 28.515625 11.28125 34.078125 11.28125 
z
" id="DejaVuSans-Bold-64"/>
    <path d="M 59.078125 45.609375 
Q 62.40625 50.6875 66.96875 53.34375 
Q 71.53125 56 77 56 
Q 86.421875 56 91.359375 50.1875 
Q 96.296875 44.390625 96.296875 33.296875 
L 96.296875 0 
L 78.71875 0 
L 78.71875 28.515625 
Q 78.765625 29.15625 78.78125 29.828125 
Q 78.8125 30.515625 78.8125 31.78125 
Q 78.8125 37.59375 77.09375 40.203125 
Q 75.390625 42.828125 71.578125 42.828125 
Q 66.609375 42.828125 63.890625 38.71875 
Q 61.1875 34.625 61.078125 26.859375 
L 61.078125 0 
L 43.5 0 
L 43.5 28.515625 
Q 43.5 37.59375 41.9375 40.203125 
Q 40.375 42.828125 36.375 42.828125 
Q 31.34375 42.828125 28.609375 38.703125 
Q 25.875 34.578125 25.875 26.90625 
L 25.875 0 
L 8.296875 0 
L 8.296875 54.6875 
L 25.875 54.6875 
L 25.875 46.6875 
Q 29.109375 51.3125 33.28125 53.65625 
Q 37.453125 56 42.484375 56 
Q 48.140625 56 52.484375 53.265625 
Q 56.84375 50.53125 59.078125 45.609375 
z
" id="DejaVuSans-Bold-6d"/>
    <path d="M 51.125 52.984375 
L 51.125 39.703125 
Q 45.515625 42.046875 40.28125 43.21875 
Q 35.0625 44.390625 30.421875 44.390625 
Q 25.4375 44.390625 23.015625 43.140625 
Q 20.609375 41.890625 20.609375 39.3125 
Q 20.609375 37.203125 22.4375 36.078125 
Q 24.265625 34.96875 29 34.421875 
L 32.078125 33.984375 
Q 45.515625 32.28125 50.140625 28.375 
Q 54.78125 24.46875 54.78125 16.109375 
Q 54.78125 7.375 48.328125 2.96875 
Q 41.890625 -1.421875 29.109375 -1.421875 
Q 23.6875 -1.421875 17.890625 -0.5625 
Q 12.109375 0.296875 6 2 
L 6 15.28125 
Q 11.234375 12.75 16.71875 11.46875 
Q 22.21875 10.203125 27.875 10.203125 
Q 33.015625 10.203125 35.59375 11.609375 
Q 38.1875 13.03125 38.1875 15.828125 
Q 38.1875 18.171875 36.40625 19.3125 
Q 34.625 20.453125 29.296875 21.09375 
L 26.21875 21.484375 
Q 14.546875 22.953125 9.859375 26.90625 
Q 5.171875 30.859375 5.171875 38.921875 
Q 5.171875 47.609375 11.125 51.796875 
Q 17.09375 56 29.390625 56 
Q 34.234375 56 39.546875 55.265625 
Q 44.875 54.546875 51.125 52.984375 
z
" id="DejaVuSans-Bold-73"/>
   </defs>
   <g transform="translate(72.9 26.87625)scale(0.24 -0.24)">
    <use xlink:href="#DejaVuSans-Bold-43"/>
    <use x="73.388672" xlink:href="#DejaVuSans-Bold-68"/>
    <use x="144.580078" xlink:href="#DejaVuSans-Bold-61"/>
    <use x="212.060547" xlink:href="#DejaVuSans-Bold-6e"/>
    <use x="283.251953" xlink:href="#DejaVuSans-Bold-67"/>
    <use x="354.833984" xlink:href="#DejaVuSans-Bold-65"/>
    <use x="422.65625" xlink:href="#DejaVuSans-Bold-20"/>
    <use x="457.470703" xlink:href="#DejaVuSans-Bold-69"/>
    <use x="491.748047" xlink:href="#DejaVuSans-Bold-6e"/>
    <use x="562.939453" xlink:href="#DejaVuSans-Bold-20"/>
    <use x="597.753906" xlink:href="#DejaVuSans-Bold-4c"/>
    <use x="661.474609" xlink:href="#DejaVuSans-Bold-61"/>
    <use x="728.955078" xlink:href="#DejaVuSans-Bold-62"/>
    <use x="800.537109" xlink:href="#DejaVuSans-Bold-6f"/>
    <use x="869.238281" xlink:href="#DejaVuSans-Bold-72"/>
    <use x="918.554688" xlink:href="#DejaVuSans-Bold-20"/>
    <use x="953.369141" xlink:href="#DejaVuSans-Bold-66"/>
    <use x="996.875" xlink:href="#DejaVuSans-Bold-6f"/>
    <use x="1065.576172" xlink:href="#DejaVuSans-Bold-72"/>
    <use x="1114.892578" xlink:href="#DejaVuSans-Bold-63"/>
    <use x="1174.169922" xlink:href="#DejaVuSans-Bold-65"/>
    <use x="1241.992188" xlink:href="#DejaVuSans-Bold-20"/>
    <use x="1276.806641" xlink:href="#DejaVuSans-Bold-70"/>
    <use x="1348.388672" xlink:href="#DejaVuSans-Bold-61"/>
    <use x="1415.869141" xlink:href="#DejaVuSans-Bold-72"/>
    <use x="1465.185547" xlink:href="#DejaVuSans-Bold-74"/>
    <use x="1512.988281" xlink:href="#DejaVuSans-Bold-69"/>
    <use x="1547.265625" xlink:href="#DejaVuSans-Bold-63"/>
    <use x="1606.542969" xlink:href="#DejaVuSans-Bold-69"/>
    <use x="1640.820312" xlink:href="#DejaVuSans-Bold-70"/>
    <use x="1712.402344" xlink:href="#DejaVuSans-Bold-61"/>
    <use x="1779.882812" xlink:href="#DejaVuSans-Bold-74"/>
    <use x="1827.685547" xlink:href="#DejaVuSans-Bold-69"/>
    <use x="1861.962891" xlink:href="#DejaVuSans-Bold-6f"/>
    <use x="1930.664062" xlink:href="#DejaVuSans-Bold-6e"/>
    <use x="2001.855469" xlink:href="#DejaVuSans-Bold-20"/>
    <use x="2036.669922" xlink:href="#DejaVuSans-Bold-72"/>
    <use x="2085.986328" xlink:href="#DejaVuSans-Bold-61"/>
    <use x="2153.466797" xlink:href="#DejaVuSans-Bold-74"/>
    <use x="2201.269531" xlink:href="#DejaVuSans-Bold-65"/>
    <use x="2269.091797" xlink:href="#DejaVuSans-Bold-20"/>
    <use x="2303.90625" xlink:href="#DejaVuSans-Bold-64"/>
    <use x="2375.488281" xlink:href="#DejaVuSans-Bold-65"/>
    <use x="2443.310547" xlink:href="#DejaVuSans-Bold-63"/>
    <use x="2502.587891" xlink:href="#DejaVuSans-Bold-6f"/>
    <use x="2571.289062" xlink:href="#DejaVuSans-Bold-6d"/>
    <use x="2675.488281" xlink:href="#DejaVuSans-Bold-70"/>
    <use x="2747.070312" xlink:href="#DejaVuSans-Bold-6f"/>
    <use x="2815.771484" xlink:href="#DejaVuSans-Bold-73"/>
    <use x="2875.292969" xlink:href="#DejaVuSans-Bold-65"/>
    <use x="2943.115234" xlink:href="#DejaVuSans-Bold-64"/>
   </g>
  </g>
  <g id="text_21">
   <!-- Source: Bureau of Labor Statistics -->
   <defs>
    <path d="M 53.515625 70.515625 
L 53.515625 60.890625 
Q 47.90625 63.578125 42.921875 64.890625 
Q 37.9375 66.21875 33.296875 66.21875 
Q 25.25 66.21875 20.875 63.09375 
Q 16.5 59.96875 16.5 54.203125 
Q 16.5 49.359375 19.40625 46.890625 
Q 22.3125 44.4375 30.421875 42.921875 
L 36.375 41.703125 
Q 47.40625 39.59375 52.65625 34.296875 
Q 57.90625 29 57.90625 20.125 
Q 57.90625 9.515625 50.796875 4.046875 
Q 43.703125 -1.421875 29.984375 -1.421875 
Q 24.8125 -1.421875 18.96875 -0.25 
Q 13.140625 0.921875 6.890625 3.21875 
L 6.890625 13.375 
Q 12.890625 10.015625 18.65625 8.296875 
Q 24.421875 6.59375 29.984375 6.59375 
Q 38.421875 6.59375 43.015625 9.90625 
Q 47.609375 13.234375 47.609375 19.390625 
Q 47.609375 24.75 44.3125 27.78125 
Q 41.015625 30.8125 33.5 32.328125 
L 27.484375 33.5 
Q 16.453125 35.6875 11.515625 40.375 
Q 6.59375 45.0625 6.59375 53.421875 
Q 6.59375 63.09375 13.40625 68.65625 
Q 20.21875 74.21875 32.171875 74.21875 
Q 37.3125 74.21875 42.625 73.28125 
Q 47.953125 72.359375 53.515625 70.515625 
z
" id="DejaVuSans-53"/>
    <path d="M 11.71875 12.40625 
L 22.015625 12.40625 
L 22.015625 0 
L 11.71875 0 
z
M 11.71875 51.703125 
L 22.015625 51.703125 
L 22.015625 39.3125 
L 11.71875 39.3125 
z
" id="DejaVuSans-3a"/>
    <path d="M 19.671875 34.8125 
L 19.671875 8.109375 
L 35.5 8.109375 
Q 43.453125 8.109375 47.28125 11.40625 
Q 51.125 14.703125 51.125 21.484375 
Q 51.125 28.328125 47.28125 31.5625 
Q 43.453125 34.8125 35.5 34.8125 
z
M 19.671875 64.796875 
L 19.671875 42.828125 
L 34.28125 42.828125 
Q 41.5 42.828125 45.03125 45.53125 
Q 48.578125 48.25 48.578125 53.8125 
Q 48.578125 59.328125 45.03125 62.0625 
Q 41.5 64.796875 34.28125 64.796875 
z
M 9.8125 72.90625 
L 35.015625 72.90625 
Q 46.296875 72.90625 52.390625 68.21875 
Q 58.5 63.53125 58.5 54.890625 
Q 58.5 48.1875 55.375 44.234375 
Q 52.25 40.28125 46.1875 39.3125 
Q 53.46875 37.75 57.5 32.78125 
Q 61.53125 27.828125 61.53125 20.40625 
Q 61.53125 10.640625 54.890625 5.3125 
Q 48.25 0 35.984375 0 
L 9.8125 0 
z
" id="DejaVuSans-42"/>
    <path d="M 37.109375 75.984375 
L 37.109375 68.5 
L 28.515625 68.5 
Q 23.6875 68.5 21.796875 66.546875 
Q 19.921875 64.59375 19.921875 59.515625 
L 19.921875 54.6875 
L 34.71875 54.6875 
L 34.71875 47.703125 
L 19.921875 47.703125 
L 19.921875 0 
L 10.890625 0 
L 10.890625 47.703125 
L 2.296875 47.703125 
L 2.296875 54.6875 
L 10.890625 54.6875 
L 10.890625 58.5 
Q 10.890625 67.625 15.140625 71.796875 
Q 19.390625 75.984375 28.609375 75.984375 
z
" id="DejaVuSans-66"/>
   </defs>
   <g transform="translate(72.9 421.2)scale(0.1 -0.1)">
    <use xlink:href="#DejaVuSans-53"/>
    <use x="63.476562" xlink:href="#DejaVuSans-6f"/>
    <use x="124.658203" xlink:href="#DejaVuSans-75"/>
    <use x="188.037109" xlink:href="#DejaVuSans-72"/>
    <use x="229.119141" xlink:href="#DejaVuSans-63"/>
    <use x="284.099609" xlink:href="#DejaVuSans-65"/>
    <use x="345.623047" xlink:href="#DejaVuSans-3a"/>
    <use x="379.314453" xlink:href="#DejaVuSans-20"/>
    <use x="411.101562" xlink:href="#DejaVuSans-42"/>
    <use x="479.705078" xlink:href="#DejaVuSans-75"/>
    <use x="543.083984" xlink:href="#DejaVuSans-72"/>
    <use x="584.166016" xlink:href="#DejaVuSans-65"/>
    <use x="645.689453" xlink:href="#DejaVuSans-61"/>
    <use x="706.96875" xlink:href="#DejaVuSans-75"/>
    <use x="770.347656" xlink:href="#DejaVuSans-20"/>
    <use x="802.134766" xlink:href="#DejaVuSans-6f"/>
    <use x="863.316406" xlink:href="#DejaVuSans-66"/>
    <use x="898.521484" xlink:href="#DejaVuSans-20"/>
    <use x="930.308594" xlink:href="#DejaVuSans-4c"/>
    <use x="986.021484" xlink:href="#DejaVuSans-61"/>
    <use x="1047.300781" xlink:href="#DejaVuSans-62"/>
    <use x="1110.777344" xlink:href="#DejaVuSans-6f"/>
    <use x="1171.958984" xlink:href="#DejaVuSans-72"/>
    <use x="1213.072266" xlink:href="#DejaVuSans-20"/>
    <use x="1244.859375" xlink:href="#DejaVuSans-53"/>
    <use x="1308.335938" xlink:href="#DejaVuSans-74"/>
    <use x="1347.544922" xlink:href="#DejaVuSans-61"/>
    <use x="1408.824219" xlink:href="#DejaVuSans-74"/>
    <use x="1448.033203" xlink:href="#DejaVuSans-69"/>
    <use x="1475.816406" xlink:href="#DejaVuSans-73"/>
    <use x="1527.916016" xlink:href="#DejaVuSans-74"/>
    <use x="1567.125" xlink:href="#DejaVuSans-69"/>
    <use x="1594.908203" xlink:href="#DejaVuSans-63"/>
    <use x="1649.888672" xlink:href="#DejaVuSans-73"/>
   </g>
  </g>
 </g>
 <defs>
  <clipPath id="p79d1780921">
   <rect height="336.96" width="850.5" x="72.9" y="51.84"/>
  </clipPath>
 </defs>
</svg>
