<?xml version="1.0" encoding="utf-8" standalone="no"?>
<!DOCTYPE svg PUBLIC "-//W3C//DTD SVG 1.1//EN"
  "http://www.w3.org/Graphics/SVG/1.1/DTD/svg11.dtd">
<!-- Created with matplotlib (http://matplotlib.org/) -->
<svg height="432pt" version="1.1" viewBox="0 0 576 432" width="576pt" xmlns="http://www.w3.org/2000/svg" xmlns:xlink="http://www.w3.org/1999/xlink">
 <defs>
  <style type="text/css">
*{stroke-linecap:butt;stroke-linejoin:round;}
  </style>
 </defs>
 <g id="figure_1">
  <g id="patch_1">
   <path d="M 0 432 
L 576 432 
L 576 0 
L 0 0 
z
" style="fill:none;"/>
  </g>
  <g id="axes_1">
   <g id="patch_2">
    <path d="M 69.055937 382.901875 
L 532.9 382.901875 
L 532.9 44.54 
L 69.055937 44.54 
z
" style="fill:none;"/>
   </g>
   <g id="PolyCollection_1">
    <path clip-path="url(#pd1d2428b4b)" d="M 78.413022 44.54 
L 78.413022 382.901875 
L 79.749749 382.901875 
L 81.086475 382.901875 
L 82.423202 382.901875 
L 83.759928 382.901875 
L 85.096654 382.901875 
L 86.433381 382.901875 
L 87.770107 382.901875 
L 87.770107 44.54 
L 87.770107 44.54 
L 86.433381 44.54 
L 85.096654 44.54 
L 83.759928 44.54 
L 82.423202 44.54 
L 81.086475 44.54 
L 79.749749 44.54 
L 78.413022 44.54 
z
" style="fill:#bbbbbb;fill-opacity:0.3;stroke:#bbbbbb;stroke-opacity:0.3;"/>
    <path clip-path="url(#pd1d2428b4b)" d="M 249.514002 44.54 
L 249.514002 382.901875 
L 250.850729 382.901875 
L 252.187455 382.901875 
L 253.524181 382.901875 
L 254.860908 382.901875 
L 256.197634 382.901875 
L 257.534361 382.901875 
L 258.871087 382.901875 
L 258.871087 44.54 
L 258.871087 44.54 
L 257.534361 44.54 
L 256.197634 44.54 
L 254.860908 44.54 
L 253.524181 44.54 
L 252.187455 44.54 
L 250.850729 44.54 
L 249.514002 44.54 
z
" style="fill:#bbbbbb;fill-opacity:0.3;stroke:#bbbbbb;stroke-opacity:0.3;"/>
    <path clip-path="url(#pd1d2428b4b)" d="M 357.788841 44.54 
L 357.788841 382.901875 
L 359.125567 382.901875 
L 360.462294 382.901875 
L 361.79902 382.901875 
L 363.135747 382.901875 
L 364.472473 382.901875 
L 365.809199 382.901875 
L 367.145926 382.901875 
L 368.482652 382.901875 
L 369.819379 382.901875 
L 371.156105 382.901875 
L 372.492831 382.901875 
L 373.829558 382.901875 
L 375.166284 382.901875 
L 376.503011 382.901875 
L 377.839737 382.901875 
L 379.176463 382.901875 
L 380.51319 382.901875 
L 380.51319 44.54 
L 380.51319 44.54 
L 379.176463 44.54 
L 377.839737 44.54 
L 376.503011 44.54 
L 375.166284 44.54 
L 373.829558 44.54 
L 372.492831 44.54 
L 371.156105 44.54 
L 369.819379 44.54 
L 368.482652 44.54 
L 367.145926 44.54 
L 365.809199 44.54 
L 364.472473 44.54 
L 363.135747 44.54 
L 361.79902 44.54 
L 360.462294 44.54 
L 359.125567 44.54 
L 357.788841 44.54 
z
" style="fill:#bbbbbb;fill-opacity:0.3;stroke:#bbbbbb;stroke-opacity:0.3;"/>
   </g>
   <g id="matplotlib.axis_1">
    <g id="xtick_1">
     <g id="line2d_1">
      <defs>
       <path d="M 0 0 
L 0 3.5 
" id="m3ea25b9826" style="stroke:#000000;stroke-width:0.8;"/>
      </defs>
      <g>
       <use style="stroke:#000000;stroke-width:0.8;" x="133.218805" xlink:href="#m3ea25b9826" y="382.901875"/>
      </g>
     </g>
     <g id="text_1">
      <!-- 1994 -->
      <defs>
       <path d="M 12.40625 8.296875 
L 28.515625 8.296875 
L 28.515625 63.921875 
L 10.984375 60.40625 
L 10.984375 69.390625 
L 28.421875 72.90625 
L 38.28125 72.90625 
L 38.28125 8.296875 
L 54.390625 8.296875 
L 54.390625 0 
L 12.40625 0 
z
" id="DejaVuSans-31"/>
       <path d="M 10.984375 1.515625 
L 10.984375 10.5 
Q 14.703125 8.734375 18.5 7.8125 
Q 22.3125 6.890625 25.984375 6.890625 
Q 35.75 6.890625 40.890625 13.453125 
Q 46.046875 20.015625 46.78125 33.40625 
Q 43.953125 29.203125 39.59375 26.953125 
Q 35.25 24.703125 29.984375 24.703125 
Q 19.046875 24.703125 12.671875 31.3125 
Q 6.296875 37.9375 6.296875 49.421875 
Q 6.296875 60.640625 12.9375 67.421875 
Q 19.578125 74.21875 30.609375 74.21875 
Q 43.265625 74.21875 49.921875 64.515625 
Q 56.59375 54.828125 56.59375 36.375 
Q 56.59375 19.140625 48.40625 8.859375 
Q 40.234375 -1.421875 26.421875 -1.421875 
Q 22.703125 -1.421875 18.890625 -0.6875 
Q 15.09375 0.046875 10.984375 1.515625 
z
M 30.609375 32.421875 
Q 37.25 32.421875 41.125 36.953125 
Q 45.015625 41.5 45.015625 49.421875 
Q 45.015625 57.28125 41.125 61.84375 
Q 37.25 66.40625 30.609375 66.40625 
Q 23.96875 66.40625 20.09375 61.84375 
Q 16.21875 57.28125 16.21875 49.421875 
Q 16.21875 41.5 20.09375 36.953125 
Q 23.96875 32.421875 30.609375 32.421875 
z
" id="DejaVuSans-39"/>
       <path d="M 37.796875 64.3125 
L 12.890625 25.390625 
L 37.796875 25.390625 
z
M 35.203125 72.90625 
L 47.609375 72.90625 
L 47.609375 25.390625 
L 58.015625 25.390625 
L 58.015625 17.1875 
L 47.609375 17.1875 
L 47.609375 0 
L 37.796875 0 
L 37.796875 17.1875 
L 4.890625 17.1875 
L 4.890625 26.703125 
z
" id="DejaVuSans-34"/>
      </defs>
      <g transform="translate(120.493805 404.000313)scale(0.1 -0.1)">
       <use xlink:href="#DejaVuSans-31"/>
       <use x="63.623047" xlink:href="#DejaVuSans-39"/>
       <use x="127.246094" xlink:href="#DejaVuSans-39"/>
       <use x="190.869141" xlink:href="#DejaVuSans-34"/>
      </g>
     </g>
    </g>
    <g id="xtick_2">
     <g id="line2d_2">
      <g>
       <use style="stroke:#000000;stroke-width:0.8;" x="213.422389" xlink:href="#m3ea25b9826" y="382.901875"/>
      </g>
     </g>
     <g id="text_2">
      <!-- 1999 -->
      <g transform="translate(200.697389 404.000313)scale(0.1 -0.1)">
       <use xlink:href="#DejaVuSans-31"/>
       <use x="63.623047" xlink:href="#DejaVuSans-39"/>
       <use x="127.246094" xlink:href="#DejaVuSans-39"/>
       <use x="190.869141" xlink:href="#DejaVuSans-39"/>
      </g>
     </g>
    </g>
    <g id="xtick_3">
     <g id="line2d_3">
      <g>
       <use style="stroke:#000000;stroke-width:0.8;" x="293.625974" xlink:href="#m3ea25b9826" y="382.901875"/>
      </g>
     </g>
     <g id="text_3">
      <!-- 2004 -->
      <defs>
       <path d="M 19.1875 8.296875 
L 53.609375 8.296875 
L 53.609375 0 
L 7.328125 0 
L 7.328125 8.296875 
Q 12.9375 14.109375 22.625 23.890625 
Q 32.328125 33.6875 34.8125 36.53125 
Q 39.546875 41.84375 41.421875 45.53125 
Q 43.3125 49.21875 43.3125 52.78125 
Q 43.3125 58.59375 39.234375 62.25 
Q 35.15625 65.921875 28.609375 65.921875 
Q 23.96875 65.921875 18.8125 64.3125 
Q 13.671875 62.703125 7.8125 59.421875 
L 7.8125 69.390625 
Q 13.765625 71.78125 18.9375 73 
Q 24.125 74.21875 28.421875 74.21875 
Q 39.75 74.21875 46.484375 68.546875 
Q 53.21875 62.890625 53.21875 53.421875 
Q 53.21875 48.921875 51.53125 44.890625 
Q 49.859375 40.875 45.40625 35.40625 
Q 44.1875 33.984375 37.640625 27.21875 
Q 31.109375 20.453125 19.1875 8.296875 
z
" id="DejaVuSans-32"/>
       <path d="M 31.78125 66.40625 
Q 24.171875 66.40625 20.328125 58.90625 
Q 16.5 51.421875 16.5 36.375 
Q 16.5 21.390625 20.328125 13.890625 
Q 24.171875 6.390625 31.78125 6.390625 
Q 39.453125 6.390625 43.28125 13.890625 
Q 47.125 21.390625 47.125 36.375 
Q 47.125 51.421875 43.28125 58.90625 
Q 39.453125 66.40625 31.78125 66.40625 
z
M 31.78125 74.21875 
Q 44.046875 74.21875 50.515625 64.515625 
Q 56.984375 54.828125 56.984375 36.375 
Q 56.984375 17.96875 50.515625 8.265625 
Q 44.046875 -1.421875 31.78125 -1.421875 
Q 19.53125 -1.421875 13.0625 8.265625 
Q 6.59375 17.96875 6.59375 36.375 
Q 6.59375 54.828125 13.0625 64.515625 
Q 19.53125 74.21875 31.78125 74.21875 
z
" id="DejaVuSans-30"/>
      </defs>
      <g transform="translate(280.900974 404.000313)scale(0.1 -0.1)">
       <use xlink:href="#DejaVuSans-32"/>
       <use x="63.623047" xlink:href="#DejaVuSans-30"/>
       <use x="127.246094" xlink:href="#DejaVuSans-30"/>
       <use x="190.869141" xlink:href="#DejaVuSans-34"/>
      </g>
     </g>
    </g>
    <g id="xtick_4">
     <g id="line2d_4">
      <g>
       <use style="stroke:#000000;stroke-width:0.8;" x="373.829558" xlink:href="#m3ea25b9826" y="382.901875"/>
      </g>
     </g>
     <g id="text_4">
      <!-- 2009 -->
      <g transform="translate(361.104558 404.000313)scale(0.1 -0.1)">
       <use xlink:href="#DejaVuSans-32"/>
       <use x="63.623047" xlink:href="#DejaVuSans-30"/>
       <use x="127.246094" xlink:href="#DejaVuSans-30"/>
       <use x="190.869141" xlink:href="#DejaVuSans-39"/>
      </g>
     </g>
    </g>
    <g id="xtick_5">
     <g id="line2d_5">
      <g>
       <use style="stroke:#000000;stroke-width:0.8;" x="454.033142" xlink:href="#m3ea25b9826" y="382.901875"/>
      </g>
     </g>
     <g id="text_5">
      <!-- 2014 -->
      <g transform="translate(441.308142 404.000313)scale(0.1 -0.1)">
       <use xlink:href="#DejaVuSans-32"/>
       <use x="63.623047" xlink:href="#DejaVuSans-30"/>
       <use x="127.246094" xlink:href="#DejaVuSans-31"/>
       <use x="190.869141" xlink:href="#DejaVuSans-34"/>
      </g>
     </g>
    </g>
    <g id="xtick_6">
     <g id="line2d_6">
      <defs>
       <path d="M 0 0 
L 0 2 
" id="md180c9fee5" style="stroke:#000000;stroke-width:0.6;"/>
      </defs>
      <g>
       <use style="stroke:#000000;stroke-width:0.6;" x="69.055938" xlink:href="#md180c9fee5" y="382.901875"/>
      </g>
     </g>
    </g>
    <g id="xtick_7">
     <g id="line2d_7">
      <g>
       <use style="stroke:#000000;stroke-width:0.6;" x="85.096654" xlink:href="#md180c9fee5" y="382.901875"/>
      </g>
     </g>
    </g>
    <g id="xtick_8">
     <g id="line2d_8">
      <g>
       <use style="stroke:#000000;stroke-width:0.6;" x="101.137371" xlink:href="#md180c9fee5" y="382.901875"/>
      </g>
     </g>
    </g>
    <g id="xtick_9">
     <g id="line2d_9">
      <g>
       <use style="stroke:#000000;stroke-width:0.6;" x="117.178088" xlink:href="#md180c9fee5" y="382.901875"/>
      </g>
     </g>
    </g>
    <g id="xtick_10">
     <g id="line2d_10">
      <g>
       <use style="stroke:#000000;stroke-width:0.6;" x="133.218805" xlink:href="#md180c9fee5" y="382.901875"/>
      </g>
     </g>
    </g>
    <g id="xtick_11">
     <g id="line2d_11">
      <g>
       <use style="stroke:#000000;stroke-width:0.6;" x="149.259522" xlink:href="#md180c9fee5" y="382.901875"/>
      </g>
     </g>
    </g>
    <g id="xtick_12">
     <g id="line2d_12">
      <g>
       <use style="stroke:#000000;stroke-width:0.6;" x="165.300239" xlink:href="#md180c9fee5" y="382.901875"/>
      </g>
     </g>
    </g>
    <g id="xtick_13">
     <g id="line2d_13">
      <g>
       <use style="stroke:#000000;stroke-width:0.6;" x="181.340956" xlink:href="#md180c9fee5" y="382.901875"/>
      </g>
     </g>
    </g>
    <g id="xtick_14">
     <g id="line2d_14">
      <g>
       <use style="stroke:#000000;stroke-width:0.6;" x="197.381672" xlink:href="#md180c9fee5" y="382.901875"/>
      </g>
     </g>
    </g>
    <g id="xtick_15">
     <g id="line2d_15">
      <g>
       <use style="stroke:#000000;stroke-width:0.6;" x="213.422389" xlink:href="#md180c9fee5" y="382.901875"/>
      </g>
     </g>
    </g>
    <g id="xtick_16">
     <g id="line2d_16">
      <g>
       <use style="stroke:#000000;stroke-width:0.6;" x="229.463106" xlink:href="#md180c9fee5" y="382.901875"/>
      </g>
     </g>
    </g>
    <g id="xtick_17">
     <g id="line2d_17">
      <g>
       <use style="stroke:#000000;stroke-width:0.6;" x="245.503823" xlink:href="#md180c9fee5" y="382.901875"/>
      </g>
     </g>
    </g>
    <g id="xtick_18">
     <g id="line2d_18">
      <g>
       <use style="stroke:#000000;stroke-width:0.6;" x="261.54454" xlink:href="#md180c9fee5" y="382.901875"/>
      </g>
     </g>
    </g>
    <g id="xtick_19">
     <g id="line2d_19">
      <g>
       <use style="stroke:#000000;stroke-width:0.6;" x="277.585257" xlink:href="#md180c9fee5" y="382.901875"/>
      </g>
     </g>
    </g>
    <g id="xtick_20">
     <g id="line2d_20">
      <g>
       <use style="stroke:#000000;stroke-width:0.6;" x="293.625974" xlink:href="#md180c9fee5" y="382.901875"/>
      </g>
     </g>
    </g>
    <g id="xtick_21">
     <g id="line2d_21">
      <g>
       <use style="stroke:#000000;stroke-width:0.6;" x="309.66669" xlink:href="#md180c9fee5" y="382.901875"/>
      </g>
     </g>
    </g>
    <g id="xtick_22">
     <g id="line2d_22">
      <g>
       <use style="stroke:#000000;stroke-width:0.6;" x="325.707407" xlink:href="#md180c9fee5" y="382.901875"/>
      </g>
     </g>
    </g>
    <g id="xtick_23">
     <g id="line2d_23">
      <g>
       <use style="stroke:#000000;stroke-width:0.6;" x="341.748124" xlink:href="#md180c9fee5" y="382.901875"/>
      </g>
     </g>
    </g>
    <g id="xtick_24">
     <g id="line2d_24">
      <g>
       <use style="stroke:#000000;stroke-width:0.6;" x="357.788841" xlink:href="#md180c9fee5" y="382.901875"/>
      </g>
     </g>
    </g>
    <g id="xtick_25">
     <g id="line2d_25">
      <g>
       <use style="stroke:#000000;stroke-width:0.6;" x="373.829558" xlink:href="#md180c9fee5" y="382.901875"/>
      </g>
     </g>
    </g>
    <g id="xtick_26">
     <g id="line2d_26">
      <g>
       <use style="stroke:#000000;stroke-width:0.6;" x="389.870275" xlink:href="#md180c9fee5" y="382.901875"/>
      </g>
     </g>
    </g>
    <g id="xtick_27">
     <g id="line2d_27">
      <g>
       <use style="stroke:#000000;stroke-width:0.6;" x="405.910992" xlink:href="#md180c9fee5" y="382.901875"/>
      </g>
     </g>
    </g>
    <g id="xtick_28">
     <g id="line2d_28">
      <g>
       <use style="stroke:#000000;stroke-width:0.6;" x="421.951708" xlink:href="#md180c9fee5" y="382.901875"/>
      </g>
     </g>
    </g>
    <g id="xtick_29">
     <g id="line2d_29">
      <g>
       <use style="stroke:#000000;stroke-width:0.6;" x="437.992425" xlink:href="#md180c9fee5" y="382.901875"/>
      </g>
     </g>
    </g>
    <g id="xtick_30">
     <g id="line2d_30">
      <g>
       <use style="stroke:#000000;stroke-width:0.6;" x="454.033142" xlink:href="#md180c9fee5" y="382.901875"/>
      </g>
     </g>
    </g>
    <g id="xtick_31">
     <g id="line2d_31">
      <g>
       <use style="stroke:#000000;stroke-width:0.6;" x="470.073859" xlink:href="#md180c9fee5" y="382.901875"/>
      </g>
     </g>
    </g>
    <g id="xtick_32">
     <g id="line2d_32">
      <g>
       <use style="stroke:#000000;stroke-width:0.6;" x="486.114576" xlink:href="#md180c9fee5" y="382.901875"/>
      </g>
     </g>
    </g>
    <g id="xtick_33">
     <g id="line2d_33">
      <g>
       <use style="stroke:#000000;stroke-width:0.6;" x="502.155293" xlink:href="#md180c9fee5" y="382.901875"/>
      </g>
     </g>
    </g>
    <g id="xtick_34">
     <g id="line2d_34">
      <g>
       <use style="stroke:#000000;stroke-width:0.6;" x="518.19601" xlink:href="#md180c9fee5" y="382.901875"/>
      </g>
     </g>
    </g>
   </g>
   <g id="matplotlib.axis_2">
    <g id="ytick_1">
     <g id="line2d_35">
      <path clip-path="url(#pd1d2428b4b)" d="M 69.055937 320.920584 
L 532.9 320.920584 
" style="fill:none;stroke:#000000;stroke-dasharray:0.8,1.32;stroke-dashoffset:0;stroke-width:0.8;"/>
     </g>
     <g id="line2d_36">
      <defs>
       <path d="M 0 0 
L -3.5 0 
" id="mddd166039e" style="stroke:#000000;stroke-width:0.8;"/>
      </defs>
      <g>
       <use style="stroke:#000000;stroke-width:0.8;" x="69.055937" xlink:href="#mddd166039e" y="320.920584"/>
      </g>
     </g>
     <g id="text_6">
      <!-- −2 -->
      <defs>
       <path d="M 10.59375 35.5 
L 73.1875 35.5 
L 73.1875 27.203125 
L 10.59375 27.203125 
z
" id="DejaVuSans-2212"/>
      </defs>
      <g transform="translate(40.81375 324.719802)scale(0.1 -0.1)">
       <use xlink:href="#DejaVuSans-2212"/>
       <use x="83.789062" xlink:href="#DejaVuSans-32"/>
      </g>
     </g>
    </g>
    <g id="ytick_2">
     <g id="line2d_37">
      <path clip-path="url(#pd1d2428b4b)" d="M 69.055937 254.522303 
L 532.9 254.522303 
" style="fill:none;stroke:#000000;stroke-dasharray:0.8,1.32;stroke-dashoffset:0;stroke-width:0.8;"/>
     </g>
     <g id="line2d_38">
      <g>
       <use style="stroke:#000000;stroke-width:0.8;" x="69.055937" xlink:href="#mddd166039e" y="254.522303"/>
      </g>
     </g>
     <g id="text_7">
      <!-- 0 -->
      <g transform="translate(49.193438 258.321522)scale(0.1 -0.1)">
       <use xlink:href="#DejaVuSans-30"/>
      </g>
     </g>
    </g>
    <g id="ytick_3">
     <g id="line2d_39">
      <path clip-path="url(#pd1d2428b4b)" d="M 69.055937 188.124023 
L 532.9 188.124023 
" style="fill:none;stroke:#000000;stroke-dasharray:0.8,1.32;stroke-dashoffset:0;stroke-width:0.8;"/>
     </g>
     <g id="line2d_40">
      <g>
       <use style="stroke:#000000;stroke-width:0.8;" x="69.055937" xlink:href="#mddd166039e" y="188.124023"/>
      </g>
     </g>
     <g id="text_8">
      <!-- 2 -->
      <g transform="translate(49.193438 191.923241)scale(0.1 -0.1)">
       <use xlink:href="#DejaVuSans-32"/>
      </g>
     </g>
    </g>
    <g id="ytick_4">
     <g id="line2d_41">
      <path clip-path="url(#pd1d2428b4b)" d="M 69.055937 121.725742 
L 532.9 121.725742 
" style="fill:none;stroke:#000000;stroke-dasharray:0.8,1.32;stroke-dashoffset:0;stroke-width:0.8;"/>
     </g>
     <g id="line2d_42">
      <g>
       <use style="stroke:#000000;stroke-width:0.8;" x="69.055937" xlink:href="#mddd166039e" y="121.725742"/>
      </g>
     </g>
     <g id="text_9">
      <!-- 4 -->
      <g transform="translate(49.193438 125.524961)scale(0.1 -0.1)">
       <use xlink:href="#DejaVuSans-34"/>
      </g>
     </g>
    </g>
    <g id="ytick_5">
     <g id="line2d_43">
      <path clip-path="url(#pd1d2428b4b)" d="M 69.055937 55.327462 
L 532.9 55.327462 
" style="fill:none;stroke:#000000;stroke-dasharray:0.8,1.32;stroke-dashoffset:0;stroke-width:0.8;"/>
     </g>
     <g id="line2d_44">
      <g>
       <use style="stroke:#000000;stroke-width:0.8;" x="69.055937" xlink:href="#mddd166039e" y="55.327462"/>
      </g>
     </g>
     <g id="text_10">
      <!-- 6 -->
      <defs>
       <path d="M 33.015625 40.375 
Q 26.375 40.375 22.484375 35.828125 
Q 18.609375 31.296875 18.609375 23.390625 
Q 18.609375 15.53125 22.484375 10.953125 
Q 26.375 6.390625 33.015625 6.390625 
Q 39.65625 6.390625 43.53125 10.953125 
Q 47.40625 15.53125 47.40625 23.390625 
Q 47.40625 31.296875 43.53125 35.828125 
Q 39.65625 40.375 33.015625 40.375 
z
M 52.59375 71.296875 
L 52.59375 62.3125 
Q 48.875 64.0625 45.09375 64.984375 
Q 41.3125 65.921875 37.59375 65.921875 
Q 27.828125 65.921875 22.671875 59.328125 
Q 17.53125 52.734375 16.796875 39.40625 
Q 19.671875 43.65625 24.015625 45.921875 
Q 28.375 48.1875 33.59375 48.1875 
Q 44.578125 48.1875 50.953125 41.515625 
Q 57.328125 34.859375 57.328125 23.390625 
Q 57.328125 12.15625 50.6875 5.359375 
Q 44.046875 -1.421875 33.015625 -1.421875 
Q 20.359375 -1.421875 13.671875 8.265625 
Q 6.984375 17.96875 6.984375 36.375 
Q 6.984375 53.65625 15.1875 63.9375 
Q 23.390625 74.21875 37.203125 74.21875 
Q 40.921875 74.21875 44.703125 73.484375 
Q 48.484375 72.75 52.59375 71.296875 
z
" id="DejaVuSans-36"/>
      </defs>
      <g transform="translate(49.193438 59.126681)scale(0.1 -0.1)">
       <use xlink:href="#DejaVuSans-36"/>
      </g>
     </g>
    </g>
    <g id="text_11">
     <!-- Percentage point -->
     <defs>
      <path d="M 19.671875 64.796875 
L 19.671875 37.40625 
L 32.078125 37.40625 
Q 38.96875 37.40625 42.71875 40.96875 
Q 46.484375 44.53125 46.484375 51.125 
Q 46.484375 57.671875 42.71875 61.234375 
Q 38.96875 64.796875 32.078125 64.796875 
z
M 9.8125 72.90625 
L 32.078125 72.90625 
Q 44.34375 72.90625 50.609375 67.359375 
Q 56.890625 61.8125 56.890625 51.125 
Q 56.890625 40.328125 50.609375 34.8125 
Q 44.34375 29.296875 32.078125 29.296875 
L 19.671875 29.296875 
L 19.671875 0 
L 9.8125 0 
z
" id="DejaVuSans-50"/>
      <path d="M 56.203125 29.59375 
L 56.203125 25.203125 
L 14.890625 25.203125 
Q 15.484375 15.921875 20.484375 11.0625 
Q 25.484375 6.203125 34.421875 6.203125 
Q 39.59375 6.203125 44.453125 7.46875 
Q 49.3125 8.734375 54.109375 11.28125 
L 54.109375 2.78125 
Q 49.265625 0.734375 44.1875 -0.34375 
Q 39.109375 -1.421875 33.890625 -1.421875 
Q 20.796875 -1.421875 13.15625 6.1875 
Q 5.515625 13.8125 5.515625 26.8125 
Q 5.515625 40.234375 12.765625 48.109375 
Q 20.015625 56 32.328125 56 
Q 43.359375 56 49.78125 48.890625 
Q 56.203125 41.796875 56.203125 29.59375 
z
M 47.21875 32.234375 
Q 47.125 39.59375 43.09375 43.984375 
Q 39.0625 48.390625 32.421875 48.390625 
Q 24.90625 48.390625 20.390625 44.140625 
Q 15.875 39.890625 15.1875 32.171875 
z
" id="DejaVuSans-65"/>
      <path d="M 41.109375 46.296875 
Q 39.59375 47.171875 37.8125 47.578125 
Q 36.03125 48 33.890625 48 
Q 26.265625 48 22.1875 43.046875 
Q 18.109375 38.09375 18.109375 28.8125 
L 18.109375 0 
L 9.078125 0 
L 9.078125 54.6875 
L 18.109375 54.6875 
L 18.109375 46.1875 
Q 20.953125 51.171875 25.484375 53.578125 
Q 30.03125 56 36.53125 56 
Q 37.453125 56 38.578125 55.875 
Q 39.703125 55.765625 41.0625 55.515625 
z
" id="DejaVuSans-72"/>
      <path d="M 48.78125 52.59375 
L 48.78125 44.1875 
Q 44.96875 46.296875 41.140625 47.34375 
Q 37.3125 48.390625 33.40625 48.390625 
Q 24.65625 48.390625 19.8125 42.84375 
Q 14.984375 37.3125 14.984375 27.296875 
Q 14.984375 17.28125 19.8125 11.734375 
Q 24.65625 6.203125 33.40625 6.203125 
Q 37.3125 6.203125 41.140625 7.25 
Q 44.96875 8.296875 48.78125 10.40625 
L 48.78125 2.09375 
Q 45.015625 0.34375 40.984375 -0.53125 
Q 36.96875 -1.421875 32.421875 -1.421875 
Q 20.0625 -1.421875 12.78125 6.34375 
Q 5.515625 14.109375 5.515625 27.296875 
Q 5.515625 40.671875 12.859375 48.328125 
Q 20.21875 56 33.015625 56 
Q 37.15625 56 41.109375 55.140625 
Q 45.0625 54.296875 48.78125 52.59375 
z
" id="DejaVuSans-63"/>
      <path d="M 54.890625 33.015625 
L 54.890625 0 
L 45.90625 0 
L 45.90625 32.71875 
Q 45.90625 40.484375 42.875 44.328125 
Q 39.84375 48.1875 33.796875 48.1875 
Q 26.515625 48.1875 22.3125 43.546875 
Q 18.109375 38.921875 18.109375 30.90625 
L 18.109375 0 
L 9.078125 0 
L 9.078125 54.6875 
L 18.109375 54.6875 
L 18.109375 46.1875 
Q 21.34375 51.125 25.703125 53.5625 
Q 30.078125 56 35.796875 56 
Q 45.21875 56 50.046875 50.171875 
Q 54.890625 44.34375 54.890625 33.015625 
z
" id="DejaVuSans-6e"/>
      <path d="M 18.3125 70.21875 
L 18.3125 54.6875 
L 36.8125 54.6875 
L 36.8125 47.703125 
L 18.3125 47.703125 
L 18.3125 18.015625 
Q 18.3125 11.328125 20.140625 9.421875 
Q 21.96875 7.515625 27.59375 7.515625 
L 36.8125 7.515625 
L 36.8125 0 
L 27.59375 0 
Q 17.1875 0 13.234375 3.875 
Q 9.28125 7.765625 9.28125 18.015625 
L 9.28125 47.703125 
L 2.6875 47.703125 
L 2.6875 54.6875 
L 9.28125 54.6875 
L 9.28125 70.21875 
z
" id="DejaVuSans-74"/>
      <path d="M 34.28125 27.484375 
Q 23.390625 27.484375 19.1875 25 
Q 14.984375 22.515625 14.984375 16.5 
Q 14.984375 11.71875 18.140625 8.90625 
Q 21.296875 6.109375 26.703125 6.109375 
Q 34.1875 6.109375 38.703125 11.40625 
Q 43.21875 16.703125 43.21875 25.484375 
L 43.21875 27.484375 
z
M 52.203125 31.203125 
L 52.203125 0 
L 43.21875 0 
L 43.21875 8.296875 
Q 40.140625 3.328125 35.546875 0.953125 
Q 30.953125 -1.421875 24.3125 -1.421875 
Q 15.921875 -1.421875 10.953125 3.296875 
Q 6 8.015625 6 15.921875 
Q 6 25.140625 12.171875 29.828125 
Q 18.359375 34.515625 30.609375 34.515625 
L 43.21875 34.515625 
L 43.21875 35.40625 
Q 43.21875 41.609375 39.140625 45 
Q 35.0625 48.390625 27.6875 48.390625 
Q 23 48.390625 18.546875 47.265625 
Q 14.109375 46.140625 10.015625 43.890625 
L 10.015625 52.203125 
Q 14.9375 54.109375 19.578125 55.046875 
Q 24.21875 56 28.609375 56 
Q 40.484375 56 46.34375 49.84375 
Q 52.203125 43.703125 52.203125 31.203125 
z
" id="DejaVuSans-61"/>
      <path d="M 45.40625 27.984375 
Q 45.40625 37.75 41.375 43.109375 
Q 37.359375 48.484375 30.078125 48.484375 
Q 22.859375 48.484375 18.828125 43.109375 
Q 14.796875 37.75 14.796875 27.984375 
Q 14.796875 18.265625 18.828125 12.890625 
Q 22.859375 7.515625 30.078125 7.515625 
Q 37.359375 7.515625 41.375 12.890625 
Q 45.40625 18.265625 45.40625 27.984375 
z
M 54.390625 6.78125 
Q 54.390625 -7.171875 48.1875 -13.984375 
Q 42 -20.796875 29.203125 -20.796875 
Q 24.46875 -20.796875 20.265625 -20.09375 
Q 16.0625 -19.390625 12.109375 -17.921875 
L 12.109375 -9.1875 
Q 16.0625 -11.328125 19.921875 -12.34375 
Q 23.78125 -13.375 27.78125 -13.375 
Q 36.625 -13.375 41.015625 -8.765625 
Q 45.40625 -4.15625 45.40625 5.171875 
L 45.40625 9.625 
Q 42.625 4.78125 38.28125 2.390625 
Q 33.9375 0 27.875 0 
Q 17.828125 0 11.671875 7.65625 
Q 5.515625 15.328125 5.515625 27.984375 
Q 5.515625 40.671875 11.671875 48.328125 
Q 17.828125 56 27.875 56 
Q 33.9375 56 38.28125 53.609375 
Q 42.625 51.21875 45.40625 46.390625 
L 45.40625 54.6875 
L 54.390625 54.6875 
z
" id="DejaVuSans-67"/>
      <path id="DejaVuSans-20"/>
      <path d="M 18.109375 8.203125 
L 18.109375 -20.796875 
L 9.078125 -20.796875 
L 9.078125 54.6875 
L 18.109375 54.6875 
L 18.109375 46.390625 
Q 20.953125 51.265625 25.265625 53.625 
Q 29.59375 56 35.59375 56 
Q 45.5625 56 51.78125 48.09375 
Q 58.015625 40.1875 58.015625 27.296875 
Q 58.015625 14.40625 51.78125 6.484375 
Q 45.5625 -1.421875 35.59375 -1.421875 
Q 29.59375 -1.421875 25.265625 0.953125 
Q 20.953125 3.328125 18.109375 8.203125 
z
M 48.6875 27.296875 
Q 48.6875 37.203125 44.609375 42.84375 
Q 40.53125 48.484375 33.40625 48.484375 
Q 26.265625 48.484375 22.1875 42.84375 
Q 18.109375 37.203125 18.109375 27.296875 
Q 18.109375 17.390625 22.1875 11.75 
Q 26.265625 6.109375 33.40625 6.109375 
Q 40.53125 6.109375 44.609375 11.75 
Q 48.6875 17.390625 48.6875 27.296875 
z
" id="DejaVuSans-70"/>
      <path d="M 30.609375 48.390625 
Q 23.390625 48.390625 19.1875 42.75 
Q 14.984375 37.109375 14.984375 27.296875 
Q 14.984375 17.484375 19.15625 11.84375 
Q 23.34375 6.203125 30.609375 6.203125 
Q 37.796875 6.203125 41.984375 11.859375 
Q 46.1875 17.53125 46.1875 27.296875 
Q 46.1875 37.015625 41.984375 42.703125 
Q 37.796875 48.390625 30.609375 48.390625 
z
M 30.609375 56 
Q 42.328125 56 49.015625 48.375 
Q 55.71875 40.765625 55.71875 27.296875 
Q 55.71875 13.875 49.015625 6.21875 
Q 42.328125 -1.421875 30.609375 -1.421875 
Q 18.84375 -1.421875 12.171875 6.21875 
Q 5.515625 13.875 5.515625 27.296875 
Q 5.515625 40.765625 12.171875 48.375 
Q 18.84375 56 30.609375 56 
z
" id="DejaVuSans-6f"/>
      <path d="M 9.421875 54.6875 
L 18.40625 54.6875 
L 18.40625 0 
L 9.421875 0 
z
M 9.421875 75.984375 
L 18.40625 75.984375 
L 18.40625 64.59375 
L 9.421875 64.59375 
z
" id="DejaVuSans-69"/>
     </defs>
     <g transform="translate(34.318125 265.024687)rotate(-90)scale(0.12 -0.12)">
      <use xlink:href="#DejaVuSans-50"/>
      <use x="60.255859" xlink:href="#DejaVuSans-65"/>
      <use x="121.779297" xlink:href="#DejaVuSans-72"/>
      <use x="162.861328" xlink:href="#DejaVuSans-63"/>
      <use x="217.841797" xlink:href="#DejaVuSans-65"/>
      <use x="279.365234" xlink:href="#DejaVuSans-6e"/>
      <use x="342.744141" xlink:href="#DejaVuSans-74"/>
      <use x="381.953125" xlink:href="#DejaVuSans-61"/>
      <use x="443.232422" xlink:href="#DejaVuSans-67"/>
      <use x="506.708984" xlink:href="#DejaVuSans-65"/>
      <use x="568.232422" xlink:href="#DejaVuSans-20"/>
      <use x="600.019531" xlink:href="#DejaVuSans-70"/>
      <use x="663.496094" xlink:href="#DejaVuSans-6f"/>
      <use x="724.677734" xlink:href="#DejaVuSans-69"/>
      <use x="752.460938" xlink:href="#DejaVuSans-6e"/>
      <use x="815.839844" xlink:href="#DejaVuSans-74"/>
     </g>
    </g>
   </g>
   <g id="line2d_45">
    <path clip-path="url(#pd1d2428b4b)" d="M 70.392664 256.930034 
L 71.72939 255.85559 
L 73.066117 259.204901 
L 74.402843 254.968364 
L 75.73957 263.954239 
L 77.076296 261.939103 
L 78.413022 257.625986 
L 79.749749 258.386891 
L 81.086475 262.617972 
L 82.423202 265.22864 
L 83.759928 266.663482 
L 85.096654 266.748802 
L 86.433381 265.43433 
L 87.770107 266.407062 
L 89.106834 256.587382 
L 90.44356 264.804208 
L 91.780286 264.362077 
L 93.117013 272.072775 
L 94.453739 270.489803 
L 95.790466 263.565001 
L 97.127192 260.805557 
L 98.463918 262.2705 
L 99.800645 262.353233 
L 101.137371 255.383568 
L 102.474098 254.791616 
L 105.14755 248.466362 
L 106.484277 249.772904 
L 107.821003 245.824996 
L 109.15773 241.464552 
L 110.494456 243.510256 
L 111.831182 249.253734 
L 113.167909 258.857246 
L 114.504635 250.959615 
L 115.841362 247.253016 
L 117.178088 253.593757 
L 118.514814 255.37416 
L 119.851541 257.442377 
L 121.188267 255.655113 
L 122.524994 243.422167 
L 123.86172 244.899994 
L 125.198447 247.86581 
L 126.535173 244.901241 
L 127.871899 246.726384 
L 129.208626 242.15982 
L 130.545352 238.312651 
L 131.882079 231.511969 
L 133.218805 221.777253 
L 134.555531 216.60634 
L 135.892258 221.72898 
L 137.228984 216.885425 
L 138.565711 213.516451 
L 139.902437 221.883861 
L 141.239163 224.238845 
L 142.57589 215.289615 
L 143.912616 213.352808 
L 145.249343 214.2793 
L 146.586069 212.849432 
L 147.922795 220.127701 
L 149.259522 217.369939 
L 150.596248 216.681769 
L 151.932975 217.496094 
L 153.269701 204.388909 
L 154.606427 217.540534 
L 155.943154 221.538626 
L 157.27988 209.119685 
L 158.616607 211.786437 
L 159.953333 212.441244 
L 161.290059 205.309596 
L 162.626786 207.369097 
L 163.963512 214.707864 
L 165.300239 214.59846 
L 166.636965 214.319991 
L 167.973691 212.131539 
L 169.310418 208.270782 
L 170.647144 207.590007 
L 171.983871 209.773147 
L 173.320597 200.339466 
L 174.657323 200.940211 
L 175.99405 195.33857 
L 178.667503 185.993078 
L 180.004229 184.878612 
L 181.340956 191.407158 
L 182.677682 193.663563 
L 184.014408 185.961715 
L 185.351135 186.10747 
L 186.687861 184.789675 
L 188.024588 186.208885 
L 189.361314 179.029225 
L 190.69804 180.676574 
L 192.034767 178.932562 
L 193.371493 185.055147 
L 194.70822 184.189729 
L 196.044946 175.480356 
L 197.381672 180.945321 
L 198.718399 181.656719 
L 200.055125 179.721061 
L 201.391852 187.332598 
L 202.728578 186.419712 
L 204.065304 186.618621 
L 205.402031 189.292366 
L 206.738757 183.512667 
L 208.075484 176.791971 
L 209.41221 179.136746 
L 210.748936 182.142213 
L 212.085663 176.670096 
L 213.422389 175.601032 
L 214.759116 177.046523 
L 216.095842 179.544492 
L 217.432568 174.866605 
L 218.769295 179.664381 
L 220.106021 174.957793 
L 221.442748 176.582482 
L 222.779474 177.037826 
L 224.1162 176.805537 
L 225.452927 175.997847 
L 226.789653 172.027168 
L 228.12638 175.046512 
L 229.463106 175.08905 
L 230.799832 178.231408 
L 232.136559 173.876353 
L 233.473285 166.358918 
L 234.810012 177.220063 
L 236.146738 177.568872 
L 237.483465 182.488873 
L 238.820191 189.508519 
L 240.156917 185.508443 
L 241.493644 186.361798 
L 242.83037 181.314914 
L 244.167097 180.967536 
L 245.503823 175.272424 
L 246.840549 176.270037 
L 248.177276 170.26525 
L 249.514002 184.678178 
L 250.850729 187.545079 
L 252.187455 188.409472 
L 253.524181 186.564374 
L 254.860908 194.603026 
L 256.197634 189.484474 
L 257.534361 187.809583 
L 258.871087 184.968135 
L 260.207813 187.526205 
L 261.54454 195.340194 
L 262.881266 181.547652 
L 264.217993 187.588005 
L 265.554719 186.337312 
L 266.891445 192.269236 
L 268.228172 191.803393 
L 269.564898 194.146018 
L 272.238351 188.70092 
L 273.575077 189.586373 
L 274.911804 192.970324 
L 276.24853 193.34391 
L 277.585257 186.06152 
L 278.921983 191.327626 
L 280.258709 186.66393 
L 281.595436 187.305756 
L 282.932162 188.397632 
L 284.268889 179.763109 
L 285.605615 194.639866 
L 286.942341 195.118116 
L 288.279068 207.265686 
L 289.615794 202.246241 
L 290.952521 203.926269 
L 292.289247 211.837187 
L 293.625974 208.619143 
L 294.9627 203.233738 
L 296.299426 199.757639 
L 297.636153 203.785408 
L 298.972879 201.859827 
L 300.309606 200.912279 
L 301.646332 202.498427 
L 302.983058 210.041719 
L 304.319785 212.52713 
L 305.656511 210.139958 
L 306.993238 209.372618 
L 309.66669 206.08732 
L 311.003417 206.731574 
L 312.340143 210.144663 
L 313.67687 203.952822 
L 315.013596 200.766073 
L 316.350322 205.045123 
L 317.687049 202.799064 
L 319.023775 202.448836 
L 320.360502 196.496694 
L 321.697228 195.871067 
L 324.370681 203.162616 
L 325.707407 206.058043 
L 327.044134 202.559838 
L 328.38086 205.170904 
L 329.717586 204.78045 
L 331.054313 203.191525 
L 332.391039 195.590898 
L 333.727766 191.02018 
L 335.064492 194.052319 
L 336.401218 202.127522 
L 337.737945 196.398303 
L 339.074671 194.054759 
L 340.411398 193.750973 
L 341.748124 194.06691 
L 343.084851 197.714875 
L 344.421577 195.984908 
L 345.758303 213.424524 
L 347.09503 206.881363 
L 348.431756 201.13725 
L 349.768483 199.48403 
L 351.105209 203.739169 
L 352.441935 195.577721 
L 353.778662 203.521295 
L 355.115388 198.018836 
L 356.452115 198.327082 
L 357.788841 195.06391 
L 359.125567 200.408604 
L 360.462294 195.071497 
L 361.79902 197.98077 
L 363.135747 191.307427 
L 364.472473 193.288786 
L 365.809199 197.284142 
L 367.145926 189.52814 
L 368.482652 197.685308 
L 369.819379 192.619799 
L 371.156105 195.845844 
L 372.492831 194.456858 
L 373.829558 198.536967 
L 375.166284 192.707196 
L 376.503011 195.219942 
L 377.839737 197.055979 
L 379.176463 196.851175 
L 380.51319 194.99584 
L 381.849916 198.598875 
L 383.186643 205.471863 
L 384.523369 214.81971 
L 385.860095 217.719908 
L 387.196822 214.514246 
L 388.533548 224.149479 
L 389.870275 216.866721 
L 391.207001 215.234233 
L 392.543727 217.995181 
L 393.880454 214.237543 
L 395.21718 217.764023 
L 396.553907 227.229124 
L 397.890633 229.448065 
L 399.22736 225.431215 
L 400.564086 226.270762 
L 401.900812 229.519942 
L 403.237539 223.585852 
L 404.574265 233.2381 
L 405.910992 235.66797 
L 407.247718 240.12882 
L 408.584444 235.47388 
L 409.921171 235.339936 
L 412.594624 244.92054 
L 413.93135 244.874218 
L 415.268076 241.406252 
L 416.604803 235.34757 
L 417.941529 239.934204 
L 419.278256 243.329668 
L 421.951708 255.23527 
L 423.288435 249.99854 
L 424.625161 250.465796 
L 425.961888 256.664762 
L 427.298614 254.194447 
L 428.63534 252.610069 
L 429.972067 256.770254 
L 431.308793 257.749709 
L 432.64552 256.208775 
L 433.982246 254.35877 
L 435.318972 257.460938 
L 436.655699 252.823808 
L 437.992425 261.267982 
L 439.329152 265.878986 
L 440.665878 269.635073 
L 442.002604 267.001818 
L 443.339331 267.644508 
L 444.676057 263.993882 
L 446.012784 267.827238 
L 447.34951 266.619714 
L 448.686236 272.366611 
L 450.022963 283.521857 
L 451.359689 280.052409 
L 452.696416 278.141177 
L 454.033142 277.017168 
L 455.369869 269.43876 
L 456.706595 268.910424 
L 458.043321 278.635533 
L 459.380048 276.708885 
L 460.716774 281.606553 
L 462.053501 280.715365 
L 463.390227 281.629282 
L 464.726953 284.287725 
L 466.06368 275.312724 
L 467.400406 276.461077 
L 468.737133 287.327144 
L 470.073859 282.683621 
L 471.410585 289.347727 
L 472.747312 290.747635 
L 474.084038 288.928271 
L 475.420765 283.819645 
L 476.757491 285.266844 
L 478.094217 290.312236 
L 479.430944 288.591584 
L 480.76767 298.084162 
L 483.441123 284.718652 
L 484.777849 282.077559 
L 486.114576 281.495471 
L 487.451302 281.627355 
L 488.788029 275.301042 
L 490.124755 283.565342 
L 491.461481 288.514656 
L 492.798208 290.058273 
L 494.134934 286.812435 
L 495.471661 283.228167 
L 496.808387 281.474071 
L 498.145113 283.353528 
L 499.48184 286.30472 
L 500.818566 284.939452 
L 502.155293 281.648537 
L 503.492019 276.917505 
L 504.828745 270.450099 
L 506.165472 275.54191 
L 507.502198 281.390501 
L 508.838925 274.940108 
L 510.175651 269.132211 
L 511.512378 271.963816 
L 512.849104 269.852391 
L 514.18583 282.372578 
L 515.522557 278.965845 
L 516.859283 281.854386 
L 518.19601 287.374548 
L 519.532736 276.70692 
L 520.869462 279.376407 
L 522.206189 286.111941 
L 523.542915 287.20145 
L 524.879642 271.01338 
L 526.216368 267.202919 
L 527.553094 278.070337 
L 528.889821 275.974619 
L 530.226547 267.092059 
L 531.563274 269.617048 
L 531.563274 269.617048 
" style="fill:none;stroke:#000000;stroke-linecap:square;stroke-width:3;"/>
   </g>
   <g id="line2d_46">
    <path clip-path="url(#pd1d2428b4b)" d="M 71.72939 251.45162 
L 73.066117 251.189661 
L 74.402843 239.765779 
L 75.73957 240.63996 
L 77.076296 237.447407 
L 78.413022 228.784363 
L 79.749749 224.912826 
L 81.086475 222.52624 
L 82.423202 224.700373 
L 83.759928 221.665978 
L 85.096654 215.203334 
L 86.433381 208.169852 
L 87.770107 203.673487 
L 89.106834 190.888736 
L 90.44356 191.395157 
L 91.780286 187.99382 
L 93.117013 185.68602 
L 94.453739 180.541423 
L 95.790466 173.362498 
L 97.127192 169.418881 
L 98.463918 161.425851 
L 99.800645 154.299176 
L 101.137371 149.451807 
L 102.474098 143.746924 
L 105.14755 133.783706 
L 106.484277 136.221346 
L 107.821003 130.208735 
L 109.15773 127.052154 
L 110.494456 122.772501 
L 111.831182 124.651188 
L 113.167909 130.289486 
L 114.504635 125.30339 
L 115.841362 124.796904 
L 117.178088 125.795593 
L 118.514814 127.710982 
L 119.851541 127.776667 
L 121.188267 126.937162 
L 122.524994 119.875514 
L 123.86172 114.197396 
L 125.198447 112.442542 
L 126.535173 113.753185 
L 127.871899 117.226454 
L 129.208626 117.034302 
L 130.545352 113.23108 
L 131.882079 111.783823 
L 133.218805 111.288929 
L 134.555531 116.60373 
L 135.892258 125.44551 
L 137.228984 123.734812 
L 138.565711 123.935256 
L 139.902437 133.05963 
L 141.239163 136.13768 
L 142.57589 137.166502 
L 143.912616 132.291811 
L 145.249343 133.221353 
L 146.586069 136.529469 
L 147.922795 143.4832 
L 149.259522 142.176809 
L 150.596248 138.918697 
L 151.932975 139.137117 
L 153.269701 134.844406 
L 155.943154 146.527161 
L 157.27988 142.663182 
L 158.616607 141.757873 
L 159.953333 145.367281 
L 161.290059 143.574513 
L 162.626786 142.864684 
L 163.963512 141.121843 
L 165.300239 137.532706 
L 166.636965 136.985528 
L 167.973691 134.596823 
L 169.310418 129.309648 
L 170.647144 130.188841 
L 171.983871 130.100086 
L 173.320597 125.56075 
L 174.657323 127.2353 
L 175.99405 122.495047 
L 178.667503 113.704561 
L 180.004229 106.604209 
L 181.340956 112.307107 
L 182.677682 111.621034 
L 184.014408 109.352287 
L 185.351135 111.762227 
L 186.687861 110.667293 
L 188.024588 110.491315 
L 189.361314 104.305195 
L 190.69804 106.825703 
L 192.034767 102.600299 
L 193.371493 101.88945 
L 194.70822 104.164259 
L 196.044946 105.137526 
L 197.381672 107.752627 
L 198.718399 107.659932 
L 200.055125 109.171417 
L 201.391852 114.825949 
L 202.728578 113.462521 
L 204.065304 113.258191 
L 205.402031 114.706605 
L 206.738757 118.621867 
L 208.075484 121.421103 
L 209.41221 129.13764 
L 210.748936 133.724826 
L 212.085663 136.064801 
L 213.422389 141.402241 
L 214.759116 145.387367 
L 216.095842 148.20458 
L 217.432568 148.948029 
L 218.769295 151.753711 
L 220.106021 152.197255 
L 221.442748 156.799927 
L 222.779474 155.501812 
L 224.1162 155.466802 
L 225.452927 154.159537 
L 226.789653 151.86453 
L 228.12638 152.61265 
L 229.463106 150.562679 
L 230.799832 152.692054 
L 232.136559 150.221967 
L 233.473285 142.053375 
L 234.810012 147.28733 
L 236.146738 147.587897 
L 237.483465 144.917356 
L 238.820191 149.517478 
L 240.156917 148.330444 
L 241.493644 151.187821 
L 242.83037 150.348234 
L 245.503823 153.815651 
L 246.840549 157.658206 
L 248.177276 154.760992 
L 249.514002 165.861333 
L 250.850729 169.092995 
L 252.187455 169.702197 
L 253.524181 171.272892 
L 254.860908 180.877848 
L 256.197634 181.15119 
L 257.534361 177.191243 
L 258.871087 172.133585 
L 260.207813 171.004177 
L 261.54454 170.356075 
L 262.881266 159.564046 
L 264.217993 159.414736 
L 265.554719 157.214811 
L 266.891445 160.555599 
L 268.228172 161.775611 
L 269.564898 161.378079 
L 270.901625 155.721789 
L 272.238351 148.281484 
L 273.575077 147.904576 
L 274.911804 148.455453 
L 276.24853 145.051384 
L 277.585257 142.378252 
L 278.921983 142.365622 
L 280.258709 137.428024 
L 281.595436 134.006987 
L 282.932162 129.711437 
L 284.268889 126.179285 
L 285.605615 133.761738 
L 286.942341 132.340233 
L 288.279068 140.568144 
L 289.615794 139.778404 
L 290.952521 142.072151 
L 292.289247 146.042459 
L 293.625974 143.328348 
L 294.9627 139.463554 
L 296.299426 138.344743 
L 297.636153 136.772549 
L 298.972879 136.27249 
L 300.309606 134.089274 
L 301.646332 136.907429 
L 302.983058 143.566612 
L 304.319785 143.94006 
L 305.656511 144.840477 
L 308.329964 143.274861 
L 309.66669 140.149241 
L 311.003417 140.288137 
L 312.340143 143.155972 
L 313.67687 142.48036 
L 316.350322 142.686935 
L 317.687049 146.337117 
L 319.023775 146.506266 
L 320.360502 146.835278 
L 321.697228 147.917345 
L 323.033954 149.227186 
L 324.370681 156.035103 
L 325.707407 159.445419 
L 327.044134 153.344856 
L 328.38086 158.033849 
L 329.717586 164.222807 
L 331.054313 167.295704 
L 332.391039 165.849165 
L 333.727766 167.663726 
L 335.064492 170.839147 
L 336.401218 173.687794 
L 337.737945 171.194905 
L 339.074671 170.60417 
L 340.411398 171.698482 
L 341.748124 174.027669 
L 343.084851 179.096883 
L 344.421577 178.23102 
L 345.758303 184.324216 
L 347.09503 177.0847 
L 348.431756 174.273371 
L 349.768483 169.45936 
L 351.105209 169.453565 
L 352.441935 159.178465 
L 353.778662 163.359954 
L 355.115388 157.50346 
L 356.452115 154.195518 
L 357.788841 147.338361 
L 359.125567 148.990925 
L 360.462294 146.408311 
L 361.79902 144.521257 
L 363.135747 137.962531 
L 364.472473 136.54918 
L 365.809199 136.703698 
L 367.145926 130.112946 
L 368.482652 131.781457 
L 369.819379 124.590799 
L 371.156105 120.695086 
L 372.492831 117.92328 
L 373.829558 118.303546 
L 375.166284 109.152214 
L 376.503011 101.813735 
L 377.839737 98.12901 
L 379.176463 91.999422 
L 380.51319 83.226196 
L 381.849916 78.354012 
L 383.186643 80.711569 
L 384.523369 80.531329 
L 385.860095 76.847176 
L 387.196822 68.078815 
L 388.533548 69.007943 
L 389.870275 64.770239 
L 391.207001 62.238876 
L 392.543727 64.887991 
L 393.880454 59.920085 
L 395.21718 63.655937 
L 396.553907 65.342228 
L 397.890633 65.027288 
L 399.22736 62.183074 
L 400.564086 61.286974 
L 401.900812 65.956759 
L 403.237539 63.405484 
L 404.574265 66.215385 
L 405.910992 67.43343 
L 407.247718 67.762624 
L 408.584444 63.906741 
L 409.921171 62.107869 
L 411.257897 63.033744 
L 412.594624 66.297217 
L 413.93135 69.002919 
L 415.268076 65.188692 
L 417.941529 63.793483 
L 419.278256 67.511959 
L 420.614982 72.314054 
L 421.951708 74.886568 
L 423.288435 70.74378 
L 424.625161 68.145754 
L 425.961888 73.958199 
L 427.298614 72.358722 
L 428.63534 71.123392 
L 429.972067 75.928464 
L 431.308793 82.20295 
L 432.64552 77.004244 
L 433.982246 77.236735 
L 435.318972 83.492344 
L 436.655699 80.386045 
L 437.992425 78.482961 
L 439.329152 82.932675 
L 440.665878 88.573675 
L 442.002604 87.210145 
L 444.676057 87.651295 
L 446.012784 90.740559 
L 447.34951 90.603401 
L 448.686236 94.392029 
L 450.022963 105.642556 
L 451.359689 98.853874 
L 452.696416 97.62142 
L 454.033142 102.555234 
L 455.369869 97.16319 
L 456.706595 100.528909 
L 458.043321 102.889227 
L 459.380048 105.021903 
L 460.716774 107.522082 
L 462.053501 106.148436 
L 463.390227 105.713445 
L 464.726953 110.566853 
L 466.06368 109.143714 
L 467.400406 110.651665 
L 468.737133 119.213194 
L 470.073859 120.629463 
L 471.410585 130.764447 
L 472.747312 135.19698 
L 474.084038 138.402692 
L 475.420765 140.864844 
L 476.757491 145.903612 
L 479.430944 160.747858 
L 480.76767 165.293585 
L 482.104397 162.208359 
L 483.441123 157.817013 
L 484.777849 155.800311 
L 486.114576 157.051841 
L 487.451302 156.625147 
L 488.788029 151.827851 
L 490.124755 156.120222 
L 491.461481 157.578248 
L 492.798208 156.041756 
L 494.134934 153.312559 
L 495.471661 148.639703 
L 496.808387 147.503498 
L 498.145113 149.277792 
L 499.48184 154.609917 
L 500.818566 157.458604 
L 502.155293 155.537302 
L 503.492019 154.215578 
L 504.828745 150.83401 
L 506.165472 154.467191 
L 507.502198 159.805021 
L 510.175651 158.718527 
L 511.512378 162.859547 
L 512.849104 165.303496 
L 514.18583 176.223701 
L 515.522557 177.026685 
L 516.859283 178.196859 
L 518.19601 182.377272 
L 519.532736 174.748413 
L 520.869462 174.069225 
L 522.206189 178.296007 
L 523.542915 177.270404 
L 524.879642 168.399868 
L 526.216368 166.872824 
L 527.553094 177.367152 
L 528.889821 175.212103 
L 530.226547 173.383358 
L 531.563274 177.524619 
L 531.563274 177.524619 
" style="fill:none;stroke:#000080;stroke-linecap:square;stroke-width:3;"/>
   </g>
   <g id="line2d_47">
    <path clip-path="url(#pd1d2428b4b)" d="M 71.72939 254.246887 
L 73.066117 256.057358 
L 74.402843 261.094555 
L 75.73957 267.200344 
L 77.076296 267.162078 
L 78.413022 269.220394 
L 79.749749 271.996384 
L 81.086475 276.669961 
L 82.423202 275.379433 
L 83.759928 277.758914 
L 85.096654 282.642221 
L 87.770107 290.219682 
L 89.106834 291.02721 
L 90.44356 297.656171 
L 91.780286 298.178408 
L 93.117013 306.903523 
L 94.453739 309.06204 
L 95.790466 307.475524 
L 97.127192 307.644932 
L 98.463918 316.107143 
L 99.800645 322.344842 
L 101.137371 318.443968 
L 102.474098 323.223528 
L 103.810824 323.009269 
L 105.14755 323.912803 
L 106.484277 321.628074 
L 107.821003 322.328697 
L 109.15773 319.520236 
L 110.494456 324.531932 
L 113.167909 329.989202 
L 115.841362 323.515973 
L 117.178088 328.169357 
L 118.514814 327.446808 
L 119.851541 329.055151 
L 121.188267 328.165982 
L 122.524994 322.607413 
L 123.86172 329.777742 
L 125.198447 334.556449 
L 126.535173 330.269265 
L 127.871899 328.941116 
L 129.208626 324.664615 
L 130.545352 324.746804 
L 131.882079 319.670813 
L 133.218805 311.53903 
L 134.555531 302.565084 
L 135.892258 300.715675 
L 138.565711 295.119634 
L 139.902437 295.69452 
L 141.239163 295.724328 
L 142.57589 287.198342 
L 143.912616 291.137634 
L 145.249343 292.605535 
L 146.586069 289.854867 
L 147.922795 291.225793 
L 149.259522 291.088725 
L 150.596248 294.428259 
L 151.932975 296.259384 
L 153.269701 287.953554 
L 154.606427 295.521582 
L 155.943154 294.907778 
L 157.27988 286.59813 
L 158.616607 290.815649 
L 159.953333 289.150718 
L 161.290059 283.796472 
L 162.626786 286.593409 
L 163.963512 296.441116 
L 165.300239 299.908199 
L 166.636965 299.376115 
L 167.973691 299.64079 
L 169.310418 302.20401 
L 170.647144 301.693727 
L 171.983871 304.195264 
L 173.320597 299.294802 
L 174.657323 298.229411 
L 175.99405 298.32914 
L 177.330776 299.026396 
L 178.667503 299.428261 
L 180.004229 305.872752 
L 181.340956 306.709873 
L 182.677682 310.666681 
L 184.014408 305.628233 
L 185.351135 304.336766 
L 186.687861 304.576578 
L 188.024588 306.584927 
L 189.361314 306.582382 
L 190.69804 307.163652 
L 192.034767 310.150386 
L 193.371493 317.231671 
L 194.70822 314.189102 
L 196.044946 304.558269 
L 197.381672 307.969842 
L 198.718399 308.835322 
L 200.055125 305.271416 
L 201.391852 307.220139 
L 202.728578 308.707565 
L 204.065304 309.981637 
L 205.402031 312.00798 
L 208.075484 293.647727 
L 209.41221 289.252771 
L 210.748936 288.064997 
L 212.085663 280.966019 
L 213.422389 275.679512 
L 214.759116 273.993389 
L 216.095842 274.782357 
L 217.432568 270.082067 
L 218.769295 272.22572 
L 220.106021 267.432781 
L 221.442748 264.684333 
L 222.779474 266.549199 
L 224.1162 267.099185 
L 225.452927 268.421607 
L 226.789653 267.752562 
L 228.12638 271.220418 
L 229.463106 274.215776 
L 230.799832 276.409056 
L 232.136559 274.503261 
L 233.473285 274.923689 
L 234.810012 282.004528 
L 236.146738 282.081254 
L 237.483465 289.833055 
L 238.820191 292.848759 
L 240.156917 289.532462 
L 241.493644 288.007237 
L 242.83037 284.833919 
L 244.167097 283.458412 
L 245.503823 277.320353 
L 246.840549 274.961712 
L 248.177276 271.830628 
L 249.514002 275.036108 
L 250.850729 273.77529 
L 252.187455 273.916549 
L 253.524181 269.900814 
L 254.860908 267.650534 
L 256.197634 260.263775 
L 257.534361 260.937573 
L 258.871087 261.404867 
L 260.207813 263.523826 
L 261.54454 269.618903 
L 262.881266 264.170066 
L 264.217993 268.477132 
L 265.554719 267.452522 
L 266.891445 267.722505 
L 268.228172 263.997366 
L 269.564898 265.349166 
L 270.901625 266.434442 
L 272.238351 270.266991 
L 273.575077 270.619969 
L 274.911804 272.544414 
L 276.24853 275.114781 
L 277.585257 269.189265 
L 278.921983 274.032677 
L 280.258709 273.022168 
L 281.595436 276.047318 
L 282.932162 280.901319 
L 284.268889 274.773391 
L 285.605615 281.404857 
L 286.942341 283.002578 
L 288.279068 286.019362 
L 289.615794 280.420173 
L 290.952521 279.802015 
L 292.289247 283.493912 
L 293.625974 282.650771 
L 294.9627 281.196518 
L 296.299426 279.293848 
L 297.636153 284.747884 
L 298.972879 283.783427 
L 300.309606 286.09981 
L 301.646332 284.92988 
L 302.983058 286.300024 
L 304.319785 288.849101 
L 305.656511 286.41896 
L 306.993238 287.114059 
L 308.329964 287.49357 
L 309.66669 290.129789 
L 311.003417 290.867718 
L 312.340143 291.333272 
L 313.67687 286.22535 
L 315.013596 283.774288 
L 316.350322 288.267837 
L 317.687049 282.766949 
L 319.023775 282.231495 
L 320.360502 276.879204 
L 321.697228 275.579217 
L 323.033954 278.204923 
L 324.370681 275.907653 
L 325.707407 276.178043 
L 327.044134 279.576497 
L 328.38086 278.321153 
L 329.717586 272.282459 
L 331.054313 268.377422 
L 333.727766 258.545782 
L 335.064492 259.429455 
L 336.401218 265.469897 
L 337.737945 262.638964 
L 339.074671 261.954927 
L 340.411398 261.496294 
L 341.748124 259.94688 
L 343.084851 258.685444 
L 344.421577 258.862675 
L 345.758303 271.223693 
L 347.09503 272.267395 
L 348.431756 270.121032 
L 349.768483 273.279672 
L 351.105209 276.917859 
L 352.441935 278.727169 
L 353.778662 282.194774 
L 355.115388 281.996496 
L 359.125567 291.661718 
L 360.462294 288.072888 
L 361.79902 292.217844 
L 363.135747 291.757161 
L 364.472473 293.74878 
L 365.809199 296.16523 
L 367.145926 294.028933 
L 368.482652 298.006995 
L 369.819379 299.087803 
L 371.156105 304.369725 
L 372.492831 302.861914 
L 373.829558 302.775368 
L 375.166284 301.770871 
L 376.503011 307.530295 
L 377.839737 308.426018 
L 380.51319 311.828106 
L 381.849916 316.008027 
L 383.186643 316.915209 
L 384.523369 322.463428 
L 385.860095 325.090466 
L 387.196822 326.795589 
L 388.533548 332.400634 
L 389.870275 326.051573 
L 391.207001 324.955894 
L 392.543727 323.033891 
L 393.880454 322.374046 
L 395.21718 320.826674 
L 396.553907 327.564783 
L 397.890633 329.670128 
L 399.22736 327.195701 
L 400.564086 327.581774 
L 401.900812 324.549017 
L 403.237539 320.050233 
L 404.574265 325.380832 
L 405.910992 326.090084 
L 407.247718 329.684631 
L 408.584444 328.216769 
L 409.921171 330.124842 
L 411.257897 333.24446 
L 412.594624 334.218569 
L 413.93135 331.197371 
L 415.268076 331.745887 
L 416.604803 326.527353 
L 417.941529 331.153832 
L 419.278256 330.944623 
L 420.614982 332.430878 
L 421.951708 336.27252 
L 423.288435 335.754181 
L 424.625161 339.670418 
L 425.961888 340.758612 
L 427.298614 340.547534 
L 428.63534 341.140663 
L 429.972067 341.413937 
L 431.308793 336.479642 
L 432.64552 340.44718 
L 433.982246 339.100642 
L 435.318972 336.912453 
L 436.655699 336.589869 
L 437.992425 346.664144 
L 439.329152 347.17929 
L 440.665878 346.503768 
L 442.002604 346.131217 
L 443.339331 348.070484 
L 444.676057 346.09266 
L 446.012784 348.029351 
L 447.34951 348.987186 
L 448.686236 353.151555 
L 450.022963 354.717069 
L 451.359689 357.887544 
L 452.696416 358.294501 
L 454.033142 353.929672 
L 455.369869 353.772231 
L 456.706595 352.475651 
L 458.043321 361.446559 
L 459.380048 359.658209 
L 460.716774 363.679295 
L 463.390227 367.52179 
L 464.726953 366.114089 
L 466.06368 359.636964 
L 467.400406 361.405069 
L 468.737133 365.611479 
L 470.073859 361.547585 
L 472.747312 358.159443 
L 474.084038 354.199789 
L 475.420765 347.971099 
L 476.757491 345.570604 
L 478.094217 344.479656 
L 479.430944 336.451439 
L 480.76767 342.983618 
L 482.104397 340.975541 
L 483.441123 340.213729 
L 484.777849 341.730631 
L 486.114576 341.281033 
L 487.451302 342.884243 
L 488.788029 342.180196 
L 490.124755 347.049703 
L 491.461481 351.254518 
L 492.798208 354.975878 
L 494.134934 355.024473 
L 495.471661 357.50615 
L 496.808387 358.105473 
L 498.145113 359.614206 
L 499.48184 358.472881 
L 500.818566 354.990546 
L 502.155293 354.526427 
L 503.492019 351.909702 
L 504.828745 349.812668 
L 506.165472 352.746806 
L 507.502198 354.07059 
L 508.838925 349.409283 
L 510.175651 345.166506 
L 511.512378 345.15375 
L 512.849104 341.285789 
L 514.18583 343.729284 
L 515.522557 341.164914 
L 516.859283 343.866572 
L 518.19601 346.223408 
L 519.532736 343.731313 
L 520.869462 347.684693 
L 523.542915 353.893326 
L 524.879642 347.868445 
L 526.216368 346.659032 
L 527.553094 347.642411 
L 528.889821 348.402419 
L 530.226547 342.133855 
L 531.563274 341.53593 
L 531.563274 341.53593 
" style="fill:none;stroke:#ffa500;stroke-linecap:square;stroke-width:3;"/>
   </g>
   <g id="line2d_48">
    <path clip-path="url(#pd1d2428b4b)" d="M 71.72939 254.555052 
L 73.066117 254.271353 
L 75.73957 255.002946 
L 77.076296 254.701894 
L 78.413022 255.648613 
L 79.749749 256.267641 
L 81.086475 257.133412 
L 82.423202 257.833735 
L 83.759928 259.047296 
L 85.096654 259.951261 
L 86.433381 261.264496 
L 87.770107 262.235973 
L 89.106834 263.82695 
L 90.44356 264.393146 
L 91.780286 266.350544 
L 93.117013 267.241132 
L 94.453739 268.267121 
L 95.790466 269.759975 
L 99.800645 271.920647 
L 101.137371 273.45612 
L 102.474098 273.590409 
L 103.810824 275.149262 
L 106.484277 277.17038 
L 107.821003 278.393211 
L 109.15773 279.864885 
L 110.494456 281.064659 
L 113.167909 283.234978 
L 114.504635 283.603799 
L 115.841362 283.423733 
L 118.514814 284.562489 
L 119.851541 284.899211 
L 121.188267 284.785699 
L 122.524994 285.1212 
L 126.535173 284.943333 
L 127.871899 284.589282 
L 130.545352 284.30751 
L 131.882079 284.004054 
L 133.218805 282.872058 
L 134.555531 281.337787 
L 135.892258 279.448906 
L 137.228984 279.047918 
L 138.565711 278.310466 
L 139.902437 276.964565 
L 141.239163 276.19908 
L 142.57589 274.734908 
L 143.912616 273.723479 
L 145.249343 272.243328 
L 146.586069 270.247529 
L 147.922795 269.19341 
L 149.259522 267.872225 
L 150.596248 267.096699 
L 151.932975 265.855911 
L 154.606427 264.887269 
L 155.943154 263.845898 
L 157.27988 263.596628 
L 158.616607 262.947872 
L 159.953333 261.655088 
L 162.626786 261.637496 
L 163.963512 260.869353 
L 165.300239 260.880057 
L 166.636965 261.67901 
L 167.973691 261.612945 
L 170.647144 259.423622 
L 171.983871 259.192776 
L 174.657323 259.188231 
L 177.330776 257.198947 
L 178.667503 256.57052 
L 180.004229 256.11127 
L 181.340956 256.099158 
L 182.677682 255.084273 
L 184.014408 254.689081 
L 185.351135 253.715892 
L 188.024588 252.839251 
L 189.361314 251.847914 
L 190.69804 250.393175 
L 192.034767 249.887557 
L 193.371493 249.639461 
L 196.044946 249.489514 
L 197.381672 248.927609 
L 198.718399 248.866045 
L 201.391852 248.990769 
L 202.728578 247.953752 
L 205.402031 246.281677 
L 206.738757 245.786928 
L 208.075484 245.426826 
L 209.41221 244.449933 
L 210.748936 244.055912 
L 212.085663 243.342726 
L 213.422389 242.222665 
L 214.759116 241.369094 
L 216.095842 240.260833 
L 217.432568 239.53974 
L 218.769295 239.388141 
L 220.106021 239.03091 
L 221.442748 238.80134 
L 222.779474 238.689905 
L 225.452927 237.119742 
L 226.789653 236.113093 
L 228.12638 234.916441 
L 229.463106 234.013576 
L 230.799832 232.833264 
L 232.136559 232.854075 
L 233.473285 233.084791 
L 234.810012 231.631131 
L 236.146738 231.602637 
L 237.483465 231.441369 
L 238.820191 230.84518 
L 240.156917 231.348427 
L 241.493644 230.869624 
L 242.83037 229.835638 
L 244.167097 229.101472 
L 245.503823 227.839285 
L 246.840549 227.352979 
L 249.514002 227.483589 
L 250.850729 228.379642 
L 252.187455 228.49357 
L 254.860908 229.777483 
L 256.197634 231.772346 
L 260.207813 236.701033 
L 262.881266 241.516368 
L 265.554719 245.372805 
L 266.891445 247.693957 
L 268.228172 249.73324 
L 269.564898 251.121596 
L 270.901625 252.999768 
L 274.911804 255.673278 
L 277.585257 258.196823 
L 278.921983 258.632147 
L 280.258709 259.916557 
L 281.595436 260.95427 
L 282.932162 261.487695 
L 284.268889 262.513252 
L 285.605615 263.17609 
L 286.942341 263.478123 
L 288.279068 264.380997 
L 289.615794 265.750482 
L 290.952521 265.75492 
L 293.625974 266.342842 
L 294.9627 266.276483 
L 296.299426 265.821864 
L 297.636153 265.967791 
L 298.972879 265.506726 
L 300.309606 264.426011 
L 301.646332 264.363934 
L 304.319785 263.440785 
L 306.993238 261.841787 
L 309.66669 259.511106 
L 311.003417 259.278535 
L 312.340143 259.358235 
L 313.67687 258.949928 
L 315.013596 258.075423 
L 317.687049 257.397814 
L 319.023775 257.413891 
L 320.360502 256.485028 
L 321.697228 256.077321 
L 323.033954 255.871708 
L 324.370681 254.922676 
L 328.38086 252.518717 
L 329.717586 251.978 
L 331.054313 251.221215 
L 333.727766 248.513488 
L 335.064492 247.486533 
L 336.401218 246.672647 
L 337.737945 246.26725 
L 340.411398 244.259013 
L 341.748124 243.795177 
L 343.084851 243.635365 
L 345.758303 241.579431 
L 347.09503 241.232083 
L 348.431756 240.445662 
L 349.768483 240.447814 
L 351.105209 241.070561 
L 353.778662 241.669383 
L 355.115388 242.221696 
L 357.788841 242.991539 
L 359.125567 243.458776 
L 360.462294 244.293115 
L 361.79902 244.944484 
L 363.135747 245.290551 
L 365.809199 248.118029 
L 367.145926 249.089077 
L 368.482652 251.599672 
L 369.819379 252.644013 
L 371.156105 254.483848 
L 372.492831 257.37448 
L 373.829558 261.160869 
L 379.176463 278.512905 
L 380.51319 283.644353 
L 381.849916 287.939652 
L 383.186643 291.547901 
L 387.196822 303.342657 
L 389.870275 309.747725 
L 393.880454 315.646228 
L 395.21718 316.984228 
L 396.553907 318.024929 
L 397.890633 318.453465 
L 400.564086 321.10483 
L 401.900812 322.716981 
L 403.237539 323.832951 
L 404.574265 325.344699 
L 407.247718 326.38438 
L 408.584444 327.053185 
L 409.921171 326.810041 
L 412.594624 328.10757 
L 413.93135 328.376744 
L 416.604803 328.033027 
L 417.941529 328.689705 
L 419.278256 328.575902 
L 420.614982 328.347107 
L 423.288435 327.203395 
L 424.625161 326.35244 
L 427.298614 324.991006 
L 429.972067 323.130669 
L 432.64552 322.460166 
L 433.982246 321.72421 
L 435.318972 320.758956 
L 436.655699 319.550709 
L 437.992425 319.823692 
L 439.329152 319.469836 
L 440.665878 318.260445 
L 442.002604 317.363272 
L 443.339331 315.801917 
L 444.676057 313.952744 
L 446.012784 312.760144 
L 450.022963 306.865047 
L 451.359689 307.013807 
L 452.696416 305.928072 
L 454.033142 304.235077 
L 455.369869 302.206155 
L 456.706595 299.608679 
L 458.043321 298.002562 
L 459.380048 295.731589 
L 462.053501 292.619596 
L 463.390227 292.096863 
L 464.726953 291.309599 
L 466.06368 290.234861 
L 467.400406 288.107159 
L 471.410585 282.447533 
L 472.747312 281.094028 
L 474.084038 280.028606 
L 478.094217 275.892955 
L 479.430944 275.095102 
L 483.441123 270.390725 
L 484.777849 268.249433 
L 486.114576 266.865413 
L 487.451302 265.820781 
L 491.461481 263.384706 
L 494.134934 262.178219 
L 495.471661 260.78513 
L 496.808387 259.567915 
L 498.145113 258.164345 
L 499.48184 256.924737 
L 500.818566 256.193117 
L 504.828745 253.506237 
L 506.165472 252.030729 
L 507.502198 251.217705 
L 508.838925 249.915467 
L 510.175651 248.949993 
L 511.512378 247.653334 
L 512.849104 246.965922 
L 514.18583 246.122409 
L 515.522557 244.477061 
L 518.19601 242.476683 
L 520.869462 241.325305 
L 522.206189 240.635949 
L 523.542915 239.740535 
L 524.879642 238.447883 
L 526.216368 237.373879 
L 528.889821 236.062913 
L 530.226547 235.277662 
L 531.563274 234.259314 
L 531.563274 234.259314 
" style="fill:none;stroke:#800000;stroke-linecap:square;stroke-width:3;"/>
   </g>
   <g id="line2d_49">
    <path clip-path="url(#pd1d2428b4b)" d="M 69.055937 254.522303 
L 532.9 254.522303 
" style="fill:none;stroke:#000000;stroke-linecap:square;stroke-width:1.5;"/>
   </g>
   <g id="patch_3">
    <path d="M 69.055938 382.901875 
L 532.9 382.901875 
" style="fill:none;stroke:#000000;stroke-linecap:square;stroke-linejoin:miter;stroke-width:0.8;"/>
   </g>
   <g id="legend_1">
    <g id="patch_4">
     <path d="M 245.9475 377.901875 
L 356.008438 377.901875 
Q 358.008438 377.901875 358.008438 375.901875 
L 358.008438 318.189375 
Q 358.008438 316.189375 356.008438 316.189375 
L 245.9475 316.189375 
Q 243.9475 316.189375 243.9475 318.189375 
L 243.9475 375.901875 
Q 243.9475 377.901875 245.9475 377.901875 
z
" style="fill:#ffffff;opacity:0.8;stroke:#cccccc;stroke-linejoin:miter;"/>
    </g>
    <g id="line2d_50">
     <path d="M 247.9475 324.287812 
L 267.9475 324.287812 
" style="fill:none;stroke:#000000;stroke-linecap:square;stroke-width:3;"/>
    </g>
    <g id="line2d_51"/>
    <g id="text_12">
     <!-- Change in LFPR -->
     <defs>
      <path d="M 64.40625 67.28125 
L 64.40625 56.890625 
Q 59.421875 61.53125 53.78125 63.8125 
Q 48.140625 66.109375 41.796875 66.109375 
Q 29.296875 66.109375 22.65625 58.46875 
Q 16.015625 50.828125 16.015625 36.375 
Q 16.015625 21.96875 22.65625 14.328125 
Q 29.296875 6.6875 41.796875 6.6875 
Q 48.140625 6.6875 53.78125 8.984375 
Q 59.421875 11.28125 64.40625 15.921875 
L 64.40625 5.609375 
Q 59.234375 2.09375 53.4375 0.328125 
Q 47.65625 -1.421875 41.21875 -1.421875 
Q 24.65625 -1.421875 15.125 8.703125 
Q 5.609375 18.84375 5.609375 36.375 
Q 5.609375 53.953125 15.125 64.078125 
Q 24.65625 74.21875 41.21875 74.21875 
Q 47.75 74.21875 53.53125 72.484375 
Q 59.328125 70.75 64.40625 67.28125 
z
" id="DejaVuSans-43"/>
      <path d="M 54.890625 33.015625 
L 54.890625 0 
L 45.90625 0 
L 45.90625 32.71875 
Q 45.90625 40.484375 42.875 44.328125 
Q 39.84375 48.1875 33.796875 48.1875 
Q 26.515625 48.1875 22.3125 43.546875 
Q 18.109375 38.921875 18.109375 30.90625 
L 18.109375 0 
L 9.078125 0 
L 9.078125 75.984375 
L 18.109375 75.984375 
L 18.109375 46.1875 
Q 21.34375 51.125 25.703125 53.5625 
Q 30.078125 56 35.796875 56 
Q 45.21875 56 50.046875 50.171875 
Q 54.890625 44.34375 54.890625 33.015625 
z
" id="DejaVuSans-68"/>
      <path d="M 9.8125 72.90625 
L 19.671875 72.90625 
L 19.671875 8.296875 
L 55.171875 8.296875 
L 55.171875 0 
L 9.8125 0 
z
" id="DejaVuSans-4c"/>
      <path d="M 9.8125 72.90625 
L 51.703125 72.90625 
L 51.703125 64.59375 
L 19.671875 64.59375 
L 19.671875 43.109375 
L 48.578125 43.109375 
L 48.578125 34.8125 
L 19.671875 34.8125 
L 19.671875 0 
L 9.8125 0 
z
" id="DejaVuSans-46"/>
      <path d="M 44.390625 34.1875 
Q 47.5625 33.109375 50.5625 29.59375 
Q 53.5625 26.078125 56.59375 19.921875 
L 66.609375 0 
L 56 0 
L 46.6875 18.703125 
Q 43.0625 26.03125 39.671875 28.421875 
Q 36.28125 30.8125 30.421875 30.8125 
L 19.671875 30.8125 
L 19.671875 0 
L 9.8125 0 
L 9.8125 72.90625 
L 32.078125 72.90625 
Q 44.578125 72.90625 50.734375 67.671875 
Q 56.890625 62.453125 56.890625 51.90625 
Q 56.890625 45.015625 53.6875 40.46875 
Q 50.484375 35.9375 44.390625 34.1875 
z
M 19.671875 64.796875 
L 19.671875 38.921875 
L 32.078125 38.921875 
Q 39.203125 38.921875 42.84375 42.21875 
Q 46.484375 45.515625 46.484375 51.90625 
Q 46.484375 58.296875 42.84375 61.546875 
Q 39.203125 64.796875 32.078125 64.796875 
z
" id="DejaVuSans-52"/>
     </defs>
     <g transform="translate(275.9475 327.787812)scale(0.1 -0.1)">
      <use xlink:href="#DejaVuSans-43"/>
      <use x="69.824219" xlink:href="#DejaVuSans-68"/>
      <use x="133.203125" xlink:href="#DejaVuSans-61"/>
      <use x="194.482422" xlink:href="#DejaVuSans-6e"/>
      <use x="257.861328" xlink:href="#DejaVuSans-67"/>
      <use x="321.337891" xlink:href="#DejaVuSans-65"/>
      <use x="382.861328" xlink:href="#DejaVuSans-20"/>
      <use x="414.648438" xlink:href="#DejaVuSans-69"/>
      <use x="442.431641" xlink:href="#DejaVuSans-6e"/>
      <use x="505.810547" xlink:href="#DejaVuSans-20"/>
      <use x="537.597656" xlink:href="#DejaVuSans-4c"/>
      <use x="593.310547" xlink:href="#DejaVuSans-46"/>
      <use x="650.830078" xlink:href="#DejaVuSans-50"/>
      <use x="711.132812" xlink:href="#DejaVuSans-52"/>
     </g>
    </g>
    <g id="line2d_52">
     <path d="M 247.9475 338.965937 
L 267.9475 338.965937 
" style="fill:none;stroke:#000080;stroke-linecap:square;stroke-width:3;"/>
    </g>
    <g id="line2d_53"/>
    <g id="text_13">
     <!-- Exit -->
     <defs>
      <path d="M 9.8125 72.90625 
L 55.90625 72.90625 
L 55.90625 64.59375 
L 19.671875 64.59375 
L 19.671875 43.015625 
L 54.390625 43.015625 
L 54.390625 34.71875 
L 19.671875 34.71875 
L 19.671875 8.296875 
L 56.78125 8.296875 
L 56.78125 0 
L 9.8125 0 
z
" id="DejaVuSans-45"/>
      <path d="M 54.890625 54.6875 
L 35.109375 28.078125 
L 55.90625 0 
L 45.3125 0 
L 29.390625 21.484375 
L 13.484375 0 
L 2.875 0 
L 24.125 28.609375 
L 4.6875 54.6875 
L 15.28125 54.6875 
L 29.78125 35.203125 
L 44.28125 54.6875 
z
" id="DejaVuSans-78"/>
     </defs>
     <g transform="translate(275.9475 342.465937)scale(0.1 -0.1)">
      <use xlink:href="#DejaVuSans-45"/>
      <use x="63.183594" xlink:href="#DejaVuSans-78"/>
      <use x="122.363281" xlink:href="#DejaVuSans-69"/>
      <use x="150.146484" xlink:href="#DejaVuSans-74"/>
     </g>
    </g>
    <g id="line2d_54">
     <path d="M 247.9475 353.644063 
L 267.9475 353.644063 
" style="fill:none;stroke:#ffa500;stroke-linecap:square;stroke-width:3;"/>
    </g>
    <g id="line2d_55"/>
    <g id="text_14">
     <!-- Entry -->
     <defs>
      <path d="M 32.171875 -5.078125 
Q 28.375 -14.84375 24.75 -17.8125 
Q 21.140625 -20.796875 15.09375 -20.796875 
L 7.90625 -20.796875 
L 7.90625 -13.28125 
L 13.1875 -13.28125 
Q 16.890625 -13.28125 18.9375 -11.515625 
Q 21 -9.765625 23.484375 -3.21875 
L 25.09375 0.875 
L 2.984375 54.6875 
L 12.5 54.6875 
L 29.59375 11.921875 
L 46.6875 54.6875 
L 56.203125 54.6875 
z
" id="DejaVuSans-79"/>
     </defs>
     <g transform="translate(275.9475 357.144063)scale(0.1 -0.1)">
      <use xlink:href="#DejaVuSans-45"/>
      <use x="63.183594" xlink:href="#DejaVuSans-6e"/>
      <use x="126.5625" xlink:href="#DejaVuSans-74"/>
      <use x="165.771484" xlink:href="#DejaVuSans-72"/>
      <use x="206.884766" xlink:href="#DejaVuSans-79"/>
     </g>
    </g>
    <g id="line2d_56">
     <path d="M 247.9475 368.322187 
L 267.9475 368.322187 
" style="fill:none;stroke:#800000;stroke-linecap:square;stroke-width:3;"/>
    </g>
    <g id="line2d_57"/>
    <g id="text_15">
     <!-- Churn -->
     <defs>
      <path d="M 8.5 21.578125 
L 8.5 54.6875 
L 17.484375 54.6875 
L 17.484375 21.921875 
Q 17.484375 14.15625 20.5 10.265625 
Q 23.53125 6.390625 29.59375 6.390625 
Q 36.859375 6.390625 41.078125 11.03125 
Q 45.3125 15.671875 45.3125 23.6875 
L 45.3125 54.6875 
L 54.296875 54.6875 
L 54.296875 0 
L 45.3125 0 
L 45.3125 8.40625 
Q 42.046875 3.421875 37.71875 1 
Q 33.40625 -1.421875 27.6875 -1.421875 
Q 18.265625 -1.421875 13.375 4.4375 
Q 8.5 10.296875 8.5 21.578125 
z
M 31.109375 56 
z
" id="DejaVuSans-75"/>
     </defs>
     <g transform="translate(275.9475 371.822187)scale(0.1 -0.1)">
      <use xlink:href="#DejaVuSans-43"/>
      <use x="69.824219" xlink:href="#DejaVuSans-68"/>
      <use x="133.203125" xlink:href="#DejaVuSans-75"/>
      <use x="196.582031" xlink:href="#DejaVuSans-72"/>
      <use x="237.679688" xlink:href="#DejaVuSans-6e"/>
     </g>
    </g>
   </g>
  </g>
 </g>
 <defs>
  <clipPath id="pd1d2428b4b">
   <rect height="338.361875" width="463.844063" x="69.055937" y="44.54"/>
  </clipPath>
 </defs>
</svg>
