<?xml version="1.0" encoding="utf-8" standalone="no"?>
<!DOCTYPE svg PUBLIC "-//W3C//DTD SVG 1.1//EN"
  "http://www.w3.org/Graphics/SVG/1.1/DTD/svg11.dtd">
<!-- Created with matplotlib (http://matplotlib.org/) -->
<svg height="252pt" version="1.1" viewBox="0 0 864 252" width="864pt" xmlns="http://www.w3.org/2000/svg" xmlns:xlink="http://www.w3.org/1999/xlink">
 <defs>
  <style type="text/css">
*{stroke-linecap:butt;stroke-linejoin:round;}
  </style>
 </defs>
 <g id="figure_1">
  <g id="patch_1">
   <path d="M 0 252 
L 864 252 
L 864 0 
L 0 0 
z
" style="fill:none;"/>
  </g>
  <g id="axes_1">
   <g id="patch_2">
    <path d="M 84.549844 206.298438 
L 806.5 206.298438 
L 806.5 31.94 
L 84.549844 31.94 
z
" style="fill:none;"/>
   </g>
   <g id="PolyCollection_1">
    <path clip-path="url(#pbe2f6256b3)" d="M 99.11368 31.94 
L 99.11368 206.298438 
L 101.194228 206.298438 
L 103.274776 206.298438 
L 105.355324 206.298438 
L 107.435872 206.298438 
L 109.51642 206.298438 
L 111.596968 206.298438 
L 113.677516 206.298438 
L 113.677516 31.94 
L 113.677516 31.94 
L 111.596968 31.94 
L 109.51642 31.94 
L 107.435872 31.94 
L 105.355324 31.94 
L 103.274776 31.94 
L 101.194228 31.94 
L 99.11368 31.94 
z
" style="fill:#bbbbbb;fill-opacity:0.3;stroke:#bbbbbb;stroke-opacity:0.3;"/>
    <path clip-path="url(#pbe2f6256b3)" d="M 365.423824 31.94 
L 365.423824 206.298438 
L 367.504372 206.298438 
L 369.58492 206.298438 
L 371.665468 206.298438 
L 373.746016 206.298438 
L 375.826564 206.298438 
L 377.907112 206.298438 
L 379.98766 206.298438 
L 379.98766 31.94 
L 379.98766 31.94 
L 377.907112 31.94 
L 375.826564 31.94 
L 373.746016 31.94 
L 371.665468 31.94 
L 369.58492 31.94 
L 367.504372 31.94 
L 365.423824 31.94 
z
" style="fill:#bbbbbb;fill-opacity:0.3;stroke:#bbbbbb;stroke-opacity:0.3;"/>
    <path clip-path="url(#pbe2f6256b3)" d="M 533.948212 31.94 
L 533.948212 206.298438 
L 536.02876 206.298438 
L 538.109308 206.298438 
L 540.189856 206.298438 
L 542.270404 206.298438 
L 544.350952 206.298438 
L 546.4315 206.298438 
L 548.512048 206.298438 
L 550.592596 206.298438 
L 552.673144 206.298438 
L 554.753692 206.298438 
L 556.83424 206.298438 
L 558.914788 206.298438 
L 560.995336 206.298438 
L 563.075884 206.298438 
L 565.156432 206.298438 
L 567.23698 206.298438 
L 569.317528 206.298438 
L 569.317528 31.94 
L 569.317528 31.94 
L 567.23698 31.94 
L 565.156432 31.94 
L 563.075884 31.94 
L 560.995336 31.94 
L 558.914788 31.94 
L 556.83424 31.94 
L 554.753692 31.94 
L 552.673144 31.94 
L 550.592596 31.94 
L 548.512048 31.94 
L 546.4315 31.94 
L 544.350952 31.94 
L 542.270404 31.94 
L 540.189856 31.94 
L 538.109308 31.94 
L 536.02876 31.94 
L 533.948212 31.94 
z
" style="fill:#bbbbbb;fill-opacity:0.3;stroke:#bbbbbb;stroke-opacity:0.3;"/>
   </g>
   <g id="matplotlib.axis_1">
    <g id="xtick_1">
     <g id="line2d_1">
      <defs>
       <path d="M 0 0 
L 0 3.5 
" id="m82a3e5d430" style="stroke:#000000;stroke-width:0.8;"/>
      </defs>
      <g>
       <use style="stroke:#000000;stroke-width:0.8;" x="184.416148" xlink:href="#m82a3e5d430" y="206.298438"/>
      </g>
     </g>
     <g id="text_1">
      <!-- 1994 -->
      <defs>
       <path d="M 12.40625 8.296875 
L 28.515625 8.296875 
L 28.515625 63.921875 
L 10.984375 60.40625 
L 10.984375 69.390625 
L 28.421875 72.90625 
L 38.28125 72.90625 
L 38.28125 8.296875 
L 54.390625 8.296875 
L 54.390625 0 
L 12.40625 0 
z
" id="DejaVuSans-31"/>
       <path d="M 10.984375 1.515625 
L 10.984375 10.5 
Q 14.703125 8.734375 18.5 7.8125 
Q 22.3125 6.890625 25.984375 6.890625 
Q 35.75 6.890625 40.890625 13.453125 
Q 46.046875 20.015625 46.78125 33.40625 
Q 43.953125 29.203125 39.59375 26.953125 
Q 35.25 24.703125 29.984375 24.703125 
Q 19.046875 24.703125 12.671875 31.3125 
Q 6.296875 37.9375 6.296875 49.421875 
Q 6.296875 60.640625 12.9375 67.421875 
Q 19.578125 74.21875 30.609375 74.21875 
Q 43.265625 74.21875 49.921875 64.515625 
Q 56.59375 54.828125 56.59375 36.375 
Q 56.59375 19.140625 48.40625 8.859375 
Q 40.234375 -1.421875 26.421875 -1.421875 
Q 22.703125 -1.421875 18.890625 -0.6875 
Q 15.09375 0.046875 10.984375 1.515625 
z
M 30.609375 32.421875 
Q 37.25 32.421875 41.125 36.953125 
Q 45.015625 41.5 45.015625 49.421875 
Q 45.015625 57.28125 41.125 61.84375 
Q 37.25 66.40625 30.609375 66.40625 
Q 23.96875 66.40625 20.09375 61.84375 
Q 16.21875 57.28125 16.21875 49.421875 
Q 16.21875 41.5 20.09375 36.953125 
Q 23.96875 32.421875 30.609375 32.421875 
z
" id="DejaVuSans-39"/>
       <path d="M 37.796875 64.3125 
L 12.890625 25.390625 
L 37.796875 25.390625 
z
M 35.203125 72.90625 
L 47.609375 72.90625 
L 47.609375 25.390625 
L 58.015625 25.390625 
L 58.015625 17.1875 
L 47.609375 17.1875 
L 47.609375 0 
L 37.796875 0 
L 37.796875 17.1875 
L 4.890625 17.1875 
L 4.890625 26.703125 
z
" id="DejaVuSans-34"/>
      </defs>
      <g transform="translate(167.873648 229.676406)scale(0.13 -0.13)">
       <use xlink:href="#DejaVuSans-31"/>
       <use x="63.623047" xlink:href="#DejaVuSans-39"/>
       <use x="127.246094" xlink:href="#DejaVuSans-39"/>
       <use x="190.869141" xlink:href="#DejaVuSans-34"/>
      </g>
     </g>
    </g>
    <g id="xtick_2">
     <g id="line2d_2">
      <g>
       <use style="stroke:#000000;stroke-width:0.8;" x="309.249028" xlink:href="#m82a3e5d430" y="206.298438"/>
      </g>
     </g>
     <g id="text_2">
      <!-- 1999 -->
      <g transform="translate(292.706528 229.676406)scale(0.13 -0.13)">
       <use xlink:href="#DejaVuSans-31"/>
       <use x="63.623047" xlink:href="#DejaVuSans-39"/>
       <use x="127.246094" xlink:href="#DejaVuSans-39"/>
       <use x="190.869141" xlink:href="#DejaVuSans-39"/>
      </g>
     </g>
    </g>
    <g id="xtick_3">
     <g id="line2d_3">
      <g>
       <use style="stroke:#000000;stroke-width:0.8;" x="434.081908" xlink:href="#m82a3e5d430" y="206.298438"/>
      </g>
     </g>
     <g id="text_3">
      <!-- 2004 -->
      <defs>
       <path d="M 19.1875 8.296875 
L 53.609375 8.296875 
L 53.609375 0 
L 7.328125 0 
L 7.328125 8.296875 
Q 12.9375 14.109375 22.625 23.890625 
Q 32.328125 33.6875 34.8125 36.53125 
Q 39.546875 41.84375 41.421875 45.53125 
Q 43.3125 49.21875 43.3125 52.78125 
Q 43.3125 58.59375 39.234375 62.25 
Q 35.15625 65.921875 28.609375 65.921875 
Q 23.96875 65.921875 18.8125 64.3125 
Q 13.671875 62.703125 7.8125 59.421875 
L 7.8125 69.390625 
Q 13.765625 71.78125 18.9375 73 
Q 24.125 74.21875 28.421875 74.21875 
Q 39.75 74.21875 46.484375 68.546875 
Q 53.21875 62.890625 53.21875 53.421875 
Q 53.21875 48.921875 51.53125 44.890625 
Q 49.859375 40.875 45.40625 35.40625 
Q 44.1875 33.984375 37.640625 27.21875 
Q 31.109375 20.453125 19.1875 8.296875 
z
" id="DejaVuSans-32"/>
       <path d="M 31.78125 66.40625 
Q 24.171875 66.40625 20.328125 58.90625 
Q 16.5 51.421875 16.5 36.375 
Q 16.5 21.390625 20.328125 13.890625 
Q 24.171875 6.390625 31.78125 6.390625 
Q 39.453125 6.390625 43.28125 13.890625 
Q 47.125 21.390625 47.125 36.375 
Q 47.125 51.421875 43.28125 58.90625 
Q 39.453125 66.40625 31.78125 66.40625 
z
M 31.78125 74.21875 
Q 44.046875 74.21875 50.515625 64.515625 
Q 56.984375 54.828125 56.984375 36.375 
Q 56.984375 17.96875 50.515625 8.265625 
Q 44.046875 -1.421875 31.78125 -1.421875 
Q 19.53125 -1.421875 13.0625 8.265625 
Q 6.59375 17.96875 6.59375 36.375 
Q 6.59375 54.828125 13.0625 64.515625 
Q 19.53125 74.21875 31.78125 74.21875 
z
" id="DejaVuSans-30"/>
      </defs>
      <g transform="translate(417.539408 229.676406)scale(0.13 -0.13)">
       <use xlink:href="#DejaVuSans-32"/>
       <use x="63.623047" xlink:href="#DejaVuSans-30"/>
       <use x="127.246094" xlink:href="#DejaVuSans-30"/>
       <use x="190.869141" xlink:href="#DejaVuSans-34"/>
      </g>
     </g>
    </g>
    <g id="xtick_4">
     <g id="line2d_4">
      <g>
       <use style="stroke:#000000;stroke-width:0.8;" x="558.914788" xlink:href="#m82a3e5d430" y="206.298438"/>
      </g>
     </g>
     <g id="text_4">
      <!-- 2009 -->
      <g transform="translate(542.372288 229.676406)scale(0.13 -0.13)">
       <use xlink:href="#DejaVuSans-32"/>
       <use x="63.623047" xlink:href="#DejaVuSans-30"/>
       <use x="127.246094" xlink:href="#DejaVuSans-30"/>
       <use x="190.869141" xlink:href="#DejaVuSans-39"/>
      </g>
     </g>
    </g>
    <g id="xtick_5">
     <g id="line2d_5">
      <g>
       <use style="stroke:#000000;stroke-width:0.8;" x="683.747668" xlink:href="#m82a3e5d430" y="206.298438"/>
      </g>
     </g>
     <g id="text_5">
      <!-- 2014 -->
      <g transform="translate(667.205168 229.676406)scale(0.13 -0.13)">
       <use xlink:href="#DejaVuSans-32"/>
       <use x="63.623047" xlink:href="#DejaVuSans-30"/>
       <use x="127.246094" xlink:href="#DejaVuSans-31"/>
       <use x="190.869141" xlink:href="#DejaVuSans-34"/>
      </g>
     </g>
    </g>
    <g id="xtick_6">
     <g id="line2d_6">
      <defs>
       <path d="M 0 0 
L 0 2 
" id="mc71ff206f8" style="stroke:#000000;stroke-width:0.6;"/>
      </defs>
      <g>
       <use style="stroke:#000000;stroke-width:0.6;" x="84.549844" xlink:href="#mc71ff206f8" y="206.298438"/>
      </g>
     </g>
    </g>
    <g id="xtick_7">
     <g id="line2d_7">
      <g>
       <use style="stroke:#000000;stroke-width:0.6;" x="109.51642" xlink:href="#mc71ff206f8" y="206.298438"/>
      </g>
     </g>
    </g>
    <g id="xtick_8">
     <g id="line2d_8">
      <g>
       <use style="stroke:#000000;stroke-width:0.6;" x="134.482996" xlink:href="#mc71ff206f8" y="206.298438"/>
      </g>
     </g>
    </g>
    <g id="xtick_9">
     <g id="line2d_9">
      <g>
       <use style="stroke:#000000;stroke-width:0.6;" x="159.449572" xlink:href="#mc71ff206f8" y="206.298438"/>
      </g>
     </g>
    </g>
    <g id="xtick_10">
     <g id="line2d_10">
      <g>
       <use style="stroke:#000000;stroke-width:0.6;" x="184.416148" xlink:href="#mc71ff206f8" y="206.298438"/>
      </g>
     </g>
    </g>
    <g id="xtick_11">
     <g id="line2d_11">
      <g>
       <use style="stroke:#000000;stroke-width:0.6;" x="209.382724" xlink:href="#mc71ff206f8" y="206.298438"/>
      </g>
     </g>
    </g>
    <g id="xtick_12">
     <g id="line2d_12">
      <g>
       <use style="stroke:#000000;stroke-width:0.6;" x="234.3493" xlink:href="#mc71ff206f8" y="206.298438"/>
      </g>
     </g>
    </g>
    <g id="xtick_13">
     <g id="line2d_13">
      <g>
       <use style="stroke:#000000;stroke-width:0.6;" x="259.315876" xlink:href="#mc71ff206f8" y="206.298438"/>
      </g>
     </g>
    </g>
    <g id="xtick_14">
     <g id="line2d_14">
      <g>
       <use style="stroke:#000000;stroke-width:0.6;" x="284.282452" xlink:href="#mc71ff206f8" y="206.298438"/>
      </g>
     </g>
    </g>
    <g id="xtick_15">
     <g id="line2d_15">
      <g>
       <use style="stroke:#000000;stroke-width:0.6;" x="309.249028" xlink:href="#mc71ff206f8" y="206.298438"/>
      </g>
     </g>
    </g>
    <g id="xtick_16">
     <g id="line2d_16">
      <g>
       <use style="stroke:#000000;stroke-width:0.6;" x="334.215604" xlink:href="#mc71ff206f8" y="206.298438"/>
      </g>
     </g>
    </g>
    <g id="xtick_17">
     <g id="line2d_17">
      <g>
       <use style="stroke:#000000;stroke-width:0.6;" x="359.18218" xlink:href="#mc71ff206f8" y="206.298438"/>
      </g>
     </g>
    </g>
    <g id="xtick_18">
     <g id="line2d_18">
      <g>
       <use style="stroke:#000000;stroke-width:0.6;" x="384.148756" xlink:href="#mc71ff206f8" y="206.298438"/>
      </g>
     </g>
    </g>
    <g id="xtick_19">
     <g id="line2d_19">
      <g>
       <use style="stroke:#000000;stroke-width:0.6;" x="409.115332" xlink:href="#mc71ff206f8" y="206.298438"/>
      </g>
     </g>
    </g>
    <g id="xtick_20">
     <g id="line2d_20">
      <g>
       <use style="stroke:#000000;stroke-width:0.6;" x="434.081908" xlink:href="#mc71ff206f8" y="206.298438"/>
      </g>
     </g>
    </g>
    <g id="xtick_21">
     <g id="line2d_21">
      <g>
       <use style="stroke:#000000;stroke-width:0.6;" x="459.048484" xlink:href="#mc71ff206f8" y="206.298438"/>
      </g>
     </g>
    </g>
    <g id="xtick_22">
     <g id="line2d_22">
      <g>
       <use style="stroke:#000000;stroke-width:0.6;" x="484.01506" xlink:href="#mc71ff206f8" y="206.298438"/>
      </g>
     </g>
    </g>
    <g id="xtick_23">
     <g id="line2d_23">
      <g>
       <use style="stroke:#000000;stroke-width:0.6;" x="508.981636" xlink:href="#mc71ff206f8" y="206.298438"/>
      </g>
     </g>
    </g>
    <g id="xtick_24">
     <g id="line2d_24">
      <g>
       <use style="stroke:#000000;stroke-width:0.6;" x="533.948212" xlink:href="#mc71ff206f8" y="206.298438"/>
      </g>
     </g>
    </g>
    <g id="xtick_25">
     <g id="line2d_25">
      <g>
       <use style="stroke:#000000;stroke-width:0.6;" x="558.914788" xlink:href="#mc71ff206f8" y="206.298438"/>
      </g>
     </g>
    </g>
    <g id="xtick_26">
     <g id="line2d_26">
      <g>
       <use style="stroke:#000000;stroke-width:0.6;" x="583.881364" xlink:href="#mc71ff206f8" y="206.298438"/>
      </g>
     </g>
    </g>
    <g id="xtick_27">
     <g id="line2d_27">
      <g>
       <use style="stroke:#000000;stroke-width:0.6;" x="608.84794" xlink:href="#mc71ff206f8" y="206.298438"/>
      </g>
     </g>
    </g>
    <g id="xtick_28">
     <g id="line2d_28">
      <g>
       <use style="stroke:#000000;stroke-width:0.6;" x="633.814516" xlink:href="#mc71ff206f8" y="206.298438"/>
      </g>
     </g>
    </g>
    <g id="xtick_29">
     <g id="line2d_29">
      <g>
       <use style="stroke:#000000;stroke-width:0.6;" x="658.781092" xlink:href="#mc71ff206f8" y="206.298438"/>
      </g>
     </g>
    </g>
    <g id="xtick_30">
     <g id="line2d_30">
      <g>
       <use style="stroke:#000000;stroke-width:0.6;" x="683.747668" xlink:href="#mc71ff206f8" y="206.298438"/>
      </g>
     </g>
    </g>
    <g id="xtick_31">
     <g id="line2d_31">
      <g>
       <use style="stroke:#000000;stroke-width:0.6;" x="708.714244" xlink:href="#mc71ff206f8" y="206.298438"/>
      </g>
     </g>
    </g>
    <g id="xtick_32">
     <g id="line2d_32">
      <g>
       <use style="stroke:#000000;stroke-width:0.6;" x="733.68082" xlink:href="#mc71ff206f8" y="206.298438"/>
      </g>
     </g>
    </g>
    <g id="xtick_33">
     <g id="line2d_33">
      <g>
       <use style="stroke:#000000;stroke-width:0.6;" x="758.647396" xlink:href="#mc71ff206f8" y="206.298438"/>
      </g>
     </g>
    </g>
    <g id="xtick_34">
     <g id="line2d_34">
      <g>
       <use style="stroke:#000000;stroke-width:0.6;" x="783.613972" xlink:href="#mc71ff206f8" y="206.298438"/>
      </g>
     </g>
    </g>
   </g>
   <g id="matplotlib.axis_2">
    <g id="ytick_1">
     <g id="line2d_35">
      <path clip-path="url(#pbe2f6256b3)" d="M 84.549844 192.66898 
L 806.5 192.66898 
" style="fill:none;stroke:#000000;stroke-dasharray:0.8,1.32;stroke-dashoffset:0;stroke-width:0.8;"/>
     </g>
     <g id="line2d_36">
      <defs>
       <path d="M 0 0 
L -3.5 0 
" id="m9b2948d605" style="stroke:#000000;stroke-width:0.8;"/>
      </defs>
      <g>
       <use style="stroke:#000000;stroke-width:0.8;" x="84.549844" xlink:href="#m9b2948d605" y="192.66898"/>
      </g>
     </g>
     <g id="text_6">
      <!-- −3 -->
      <defs>
       <path d="M 10.59375 35.5 
L 73.1875 35.5 
L 73.1875 27.203125 
L 10.59375 27.203125 
z
" id="DejaVuSans-2212"/>
       <path d="M 40.578125 39.3125 
Q 47.65625 37.796875 51.625 33 
Q 55.609375 28.21875 55.609375 21.1875 
Q 55.609375 10.40625 48.1875 4.484375 
Q 40.765625 -1.421875 27.09375 -1.421875 
Q 22.515625 -1.421875 17.65625 -0.515625 
Q 12.796875 0.390625 7.625 2.203125 
L 7.625 11.71875 
Q 11.71875 9.328125 16.59375 8.109375 
Q 21.484375 6.890625 26.8125 6.890625 
Q 36.078125 6.890625 40.9375 10.546875 
Q 45.796875 14.203125 45.796875 21.1875 
Q 45.796875 27.640625 41.28125 31.265625 
Q 36.765625 34.90625 28.71875 34.90625 
L 20.21875 34.90625 
L 20.21875 43.015625 
L 29.109375 43.015625 
Q 36.375 43.015625 40.234375 45.921875 
Q 44.09375 48.828125 44.09375 54.296875 
Q 44.09375 59.90625 40.109375 62.90625 
Q 36.140625 65.921875 28.71875 65.921875 
Q 24.65625 65.921875 20.015625 65.03125 
Q 15.375 64.15625 9.8125 62.3125 
L 9.8125 71.09375 
Q 15.4375 72.65625 20.34375 73.4375 
Q 25.25 74.21875 29.59375 74.21875 
Q 40.828125 74.21875 47.359375 69.109375 
Q 53.90625 64.015625 53.90625 55.328125 
Q 53.90625 49.265625 50.4375 45.09375 
Q 46.96875 40.921875 40.578125 39.3125 
z
" id="DejaVuSans-33"/>
      </defs>
      <g transform="translate(51.885 197.607965)scale(0.13 -0.13)">
       <use xlink:href="#DejaVuSans-2212"/>
       <use x="83.789062" xlink:href="#DejaVuSans-33"/>
      </g>
     </g>
    </g>
    <g id="ytick_2">
     <g id="line2d_37">
      <path clip-path="url(#pbe2f6256b3)" d="M 84.549844 168.930893 
L 806.5 168.930893 
" style="fill:none;stroke:#000000;stroke-dasharray:0.8,1.32;stroke-dashoffset:0;stroke-width:0.8;"/>
     </g>
     <g id="line2d_38">
      <g>
       <use style="stroke:#000000;stroke-width:0.8;" x="84.549844" xlink:href="#m9b2948d605" y="168.930893"/>
      </g>
     </g>
     <g id="text_7">
      <!-- −2 -->
      <g transform="translate(51.885 173.869877)scale(0.13 -0.13)">
       <use xlink:href="#DejaVuSans-2212"/>
       <use x="83.789062" xlink:href="#DejaVuSans-32"/>
      </g>
     </g>
    </g>
    <g id="ytick_3">
     <g id="line2d_39">
      <path clip-path="url(#pbe2f6256b3)" d="M 84.549844 145.192806 
L 806.5 145.192806 
" style="fill:none;stroke:#000000;stroke-dasharray:0.8,1.32;stroke-dashoffset:0;stroke-width:0.8;"/>
     </g>
     <g id="line2d_40">
      <g>
       <use style="stroke:#000000;stroke-width:0.8;" x="84.549844" xlink:href="#m9b2948d605" y="145.192806"/>
      </g>
     </g>
     <g id="text_8">
      <!-- −1 -->
      <g transform="translate(51.885 150.13179)scale(0.13 -0.13)">
       <use xlink:href="#DejaVuSans-2212"/>
       <use x="83.789062" xlink:href="#DejaVuSans-31"/>
      </g>
     </g>
    </g>
    <g id="ytick_4">
     <g id="line2d_41">
      <path clip-path="url(#pbe2f6256b3)" d="M 84.549844 121.454719 
L 806.5 121.454719 
" style="fill:none;stroke:#000000;stroke-dasharray:0.8,1.32;stroke-dashoffset:0;stroke-width:0.8;"/>
     </g>
     <g id="line2d_42">
      <g>
       <use style="stroke:#000000;stroke-width:0.8;" x="84.549844" xlink:href="#m9b2948d605" y="121.454719"/>
      </g>
     </g>
     <g id="text_9">
      <!-- 0 -->
      <g transform="translate(62.778594 126.393703)scale(0.13 -0.13)">
       <use xlink:href="#DejaVuSans-30"/>
      </g>
     </g>
    </g>
    <g id="ytick_5">
     <g id="line2d_43">
      <path clip-path="url(#pbe2f6256b3)" d="M 84.549844 97.716632 
L 806.5 97.716632 
" style="fill:none;stroke:#000000;stroke-dasharray:0.8,1.32;stroke-dashoffset:0;stroke-width:0.8;"/>
     </g>
     <g id="line2d_44">
      <g>
       <use style="stroke:#000000;stroke-width:0.8;" x="84.549844" xlink:href="#m9b2948d605" y="97.716632"/>
      </g>
     </g>
     <g id="text_10">
      <!-- 1 -->
      <g transform="translate(62.778594 102.655616)scale(0.13 -0.13)">
       <use xlink:href="#DejaVuSans-31"/>
      </g>
     </g>
    </g>
    <g id="ytick_6">
     <g id="line2d_45">
      <path clip-path="url(#pbe2f6256b3)" d="M 84.549844 73.978544 
L 806.5 73.978544 
" style="fill:none;stroke:#000000;stroke-dasharray:0.8,1.32;stroke-dashoffset:0;stroke-width:0.8;"/>
     </g>
     <g id="line2d_46">
      <g>
       <use style="stroke:#000000;stroke-width:0.8;" x="84.549844" xlink:href="#m9b2948d605" y="73.978544"/>
      </g>
     </g>
     <g id="text_11">
      <!-- 2 -->
      <g transform="translate(62.778594 78.917529)scale(0.13 -0.13)">
       <use xlink:href="#DejaVuSans-32"/>
      </g>
     </g>
    </g>
    <g id="ytick_7">
     <g id="line2d_47">
      <path clip-path="url(#pbe2f6256b3)" d="M 84.549844 50.240457 
L 806.5 50.240457 
" style="fill:none;stroke:#000000;stroke-dasharray:0.8,1.32;stroke-dashoffset:0;stroke-width:0.8;"/>
     </g>
     <g id="line2d_48">
      <g>
       <use style="stroke:#000000;stroke-width:0.8;" x="84.549844" xlink:href="#m9b2948d605" y="50.240457"/>
      </g>
     </g>
     <g id="text_12">
      <!-- 3 -->
      <g transform="translate(62.778594 55.179442)scale(0.13 -0.13)">
       <use xlink:href="#DejaVuSans-33"/>
      </g>
     </g>
    </g>
    <g id="text_13">
     <!-- Percentage point -->
     <defs>
      <path d="M 19.671875 64.796875 
L 19.671875 37.40625 
L 32.078125 37.40625 
Q 38.96875 37.40625 42.71875 40.96875 
Q 46.484375 44.53125 46.484375 51.125 
Q 46.484375 57.671875 42.71875 61.234375 
Q 38.96875 64.796875 32.078125 64.796875 
z
M 9.8125 72.90625 
L 32.078125 72.90625 
Q 44.34375 72.90625 50.609375 67.359375 
Q 56.890625 61.8125 56.890625 51.125 
Q 56.890625 40.328125 50.609375 34.8125 
Q 44.34375 29.296875 32.078125 29.296875 
L 19.671875 29.296875 
L 19.671875 0 
L 9.8125 0 
z
" id="DejaVuSans-50"/>
      <path d="M 56.203125 29.59375 
L 56.203125 25.203125 
L 14.890625 25.203125 
Q 15.484375 15.921875 20.484375 11.0625 
Q 25.484375 6.203125 34.421875 6.203125 
Q 39.59375 6.203125 44.453125 7.46875 
Q 49.3125 8.734375 54.109375 11.28125 
L 54.109375 2.78125 
Q 49.265625 0.734375 44.1875 -0.34375 
Q 39.109375 -1.421875 33.890625 -1.421875 
Q 20.796875 -1.421875 13.15625 6.1875 
Q 5.515625 13.8125 5.515625 26.8125 
Q 5.515625 40.234375 12.765625 48.109375 
Q 20.015625 56 32.328125 56 
Q 43.359375 56 49.78125 48.890625 
Q 56.203125 41.796875 56.203125 29.59375 
z
M 47.21875 32.234375 
Q 47.125 39.59375 43.09375 43.984375 
Q 39.0625 48.390625 32.421875 48.390625 
Q 24.90625 48.390625 20.390625 44.140625 
Q 15.875 39.890625 15.1875 32.171875 
z
" id="DejaVuSans-65"/>
      <path d="M 41.109375 46.296875 
Q 39.59375 47.171875 37.8125 47.578125 
Q 36.03125 48 33.890625 48 
Q 26.265625 48 22.1875 43.046875 
Q 18.109375 38.09375 18.109375 28.8125 
L 18.109375 0 
L 9.078125 0 
L 9.078125 54.6875 
L 18.109375 54.6875 
L 18.109375 46.1875 
Q 20.953125 51.171875 25.484375 53.578125 
Q 30.03125 56 36.53125 56 
Q 37.453125 56 38.578125 55.875 
Q 39.703125 55.765625 41.0625 55.515625 
z
" id="DejaVuSans-72"/>
      <path d="M 48.78125 52.59375 
L 48.78125 44.1875 
Q 44.96875 46.296875 41.140625 47.34375 
Q 37.3125 48.390625 33.40625 48.390625 
Q 24.65625 48.390625 19.8125 42.84375 
Q 14.984375 37.3125 14.984375 27.296875 
Q 14.984375 17.28125 19.8125 11.734375 
Q 24.65625 6.203125 33.40625 6.203125 
Q 37.3125 6.203125 41.140625 7.25 
Q 44.96875 8.296875 48.78125 10.40625 
L 48.78125 2.09375 
Q 45.015625 0.34375 40.984375 -0.53125 
Q 36.96875 -1.421875 32.421875 -1.421875 
Q 20.0625 -1.421875 12.78125 6.34375 
Q 5.515625 14.109375 5.515625 27.296875 
Q 5.515625 40.671875 12.859375 48.328125 
Q 20.21875 56 33.015625 56 
Q 37.15625 56 41.109375 55.140625 
Q 45.0625 54.296875 48.78125 52.59375 
z
" id="DejaVuSans-63"/>
      <path d="M 54.890625 33.015625 
L 54.890625 0 
L 45.90625 0 
L 45.90625 32.71875 
Q 45.90625 40.484375 42.875 44.328125 
Q 39.84375 48.1875 33.796875 48.1875 
Q 26.515625 48.1875 22.3125 43.546875 
Q 18.109375 38.921875 18.109375 30.90625 
L 18.109375 0 
L 9.078125 0 
L 9.078125 54.6875 
L 18.109375 54.6875 
L 18.109375 46.1875 
Q 21.34375 51.125 25.703125 53.5625 
Q 30.078125 56 35.796875 56 
Q 45.21875 56 50.046875 50.171875 
Q 54.890625 44.34375 54.890625 33.015625 
z
" id="DejaVuSans-6e"/>
      <path d="M 18.3125 70.21875 
L 18.3125 54.6875 
L 36.8125 54.6875 
L 36.8125 47.703125 
L 18.3125 47.703125 
L 18.3125 18.015625 
Q 18.3125 11.328125 20.140625 9.421875 
Q 21.96875 7.515625 27.59375 7.515625 
L 36.8125 7.515625 
L 36.8125 0 
L 27.59375 0 
Q 17.1875 0 13.234375 3.875 
Q 9.28125 7.765625 9.28125 18.015625 
L 9.28125 47.703125 
L 2.6875 47.703125 
L 2.6875 54.6875 
L 9.28125 54.6875 
L 9.28125 70.21875 
z
" id="DejaVuSans-74"/>
      <path d="M 34.28125 27.484375 
Q 23.390625 27.484375 19.1875 25 
Q 14.984375 22.515625 14.984375 16.5 
Q 14.984375 11.71875 18.140625 8.90625 
Q 21.296875 6.109375 26.703125 6.109375 
Q 34.1875 6.109375 38.703125 11.40625 
Q 43.21875 16.703125 43.21875 25.484375 
L 43.21875 27.484375 
z
M 52.203125 31.203125 
L 52.203125 0 
L 43.21875 0 
L 43.21875 8.296875 
Q 40.140625 3.328125 35.546875 0.953125 
Q 30.953125 -1.421875 24.3125 -1.421875 
Q 15.921875 -1.421875 10.953125 3.296875 
Q 6 8.015625 6 15.921875 
Q 6 25.140625 12.171875 29.828125 
Q 18.359375 34.515625 30.609375 34.515625 
L 43.21875 34.515625 
L 43.21875 35.40625 
Q 43.21875 41.609375 39.140625 45 
Q 35.0625 48.390625 27.6875 48.390625 
Q 23 48.390625 18.546875 47.265625 
Q 14.109375 46.140625 10.015625 43.890625 
L 10.015625 52.203125 
Q 14.9375 54.109375 19.578125 55.046875 
Q 24.21875 56 28.609375 56 
Q 40.484375 56 46.34375 49.84375 
Q 52.203125 43.703125 52.203125 31.203125 
z
" id="DejaVuSans-61"/>
      <path d="M 45.40625 27.984375 
Q 45.40625 37.75 41.375 43.109375 
Q 37.359375 48.484375 30.078125 48.484375 
Q 22.859375 48.484375 18.828125 43.109375 
Q 14.796875 37.75 14.796875 27.984375 
Q 14.796875 18.265625 18.828125 12.890625 
Q 22.859375 7.515625 30.078125 7.515625 
Q 37.359375 7.515625 41.375 12.890625 
Q 45.40625 18.265625 45.40625 27.984375 
z
M 54.390625 6.78125 
Q 54.390625 -7.171875 48.1875 -13.984375 
Q 42 -20.796875 29.203125 -20.796875 
Q 24.46875 -20.796875 20.265625 -20.09375 
Q 16.0625 -19.390625 12.109375 -17.921875 
L 12.109375 -9.1875 
Q 16.0625 -11.328125 19.921875 -12.34375 
Q 23.78125 -13.375 27.78125 -13.375 
Q 36.625 -13.375 41.015625 -8.765625 
Q 45.40625 -4.15625 45.40625 5.171875 
L 45.40625 9.625 
Q 42.625 4.78125 38.28125 2.390625 
Q 33.9375 0 27.875 0 
Q 17.828125 0 11.671875 7.65625 
Q 5.515625 15.328125 5.515625 27.984375 
Q 5.515625 40.671875 11.671875 48.328125 
Q 17.828125 56 27.875 56 
Q 33.9375 56 38.28125 53.609375 
Q 42.625 51.21875 45.40625 46.390625 
L 45.40625 54.6875 
L 54.390625 54.6875 
z
" id="DejaVuSans-67"/>
      <path id="DejaVuSans-20"/>
      <path d="M 18.109375 8.203125 
L 18.109375 -20.796875 
L 9.078125 -20.796875 
L 9.078125 54.6875 
L 18.109375 54.6875 
L 18.109375 46.390625 
Q 20.953125 51.265625 25.265625 53.625 
Q 29.59375 56 35.59375 56 
Q 45.5625 56 51.78125 48.09375 
Q 58.015625 40.1875 58.015625 27.296875 
Q 58.015625 14.40625 51.78125 6.484375 
Q 45.5625 -1.421875 35.59375 -1.421875 
Q 29.59375 -1.421875 25.265625 0.953125 
Q 20.953125 3.328125 18.109375 8.203125 
z
M 48.6875 27.296875 
Q 48.6875 37.203125 44.609375 42.84375 
Q 40.53125 48.484375 33.40625 48.484375 
Q 26.265625 48.484375 22.1875 42.84375 
Q 18.109375 37.203125 18.109375 27.296875 
Q 18.109375 17.390625 22.1875 11.75 
Q 26.265625 6.109375 33.40625 6.109375 
Q 40.53125 6.109375 44.609375 11.75 
Q 48.6875 17.390625 48.6875 27.296875 
z
" id="DejaVuSans-70"/>
      <path d="M 30.609375 48.390625 
Q 23.390625 48.390625 19.1875 42.75 
Q 14.984375 37.109375 14.984375 27.296875 
Q 14.984375 17.484375 19.15625 11.84375 
Q 23.34375 6.203125 30.609375 6.203125 
Q 37.796875 6.203125 41.984375 11.859375 
Q 46.1875 17.53125 46.1875 27.296875 
Q 46.1875 37.015625 41.984375 42.703125 
Q 37.796875 48.390625 30.609375 48.390625 
z
M 30.609375 56 
Q 42.328125 56 49.015625 48.375 
Q 55.71875 40.765625 55.71875 27.296875 
Q 55.71875 13.875 49.015625 6.21875 
Q 42.328125 -1.421875 30.609375 -1.421875 
Q 18.84375 -1.421875 12.171875 6.21875 
Q 5.515625 13.875 5.515625 27.296875 
Q 5.515625 40.765625 12.171875 48.375 
Q 18.84375 56 30.609375 56 
z
" id="DejaVuSans-6f"/>
      <path d="M 9.421875 54.6875 
L 18.40625 54.6875 
L 18.40625 0 
L 9.421875 0 
z
M 9.421875 75.984375 
L 18.40625 75.984375 
L 18.40625 64.59375 
L 9.421875 64.59375 
z
" id="DejaVuSans-69"/>
     </defs>
     <g transform="translate(44.5575 187.524219)rotate(-90)scale(0.16 -0.16)">
      <use xlink:href="#DejaVuSans-50"/>
      <use x="60.255859" xlink:href="#DejaVuSans-65"/>
      <use x="121.779297" xlink:href="#DejaVuSans-72"/>
      <use x="162.861328" xlink:href="#DejaVuSans-63"/>
      <use x="217.841797" xlink:href="#DejaVuSans-65"/>
      <use x="279.365234" xlink:href="#DejaVuSans-6e"/>
      <use x="342.744141" xlink:href="#DejaVuSans-74"/>
      <use x="381.953125" xlink:href="#DejaVuSans-61"/>
      <use x="443.232422" xlink:href="#DejaVuSans-67"/>
      <use x="506.708984" xlink:href="#DejaVuSans-65"/>
      <use x="568.232422" xlink:href="#DejaVuSans-20"/>
      <use x="600.019531" xlink:href="#DejaVuSans-70"/>
      <use x="663.496094" xlink:href="#DejaVuSans-6f"/>
      <use x="724.677734" xlink:href="#DejaVuSans-69"/>
      <use x="752.460938" xlink:href="#DejaVuSans-6e"/>
      <use x="815.839844" xlink:href="#DejaVuSans-74"/>
     </g>
    </g>
   </g>
   <g id="line2d_49">
    <path clip-path="url(#pbe2f6256b3)" d="M 86.630392 166.403181 
L 88.71094 165.634931 
L 90.791488 168.02976 
L 92.872036 165.000546 
L 94.952584 171.425637 
L 97.033132 169.984771 
L 99.11368 166.900801 
L 101.194228 167.444865 
L 103.274776 170.470177 
L 105.355324 172.33686 
L 107.435872 173.362802 
L 109.51642 173.423808 
L 111.596968 172.483933 
L 113.677516 173.179457 
L 115.758064 166.158178 
L 117.838612 172.033382 
L 119.91916 171.717249 
L 121.999708 177.230561 
L 124.080256 176.098703 
L 126.160804 171.147323 
L 128.241352 169.174262 
L 130.3219 170.221728 
L 132.402448 170.280884 
L 134.482996 165.297426 
L 136.563544 164.874167 
L 138.644092 162.514218 
L 140.72464 160.351477 
L 142.805188 161.285682 
L 144.885736 158.462844 
L 146.966284 155.345035 
L 149.046832 156.807756 
L 151.12738 160.914465 
L 153.207928 167.781179 
L 155.288476 162.134206 
L 157.369024 159.483909 
L 159.449572 164.017673 
L 161.53012 165.290699 
L 163.610668 166.769518 
L 165.691216 165.491586 
L 167.771764 156.744771 
L 169.852312 157.801448 
L 171.93286 159.92207 
L 174.013408 157.80234 
L 176.093956 159.107356 
L 178.174504 155.842166 
L 180.255052 153.091359 
L 182.3356 148.228727 
L 184.416148 141.2682 
L 186.496696 137.570888 
L 188.577244 141.233683 
L 190.657792 137.770439 
L 192.73834 135.361551 
L 194.818888 141.344427 
L 196.899436 143.02829 
L 198.979984 136.629401 
L 201.060532 135.244543 
L 203.14108 135.907004 
L 205.221628 134.884619 
L 207.302176 140.088735 
L 209.382724 138.116877 
L 211.463272 137.624821 
L 213.54382 138.20708 
L 215.624368 128.835166 
L 217.704916 138.238856 
L 219.785464 141.097576 
L 221.866012 132.217771 
L 223.94656 134.124555 
L 226.027108 134.592756 
L 228.107656 129.493477 
L 230.188204 130.966063 
L 232.268752 136.213437 
L 234.3493 136.135211 
L 236.429848 135.9361 
L 238.510396 134.371311 
L 240.590944 131.610787 
L 242.671492 131.124019 
L 244.75204 132.68501 
L 246.832588 125.939729 
L 248.913136 126.369274 
L 250.993684 122.363982 
L 255.15478 115.681758 
L 257.235328 114.884891 
L 259.315876 119.55294 
L 261.396424 121.166317 
L 263.476972 115.659333 
L 265.55752 115.763551 
L 267.638068 114.821299 
L 269.718616 115.836064 
L 271.799164 110.702456 
L 273.879712 111.880345 
L 275.96026 110.63334 
L 278.040808 115.011117 
L 280.121356 114.392325 
L 282.201904 108.164939 
L 284.282452 112.072505 
L 286.363 112.58117 
L 288.443548 111.197133 
L 290.524096 116.639543 
L 292.604644 115.986811 
L 294.685192 116.129034 
L 296.76574 118.040819 
L 298.846288 113.908212 
L 300.926836 109.102772 
L 303.007384 110.779336 
L 305.087932 112.928308 
L 307.16848 109.015629 
L 309.249028 108.251225 
L 311.329576 109.284782 
L 313.410124 111.070883 
L 315.490672 107.726094 
L 317.57122 111.156606 
L 319.651768 107.791296 
L 321.732316 108.952983 
L 323.812864 109.278564 
L 325.893412 109.112472 
L 327.97396 108.534957 
L 330.054508 105.695837 
L 332.135056 107.854732 
L 334.215604 107.885147 
L 336.296152 110.132 
L 338.3767 107.018043 
L 340.457248 101.642918 
L 342.537796 109.408867 
L 344.618344 109.658272 
L 346.698892 113.176177 
L 348.77944 118.195372 
L 350.859988 115.335234 
L 352.940536 115.9454 
L 355.021084 112.336772 
L 357.101632 112.088389 
L 359.18218 108.016264 
L 361.262728 108.729578 
L 363.343276 104.436028 
L 365.423824 114.741577 
L 367.504372 116.791471 
L 369.58492 117.409531 
L 371.665468 116.090246 
L 373.746016 121.838053 
L 375.826564 118.17818 
L 377.907112 116.980598 
L 379.98766 114.948902 
L 382.068208 116.777976 
L 384.148756 122.365143 
L 386.229304 112.503184 
L 388.309852 116.822164 
L 390.3904 115.927892 
L 392.470948 120.169343 
L 394.551496 119.836256 
L 396.632044 121.511283 
L 400.79314 117.617922 
L 402.873688 118.25104 
L 404.954236 120.670636 
L 407.034784 120.937758 
L 409.115332 115.730695 
L 411.19588 119.496073 
L 413.276428 116.161432 
L 415.356976 116.620351 
L 417.437524 117.401065 
L 419.518072 111.227199 
L 421.59862 121.864394 
L 423.679168 122.206353 
L 425.759716 130.892122 
L 427.840264 127.303114 
L 429.920812 128.504369 
L 432.00136 134.160842 
L 434.081908 131.859873 
L 436.162456 128.009195 
L 438.243004 125.52371 
L 440.323552 128.40365 
L 442.4041 127.026819 
L 444.484648 126.349302 
L 446.565196 127.483431 
L 448.645744 132.877045 
L 450.726292 134.654166 
L 452.80684 132.947288 
L 454.887388 132.398624 
L 459.048484 130.049566 
L 461.129032 130.510221 
L 463.20958 132.950652 
L 465.290128 128.523355 
L 467.370676 126.244762 
L 469.451224 129.304373 
L 471.531772 127.698393 
L 473.61232 127.447973 
L 475.692868 123.192066 
L 477.773416 122.744729 
L 481.934512 127.958341 
L 484.01506 130.028632 
L 486.095608 127.527342 
L 488.176156 129.394309 
L 490.256704 129.115126 
L 492.337252 127.979012 
L 494.4178 122.544402 
L 496.498348 119.276242 
L 498.578896 121.444286 
L 500.659444 127.218227 
L 502.739992 123.121714 
L 504.82054 121.446031 
L 506.901088 121.228817 
L 508.981636 121.454719 
L 511.062184 124.063091 
L 513.142732 122.826127 
L 515.22328 135.295822 
L 517.303828 130.617323 
L 519.384376 126.510161 
L 521.464924 125.328074 
L 523.545472 128.370588 
L 525.62602 122.534981 
L 527.706568 128.214804 
L 529.787116 124.280429 
L 531.867664 124.500831 
L 533.948212 122.167594 
L 536.02876 125.989164 
L 538.109308 122.17302 
L 540.189856 124.253211 
L 542.270404 119.48163 
L 544.350952 120.898344 
L 546.4315 123.755108 
L 548.512048 118.209402 
L 550.592596 124.04195 
L 552.673144 120.420004 
L 554.753692 122.726694 
L 556.83424 121.73354 
L 558.914788 124.650904 
L 560.995336 120.482494 
L 563.075884 122.279161 
L 565.156432 123.591966 
L 567.23698 123.445527 
L 569.317528 122.118923 
L 571.398076 124.69517 
L 573.478624 129.609501 
L 575.559172 136.29341 
L 577.63972 138.367112 
L 579.720268 136.074996 
L 581.800816 142.964391 
L 583.881364 137.757066 
L 585.961912 136.589802 
L 588.04246 138.563938 
L 590.123008 135.877148 
L 592.203556 138.398656 
L 594.284104 145.166403 
L 596.364652 146.752992 
L 598.4452 143.88086 
L 600.525748 144.481154 
L 602.606296 146.804386 
L 604.686844 142.561386 
L 606.767392 149.462947 
L 608.84794 151.200356 
L 610.928488 154.389958 
L 613.009036 151.061577 
L 615.089584 150.965805 
L 619.25068 157.816139 
L 621.331228 157.783018 
L 623.411776 155.303349 
L 625.492324 150.971263 
L 627.572872 154.250804 
L 629.65342 156.678632 
L 633.814516 165.191389 
L 635.895064 161.447016 
L 637.975612 161.781114 
L 640.05616 166.213507 
L 642.136708 164.447179 
L 644.217256 163.314315 
L 646.297804 166.288935 
L 648.378352 166.989266 
L 650.4589 165.887466 
L 652.539448 164.564674 
L 654.619996 166.782789 
L 656.700544 163.467143 
L 658.781092 169.504906 
L 660.86164 172.801871 
L 662.942188 175.487553 
L 665.022736 173.60472 
L 667.103284 174.064257 
L 669.183832 171.453982 
L 671.26438 174.194913 
L 673.344928 173.331507 
L 675.425476 177.44066 
L 677.506024 185.416897 
L 679.586572 182.936168 
L 681.66712 181.569597 
L 683.747668 180.765907 
L 685.828216 175.347185 
L 687.908764 174.969413 
L 689.989312 181.923072 
L 692.06986 180.545478 
L 694.150408 184.047414 
L 696.230956 183.410196 
L 698.311504 184.063666 
L 700.392052 185.964509 
L 702.4726 179.547193 
L 704.553148 180.36829 
L 706.633696 188.137758 
L 708.714244 184.817541 
L 710.794792 189.582517 
L 712.87534 190.583481 
L 714.955888 189.282597 
L 717.036436 185.629822 
L 719.116984 186.6646 
L 721.197532 190.272162 
L 723.27808 189.041859 
L 725.358628 195.829253 
L 729.519724 186.272631 
L 731.600272 184.384194 
L 733.68082 183.967988 
L 735.761368 184.062288 
L 737.841916 179.53884 
L 739.922464 185.44799 
L 742.003012 188.986854 
L 744.08356 190.090572 
L 746.164108 187.76973 
L 748.244656 185.206903 
L 750.325204 183.952687 
L 752.405752 185.296538 
L 754.4863 187.406703 
L 756.566848 186.430508 
L 758.647396 184.077434 
L 760.727944 180.694646 
L 762.808492 176.070314 
L 764.88904 179.711066 
L 766.969588 183.892932 
L 769.050136 179.280765 
L 771.130684 175.127996 
L 773.211232 177.152653 
L 775.29178 175.64294 
L 777.372328 184.595138 
L 779.452876 182.159252 
L 781.533424 184.22462 
L 783.613972 188.171652 
L 785.69452 180.544073 
L 787.775068 182.452813 
L 789.855616 187.268862 
L 791.936164 188.047884 
L 794.016712 176.473072 
L 796.09726 173.748512 
L 798.177808 181.518945 
L 800.258356 180.020463 
L 802.338904 173.669244 
L 804.419452 175.474664 
L 804.419452 175.474664 
" style="fill:none;stroke:#000000;stroke-linecap:square;stroke-width:3;"/>
   </g>
   <g id="line2d_50">
    <path clip-path="url(#pbe2f6256b3)" d="M 88.71094 176.814481 
L 90.791488 176.627174 
L 92.872036 168.458857 
L 94.952584 169.083915 
L 97.033132 166.801172 
L 99.11368 160.606913 
L 101.194228 157.838681 
L 103.274776 156.132222 
L 105.355324 157.686773 
L 107.435872 155.517117 
L 109.51642 150.896189 
L 111.596968 145.867101 
L 113.677516 142.652105 
L 115.758064 133.510738 
L 117.838612 133.872839 
L 119.91916 131.440811 
L 121.999708 129.790686 
L 124.080256 126.11219 
L 126.160804 120.979107 
L 128.241352 118.159337 
L 130.3219 112.444152 
L 132.402448 107.348429 
L 134.482996 103.882458 
L 136.563544 99.803345 
L 140.72464 92.679434 
L 142.805188 94.422398 
L 144.885736 90.123254 
L 146.966284 87.866232 
L 149.046832 84.80619 
L 151.12738 86.149491 
L 153.207928 90.180993 
L 155.288476 86.615829 
L 157.369024 86.253681 
L 159.449572 86.967764 
L 161.53012 88.337308 
L 163.610668 88.384274 
L 165.691216 87.78401 
L 167.771764 82.734783 
L 169.852312 78.674809 
L 171.93286 77.420051 
L 174.013408 78.357188 
L 176.093956 80.840649 
L 178.174504 80.703256 
L 180.255052 77.983872 
L 182.3356 76.949053 
L 184.416148 76.595193 
L 186.496696 80.395388 
L 188.577244 86.717448 
L 190.657792 85.494263 
L 192.73834 85.637584 
L 194.818888 92.161704 
L 196.899436 94.362576 
L 198.979984 95.098204 
L 201.060532 91.612698 
L 203.14108 92.27734 
L 205.221628 94.642712 
L 207.302176 99.614777 
L 209.382724 98.68068 
L 211.463272 96.351061 
L 213.54382 96.507236 
L 215.624368 93.437857 
L 217.704916 97.752138 
L 219.785464 101.791274 
L 221.866012 99.028447 
L 223.94656 98.381132 
L 226.027108 100.961935 
L 228.107656 99.680068 
L 230.188204 99.172526 
L 232.268752 97.926357 
L 234.3493 95.360049 
L 236.429848 94.968804 
L 238.510396 93.26083 
L 240.590944 89.480388 
L 242.671492 90.10903 
L 244.75204 90.045568 
L 246.832588 86.799847 
L 248.913136 87.997185 
L 250.993684 84.607804 
L 253.074232 81.584614 
L 255.15478 78.322421 
L 257.235328 73.245519 
L 259.315876 77.323212 
L 261.396424 76.832655 
L 263.476972 75.210453 
L 265.55752 76.933611 
L 267.638068 76.15071 
L 269.718616 76.024882 
L 271.799164 71.601676 
L 273.879712 73.403892 
L 275.96026 70.382639 
L 278.040808 69.874367 
L 280.121356 71.500903 
L 282.201904 72.19681 
L 284.282452 74.066663 
L 286.363 74.000383 
L 288.443548 75.081127 
L 290.524096 79.124237 
L 292.604644 78.149357 
L 294.685192 78.003257 
L 296.76574 79.038903 
L 298.846288 81.838399 
L 300.926836 83.839912 
L 303.007384 89.357399 
L 305.087932 92.637334 
L 307.16848 94.310466 
L 309.249028 98.126847 
L 311.329576 100.976297 
L 313.410124 102.990664 
L 315.490672 103.522246 
L 317.57122 105.528368 
L 319.651768 105.845511 
L 321.732316 109.136519 
L 323.812864 108.208339 
L 325.893412 108.183306 
L 327.97396 107.248584 
L 330.054508 105.607606 
L 332.135056 106.142527 
L 334.215604 104.676755 
L 336.296152 106.199302 
L 338.3767 104.433138 
L 340.457248 98.592423 
L 342.537796 102.334811 
L 344.618344 102.549722 
L 346.698892 100.640229 
L 348.77944 103.929414 
L 350.859988 103.080659 
L 352.940536 105.123744 
L 355.021084 104.523422 
L 359.18218 107.002698 
L 361.262728 109.750206 
L 363.343276 107.678637 
L 365.423824 115.615616 
L 367.504372 117.926322 
L 369.58492 118.361915 
L 371.665468 119.484995 
L 373.746016 126.352741 
L 375.826564 126.548186 
L 377.907112 123.716741 
L 379.98766 120.100409 
L 382.068208 119.292858 
L 384.148756 118.829451 
L 386.229304 111.112923 
L 388.309852 111.006163 
L 390.3904 109.433169 
L 392.470948 111.821903 
L 394.551496 112.694238 
L 396.632044 112.409995 
L 398.712592 108.365627 
L 400.79314 103.045652 
L 402.873688 102.776154 
L 404.954236 103.170043 
L 407.034784 100.736062 
L 409.115332 98.824716 
L 411.19588 98.815685 
L 413.276428 95.285199 
L 415.356976 92.839085 
L 417.437524 89.767675 
L 419.518072 87.242112 
L 421.59862 92.663727 
L 423.679168 91.64732 
L 425.759716 97.530451 
L 427.840264 96.96577 
L 429.920812 98.605848 
L 432.00136 101.444702 
L 434.081908 99.504055 
L 436.162456 96.740645 
L 438.243004 95.940672 
L 440.323552 94.81652 
L 442.4041 94.458967 
L 444.484648 92.897922 
L 446.565196 94.912962 
L 448.645744 99.674419 
L 450.726292 99.941442 
L 452.80684 100.585259 
L 456.967936 99.465811 
L 459.048484 97.230926 
L 461.129032 97.33024 
L 463.20958 99.380802 
L 465.290128 98.897726 
L 469.451224 99.045431 
L 471.531772 101.655388 
L 473.61232 101.776334 
L 475.692868 102.011584 
L 477.773416 102.785285 
L 479.853964 103.721849 
L 481.934512 108.589653 
L 484.01506 111.028102 
L 486.095608 106.66607 
L 488.176156 110.018799 
L 490.256704 114.444035 
L 492.337252 116.641221 
L 494.4178 115.606916 
L 496.498348 116.904365 
L 498.578896 119.174858 
L 500.659444 121.2117 
L 502.739992 119.429233 
L 504.82054 119.006844 
L 506.901088 119.7893 
L 508.981636 121.454719 
L 511.062184 125.079313 
L 513.142732 124.460204 
L 515.22328 128.816967 
L 517.303828 123.64056 
L 519.384376 121.6304 
L 521.464924 118.188281 
L 523.545472 118.184137 
L 525.62602 110.837224 
L 527.706568 113.827077 
L 529.787116 109.63956 
L 531.867664 107.274312 
L 533.948212 102.371299 
L 536.02876 103.552918 
L 538.109308 101.706293 
L 540.189856 100.35701 
L 542.270404 95.667382 
L 544.350952 94.656806 
L 546.4315 94.76729 
L 548.512048 90.054763 
L 550.592596 91.247784 
L 552.673144 86.106311 
L 554.753692 83.320794 
L 556.83424 81.338894 
L 558.914788 81.610793 
L 560.995336 75.067396 
L 563.075884 69.820229 
L 565.156432 67.185573 
L 567.23698 62.802787 
L 569.317528 56.529746 
L 571.398076 53.046031 
L 573.478624 54.731734 
L 575.559172 54.602859 
L 577.63972 51.968611 
L 579.720268 45.699048 
L 581.800816 46.363394 
L 583.881364 43.333346 
L 585.961912 41.523368 
L 588.04246 43.417541 
L 590.123008 39.865384 
L 592.203556 42.536597 
L 594.284104 43.74233 
L 596.364652 43.517142 
L 598.4452 41.483468 
L 600.525748 40.842738 
L 602.606296 44.181733 
L 604.686844 42.357517 
L 606.767392 44.366656 
L 608.84794 45.237584 
L 610.928488 45.472965 
L 613.009036 42.715927 
L 615.089584 41.429695 
L 617.170132 42.091715 
L 619.25068 44.425168 
L 621.331228 46.359802 
L 623.411776 43.632549 
L 627.572872 42.634945 
L 629.65342 45.293734 
L 631.733968 48.727333 
L 633.814516 50.566735 
L 635.895064 47.604554 
L 637.975612 45.746911 
L 640.05616 49.902932 
L 642.136708 48.759272 
L 644.217256 47.875985 
L 646.297804 51.311713 
L 648.378352 55.798103 
L 650.4589 52.080918 
L 652.539448 52.247154 
L 654.619996 56.720047 
L 656.700544 54.498977 
L 658.781092 53.138233 
L 660.86164 56.319872 
L 662.942188 60.353306 
L 665.022736 59.378354 
L 669.183832 59.693785 
L 671.26438 61.902674 
L 673.344928 61.804603 
L 675.425476 64.513552 
L 677.506024 72.557917 
L 679.586572 67.703866 
L 681.66712 66.822635 
L 683.747668 70.350417 
L 685.828216 66.494991 
L 687.908764 68.901551 
L 689.989312 70.589229 
L 692.06986 72.114137 
L 694.150408 73.901818 
L 696.230956 72.919632 
L 698.311504 72.608604 
L 700.392052 76.078893 
L 702.4726 75.061319 
L 704.553148 76.139536 
L 706.633696 82.26121 
L 708.714244 83.273872 
L 710.794792 90.5206 
L 712.87534 93.689955 
L 714.955888 95.982107 
L 717.036436 97.742597 
L 719.116984 101.345423 
L 721.197532 106.878849 
L 723.27808 111.959373 
L 725.358628 115.209664 
L 727.439176 113.003662 
L 729.519724 109.863757 
L 731.600272 108.421772 
L 733.68082 109.316642 
L 735.761368 109.011547 
L 737.841916 105.581379 
L 739.922464 108.650515 
L 742.003012 109.693035 
L 744.08356 108.594411 
L 746.164108 106.642977 
L 748.244656 103.301786 
L 750.325204 102.489376 
L 752.405752 103.758033 
L 754.4863 107.570615 
L 756.566848 109.607487 
L 758.647396 108.233715 
L 760.727944 107.288655 
L 762.808492 104.870762 
L 764.88904 107.468563 
L 766.969588 111.285225 
L 771.130684 110.508359 
L 773.211232 113.469275 
L 775.29178 115.21675 
L 777.372328 123.024928 
L 779.452876 123.599078 
L 781.533424 124.435777 
L 783.613972 127.424861 
L 785.69452 121.970066 
L 787.775068 121.484432 
L 789.855616 124.506671 
L 791.936164 123.773343 
L 794.016712 117.430722 
L 796.09726 116.338853 
L 798.177808 123.842519 
L 800.258356 122.301614 
L 802.338904 120.994022 
L 804.419452 123.955112 
L 804.419452 123.955112 
" style="fill:none;stroke:#d3d3d3;stroke-dasharray:3,4.95;stroke-dashoffset:0;stroke-width:3;"/>
   </g>
   <g id="line2d_51">
    <path clip-path="url(#pbe2f6256b3)" d="M 88.71094 117.379103 
L 90.791488 118.673629 
L 92.872036 122.275331 
L 94.952584 126.641099 
L 97.033132 126.613738 
L 99.11368 128.085478 
L 101.194228 130.070369 
L 103.274776 133.412076 
L 105.355324 132.489321 
L 107.435872 134.1907 
L 109.51642 137.682368 
L 113.677516 143.100413 
L 115.758064 143.677812 
L 117.838612 148.417659 
L 119.91916 148.79107 
L 121.999708 155.029712 
L 124.080256 156.573097 
L 126.160804 155.438705 
L 128.241352 155.559835 
L 130.3219 161.610494 
L 132.402448 166.070581 
L 134.482996 163.281374 
L 136.563544 166.69886 
L 138.644092 166.54566 
L 140.72464 167.191706 
L 142.805188 165.558077 
L 144.885736 166.059037 
L 146.966284 164.050928 
L 149.046832 167.634397 
L 153.207928 171.53646 
L 155.288476 169.125701 
L 157.369024 166.907964 
L 159.449572 170.235233 
L 161.53012 169.718594 
L 163.610668 170.868594 
L 165.691216 170.23282 
L 167.771764 166.258325 
L 169.852312 171.385262 
L 171.93286 174.802138 
L 174.013408 171.736711 
L 176.093956 170.787056 
L 178.174504 167.729268 
L 180.255052 167.788035 
L 182.3356 164.158594 
L 184.416148 158.344197 
L 186.496696 151.927636 
L 188.577244 150.60527 
L 192.73834 146.603982 
L 194.818888 147.015037 
L 196.899436 147.036351 
L 198.979984 140.940091 
L 201.060532 143.756768 
L 203.14108 144.806348 
L 205.221628 142.839562 
L 207.302176 143.819803 
L 209.382724 143.721797 
L 211.463272 146.109634 
L 213.54382 147.418927 
L 215.624368 141.480083 
L 217.704916 146.891383 
L 219.785464 146.452501 
L 221.866012 140.510926 
L 223.94656 143.526541 
L 226.027108 142.336081 
L 228.107656 138.507681 
L 230.188204 140.50755 
L 232.268752 147.54887 
L 234.3493 150.027907 
L 236.429848 149.647456 
L 238.510396 149.836704 
L 240.590944 151.66946 
L 242.671492 151.304597 
L 244.75204 153.093249 
L 246.832588 149.589315 
L 248.913136 148.827538 
L 250.993684 148.898847 
L 253.074232 149.397399 
L 255.15478 149.684741 
L 257.235328 154.292689 
L 259.315876 154.891248 
L 261.396424 157.720449 
L 263.476972 154.117852 
L 265.55752 153.194426 
L 267.638068 153.365897 
L 269.718616 154.801909 
L 271.799164 154.800089 
L 273.879712 155.21571 
L 275.96026 157.351287 
L 278.040808 162.414556 
L 280.121356 160.239054 
L 282.201904 153.352806 
L 284.282452 155.792152 
L 286.363 156.410989 
L 288.443548 153.862721 
L 290.524096 155.256098 
L 292.604644 156.31964 
L 294.685192 157.230628 
L 296.76574 158.679506 
L 300.926836 145.551537 
L 303.007384 142.409051 
L 305.087932 141.559767 
L 307.16848 136.483848 
L 309.249028 132.703883 
L 311.329576 131.49827 
L 313.410124 132.062399 
L 315.490672 128.701592 
L 317.57122 130.234349 
L 319.651768 126.807297 
L 321.732316 124.842098 
L 323.812864 126.175516 
L 325.893412 126.568768 
L 327.97396 127.514328 
L 330.054508 127.035946 
L 332.135056 129.515537 
L 334.215604 131.657281 
L 336.296152 133.225523 
L 338.3767 131.862839 
L 340.457248 132.163454 
L 342.537796 137.226404 
L 344.618344 137.281264 
L 346.698892 142.823966 
L 348.77944 144.980258 
L 350.859988 142.609036 
L 352.940536 141.518467 
L 355.021084 139.249478 
L 357.101632 138.265962 
L 359.18218 133.87712 
L 361.262728 132.190642 
L 363.343276 129.95185 
L 365.423824 132.243836 
L 367.504372 131.342324 
L 369.58492 131.443328 
L 371.665468 128.571992 
L 373.746016 126.962995 
L 375.826564 121.681305 
L 377.907112 122.163086 
L 379.98766 122.497211 
L 382.068208 124.012311 
L 384.148756 128.37042 
L 386.229304 124.474386 
L 388.309852 127.55403 
L 390.3904 126.821412 
L 392.470948 127.014455 
L 394.551496 124.350902 
L 396.632044 125.317468 
L 398.712592 126.093463 
L 400.79314 128.833817 
L 402.873688 129.086203 
L 404.954236 130.462222 
L 407.034784 132.300089 
L 409.115332 128.06322 
L 411.19588 131.526362 
L 413.276428 130.803827 
L 415.356976 132.966873 
L 417.437524 136.437586 
L 419.518072 132.055988 
L 421.59862 136.797626 
L 423.679168 137.94003 
L 425.759716 140.097095 
L 427.840264 136.093556 
L 429.920812 135.65156 
L 432.00136 138.291345 
L 434.081908 137.688481 
L 436.162456 136.64866 
L 438.243004 135.28821 
L 440.323552 139.187961 
L 442.4041 138.498354 
L 444.484648 140.154617 
L 446.565196 139.318093 
L 448.645744 140.297774 
L 450.726292 142.120418 
L 452.80684 140.382816 
L 454.887388 140.879826 
L 456.967936 141.151185 
L 459.048484 143.036137 
L 461.129032 143.563772 
L 463.20958 143.896653 
L 465.290128 140.244381 
L 467.370676 138.49182 
L 469.451224 141.704802 
L 471.531772 137.771551 
L 473.61232 137.38869 
L 475.692868 133.561689 
L 477.773416 132.632171 
L 479.853964 134.509606 
L 481.934512 132.867009 
L 484.01506 133.060344 
L 486.095608 135.49031 
L 488.176156 134.592713 
L 490.256704 130.274919 
L 492.337252 127.482735 
L 494.4178 124.094306 
L 496.498348 120.452904 
L 498.578896 121.084749 
L 500.659444 125.403793 
L 502.739992 123.379616 
L 504.82054 122.890515 
L 506.901088 122.562583 
L 508.981636 121.454719 
L 511.062184 120.552765 
L 513.142732 120.67949 
L 515.22328 129.517879 
L 517.303828 130.264148 
L 519.384376 128.729453 
L 521.464924 130.987947 
L 523.545472 133.589328 
L 525.62602 134.883022 
L 527.706568 137.362434 
L 529.787116 137.22066 
L 536.02876 144.131499 
L 538.109308 141.565409 
L 540.189856 144.52914 
L 542.270404 144.199743 
L 544.350952 145.623792 
L 546.4315 147.351605 
L 548.512048 145.824108 
L 550.592596 148.668506 
L 552.673144 149.441306 
L 554.753692 153.217993 
L 556.83424 152.139876 
L 558.914788 152.077993 
L 560.995336 151.359757 
L 563.075884 155.477867 
L 565.156432 156.118328 
L 569.317528 158.550893 
L 571.398076 161.539625 
L 573.478624 162.188279 
L 575.559172 166.155373 
L 577.63972 168.03376 
L 579.720268 169.252959 
L 581.800816 173.260685 
L 583.881364 168.720973 
L 585.961912 167.937539 
L 588.04246 166.563266 
L 590.123008 166.091462 
L 592.203556 164.985059 
L 594.284104 169.802949 
L 596.364652 171.308315 
L 598.4452 169.539048 
L 600.525748 169.815098 
L 602.606296 167.646613 
L 604.686844 164.429887 
L 606.767392 168.241378 
L 608.84794 168.748508 
L 610.928488 171.318686 
L 613.009036 170.269133 
L 615.089584 171.633446 
L 617.170132 173.864039 
L 619.25068 174.560547 
L 621.331228 172.400326 
L 623.411776 172.792527 
L 625.492324 169.061165 
L 627.572872 172.369195 
L 629.65342 172.219606 
L 631.733968 173.28231 
L 633.814516 176.029165 
L 635.895064 175.658542 
L 637.975612 178.458734 
L 640.05616 179.236816 
L 642.136708 179.085891 
L 644.217256 179.509991 
L 646.297804 179.705387 
L 648.378352 176.177262 
L 650.4589 179.014136 
L 652.539448 178.051332 
L 654.619996 176.486731 
L 656.700544 176.256077 
L 658.781092 183.459396 
L 660.86164 183.827737 
L 662.942188 183.344724 
L 665.022736 183.078342 
L 667.103284 184.464959 
L 669.183832 183.050773 
L 671.26438 184.435548 
L 673.344928 185.12042 
L 675.425476 188.098033 
L 677.506024 189.217408 
L 679.586572 191.484364 
L 681.66712 191.775347 
L 683.747668 188.654402 
L 685.828216 188.541829 
L 687.908764 187.614747 
L 689.989312 194.029136 
L 692.06986 192.750428 
L 694.150408 195.625589 
L 698.311504 198.373054 
L 700.392052 197.366518 
L 702.4726 192.735237 
L 704.553148 193.999469 
L 706.633696 197.007142 
L 708.714244 194.101371 
L 712.87534 191.678778 
L 714.955888 188.847542 
L 717.036436 184.393897 
L 719.116984 182.677492 
L 721.197532 181.897441 
L 723.27808 176.157096 
L 725.358628 180.827742 
L 727.439176 179.391925 
L 729.519724 178.847213 
L 731.600272 179.93183 
L 733.68082 179.610358 
L 735.761368 180.756687 
L 737.841916 180.253278 
L 739.922464 183.735079 
L 742.003012 186.741611 
L 744.08356 189.402462 
L 746.164108 189.437208 
L 748.244656 191.21166 
L 750.325204 191.640189 
L 752.405752 192.718964 
L 754.4863 191.902893 
L 756.566848 189.41295 
L 758.647396 189.081094 
L 760.727944 187.210081 
L 762.808492 185.710658 
L 764.88904 187.808628 
L 766.969588 188.755162 
L 769.050136 185.422229 
L 771.130684 182.388553 
L 773.211232 182.379433 
L 775.29178 179.613759 
L 777.372328 181.360909 
L 779.452876 179.527331 
L 781.533424 181.459073 
L 783.613972 183.144261 
L 785.69452 181.36236 
L 787.775068 184.18911 
L 791.936164 188.628414 
L 794.016712 184.320497 
L 796.09726 183.455741 
L 798.177808 184.158878 
L 800.258356 184.702299 
L 802.338904 180.220144 
L 804.419452 179.792615 
L 804.419452 179.792615 
" style="fill:none;stroke:#696969;stroke-dasharray:11.1,4.8;stroke-dashoffset:0;stroke-width:3;"/>
   </g>
   <g id="line2d_52">
    <path clip-path="url(#pbe2f6256b3)" d="M 88.71094 129.148257 
L 90.791488 128.945406 
L 94.952584 129.46851 
L 97.033132 129.253252 
L 99.11368 129.930176 
L 101.194228 130.372794 
L 103.274776 130.991839 
L 105.355324 131.492584 
L 107.435872 132.360306 
L 109.51642 133.00666 
L 111.596968 133.945651 
L 113.677516 134.640278 
L 115.758064 135.77786 
L 117.838612 136.182702 
L 119.91916 137.582283 
L 124.080256 138.952676 
L 126.160804 140.020098 
L 132.402448 141.565025 
L 134.482996 142.66292 
L 136.563544 142.758939 
L 138.644092 143.873552 
L 144.885736 146.193044 
L 146.966284 147.245322 
L 151.12738 148.846404 
L 153.207928 149.655011 
L 155.288476 149.918725 
L 157.369024 149.789974 
L 161.53012 150.604209 
L 163.610668 150.844972 
L 165.691216 150.763809 
L 167.771764 151.003699 
L 174.013408 150.87652 
L 176.093956 150.623366 
L 180.255052 150.421894 
L 182.3356 150.204916 
L 184.416148 149.395515 
L 186.496696 148.298479 
L 188.577244 146.947889 
L 190.657792 146.661174 
L 192.73834 146.13388 
L 194.818888 145.171532 
L 196.899436 144.624194 
L 198.979984 143.577281 
L 201.060532 142.854087 
L 203.14108 141.795748 
L 205.221628 140.36871 
L 207.302176 139.614992 
L 209.382724 138.670317 
L 211.463272 138.115799 
L 213.54382 137.22861 
L 217.704916 136.53601 
L 219.785464 135.791408 
L 221.866012 135.613175 
L 223.94656 135.149301 
L 226.027108 134.224932 
L 230.188204 134.212354 
L 232.268752 133.663116 
L 234.3493 133.670769 
L 236.429848 134.242038 
L 238.510396 134.1948 
L 242.671492 132.629387 
L 244.75204 132.464328 
L 248.913136 132.461078 
L 253.074232 131.038698 
L 255.15478 130.589359 
L 257.235328 130.260985 
L 259.315876 130.252325 
L 261.396424 129.526661 
L 263.476972 129.244091 
L 265.55752 128.548239 
L 269.718616 127.921423 
L 271.799164 127.212596 
L 273.879712 126.172427 
L 275.96026 125.810899 
L 280.121356 125.563503 
L 282.201904 125.52629 
L 284.282452 125.124516 
L 286.363 125.080497 
L 290.524096 125.169677 
L 292.604644 124.428188 
L 296.76574 123.232619 
L 300.926836 122.621382 
L 303.007384 121.922883 
L 305.087932 121.64115 
L 307.16848 121.131207 
L 309.249028 120.330339 
L 311.329576 119.720018 
L 313.410124 118.927588 
L 315.490672 118.411991 
L 317.57122 118.303595 
L 321.732316 117.88402 
L 323.812864 117.804341 
L 327.97396 116.681642 
L 330.054508 115.961866 
L 332.135056 115.106235 
L 334.215604 114.460667 
L 336.296152 113.616719 
L 338.3767 113.6316 
L 340.457248 113.796567 
L 342.537796 112.757169 
L 346.698892 112.621485 
L 348.77944 112.195197 
L 350.859988 112.555029 
L 352.940536 112.212675 
L 355.021084 111.473353 
L 357.101632 110.948409 
L 359.18218 110.045918 
L 361.262728 109.698199 
L 365.423824 109.791588 
L 367.504372 110.432285 
L 369.58492 110.513746 
L 373.746016 111.431771 
L 375.826564 112.858141 
L 382.068208 116.382256 
L 386.229304 119.825322 
L 390.3904 122.582756 
L 392.470948 124.242429 
L 394.551496 125.700559 
L 396.632044 126.693263 
L 398.712592 128.036196 
L 404.954236 129.947812 
L 409.115332 131.7522 
L 411.19588 132.063466 
L 413.276428 132.981846 
L 415.356976 133.723833 
L 417.437524 134.105243 
L 419.518072 134.838538 
L 421.59862 135.312481 
L 423.679168 135.528441 
L 425.759716 136.174016 
L 427.840264 137.153226 
L 429.920812 137.156399 
L 434.081908 137.576776 
L 436.162456 137.529328 
L 438.243004 137.204266 
L 440.323552 137.308607 
L 442.4041 136.978935 
L 444.484648 136.206201 
L 446.565196 136.161815 
L 450.726292 135.501744 
L 456.967936 133.560529 
L 459.048484 132.69194 
L 461.129032 132.525647 
L 463.20958 132.582634 
L 465.290128 132.290686 
L 467.370676 131.665397 
L 471.531772 131.180891 
L 473.61232 131.192387 
L 475.692868 130.52823 
L 477.773416 130.236711 
L 479.853964 130.089694 
L 481.934512 129.411116 
L 488.176156 127.692235 
L 490.256704 127.30561 
L 492.337252 126.764493 
L 496.498348 124.828411 
L 498.578896 124.094117 
L 500.659444 123.512171 
L 502.739992 123.222303 
L 506.901088 121.786371 
L 508.981636 121.454719 
L 511.062184 121.34045 
L 515.22328 119.870413 
L 517.303828 119.622053 
L 519.384376 119.059745 
L 521.464924 119.061283 
L 523.545472 119.506561 
L 527.706568 119.934731 
L 529.787116 120.329647 
L 536.02876 121.214185 
L 538.109308 121.810755 
L 540.189856 122.276498 
L 542.270404 122.523942 
L 546.4315 124.545649 
L 548.512048 125.239969 
L 550.592596 127.035098 
L 552.673144 127.781824 
L 554.753692 129.097345 
L 556.83424 131.164208 
L 558.914788 133.871556 
L 567.23698 146.278628 
L 569.317528 149.947722 
L 571.398076 153.018952 
L 573.478624 155.598926 
L 579.720268 164.032426 
L 583.881364 168.612185 
L 590.123008 172.829739 
L 592.203556 173.786438 
L 594.284104 174.530561 
L 596.364652 174.836973 
L 600.525748 176.732755 
L 602.606296 177.885477 
L 604.686844 178.683419 
L 606.767392 179.764351 
L 610.928488 180.507745 
L 613.009036 180.985955 
L 615.089584 180.812101 
L 619.25068 181.739862 
L 621.331228 181.932327 
L 625.492324 181.686563 
L 627.572872 182.156101 
L 631.733968 181.911136 
L 635.895064 181.093358 
L 640.05616 179.983196 
L 642.136708 179.511453 
L 646.297804 178.181273 
L 650.4589 177.701849 
L 652.539448 177.175625 
L 654.619996 176.485448 
L 656.700544 175.621526 
L 658.781092 175.816715 
L 660.86164 175.5637 
L 662.942188 174.69896 
L 665.022736 174.057462 
L 667.103284 172.94106 
L 669.183832 171.618862 
L 671.26438 170.766128 
L 675.425476 167.738513 
L 677.506024 166.551009 
L 679.586572 166.657376 
L 681.66712 165.881052 
L 683.747668 164.670525 
L 685.828216 163.219803 
L 687.908764 161.362553 
L 689.989312 160.214145 
L 692.06986 158.590351 
L 696.230956 156.36521 
L 698.311504 155.991446 
L 700.392052 155.428535 
L 702.4726 154.660074 
L 704.553148 153.138723 
L 710.794792 149.09197 
L 712.87534 148.124186 
L 714.955888 147.362386 
L 721.197532 144.405309 
L 723.27808 143.834827 
L 729.519724 140.471098 
L 731.600272 138.940029 
L 733.68082 137.950425 
L 735.761368 137.203491 
L 742.003012 135.461646 
L 746.164108 134.598982 
L 748.244656 133.602894 
L 750.325204 132.73256 
L 754.4863 130.842632 
L 756.566848 130.319508 
L 762.808492 128.398332 
L 764.88904 127.343313 
L 766.969588 126.761983 
L 769.050136 125.830855 
L 771.130684 125.140521 
L 773.211232 124.213383 
L 777.372328 123.118739 
L 779.452876 121.94228 
L 783.613972 120.511968 
L 787.775068 119.688708 
L 789.855616 119.195804 
L 791.936164 118.555564 
L 794.016712 117.63129 
L 796.09726 116.863355 
L 800.258356 115.925987 
L 802.338904 115.364515 
L 804.419452 114.636375 
L 804.419452 114.636375 
" style="fill:none;stroke:#808080;stroke-dasharray:19.2,4.8,3,4.8;stroke-dashoffset:0;stroke-width:3;"/>
   </g>
   <g id="line2d_53">
    <path clip-path="url(#pbe2f6256b3)" d="M 84.549844 121.454719 
L 806.5 121.454719 
" style="fill:none;stroke:#000000;stroke-linecap:square;stroke-width:1.5;"/>
   </g>
   <g id="patch_3">
    <path d="M 84.549844 206.298438 
L 806.5 206.298438 
" style="fill:none;stroke:#000000;stroke-linecap:square;stroke-linejoin:miter;stroke-width:0.8;"/>
   </g>
  </g>
 </g>
 <defs>
  <clipPath id="pbe2f6256b3">
   <rect height="174.358438" width="721.950156" x="84.549844" y="31.94"/>
  </clipPath>
 </defs>
</svg>
