<?xml version="1.0" encoding="utf-8" standalone="no"?>
<!DOCTYPE svg PUBLIC "-//W3C//DTD SVG 1.1//EN"
  "http://www.w3.org/Graphics/SVG/1.1/DTD/svg11.dtd">
<!-- Created with matplotlib (http://matplotlib.org/) -->
<svg height="252pt" version="1.1" viewBox="0 0 864 252" width="864pt" xmlns="http://www.w3.org/2000/svg" xmlns:xlink="http://www.w3.org/1999/xlink">
 <defs>
  <style type="text/css">
*{stroke-linecap:butt;stroke-linejoin:round;}
  </style>
 </defs>
 <g id="figure_1">
  <g id="patch_1">
   <path d="M 0 252 
L 864 252 
L 864 0 
L 0 0 
z
" style="fill:none;"/>
  </g>
  <g id="axes_1">
   <g id="patch_2">
    <path d="M 81.9275 206.298438 
L 806.5 206.298438 
L 806.5 31.94 
L 81.9275 31.94 
z
" style="fill:none;"/>
   </g>
   <g id="PolyCollection_1">
    <path clip-path="url(#pec2d09b97a)" d="M 81.9275 152.664858 
L 81.9275 206.298437 
L 84.015605 206.298437 
L 86.10371 206.298437 
L 88.191816 206.298437 
L 90.279921 206.298437 
L 92.368026 206.298437 
L 94.456131 206.298437 
L 96.544236 206.298437 
L 98.632341 206.298437 
L 100.720447 206.298437 
L 102.808552 206.298437 
L 104.896657 206.298437 
L 106.984762 206.298437 
L 109.072867 206.298437 
L 111.160973 206.298437 
L 113.249078 206.298437 
L 115.337183 206.298437 
L 117.425288 206.298437 
L 119.513393 206.298437 
L 121.601499 206.298437 
L 123.689604 206.298437 
L 125.777709 206.298437 
L 127.865814 206.298437 
L 129.953919 206.298437 
L 132.042024 206.298437 
L 134.13013 206.298437 
L 136.218235 206.298437 
L 138.30634 206.298437 
L 140.394445 206.298437 
L 142.48255 206.298437 
L 144.570656 206.298437 
L 146.658761 206.298437 
L 148.746866 206.298437 
L 150.834971 206.298437 
L 152.923076 206.298437 
L 155.011182 206.298437 
L 157.099287 206.298437 
L 159.187392 206.298437 
L 161.275497 206.298437 
L 163.363602 206.298437 
L 165.451707 206.298437 
L 167.539813 206.298437 
L 169.627918 206.298437 
L 171.716023 206.298437 
L 173.804128 206.298437 
L 175.892233 206.298437 
L 177.980339 206.298437 
L 180.068444 206.298437 
L 182.156549 206.298437 
L 184.244654 206.298437 
L 186.332759 206.298437 
L 188.420865 206.298437 
L 190.50897 206.298437 
L 192.597075 206.298437 
L 194.68518 206.298437 
L 196.773285 206.298437 
L 198.86139 206.298437 
L 200.949496 206.298437 
L 203.037601 206.298437 
L 205.125706 206.298437 
L 207.213811 206.298437 
L 209.301916 206.298437 
L 211.390022 206.298437 
L 213.478127 206.298437 
L 215.566232 206.298437 
L 217.654337 206.298437 
L 219.742442 206.298437 
L 221.830548 206.298437 
L 223.918653 206.298437 
L 226.006758 206.298437 
L 228.094863 206.298437 
L 230.182968 206.298437 
L 232.271073 206.298437 
L 234.359179 206.298437 
L 236.447284 206.298437 
L 238.535389 206.298437 
L 240.623494 206.298437 
L 242.711599 206.298437 
L 244.799705 206.298437 
L 246.88781 206.298437 
L 248.975915 206.298437 
L 251.06402 206.298437 
L 253.152125 206.298437 
L 255.240231 206.298437 
L 257.328336 206.298437 
L 259.416441 206.298437 
L 261.504546 206.298437 
L 263.592651 206.298437 
L 265.680756 206.298437 
L 267.768862 206.298437 
L 269.856967 206.298437 
L 271.945072 206.298437 
L 274.033177 206.298437 
L 276.121282 206.298437 
L 278.209388 206.298437 
L 280.297493 206.298437 
L 282.385598 206.298437 
L 284.473703 206.298437 
L 286.561808 206.298437 
L 288.649914 206.298437 
L 290.738019 206.298437 
L 292.826124 206.298437 
L 294.914229 206.298437 
L 297.002334 206.298437 
L 299.090439 206.298437 
L 301.178545 206.298437 
L 303.26665 206.298437 
L 305.354755 206.298437 
L 307.44286 206.298437 
L 309.530965 206.298437 
L 311.619071 206.298437 
L 313.707176 206.298437 
L 315.795281 206.298437 
L 317.883386 206.298437 
L 319.971491 206.298437 
L 322.059597 206.298437 
L 324.147702 206.298437 
L 326.235807 206.298437 
L 328.323912 206.298437 
L 330.412017 206.298437 
L 332.500122 206.298437 
L 334.588228 206.298437 
L 336.676333 206.298437 
L 338.764438 206.298437 
L 340.852543 206.298437 
L 342.940648 206.298437 
L 345.028754 206.298437 
L 347.116859 206.298437 
L 349.204964 206.298437 
L 351.293069 206.298437 
L 353.381174 206.298437 
L 355.46928 206.298437 
L 357.557385 206.298437 
L 359.64549 206.298437 
L 361.733595 206.298437 
L 363.8217 206.298437 
L 365.909805 206.298437 
L 367.997911 206.298437 
L 370.086016 206.298437 
L 372.174121 206.298437 
L 374.262226 206.298437 
L 376.350331 206.298437 
L 378.438437 206.298437 
L 380.526542 206.298437 
L 382.614647 206.298437 
L 384.702752 206.298437 
L 386.790857 206.298437 
L 388.878963 206.298437 
L 390.967068 206.298437 
L 393.055173 206.298437 
L 395.143278 206.298437 
L 397.231383 206.298437 
L 399.319488 206.298437 
L 401.407594 206.298437 
L 403.495699 206.298437 
L 405.583804 206.298437 
L 407.671909 206.298437 
L 409.760014 206.298437 
L 411.84812 206.298437 
L 413.936225 206.298437 
L 416.02433 206.298437 
L 418.112435 206.298437 
L 420.20054 206.298437 
L 422.288646 206.298437 
L 424.376751 206.298437 
L 426.464856 206.298437 
L 428.552961 206.298437 
L 430.641066 206.298437 
L 432.729171 206.298437 
L 434.817277 206.298437 
L 436.905382 206.298437 
L 438.993487 206.298437 
L 441.081592 206.298437 
L 443.169697 206.298437 
L 445.257803 206.298437 
L 447.345908 206.298437 
L 449.434013 206.298437 
L 451.522118 206.298437 
L 453.610223 206.298437 
L 455.698329 206.298437 
L 457.786434 206.298437 
L 459.874539 206.298437 
L 461.962644 206.298437 
L 464.050749 206.298437 
L 466.138854 206.298437 
L 468.22696 206.298437 
L 470.315065 206.298437 
L 472.40317 206.298437 
L 474.491275 206.298437 
L 476.57938 206.298437 
L 478.667486 206.298437 
L 480.755591 206.298437 
L 482.843696 206.298437 
L 484.931801 206.298437 
L 487.019906 206.298437 
L 489.108012 206.298437 
L 491.196117 206.298437 
L 493.284222 206.298437 
L 495.372327 206.298437 
L 497.460432 206.298437 
L 499.548537 206.298437 
L 501.636643 206.298437 
L 503.724748 206.298437 
L 505.812853 206.298437 
L 507.900958 206.298437 
L 509.989063 206.298437 
L 512.077169 206.298437 
L 514.165274 206.298437 
L 516.253379 206.298437 
L 518.341484 206.298437 
L 520.429589 206.298437 
L 522.517695 206.298437 
L 524.6058 206.298437 
L 526.693905 206.298437 
L 528.78201 206.298437 
L 530.870115 206.298437 
L 532.95822 206.298437 
L 535.046326 206.298437 
L 537.134431 206.298437 
L 539.222536 206.298437 
L 541.310641 206.298437 
L 543.398746 206.298437 
L 545.486852 206.298437 
L 547.574957 206.298437 
L 549.663062 206.298437 
L 551.751167 206.298437 
L 553.839272 206.298437 
L 555.927378 206.298437 
L 558.015483 206.298437 
L 560.103588 206.298437 
L 562.191693 206.298437 
L 564.279798 206.298437 
L 566.367903 206.298437 
L 568.456009 206.298437 
L 570.544114 206.298437 
L 572.632219 206.298437 
L 574.720324 206.298437 
L 576.808429 206.298437 
L 578.896535 206.298437 
L 580.98464 206.298437 
L 583.072745 206.298437 
L 585.16085 206.298437 
L 587.248955 206.298437 
L 589.337061 206.298437 
L 591.425166 206.298437 
L 593.513271 206.298437 
L 595.601376 206.298437 
L 597.689481 206.298437 
L 599.777586 206.298437 
L 601.865692 206.298437 
L 603.953797 206.298437 
L 606.041902 206.298437 
L 608.130007 206.298437 
L 610.218112 206.298437 
L 612.306218 206.298437 
L 614.394323 206.298437 
L 616.482428 206.298437 
L 618.570533 206.298437 
L 620.658638 206.298437 
L 622.746744 206.298437 
L 624.834849 206.298437 
L 626.922954 206.298437 
L 629.011059 206.298437 
L 631.099164 206.298437 
L 633.187269 206.298437 
L 635.275375 206.298437 
L 637.36348 206.298437 
L 639.451585 206.298437 
L 641.53969 206.298437 
L 643.627795 206.298437 
L 645.715901 206.298437 
L 647.804006 206.298437 
L 649.892111 206.298437 
L 651.980216 206.298437 
L 654.068321 206.298437 
L 656.156427 206.298437 
L 658.244532 206.298437 
L 660.332637 206.298437 
L 662.420742 206.298437 
L 664.508847 206.298437 
L 666.596952 206.298437 
L 668.685058 206.298437 
L 670.773163 206.298437 
L 672.861268 206.298437 
L 674.949373 206.298437 
L 677.037478 206.298437 
L 679.125584 206.298437 
L 681.213689 206.298437 
L 683.301794 206.298437 
L 685.389899 206.298437 
L 687.478004 206.298437 
L 689.56611 206.298437 
L 691.654215 206.298437 
L 693.74232 206.298437 
L 695.830425 206.298437 
L 697.91853 206.298437 
L 700.006635 206.298437 
L 702.094741 206.298437 
L 704.182846 206.298437 
L 706.270951 206.298437 
L 708.359056 206.298437 
L 710.447161 206.298437 
L 712.535267 206.298437 
L 714.623372 206.298437 
L 716.711477 206.298437 
L 718.799582 206.298437 
L 720.887687 206.298437 
L 722.975793 206.298437 
L 725.063898 206.298437 
L 727.152003 206.298437 
L 729.240108 206.298437 
L 731.328213 206.298437 
L 733.416318 206.298437 
L 735.504424 206.298437 
L 737.592529 206.298437 
L 739.680634 206.298437 
L 741.768739 206.298437 
L 743.856844 206.298437 
L 745.94495 206.298437 
L 748.033055 206.298437 
L 750.12116 206.298437 
L 752.209265 206.298437 
L 754.29737 206.298437 
L 756.385476 206.298437 
L 758.473581 206.298437 
L 760.561686 206.298437 
L 762.649791 206.298437 
L 764.737896 206.298437 
L 766.826001 206.298437 
L 768.914107 206.298437 
L 771.002212 206.298437 
L 773.090317 206.298437 
L 775.178422 206.298437 
L 777.266527 206.298437 
L 779.354633 206.298437 
L 781.442738 206.298437 
L 783.530843 206.298437 
L 785.618948 206.298437 
L 787.707053 206.298437 
L 789.795159 206.298437 
L 791.883264 206.298437 
L 793.971369 206.298437 
L 796.059474 206.298437 
L 798.147579 206.298437 
L 800.235684 206.298437 
L 802.32379 206.298437 
L 804.411895 206.298437 
L 804.411895 147.204724 
L 804.411895 147.204724 
L 802.32379 146.01658 
L 800.235684 148.458743 
L 798.147579 150.713098 
L 796.059474 147.697896 
L 793.971369 149.200346 
L 791.883264 151.931648 
L 789.795159 152.554992 
L 787.707053 152.322783 
L 785.618948 152.087932 
L 783.530843 154.988571 
L 781.442738 153.253317 
L 779.354633 152.416553 
L 777.266527 152.607737 
L 775.178422 149.978247 
L 773.090317 152.052181 
L 771.002212 150.722146 
L 768.914107 152.882621 
L 766.826001 155.117695 
L 764.737896 153.496284 
L 762.649791 151.405682 
L 760.561686 155.440299 
L 758.473581 158.02821 
L 756.385476 157.606161 
L 754.29737 158.001403 
L 752.209265 157.841954 
L 750.12116 158.370459 
L 748.033055 158.774407 
L 745.94495 158.825099 
L 743.856844 161.371996 
L 741.768739 159.695017 
L 739.680634 159.906865 
L 737.592529 158.025676 
L 735.504424 158.671634 
L 733.416318 159.066421 
L 731.328213 158.813264 
L 729.240108 160.12736 
L 727.152003 162.512329 
L 725.063898 164.833078 
L 722.975793 162.084198 
L 720.887687 163.977841 
L 718.799582 161.737375 
L 716.711477 162.792287 
L 714.623372 164.292201 
L 712.535267 164.837482 
L 710.447161 164.390108 
L 708.359056 163.223473 
L 706.270951 164.016016 
L 704.182846 162.802692 
L 702.094741 163.449762 
L 700.006635 166.994643 
L 697.91853 166.29615 
L 695.830425 166.360444 
L 693.74232 165.135406 
L 691.654215 165.482258 
L 689.56611 165.621934 
L 687.478004 166.535157 
L 685.389899 164.648396 
L 683.301794 166.801441 
L 681.213689 169.079605 
L 679.125584 169.997399 
L 677.037478 172.164688 
L 674.949373 167.747429 
L 672.861268 165.926271 
L 670.773163 167.197444 
L 668.685058 169.083528 
L 666.596952 168.703806 
L 664.508847 169.657408 
L 662.420742 172.318131 
L 660.332637 171.759752 
L 658.244532 171.3065 
L 656.156427 169.573884 
L 654.068321 168.629597 
L 651.980216 168.013004 
L 649.892111 168.323531 
L 647.804006 170.257851 
L 645.715901 171.193207 
L 643.627795 169.583039 
L 641.53969 170.10198 
L 639.451585 171.390871 
L 637.36348 169.553313 
L 635.275375 170.09963 
L 633.187269 172.115414 
L 631.099164 170.694955 
L 629.011059 169.176703 
L 626.922954 168.278106 
L 624.834849 169.482031 
L 622.746744 169.840141 
L 620.658638 170.382303 
L 618.570533 171.173405 
L 616.482428 169.493886 
L 614.394323 167.827261 
L 612.306218 167.026731 
L 610.218112 169.103937 
L 608.130007 167.74447 
L 606.041902 167.365871 
L 603.953797 167.226598 
L 601.865692 167.628359 
L 599.777586 165.526031 
L 597.689481 165.206821 
L 595.601376 165.846033 
L 593.513271 163.937578 
L 591.425166 164.034211 
L 589.337061 163.227981 
L 587.248955 163.385445 
L 585.16085 161.904155 
L 583.072745 161.40966 
L 580.98464 165.295137 
L 578.896535 161.696588 
L 576.808429 163.301483 
L 574.720324 161.194354 
L 572.632219 156.839214 
L 570.544114 154.356923 
L 568.456009 153.525119 
L 566.367903 152.086629 
L 564.279798 149.545135 
L 562.191693 148.633077 
L 560.103588 146.053513 
L 558.015483 145.317714 
L 555.927378 140.801035 
L 553.839272 139.155589 
L 551.751167 135.920993 
L 549.663062 135.159188 
L 547.574957 135.198581 
L 545.486852 133.542562 
L 543.398746 132.120174 
L 541.310641 131.110757 
L 539.222536 129.943456 
L 537.134431 130.380774 
L 535.046326 130.601409 
L 532.95822 129.015782 
L 530.870115 130.794565 
L 528.78201 129.09075 
L 526.693905 130.668007 
L 524.6058 127.72456 
L 522.517695 130.778416 
L 520.429589 129.523856 
L 518.341484 128.627647 
L 516.253379 129.762218 
L 514.165274 132.595282 
L 512.077169 125.901311 
L 509.989063 126.705754 
L 507.900958 127.147282 
L 505.812853 125.913357 
L 503.724748 126.984078 
L 501.636643 127.058856 
L 499.548537 130.940387 
L 497.460432 127.713219 
L 495.372327 127.500111 
L 493.284222 128.374198 
L 491.196117 129.904226 
L 489.108012 131.750899 
L 487.019906 132.143243 
L 484.931801 131.710579 
L 482.843696 133.150623 
L 480.755591 132.864271 
L 478.667486 132.874098 
L 476.57938 131.731675 
L 474.491275 131.552356 
L 472.40317 132.274764 
L 470.315065 133.685735 
L 468.22696 134.883848 
L 466.138854 134.256491 
L 464.050749 134.787777 
L 461.962644 136.485639 
L 459.874539 136.356212 
L 457.786434 135.370584 
L 455.698329 135.908307 
L 453.610223 136.512629 
L 451.522118 137.465028 
L 449.434013 137.665701 
L 447.345908 137.114796 
L 445.257803 136.40996 
L 443.169697 136.653227 
L 441.081592 135.440422 
L 438.993487 136.428108 
L 436.905382 137.459005 
L 434.817277 136.961166 
L 432.729171 139.694521 
L 430.641066 140.117232 
L 428.552961 136.616773 
L 426.464856 137.590675 
L 424.376751 140.067442 
L 422.288646 136.031449 
L 420.20054 135.1587 
L 418.112435 131.624591 
L 416.02433 133.574873 
L 413.936225 132.653474 
L 411.84812 132.657653 
L 409.760014 133.732411 
L 407.671909 130.666219 
L 405.583804 134.750864 
L 403.495699 133.985908 
L 401.407594 132.886409 
L 399.319488 131.721276 
L 397.231383 132.86754 
L 395.143278 134.897474 
L 393.055173 133.867216 
L 390.967068 134.889472 
L 388.878963 134.082872 
L 386.790857 132.385425 
L 384.702752 130.017589 
L 382.614647 134.3964 
L 380.526542 132.911522 
L 378.438437 129.812636 
L 376.350331 129.805262 
L 374.262226 128.810293 
L 372.174121 129.143909 
L 370.086016 124.471706 
L 367.997911 124.389686 
L 365.909805 122.855586 
L 363.8217 122.148039 
L 361.733595 116.949647 
L 359.64549 118.615039 
L 357.557385 118.04742 
L 355.46928 117.909159 
L 353.381174 118.9731 
L 351.293069 120.029135 
L 349.204964 120.82692 
L 347.116859 124.062058 
L 345.028754 121.120396 
L 342.940648 118.82772 
L 340.852543 119.501504 
L 338.764438 113.818991 
L 336.676333 118.735151 
L 334.588228 118.92294 
L 332.500122 117.969501 
L 330.412017 117.573192 
L 328.323912 117.533733 
L 326.235807 118.412799 
L 324.147702 120.419928 
L 322.059597 119.577244 
L 319.971491 120.749051 
L 317.883386 119.800735 
L 315.795281 119.688215 
L 313.707176 121.139657 
L 311.619071 121.705269 
L 309.530965 121.145411 
L 307.44286 120.065976 
L 305.354755 120.341011 
L 303.26665 123.550254 
L 301.178545 123.514723 
L 299.090439 121.505683 
L 297.002334 124.261457 
L 294.914229 125.290088 
L 292.826124 125.308965 
L 290.738019 124.248437 
L 288.649914 125.127692 
L 286.561808 124.076311 
L 284.473703 124.645145 
L 282.385598 124.528596 
L 280.297493 122.80792 
L 278.209388 124.705169 
L 276.121282 125.450799 
L 274.033177 125.405596 
L 271.945072 125.309976 
L 269.856967 125.303919 
L 267.768862 127.668245 
L 265.680756 128.621036 
L 263.592651 128.024979 
L 261.504546 129.059741 
L 259.416441 133.071036 
L 257.328336 131.489434 
L 255.240231 132.450894 
L 253.152125 130.755148 
L 251.06402 131.710006 
L 248.975915 132.042128 
L 246.88781 134.772417 
L 244.799705 135.510358 
L 242.711599 137.464748 
L 240.623494 138.426395 
L 238.535389 138.271202 
L 236.447284 138.54879 
L 234.359179 139.887993 
L 232.271073 142.346374 
L 230.182968 140.834481 
L 228.094863 138.134411 
L 226.006758 138.841731 
L 223.918653 140.991996 
L 221.830548 140.438603 
L 219.742442 140.875811 
L 217.654337 144.153303 
L 215.566232 141.488602 
L 213.478127 140.129289 
L 211.390022 141.58974 
L 209.301916 141.157344 
L 207.213811 141.951952 
L 205.125706 142.149189 
L 203.037601 140.961425 
L 200.949496 142.182513 
L 198.86139 143.238304 
L 196.773285 144.17023 
L 194.68518 146.229204 
L 192.597075 146.878636 
L 190.50897 143.812925 
L 188.420865 147.180779 
L 186.332759 149.681278 
L 184.244654 147.209608 
L 182.156549 149.092522 
L 180.068444 152.396181 
L 177.980339 155.085666 
L 175.892233 156.698033 
L 173.804128 157.626502 
L 171.716023 156.684039 
L 169.627918 158.33351 
L 167.539813 158.431293 
L 165.451707 159.040022 
L 163.363602 162.288525 
L 161.275497 161.338497 
L 159.187392 163.205262 
L 157.099287 163.843229 
L 155.011182 163.054521 
L 152.923076 162.743813 
L 150.834971 164.130748 
L 148.746866 163.51279 
L 146.658761 161.58315 
L 144.570656 161.593814 
L 142.48255 162.813102 
L 140.394445 162.704486 
L 138.30634 161.364757 
L 136.218235 162.144145 
L 134.13013 163.143194 
L 132.042024 162.005487 
L 129.953919 165.766984 
L 127.865814 164.234426 
L 125.777709 163.545563 
L 123.689604 162.768938 
L 121.601499 165.720152 
L 119.513393 164.805768 
L 117.425288 163.677758 
L 115.337183 164.646027 
L 113.249078 159.190646 
L 111.160973 163.287906 
L 109.072867 161.754076 
L 106.984762 162.390053 
L 104.896657 160.689835 
L 102.808552 159.899943 
L 100.720447 157.97311 
L 98.632341 157.031104 
L 96.544236 155.682323 
L 94.456131 155.893788 
L 92.368026 154.881837 
L 90.279921 153.149789 
L 88.191816 154.454992 
L 86.10371 152.963853 
L 84.015605 153.784462 
L 81.9275 152.664858 
z
" style="fill:#696969;fill-opacity:0.5;"/>
   </g>
   <g id="PolyCollection_2">
    <path clip-path="url(#pec2d09b97a)" d="M 81.9275 116.952441 
L 81.9275 152.664858 
L 84.015605 153.784462 
L 86.10371 152.963853 
L 88.191816 154.454992 
L 90.279921 153.149789 
L 92.368026 154.881837 
L 94.456131 155.893788 
L 96.544236 155.682323 
L 98.632341 157.031104 
L 100.720447 157.97311 
L 102.808552 159.899943 
L 104.896657 160.689835 
L 106.984762 162.390053 
L 109.072867 161.754076 
L 111.160973 163.287906 
L 113.249078 159.190646 
L 115.337183 164.646027 
L 117.425288 163.677758 
L 119.513393 164.805768 
L 121.601499 165.720152 
L 123.689604 162.768938 
L 125.777709 163.545563 
L 127.865814 164.234426 
L 129.953919 165.766984 
L 132.042024 162.005487 
L 134.13013 163.143194 
L 136.218235 162.144145 
L 138.30634 161.364757 
L 140.394445 162.704486 
L 142.48255 162.813102 
L 144.570656 161.593814 
L 146.658761 161.58315 
L 148.746866 163.51279 
L 150.834971 164.130748 
L 152.923076 162.743813 
L 155.011182 163.054521 
L 157.099287 163.843229 
L 159.187392 163.205262 
L 161.275497 161.338497 
L 163.363602 162.288525 
L 165.451707 159.040022 
L 167.539813 158.431293 
L 169.627918 158.33351 
L 171.716023 156.684039 
L 173.804128 157.626502 
L 175.892233 156.698033 
L 177.980339 155.085666 
L 180.068444 152.396181 
L 182.156549 149.092522 
L 184.244654 147.209608 
L 186.332759 149.681278 
L 188.420865 147.180779 
L 190.50897 143.812925 
L 192.597075 146.878636 
L 194.68518 146.229204 
L 196.773285 144.17023 
L 198.86139 143.238304 
L 200.949496 142.182513 
L 203.037601 140.961425 
L 205.125706 142.149189 
L 207.213811 141.951952 
L 209.301916 141.157344 
L 211.390022 141.58974 
L 213.478127 140.129289 
L 215.566232 141.488602 
L 217.654337 144.153303 
L 219.742442 140.875811 
L 221.830548 140.438603 
L 223.918653 140.991996 
L 226.006758 138.841731 
L 228.094863 138.134411 
L 230.182968 140.834481 
L 232.271073 142.346374 
L 234.359179 139.887993 
L 236.447284 138.54879 
L 238.535389 138.271202 
L 240.623494 138.426395 
L 242.711599 137.464748 
L 244.799705 135.510358 
L 246.88781 134.772417 
L 248.975915 132.042128 
L 251.06402 131.710006 
L 253.152125 130.755148 
L 255.240231 132.450894 
L 257.328336 131.489434 
L 259.416441 133.071036 
L 261.504546 129.059741 
L 263.592651 128.024979 
L 265.680756 128.621036 
L 267.768862 127.668245 
L 269.856967 125.303919 
L 271.945072 125.309976 
L 274.033177 125.405596 
L 276.121282 125.450799 
L 278.209388 124.705169 
L 280.297493 122.80792 
L 282.385598 124.528596 
L 284.473703 124.645145 
L 286.561808 124.076311 
L 288.649914 125.127692 
L 290.738019 124.248437 
L 292.826124 125.308965 
L 294.914229 125.290088 
L 297.002334 124.261457 
L 299.090439 121.505683 
L 301.178545 123.514723 
L 303.26665 123.550254 
L 305.354755 120.341011 
L 307.44286 120.065976 
L 309.530965 121.145411 
L 311.619071 121.705269 
L 313.707176 121.139657 
L 315.795281 119.688215 
L 317.883386 119.800735 
L 319.971491 120.749051 
L 322.059597 119.577244 
L 324.147702 120.419928 
L 326.235807 118.412799 
L 328.323912 117.533733 
L 330.412017 117.573192 
L 332.500122 117.969501 
L 334.588228 118.92294 
L 336.676333 118.735151 
L 338.764438 113.818991 
L 340.852543 119.501504 
L 342.940648 118.82772 
L 345.028754 121.120396 
L 347.116859 124.062058 
L 349.204964 120.82692 
L 351.293069 120.029135 
L 353.381174 118.9731 
L 355.46928 117.909159 
L 357.557385 118.04742 
L 359.64549 118.615039 
L 361.733595 116.949647 
L 363.8217 122.148039 
L 365.909805 122.855586 
L 367.997911 124.389686 
L 370.086016 124.471706 
L 372.174121 129.143909 
L 374.262226 128.810293 
L 376.350331 129.805262 
L 378.438437 129.812636 
L 380.526542 132.911522 
L 382.614647 134.3964 
L 384.702752 130.017589 
L 386.790857 132.385425 
L 388.878963 134.082872 
L 390.967068 134.889472 
L 393.055173 133.867216 
L 395.143278 134.897474 
L 397.231383 132.86754 
L 399.319488 131.721276 
L 401.407594 132.886409 
L 403.495699 133.985908 
L 405.583804 134.750864 
L 407.671909 130.666219 
L 409.760014 133.732411 
L 411.84812 132.657653 
L 413.936225 132.653474 
L 416.02433 133.574873 
L 418.112435 131.624591 
L 420.20054 135.1587 
L 422.288646 136.031449 
L 424.376751 140.067442 
L 426.464856 137.590675 
L 428.552961 136.616773 
L 430.641066 140.117232 
L 432.729171 139.694521 
L 434.817277 136.961166 
L 436.905382 137.459005 
L 438.993487 136.428108 
L 441.081592 135.440422 
L 443.169697 136.653227 
L 445.257803 136.40996 
L 447.345908 137.114796 
L 449.434013 137.665701 
L 451.522118 137.465028 
L 453.610223 136.512629 
L 455.698329 135.908307 
L 457.786434 135.370584 
L 459.874539 136.356212 
L 461.962644 136.485639 
L 464.050749 134.787777 
L 466.138854 134.256491 
L 468.22696 134.883848 
L 470.315065 133.685735 
L 472.40317 132.274764 
L 474.491275 131.552356 
L 476.57938 131.731675 
L 478.667486 132.874098 
L 480.755591 132.864271 
L 482.843696 133.150623 
L 484.931801 131.710579 
L 487.019906 132.143243 
L 489.108012 131.750899 
L 491.196117 129.904226 
L 493.284222 128.374198 
L 495.372327 127.500111 
L 497.460432 127.713219 
L 499.548537 130.940387 
L 501.636643 127.058856 
L 503.724748 126.984078 
L 505.812853 125.913357 
L 507.900958 127.147282 
L 509.989063 126.705754 
L 512.077169 125.901311 
L 514.165274 132.595282 
L 516.253379 129.762218 
L 518.341484 128.627647 
L 520.429589 129.523856 
L 522.517695 130.778416 
L 524.6058 127.72456 
L 526.693905 130.668007 
L 528.78201 129.09075 
L 530.870115 130.794565 
L 532.95822 129.015782 
L 535.046326 130.601409 
L 537.134431 130.380774 
L 539.222536 129.943456 
L 541.310641 131.110757 
L 543.398746 132.120174 
L 545.486852 133.542562 
L 547.574957 135.198581 
L 549.663062 135.159188 
L 551.751167 135.920993 
L 553.839272 139.155589 
L 555.927378 140.801035 
L 558.015483 145.317714 
L 560.103588 146.053513 
L 562.191693 148.633077 
L 564.279798 149.545135 
L 566.367903 152.086629 
L 568.456009 153.525119 
L 570.544114 154.356923 
L 572.632219 156.839214 
L 574.720324 161.194354 
L 576.808429 163.301483 
L 578.896535 161.696588 
L 580.98464 165.295137 
L 583.072745 161.40966 
L 585.16085 161.904155 
L 587.248955 163.385445 
L 589.337061 163.227981 
L 591.425166 164.034211 
L 593.513271 163.937578 
L 595.601376 165.846033 
L 597.689481 165.206821 
L 599.777586 165.526031 
L 601.865692 167.628359 
L 603.953797 167.226598 
L 606.041902 167.365871 
L 608.130007 167.74447 
L 610.218112 169.103937 
L 612.306218 167.026731 
L 614.394323 167.827261 
L 616.482428 169.493886 
L 618.570533 171.173405 
L 620.658638 170.382303 
L 622.746744 169.840141 
L 624.834849 169.482031 
L 626.922954 168.278106 
L 629.011059 169.176703 
L 631.099164 170.694955 
L 633.187269 172.115414 
L 635.275375 170.09963 
L 637.36348 169.553313 
L 639.451585 171.390871 
L 641.53969 170.10198 
L 643.627795 169.583039 
L 645.715901 171.193207 
L 647.804006 170.257851 
L 649.892111 168.323531 
L 651.980216 168.013004 
L 654.068321 168.629597 
L 656.156427 169.573884 
L 658.244532 171.3065 
L 660.332637 171.759752 
L 662.420742 172.318131 
L 664.508847 169.657408 
L 666.596952 168.703806 
L 668.685058 169.083528 
L 670.773163 167.197444 
L 672.861268 165.926271 
L 674.949373 167.747429 
L 677.037478 172.164688 
L 679.125584 169.997399 
L 681.213689 169.079605 
L 683.301794 166.801441 
L 685.389899 164.648396 
L 687.478004 166.535157 
L 689.56611 165.621934 
L 691.654215 165.482258 
L 693.74232 165.135406 
L 695.830425 166.360444 
L 697.91853 166.29615 
L 700.006635 166.994643 
L 702.094741 163.449762 
L 704.182846 162.802692 
L 706.270951 164.016016 
L 708.359056 163.223473 
L 710.447161 164.390108 
L 712.535267 164.837482 
L 714.623372 164.292201 
L 716.711477 162.792287 
L 718.799582 161.737375 
L 720.887687 163.977841 
L 722.975793 162.084198 
L 725.063898 164.833078 
L 727.152003 162.512329 
L 729.240108 160.12736 
L 731.328213 158.813264 
L 733.416318 159.066421 
L 735.504424 158.671634 
L 737.592529 158.025676 
L 739.680634 159.906865 
L 741.768739 159.695017 
L 743.856844 161.371996 
L 745.94495 158.825099 
L 748.033055 158.774407 
L 750.12116 158.370459 
L 752.209265 157.841954 
L 754.29737 158.001403 
L 756.385476 157.606161 
L 758.473581 158.02821 
L 760.561686 155.440299 
L 762.649791 151.405682 
L 764.737896 153.496284 
L 766.826001 155.117695 
L 768.914107 152.882621 
L 771.002212 150.722146 
L 773.090317 152.052181 
L 775.178422 149.978247 
L 777.266527 152.607737 
L 779.354633 152.416553 
L 781.442738 153.253317 
L 783.530843 154.988571 
L 785.618948 152.087932 
L 787.707053 152.322783 
L 789.795159 152.554992 
L 791.883264 151.931648 
L 793.971369 149.200346 
L 796.059474 147.697896 
L 798.147579 150.713098 
L 800.235684 148.458743 
L 802.32379 146.01658 
L 804.411895 147.204724 
L 804.411895 122.23751 
L 804.411895 122.23751 
L 802.32379 121.353444 
L 800.235684 124.463464 
L 798.147579 125.19723 
L 796.059474 121.39226 
L 793.971369 122.726403 
L 791.883264 128.394273 
L 789.795159 128.012808 
L 787.707053 125.654519 
L 785.618948 124.719861 
L 783.530843 128.45488 
L 781.442738 126.522125 
L 779.354633 125.51077 
L 777.266527 126.703558 
L 775.178422 122.31991 
L 773.090317 123.059175 
L 771.002212 122.067755 
L 768.914107 124.101254 
L 766.826001 126.359707 
L 764.737896 124.311961 
L 762.649791 122.529183 
L 760.561686 124.793593 
L 758.473581 126.450052 
L 756.385476 127.602288 
L 754.29737 128.080305 
L 752.209265 127.047014 
L 750.12116 126.388967 
L 748.033055 127.003122 
L 745.94495 128.258069 
L 743.856844 129.394523 
L 741.768739 128.854062 
L 739.680634 127.121176 
L 737.592529 124.227626 
L 735.504424 126.442635 
L 733.416318 126.396459 
L 731.328213 126.600264 
L 729.240108 127.52498 
L 727.152003 129.910691 
L 725.063898 132.204599 
L 722.975793 128.880996 
L 720.887687 129.483442 
L 718.799582 127.716917 
L 716.711477 127.210214 
L 714.623372 128.998879 
L 712.535267 129.635886 
L 710.447161 129.145742 
L 708.359056 126.812462 
L 706.270951 128.438282 
L 704.182846 124.633785 
L 702.094741 124.231716 
L 700.006635 127.374102 
L 697.91853 126.44331 
L 695.830425 126.123324 
L 693.74232 126.435352 
L 691.654215 124.720549 
L 689.56611 125.39512 
L 687.478004 121.990102 
L 685.389899 122.175086 
L 683.301794 124.828487 
L 681.213689 125.222033 
L 679.125584 125.891205 
L 677.037478 127.105951 
L 674.949373 123.200204 
L 672.861268 121.188064 
L 670.773163 121.61085 
L 668.685058 120.268691 
L 666.596952 121.546872 
L 664.508847 121.321849 
L 662.420742 122.243821 
L 660.332637 120.928716 
L 658.244532 119.314281 
L 656.156427 116.357753 
L 654.068321 117.981335 
L 651.980216 116.895184 
L 649.892111 117.542919 
L 647.804006 118.082441 
L 645.715901 117.739508 
L 643.627795 116.282917 
L 641.53969 116.83765 
L 639.451585 117.702573 
L 637.36348 115.532151 
L 635.275375 115.368552 
L 633.187269 117.202069 
L 631.099164 115.155214 
L 629.011059 113.033604 
L 626.922954 111.844762 
L 624.834849 110.23886 
L 622.746744 112.360165 
L 620.658638 113.574391 
L 618.570533 113.59061 
L 616.482428 111.882658 
L 614.394323 110.236188 
L 612.306218 110.283085 
L 610.218112 111.912903 
L 608.130007 110.351041 
L 606.041902 109.500279 
L 603.953797 106.120772 
L 601.865692 108.198454 
L 599.777586 107.06083 
L 597.689481 106.766883 
L 595.601376 108.173288 
L 593.513271 107.396378 
L 591.425166 104.082396 
L 589.337061 102.847683 
L 587.248955 104.163331 
L 585.16085 103.19665 
L 583.072745 103.768227 
L 580.98464 106.318113 
L 578.896535 102.944564 
L 576.808429 104.06695 
L 574.720324 103.051515 
L 572.632219 99.778586 
L 570.544114 97.372172 
L 568.456009 96.110654 
L 566.367903 96.760256 
L 564.279798 96.831963 
L 562.191693 96.189118 
L 560.103588 95.309339 
L 558.015483 97.350496 
L 555.927378 95.921942 
L 553.839272 96.408263 
L 551.751167 95.27874 
L 549.663062 97.052308 
L 547.574957 94.196268 
L 545.486852 96.911849 
L 543.398746 95.512969 
L 541.310641 94.819243 
L 539.222536 97.155757 
L 537.134431 96.137144 
L 535.046326 98.005806 
L 532.95822 96.134487 
L 530.870115 97.27701 
L 528.78201 97.169085 
L 526.693905 99.095641 
L 524.6058 96.314386 
L 522.517695 99.171925 
L 520.429589 97.682088 
L 518.341484 98.260924 
L 516.253379 100.27209 
L 514.165274 102.563023 
L 512.077169 96.456953 
L 509.989063 97.06266 
L 507.900958 95.785411 
L 505.812853 95.674793 
L 503.724748 95.781157 
L 501.636643 96.601693 
L 499.548537 98.607644 
L 497.460432 95.780302 
L 495.372327 94.71867 
L 493.284222 96.319 
L 491.196117 98.98018 
L 489.108012 99.536504 
L 487.019906 99.673213 
L 484.931801 98.75901 
L 482.843696 99.983824 
L 480.755591 98.970058 
L 478.667486 97.723043 
L 476.57938 96.417094 
L 474.491275 96.636143 
L 472.40317 98.720145 
L 470.315065 98.842769 
L 468.22696 99.629173 
L 466.138854 98.130965 
L 464.050749 99.24673 
L 461.962644 101.414657 
L 459.874539 100.219644 
L 457.786434 99.994074 
L 455.698329 100.590751 
L 453.610223 101.144344 
L 451.522118 101.41301 
L 449.434013 102.248822 
L 447.345908 101.378614 
L 445.257803 98.737508 
L 443.169697 98.182156 
L 441.081592 98.513917 
L 438.993487 99.188114 
L 436.905382 97.777886 
L 434.817277 98.99496 
L 432.729171 100.880532 
L 430.641066 102.007254 
L 428.552961 99.237433 
L 426.464856 98.649211 
L 424.376751 100.406651 
L 422.288646 96.153466 
L 420.20054 95.986018 
L 418.112435 90.777273 
L 416.02433 93.800447 
L 413.936225 93.418153 
L 411.84812 93.193432 
L 409.760014 94.826316 
L 407.671909 92.982513 
L 405.583804 95.53227 
L 403.495699 95.401467 
L 401.407594 94.216657 
L 399.319488 93.906636 
L 397.231383 94.870274 
L 395.143278 95.813109 
L 393.055173 94.992894 
L 390.967068 95.155998 
L 388.878963 93.079075 
L 386.790857 93.516975 
L 384.702752 91.402088 
L 382.614647 96.231221 
L 380.526542 93.495338 
L 378.438437 92.59969 
L 376.350331 93.594556 
L 374.262226 94.180979 
L 372.174121 95.97312 
L 370.086016 93.158575 
L 367.997911 93.804593 
L 365.909805 93.501946 
L 363.8217 92.498168 
L 361.733595 87.451821 
L 359.64549 89.554256 
L 357.557385 89.204965 
L 355.46928 91.198974 
L 353.381174 91.320601 
L 351.293069 93.087648 
L 349.204964 92.788866 
L 347.116859 94.189398 
L 345.028754 91.731635 
L 342.940648 90.009012 
L 340.852543 89.886885 
L 338.764438 86.084111 
L 336.676333 88.716164 
L 334.588228 90.240984 
L 332.500122 89.140761 
L 330.412017 89.125867 
L 328.323912 88.068715 
L 326.235807 89.458955 
L 324.147702 89.741749 
L 322.059597 89.823079 
L 319.971491 89.663651 
L 317.883386 89.094805 
L 315.795281 90.742705 
L 313.707176 89.062877 
L 311.619071 90.700729 
L 309.530965 89.826124 
L 307.44286 89.320019 
L 305.354755 89.694327 
L 303.26665 91.61026 
L 301.178545 90.557966 
L 299.090439 89.736999 
L 297.002334 92.090092 
L 294.914229 94.113717 
L 292.826124 93.177568 
L 290.738019 93.107925 
L 288.649914 93.427551 
L 286.561808 90.762551 
L 284.473703 91.440276 
L 282.385598 91.191196 
L 280.297493 89.277768 
L 278.209388 92.327149 
L 276.121282 92.630155 
L 274.033177 90.486476 
L 271.945072 91.097101 
L 269.856967 90.520321 
L 267.768862 93.034109 
L 265.680756 92.537206 
L 263.592651 92.998601 
L 261.504546 92.947568 
L 259.416441 95.644189 
L 257.328336 94.854162 
L 255.240231 92.568345 
L 253.152125 92.958549 
L 251.06402 94.635021 
L 248.975915 96.230653 
L 246.88781 98.191935 
L 244.799705 97.981599 
L 242.711599 101.28458 
L 240.623494 100.520205 
L 238.535389 100.758562 
L 236.447284 102.110315 
L 234.359179 102.87655 
L 232.271073 102.974049 
L 230.182968 103.012354 
L 228.094863 100.442858 
L 226.006758 99.721773 
L 223.918653 102.218751 
L 221.830548 101.989486 
L 219.742442 101.055785 
L 217.654337 105.403984 
L 215.566232 104.004147 
L 213.478127 99.399416 
L 211.390022 103.988587 
L 209.301916 103.703471 
L 207.213811 103.944417 
L 205.125706 104.909982 
L 203.037601 102.361668 
L 200.949496 102.862303 
L 198.86139 102.537913 
L 196.773285 103.216041 
L 194.68518 106.349402 
L 192.597075 105.52486 
L 190.50897 102.595209 
L 188.420865 103.774776 
L 186.332759 105.470632 
L 184.244654 103.677061 
L 182.156549 105.487534 
L 180.068444 108.895915 
L 177.980339 111.277014 
L 175.892233 112.624009 
L 173.804128 114.222884 
L 171.716023 113.583853 
L 169.627918 114.621827 
L 167.539813 113.583416 
L 165.451707 113.06599 
L 163.363602 117.349068 
L 161.275497 117.974836 
L 159.187392 117.250699 
L 157.099287 116.627333 
L 155.011182 114.407272 
L 152.923076 115.70505 
L 150.834971 118.470219 
L 148.746866 115.107776 
L 146.658761 113.096832 
L 144.570656 112.380578 
L 142.48255 113.907284 
L 140.394445 115.289551 
L 138.30634 114.832096 
L 136.218235 115.891132 
L 134.13013 117.046734 
L 132.042024 117.253993 
L 129.953919 119.694257 
L 127.865814 119.665289 
L 125.777709 119.152374 
L 123.689604 120.118528 
L 121.601499 122.543084 
L 119.513393 123.097325 
L 117.425288 120.397606 
L 115.337183 120.552407 
L 113.249078 117.67548 
L 111.160973 121.113609 
L 109.072867 120.77303 
L 106.984762 121.233261 
L 104.896657 121.203388 
L 102.808552 120.701012 
L 100.720447 119.786949 
L 98.632341 118.305535 
L 96.544236 118.039122 
L 94.456131 119.549258 
L 92.368026 120.254811 
L 90.279921 117.108619 
L 88.191816 118.591942 
L 86.10371 117.41926 
L 84.015605 117.795451 
L 81.9275 116.952441 
z
" style="fill:#d3d3d3;fill-opacity:0.5;"/>
   </g>
   <g id="PolyCollection_3">
    <path clip-path="url(#pec2d09b97a)" d="M 96.544236 31.94 
L 96.544236 206.298437 
L 98.632341 206.298437 
L 100.720447 206.298437 
L 102.808552 206.298437 
L 104.896657 206.298437 
L 106.984762 206.298437 
L 109.072867 206.298437 
L 111.160973 206.298437 
L 111.160973 31.94 
L 111.160973 31.94 
L 109.072867 31.94 
L 106.984762 31.94 
L 104.896657 31.94 
L 102.808552 31.94 
L 100.720447 31.94 
L 98.632341 31.94 
L 96.544236 31.94 
z
" style="fill:#bbbbbb;fill-opacity:0.3;stroke:#bbbbbb;stroke-opacity:0.3;"/>
    <path clip-path="url(#pec2d09b97a)" d="M 363.8217 31.94 
L 363.8217 206.298437 
L 365.909805 206.298437 
L 367.997911 206.298437 
L 370.086016 206.298437 
L 372.174121 206.298437 
L 374.262226 206.298437 
L 376.350331 206.298437 
L 378.438437 206.298437 
L 378.438437 31.94 
L 378.438437 31.94 
L 376.350331 31.94 
L 374.262226 31.94 
L 372.174121 31.94 
L 370.086016 31.94 
L 367.997911 31.94 
L 365.909805 31.94 
L 363.8217 31.94 
z
" style="fill:#bbbbbb;fill-opacity:0.3;stroke:#bbbbbb;stroke-opacity:0.3;"/>
    <path clip-path="url(#pec2d09b97a)" d="M 532.95822 31.94 
L 532.95822 206.298437 
L 535.046326 206.298437 
L 537.134431 206.298437 
L 539.222536 206.298437 
L 541.310641 206.298437 
L 543.398746 206.298437 
L 545.486852 206.298437 
L 547.574957 206.298437 
L 549.663062 206.298437 
L 551.751167 206.298437 
L 553.839272 206.298437 
L 555.927378 206.298437 
L 558.015483 206.298437 
L 560.103588 206.298437 
L 562.191693 206.298437 
L 564.279798 206.298437 
L 566.367903 206.298437 
L 568.456009 206.298437 
L 568.456009 31.94 
L 568.456009 31.94 
L 566.367903 31.94 
L 564.279798 31.94 
L 562.191693 31.94 
L 560.103588 31.94 
L 558.015483 31.94 
L 555.927378 31.94 
L 553.839272 31.94 
L 551.751167 31.94 
L 549.663062 31.94 
L 547.574957 31.94 
L 545.486852 31.94 
L 543.398746 31.94 
L 541.310641 31.94 
L 539.222536 31.94 
L 537.134431 31.94 
L 535.046326 31.94 
L 532.95822 31.94 
z
" style="fill:#bbbbbb;fill-opacity:0.3;stroke:#bbbbbb;stroke-opacity:0.3;"/>
   </g>
   <g id="matplotlib.axis_1">
    <g id="xtick_1">
     <g id="line2d_1">
      <defs>
       <path d="M 0 0 
L 0 3.5 
" id="m33a38ce61c" style="stroke:#000000;stroke-width:0.8;"/>
      </defs>
      <g>
       <use style="stroke:#000000;stroke-width:0.8;" x="182.156549" xlink:href="#m33a38ce61c" y="206.298438"/>
      </g>
     </g>
     <g id="text_1">
      <!-- 1994 -->
      <defs>
       <path d="M 12.40625 8.296875 
L 28.515625 8.296875 
L 28.515625 63.921875 
L 10.984375 60.40625 
L 10.984375 69.390625 
L 28.421875 72.90625 
L 38.28125 72.90625 
L 38.28125 8.296875 
L 54.390625 8.296875 
L 54.390625 0 
L 12.40625 0 
z
" id="DejaVuSans-31"/>
       <path d="M 10.984375 1.515625 
L 10.984375 10.5 
Q 14.703125 8.734375 18.5 7.8125 
Q 22.3125 6.890625 25.984375 6.890625 
Q 35.75 6.890625 40.890625 13.453125 
Q 46.046875 20.015625 46.78125 33.40625 
Q 43.953125 29.203125 39.59375 26.953125 
Q 35.25 24.703125 29.984375 24.703125 
Q 19.046875 24.703125 12.671875 31.3125 
Q 6.296875 37.9375 6.296875 49.421875 
Q 6.296875 60.640625 12.9375 67.421875 
Q 19.578125 74.21875 30.609375 74.21875 
Q 43.265625 74.21875 49.921875 64.515625 
Q 56.59375 54.828125 56.59375 36.375 
Q 56.59375 19.140625 48.40625 8.859375 
Q 40.234375 -1.421875 26.421875 -1.421875 
Q 22.703125 -1.421875 18.890625 -0.6875 
Q 15.09375 0.046875 10.984375 1.515625 
z
M 30.609375 32.421875 
Q 37.25 32.421875 41.125 36.953125 
Q 45.015625 41.5 45.015625 49.421875 
Q 45.015625 57.28125 41.125 61.84375 
Q 37.25 66.40625 30.609375 66.40625 
Q 23.96875 66.40625 20.09375 61.84375 
Q 16.21875 57.28125 16.21875 49.421875 
Q 16.21875 41.5 20.09375 36.953125 
Q 23.96875 32.421875 30.609375 32.421875 
z
" id="DejaVuSans-39"/>
       <path d="M 37.796875 64.3125 
L 12.890625 25.390625 
L 37.796875 25.390625 
z
M 35.203125 72.90625 
L 47.609375 72.90625 
L 47.609375 25.390625 
L 58.015625 25.390625 
L 58.015625 17.1875 
L 47.609375 17.1875 
L 47.609375 0 
L 37.796875 0 
L 37.796875 17.1875 
L 4.890625 17.1875 
L 4.890625 26.703125 
z
" id="DejaVuSans-34"/>
      </defs>
      <g transform="translate(165.614049 229.676406)scale(0.13 -0.13)">
       <use xlink:href="#DejaVuSans-31"/>
       <use x="63.623047" xlink:href="#DejaVuSans-39"/>
       <use x="127.246094" xlink:href="#DejaVuSans-39"/>
       <use x="190.869141" xlink:href="#DejaVuSans-34"/>
      </g>
     </g>
    </g>
    <g id="xtick_2">
     <g id="line2d_2">
      <g>
       <use style="stroke:#000000;stroke-width:0.8;" x="307.44286" xlink:href="#m33a38ce61c" y="206.298438"/>
      </g>
     </g>
     <g id="text_2">
      <!-- 1999 -->
      <g transform="translate(290.90036 229.676406)scale(0.13 -0.13)">
       <use xlink:href="#DejaVuSans-31"/>
       <use x="63.623047" xlink:href="#DejaVuSans-39"/>
       <use x="127.246094" xlink:href="#DejaVuSans-39"/>
       <use x="190.869141" xlink:href="#DejaVuSans-39"/>
      </g>
     </g>
    </g>
    <g id="xtick_3">
     <g id="line2d_3">
      <g>
       <use style="stroke:#000000;stroke-width:0.8;" x="432.729171" xlink:href="#m33a38ce61c" y="206.298438"/>
      </g>
     </g>
     <g id="text_3">
      <!-- 2004 -->
      <defs>
       <path d="M 19.1875 8.296875 
L 53.609375 8.296875 
L 53.609375 0 
L 7.328125 0 
L 7.328125 8.296875 
Q 12.9375 14.109375 22.625 23.890625 
Q 32.328125 33.6875 34.8125 36.53125 
Q 39.546875 41.84375 41.421875 45.53125 
Q 43.3125 49.21875 43.3125 52.78125 
Q 43.3125 58.59375 39.234375 62.25 
Q 35.15625 65.921875 28.609375 65.921875 
Q 23.96875 65.921875 18.8125 64.3125 
Q 13.671875 62.703125 7.8125 59.421875 
L 7.8125 69.390625 
Q 13.765625 71.78125 18.9375 73 
Q 24.125 74.21875 28.421875 74.21875 
Q 39.75 74.21875 46.484375 68.546875 
Q 53.21875 62.890625 53.21875 53.421875 
Q 53.21875 48.921875 51.53125 44.890625 
Q 49.859375 40.875 45.40625 35.40625 
Q 44.1875 33.984375 37.640625 27.21875 
Q 31.109375 20.453125 19.1875 8.296875 
z
" id="DejaVuSans-32"/>
       <path d="M 31.78125 66.40625 
Q 24.171875 66.40625 20.328125 58.90625 
Q 16.5 51.421875 16.5 36.375 
Q 16.5 21.390625 20.328125 13.890625 
Q 24.171875 6.390625 31.78125 6.390625 
Q 39.453125 6.390625 43.28125 13.890625 
Q 47.125 21.390625 47.125 36.375 
Q 47.125 51.421875 43.28125 58.90625 
Q 39.453125 66.40625 31.78125 66.40625 
z
M 31.78125 74.21875 
Q 44.046875 74.21875 50.515625 64.515625 
Q 56.984375 54.828125 56.984375 36.375 
Q 56.984375 17.96875 50.515625 8.265625 
Q 44.046875 -1.421875 31.78125 -1.421875 
Q 19.53125 -1.421875 13.0625 8.265625 
Q 6.59375 17.96875 6.59375 36.375 
Q 6.59375 54.828125 13.0625 64.515625 
Q 19.53125 74.21875 31.78125 74.21875 
z
" id="DejaVuSans-30"/>
      </defs>
      <g transform="translate(416.186671 229.676406)scale(0.13 -0.13)">
       <use xlink:href="#DejaVuSans-32"/>
       <use x="63.623047" xlink:href="#DejaVuSans-30"/>
       <use x="127.246094" xlink:href="#DejaVuSans-30"/>
       <use x="190.869141" xlink:href="#DejaVuSans-34"/>
      </g>
     </g>
    </g>
    <g id="xtick_4">
     <g id="line2d_4">
      <g>
       <use style="stroke:#000000;stroke-width:0.8;" x="558.015483" xlink:href="#m33a38ce61c" y="206.298438"/>
      </g>
     </g>
     <g id="text_4">
      <!-- 2009 -->
      <g transform="translate(541.472983 229.676406)scale(0.13 -0.13)">
       <use xlink:href="#DejaVuSans-32"/>
       <use x="63.623047" xlink:href="#DejaVuSans-30"/>
       <use x="127.246094" xlink:href="#DejaVuSans-30"/>
       <use x="190.869141" xlink:href="#DejaVuSans-39"/>
      </g>
     </g>
    </g>
    <g id="xtick_5">
     <g id="line2d_5">
      <g>
       <use style="stroke:#000000;stroke-width:0.8;" x="683.301794" xlink:href="#m33a38ce61c" y="206.298438"/>
      </g>
     </g>
     <g id="text_5">
      <!-- 2014 -->
      <g transform="translate(666.759294 229.676406)scale(0.13 -0.13)">
       <use xlink:href="#DejaVuSans-32"/>
       <use x="63.623047" xlink:href="#DejaVuSans-30"/>
       <use x="127.246094" xlink:href="#DejaVuSans-31"/>
       <use x="190.869141" xlink:href="#DejaVuSans-34"/>
      </g>
     </g>
    </g>
    <g id="xtick_6">
     <g id="line2d_6">
      <defs>
       <path d="M 0 0 
L 0 2 
" id="m2ef62660b2" style="stroke:#000000;stroke-width:0.6;"/>
      </defs>
      <g>
       <use style="stroke:#000000;stroke-width:0.6;" x="81.9275" xlink:href="#m2ef62660b2" y="206.298438"/>
      </g>
     </g>
    </g>
    <g id="xtick_7">
     <g id="line2d_7">
      <g>
       <use style="stroke:#000000;stroke-width:0.6;" x="106.984762" xlink:href="#m2ef62660b2" y="206.298438"/>
      </g>
     </g>
    </g>
    <g id="xtick_8">
     <g id="line2d_8">
      <g>
       <use style="stroke:#000000;stroke-width:0.6;" x="132.042024" xlink:href="#m2ef62660b2" y="206.298438"/>
      </g>
     </g>
    </g>
    <g id="xtick_9">
     <g id="line2d_9">
      <g>
       <use style="stroke:#000000;stroke-width:0.6;" x="157.099287" xlink:href="#m2ef62660b2" y="206.298438"/>
      </g>
     </g>
    </g>
    <g id="xtick_10">
     <g id="line2d_10">
      <g>
       <use style="stroke:#000000;stroke-width:0.6;" x="182.156549" xlink:href="#m2ef62660b2" y="206.298438"/>
      </g>
     </g>
    </g>
    <g id="xtick_11">
     <g id="line2d_11">
      <g>
       <use style="stroke:#000000;stroke-width:0.6;" x="207.213811" xlink:href="#m2ef62660b2" y="206.298438"/>
      </g>
     </g>
    </g>
    <g id="xtick_12">
     <g id="line2d_12">
      <g>
       <use style="stroke:#000000;stroke-width:0.6;" x="232.271073" xlink:href="#m2ef62660b2" y="206.298438"/>
      </g>
     </g>
    </g>
    <g id="xtick_13">
     <g id="line2d_13">
      <g>
       <use style="stroke:#000000;stroke-width:0.6;" x="257.328336" xlink:href="#m2ef62660b2" y="206.298438"/>
      </g>
     </g>
    </g>
    <g id="xtick_14">
     <g id="line2d_14">
      <g>
       <use style="stroke:#000000;stroke-width:0.6;" x="282.385598" xlink:href="#m2ef62660b2" y="206.298438"/>
      </g>
     </g>
    </g>
    <g id="xtick_15">
     <g id="line2d_15">
      <g>
       <use style="stroke:#000000;stroke-width:0.6;" x="307.44286" xlink:href="#m2ef62660b2" y="206.298438"/>
      </g>
     </g>
    </g>
    <g id="xtick_16">
     <g id="line2d_16">
      <g>
       <use style="stroke:#000000;stroke-width:0.6;" x="332.500122" xlink:href="#m2ef62660b2" y="206.298438"/>
      </g>
     </g>
    </g>
    <g id="xtick_17">
     <g id="line2d_17">
      <g>
       <use style="stroke:#000000;stroke-width:0.6;" x="357.557385" xlink:href="#m2ef62660b2" y="206.298438"/>
      </g>
     </g>
    </g>
    <g id="xtick_18">
     <g id="line2d_18">
      <g>
       <use style="stroke:#000000;stroke-width:0.6;" x="382.614647" xlink:href="#m2ef62660b2" y="206.298438"/>
      </g>
     </g>
    </g>
    <g id="xtick_19">
     <g id="line2d_19">
      <g>
       <use style="stroke:#000000;stroke-width:0.6;" x="407.671909" xlink:href="#m2ef62660b2" y="206.298438"/>
      </g>
     </g>
    </g>
    <g id="xtick_20">
     <g id="line2d_20">
      <g>
       <use style="stroke:#000000;stroke-width:0.6;" x="432.729171" xlink:href="#m2ef62660b2" y="206.298438"/>
      </g>
     </g>
    </g>
    <g id="xtick_21">
     <g id="line2d_21">
      <g>
       <use style="stroke:#000000;stroke-width:0.6;" x="457.786434" xlink:href="#m2ef62660b2" y="206.298438"/>
      </g>
     </g>
    </g>
    <g id="xtick_22">
     <g id="line2d_22">
      <g>
       <use style="stroke:#000000;stroke-width:0.6;" x="482.843696" xlink:href="#m2ef62660b2" y="206.298438"/>
      </g>
     </g>
    </g>
    <g id="xtick_23">
     <g id="line2d_23">
      <g>
       <use style="stroke:#000000;stroke-width:0.6;" x="507.900958" xlink:href="#m2ef62660b2" y="206.298438"/>
      </g>
     </g>
    </g>
    <g id="xtick_24">
     <g id="line2d_24">
      <g>
       <use style="stroke:#000000;stroke-width:0.6;" x="532.95822" xlink:href="#m2ef62660b2" y="206.298438"/>
      </g>
     </g>
    </g>
    <g id="xtick_25">
     <g id="line2d_25">
      <g>
       <use style="stroke:#000000;stroke-width:0.6;" x="558.015483" xlink:href="#m2ef62660b2" y="206.298438"/>
      </g>
     </g>
    </g>
    <g id="xtick_26">
     <g id="line2d_26">
      <g>
       <use style="stroke:#000000;stroke-width:0.6;" x="583.072745" xlink:href="#m2ef62660b2" y="206.298438"/>
      </g>
     </g>
    </g>
    <g id="xtick_27">
     <g id="line2d_27">
      <g>
       <use style="stroke:#000000;stroke-width:0.6;" x="608.130007" xlink:href="#m2ef62660b2" y="206.298438"/>
      </g>
     </g>
    </g>
    <g id="xtick_28">
     <g id="line2d_28">
      <g>
       <use style="stroke:#000000;stroke-width:0.6;" x="633.187269" xlink:href="#m2ef62660b2" y="206.298438"/>
      </g>
     </g>
    </g>
    <g id="xtick_29">
     <g id="line2d_29">
      <g>
       <use style="stroke:#000000;stroke-width:0.6;" x="658.244532" xlink:href="#m2ef62660b2" y="206.298438"/>
      </g>
     </g>
    </g>
    <g id="xtick_30">
     <g id="line2d_30">
      <g>
       <use style="stroke:#000000;stroke-width:0.6;" x="683.301794" xlink:href="#m2ef62660b2" y="206.298438"/>
      </g>
     </g>
    </g>
    <g id="xtick_31">
     <g id="line2d_31">
      <g>
       <use style="stroke:#000000;stroke-width:0.6;" x="708.359056" xlink:href="#m2ef62660b2" y="206.298438"/>
      </g>
     </g>
    </g>
    <g id="xtick_32">
     <g id="line2d_32">
      <g>
       <use style="stroke:#000000;stroke-width:0.6;" x="733.416318" xlink:href="#m2ef62660b2" y="206.298438"/>
      </g>
     </g>
    </g>
    <g id="xtick_33">
     <g id="line2d_33">
      <g>
       <use style="stroke:#000000;stroke-width:0.6;" x="758.473581" xlink:href="#m2ef62660b2" y="206.298438"/>
      </g>
     </g>
    </g>
    <g id="xtick_34">
     <g id="line2d_34">
      <g>
       <use style="stroke:#000000;stroke-width:0.6;" x="783.530843" xlink:href="#m2ef62660b2" y="206.298438"/>
      </g>
     </g>
    </g>
   </g>
   <g id="matplotlib.axis_2">
    <g id="ytick_1">
     <g id="line2d_35">
      <path clip-path="url(#pec2d09b97a)" d="M 81.9275 206.298437 
L 806.5 206.298437 
" style="fill:none;stroke:#000000;stroke-dasharray:0.8,1.32;stroke-dashoffset:0;stroke-width:0.8;"/>
     </g>
     <g id="line2d_36">
      <defs>
       <path d="M 0 0 
L -3.5 0 
" id="m53f451a577" style="stroke:#000000;stroke-width:0.8;"/>
      </defs>
      <g>
       <use style="stroke:#000000;stroke-width:0.8;" x="81.9275" xlink:href="#m53f451a577" y="206.298437"/>
      </g>
     </g>
     <g id="text_6">
      <!-- 50 -->
      <defs>
       <path d="M 10.796875 72.90625 
L 49.515625 72.90625 
L 49.515625 64.59375 
L 19.828125 64.59375 
L 19.828125 46.734375 
Q 21.96875 47.46875 24.109375 47.828125 
Q 26.265625 48.1875 28.421875 48.1875 
Q 40.625 48.1875 47.75 41.5 
Q 54.890625 34.8125 54.890625 23.390625 
Q 54.890625 11.625 47.5625 5.09375 
Q 40.234375 -1.421875 26.90625 -1.421875 
Q 22.3125 -1.421875 17.546875 -0.640625 
Q 12.796875 0.140625 7.71875 1.703125 
L 7.71875 11.625 
Q 12.109375 9.234375 16.796875 8.0625 
Q 21.484375 6.890625 26.703125 6.890625 
Q 35.15625 6.890625 40.078125 11.328125 
Q 45.015625 15.765625 45.015625 23.390625 
Q 45.015625 31 40.078125 35.4375 
Q 35.15625 39.890625 26.703125 39.890625 
Q 22.75 39.890625 18.8125 39.015625 
Q 14.890625 38.140625 10.796875 36.28125 
z
" id="DejaVuSans-35"/>
      </defs>
      <g transform="translate(51.885 211.237422)scale(0.13 -0.13)">
       <use xlink:href="#DejaVuSans-35"/>
       <use x="63.623047" xlink:href="#DejaVuSans-30"/>
      </g>
     </g>
    </g>
    <g id="ytick_2">
     <g id="line2d_37">
      <path clip-path="url(#pec2d09b97a)" d="M 81.9275 183.050646 
L 806.5 183.050646 
" style="fill:none;stroke:#000000;stroke-dasharray:0.8,1.32;stroke-dashoffset:0;stroke-width:0.8;"/>
     </g>
     <g id="line2d_38">
      <g>
       <use style="stroke:#000000;stroke-width:0.8;" x="81.9275" xlink:href="#m53f451a577" y="183.050646"/>
      </g>
     </g>
     <g id="text_7">
      <!-- 52 -->
      <g transform="translate(51.885 187.98963)scale(0.13 -0.13)">
       <use xlink:href="#DejaVuSans-35"/>
       <use x="63.623047" xlink:href="#DejaVuSans-32"/>
      </g>
     </g>
    </g>
    <g id="ytick_3">
     <g id="line2d_39">
      <path clip-path="url(#pec2d09b97a)" d="M 81.9275 159.802854 
L 806.5 159.802854 
" style="fill:none;stroke:#000000;stroke-dasharray:0.8,1.32;stroke-dashoffset:0;stroke-width:0.8;"/>
     </g>
     <g id="line2d_40">
      <g>
       <use style="stroke:#000000;stroke-width:0.8;" x="81.9275" xlink:href="#m53f451a577" y="159.802854"/>
      </g>
     </g>
     <g id="text_8">
      <!-- 54 -->
      <g transform="translate(51.885 164.741839)scale(0.13 -0.13)">
       <use xlink:href="#DejaVuSans-35"/>
       <use x="63.623047" xlink:href="#DejaVuSans-34"/>
      </g>
     </g>
    </g>
    <g id="ytick_4">
     <g id="line2d_41">
      <path clip-path="url(#pec2d09b97a)" d="M 81.9275 136.555062 
L 806.5 136.555062 
" style="fill:none;stroke:#000000;stroke-dasharray:0.8,1.32;stroke-dashoffset:0;stroke-width:0.8;"/>
     </g>
     <g id="line2d_42">
      <g>
       <use style="stroke:#000000;stroke-width:0.8;" x="81.9275" xlink:href="#m53f451a577" y="136.555062"/>
      </g>
     </g>
     <g id="text_9">
      <!-- 56 -->
      <defs>
       <path d="M 33.015625 40.375 
Q 26.375 40.375 22.484375 35.828125 
Q 18.609375 31.296875 18.609375 23.390625 
Q 18.609375 15.53125 22.484375 10.953125 
Q 26.375 6.390625 33.015625 6.390625 
Q 39.65625 6.390625 43.53125 10.953125 
Q 47.40625 15.53125 47.40625 23.390625 
Q 47.40625 31.296875 43.53125 35.828125 
Q 39.65625 40.375 33.015625 40.375 
z
M 52.59375 71.296875 
L 52.59375 62.3125 
Q 48.875 64.0625 45.09375 64.984375 
Q 41.3125 65.921875 37.59375 65.921875 
Q 27.828125 65.921875 22.671875 59.328125 
Q 17.53125 52.734375 16.796875 39.40625 
Q 19.671875 43.65625 24.015625 45.921875 
Q 28.375 48.1875 33.59375 48.1875 
Q 44.578125 48.1875 50.953125 41.515625 
Q 57.328125 34.859375 57.328125 23.390625 
Q 57.328125 12.15625 50.6875 5.359375 
Q 44.046875 -1.421875 33.015625 -1.421875 
Q 20.359375 -1.421875 13.671875 8.265625 
Q 6.984375 17.96875 6.984375 36.375 
Q 6.984375 53.65625 15.1875 63.9375 
Q 23.390625 74.21875 37.203125 74.21875 
Q 40.921875 74.21875 44.703125 73.484375 
Q 48.484375 72.75 52.59375 71.296875 
z
" id="DejaVuSans-36"/>
      </defs>
      <g transform="translate(51.885 141.494047)scale(0.13 -0.13)">
       <use xlink:href="#DejaVuSans-35"/>
       <use x="63.623047" xlink:href="#DejaVuSans-36"/>
      </g>
     </g>
    </g>
    <g id="ytick_5">
     <g id="line2d_43">
      <path clip-path="url(#pec2d09b97a)" d="M 81.9275 113.307271 
L 806.5 113.307271 
" style="fill:none;stroke:#000000;stroke-dasharray:0.8,1.32;stroke-dashoffset:0;stroke-width:0.8;"/>
     </g>
     <g id="line2d_44">
      <g>
       <use style="stroke:#000000;stroke-width:0.8;" x="81.9275" xlink:href="#m53f451a577" y="113.307271"/>
      </g>
     </g>
     <g id="text_10">
      <!-- 58 -->
      <defs>
       <path d="M 31.78125 34.625 
Q 24.75 34.625 20.71875 30.859375 
Q 16.703125 27.09375 16.703125 20.515625 
Q 16.703125 13.921875 20.71875 10.15625 
Q 24.75 6.390625 31.78125 6.390625 
Q 38.8125 6.390625 42.859375 10.171875 
Q 46.921875 13.96875 46.921875 20.515625 
Q 46.921875 27.09375 42.890625 30.859375 
Q 38.875 34.625 31.78125 34.625 
z
M 21.921875 38.8125 
Q 15.578125 40.375 12.03125 44.71875 
Q 8.5 49.078125 8.5 55.328125 
Q 8.5 64.0625 14.71875 69.140625 
Q 20.953125 74.21875 31.78125 74.21875 
Q 42.671875 74.21875 48.875 69.140625 
Q 55.078125 64.0625 55.078125 55.328125 
Q 55.078125 49.078125 51.53125 44.71875 
Q 48 40.375 41.703125 38.8125 
Q 48.828125 37.15625 52.796875 32.3125 
Q 56.78125 27.484375 56.78125 20.515625 
Q 56.78125 9.90625 50.3125 4.234375 
Q 43.84375 -1.421875 31.78125 -1.421875 
Q 19.734375 -1.421875 13.25 4.234375 
Q 6.78125 9.90625 6.78125 20.515625 
Q 6.78125 27.484375 10.78125 32.3125 
Q 14.796875 37.15625 21.921875 38.8125 
z
M 18.3125 54.390625 
Q 18.3125 48.734375 21.84375 45.5625 
Q 25.390625 42.390625 31.78125 42.390625 
Q 38.140625 42.390625 41.71875 45.5625 
Q 45.3125 48.734375 45.3125 54.390625 
Q 45.3125 60.0625 41.71875 63.234375 
Q 38.140625 66.40625 31.78125 66.40625 
Q 25.390625 66.40625 21.84375 63.234375 
Q 18.3125 60.0625 18.3125 54.390625 
z
" id="DejaVuSans-38"/>
      </defs>
      <g transform="translate(51.885 118.246255)scale(0.13 -0.13)">
       <use xlink:href="#DejaVuSans-35"/>
       <use x="63.623047" xlink:href="#DejaVuSans-38"/>
      </g>
     </g>
    </g>
    <g id="ytick_6">
     <g id="line2d_45">
      <path clip-path="url(#pec2d09b97a)" d="M 81.9275 90.059479 
L 806.5 90.059479 
" style="fill:none;stroke:#000000;stroke-dasharray:0.8,1.32;stroke-dashoffset:0;stroke-width:0.8;"/>
     </g>
     <g id="line2d_46">
      <g>
       <use style="stroke:#000000;stroke-width:0.8;" x="81.9275" xlink:href="#m53f451a577" y="90.059479"/>
      </g>
     </g>
     <g id="text_11">
      <!-- 60 -->
      <g transform="translate(51.885 94.998464)scale(0.13 -0.13)">
       <use xlink:href="#DejaVuSans-36"/>
       <use x="63.623047" xlink:href="#DejaVuSans-30"/>
      </g>
     </g>
    </g>
    <g id="ytick_7">
     <g id="line2d_47">
      <path clip-path="url(#pec2d09b97a)" d="M 81.9275 66.811687 
L 806.5 66.811687 
" style="fill:none;stroke:#000000;stroke-dasharray:0.8,1.32;stroke-dashoffset:0;stroke-width:0.8;"/>
     </g>
     <g id="line2d_48">
      <g>
       <use style="stroke:#000000;stroke-width:0.8;" x="81.9275" xlink:href="#m53f451a577" y="66.811687"/>
      </g>
     </g>
     <g id="text_12">
      <!-- 62 -->
      <g transform="translate(51.885 71.750672)scale(0.13 -0.13)">
       <use xlink:href="#DejaVuSans-36"/>
       <use x="63.623047" xlink:href="#DejaVuSans-32"/>
      </g>
     </g>
    </g>
    <g id="ytick_8">
     <g id="line2d_49">
      <path clip-path="url(#pec2d09b97a)" d="M 81.9275 43.563896 
L 806.5 43.563896 
" style="fill:none;stroke:#000000;stroke-dasharray:0.8,1.32;stroke-dashoffset:0;stroke-width:0.8;"/>
     </g>
     <g id="line2d_50">
      <g>
       <use style="stroke:#000000;stroke-width:0.8;" x="81.9275" xlink:href="#m53f451a577" y="43.563896"/>
      </g>
     </g>
     <g id="text_13">
      <!-- 64 -->
      <g transform="translate(51.885 48.50288)scale(0.13 -0.13)">
       <use xlink:href="#DejaVuSans-36"/>
       <use x="63.623047" xlink:href="#DejaVuSans-34"/>
      </g>
     </g>
    </g>
    <g id="text_14">
     <!-- Percent -->
     <defs>
      <path d="M 19.671875 64.796875 
L 19.671875 37.40625 
L 32.078125 37.40625 
Q 38.96875 37.40625 42.71875 40.96875 
Q 46.484375 44.53125 46.484375 51.125 
Q 46.484375 57.671875 42.71875 61.234375 
Q 38.96875 64.796875 32.078125 64.796875 
z
M 9.8125 72.90625 
L 32.078125 72.90625 
Q 44.34375 72.90625 50.609375 67.359375 
Q 56.890625 61.8125 56.890625 51.125 
Q 56.890625 40.328125 50.609375 34.8125 
Q 44.34375 29.296875 32.078125 29.296875 
L 19.671875 29.296875 
L 19.671875 0 
L 9.8125 0 
z
" id="DejaVuSans-50"/>
      <path d="M 56.203125 29.59375 
L 56.203125 25.203125 
L 14.890625 25.203125 
Q 15.484375 15.921875 20.484375 11.0625 
Q 25.484375 6.203125 34.421875 6.203125 
Q 39.59375 6.203125 44.453125 7.46875 
Q 49.3125 8.734375 54.109375 11.28125 
L 54.109375 2.78125 
Q 49.265625 0.734375 44.1875 -0.34375 
Q 39.109375 -1.421875 33.890625 -1.421875 
Q 20.796875 -1.421875 13.15625 6.1875 
Q 5.515625 13.8125 5.515625 26.8125 
Q 5.515625 40.234375 12.765625 48.109375 
Q 20.015625 56 32.328125 56 
Q 43.359375 56 49.78125 48.890625 
Q 56.203125 41.796875 56.203125 29.59375 
z
M 47.21875 32.234375 
Q 47.125 39.59375 43.09375 43.984375 
Q 39.0625 48.390625 32.421875 48.390625 
Q 24.90625 48.390625 20.390625 44.140625 
Q 15.875 39.890625 15.1875 32.171875 
z
" id="DejaVuSans-65"/>
      <path d="M 41.109375 46.296875 
Q 39.59375 47.171875 37.8125 47.578125 
Q 36.03125 48 33.890625 48 
Q 26.265625 48 22.1875 43.046875 
Q 18.109375 38.09375 18.109375 28.8125 
L 18.109375 0 
L 9.078125 0 
L 9.078125 54.6875 
L 18.109375 54.6875 
L 18.109375 46.1875 
Q 20.953125 51.171875 25.484375 53.578125 
Q 30.03125 56 36.53125 56 
Q 37.453125 56 38.578125 55.875 
Q 39.703125 55.765625 41.0625 55.515625 
z
" id="DejaVuSans-72"/>
      <path d="M 48.78125 52.59375 
L 48.78125 44.1875 
Q 44.96875 46.296875 41.140625 47.34375 
Q 37.3125 48.390625 33.40625 48.390625 
Q 24.65625 48.390625 19.8125 42.84375 
Q 14.984375 37.3125 14.984375 27.296875 
Q 14.984375 17.28125 19.8125 11.734375 
Q 24.65625 6.203125 33.40625 6.203125 
Q 37.3125 6.203125 41.140625 7.25 
Q 44.96875 8.296875 48.78125 10.40625 
L 48.78125 2.09375 
Q 45.015625 0.34375 40.984375 -0.53125 
Q 36.96875 -1.421875 32.421875 -1.421875 
Q 20.0625 -1.421875 12.78125 6.34375 
Q 5.515625 14.109375 5.515625 27.296875 
Q 5.515625 40.671875 12.859375 48.328125 
Q 20.21875 56 33.015625 56 
Q 37.15625 56 41.109375 55.140625 
Q 45.0625 54.296875 48.78125 52.59375 
z
" id="DejaVuSans-63"/>
      <path d="M 54.890625 33.015625 
L 54.890625 0 
L 45.90625 0 
L 45.90625 32.71875 
Q 45.90625 40.484375 42.875 44.328125 
Q 39.84375 48.1875 33.796875 48.1875 
Q 26.515625 48.1875 22.3125 43.546875 
Q 18.109375 38.921875 18.109375 30.90625 
L 18.109375 0 
L 9.078125 0 
L 9.078125 54.6875 
L 18.109375 54.6875 
L 18.109375 46.1875 
Q 21.34375 51.125 25.703125 53.5625 
Q 30.078125 56 35.796875 56 
Q 45.21875 56 50.046875 50.171875 
Q 54.890625 44.34375 54.890625 33.015625 
z
" id="DejaVuSans-6e"/>
      <path d="M 18.3125 70.21875 
L 18.3125 54.6875 
L 36.8125 54.6875 
L 36.8125 47.703125 
L 18.3125 47.703125 
L 18.3125 18.015625 
Q 18.3125 11.328125 20.140625 9.421875 
Q 21.96875 7.515625 27.59375 7.515625 
L 36.8125 7.515625 
L 36.8125 0 
L 27.59375 0 
Q 17.1875 0 13.234375 3.875 
Q 9.28125 7.765625 9.28125 18.015625 
L 9.28125 47.703125 
L 2.6875 47.703125 
L 2.6875 54.6875 
L 9.28125 54.6875 
L 9.28125 70.21875 
z
" id="DejaVuSans-74"/>
     </defs>
     <g transform="translate(44.5575 149.675469)rotate(-90)scale(0.16 -0.16)">
      <use xlink:href="#DejaVuSans-50"/>
      <use x="60.255859" xlink:href="#DejaVuSans-65"/>
      <use x="121.779297" xlink:href="#DejaVuSans-72"/>
      <use x="162.861328" xlink:href="#DejaVuSans-63"/>
      <use x="217.841797" xlink:href="#DejaVuSans-65"/>
      <use x="279.365234" xlink:href="#DejaVuSans-6e"/>
      <use x="342.744141" xlink:href="#DejaVuSans-74"/>
     </g>
    </g>
   </g>
   <g id="line2d_51">
    <path clip-path="url(#pec2d09b97a)" d="M 81.9275 116.952441 
L 84.015605 117.795451 
L 86.10371 117.41926 
L 88.191816 118.591942 
L 90.279921 117.108619 
L 92.368026 120.254811 
L 94.456131 119.549258 
L 96.544236 118.039122 
L 98.632341 118.305535 
L 100.720447 119.786949 
L 102.808552 120.701012 
L 104.896657 121.203388 
L 106.984762 121.233261 
L 109.072867 120.77303 
L 111.160973 121.113609 
L 113.249078 117.67548 
L 115.337183 120.552407 
L 117.425288 120.397606 
L 119.513393 123.097325 
L 121.601499 122.543084 
L 123.689604 120.118528 
L 125.777709 119.152374 
L 127.865814 119.665289 
L 129.953919 119.694257 
L 132.042024 117.253993 
L 134.13013 117.046734 
L 138.30634 114.832096 
L 140.394445 115.289551 
L 142.48255 113.907284 
L 144.570656 112.380578 
L 146.658761 113.096832 
L 148.746866 115.107776 
L 150.834971 118.470219 
L 152.923076 115.70505 
L 155.011182 114.407272 
L 157.099287 116.627333 
L 161.275497 117.974836 
L 163.363602 117.349068 
L 165.451707 113.06599 
L 167.539813 113.583416 
L 169.627918 114.621827 
L 171.716023 113.583853 
L 173.804128 114.222884 
L 175.892233 112.624009 
L 177.980339 111.277014 
L 180.068444 108.895915 
L 182.156549 105.487534 
L 184.244654 103.677061 
L 186.332759 105.470632 
L 188.420865 103.774776 
L 190.50897 102.595209 
L 192.597075 105.52486 
L 194.68518 106.349402 
L 196.773285 103.216041 
L 198.86139 102.537913 
L 200.949496 102.862303 
L 203.037601 102.361668 
L 205.125706 104.909982 
L 207.213811 103.944417 
L 209.301916 103.703471 
L 211.390022 103.988587 
L 213.478127 99.399416 
L 215.566232 104.004147 
L 217.654337 105.403984 
L 219.742442 101.055785 
L 221.830548 101.989486 
L 223.918653 102.218751 
L 226.006758 99.721773 
L 228.094863 100.442858 
L 230.182968 103.012354 
L 234.359179 102.87655 
L 236.447284 102.110315 
L 238.535389 100.758562 
L 240.623494 100.520205 
L 242.711599 101.28458 
L 244.799705 97.981599 
L 246.88781 98.191935 
L 248.975915 96.230653 
L 253.152125 92.958549 
L 255.240231 92.568345 
L 257.328336 94.854162 
L 259.416441 95.644189 
L 261.504546 92.947568 
L 263.592651 92.998601 
L 265.680756 92.537206 
L 267.768862 93.034109 
L 269.856967 90.520321 
L 271.945072 91.097101 
L 274.033177 90.486476 
L 276.121282 92.630155 
L 278.209388 92.327149 
L 280.297493 89.277768 
L 282.385598 91.191196 
L 284.473703 91.440276 
L 286.561808 90.762551 
L 288.649914 93.427551 
L 290.738019 93.107925 
L 292.826124 93.177568 
L 294.914229 94.113717 
L 297.002334 92.090092 
L 299.090439 89.736999 
L 301.178545 90.557966 
L 303.26665 91.61026 
L 305.354755 89.694327 
L 307.44286 89.320019 
L 309.530965 89.826124 
L 311.619071 90.700729 
L 313.707176 89.062877 
L 315.795281 90.742705 
L 317.883386 89.094805 
L 319.971491 89.663651 
L 322.059597 89.823079 
L 324.147702 89.741749 
L 326.235807 89.458955 
L 328.323912 88.068715 
L 330.412017 89.125867 
L 332.500122 89.140761 
L 334.588228 90.240984 
L 336.676333 88.716164 
L 338.764438 86.084111 
L 340.852543 89.886885 
L 342.940648 90.009012 
L 345.028754 91.731635 
L 347.116859 94.189398 
L 349.204964 92.788866 
L 351.293069 93.087648 
L 353.381174 91.320601 
L 355.46928 91.198974 
L 357.557385 89.204965 
L 359.64549 89.554256 
L 361.733595 87.451821 
L 363.8217 92.498168 
L 365.909805 93.501946 
L 367.997911 93.804593 
L 370.086016 93.158575 
L 372.174121 95.97312 
L 374.262226 94.180979 
L 376.350331 93.594556 
L 378.438437 92.59969 
L 380.526542 93.495338 
L 382.614647 96.231221 
L 384.702752 91.402088 
L 386.790857 93.516975 
L 388.878963 93.079075 
L 390.967068 95.155998 
L 393.055173 94.992894 
L 395.143278 95.813109 
L 399.319488 93.906636 
L 401.407594 94.216657 
L 403.495699 95.401467 
L 405.583804 95.53227 
L 407.671909 92.982513 
L 409.760014 94.826316 
L 411.84812 93.193432 
L 413.936225 93.418153 
L 416.02433 93.800447 
L 418.112435 90.777273 
L 420.20054 95.986018 
L 422.288646 96.153466 
L 424.376751 100.406651 
L 426.464856 98.649211 
L 428.552961 99.237433 
L 430.641066 102.007254 
L 432.729171 100.880532 
L 434.817277 98.99496 
L 436.905382 97.777886 
L 438.993487 99.188114 
L 441.081592 98.513917 
L 443.169697 98.182156 
L 445.257803 98.737508 
L 447.345908 101.378614 
L 449.434013 102.248822 
L 451.522118 101.41301 
L 453.610223 101.144344 
L 457.786434 99.994074 
L 459.874539 100.219644 
L 461.962644 101.414657 
L 464.050749 99.24673 
L 466.138854 98.130965 
L 468.22696 99.629173 
L 470.315065 98.842769 
L 472.40317 98.720145 
L 474.491275 96.636143 
L 476.57938 96.417094 
L 480.755591 98.970058 
L 482.843696 99.983824 
L 484.931801 98.75901 
L 487.019906 99.673213 
L 489.108012 99.536504 
L 491.196117 98.98018 
L 493.284222 96.319 
L 495.372327 94.71867 
L 497.460432 95.780302 
L 499.548537 98.607644 
L 501.636643 96.601693 
L 503.724748 95.781157 
L 505.812853 95.674793 
L 507.900958 95.785411 
L 509.989063 97.06266 
L 512.077169 96.456953 
L 514.165274 102.563023 
L 516.253379 100.27209 
L 518.341484 98.260924 
L 520.429589 97.682088 
L 522.517695 99.171925 
L 524.6058 96.314386 
L 526.693905 99.095641 
L 528.78201 97.169085 
L 530.870115 97.27701 
L 532.95822 96.134487 
L 535.046326 98.005806 
L 537.134431 96.137144 
L 539.222536 97.155757 
L 541.310641 94.819243 
L 543.398746 95.512969 
L 545.486852 96.911849 
L 547.574957 94.196268 
L 549.663062 97.052308 
L 551.751167 95.27874 
L 553.839272 96.408263 
L 555.927378 95.921942 
L 558.015483 97.350496 
L 560.103588 95.309339 
L 562.191693 96.189118 
L 564.279798 96.831963 
L 566.367903 96.760256 
L 568.456009 96.110654 
L 570.544114 97.372172 
L 572.632219 99.778586 
L 574.720324 103.051515 
L 576.808429 104.06695 
L 578.896535 102.944564 
L 580.98464 106.318113 
L 583.072745 103.768227 
L 585.16085 103.19665 
L 587.248955 104.163331 
L 589.337061 102.847683 
L 591.425166 104.082396 
L 593.513271 107.396378 
L 595.601376 108.173288 
L 597.689481 106.766883 
L 599.777586 107.06083 
L 601.865692 108.198454 
L 603.953797 106.120772 
L 606.041902 109.500279 
L 608.130007 110.351041 
L 610.218112 111.912903 
L 612.306218 110.283085 
L 614.394323 110.236188 
L 618.570533 113.59061 
L 620.658638 113.574391 
L 622.746744 112.360165 
L 624.834849 110.23886 
L 626.922954 111.844762 
L 629.011059 113.033604 
L 633.187269 117.202069 
L 635.275375 115.368552 
L 637.36348 115.532151 
L 639.451585 117.702573 
L 641.53969 116.83765 
L 643.627795 116.282917 
L 645.715901 117.739508 
L 647.804006 118.082441 
L 651.980216 116.895184 
L 654.068321 117.981335 
L 656.156427 116.357753 
L 658.244532 119.314281 
L 660.332637 120.928716 
L 662.420742 122.243821 
L 664.508847 121.321849 
L 666.596952 121.546872 
L 668.685058 120.268691 
L 670.773163 121.61085 
L 672.861268 121.188064 
L 674.949373 123.200204 
L 677.037478 127.105951 
L 679.125584 125.891205 
L 681.213689 125.222033 
L 683.301794 124.828487 
L 685.389899 122.175086 
L 687.478004 121.990102 
L 689.56611 125.39512 
L 691.654215 124.720549 
L 693.74232 126.435352 
L 695.830425 126.123324 
L 697.91853 126.44331 
L 700.006635 127.374102 
L 702.094741 124.231716 
L 704.182846 124.633785 
L 706.270951 128.438282 
L 708.359056 126.812462 
L 710.447161 129.145742 
L 712.535267 129.635886 
L 714.623372 128.998879 
L 716.711477 127.210214 
L 718.799582 127.716917 
L 720.887687 129.483442 
L 722.975793 128.880996 
L 725.063898 132.204599 
L 729.240108 127.52498 
L 731.328213 126.600264 
L 733.416318 126.396459 
L 735.504424 126.442635 
L 737.592529 124.227626 
L 739.680634 127.121176 
L 741.768739 128.854062 
L 743.856844 129.394523 
L 748.033055 127.003122 
L 750.12116 126.388967 
L 752.209265 127.047014 
L 754.29737 128.080305 
L 756.385476 127.602288 
L 758.473581 126.450052 
L 760.561686 124.793593 
L 762.649791 122.529183 
L 764.737896 124.311961 
L 766.826001 126.359707 
L 768.914107 124.101254 
L 771.002212 122.067755 
L 773.090317 123.059175 
L 775.178422 122.31991 
L 777.266527 126.703558 
L 779.354633 125.51077 
L 781.442738 126.522125 
L 783.530843 128.45488 
L 785.618948 124.719861 
L 787.707053 125.654519 
L 789.795159 128.012808 
L 791.883264 128.394273 
L 793.971369 122.726403 
L 796.059474 121.39226 
L 798.147579 125.19723 
L 800.235684 124.463464 
L 802.32379 121.353444 
L 804.411895 122.23751 
L 804.411895 122.23751 
" style="fill:none;stroke:#000000;stroke-linecap:square;stroke-width:3;"/>
   </g>
   <g id="line2d_52">
    <path clip-path="url(#pec2d09b97a)" d="M 81.9275 152.664858 
L 84.015605 153.784462 
L 86.10371 152.963853 
L 88.191816 154.454992 
L 90.279921 153.149789 
L 92.368026 154.881837 
L 94.456131 155.893788 
L 96.544236 155.682323 
L 98.632341 157.031104 
L 100.720447 157.97311 
L 102.808552 159.899943 
L 104.896657 160.689835 
L 106.984762 162.390053 
L 109.072867 161.754076 
L 111.160973 163.287906 
L 113.249078 159.190646 
L 115.337183 164.646027 
L 117.425288 163.677758 
L 119.513393 164.805768 
L 121.601499 165.720152 
L 123.689604 162.768938 
L 127.865814 164.234426 
L 129.953919 165.766984 
L 132.042024 162.005487 
L 134.13013 163.143194 
L 136.218235 162.144145 
L 138.30634 161.364757 
L 140.394445 162.704486 
L 142.48255 162.813102 
L 144.570656 161.593814 
L 146.658761 161.58315 
L 148.746866 163.51279 
L 150.834971 164.130748 
L 152.923076 162.743813 
L 155.011182 163.054521 
L 157.099287 163.843229 
L 159.187392 163.205262 
L 161.275497 161.338497 
L 163.363602 162.288525 
L 165.451707 159.040022 
L 167.539813 158.431293 
L 169.627918 158.33351 
L 171.716023 156.684039 
L 173.804128 157.626502 
L 175.892233 156.698033 
L 177.980339 155.085666 
L 180.068444 152.396181 
L 182.156549 149.092522 
L 184.244654 147.209608 
L 186.332759 149.681278 
L 188.420865 147.180779 
L 190.50897 143.812925 
L 192.597075 146.878636 
L 194.68518 146.229204 
L 196.773285 144.17023 
L 198.86139 143.238304 
L 200.949496 142.182513 
L 203.037601 140.961425 
L 205.125706 142.149189 
L 207.213811 141.951952 
L 209.301916 141.157344 
L 211.390022 141.58974 
L 213.478127 140.129289 
L 215.566232 141.488602 
L 217.654337 144.153303 
L 219.742442 140.875811 
L 221.830548 140.438603 
L 223.918653 140.991996 
L 226.006758 138.841731 
L 228.094863 138.134411 
L 230.182968 140.834481 
L 232.271073 142.346374 
L 234.359179 139.887993 
L 236.447284 138.54879 
L 238.535389 138.271202 
L 240.623494 138.426395 
L 242.711599 137.464748 
L 244.799705 135.510358 
L 246.88781 134.772417 
L 248.975915 132.042128 
L 251.06402 131.710006 
L 253.152125 130.755148 
L 255.240231 132.450894 
L 257.328336 131.489434 
L 259.416441 133.071036 
L 261.504546 129.059741 
L 263.592651 128.024979 
L 265.680756 128.621036 
L 267.768862 127.668245 
L 269.856967 125.303919 
L 274.033177 125.405596 
L 276.121282 125.450799 
L 278.209388 124.705169 
L 280.297493 122.80792 
L 282.385598 124.528596 
L 284.473703 124.645145 
L 286.561808 124.076311 
L 288.649914 125.127692 
L 290.738019 124.248437 
L 292.826124 125.308965 
L 294.914229 125.290088 
L 297.002334 124.261457 
L 299.090439 121.505683 
L 301.178545 123.514723 
L 303.26665 123.550254 
L 305.354755 120.341011 
L 307.44286 120.065976 
L 309.530965 121.145411 
L 311.619071 121.705269 
L 313.707176 121.139657 
L 315.795281 119.688215 
L 317.883386 119.800735 
L 319.971491 120.749051 
L 322.059597 119.577244 
L 324.147702 120.419928 
L 326.235807 118.412799 
L 328.323912 117.533733 
L 330.412017 117.573192 
L 332.500122 117.969501 
L 334.588228 118.92294 
L 336.676333 118.735151 
L 338.764438 113.818991 
L 340.852543 119.501504 
L 342.940648 118.82772 
L 345.028754 121.120396 
L 347.116859 124.062058 
L 349.204964 120.82692 
L 351.293069 120.029135 
L 355.46928 117.909159 
L 357.557385 118.04742 
L 359.64549 118.615039 
L 361.733595 116.949647 
L 363.8217 122.148039 
L 365.909805 122.855586 
L 367.997911 124.389686 
L 370.086016 124.471706 
L 372.174121 129.143909 
L 374.262226 128.810293 
L 376.350331 129.805262 
L 378.438437 129.812636 
L 380.526542 132.911522 
L 382.614647 134.3964 
L 384.702752 130.017589 
L 386.790857 132.385425 
L 388.878963 134.082872 
L 390.967068 134.889472 
L 393.055173 133.867216 
L 395.143278 134.897474 
L 397.231383 132.86754 
L 399.319488 131.721276 
L 403.495699 133.985908 
L 405.583804 134.750864 
L 407.671909 130.666219 
L 409.760014 133.732411 
L 411.84812 132.657653 
L 413.936225 132.653474 
L 416.02433 133.574873 
L 418.112435 131.624591 
L 420.20054 135.1587 
L 422.288646 136.031449 
L 424.376751 140.067442 
L 426.464856 137.590675 
L 428.552961 136.616773 
L 430.641066 140.117232 
L 432.729171 139.694521 
L 434.817277 136.961166 
L 436.905382 137.459005 
L 441.081592 135.440422 
L 443.169697 136.653227 
L 445.257803 136.40996 
L 447.345908 137.114796 
L 449.434013 137.665701 
L 451.522118 137.465028 
L 453.610223 136.512629 
L 457.786434 135.370584 
L 459.874539 136.356212 
L 461.962644 136.485639 
L 464.050749 134.787777 
L 466.138854 134.256491 
L 468.22696 134.883848 
L 470.315065 133.685735 
L 472.40317 132.274764 
L 474.491275 131.552356 
L 476.57938 131.731675 
L 478.667486 132.874098 
L 480.755591 132.864271 
L 482.843696 133.150623 
L 484.931801 131.710579 
L 487.019906 132.143243 
L 489.108012 131.750899 
L 491.196117 129.904226 
L 493.284222 128.374198 
L 495.372327 127.500111 
L 497.460432 127.713219 
L 499.548537 130.940387 
L 501.636643 127.058856 
L 503.724748 126.984078 
L 505.812853 125.913357 
L 507.900958 127.147282 
L 509.989063 126.705754 
L 512.077169 125.901311 
L 514.165274 132.595282 
L 516.253379 129.762218 
L 518.341484 128.627647 
L 520.429589 129.523856 
L 522.517695 130.778416 
L 524.6058 127.72456 
L 526.693905 130.668007 
L 528.78201 129.09075 
L 530.870115 130.794565 
L 532.95822 129.015782 
L 535.046326 130.601409 
L 537.134431 130.380774 
L 539.222536 129.943456 
L 541.310641 131.110757 
L 543.398746 132.120174 
L 545.486852 133.542562 
L 547.574957 135.198581 
L 549.663062 135.159188 
L 551.751167 135.920993 
L 553.839272 139.155589 
L 555.927378 140.801035 
L 558.015483 145.317714 
L 560.103588 146.053513 
L 562.191693 148.633077 
L 564.279798 149.545135 
L 566.367903 152.086629 
L 568.456009 153.525119 
L 570.544114 154.356923 
L 572.632219 156.839214 
L 574.720324 161.194354 
L 576.808429 163.301483 
L 578.896535 161.696588 
L 580.98464 165.295137 
L 583.072745 161.40966 
L 585.16085 161.904155 
L 587.248955 163.385445 
L 589.337061 163.227981 
L 591.425166 164.034211 
L 593.513271 163.937578 
L 595.601376 165.846033 
L 597.689481 165.206821 
L 599.777586 165.526031 
L 601.865692 167.628359 
L 603.953797 167.226598 
L 606.041902 167.365871 
L 608.130007 167.74447 
L 610.218112 169.103937 
L 612.306218 167.026731 
L 614.394323 167.827261 
L 618.570533 171.173405 
L 620.658638 170.382303 
L 622.746744 169.840141 
L 624.834849 169.482031 
L 626.922954 168.278106 
L 629.011059 169.176703 
L 633.187269 172.115414 
L 635.275375 170.09963 
L 637.36348 169.553313 
L 639.451585 171.390871 
L 641.53969 170.10198 
L 643.627795 169.583039 
L 645.715901 171.193207 
L 647.804006 170.257851 
L 649.892111 168.323531 
L 651.980216 168.013004 
L 654.068321 168.629597 
L 656.156427 169.573884 
L 658.244532 171.3065 
L 662.420742 172.318131 
L 664.508847 169.657408 
L 666.596952 168.703806 
L 668.685058 169.083528 
L 670.773163 167.197444 
L 672.861268 165.926271 
L 674.949373 167.747429 
L 677.037478 172.164688 
L 679.125584 169.997399 
L 681.213689 169.079605 
L 685.389899 164.648396 
L 687.478004 166.535157 
L 689.56611 165.621934 
L 691.654215 165.482258 
L 693.74232 165.135406 
L 695.830425 166.360444 
L 697.91853 166.29615 
L 700.006635 166.994643 
L 702.094741 163.449762 
L 704.182846 162.802692 
L 706.270951 164.016016 
L 708.359056 163.223473 
L 710.447161 164.390108 
L 712.535267 164.837482 
L 714.623372 164.292201 
L 716.711477 162.792287 
L 718.799582 161.737375 
L 720.887687 163.977841 
L 722.975793 162.084198 
L 725.063898 164.833078 
L 729.240108 160.12736 
L 731.328213 158.813264 
L 733.416318 159.066421 
L 735.504424 158.671634 
L 737.592529 158.025676 
L 739.680634 159.906865 
L 741.768739 159.695017 
L 743.856844 161.371996 
L 745.94495 158.825099 
L 748.033055 158.774407 
L 750.12116 158.370459 
L 752.209265 157.841954 
L 754.29737 158.001403 
L 756.385476 157.606161 
L 758.473581 158.02821 
L 760.561686 155.440299 
L 762.649791 151.405682 
L 764.737896 153.496284 
L 766.826001 155.117695 
L 771.002212 150.722146 
L 773.090317 152.052181 
L 775.178422 149.978247 
L 777.266527 152.607737 
L 779.354633 152.416553 
L 781.442738 153.253317 
L 783.530843 154.988571 
L 785.618948 152.087932 
L 789.795159 152.554992 
L 791.883264 151.931648 
L 793.971369 149.200346 
L 796.059474 147.697896 
L 798.147579 150.713098 
L 800.235684 148.458743 
L 802.32379 146.01658 
L 804.411895 147.204724 
L 804.411895 147.204724 
" style="fill:none;stroke:#696969;stroke-dasharray:11.1,4.8;stroke-dashoffset:0;stroke-width:3;"/>
   </g>
   <g id="line2d_53">
    <path clip-path="url(#pec2d09b97a)" d="M 81.9275 116.952441 
L 84.015605 117.795451 
L 86.10371 117.41926 
L 88.191816 118.591942 
L 90.279921 117.108619 
L 92.368026 120.254811 
L 94.456131 119.549258 
L 96.544236 118.039122 
L 98.632341 118.305535 
L 100.720447 119.786949 
L 102.808552 120.701012 
L 104.896657 121.203388 
L 106.984762 121.233261 
L 109.072867 120.77303 
L 111.160973 121.113609 
L 113.249078 117.67548 
L 115.337183 120.552407 
L 117.425288 120.397606 
L 119.513393 123.097325 
L 121.601499 122.543084 
L 123.689604 120.118528 
L 125.777709 119.152374 
L 127.865814 119.665289 
L 129.953919 119.694257 
L 132.042024 117.253993 
L 134.13013 117.046734 
L 138.30634 114.832096 
L 140.394445 115.289551 
L 142.48255 113.907284 
L 144.570656 112.380578 
L 146.658761 113.096832 
L 148.746866 115.107776 
L 150.834971 118.470219 
L 152.923076 115.70505 
L 155.011182 114.407272 
L 157.099287 116.627333 
L 161.275497 117.974836 
L 163.363602 117.349068 
L 165.451707 113.06599 
L 167.539813 113.583416 
L 169.627918 114.621827 
L 171.716023 113.583853 
L 173.804128 114.222884 
L 175.892233 112.624009 
L 177.980339 111.277014 
L 180.068444 108.895915 
L 182.156549 105.487534 
L 184.244654 103.677061 
L 186.332759 105.470632 
L 188.420865 103.774776 
L 190.50897 102.595209 
L 192.597075 105.52486 
L 194.68518 106.349402 
L 196.773285 103.216041 
L 198.86139 102.537913 
L 200.949496 102.862303 
L 203.037601 102.361668 
L 205.125706 104.909982 
L 207.213811 103.944417 
L 209.301916 103.703471 
L 211.390022 103.988587 
L 213.478127 99.399416 
L 215.566232 104.004147 
L 217.654337 105.403984 
L 219.742442 101.055785 
L 221.830548 101.989486 
L 223.918653 102.218751 
L 226.006758 99.721773 
L 228.094863 100.442858 
L 230.182968 103.012354 
L 234.359179 102.87655 
L 236.447284 102.110315 
L 238.535389 100.758562 
L 240.623494 100.520205 
L 242.711599 101.28458 
L 244.799705 97.981599 
L 246.88781 98.191935 
L 248.975915 96.230653 
L 253.152125 92.958549 
L 255.240231 92.568345 
L 257.328336 94.854162 
L 259.416441 95.644189 
L 261.504546 92.947568 
L 263.592651 92.998601 
L 265.680756 92.537206 
L 267.768862 93.034109 
L 269.856967 90.520321 
L 271.945072 91.097101 
L 274.033177 90.486476 
L 276.121282 92.630155 
L 278.209388 92.327149 
L 280.297493 89.277768 
L 282.385598 91.191196 
L 284.473703 91.440276 
L 286.561808 90.762551 
L 288.649914 93.427551 
L 290.738019 93.107925 
L 292.826124 93.177568 
L 294.914229 94.113717 
L 297.002334 92.090092 
L 299.090439 89.736999 
L 301.178545 90.557966 
L 303.26665 91.61026 
L 305.354755 89.694327 
L 307.44286 89.320019 
L 309.530965 89.826124 
L 311.619071 90.700729 
L 313.707176 89.062877 
L 315.795281 90.742705 
L 317.883386 89.094805 
L 319.971491 89.663651 
L 322.059597 89.823079 
L 324.147702 89.741749 
L 326.235807 89.458955 
L 328.323912 88.068715 
L 330.412017 89.125867 
L 332.500122 89.140761 
L 334.588228 90.240984 
L 336.676333 88.716164 
L 338.764438 86.084111 
L 340.852543 89.886885 
L 342.940648 90.009012 
L 345.028754 91.731635 
L 347.116859 94.189398 
L 349.204964 92.788866 
L 351.293069 93.087648 
L 353.381174 91.320601 
L 355.46928 91.198974 
L 357.557385 89.204965 
L 359.64549 89.554256 
L 361.733595 87.451821 
L 363.8217 92.498168 
L 365.909805 93.501946 
L 367.997911 93.804593 
L 370.086016 93.158575 
L 372.174121 95.97312 
L 374.262226 94.180979 
L 376.350331 93.594556 
L 378.438437 92.59969 
L 380.526542 93.495338 
L 382.614647 96.231221 
L 384.702752 91.402088 
L 386.790857 93.516975 
L 388.878963 93.079075 
L 390.967068 95.155998 
L 393.055173 94.992894 
L 395.143278 95.813109 
L 399.319488 93.906636 
L 401.407594 94.216657 
L 403.495699 95.401467 
L 405.583804 95.53227 
L 407.671909 92.982513 
L 409.760014 94.826316 
L 411.84812 93.193432 
L 413.936225 93.418153 
L 416.02433 93.800447 
L 418.112435 90.777273 
L 420.20054 95.986018 
L 422.288646 96.153466 
L 424.376751 100.406651 
L 426.464856 98.649211 
L 428.552961 99.237433 
L 430.641066 102.007254 
L 432.729171 100.880532 
L 434.817277 98.99496 
L 436.905382 97.777886 
L 438.993487 99.188114 
L 441.081592 98.513917 
L 443.169697 98.182156 
L 445.257803 98.737508 
L 447.345908 101.378614 
L 449.434013 102.248822 
L 451.522118 101.41301 
L 453.610223 101.144344 
L 457.786434 99.994074 
L 459.874539 100.219644 
L 461.962644 101.414657 
L 464.050749 99.24673 
L 466.138854 98.130965 
L 468.22696 99.629173 
L 470.315065 98.842769 
L 472.40317 98.720145 
L 474.491275 96.636143 
L 476.57938 96.417094 
L 480.755591 98.970058 
L 482.843696 99.983824 
L 484.931801 98.75901 
L 487.019906 99.673213 
L 489.108012 99.536504 
L 491.196117 98.98018 
L 493.284222 96.319 
L 495.372327 94.71867 
L 497.460432 95.780302 
L 499.548537 98.607644 
L 501.636643 96.601693 
L 503.724748 95.781157 
L 505.812853 95.674793 
L 507.900958 95.785411 
L 509.989063 97.06266 
L 512.077169 96.456953 
L 514.165274 102.563023 
L 516.253379 100.27209 
L 518.341484 98.260924 
L 520.429589 97.682088 
L 522.517695 99.171925 
L 524.6058 96.314386 
L 526.693905 99.095641 
L 528.78201 97.169085 
L 530.870115 97.27701 
L 532.95822 96.134487 
L 535.046326 98.005806 
L 537.134431 96.137144 
L 539.222536 97.155757 
L 541.310641 94.819243 
L 543.398746 95.512969 
L 545.486852 96.911849 
L 547.574957 94.196268 
L 549.663062 97.052308 
L 551.751167 95.27874 
L 553.839272 96.408263 
L 555.927378 95.921942 
L 558.015483 97.350496 
L 560.103588 95.309339 
L 562.191693 96.189118 
L 564.279798 96.831963 
L 566.367903 96.760256 
L 568.456009 96.110654 
L 570.544114 97.372172 
L 572.632219 99.778586 
L 574.720324 103.051515 
L 576.808429 104.06695 
L 578.896535 102.944564 
L 580.98464 106.318113 
L 583.072745 103.768227 
L 585.16085 103.19665 
L 587.248955 104.163331 
L 589.337061 102.847683 
L 591.425166 104.082396 
L 593.513271 107.396378 
L 595.601376 108.173288 
L 597.689481 106.766883 
L 599.777586 107.06083 
L 601.865692 108.198454 
L 603.953797 106.120772 
L 606.041902 109.500279 
L 608.130007 110.351041 
L 610.218112 111.912903 
L 612.306218 110.283085 
L 614.394323 110.236188 
L 618.570533 113.59061 
L 620.658638 113.574391 
L 622.746744 112.360165 
L 624.834849 110.23886 
L 626.922954 111.844762 
L 629.011059 113.033604 
L 633.187269 117.202069 
L 635.275375 115.368552 
L 637.36348 115.532151 
L 639.451585 117.702573 
L 641.53969 116.83765 
L 643.627795 116.282917 
L 645.715901 117.739508 
L 647.804006 118.082441 
L 651.980216 116.895184 
L 654.068321 117.981335 
L 656.156427 116.357753 
L 658.244532 119.314281 
L 660.332637 120.928716 
L 662.420742 122.243821 
L 664.508847 121.321849 
L 666.596952 121.546872 
L 668.685058 120.268691 
L 670.773163 121.61085 
L 672.861268 121.188064 
L 674.949373 123.200204 
L 677.037478 127.105951 
L 679.125584 125.891205 
L 681.213689 125.222033 
L 683.301794 124.828487 
L 685.389899 122.175086 
L 687.478004 121.990102 
L 689.56611 125.39512 
L 691.654215 124.720549 
L 693.74232 126.435352 
L 695.830425 126.123324 
L 697.91853 126.44331 
L 700.006635 127.374102 
L 702.094741 124.231716 
L 704.182846 124.633785 
L 706.270951 128.438282 
L 708.359056 126.812462 
L 710.447161 129.145742 
L 712.535267 129.635886 
L 714.623372 128.998879 
L 716.711477 127.210214 
L 718.799582 127.716917 
L 720.887687 129.483442 
L 722.975793 128.880996 
L 725.063898 132.204599 
L 729.240108 127.52498 
L 731.328213 126.600264 
L 733.416318 126.396459 
L 735.504424 126.442635 
L 737.592529 124.227626 
L 739.680634 127.121176 
L 741.768739 128.854062 
L 743.856844 129.394523 
L 748.033055 127.003122 
L 750.12116 126.388967 
L 752.209265 127.047014 
L 754.29737 128.080305 
L 756.385476 127.602288 
L 758.473581 126.450052 
L 760.561686 124.793593 
L 762.649791 122.529183 
L 764.737896 124.311961 
L 766.826001 126.359707 
L 768.914107 124.101254 
L 771.002212 122.067755 
L 773.090317 123.059175 
L 775.178422 122.31991 
L 777.266527 126.703558 
L 779.354633 125.51077 
L 781.442738 126.522125 
L 783.530843 128.45488 
L 785.618948 124.719861 
L 787.707053 125.654519 
L 789.795159 128.012808 
L 791.883264 128.394273 
L 793.971369 122.726403 
L 796.059474 121.39226 
L 798.147579 125.19723 
L 800.235684 124.463464 
L 802.32379 121.353444 
L 804.411895 122.23751 
L 804.411895 122.23751 
" style="fill:none;stroke:#d3d3d3;stroke-dasharray:11.1,4.8;stroke-dashoffset:0;stroke-width:3;"/>
   </g>
   <g id="line2d_54">
    <path clip-path="url(#pec2d09b97a)" style="fill:none;stroke:#000000;stroke-linecap:square;stroke-width:1.5;"/>
   </g>
   <g id="patch_3">
    <path d="M 81.9275 206.298438 
L 806.5 206.298438 
" style="fill:none;stroke:#000000;stroke-linecap:square;stroke-linejoin:miter;stroke-width:0.8;"/>
   </g>
   <g id="legend_1">
    <g id="patch_4">
     <path d="M 713.75 104.788125 
L 796.7 104.788125 
Q 799.5 104.788125 799.5 101.988125 
L 799.5 41.74 
Q 799.5 38.94 796.7 38.94 
L 713.75 38.94 
Q 710.95 38.94 710.95 41.74 
L 710.95 101.988125 
Q 710.95 104.788125 713.75 104.788125 
z
" style="fill:#ffffff;opacity:0.8;stroke:#cccccc;stroke-linejoin:miter;"/>
    </g>
    <g id="line2d_55">
     <path d="M 716.55 50.277812 
L 744.55 50.277812 
" style="fill:none;stroke:#000000;stroke-linecap:square;stroke-width:3;"/>
    </g>
    <g id="line2d_56"/>
    <g id="text_15">
     <!-- LFPR -->
     <defs>
      <path d="M 9.8125 72.90625 
L 19.671875 72.90625 
L 19.671875 8.296875 
L 55.171875 8.296875 
L 55.171875 0 
L 9.8125 0 
z
" id="DejaVuSans-4c"/>
      <path d="M 9.8125 72.90625 
L 51.703125 72.90625 
L 51.703125 64.59375 
L 19.671875 64.59375 
L 19.671875 43.109375 
L 48.578125 43.109375 
L 48.578125 34.8125 
L 19.671875 34.8125 
L 19.671875 0 
L 9.8125 0 
z
" id="DejaVuSans-46"/>
      <path d="M 44.390625 34.1875 
Q 47.5625 33.109375 50.5625 29.59375 
Q 53.5625 26.078125 56.59375 19.921875 
L 66.609375 0 
L 56 0 
L 46.6875 18.703125 
Q 43.0625 26.03125 39.671875 28.421875 
Q 36.28125 30.8125 30.421875 30.8125 
L 19.671875 30.8125 
L 19.671875 0 
L 9.8125 0 
L 9.8125 72.90625 
L 32.078125 72.90625 
Q 44.578125 72.90625 50.734375 67.671875 
Q 56.890625 62.453125 56.890625 51.90625 
Q 56.890625 45.015625 53.6875 40.46875 
Q 50.484375 35.9375 44.390625 34.1875 
z
M 19.671875 64.796875 
L 19.671875 38.921875 
L 32.078125 38.921875 
Q 39.203125 38.921875 42.84375 42.21875 
Q 46.484375 45.515625 46.484375 51.90625 
Q 46.484375 58.296875 42.84375 61.546875 
Q 39.203125 64.796875 32.078125 64.796875 
z
" id="DejaVuSans-52"/>
     </defs>
     <g transform="translate(755.75 55.177812)scale(0.14 -0.14)">
      <use xlink:href="#DejaVuSans-4c"/>
      <use x="55.712891" xlink:href="#DejaVuSans-46"/>
      <use x="113.232422" xlink:href="#DejaVuSans-50"/>
      <use x="173.535156" xlink:href="#DejaVuSans-52"/>
     </g>
    </g>
    <g id="line2d_57">
     <path d="M 716.55 70.827187 
L 744.55 70.827187 
" style="fill:none;stroke:#696969;stroke-dasharray:11.1,4.8;stroke-dashoffset:0;stroke-width:3;"/>
    </g>
    <g id="line2d_58"/>
    <g id="text_16">
     <!-- EPOP -->
     <defs>
      <path d="M 9.8125 72.90625 
L 55.90625 72.90625 
L 55.90625 64.59375 
L 19.671875 64.59375 
L 19.671875 43.015625 
L 54.390625 43.015625 
L 54.390625 34.71875 
L 19.671875 34.71875 
L 19.671875 8.296875 
L 56.78125 8.296875 
L 56.78125 0 
L 9.8125 0 
z
" id="DejaVuSans-45"/>
      <path d="M 39.40625 66.21875 
Q 28.65625 66.21875 22.328125 58.203125 
Q 16.015625 50.203125 16.015625 36.375 
Q 16.015625 22.609375 22.328125 14.59375 
Q 28.65625 6.59375 39.40625 6.59375 
Q 50.140625 6.59375 56.421875 14.59375 
Q 62.703125 22.609375 62.703125 36.375 
Q 62.703125 50.203125 56.421875 58.203125 
Q 50.140625 66.21875 39.40625 66.21875 
z
M 39.40625 74.21875 
Q 54.734375 74.21875 63.90625 63.9375 
Q 73.09375 53.65625 73.09375 36.375 
Q 73.09375 19.140625 63.90625 8.859375 
Q 54.734375 -1.421875 39.40625 -1.421875 
Q 24.03125 -1.421875 14.8125 8.828125 
Q 5.609375 19.09375 5.609375 36.375 
Q 5.609375 53.65625 14.8125 63.9375 
Q 24.03125 74.21875 39.40625 74.21875 
z
" id="DejaVuSans-4f"/>
     </defs>
     <g transform="translate(755.75 75.727187)scale(0.14 -0.14)">
      <use xlink:href="#DejaVuSans-45"/>
      <use x="63.183594" xlink:href="#DejaVuSans-50"/>
      <use x="123.486328" xlink:href="#DejaVuSans-4f"/>
      <use x="202.197266" xlink:href="#DejaVuSans-50"/>
     </g>
    </g>
    <g id="line2d_59">
     <path d="M 716.55 91.376562 
L 744.55 91.376562 
" style="fill:none;stroke:#d3d3d3;stroke-dasharray:11.1,4.8;stroke-dashoffset:0;stroke-width:3;"/>
    </g>
    <g id="line2d_60"/>
    <g id="text_17">
     <!-- UPOP -->
     <defs>
      <path d="M 8.6875 72.90625 
L 18.609375 72.90625 
L 18.609375 28.609375 
Q 18.609375 16.890625 22.84375 11.734375 
Q 27.09375 6.59375 36.625 6.59375 
Q 46.09375 6.59375 50.34375 11.734375 
Q 54.59375 16.890625 54.59375 28.609375 
L 54.59375 72.90625 
L 64.5 72.90625 
L 64.5 27.390625 
Q 64.5 13.140625 57.4375 5.859375 
Q 50.390625 -1.421875 36.625 -1.421875 
Q 22.796875 -1.421875 15.734375 5.859375 
Q 8.6875 13.140625 8.6875 27.390625 
z
" id="DejaVuSans-55"/>
     </defs>
     <g transform="translate(755.75 96.276562)scale(0.14 -0.14)">
      <use xlink:href="#DejaVuSans-55"/>
      <use x="73.193359" xlink:href="#DejaVuSans-50"/>
      <use x="133.496094" xlink:href="#DejaVuSans-4f"/>
      <use x="212.207031" xlink:href="#DejaVuSans-50"/>
     </g>
    </g>
   </g>
  </g>
 </g>
 <defs>
  <clipPath id="pec2d09b97a">
   <rect height="174.358438" width="724.5725" x="81.9275" y="31.94"/>
  </clipPath>
 </defs>
</svg>
