<?xml version="1.0" encoding="utf-8" standalone="no"?>
<!DOCTYPE svg PUBLIC "-//W3C//DTD SVG 1.1//EN"
  "http://www.w3.org/Graphics/SVG/1.1/DTD/svg11.dtd">
<!-- Created with matplotlib (http://matplotlib.org/) -->
<svg height="432pt" version="1.1" viewBox="0 0 972 432" width="972pt" xmlns="http://www.w3.org/2000/svg" xmlns:xlink="http://www.w3.org/1999/xlink">
 <defs>
  <style type="text/css">
*{stroke-linecap:butt;stroke-linejoin:round;}
  </style>
 </defs>
 <g id="figure_1">
  <g id="patch_1">
   <path d="M 0 432 
L 972 432 
L 972 0 
L 0 0 
z
" style="fill:none;"/>
  </g>
  <g id="axes_1">
   <g id="patch_2">
    <path d="M 72.9 388.8 
L 923.4 388.8 
L 923.4 51.84 
L 72.9 51.84 
z
" style="fill:none;"/>
   </g>
   <g id="PolyCollection_1">
    <path clip-path="url(#p9d666baa0a)" d="M 90.057061 51.84 
L 90.057061 388.8 
L 92.508069 388.8 
L 94.959078 388.8 
L 97.410086 388.8 
L 99.861095 388.8 
L 102.312104 388.8 
L 104.763112 388.8 
L 107.214121 388.8 
L 107.214121 51.84 
L 107.214121 51.84 
L 104.763112 51.84 
L 102.312104 51.84 
L 99.861095 51.84 
L 97.410086 51.84 
L 94.959078 51.84 
L 92.508069 51.84 
L 90.057061 51.84 
z
" style="fill:#bbbbbb;fill-opacity:0.3;stroke:#bbbbbb;stroke-opacity:0.3;"/>
    <path clip-path="url(#p9d666baa0a)" d="M 403.786167 51.84 
L 403.786167 388.8 
L 406.237176 388.8 
L 408.688184 388.8 
L 411.139193 388.8 
L 413.590202 388.8 
L 416.04121 388.8 
L 418.492219 388.8 
L 420.943228 388.8 
L 420.943228 51.84 
L 420.943228 51.84 
L 418.492219 51.84 
L 416.04121 51.84 
L 413.590202 51.84 
L 411.139193 51.84 
L 408.688184 51.84 
L 406.237176 51.84 
L 403.786167 51.84 
z
" style="fill:#bbbbbb;fill-opacity:0.3;stroke:#bbbbbb;stroke-opacity:0.3;"/>
    <path clip-path="url(#p9d666baa0a)" d="M 602.317867 51.84 
L 602.317867 388.8 
L 604.768876 388.8 
L 607.219885 388.8 
L 609.670893 388.8 
L 612.121902 388.8 
L 614.572911 388.8 
L 617.023919 388.8 
L 619.474928 388.8 
L 621.925937 388.8 
L 624.376945 388.8 
L 626.827954 388.8 
L 629.278963 388.8 
L 631.729971 388.8 
L 634.18098 388.8 
L 636.631988 388.8 
L 639.082997 388.8 
L 641.534006 388.8 
L 643.985014 388.8 
L 643.985014 51.84 
L 643.985014 51.84 
L 641.534006 51.84 
L 639.082997 51.84 
L 636.631988 51.84 
L 634.18098 51.84 
L 631.729971 51.84 
L 629.278963 51.84 
L 626.827954 51.84 
L 624.376945 51.84 
L 621.925937 51.84 
L 619.474928 51.84 
L 617.023919 51.84 
L 614.572911 51.84 
L 612.121902 51.84 
L 609.670893 51.84 
L 607.219885 51.84 
L 604.768876 51.84 
L 602.317867 51.84 
z
" style="fill:#bbbbbb;fill-opacity:0.3;stroke:#bbbbbb;stroke-opacity:0.3;"/>
   </g>
   <g id="matplotlib.axis_1">
    <g id="xtick_1">
     <g id="line2d_1">
      <defs>
       <path d="M 0 0 
L 0 3.5 
" id="m2782efc20a" style="stroke:#000000;stroke-width:0.8;"/>
      </defs>
      <g>
       <use style="stroke:#000000;stroke-width:0.8;" x="190.548415" xlink:href="#m2782efc20a" y="388.8"/>
      </g>
     </g>
     <g id="text_1">
      <!-- 1994 -->
      <defs>
       <path d="M 12.40625 8.296875 
L 28.515625 8.296875 
L 28.515625 63.921875 
L 10.984375 60.40625 
L 10.984375 69.390625 
L 28.421875 72.90625 
L 38.28125 72.90625 
L 38.28125 8.296875 
L 54.390625 8.296875 
L 54.390625 0 
L 12.40625 0 
z
" id="DejaVuSans-31"/>
       <path d="M 10.984375 1.515625 
L 10.984375 10.5 
Q 14.703125 8.734375 18.5 7.8125 
Q 22.3125 6.890625 25.984375 6.890625 
Q 35.75 6.890625 40.890625 13.453125 
Q 46.046875 20.015625 46.78125 33.40625 
Q 43.953125 29.203125 39.59375 26.953125 
Q 35.25 24.703125 29.984375 24.703125 
Q 19.046875 24.703125 12.671875 31.3125 
Q 6.296875 37.9375 6.296875 49.421875 
Q 6.296875 60.640625 12.9375 67.421875 
Q 19.578125 74.21875 30.609375 74.21875 
Q 43.265625 74.21875 49.921875 64.515625 
Q 56.59375 54.828125 56.59375 36.375 
Q 56.59375 19.140625 48.40625 8.859375 
Q 40.234375 -1.421875 26.421875 -1.421875 
Q 22.703125 -1.421875 18.890625 -0.6875 
Q 15.09375 0.046875 10.984375 1.515625 
z
M 30.609375 32.421875 
Q 37.25 32.421875 41.125 36.953125 
Q 45.015625 41.5 45.015625 49.421875 
Q 45.015625 57.28125 41.125 61.84375 
Q 37.25 66.40625 30.609375 66.40625 
Q 23.96875 66.40625 20.09375 61.84375 
Q 16.21875 57.28125 16.21875 49.421875 
Q 16.21875 41.5 20.09375 36.953125 
Q 23.96875 32.421875 30.609375 32.421875 
z
" id="DejaVuSans-39"/>
       <path d="M 37.796875 64.3125 
L 12.890625 25.390625 
L 37.796875 25.390625 
z
M 35.203125 72.90625 
L 47.609375 72.90625 
L 47.609375 25.390625 
L 58.015625 25.390625 
L 58.015625 17.1875 
L 47.609375 17.1875 
L 47.609375 0 
L 37.796875 0 
L 37.796875 17.1875 
L 4.890625 17.1875 
L 4.890625 26.703125 
z
" id="DejaVuSans-34"/>
      </defs>
      <g transform="translate(172.733415 407.937813)scale(0.14 -0.14)">
       <use xlink:href="#DejaVuSans-31"/>
       <use x="63.623047" xlink:href="#DejaVuSans-39"/>
       <use x="127.246094" xlink:href="#DejaVuSans-39"/>
       <use x="190.869141" xlink:href="#DejaVuSans-34"/>
      </g>
     </g>
    </g>
    <g id="xtick_2">
     <g id="line2d_2">
      <g>
       <use style="stroke:#000000;stroke-width:0.8;" x="337.608934" xlink:href="#m2782efc20a" y="388.8"/>
      </g>
     </g>
     <g id="text_2">
      <!-- 1999 -->
      <g transform="translate(319.793934 407.937813)scale(0.14 -0.14)">
       <use xlink:href="#DejaVuSans-31"/>
       <use x="63.623047" xlink:href="#DejaVuSans-39"/>
       <use x="127.246094" xlink:href="#DejaVuSans-39"/>
       <use x="190.869141" xlink:href="#DejaVuSans-39"/>
      </g>
     </g>
    </g>
    <g id="xtick_3">
     <g id="line2d_3">
      <g>
       <use style="stroke:#000000;stroke-width:0.8;" x="484.669452" xlink:href="#m2782efc20a" y="388.8"/>
      </g>
     </g>
     <g id="text_3">
      <!-- 2004 -->
      <defs>
       <path d="M 19.1875 8.296875 
L 53.609375 8.296875 
L 53.609375 0 
L 7.328125 0 
L 7.328125 8.296875 
Q 12.9375 14.109375 22.625 23.890625 
Q 32.328125 33.6875 34.8125 36.53125 
Q 39.546875 41.84375 41.421875 45.53125 
Q 43.3125 49.21875 43.3125 52.78125 
Q 43.3125 58.59375 39.234375 62.25 
Q 35.15625 65.921875 28.609375 65.921875 
Q 23.96875 65.921875 18.8125 64.3125 
Q 13.671875 62.703125 7.8125 59.421875 
L 7.8125 69.390625 
Q 13.765625 71.78125 18.9375 73 
Q 24.125 74.21875 28.421875 74.21875 
Q 39.75 74.21875 46.484375 68.546875 
Q 53.21875 62.890625 53.21875 53.421875 
Q 53.21875 48.921875 51.53125 44.890625 
Q 49.859375 40.875 45.40625 35.40625 
Q 44.1875 33.984375 37.640625 27.21875 
Q 31.109375 20.453125 19.1875 8.296875 
z
" id="DejaVuSans-32"/>
       <path d="M 31.78125 66.40625 
Q 24.171875 66.40625 20.328125 58.90625 
Q 16.5 51.421875 16.5 36.375 
Q 16.5 21.390625 20.328125 13.890625 
Q 24.171875 6.390625 31.78125 6.390625 
Q 39.453125 6.390625 43.28125 13.890625 
Q 47.125 21.390625 47.125 36.375 
Q 47.125 51.421875 43.28125 58.90625 
Q 39.453125 66.40625 31.78125 66.40625 
z
M 31.78125 74.21875 
Q 44.046875 74.21875 50.515625 64.515625 
Q 56.984375 54.828125 56.984375 36.375 
Q 56.984375 17.96875 50.515625 8.265625 
Q 44.046875 -1.421875 31.78125 -1.421875 
Q 19.53125 -1.421875 13.0625 8.265625 
Q 6.59375 17.96875 6.59375 36.375 
Q 6.59375 54.828125 13.0625 64.515625 
Q 19.53125 74.21875 31.78125 74.21875 
z
" id="DejaVuSans-30"/>
      </defs>
      <g transform="translate(466.854452 407.937813)scale(0.14 -0.14)">
       <use xlink:href="#DejaVuSans-32"/>
       <use x="63.623047" xlink:href="#DejaVuSans-30"/>
       <use x="127.246094" xlink:href="#DejaVuSans-30"/>
       <use x="190.869141" xlink:href="#DejaVuSans-34"/>
      </g>
     </g>
    </g>
    <g id="xtick_4">
     <g id="line2d_4">
      <g>
       <use style="stroke:#000000;stroke-width:0.8;" x="631.729971" xlink:href="#m2782efc20a" y="388.8"/>
      </g>
     </g>
     <g id="text_4">
      <!-- 2009 -->
      <g transform="translate(613.914971 407.937813)scale(0.14 -0.14)">
       <use xlink:href="#DejaVuSans-32"/>
       <use x="63.623047" xlink:href="#DejaVuSans-30"/>
       <use x="127.246094" xlink:href="#DejaVuSans-30"/>
       <use x="190.869141" xlink:href="#DejaVuSans-39"/>
      </g>
     </g>
    </g>
    <g id="xtick_5">
     <g id="line2d_5">
      <g>
       <use style="stroke:#000000;stroke-width:0.8;" x="778.79049" xlink:href="#m2782efc20a" y="388.8"/>
      </g>
     </g>
     <g id="text_5">
      <!-- 2014 -->
      <g transform="translate(760.97549 407.937813)scale(0.14 -0.14)">
       <use xlink:href="#DejaVuSans-32"/>
       <use x="63.623047" xlink:href="#DejaVuSans-30"/>
       <use x="127.246094" xlink:href="#DejaVuSans-31"/>
       <use x="190.869141" xlink:href="#DejaVuSans-34"/>
      </g>
     </g>
    </g>
    <g id="xtick_6">
     <g id="line2d_6">
      <defs>
       <path d="M 0 0 
L 0 2 
" id="m56888cbc22" style="stroke:#000000;stroke-width:0.6;"/>
      </defs>
      <g>
       <use style="stroke:#000000;stroke-width:0.6;" x="72.9" xlink:href="#m56888cbc22" y="388.8"/>
      </g>
     </g>
    </g>
    <g id="xtick_7">
     <g id="line2d_7">
      <g>
       <use style="stroke:#000000;stroke-width:0.6;" x="102.312104" xlink:href="#m56888cbc22" y="388.8"/>
      </g>
     </g>
    </g>
    <g id="xtick_8">
     <g id="line2d_8">
      <g>
       <use style="stroke:#000000;stroke-width:0.6;" x="131.724207" xlink:href="#m56888cbc22" y="388.8"/>
      </g>
     </g>
    </g>
    <g id="xtick_9">
     <g id="line2d_9">
      <g>
       <use style="stroke:#000000;stroke-width:0.6;" x="161.136311" xlink:href="#m56888cbc22" y="388.8"/>
      </g>
     </g>
    </g>
    <g id="xtick_10">
     <g id="line2d_10">
      <g>
       <use style="stroke:#000000;stroke-width:0.6;" x="190.548415" xlink:href="#m56888cbc22" y="388.8"/>
      </g>
     </g>
    </g>
    <g id="xtick_11">
     <g id="line2d_11">
      <g>
       <use style="stroke:#000000;stroke-width:0.6;" x="219.960519" xlink:href="#m56888cbc22" y="388.8"/>
      </g>
     </g>
    </g>
    <g id="xtick_12">
     <g id="line2d_12">
      <g>
       <use style="stroke:#000000;stroke-width:0.6;" x="249.372622" xlink:href="#m56888cbc22" y="388.8"/>
      </g>
     </g>
    </g>
    <g id="xtick_13">
     <g id="line2d_13">
      <g>
       <use style="stroke:#000000;stroke-width:0.6;" x="278.784726" xlink:href="#m56888cbc22" y="388.8"/>
      </g>
     </g>
    </g>
    <g id="xtick_14">
     <g id="line2d_14">
      <g>
       <use style="stroke:#000000;stroke-width:0.6;" x="308.19683" xlink:href="#m56888cbc22" y="388.8"/>
      </g>
     </g>
    </g>
    <g id="xtick_15">
     <g id="line2d_15">
      <g>
       <use style="stroke:#000000;stroke-width:0.6;" x="337.608934" xlink:href="#m56888cbc22" y="388.8"/>
      </g>
     </g>
    </g>
    <g id="xtick_16">
     <g id="line2d_16">
      <g>
       <use style="stroke:#000000;stroke-width:0.6;" x="367.021037" xlink:href="#m56888cbc22" y="388.8"/>
      </g>
     </g>
    </g>
    <g id="xtick_17">
     <g id="line2d_17">
      <g>
       <use style="stroke:#000000;stroke-width:0.6;" x="396.433141" xlink:href="#m56888cbc22" y="388.8"/>
      </g>
     </g>
    </g>
    <g id="xtick_18">
     <g id="line2d_18">
      <g>
       <use style="stroke:#000000;stroke-width:0.6;" x="425.845245" xlink:href="#m56888cbc22" y="388.8"/>
      </g>
     </g>
    </g>
    <g id="xtick_19">
     <g id="line2d_19">
      <g>
       <use style="stroke:#000000;stroke-width:0.6;" x="455.257349" xlink:href="#m56888cbc22" y="388.8"/>
      </g>
     </g>
    </g>
    <g id="xtick_20">
     <g id="line2d_20">
      <g>
       <use style="stroke:#000000;stroke-width:0.6;" x="484.669452" xlink:href="#m56888cbc22" y="388.8"/>
      </g>
     </g>
    </g>
    <g id="xtick_21">
     <g id="line2d_21">
      <g>
       <use style="stroke:#000000;stroke-width:0.6;" x="514.081556" xlink:href="#m56888cbc22" y="388.8"/>
      </g>
     </g>
    </g>
    <g id="xtick_22">
     <g id="line2d_22">
      <g>
       <use style="stroke:#000000;stroke-width:0.6;" x="543.49366" xlink:href="#m56888cbc22" y="388.8"/>
      </g>
     </g>
    </g>
    <g id="xtick_23">
     <g id="line2d_23">
      <g>
       <use style="stroke:#000000;stroke-width:0.6;" x="572.905764" xlink:href="#m56888cbc22" y="388.8"/>
      </g>
     </g>
    </g>
    <g id="xtick_24">
     <g id="line2d_24">
      <g>
       <use style="stroke:#000000;stroke-width:0.6;" x="602.317867" xlink:href="#m56888cbc22" y="388.8"/>
      </g>
     </g>
    </g>
    <g id="xtick_25">
     <g id="line2d_25">
      <g>
       <use style="stroke:#000000;stroke-width:0.6;" x="631.729971" xlink:href="#m56888cbc22" y="388.8"/>
      </g>
     </g>
    </g>
    <g id="xtick_26">
     <g id="line2d_26">
      <g>
       <use style="stroke:#000000;stroke-width:0.6;" x="661.142075" xlink:href="#m56888cbc22" y="388.8"/>
      </g>
     </g>
    </g>
    <g id="xtick_27">
     <g id="line2d_27">
      <g>
       <use style="stroke:#000000;stroke-width:0.6;" x="690.554179" xlink:href="#m56888cbc22" y="388.8"/>
      </g>
     </g>
    </g>
    <g id="xtick_28">
     <g id="line2d_28">
      <g>
       <use style="stroke:#000000;stroke-width:0.6;" x="719.966282" xlink:href="#m56888cbc22" y="388.8"/>
      </g>
     </g>
    </g>
    <g id="xtick_29">
     <g id="line2d_29">
      <g>
       <use style="stroke:#000000;stroke-width:0.6;" x="749.378386" xlink:href="#m56888cbc22" y="388.8"/>
      </g>
     </g>
    </g>
    <g id="xtick_30">
     <g id="line2d_30">
      <g>
       <use style="stroke:#000000;stroke-width:0.6;" x="778.79049" xlink:href="#m56888cbc22" y="388.8"/>
      </g>
     </g>
    </g>
    <g id="xtick_31">
     <g id="line2d_31">
      <g>
       <use style="stroke:#000000;stroke-width:0.6;" x="808.202594" xlink:href="#m56888cbc22" y="388.8"/>
      </g>
     </g>
    </g>
    <g id="xtick_32">
     <g id="line2d_32">
      <g>
       <use style="stroke:#000000;stroke-width:0.6;" x="837.614697" xlink:href="#m56888cbc22" y="388.8"/>
      </g>
     </g>
    </g>
    <g id="xtick_33">
     <g id="line2d_33">
      <g>
       <use style="stroke:#000000;stroke-width:0.6;" x="867.026801" xlink:href="#m56888cbc22" y="388.8"/>
      </g>
     </g>
    </g>
    <g id="xtick_34">
     <g id="line2d_34">
      <g>
       <use style="stroke:#000000;stroke-width:0.6;" x="896.438905" xlink:href="#m56888cbc22" y="388.8"/>
      </g>
     </g>
    </g>
   </g>
   <g id="matplotlib.axis_2">
    <g id="ytick_1">
     <g id="line2d_35">
      <path clip-path="url(#p9d666baa0a)" d="M 72.9 362.460111 
L 923.4 362.460111 
" style="fill:none;stroke:#000000;stroke-dasharray:0.8,1.32;stroke-dashoffset:0;stroke-width:0.8;"/>
     </g>
     <g id="line2d_36">
      <defs>
       <path d="M 0 0 
L -3.5 0 
" id="md8d3526ccd" style="stroke:#000000;stroke-width:0.8;"/>
      </defs>
      <g>
       <use style="stroke:#000000;stroke-width:0.8;" x="72.9" xlink:href="#md8d3526ccd" y="362.460111"/>
      </g>
     </g>
     <g id="text_6">
      <!-- −3 -->
      <defs>
       <path d="M 10.59375 35.5 
L 73.1875 35.5 
L 73.1875 27.203125 
L 10.59375 27.203125 
z
" id="DejaVuSans-2212"/>
       <path d="M 40.578125 39.3125 
Q 47.65625 37.796875 51.625 33 
Q 55.609375 28.21875 55.609375 21.1875 
Q 55.609375 10.40625 48.1875 4.484375 
Q 40.765625 -1.421875 27.09375 -1.421875 
Q 22.515625 -1.421875 17.65625 -0.515625 
Q 12.796875 0.390625 7.625 2.203125 
L 7.625 11.71875 
Q 11.71875 9.328125 16.59375 8.109375 
Q 21.484375 6.890625 26.8125 6.890625 
Q 36.078125 6.890625 40.9375 10.546875 
Q 45.796875 14.203125 45.796875 21.1875 
Q 45.796875 27.640625 41.28125 31.265625 
Q 36.765625 34.90625 28.71875 34.90625 
L 20.21875 34.90625 
L 20.21875 43.015625 
L 29.109375 43.015625 
Q 36.375 43.015625 40.234375 45.921875 
Q 44.09375 48.828125 44.09375 54.296875 
Q 44.09375 59.90625 40.109375 62.90625 
Q 36.140625 65.921875 28.71875 65.921875 
Q 24.65625 65.921875 20.015625 65.03125 
Q 15.375 64.15625 9.8125 62.3125 
L 9.8125 71.09375 
Q 15.4375 72.65625 20.34375 73.4375 
Q 25.25 74.21875 29.59375 74.21875 
Q 40.828125 74.21875 47.359375 69.109375 
Q 53.90625 64.015625 53.90625 55.328125 
Q 53.90625 49.265625 50.4375 45.09375 
Q 46.96875 40.921875 40.578125 39.3125 
z
" id="DejaVuSans-33"/>
      </defs>
      <g transform="translate(45.760937 367.779017)scale(0.14 -0.14)">
       <use xlink:href="#DejaVuSans-2212"/>
       <use x="83.789062" xlink:href="#DejaVuSans-33"/>
      </g>
     </g>
    </g>
    <g id="ytick_2">
     <g id="line2d_37">
      <path clip-path="url(#p9d666baa0a)" d="M 72.9 316.58458 
L 923.4 316.58458 
" style="fill:none;stroke:#000000;stroke-dasharray:0.8,1.32;stroke-dashoffset:0;stroke-width:0.8;"/>
     </g>
     <g id="line2d_38">
      <g>
       <use style="stroke:#000000;stroke-width:0.8;" x="72.9" xlink:href="#md8d3526ccd" y="316.58458"/>
      </g>
     </g>
     <g id="text_7">
      <!-- −2 -->
      <g transform="translate(45.760937 321.903486)scale(0.14 -0.14)">
       <use xlink:href="#DejaVuSans-2212"/>
       <use x="83.789062" xlink:href="#DejaVuSans-32"/>
      </g>
     </g>
    </g>
    <g id="ytick_3">
     <g id="line2d_39">
      <path clip-path="url(#p9d666baa0a)" d="M 72.9 270.709049 
L 923.4 270.709049 
" style="fill:none;stroke:#000000;stroke-dasharray:0.8,1.32;stroke-dashoffset:0;stroke-width:0.8;"/>
     </g>
     <g id="line2d_40">
      <g>
       <use style="stroke:#000000;stroke-width:0.8;" x="72.9" xlink:href="#md8d3526ccd" y="270.709049"/>
      </g>
     </g>
     <g id="text_8">
      <!-- −1 -->
      <g transform="translate(45.760937 276.027956)scale(0.14 -0.14)">
       <use xlink:href="#DejaVuSans-2212"/>
       <use x="83.789062" xlink:href="#DejaVuSans-31"/>
      </g>
     </g>
    </g>
    <g id="ytick_4">
     <g id="line2d_41">
      <path clip-path="url(#p9d666baa0a)" d="M 72.9 224.833519 
L 923.4 224.833519 
" style="fill:none;stroke:#000000;stroke-dasharray:0.8,1.32;stroke-dashoffset:0;stroke-width:0.8;"/>
     </g>
     <g id="line2d_42">
      <g>
       <use style="stroke:#000000;stroke-width:0.8;" x="72.9" xlink:href="#md8d3526ccd" y="224.833519"/>
      </g>
     </g>
     <g id="text_9">
      <!-- 0 -->
      <g transform="translate(57.4925 230.152425)scale(0.14 -0.14)">
       <use xlink:href="#DejaVuSans-30"/>
      </g>
     </g>
    </g>
    <g id="ytick_5">
     <g id="line2d_43">
      <path clip-path="url(#p9d666baa0a)" d="M 72.9 178.957988 
L 923.4 178.957988 
" style="fill:none;stroke:#000000;stroke-dasharray:0.8,1.32;stroke-dashoffset:0;stroke-width:0.8;"/>
     </g>
     <g id="line2d_44">
      <g>
       <use style="stroke:#000000;stroke-width:0.8;" x="72.9" xlink:href="#md8d3526ccd" y="178.957988"/>
      </g>
     </g>
     <g id="text_10">
      <!-- 1 -->
      <g transform="translate(57.4925 184.276894)scale(0.14 -0.14)">
       <use xlink:href="#DejaVuSans-31"/>
      </g>
     </g>
    </g>
    <g id="ytick_6">
     <g id="line2d_45">
      <path clip-path="url(#p9d666baa0a)" d="M 72.9 133.082457 
L 923.4 133.082457 
" style="fill:none;stroke:#000000;stroke-dasharray:0.8,1.32;stroke-dashoffset:0;stroke-width:0.8;"/>
     </g>
     <g id="line2d_46">
      <g>
       <use style="stroke:#000000;stroke-width:0.8;" x="72.9" xlink:href="#md8d3526ccd" y="133.082457"/>
      </g>
     </g>
     <g id="text_11">
      <!-- 2 -->
      <g transform="translate(57.4925 138.401364)scale(0.14 -0.14)">
       <use xlink:href="#DejaVuSans-32"/>
      </g>
     </g>
    </g>
    <g id="ytick_7">
     <g id="line2d_47">
      <path clip-path="url(#p9d666baa0a)" d="M 72.9 87.206927 
L 923.4 87.206927 
" style="fill:none;stroke:#000000;stroke-dasharray:0.8,1.32;stroke-dashoffset:0;stroke-width:0.8;"/>
     </g>
     <g id="line2d_48">
      <g>
       <use style="stroke:#000000;stroke-width:0.8;" x="72.9" xlink:href="#md8d3526ccd" y="87.206927"/>
      </g>
     </g>
     <g id="text_12">
      <!-- 3 -->
      <g transform="translate(57.4925 92.525833)scale(0.14 -0.14)">
       <use xlink:href="#DejaVuSans-33"/>
      </g>
     </g>
    </g>
    <g id="text_13">
     <!-- Percentage point -->
     <defs>
      <path d="M 19.671875 64.796875 
L 19.671875 37.40625 
L 32.078125 37.40625 
Q 38.96875 37.40625 42.71875 40.96875 
Q 46.484375 44.53125 46.484375 51.125 
Q 46.484375 57.671875 42.71875 61.234375 
Q 38.96875 64.796875 32.078125 64.796875 
z
M 9.8125 72.90625 
L 32.078125 72.90625 
Q 44.34375 72.90625 50.609375 67.359375 
Q 56.890625 61.8125 56.890625 51.125 
Q 56.890625 40.328125 50.609375 34.8125 
Q 44.34375 29.296875 32.078125 29.296875 
L 19.671875 29.296875 
L 19.671875 0 
L 9.8125 0 
z
" id="DejaVuSans-50"/>
      <path d="M 56.203125 29.59375 
L 56.203125 25.203125 
L 14.890625 25.203125 
Q 15.484375 15.921875 20.484375 11.0625 
Q 25.484375 6.203125 34.421875 6.203125 
Q 39.59375 6.203125 44.453125 7.46875 
Q 49.3125 8.734375 54.109375 11.28125 
L 54.109375 2.78125 
Q 49.265625 0.734375 44.1875 -0.34375 
Q 39.109375 -1.421875 33.890625 -1.421875 
Q 20.796875 -1.421875 13.15625 6.1875 
Q 5.515625 13.8125 5.515625 26.8125 
Q 5.515625 40.234375 12.765625 48.109375 
Q 20.015625 56 32.328125 56 
Q 43.359375 56 49.78125 48.890625 
Q 56.203125 41.796875 56.203125 29.59375 
z
M 47.21875 32.234375 
Q 47.125 39.59375 43.09375 43.984375 
Q 39.0625 48.390625 32.421875 48.390625 
Q 24.90625 48.390625 20.390625 44.140625 
Q 15.875 39.890625 15.1875 32.171875 
z
" id="DejaVuSans-65"/>
      <path d="M 41.109375 46.296875 
Q 39.59375 47.171875 37.8125 47.578125 
Q 36.03125 48 33.890625 48 
Q 26.265625 48 22.1875 43.046875 
Q 18.109375 38.09375 18.109375 28.8125 
L 18.109375 0 
L 9.078125 0 
L 9.078125 54.6875 
L 18.109375 54.6875 
L 18.109375 46.1875 
Q 20.953125 51.171875 25.484375 53.578125 
Q 30.03125 56 36.53125 56 
Q 37.453125 56 38.578125 55.875 
Q 39.703125 55.765625 41.0625 55.515625 
z
" id="DejaVuSans-72"/>
      <path d="M 48.78125 52.59375 
L 48.78125 44.1875 
Q 44.96875 46.296875 41.140625 47.34375 
Q 37.3125 48.390625 33.40625 48.390625 
Q 24.65625 48.390625 19.8125 42.84375 
Q 14.984375 37.3125 14.984375 27.296875 
Q 14.984375 17.28125 19.8125 11.734375 
Q 24.65625 6.203125 33.40625 6.203125 
Q 37.3125 6.203125 41.140625 7.25 
Q 44.96875 8.296875 48.78125 10.40625 
L 48.78125 2.09375 
Q 45.015625 0.34375 40.984375 -0.53125 
Q 36.96875 -1.421875 32.421875 -1.421875 
Q 20.0625 -1.421875 12.78125 6.34375 
Q 5.515625 14.109375 5.515625 27.296875 
Q 5.515625 40.671875 12.859375 48.328125 
Q 20.21875 56 33.015625 56 
Q 37.15625 56 41.109375 55.140625 
Q 45.0625 54.296875 48.78125 52.59375 
z
" id="DejaVuSans-63"/>
      <path d="M 54.890625 33.015625 
L 54.890625 0 
L 45.90625 0 
L 45.90625 32.71875 
Q 45.90625 40.484375 42.875 44.328125 
Q 39.84375 48.1875 33.796875 48.1875 
Q 26.515625 48.1875 22.3125 43.546875 
Q 18.109375 38.921875 18.109375 30.90625 
L 18.109375 0 
L 9.078125 0 
L 9.078125 54.6875 
L 18.109375 54.6875 
L 18.109375 46.1875 
Q 21.34375 51.125 25.703125 53.5625 
Q 30.078125 56 35.796875 56 
Q 45.21875 56 50.046875 50.171875 
Q 54.890625 44.34375 54.890625 33.015625 
z
" id="DejaVuSans-6e"/>
      <path d="M 18.3125 70.21875 
L 18.3125 54.6875 
L 36.8125 54.6875 
L 36.8125 47.703125 
L 18.3125 47.703125 
L 18.3125 18.015625 
Q 18.3125 11.328125 20.140625 9.421875 
Q 21.96875 7.515625 27.59375 7.515625 
L 36.8125 7.515625 
L 36.8125 0 
L 27.59375 0 
Q 17.1875 0 13.234375 3.875 
Q 9.28125 7.765625 9.28125 18.015625 
L 9.28125 47.703125 
L 2.6875 47.703125 
L 2.6875 54.6875 
L 9.28125 54.6875 
L 9.28125 70.21875 
z
" id="DejaVuSans-74"/>
      <path d="M 34.28125 27.484375 
Q 23.390625 27.484375 19.1875 25 
Q 14.984375 22.515625 14.984375 16.5 
Q 14.984375 11.71875 18.140625 8.90625 
Q 21.296875 6.109375 26.703125 6.109375 
Q 34.1875 6.109375 38.703125 11.40625 
Q 43.21875 16.703125 43.21875 25.484375 
L 43.21875 27.484375 
z
M 52.203125 31.203125 
L 52.203125 0 
L 43.21875 0 
L 43.21875 8.296875 
Q 40.140625 3.328125 35.546875 0.953125 
Q 30.953125 -1.421875 24.3125 -1.421875 
Q 15.921875 -1.421875 10.953125 3.296875 
Q 6 8.015625 6 15.921875 
Q 6 25.140625 12.171875 29.828125 
Q 18.359375 34.515625 30.609375 34.515625 
L 43.21875 34.515625 
L 43.21875 35.40625 
Q 43.21875 41.609375 39.140625 45 
Q 35.0625 48.390625 27.6875 48.390625 
Q 23 48.390625 18.546875 47.265625 
Q 14.109375 46.140625 10.015625 43.890625 
L 10.015625 52.203125 
Q 14.9375 54.109375 19.578125 55.046875 
Q 24.21875 56 28.609375 56 
Q 40.484375 56 46.34375 49.84375 
Q 52.203125 43.703125 52.203125 31.203125 
z
" id="DejaVuSans-61"/>
      <path d="M 45.40625 27.984375 
Q 45.40625 37.75 41.375 43.109375 
Q 37.359375 48.484375 30.078125 48.484375 
Q 22.859375 48.484375 18.828125 43.109375 
Q 14.796875 37.75 14.796875 27.984375 
Q 14.796875 18.265625 18.828125 12.890625 
Q 22.859375 7.515625 30.078125 7.515625 
Q 37.359375 7.515625 41.375 12.890625 
Q 45.40625 18.265625 45.40625 27.984375 
z
M 54.390625 6.78125 
Q 54.390625 -7.171875 48.1875 -13.984375 
Q 42 -20.796875 29.203125 -20.796875 
Q 24.46875 -20.796875 20.265625 -20.09375 
Q 16.0625 -19.390625 12.109375 -17.921875 
L 12.109375 -9.1875 
Q 16.0625 -11.328125 19.921875 -12.34375 
Q 23.78125 -13.375 27.78125 -13.375 
Q 36.625 -13.375 41.015625 -8.765625 
Q 45.40625 -4.15625 45.40625 5.171875 
L 45.40625 9.625 
Q 42.625 4.78125 38.28125 2.390625 
Q 33.9375 0 27.875 0 
Q 17.828125 0 11.671875 7.65625 
Q 5.515625 15.328125 5.515625 27.984375 
Q 5.515625 40.671875 11.671875 48.328125 
Q 17.828125 56 27.875 56 
Q 33.9375 56 38.28125 53.609375 
Q 42.625 51.21875 45.40625 46.390625 
L 45.40625 54.6875 
L 54.390625 54.6875 
z
" id="DejaVuSans-67"/>
      <path id="DejaVuSans-20"/>
      <path d="M 18.109375 8.203125 
L 18.109375 -20.796875 
L 9.078125 -20.796875 
L 9.078125 54.6875 
L 18.109375 54.6875 
L 18.109375 46.390625 
Q 20.953125 51.265625 25.265625 53.625 
Q 29.59375 56 35.59375 56 
Q 45.5625 56 51.78125 48.09375 
Q 58.015625 40.1875 58.015625 27.296875 
Q 58.015625 14.40625 51.78125 6.484375 
Q 45.5625 -1.421875 35.59375 -1.421875 
Q 29.59375 -1.421875 25.265625 0.953125 
Q 20.953125 3.328125 18.109375 8.203125 
z
M 48.6875 27.296875 
Q 48.6875 37.203125 44.609375 42.84375 
Q 40.53125 48.484375 33.40625 48.484375 
Q 26.265625 48.484375 22.1875 42.84375 
Q 18.109375 37.203125 18.109375 27.296875 
Q 18.109375 17.390625 22.1875 11.75 
Q 26.265625 6.109375 33.40625 6.109375 
Q 40.53125 6.109375 44.609375 11.75 
Q 48.6875 17.390625 48.6875 27.296875 
z
" id="DejaVuSans-70"/>
      <path d="M 30.609375 48.390625 
Q 23.390625 48.390625 19.1875 42.75 
Q 14.984375 37.109375 14.984375 27.296875 
Q 14.984375 17.484375 19.15625 11.84375 
Q 23.34375 6.203125 30.609375 6.203125 
Q 37.796875 6.203125 41.984375 11.859375 
Q 46.1875 17.53125 46.1875 27.296875 
Q 46.1875 37.015625 41.984375 42.703125 
Q 37.796875 48.390625 30.609375 48.390625 
z
M 30.609375 56 
Q 42.328125 56 49.015625 48.375 
Q 55.71875 40.765625 55.71875 27.296875 
Q 55.71875 13.875 49.015625 6.21875 
Q 42.328125 -1.421875 30.609375 -1.421875 
Q 18.84375 -1.421875 12.171875 6.21875 
Q 5.515625 13.875 5.515625 27.296875 
Q 5.515625 40.765625 12.171875 48.375 
Q 18.84375 56 30.609375 56 
z
" id="DejaVuSans-6f"/>
      <path d="M 9.421875 54.6875 
L 18.40625 54.6875 
L 18.40625 0 
L 9.421875 0 
z
M 9.421875 75.984375 
L 18.40625 75.984375 
L 18.40625 64.59375 
L 9.421875 64.59375 
z
" id="DejaVuSans-69"/>
     </defs>
     <g transform="translate(38.849375 280.174375)rotate(-90)scale(0.14 -0.14)">
      <use xlink:href="#DejaVuSans-50"/>
      <use x="60.255859" xlink:href="#DejaVuSans-65"/>
      <use x="121.779297" xlink:href="#DejaVuSans-72"/>
      <use x="162.861328" xlink:href="#DejaVuSans-63"/>
      <use x="217.841797" xlink:href="#DejaVuSans-65"/>
      <use x="279.365234" xlink:href="#DejaVuSans-6e"/>
      <use x="342.744141" xlink:href="#DejaVuSans-74"/>
      <use x="381.953125" xlink:href="#DejaVuSans-61"/>
      <use x="443.232422" xlink:href="#DejaVuSans-67"/>
      <use x="506.708984" xlink:href="#DejaVuSans-65"/>
      <use x="568.232422" xlink:href="#DejaVuSans-20"/>
      <use x="600.019531" xlink:href="#DejaVuSans-70"/>
      <use x="663.496094" xlink:href="#DejaVuSans-6f"/>
      <use x="724.677734" xlink:href="#DejaVuSans-69"/>
      <use x="752.460938" xlink:href="#DejaVuSans-6e"/>
      <use x="815.839844" xlink:href="#DejaVuSans-74"/>
     </g>
    </g>
   </g>
   <g id="line2d_49">
    <path clip-path="url(#p9d666baa0a)" d="M 75.351009 311.699598 
L 77.802017 310.214901 
L 80.253026 314.843076 
L 82.704035 308.988906 
L 85.155043 321.405848 
L 87.606052 318.621274 
L 90.057061 312.661285 
L 92.508069 313.712726 
L 94.959078 319.559356 
L 97.410086 323.166852 
L 99.861095 325.149558 
L 102.312104 325.267455 
L 104.763112 323.45108 
L 107.214121 324.79523 
L 109.66513 311.226112 
L 112.116138 322.580359 
L 114.567147 321.96941 
L 117.018156 332.624276 
L 119.469164 330.436879 
L 121.920173 320.867988 
L 124.371182 317.054908 
L 126.82219 319.079209 
L 129.273199 319.193532 
L 131.724207 309.562648 
L 134.175216 308.74467 
L 136.626225 304.183903 
L 139.077233 300.004252 
L 141.528242 301.809669 
L 143.979251 296.354336 
L 146.430259 290.328949 
L 148.881268 293.155761 
L 151.332277 301.092266 
L 153.783285 314.362676 
L 156.234294 303.449502 
L 158.685303 298.327616 
L 161.136311 307.089435 
L 163.58732 309.549647 
L 166.038329 312.407569 
L 168.489337 309.937876 
L 170.940346 293.034038 
L 173.391354 295.076142 
L 175.842363 299.174392 
L 178.293372 295.077866 
L 180.74438 297.5999 
L 183.195389 291.289691 
L 185.646398 285.973561 
L 188.097406 276.576182 
L 190.548415 263.124471 
L 192.999424 255.979154 
L 195.450432 263.057765 
L 197.901441 256.364801 
L 200.35245 251.709455 
L 202.803458 263.271784 
L 205.254467 266.525969 
L 207.705476 254.159665 
L 210.156484 251.483329 
L 212.607493 252.763582 
L 215.058501 250.78775 
L 217.50951 260.845071 
L 219.960519 257.034317 
L 222.411527 256.083384 
L 224.862536 257.208641 
L 227.313545 239.096755 
L 229.764553 257.27005 
L 232.215562 262.794729 
L 234.666571 245.633878 
L 237.117579 249.318873 
L 239.568588 250.223704 
L 242.019597 240.368987 
L 244.470605 243.214864 
L 246.921614 253.355785 
L 249.372622 253.204607 
L 251.823631 252.81981 
L 254.27464 249.795745 
L 256.725648 244.460838 
L 259.176657 243.520125 
L 261.627666 246.536851 
L 264.078674 233.501118 
L 266.529683 234.331244 
L 268.980692 226.590735 
L 271.4317 220.293322 
L 273.882709 213.676864 
L 276.333718 212.136863 
L 278.784726 221.158197 
L 281.235735 224.276162 
L 283.686744 213.633526 
L 286.137752 213.834935 
L 288.588761 212.013967 
L 291.039769 213.975072 
L 293.490778 204.054011 
L 295.941787 206.330365 
L 298.392795 203.92044 
L 300.843804 212.380803 
L 303.294813 211.184944 
L 305.745821 199.150081 
L 308.19683 206.701727 
L 310.647839 207.684759 
L 313.098847 205.01001 
L 315.549856 215.527852 
L 318.000865 214.2664 
L 320.451873 214.541257 
L 322.902882 218.235916 
L 325.35389 210.249361 
L 327.804899 200.962509 
L 330.255908 204.202587 
L 332.706916 208.355628 
L 335.157925 200.794099 
L 337.608934 199.316834 
L 340.059942 201.314256 
L 342.510951 204.766022 
L 344.96196 198.301982 
L 347.412968 204.931687 
L 349.863977 198.427989 
L 352.314986 200.673031 
L 354.765994 201.302239 
L 357.217003 200.981255 
L 359.668012 199.865165 
L 362.11902 194.378367 
L 364.570029 198.550583 
L 367.021037 198.609363 
L 369.472046 202.951565 
L 371.923055 196.933623 
L 374.374063 186.545814 
L 376.825072 201.554059 
L 379.276081 202.036053 
L 381.727089 208.834652 
L 384.178098 218.534602 
L 386.629107 213.007181 
L 389.080115 214.186372 
L 391.531124 207.212443 
L 393.982133 206.732425 
L 396.433141 198.862755 
L 398.88415 200.241285 
L 401.335159 191.943697 
L 403.786167 211.859897 
L 406.237176 215.821464 
L 408.688184 217.015907 
L 411.139193 214.466297 
L 413.590202 225.57434 
L 416.04121 218.501376 
L 418.492219 216.186964 
L 420.943228 212.260568 
L 423.394236 215.795383 
L 425.845245 226.592979 
L 428.296254 207.534046 
L 430.747262 215.88078 
L 433.198271 214.152536 
L 435.64928 222.34944 
L 438.100288 221.705726 
L 440.551297 224.942833 
L 445.453314 217.418638 
L 447.904323 218.642184 
L 450.355331 223.318224 
L 452.80634 223.834456 
L 455.257349 213.771439 
L 457.708357 221.048297 
L 460.159366 214.603867 
L 462.610375 215.490761 
L 465.061383 216.999546 
L 467.512392 205.068113 
L 469.963401 225.625246 
L 472.414409 226.286105 
L 474.865418 243.071968 
L 477.316427 236.135955 
L 479.767435 238.457465 
L 482.218444 249.389 
L 484.669452 244.942215 
L 487.120461 237.500507 
L 489.57147 232.697132 
L 492.022478 238.26282 
L 494.473487 235.601996 
L 496.924496 234.292646 
L 499.375504 236.484432 
L 501.826513 246.90797 
L 504.277522 250.342383 
L 506.72853 247.043721 
L 509.179539 245.983388 
L 511.630548 243.798545 
L 514.081556 241.443668 
L 516.532565 242.333916 
L 518.983573 247.050222 
L 521.434582 238.494158 
L 523.885591 234.090616 
L 526.336599 240.00353 
L 528.787608 236.899861 
L 531.238617 236.415905 
L 533.689625 228.191064 
L 536.140634 227.326555 
L 541.042651 237.402228 
L 543.49366 241.403213 
L 545.944669 236.569292 
L 548.395677 240.177338 
L 550.846686 239.637797 
L 553.297695 237.442176 
L 555.748703 226.939409 
L 558.199712 220.623459 
L 560.65072 224.813356 
L 563.101729 235.971905 
L 565.552738 228.055105 
L 568.003746 224.816728 
L 570.454755 224.396947 
L 572.905764 224.833519 
L 575.356772 229.874382 
L 577.807781 227.483863 
L 580.25879 251.582429 
L 582.709798 242.540899 
L 585.160807 234.603518 
L 587.611816 232.319051 
L 590.062824 238.198925 
L 592.513833 226.921201 
L 594.964841 237.897861 
L 597.41585 230.294404 
L 599.866859 230.720347 
L 602.317867 226.211202 
L 604.768876 233.596654 
L 607.219885 226.221686 
L 609.670893 230.241803 
L 612.121902 221.020385 
L 614.572911 223.758285 
L 617.023919 229.279183 
L 619.474928 218.561716 
L 621.925937 229.833525 
L 624.376945 222.833859 
L 626.827954 227.291701 
L 629.278963 225.37236 
L 631.729971 231.010372 
L 634.18098 222.954626 
L 636.631988 226.426812 
L 639.082997 228.963901 
L 641.534006 228.680896 
L 643.985014 226.11714 
L 646.436023 231.095919 
L 648.887032 240.593212 
L 651.33804 253.510337 
L 653.789049 257.517914 
L 656.240058 253.088238 
L 658.691066 266.402481 
L 661.142075 256.338956 
L 663.593084 254.083137 
L 666.044092 257.898294 
L 668.495101 252.705882 
L 670.94611 257.578874 
L 673.397118 270.658024 
L 675.848127 273.72422 
L 678.299135 268.173621 
L 680.750144 269.333731 
L 683.201153 273.823541 
L 685.652161 265.623645 
L 688.10317 278.9614 
L 690.554179 282.319064 
L 693.005187 288.483196 
L 695.456196 282.050865 
L 697.907205 281.865778 
L 702.809222 295.104533 
L 705.260231 295.040523 
L 707.711239 290.248388 
L 710.162248 281.876326 
L 712.613256 288.21427 
L 715.064265 292.90622 
L 719.966282 309.357724 
L 722.417291 302.121459 
L 724.8683 302.767127 
L 727.319308 311.333039 
L 729.770317 307.919485 
L 732.221326 305.730146 
L 734.672334 311.47881 
L 737.123343 312.832249 
L 739.574352 310.702942 
L 742.02536 308.146552 
L 744.476369 312.433217 
L 746.927378 306.025497 
L 749.378386 317.6939 
L 751.829395 324.065519 
L 754.280403 329.255788 
L 756.731412 325.617081 
L 759.182421 326.505169 
L 761.633429 321.460628 
L 764.084438 326.75767 
L 766.535447 325.089078 
L 768.986455 333.030306 
L 771.437464 348.444947 
L 773.888473 343.650764 
L 776.339481 341.009769 
L 778.79049 339.45658 
L 781.241499 328.984517 
L 783.692507 328.254447 
L 786.143516 341.692883 
L 788.594524 339.030586 
L 791.045533 345.798325 
L 793.496542 344.566856 
L 795.94755 345.829732 
L 798.398559 349.503247 
L 800.849568 337.10133 
L 803.300576 338.688158 
L 805.751585 353.703204 
L 808.202594 347.286649 
L 810.653602 356.495303 
L 813.104611 358.429736 
L 815.55562 355.915687 
L 818.006628 348.856439 
L 820.457637 350.856221 
L 822.908646 357.828089 
L 825.359654 355.450442 
L 827.810663 368.567562 
L 832.71268 350.098713 
L 835.163689 346.449176 
L 837.614697 345.644829 
L 840.065706 345.82707 
L 842.516715 337.085188 
L 844.967723 348.505036 
L 847.418732 355.344142 
L 849.869741 357.477156 
L 852.320749 352.991964 
L 854.771758 348.039119 
L 857.222767 345.615258 
L 859.673775 348.212345 
L 862.124784 352.290389 
L 864.575793 350.403822 
L 867.026801 345.856341 
L 869.47781 339.318863 
L 871.928818 330.382015 
L 874.379827 337.418027 
L 876.830836 345.499778 
L 879.281844 336.58644 
L 881.732853 328.560919 
L 884.183862 332.473712 
L 886.63487 329.556085 
L 889.085879 346.856841 
L 891.536888 342.149318 
L 893.987896 346.140787 
L 896.438905 353.768707 
L 898.889914 339.027871 
L 901.340922 342.716645 
L 903.791931 352.024 
L 906.242939 353.529515 
L 908.693948 331.160373 
L 911.144957 325.894968 
L 913.595965 340.91188 
L 916.046974 338.015957 
L 918.497983 325.741778 
L 920.948991 329.23088 
L 920.948991 329.23088 
" style="fill:none;stroke:#000000;stroke-linecap:square;stroke-width:3;"/>
   </g>
   <g id="line2d_50">
    <path clip-path="url(#p9d666baa0a)" d="M 77.802017 331.82017 
L 80.253026 331.458187 
L 82.704035 315.672338 
L 85.155043 316.880305 
L 87.606052 312.468744 
L 90.057061 300.4979 
L 92.508069 295.148097 
L 94.959078 291.850245 
L 97.410086 294.854524 
L 99.861095 290.661509 
L 102.312104 281.731241 
L 104.763112 272.012173 
L 107.214121 265.798965 
L 109.66513 248.132627 
L 112.116138 248.832414 
L 114.567147 244.132348 
L 117.018156 240.943365 
L 119.469164 233.834411 
L 121.920173 223.914366 
L 124.371182 218.464961 
L 126.82219 207.419962 
L 129.273199 197.572117 
L 131.724207 190.873883 
L 134.175216 182.99071 
L 136.626225 176.308045 
L 139.077233 169.223248 
L 141.528242 172.591649 
L 143.979251 164.28325 
L 146.430259 159.921395 
L 148.881268 154.007648 
L 151.332277 156.603671 
L 153.783285 164.394834 
L 156.234294 157.504902 
L 158.685303 156.805025 
L 161.136311 158.185042 
L 163.58732 160.831782 
L 166.038329 160.922549 
L 168.489337 159.762495 
L 170.940346 150.004507 
L 173.391354 142.15832 
L 175.842363 139.733411 
L 178.293372 141.544496 
L 180.74438 146.343959 
L 183.195389 146.078438 
L 185.646398 140.823035 
L 188.097406 138.823174 
L 190.548415 138.139315 
L 192.999424 145.483461 
L 195.450432 157.701288 
L 197.901441 155.337396 
L 200.35245 155.614375 
L 202.803458 168.222699 
L 205.254467 172.476038 
L 207.705476 173.897693 
L 210.156484 167.161704 
L 212.607493 168.446173 
L 215.058501 173.017422 
L 217.50951 182.626289 
L 219.960519 180.821081 
L 222.411527 176.318927 
L 224.862536 176.620746 
L 227.313545 170.688953 
L 229.764553 179.026608 
L 232.215562 186.832523 
L 234.666571 181.493165 
L 237.117579 180.242183 
L 239.568588 185.229767 
L 242.019597 182.752468 
L 244.470605 181.771606 
L 246.921614 179.363298 
L 249.372622 174.403725 
L 251.823631 173.647618 
L 254.27464 170.346836 
L 256.725648 163.040865 
L 259.176657 164.25576 
L 261.627666 164.133115 
L 264.078674 157.86053 
L 266.529683 160.174471 
L 268.980692 153.624253 
L 271.4317 147.781725 
L 273.882709 141.477305 
L 276.333718 131.665834 
L 278.784726 139.546264 
L 281.235735 138.598228 
L 283.686744 135.463208 
L 286.137752 138.793333 
L 288.588761 137.280321 
L 291.039769 137.037149 
L 293.490778 128.488991 
L 295.941787 131.971901 
L 298.392795 126.133115 
L 300.843804 125.150844 
L 303.294813 128.29424 
L 305.745821 129.63913 
L 308.19683 133.252752 
L 310.647839 133.124662 
L 313.098847 135.213276 
L 315.549856 143.026872 
L 318.000865 141.142848 
L 320.451873 140.860499 
L 322.902882 142.861958 
L 325.35389 148.272181 
L 327.804899 152.140246 
L 330.255908 162.80318 
L 332.706916 169.141886 
L 335.157925 172.375332 
L 337.608934 179.750759 
L 340.059942 185.257522 
L 342.510951 189.150428 
L 344.96196 190.177747 
L 347.412968 194.05472 
L 349.863977 194.667622 
L 352.314986 201.027727 
L 354.765994 199.233954 
L 357.217003 199.185576 
L 359.668012 197.379159 
L 362.11902 194.207853 
L 364.570029 195.241627 
L 367.021037 192.408917 
L 369.472046 195.351349 
L 371.923055 191.938112 
L 374.374063 180.650516 
L 376.825072 187.882946 
L 379.276081 188.298278 
L 381.727089 184.608047 
L 384.178098 190.964629 
L 386.629107 189.324351 
L 389.080115 193.272756 
L 391.531124 192.112591 
L 396.433141 196.903968 
L 398.88415 202.213721 
L 401.335159 198.210268 
L 403.786167 213.549039 
L 406.237176 218.014643 
L 408.688184 218.856457 
L 411.139193 221.026888 
L 413.590202 234.299294 
L 416.04121 234.677005 
L 418.492219 229.205036 
L 420.943228 222.216219 
L 423.394236 220.655569 
L 425.845245 219.760004 
L 428.296254 204.847267 
L 430.747262 204.640946 
L 433.198271 201.601025 
L 435.64928 206.217422 
L 438.100288 207.903271 
L 440.551297 207.35395 
L 443.002305 199.537925 
L 445.453314 189.256696 
L 447.904323 188.735873 
L 450.355331 189.497091 
L 452.80634 184.79325 
L 455.257349 181.09944 
L 457.708357 181.081987 
L 460.159366 174.259072 
L 462.610375 169.531784 
L 465.061383 163.596069 
L 467.512392 158.715239 
L 469.963401 169.192892 
L 472.414409 167.228615 
L 474.865418 178.598181 
L 477.316427 177.506895 
L 479.767435 180.676461 
L 482.218444 186.162747 
L 484.669452 182.41231 
L 487.120461 177.071826 
L 489.57147 175.525821 
L 492.022478 173.353318 
L 494.473487 172.662322 
L 496.924496 169.645491 
L 499.375504 173.539698 
L 501.826513 182.74155 
L 504.277522 183.257591 
L 506.72853 184.501814 
L 509.179539 183.505669 
L 511.630548 182.3384 
L 514.081556 178.019328 
L 516.532565 178.211258 
L 518.983573 182.174116 
L 521.434582 181.240536 
L 526.336599 181.525987 
L 528.787608 186.569914 
L 531.238617 186.803649 
L 533.689625 187.258287 
L 536.140634 188.753518 
L 538.591643 190.563494 
L 541.042651 199.970871 
L 543.49366 204.683344 
L 545.944669 196.25341 
L 548.395677 202.732796 
L 550.846686 211.284876 
L 553.297695 215.531095 
L 555.748703 213.532226 
L 558.199712 216.039638 
L 560.65072 220.427526 
L 563.101729 224.363869 
L 565.552738 220.919124 
L 568.003746 220.102828 
L 570.454755 221.61498 
L 572.905764 224.833519 
L 575.356772 231.838304 
L 577.807781 230.641831 
L 580.25879 239.061584 
L 582.709798 229.057812 
L 585.160807 225.173036 
L 587.611816 218.520897 
L 590.062824 218.512889 
L 592.513833 204.314459 
L 594.964841 210.092561 
L 597.41585 201.999889 
L 599.866859 197.42888 
L 602.317867 187.953462 
L 604.768876 190.237023 
L 607.219885 186.668291 
L 609.670893 184.060706 
L 612.121902 174.997669 
L 614.572911 173.04466 
L 617.023919 173.258178 
L 619.474928 164.150885 
L 621.925937 166.456483 
L 624.376945 156.520224 
L 626.827954 151.137014 
L 629.278963 147.306853 
L 631.729971 147.832316 
L 634.18098 135.186741 
L 636.631988 125.046219 
L 639.082997 119.954559 
L 641.534006 111.484517 
L 643.985014 99.361421 
L 646.436023 92.628896 
L 648.887032 95.886636 
L 651.33804 95.637576 
L 653.789049 90.546706 
L 656.240058 78.430332 
L 658.691066 79.714227 
L 661.142075 73.858446 
L 663.593084 70.360536 
L 666.044092 74.02116 
L 668.495101 67.156364 
L 670.94611 72.318672 
L 673.397118 74.648837 
L 675.848127 74.213644 
L 678.299135 70.283427 
L 680.750144 69.04517 
L 683.201153 75.498014 
L 685.652161 71.972588 
L 688.10317 75.855391 
L 690.554179 77.538521 
L 693.005187 77.993411 
L 695.456196 72.66524 
L 697.907205 70.179506 
L 700.358213 71.458907 
L 702.809222 75.968468 
L 705.260231 79.707285 
L 707.711239 74.436677 
L 712.613256 72.508736 
L 715.064265 77.647034 
L 717.515274 84.282707 
L 719.966282 87.837481 
L 722.417291 82.112857 
L 724.8683 78.52283 
L 727.319308 86.554634 
L 729.770317 84.344431 
L 732.221326 82.637416 
L 734.672334 89.277204 
L 737.123343 97.94747 
L 739.574352 90.763748 
L 742.02536 91.08501 
L 744.476369 99.729191 
L 746.927378 95.436817 
L 749.378386 92.807082 
L 751.829395 98.955825 
L 754.280403 106.750722 
L 756.731412 104.866557 
L 759.182421 105.232435 
L 761.633429 105.47615 
L 764.084438 109.744984 
L 766.535447 109.555456 
L 768.986455 114.790691 
L 771.437464 130.336994 
L 773.888473 120.956198 
L 776.339481 119.253157 
L 778.79049 126.070844 
L 781.241499 118.619961 
L 783.692507 123.270809 
L 786.143516 126.532365 
L 788.594524 129.479358 
L 791.045533 132.934178 
L 793.496542 131.036034 
L 795.94755 130.43495 
L 798.398559 137.141529 
L 800.849568 135.174996 
L 803.300576 137.258726 
L 805.751585 149.089294 
L 808.202594 151.046334 
L 810.653602 165.051148 
L 813.104611 171.17615 
L 815.55562 175.605896 
L 818.006628 179.008168 
L 820.457637 185.970884 
L 822.908646 196.66462 
L 825.359654 206.483092 
L 827.810663 212.764508 
L 830.261671 208.501254 
L 832.71268 202.433166 
L 835.163689 199.646429 
L 837.614697 201.375828 
L 840.065706 200.786211 
L 842.516715 194.157168 
L 844.967723 200.088491 
L 847.418732 202.103234 
L 849.869741 199.980065 
L 852.320749 196.208781 
L 854.771758 189.751694 
L 857.222767 188.181653 
L 859.673775 190.633424 
L 862.124784 198.001508 
L 864.575793 201.937906 
L 867.026801 199.282996 
L 869.47781 197.456599 
L 871.928818 192.78385 
L 874.379827 197.804285 
L 876.830836 205.180253 
L 879.281844 204.507513 
L 881.732853 203.678904 
L 884.183862 209.401085 
L 886.63487 212.778204 
L 889.085879 227.868059 
L 891.536888 228.977645 
L 893.987896 230.594625 
L 896.438905 236.371241 
L 898.889914 225.829464 
L 901.340922 224.890941 
L 903.791931 230.731631 
L 906.242939 229.314424 
L 908.693948 217.056861 
L 911.144957 214.946747 
L 913.595965 229.448112 
L 916.046974 226.470203 
L 918.497983 223.94319 
L 920.948991 229.665705 
L 920.948991 229.665705 
" style="fill:none;stroke:#000080;stroke-dasharray:11.1,4.8;stroke-dashoffset:0;stroke-width:3;"/>
   </g>
   <g id="line2d_51">
    <path clip-path="url(#p9d666baa0a)" d="M 77.802017 216.957104 
L 80.253026 219.458866 
L 82.704035 226.419409 
L 85.155043 234.856565 
L 87.606052 234.803688 
L 90.057061 237.647929 
L 92.508069 241.483872 
L 94.959078 247.941956 
L 97.410086 246.158666 
L 99.861095 249.446702 
L 102.312104 256.194598 
L 107.214121 266.665352 
L 109.66513 267.781217 
L 112.116138 276.941307 
L 114.567147 277.662949 
L 117.018156 289.719565 
L 119.469164 292.702266 
L 121.920173 290.509973 
L 124.371182 290.744065 
L 126.82219 302.437393 
L 129.273199 311.056825 
L 131.724207 305.666485 
L 134.175216 312.271018 
L 136.626225 311.97495 
L 139.077233 313.223479 
L 141.528242 310.066375 
L 143.979251 311.034515 
L 146.430259 307.153703 
L 148.881268 314.079009 
L 153.783285 321.620022 
L 156.234294 316.961061 
L 158.685303 312.675127 
L 161.136311 319.105309 
L 163.58732 318.106869 
L 166.038329 320.329324 
L 168.489337 319.100645 
L 170.940346 311.419653 
L 173.391354 321.327821 
L 175.842363 327.931177 
L 178.293372 322.007022 
L 180.74438 320.171747 
L 183.195389 314.262355 
L 185.646398 314.375926 
L 188.097406 307.361774 
L 190.548415 296.125043 
L 192.999424 283.724584 
L 195.450432 281.169018 
L 200.35245 273.436247 
L 202.803458 274.23064 
L 205.254467 274.27183 
L 207.705476 262.490377 
L 210.156484 267.933804 
L 212.607493 269.962192 
L 215.058501 266.161239 
L 217.50951 268.055624 
L 219.960519 267.86622 
L 222.411527 272.480884 
L 224.862536 275.011186 
L 227.313545 263.53395 
L 229.764553 273.991669 
L 232.215562 273.143498 
L 234.666571 261.660987 
L 237.117579 267.488876 
L 239.568588 265.188226 
L 242.019597 257.789574 
L 244.470605 261.654462 
L 246.921614 275.262309 
L 249.372622 280.053224 
L 251.823631 279.317975 
L 254.27464 279.683711 
L 256.725648 283.225642 
L 259.176657 282.520518 
L 261.627666 285.977214 
L 264.078674 279.205615 
L 266.529683 277.733427 
L 268.980692 277.871235 
L 271.4317 278.834723 
L 273.882709 279.390031 
L 276.333718 288.295216 
L 278.784726 289.451974 
L 281.235735 294.919605 
L 283.686744 287.957332 
L 286.137752 286.172746 
L 288.588761 286.504125 
L 291.039769 289.27932 
L 293.490778 289.275803 
L 295.941787 290.079019 
L 298.392795 294.206173 
L 300.843804 303.991298 
L 303.294813 299.786988 
L 305.745821 286.478826 
L 308.19683 291.193035 
L 310.647839 292.38898 
L 313.098847 287.464273 
L 315.549856 290.157073 
L 318.000865 292.212442 
L 320.451873 293.972991 
L 322.902882 296.77305 
L 327.804899 271.402323 
L 330.255908 265.329246 
L 332.706916 263.687946 
L 335.157925 253.878372 
L 337.608934 246.573324 
L 340.059942 244.243391 
L 342.510951 245.33361 
L 344.96196 238.838614 
L 347.412968 241.800774 
L 349.863977 235.177754 
L 352.314986 231.379869 
L 354.765994 233.956794 
L 357.217003 234.716781 
L 359.668012 236.544142 
L 362.11902 235.619636 
L 364.570029 240.41162 
L 367.021037 244.550691 
L 369.472046 247.581429 
L 371.923055 244.947947 
L 374.374063 245.528906 
L 376.825072 255.313414 
L 379.276081 255.419436 
L 381.727089 266.131099 
L 384.178098 270.298285 
L 386.629107 265.715731 
L 389.080115 263.60813 
L 391.531124 259.223148 
L 393.982133 257.322433 
L 396.433141 248.840686 
L 398.88415 245.581448 
L 401.335159 241.254825 
L 403.786167 245.68425 
L 406.237176 243.942015 
L 408.688184 244.137211 
L 411.139193 238.588153 
L 413.590202 235.478651 
L 416.04121 225.271414 
L 418.492219 226.202488 
L 420.943228 226.848209 
L 423.394236 229.776247 
L 425.845245 238.1986 
L 428.296254 230.66924 
L 430.747262 236.620868 
L 433.198271 235.205032 
L 435.64928 235.578102 
L 438.100288 230.430598 
L 440.551297 232.298555 
L 443.002305 233.79822 
L 445.453314 239.094147 
L 447.904323 239.581902 
L 450.355331 242.241156 
L 452.80634 245.792963 
L 455.257349 237.604914 
L 457.708357 244.29768 
L 460.159366 242.90133 
L 462.610375 247.08157 
L 465.061383 253.788968 
L 467.512392 245.32122 
L 469.963401 254.484771 
L 472.414409 256.692548 
L 474.865418 260.861227 
L 477.316427 253.124107 
L 479.767435 252.269918 
L 482.218444 257.371488 
L 484.669452 256.206412 
L 487.120461 254.196883 
L 489.57147 251.567719 
L 492.022478 259.104263 
L 494.473487 257.771548 
L 496.924496 260.972393 
L 499.375504 259.355751 
L 501.826513 261.249055 
L 504.277522 264.771443 
L 506.72853 261.413404 
L 509.179539 262.373911 
L 511.630548 262.898331 
L 514.081556 266.541135 
L 516.532565 267.560826 
L 518.983573 268.204142 
L 521.434582 261.145868 
L 523.885591 257.75892 
L 526.336599 263.968236 
L 528.787608 256.36695 
L 531.238617 255.627043 
L 533.689625 248.231094 
L 536.140634 246.434734 
L 538.591643 250.063011 
L 541.042651 246.888577 
L 543.49366 247.262209 
L 545.944669 251.958291 
L 548.395677 250.223621 
L 550.846686 241.879179 
L 553.297695 236.483086 
L 555.748703 229.934708 
L 558.199712 222.897441 
L 560.65072 224.118526 
L 563.101729 232.465384 
L 565.552738 228.553518 
L 568.003746 227.608296 
L 570.454755 226.974544 
L 572.905764 224.833519 
L 575.356772 223.09043 
L 577.807781 223.335334 
L 580.25879 240.416145 
L 582.709798 241.858363 
L 585.160807 238.892457 
L 587.611816 243.257156 
L 590.062824 248.284508 
L 592.513833 250.784665 
L 594.964841 255.576302 
L 597.41585 255.302315 
L 604.768876 268.657998 
L 607.219885 263.698849 
L 609.670893 269.426469 
L 612.121902 268.789884 
L 614.572911 271.541961 
L 617.023919 274.881082 
L 619.474928 271.929085 
L 621.925937 277.426085 
L 624.376945 278.919577 
L 626.827954 286.21829 
L 629.278963 284.134753 
L 631.729971 284.015161 
L 634.18098 282.627118 
L 636.631988 290.585657 
L 639.082997 291.823393 
L 641.534006 294.055939 
L 643.985014 296.524496 
L 646.436023 302.300432 
L 648.887032 303.554002 
L 651.33804 311.220691 
L 653.789049 314.850808 
L 656.240058 317.206996 
L 658.691066 324.952209 
L 661.142075 316.178894 
L 663.593084 314.664853 
L 666.044092 312.008973 
L 668.495101 311.09718 
L 670.94611 308.958977 
L 673.397118 318.269891 
L 675.848127 321.179117 
L 678.299135 317.759882 
L 680.750144 318.293369 
L 683.201153 314.102618 
L 685.652161 307.886068 
L 688.10317 315.252043 
L 690.554179 316.232109 
L 693.005187 321.199158 
L 695.456196 319.170824 
L 697.907205 321.807454 
L 700.358213 326.118232 
L 702.809222 327.464284 
L 705.260231 323.289505 
L 707.711239 324.047461 
L 710.162248 316.83634 
L 712.613256 323.229342 
L 715.064265 322.940251 
L 717.515274 324.994001 
L 719.966282 330.302493 
L 722.417291 329.586237 
L 724.8683 334.997806 
L 727.319308 336.501505 
L 729.770317 336.209831 
L 732.221326 337.029434 
L 734.672334 337.407051 
L 737.123343 330.588701 
L 739.574352 336.071159 
L 742.02536 334.210473 
L 744.476369 331.186771 
L 746.927378 330.741016 
L 749.378386 344.661939 
L 751.829395 345.373783 
L 754.280403 344.440326 
L 756.731412 343.925525 
L 759.182421 346.60526 
L 761.633429 343.872245 
L 764.084438 346.548422 
L 766.535447 347.871986 
L 768.986455 353.626432 
L 771.437464 355.789704 
L 773.888473 360.170757 
L 776.339481 360.733102 
L 778.79049 354.701655 
L 781.241499 354.484099 
L 783.692507 352.692448 
L 786.143516 365.088708 
L 788.594524 362.617514 
L 791.045533 368.173967 
L 795.94755 373.483636 
L 798.398559 371.538435 
L 800.849568 362.588157 
L 803.300576 365.031375 
L 805.751585 370.843914 
L 808.202594 365.228308 
L 813.104611 360.546475 
L 815.55562 355.074911 
L 818.006628 346.467927 
L 820.457637 343.150854 
L 822.908646 341.643351 
L 825.359654 330.549728 
L 827.810663 339.576082 
L 830.261671 336.801263 
L 832.71268 335.74857 
L 835.163689 337.844668 
L 837.614697 337.223401 
L 840.065706 339.438762 
L 842.516715 338.46589 
L 844.967723 345.194716 
L 847.418732 351.00505 
L 849.869741 356.147333 
L 852.320749 356.214483 
L 854.771758 359.643736 
L 857.222767 360.471898 
L 859.673775 362.556709 
L 862.124784 360.979593 
L 864.575793 356.167602 
L 867.026801 355.526268 
L 869.47781 351.910402 
L 871.928818 349.012661 
L 874.379827 353.067137 
L 876.830836 354.89638 
L 879.281844 348.455252 
L 881.732853 342.592459 
L 884.183862 342.574833 
L 886.63487 337.229973 
L 889.085879 340.606464 
L 891.536888 337.062945 
L 893.987896 340.796173 
L 896.438905 344.052917 
L 898.889914 340.609268 
L 901.340922 346.072163 
L 903.791931 350.4914 
L 906.242939 354.651431 
L 908.693948 346.326076 
L 911.144957 344.654875 
L 913.595965 346.013736 
L 916.046974 347.063937 
L 918.497983 338.401855 
L 920.948991 337.575624 
L 920.948991 337.575624 
" style="fill:none;stroke:#ffa500;stroke-dasharray:3,4.95;stroke-dashoffset:0;stroke-width:3;"/>
   </g>
   <g id="line2d_52">
    <path clip-path="url(#p9d666baa0a)" d="M 77.802017 239.701825 
L 80.253026 239.309801 
L 85.155043 240.320737 
L 87.606052 239.904735 
L 90.057061 241.212939 
L 92.508069 242.06833 
L 94.959078 243.264677 
L 97.410086 244.232403 
L 99.861095 245.909337 
L 102.312104 247.158462 
L 104.763112 248.973128 
L 107.214121 250.315544 
L 109.66513 252.514001 
L 112.116138 253.296388 
L 114.567147 256.001177 
L 117.018156 257.231817 
L 119.469164 258.649558 
L 121.920173 260.712426 
L 129.273199 263.698106 
L 131.724207 265.819866 
L 134.175216 266.005431 
L 136.626225 268.159499 
L 141.528242 270.952339 
L 143.979251 272.642081 
L 146.430259 274.675682 
L 148.881268 276.333565 
L 153.783285 279.332575 
L 156.234294 279.842222 
L 158.685303 279.593403 
L 161.136311 280.44705 
L 163.58732 281.166968 
L 166.038329 281.632259 
L 168.489337 281.475406 
L 170.940346 281.93901 
L 178.293372 281.693229 
L 180.74438 281.203991 
L 185.646398 280.814631 
L 188.097406 280.395306 
L 190.548415 278.831081 
L 192.999424 276.710982 
L 195.450432 274.100871 
L 197.901441 273.546774 
L 200.35245 272.527741 
L 202.803458 270.667937 
L 205.254467 269.610167 
L 207.705476 267.586933 
L 210.156484 266.18931 
L 212.607493 264.143996 
L 215.058501 261.386143 
L 217.50951 259.92953 
L 219.960519 258.103879 
L 222.411527 257.032234 
L 224.862536 255.317678 
L 229.764553 253.979181 
L 232.215562 252.540184 
L 234.666571 252.195736 
L 237.117579 251.299266 
L 239.568588 249.512859 
L 244.470605 249.48855 
L 246.921614 248.427108 
L 249.372622 248.441899 
L 251.823631 249.545916 
L 254.27464 249.454625 
L 259.176657 246.429355 
L 261.627666 246.110366 
L 266.529683 246.104085 
L 271.4317 243.355235 
L 273.882709 242.486857 
L 276.333718 241.852251 
L 278.784726 241.835514 
L 281.235735 240.433118 
L 283.686744 239.88703 
L 286.137752 238.542249 
L 291.039769 237.330881 
L 293.490778 235.961023 
L 295.941787 233.950823 
L 298.392795 233.252146 
L 300.843804 232.909319 
L 305.745821 232.702117 
L 308.19683 231.925662 
L 310.647839 231.840591 
L 313.098847 232.001701 
L 315.549856 232.012938 
L 318.000865 230.579958 
L 322.902882 228.269437 
L 325.35389 227.585778 
L 327.804899 227.088179 
L 330.255908 225.73828 
L 332.706916 225.193809 
L 335.157925 224.208309 
L 337.608934 222.660576 
L 340.059942 221.481088 
L 342.510951 219.949661 
L 344.96196 218.953233 
L 347.412968 218.74375 
L 349.863977 218.250117 
L 352.314986 217.932891 
L 354.765994 217.778907 
L 359.668012 215.60921 
L 362.11902 214.218194 
L 364.570029 212.564625 
L 367.021037 211.31702 
L 369.472046 209.686031 
L 371.923055 209.714788 
L 374.374063 210.033598 
L 376.825072 208.024889 
L 379.276081 207.985515 
L 381.727089 207.76267 
L 384.178098 206.938839 
L 386.629107 207.63424 
L 389.080115 206.972616 
L 391.531124 205.543825 
L 393.982133 204.529333 
L 396.433141 202.785206 
L 398.88415 202.113215 
L 401.335159 202.145697 
L 403.786167 202.293695 
L 406.237176 203.531888 
L 408.688184 203.689316 
L 413.590202 205.463465 
L 416.04121 208.220024 
L 418.492219 210.446503 
L 420.943228 212.863202 
L 423.394236 215.030626 
L 428.296254 221.684594 
L 433.198271 227.013531 
L 435.64928 230.220966 
L 438.100288 233.038905 
L 440.551297 234.957376 
L 443.002305 237.552688 
L 447.904323 239.991453 
L 450.355331 241.247022 
L 452.80634 242.915287 
L 455.257349 244.734129 
L 457.708357 245.335672 
L 460.159366 247.110507 
L 462.610375 248.54445 
L 465.061383 249.281551 
L 467.512392 250.698695 
L 469.963401 251.614624 
L 472.414409 252.031982 
L 474.865418 253.2796 
L 477.316427 255.171993 
L 479.767435 255.178126 
L 482.218444 255.521804 
L 484.669452 255.990533 
L 487.120461 255.898837 
L 489.57147 255.270631 
L 492.022478 255.472278 
L 494.473487 254.835164 
L 496.924496 253.341801 
L 499.375504 253.256021 
L 504.277522 251.980388 
L 506.72853 250.795541 
L 509.179539 249.770846 
L 511.630548 248.228852 
L 514.081556 246.550243 
L 516.532565 246.22887 
L 518.983573 246.339002 
L 521.434582 245.774791 
L 523.885591 244.566375 
L 526.336599 244.176345 
L 528.787608 243.630035 
L 531.238617 243.652251 
L 533.689625 242.368721 
L 536.140634 241.80534 
L 538.591643 241.521218 
L 541.042651 240.209818 
L 548.395677 236.887959 
L 550.846686 236.14078 
L 553.297695 235.095033 
L 555.748703 233.139512 
L 558.199712 231.353417 
L 560.65072 229.934341 
L 563.101729 228.80969 
L 565.552738 228.2495 
L 568.003746 226.772642 
L 570.454755 225.474461 
L 572.905764 224.833519 
L 575.356772 224.612685 
L 580.25879 221.771737 
L 582.709798 221.291762 
L 585.160807 220.205063 
L 587.611816 220.208036 
L 590.062824 221.068566 
L 594.964841 221.896035 
L 597.41585 222.659237 
L 602.317867 223.723029 
L 604.768876 224.368671 
L 607.219885 225.521583 
L 609.670893 226.421665 
L 612.121902 226.899869 
L 617.023919 230.80696 
L 619.474928 232.148783 
L 621.925937 235.617995 
L 624.376945 237.061096 
L 626.827954 239.603433 
L 629.278963 243.597792 
L 631.729971 248.829933 
L 634.18098 254.807805 
L 636.631988 260.461974 
L 639.082997 266.852986 
L 641.534006 272.807478 
L 643.985014 279.89826 
L 646.436023 285.833629 
L 648.887032 290.819612 
L 656.240058 307.117947 
L 658.691066 311.403082 
L 661.142075 315.968654 
L 668.495101 324.119376 
L 670.94611 325.968263 
L 673.397118 327.406333 
L 675.848127 327.998497 
L 680.750144 331.66223 
L 683.201153 333.889947 
L 685.652161 335.432026 
L 688.10317 337.521003 
L 693.005187 338.957665 
L 695.456196 339.881838 
L 697.907205 339.545855 
L 702.809222 341.338819 
L 705.260231 341.71077 
L 710.162248 341.235813 
L 712.613256 342.143229 
L 715.064265 341.985972 
L 717.515274 341.669817 
L 722.417291 340.089403 
L 724.8683 338.913528 
L 729.770317 337.03226 
L 734.672334 334.461592 
L 739.574352 333.535072 
L 742.02536 332.518107 
L 744.476369 331.184291 
L 746.927378 329.514701 
L 749.378386 329.891917 
L 751.829395 329.402948 
L 754.280403 327.731777 
L 756.731412 326.492037 
L 759.182421 324.334512 
L 761.633429 321.779271 
L 764.084438 320.131302 
L 766.535447 317.328674 
L 768.986455 314.280221 
L 771.437464 311.985287 
L 773.888473 312.190847 
L 776.339481 310.690547 
L 778.79049 308.351118 
L 781.241499 305.547495 
L 783.692507 301.958228 
L 786.143516 299.738848 
L 788.594524 296.600752 
L 791.045533 294.357218 
L 793.496542 292.30051 
L 795.94755 291.578183 
L 798.398559 290.49032 
L 800.849568 289.005215 
L 803.300576 286.065095 
L 810.653602 278.24446 
L 813.104611 276.374148 
L 815.55562 274.901917 
L 818.006628 273.047381 
L 820.457637 271.40152 
L 822.908646 269.187156 
L 825.359654 268.084659 
L 827.810663 265.894009 
L 830.261671 263.878818 
L 832.71268 261.584015 
L 835.163689 258.625116 
L 837.614697 256.712637 
L 840.065706 255.269134 
L 847.418732 251.902895 
L 852.320749 250.235737 
L 854.771758 248.310726 
L 857.222767 246.628744 
L 859.673775 244.689251 
L 862.124784 242.976325 
L 864.575793 241.965351 
L 867.026801 240.714114 
L 869.47781 239.618899 
L 871.928818 238.252542 
L 874.379827 236.213643 
L 876.830836 235.090183 
L 879.281844 233.290712 
L 881.732853 231.956593 
L 884.183862 230.164832 
L 886.63487 229.214945 
L 889.085879 228.049355 
L 891.536888 225.775766 
L 896.438905 223.011586 
L 901.340922 221.420579 
L 903.791931 220.468006 
L 906.242939 219.230698 
L 908.693948 217.444473 
L 911.144957 215.960383 
L 913.595965 215.117069 
L 918.497983 213.06377 
L 920.948991 211.656588 
L 920.948991 211.656588 
" style="fill:none;stroke:#800000;stroke-dasharray:19.2,4.8,3,4.8;stroke-dashoffset:0;stroke-width:3;"/>
   </g>
   <g id="line2d_53">
    <path clip-path="url(#p9d666baa0a)" d="M 72.9 224.833519 
L 923.4 224.833519 
" style="fill:none;stroke:#000000;stroke-linecap:square;stroke-width:2;"/>
   </g>
   <g id="patch_3">
    <path d="M 72.9 388.8 
L 923.4 388.8 
" style="fill:none;stroke:#000000;stroke-linecap:square;stroke-linejoin:miter;stroke-width:0.8;"/>
   </g>
   <g id="text_14">
    <!-- Monthly observations; seasonally adjusted; Percentage point change since January 2007; Women -->
    <defs>
     <path d="M 9.8125 72.90625 
L 24.515625 72.90625 
L 43.109375 23.296875 
L 61.8125 72.90625 
L 76.515625 72.90625 
L 76.515625 0 
L 66.890625 0 
L 66.890625 64.015625 
L 48.09375 14.015625 
L 38.1875 14.015625 
L 19.390625 64.015625 
L 19.390625 0 
L 9.8125 0 
z
" id="DejaVuSans-4d"/>
     <path d="M 54.890625 33.015625 
L 54.890625 0 
L 45.90625 0 
L 45.90625 32.71875 
Q 45.90625 40.484375 42.875 44.328125 
Q 39.84375 48.1875 33.796875 48.1875 
Q 26.515625 48.1875 22.3125 43.546875 
Q 18.109375 38.921875 18.109375 30.90625 
L 18.109375 0 
L 9.078125 0 
L 9.078125 75.984375 
L 18.109375 75.984375 
L 18.109375 46.1875 
Q 21.34375 51.125 25.703125 53.5625 
Q 30.078125 56 35.796875 56 
Q 45.21875 56 50.046875 50.171875 
Q 54.890625 44.34375 54.890625 33.015625 
z
" id="DejaVuSans-68"/>
     <path d="M 9.421875 75.984375 
L 18.40625 75.984375 
L 18.40625 0 
L 9.421875 0 
z
" id="DejaVuSans-6c"/>
     <path d="M 32.171875 -5.078125 
Q 28.375 -14.84375 24.75 -17.8125 
Q 21.140625 -20.796875 15.09375 -20.796875 
L 7.90625 -20.796875 
L 7.90625 -13.28125 
L 13.1875 -13.28125 
Q 16.890625 -13.28125 18.9375 -11.515625 
Q 21 -9.765625 23.484375 -3.21875 
L 25.09375 0.875 
L 2.984375 54.6875 
L 12.5 54.6875 
L 29.59375 11.921875 
L 46.6875 54.6875 
L 56.203125 54.6875 
z
" id="DejaVuSans-79"/>
     <path d="M 48.6875 27.296875 
Q 48.6875 37.203125 44.609375 42.84375 
Q 40.53125 48.484375 33.40625 48.484375 
Q 26.265625 48.484375 22.1875 42.84375 
Q 18.109375 37.203125 18.109375 27.296875 
Q 18.109375 17.390625 22.1875 11.75 
Q 26.265625 6.109375 33.40625 6.109375 
Q 40.53125 6.109375 44.609375 11.75 
Q 48.6875 17.390625 48.6875 27.296875 
z
M 18.109375 46.390625 
Q 20.953125 51.265625 25.265625 53.625 
Q 29.59375 56 35.59375 56 
Q 45.5625 56 51.78125 48.09375 
Q 58.015625 40.1875 58.015625 27.296875 
Q 58.015625 14.40625 51.78125 6.484375 
Q 45.5625 -1.421875 35.59375 -1.421875 
Q 29.59375 -1.421875 25.265625 0.953125 
Q 20.953125 3.328125 18.109375 8.203125 
L 18.109375 0 
L 9.078125 0 
L 9.078125 75.984375 
L 18.109375 75.984375 
z
" id="DejaVuSans-62"/>
     <path d="M 44.28125 53.078125 
L 44.28125 44.578125 
Q 40.484375 46.53125 36.375 47.5 
Q 32.28125 48.484375 27.875 48.484375 
Q 21.1875 48.484375 17.84375 46.4375 
Q 14.5 44.390625 14.5 40.28125 
Q 14.5 37.15625 16.890625 35.375 
Q 19.28125 33.59375 26.515625 31.984375 
L 29.59375 31.296875 
Q 39.15625 29.25 43.1875 25.515625 
Q 47.21875 21.78125 47.21875 15.09375 
Q 47.21875 7.46875 41.1875 3.015625 
Q 35.15625 -1.421875 24.609375 -1.421875 
Q 20.21875 -1.421875 15.453125 -0.5625 
Q 10.6875 0.296875 5.421875 2 
L 5.421875 11.28125 
Q 10.40625 8.6875 15.234375 7.390625 
Q 20.0625 6.109375 24.8125 6.109375 
Q 31.15625 6.109375 34.5625 8.28125 
Q 37.984375 10.453125 37.984375 14.40625 
Q 37.984375 18.0625 35.515625 20.015625 
Q 33.0625 21.96875 24.703125 23.78125 
L 21.578125 24.515625 
Q 13.234375 26.265625 9.515625 29.90625 
Q 5.8125 33.546875 5.8125 39.890625 
Q 5.8125 47.609375 11.28125 51.796875 
Q 16.75 56 26.8125 56 
Q 31.78125 56 36.171875 55.265625 
Q 40.578125 54.546875 44.28125 53.078125 
z
" id="DejaVuSans-73"/>
     <path d="M 2.984375 54.6875 
L 12.5 54.6875 
L 29.59375 8.796875 
L 46.6875 54.6875 
L 56.203125 54.6875 
L 35.6875 0 
L 23.484375 0 
z
" id="DejaVuSans-76"/>
     <path d="M 11.71875 51.703125 
L 22.015625 51.703125 
L 22.015625 39.3125 
L 11.71875 39.3125 
z
M 11.71875 12.40625 
L 22.015625 12.40625 
L 22.015625 4 
L 14.015625 -11.625 
L 7.71875 -11.625 
L 11.71875 4 
z
" id="DejaVuSans-3b"/>
     <path d="M 45.40625 46.390625 
L 45.40625 75.984375 
L 54.390625 75.984375 
L 54.390625 0 
L 45.40625 0 
L 45.40625 8.203125 
Q 42.578125 3.328125 38.25 0.953125 
Q 33.9375 -1.421875 27.875 -1.421875 
Q 17.96875 -1.421875 11.734375 6.484375 
Q 5.515625 14.40625 5.515625 27.296875 
Q 5.515625 40.1875 11.734375 48.09375 
Q 17.96875 56 27.875 56 
Q 33.9375 56 38.25 53.625 
Q 42.578125 51.265625 45.40625 46.390625 
z
M 14.796875 27.296875 
Q 14.796875 17.390625 18.875 11.75 
Q 22.953125 6.109375 30.078125 6.109375 
Q 37.203125 6.109375 41.296875 11.75 
Q 45.40625 17.390625 45.40625 27.296875 
Q 45.40625 37.203125 41.296875 42.84375 
Q 37.203125 48.484375 30.078125 48.484375 
Q 22.953125 48.484375 18.875 42.84375 
Q 14.796875 37.203125 14.796875 27.296875 
z
" id="DejaVuSans-64"/>
     <path d="M 9.421875 54.6875 
L 18.40625 54.6875 
L 18.40625 -0.984375 
Q 18.40625 -11.421875 14.421875 -16.109375 
Q 10.453125 -20.796875 1.609375 -20.796875 
L -1.8125 -20.796875 
L -1.8125 -13.1875 
L 0.59375 -13.1875 
Q 5.71875 -13.1875 7.5625 -10.8125 
Q 9.421875 -8.453125 9.421875 -0.984375 
z
M 9.421875 75.984375 
L 18.40625 75.984375 
L 18.40625 64.59375 
L 9.421875 64.59375 
z
" id="DejaVuSans-6a"/>
     <path d="M 8.5 21.578125 
L 8.5 54.6875 
L 17.484375 54.6875 
L 17.484375 21.921875 
Q 17.484375 14.15625 20.5 10.265625 
Q 23.53125 6.390625 29.59375 6.390625 
Q 36.859375 6.390625 41.078125 11.03125 
Q 45.3125 15.671875 45.3125 23.6875 
L 45.3125 54.6875 
L 54.296875 54.6875 
L 54.296875 0 
L 45.3125 0 
L 45.3125 8.40625 
Q 42.046875 3.421875 37.71875 1 
Q 33.40625 -1.421875 27.6875 -1.421875 
Q 18.265625 -1.421875 13.375 4.4375 
Q 8.5 10.296875 8.5 21.578125 
z
M 31.109375 56 
z
" id="DejaVuSans-75"/>
     <path d="M 9.8125 72.90625 
L 19.671875 72.90625 
L 19.671875 5.078125 
Q 19.671875 -8.109375 14.671875 -14.0625 
Q 9.671875 -20.015625 -1.421875 -20.015625 
L -5.171875 -20.015625 
L -5.171875 -11.71875 
L -2.09375 -11.71875 
Q 4.4375 -11.71875 7.125 -8.046875 
Q 9.8125 -4.390625 9.8125 5.078125 
z
" id="DejaVuSans-4a"/>
     <path d="M 8.203125 72.90625 
L 55.078125 72.90625 
L 55.078125 68.703125 
L 28.609375 0 
L 18.3125 0 
L 43.21875 64.59375 
L 8.203125 64.59375 
z
" id="DejaVuSans-37"/>
     <path d="M 3.328125 72.90625 
L 13.28125 72.90625 
L 28.609375 11.28125 
L 43.890625 72.90625 
L 54.984375 72.90625 
L 70.3125 11.28125 
L 85.59375 72.90625 
L 95.609375 72.90625 
L 77.296875 0 
L 64.890625 0 
L 49.515625 63.28125 
L 33.984375 0 
L 21.578125 0 
z
" id="DejaVuSans-57"/>
     <path d="M 52 44.1875 
Q 55.375 50.25 60.0625 53.125 
Q 64.75 56 71.09375 56 
Q 79.640625 56 84.28125 50.015625 
Q 88.921875 44.046875 88.921875 33.015625 
L 88.921875 0 
L 79.890625 0 
L 79.890625 32.71875 
Q 79.890625 40.578125 77.09375 44.375 
Q 74.3125 48.1875 68.609375 48.1875 
Q 61.625 48.1875 57.5625 43.546875 
Q 53.515625 38.921875 53.515625 30.90625 
L 53.515625 0 
L 44.484375 0 
L 44.484375 32.71875 
Q 44.484375 40.625 41.703125 44.40625 
Q 38.921875 48.1875 33.109375 48.1875 
Q 26.21875 48.1875 22.15625 43.53125 
Q 18.109375 38.875 18.109375 30.90625 
L 18.109375 0 
L 9.078125 0 
L 9.078125 54.6875 
L 18.109375 54.6875 
L 18.109375 46.1875 
Q 21.1875 51.21875 25.484375 53.609375 
Q 29.78125 56 35.6875 56 
Q 41.65625 56 45.828125 52.96875 
Q 50 49.953125 52 44.1875 
z
" id="DejaVuSans-6d"/>
    </defs>
    <g transform="translate(72.9 45.84)scale(0.14 -0.14)">
     <use xlink:href="#DejaVuSans-4d"/>
     <use x="86.279297" xlink:href="#DejaVuSans-6f"/>
     <use x="147.460938" xlink:href="#DejaVuSans-6e"/>
     <use x="210.839844" xlink:href="#DejaVuSans-74"/>
     <use x="250.048828" xlink:href="#DejaVuSans-68"/>
     <use x="313.427734" xlink:href="#DejaVuSans-6c"/>
     <use x="341.210938" xlink:href="#DejaVuSans-79"/>
     <use x="400.390625" xlink:href="#DejaVuSans-20"/>
     <use x="432.177734" xlink:href="#DejaVuSans-6f"/>
     <use x="493.359375" xlink:href="#DejaVuSans-62"/>
     <use x="556.835938" xlink:href="#DejaVuSans-73"/>
     <use x="608.935547" xlink:href="#DejaVuSans-65"/>
     <use x="670.458984" xlink:href="#DejaVuSans-72"/>
     <use x="711.572266" xlink:href="#DejaVuSans-76"/>
     <use x="770.751953" xlink:href="#DejaVuSans-61"/>
     <use x="832.03125" xlink:href="#DejaVuSans-74"/>
     <use x="871.240234" xlink:href="#DejaVuSans-69"/>
     <use x="899.023438" xlink:href="#DejaVuSans-6f"/>
     <use x="960.205078" xlink:href="#DejaVuSans-6e"/>
     <use x="1023.583984" xlink:href="#DejaVuSans-73"/>
     <use x="1075.683594" xlink:href="#DejaVuSans-3b"/>
     <use x="1109.375" xlink:href="#DejaVuSans-20"/>
     <use x="1141.162109" xlink:href="#DejaVuSans-73"/>
     <use x="1193.261719" xlink:href="#DejaVuSans-65"/>
     <use x="1254.785156" xlink:href="#DejaVuSans-61"/>
     <use x="1316.064453" xlink:href="#DejaVuSans-73"/>
     <use x="1368.164062" xlink:href="#DejaVuSans-6f"/>
     <use x="1429.345703" xlink:href="#DejaVuSans-6e"/>
     <use x="1492.724609" xlink:href="#DejaVuSans-61"/>
     <use x="1554.003906" xlink:href="#DejaVuSans-6c"/>
     <use x="1581.787109" xlink:href="#DejaVuSans-6c"/>
     <use x="1609.570312" xlink:href="#DejaVuSans-79"/>
     <use x="1668.75" xlink:href="#DejaVuSans-20"/>
     <use x="1700.537109" xlink:href="#DejaVuSans-61"/>
     <use x="1761.816406" xlink:href="#DejaVuSans-64"/>
     <use x="1825.292969" xlink:href="#DejaVuSans-6a"/>
     <use x="1853.076172" xlink:href="#DejaVuSans-75"/>
     <use x="1916.455078" xlink:href="#DejaVuSans-73"/>
     <use x="1968.554688" xlink:href="#DejaVuSans-74"/>
     <use x="2007.763672" xlink:href="#DejaVuSans-65"/>
     <use x="2069.287109" xlink:href="#DejaVuSans-64"/>
     <use x="2132.763672" xlink:href="#DejaVuSans-3b"/>
     <use x="2166.455078" xlink:href="#DejaVuSans-20"/>
     <use x="2198.242188" xlink:href="#DejaVuSans-50"/>
     <use x="2258.498047" xlink:href="#DejaVuSans-65"/>
     <use x="2320.021484" xlink:href="#DejaVuSans-72"/>
     <use x="2361.103516" xlink:href="#DejaVuSans-63"/>
     <use x="2416.083984" xlink:href="#DejaVuSans-65"/>
     <use x="2477.607422" xlink:href="#DejaVuSans-6e"/>
     <use x="2540.986328" xlink:href="#DejaVuSans-74"/>
     <use x="2580.195312" xlink:href="#DejaVuSans-61"/>
     <use x="2641.474609" xlink:href="#DejaVuSans-67"/>
     <use x="2704.951172" xlink:href="#DejaVuSans-65"/>
     <use x="2766.474609" xlink:href="#DejaVuSans-20"/>
     <use x="2798.261719" xlink:href="#DejaVuSans-70"/>
     <use x="2861.738281" xlink:href="#DejaVuSans-6f"/>
     <use x="2922.919922" xlink:href="#DejaVuSans-69"/>
     <use x="2950.703125" xlink:href="#DejaVuSans-6e"/>
     <use x="3014.082031" xlink:href="#DejaVuSans-74"/>
     <use x="3053.291016" xlink:href="#DejaVuSans-20"/>
     <use x="3085.078125" xlink:href="#DejaVuSans-63"/>
     <use x="3140.058594" xlink:href="#DejaVuSans-68"/>
     <use x="3203.4375" xlink:href="#DejaVuSans-61"/>
     <use x="3264.716797" xlink:href="#DejaVuSans-6e"/>
     <use x="3328.095703" xlink:href="#DejaVuSans-67"/>
     <use x="3391.572266" xlink:href="#DejaVuSans-65"/>
     <use x="3453.095703" xlink:href="#DejaVuSans-20"/>
     <use x="3484.882812" xlink:href="#DejaVuSans-73"/>
     <use x="3536.982422" xlink:href="#DejaVuSans-69"/>
     <use x="3564.765625" xlink:href="#DejaVuSans-6e"/>
     <use x="3628.144531" xlink:href="#DejaVuSans-63"/>
     <use x="3683.125" xlink:href="#DejaVuSans-65"/>
     <use x="3744.648438" xlink:href="#DejaVuSans-20"/>
     <use x="3776.435547" xlink:href="#DejaVuSans-4a"/>
     <use x="3805.927734" xlink:href="#DejaVuSans-61"/>
     <use x="3867.207031" xlink:href="#DejaVuSans-6e"/>
     <use x="3930.585938" xlink:href="#DejaVuSans-75"/>
     <use x="3993.964844" xlink:href="#DejaVuSans-61"/>
     <use x="4055.244141" xlink:href="#DejaVuSans-72"/>
     <use x="4096.357422" xlink:href="#DejaVuSans-79"/>
     <use x="4155.537109" xlink:href="#DejaVuSans-20"/>
     <use x="4187.324219" xlink:href="#DejaVuSans-32"/>
     <use x="4250.947266" xlink:href="#DejaVuSans-30"/>
     <use x="4314.570312" xlink:href="#DejaVuSans-30"/>
     <use x="4378.193359" xlink:href="#DejaVuSans-37"/>
     <use x="4441.816406" xlink:href="#DejaVuSans-3b"/>
     <use x="4475.507812" xlink:href="#DejaVuSans-20"/>
     <use x="4507.294922" xlink:href="#DejaVuSans-57"/>
     <use x="4606.09375" xlink:href="#DejaVuSans-6f"/>
     <use x="4667.275391" xlink:href="#DejaVuSans-6d"/>
     <use x="4764.6875" xlink:href="#DejaVuSans-65"/>
     <use x="4826.210938" xlink:href="#DejaVuSans-6e"/>
    </g>
   </g>
   <g id="legend_1">
    <g id="patch_4">
     <path d="M 81.3 131.895 
L 213.373125 131.895 
Q 215.773125 131.895 215.773125 129.495 
L 215.773125 60.24 
Q 215.773125 57.84 213.373125 57.84 
L 81.3 57.84 
Q 78.9 57.84 78.9 60.24 
L 78.9 129.495 
Q 78.9 131.895 81.3 131.895 
z
" style="fill:#ffffff;opacity:0.8;stroke:#cccccc;stroke-linejoin:miter;"/>
    </g>
    <g id="line2d_54">
     <path d="M 83.7 67.558125 
L 107.7 67.558125 
" style="fill:none;stroke:#000000;stroke-linecap:square;stroke-width:3;"/>
    </g>
    <g id="line2d_55"/>
    <g id="text_15">
     <!-- Change in LFPR -->
     <defs>
      <path d="M 64.40625 67.28125 
L 64.40625 56.890625 
Q 59.421875 61.53125 53.78125 63.8125 
Q 48.140625 66.109375 41.796875 66.109375 
Q 29.296875 66.109375 22.65625 58.46875 
Q 16.015625 50.828125 16.015625 36.375 
Q 16.015625 21.96875 22.65625 14.328125 
Q 29.296875 6.6875 41.796875 6.6875 
Q 48.140625 6.6875 53.78125 8.984375 
Q 59.421875 11.28125 64.40625 15.921875 
L 64.40625 5.609375 
Q 59.234375 2.09375 53.4375 0.328125 
Q 47.65625 -1.421875 41.21875 -1.421875 
Q 24.65625 -1.421875 15.125 8.703125 
Q 5.609375 18.84375 5.609375 36.375 
Q 5.609375 53.953125 15.125 64.078125 
Q 24.65625 74.21875 41.21875 74.21875 
Q 47.75 74.21875 53.53125 72.484375 
Q 59.328125 70.75 64.40625 67.28125 
z
" id="DejaVuSans-43"/>
      <path d="M 9.8125 72.90625 
L 19.671875 72.90625 
L 19.671875 8.296875 
L 55.171875 8.296875 
L 55.171875 0 
L 9.8125 0 
z
" id="DejaVuSans-4c"/>
      <path d="M 9.8125 72.90625 
L 51.703125 72.90625 
L 51.703125 64.59375 
L 19.671875 64.59375 
L 19.671875 43.109375 
L 48.578125 43.109375 
L 48.578125 34.8125 
L 19.671875 34.8125 
L 19.671875 0 
L 9.8125 0 
z
" id="DejaVuSans-46"/>
      <path d="M 44.390625 34.1875 
Q 47.5625 33.109375 50.5625 29.59375 
Q 53.5625 26.078125 56.59375 19.921875 
L 66.609375 0 
L 56 0 
L 46.6875 18.703125 
Q 43.0625 26.03125 39.671875 28.421875 
Q 36.28125 30.8125 30.421875 30.8125 
L 19.671875 30.8125 
L 19.671875 0 
L 9.8125 0 
L 9.8125 72.90625 
L 32.078125 72.90625 
Q 44.578125 72.90625 50.734375 67.671875 
Q 56.890625 62.453125 56.890625 51.90625 
Q 56.890625 45.015625 53.6875 40.46875 
Q 50.484375 35.9375 44.390625 34.1875 
z
M 19.671875 64.796875 
L 19.671875 38.921875 
L 32.078125 38.921875 
Q 39.203125 38.921875 42.84375 42.21875 
Q 46.484375 45.515625 46.484375 51.90625 
Q 46.484375 58.296875 42.84375 61.546875 
Q 39.203125 64.796875 32.078125 64.796875 
z
" id="DejaVuSans-52"/>
     </defs>
     <g transform="translate(117.3 71.758125)scale(0.12 -0.12)">
      <use xlink:href="#DejaVuSans-43"/>
      <use x="69.824219" xlink:href="#DejaVuSans-68"/>
      <use x="133.203125" xlink:href="#DejaVuSans-61"/>
      <use x="194.482422" xlink:href="#DejaVuSans-6e"/>
      <use x="257.861328" xlink:href="#DejaVuSans-67"/>
      <use x="321.337891" xlink:href="#DejaVuSans-65"/>
      <use x="382.861328" xlink:href="#DejaVuSans-20"/>
      <use x="414.648438" xlink:href="#DejaVuSans-69"/>
      <use x="442.431641" xlink:href="#DejaVuSans-6e"/>
      <use x="505.810547" xlink:href="#DejaVuSans-20"/>
      <use x="537.597656" xlink:href="#DejaVuSans-4c"/>
      <use x="593.310547" xlink:href="#DejaVuSans-46"/>
      <use x="650.830078" xlink:href="#DejaVuSans-50"/>
      <use x="711.132812" xlink:href="#DejaVuSans-52"/>
     </g>
    </g>
    <g id="line2d_56">
     <path d="M 83.7 85.171875 
L 107.7 85.171875 
" style="fill:none;stroke:#000080;stroke-dasharray:11.1,4.8;stroke-dashoffset:0;stroke-width:3;"/>
    </g>
    <g id="line2d_57"/>
    <g id="text_16">
     <!-- Exit -->
     <defs>
      <path d="M 9.8125 72.90625 
L 55.90625 72.90625 
L 55.90625 64.59375 
L 19.671875 64.59375 
L 19.671875 43.015625 
L 54.390625 43.015625 
L 54.390625 34.71875 
L 19.671875 34.71875 
L 19.671875 8.296875 
L 56.78125 8.296875 
L 56.78125 0 
L 9.8125 0 
z
" id="DejaVuSans-45"/>
      <path d="M 54.890625 54.6875 
L 35.109375 28.078125 
L 55.90625 0 
L 45.3125 0 
L 29.390625 21.484375 
L 13.484375 0 
L 2.875 0 
L 24.125 28.609375 
L 4.6875 54.6875 
L 15.28125 54.6875 
L 29.78125 35.203125 
L 44.28125 54.6875 
z
" id="DejaVuSans-78"/>
     </defs>
     <g transform="translate(117.3 89.371875)scale(0.12 -0.12)">
      <use xlink:href="#DejaVuSans-45"/>
      <use x="63.183594" xlink:href="#DejaVuSans-78"/>
      <use x="122.363281" xlink:href="#DejaVuSans-69"/>
      <use x="150.146484" xlink:href="#DejaVuSans-74"/>
     </g>
    </g>
    <g id="line2d_58">
     <path d="M 83.7 102.785625 
L 107.7 102.785625 
" style="fill:none;stroke:#ffa500;stroke-dasharray:3,4.95;stroke-dashoffset:0;stroke-width:3;"/>
    </g>
    <g id="line2d_59"/>
    <g id="text_17">
     <!-- Entry -->
     <g transform="translate(117.3 106.985625)scale(0.12 -0.12)">
      <use xlink:href="#DejaVuSans-45"/>
      <use x="63.183594" xlink:href="#DejaVuSans-6e"/>
      <use x="126.5625" xlink:href="#DejaVuSans-74"/>
      <use x="165.771484" xlink:href="#DejaVuSans-72"/>
      <use x="206.884766" xlink:href="#DejaVuSans-79"/>
     </g>
    </g>
    <g id="line2d_60">
     <path d="M 83.7 120.399375 
L 107.7 120.399375 
" style="fill:none;stroke:#800000;stroke-dasharray:19.2,4.8,3,4.8;stroke-dashoffset:0;stroke-width:3;"/>
    </g>
    <g id="line2d_61"/>
    <g id="text_18">
     <!-- Churn -->
     <g transform="translate(117.3 124.599375)scale(0.12 -0.12)">
      <use xlink:href="#DejaVuSans-43"/>
      <use x="69.824219" xlink:href="#DejaVuSans-68"/>
      <use x="133.203125" xlink:href="#DejaVuSans-75"/>
      <use x="196.582031" xlink:href="#DejaVuSans-72"/>
      <use x="237.679688" xlink:href="#DejaVuSans-6e"/>
     </g>
    </g>
   </g>
  </g>
  <g id="text_19">
   <!-- Change in Labor force participation rate decomposed -->
   <defs>
    <path d="M 67 4 
Q 61.8125 1.3125 56.203125 -0.046875 
Q 50.59375 -1.421875 44.484375 -1.421875 
Q 26.265625 -1.421875 15.625 8.765625 
Q 4.984375 18.953125 4.984375 36.375 
Q 4.984375 53.859375 15.625 64.03125 
Q 26.265625 74.21875 44.484375 74.21875 
Q 50.59375 74.21875 56.203125 72.84375 
Q 61.8125 71.484375 67 68.796875 
L 67 53.71875 
Q 61.765625 57.28125 56.6875 58.9375 
Q 51.609375 60.59375 46 60.59375 
Q 35.9375 60.59375 30.171875 54.140625 
Q 24.421875 47.703125 24.421875 36.375 
Q 24.421875 25.09375 30.171875 18.640625 
Q 35.9375 12.203125 46 12.203125 
Q 51.609375 12.203125 56.6875 13.859375 
Q 61.765625 15.53125 67 19.09375 
z
" id="DejaVuSans-Bold-43"/>
    <path d="M 63.375 33.296875 
L 63.375 0 
L 45.796875 0 
L 45.796875 5.421875 
L 45.796875 25.390625 
Q 45.796875 32.5625 45.484375 35.25 
Q 45.171875 37.9375 44.390625 39.203125 
Q 43.359375 40.921875 41.59375 41.875 
Q 39.84375 42.828125 37.59375 42.828125 
Q 32.125 42.828125 29 38.59375 
Q 25.875 34.375 25.875 26.90625 
L 25.875 0 
L 8.40625 0 
L 8.40625 75.984375 
L 25.875 75.984375 
L 25.875 46.6875 
Q 29.828125 51.46875 34.265625 53.734375 
Q 38.71875 56 44.09375 56 
Q 53.5625 56 58.46875 50.1875 
Q 63.375 44.390625 63.375 33.296875 
z
" id="DejaVuSans-Bold-68"/>
    <path d="M 32.90625 24.609375 
Q 27.4375 24.609375 24.671875 22.75 
Q 21.921875 20.90625 21.921875 17.28125 
Q 21.921875 13.96875 24.140625 12.078125 
Q 26.375 10.203125 30.328125 10.203125 
Q 35.25 10.203125 38.625 13.734375 
Q 42 17.28125 42 22.609375 
L 42 24.609375 
z
M 59.625 31.203125 
L 59.625 0 
L 42 0 
L 42 8.109375 
Q 38.484375 3.125 34.078125 0.84375 
Q 29.6875 -1.421875 23.390625 -1.421875 
Q 14.890625 -1.421875 9.59375 3.53125 
Q 4.296875 8.5 4.296875 16.40625 
Q 4.296875 26.03125 10.90625 30.515625 
Q 17.53125 35.015625 31.6875 35.015625 
L 42 35.015625 
L 42 36.375 
Q 42 40.53125 38.71875 42.453125 
Q 35.453125 44.390625 28.515625 44.390625 
Q 22.90625 44.390625 18.0625 43.265625 
Q 13.234375 42.140625 9.078125 39.890625 
L 9.078125 53.21875 
Q 14.703125 54.59375 20.359375 55.296875 
Q 26.03125 56 31.6875 56 
Q 46.484375 56 53.046875 50.171875 
Q 59.625 44.34375 59.625 31.203125 
z
" id="DejaVuSans-Bold-61"/>
    <path d="M 63.375 33.296875 
L 63.375 0 
L 45.796875 0 
L 45.796875 5.421875 
L 45.796875 25.484375 
Q 45.796875 32.5625 45.484375 35.25 
Q 45.171875 37.9375 44.390625 39.203125 
Q 43.359375 40.921875 41.59375 41.875 
Q 39.84375 42.828125 37.59375 42.828125 
Q 32.125 42.828125 29 38.59375 
Q 25.875 34.375 25.875 26.90625 
L 25.875 0 
L 8.40625 0 
L 8.40625 54.6875 
L 25.875 54.6875 
L 25.875 46.6875 
Q 29.828125 51.46875 34.265625 53.734375 
Q 38.71875 56 44.09375 56 
Q 53.5625 56 58.46875 50.1875 
Q 63.375 44.390625 63.375 33.296875 
z
" id="DejaVuSans-Bold-6e"/>
    <path d="M 45.609375 9.28125 
Q 42 4.5 37.640625 2.25 
Q 33.296875 0 27.59375 0 
Q 17.578125 0 11.03125 7.875 
Q 4.5 15.765625 4.5 27.984375 
Q 4.5 40.234375 11.03125 48.0625 
Q 17.578125 55.90625 27.59375 55.90625 
Q 33.296875 55.90625 37.640625 53.65625 
Q 42 51.421875 45.609375 46.578125 
L 45.609375 54.6875 
L 63.1875 54.6875 
L 63.1875 5.515625 
Q 63.1875 -7.671875 54.859375 -14.625 
Q 46.53125 -21.578125 30.71875 -21.578125 
Q 25.59375 -21.578125 20.796875 -20.796875 
Q 16.015625 -20.015625 11.1875 -18.40625 
L 11.1875 -4.78125 
Q 15.765625 -7.421875 20.15625 -8.71875 
Q 24.5625 -10.015625 29 -10.015625 
Q 37.59375 -10.015625 41.59375 -6.25 
Q 45.609375 -2.484375 45.609375 5.515625 
z
M 34.078125 43.3125 
Q 28.65625 43.3125 25.625 39.296875 
Q 22.609375 35.296875 22.609375 27.984375 
Q 22.609375 20.453125 25.53125 16.578125 
Q 28.46875 12.703125 34.078125 12.703125 
Q 39.546875 12.703125 42.578125 16.703125 
Q 45.609375 20.703125 45.609375 27.984375 
Q 45.609375 35.296875 42.578125 39.296875 
Q 39.546875 43.3125 34.078125 43.3125 
z
" id="DejaVuSans-Bold-67"/>
    <path d="M 62.984375 27.484375 
L 62.984375 22.515625 
L 22.125 22.515625 
Q 22.75 16.359375 26.5625 13.28125 
Q 30.375 10.203125 37.203125 10.203125 
Q 42.71875 10.203125 48.5 11.84375 
Q 54.296875 13.484375 60.40625 16.796875 
L 60.40625 3.328125 
Q 54.203125 0.984375 48 -0.21875 
Q 41.796875 -1.421875 35.59375 -1.421875 
Q 20.75 -1.421875 12.515625 6.125 
Q 4.296875 13.671875 4.296875 27.296875 
Q 4.296875 40.671875 12.375 48.328125 
Q 20.453125 56 34.625 56 
Q 47.515625 56 55.25 48.234375 
Q 62.984375 40.484375 62.984375 27.484375 
z
M 45.015625 33.296875 
Q 45.015625 38.28125 42.109375 41.328125 
Q 39.203125 44.390625 34.515625 44.390625 
Q 29.4375 44.390625 26.265625 41.53125 
Q 23.09375 38.671875 22.3125 33.296875 
z
" id="DejaVuSans-Bold-65"/>
    <path id="DejaVuSans-Bold-20"/>
    <path d="M 8.40625 54.6875 
L 25.875 54.6875 
L 25.875 0 
L 8.40625 0 
z
M 8.40625 75.984375 
L 25.875 75.984375 
L 25.875 61.71875 
L 8.40625 61.71875 
z
" id="DejaVuSans-Bold-69"/>
    <path d="M 9.1875 72.90625 
L 27.984375 72.90625 
L 27.984375 14.203125 
L 60.984375 14.203125 
L 60.984375 0 
L 9.1875 0 
z
" id="DejaVuSans-Bold-4c"/>
    <path d="M 37.5 11.28125 
Q 43.109375 11.28125 46.0625 15.375 
Q 49.03125 19.484375 49.03125 27.296875 
Q 49.03125 35.109375 46.0625 39.203125 
Q 43.109375 43.3125 37.5 43.3125 
Q 31.890625 43.3125 28.875 39.1875 
Q 25.875 35.0625 25.875 27.296875 
Q 25.875 19.53125 28.875 15.40625 
Q 31.890625 11.28125 37.5 11.28125 
z
M 25.875 46.6875 
Q 29.5 51.46875 33.890625 53.734375 
Q 38.28125 56 44 56 
Q 54.109375 56 60.59375 47.96875 
Q 67.09375 39.9375 67.09375 27.296875 
Q 67.09375 14.65625 60.59375 6.609375 
Q 54.109375 -1.421875 44 -1.421875 
Q 38.28125 -1.421875 33.890625 0.84375 
Q 29.5 3.125 25.875 7.90625 
L 25.875 0 
L 8.40625 0 
L 8.40625 75.984375 
L 25.875 75.984375 
z
" id="DejaVuSans-Bold-62"/>
    <path d="M 34.421875 43.5 
Q 28.609375 43.5 25.5625 39.328125 
Q 22.515625 35.15625 22.515625 27.296875 
Q 22.515625 19.4375 25.5625 15.25 
Q 28.609375 11.078125 34.421875 11.078125 
Q 40.140625 11.078125 43.15625 15.25 
Q 46.1875 19.4375 46.1875 27.296875 
Q 46.1875 35.15625 43.15625 39.328125 
Q 40.140625 43.5 34.421875 43.5 
z
M 34.421875 56 
Q 48.53125 56 56.46875 48.375 
Q 64.40625 40.765625 64.40625 27.296875 
Q 64.40625 13.8125 56.46875 6.1875 
Q 48.53125 -1.421875 34.421875 -1.421875 
Q 20.265625 -1.421875 12.28125 6.1875 
Q 4.296875 13.8125 4.296875 27.296875 
Q 4.296875 40.765625 12.28125 48.375 
Q 20.265625 56 34.421875 56 
z
" id="DejaVuSans-Bold-6f"/>
    <path d="M 49.03125 39.796875 
Q 46.734375 40.875 44.453125 41.375 
Q 42.1875 41.890625 39.890625 41.890625 
Q 33.15625 41.890625 29.515625 37.5625 
Q 25.875 33.25 25.875 25.203125 
L 25.875 0 
L 8.40625 0 
L 8.40625 54.6875 
L 25.875 54.6875 
L 25.875 45.703125 
Q 29.25 51.078125 33.609375 53.53125 
Q 37.984375 56 44.09375 56 
Q 44.96875 56 45.984375 55.921875 
Q 47.015625 55.859375 48.96875 55.609375 
z
" id="DejaVuSans-Bold-72"/>
    <path d="M 44.390625 75.984375 
L 44.390625 64.5 
L 34.71875 64.5 
Q 31 64.5 29.53125 63.15625 
Q 28.078125 61.8125 28.078125 58.5 
L 28.078125 54.6875 
L 43.015625 54.6875 
L 43.015625 42.1875 
L 28.078125 42.1875 
L 28.078125 0 
L 10.59375 0 
L 10.59375 42.1875 
L 1.90625 42.1875 
L 1.90625 54.6875 
L 10.59375 54.6875 
L 10.59375 58.5 
Q 10.59375 67.4375 15.578125 71.703125 
Q 20.5625 75.984375 31 75.984375 
z
" id="DejaVuSans-Bold-66"/>
    <path d="M 52.59375 52.984375 
L 52.59375 38.71875 
Q 49.03125 41.15625 45.4375 42.328125 
Q 41.84375 43.5 37.984375 43.5 
Q 30.671875 43.5 26.59375 39.234375 
Q 22.515625 34.96875 22.515625 27.296875 
Q 22.515625 19.625 26.59375 15.34375 
Q 30.671875 11.078125 37.984375 11.078125 
Q 42.09375 11.078125 45.78125 12.296875 
Q 49.46875 13.53125 52.59375 15.921875 
L 52.59375 1.609375 
Q 48.484375 0.09375 44.265625 -0.65625 
Q 40.046875 -1.421875 35.796875 -1.421875 
Q 21 -1.421875 12.640625 6.171875 
Q 4.296875 13.765625 4.296875 27.296875 
Q 4.296875 40.828125 12.640625 48.40625 
Q 21 56 35.796875 56 
Q 40.09375 56 44.265625 55.25 
Q 48.4375 54.5 52.59375 52.984375 
z
" id="DejaVuSans-Bold-63"/>
    <path d="M 25.875 7.90625 
L 25.875 -20.796875 
L 8.40625 -20.796875 
L 8.40625 54.6875 
L 25.875 54.6875 
L 25.875 46.6875 
Q 29.5 51.46875 33.890625 53.734375 
Q 38.28125 56 44 56 
Q 54.109375 56 60.59375 47.96875 
Q 67.09375 39.9375 67.09375 27.296875 
Q 67.09375 14.65625 60.59375 6.609375 
Q 54.109375 -1.421875 44 -1.421875 
Q 38.28125 -1.421875 33.890625 0.84375 
Q 29.5 3.125 25.875 7.90625 
z
M 37.5 43.3125 
Q 31.890625 43.3125 28.875 39.1875 
Q 25.875 35.0625 25.875 27.296875 
Q 25.875 19.53125 28.875 15.40625 
Q 31.890625 11.28125 37.5 11.28125 
Q 43.109375 11.28125 46.0625 15.375 
Q 49.03125 19.484375 49.03125 27.296875 
Q 49.03125 35.109375 46.0625 39.203125 
Q 43.109375 43.3125 37.5 43.3125 
z
" id="DejaVuSans-Bold-70"/>
    <path d="M 27.484375 70.21875 
L 27.484375 54.6875 
L 45.515625 54.6875 
L 45.515625 42.1875 
L 27.484375 42.1875 
L 27.484375 19 
Q 27.484375 15.1875 29 13.84375 
Q 30.515625 12.5 35.015625 12.5 
L 44 12.5 
L 44 0 
L 29 0 
Q 18.65625 0 14.328125 4.3125 
Q 10.015625 8.640625 10.015625 19 
L 10.015625 42.1875 
L 1.3125 42.1875 
L 1.3125 54.6875 
L 10.015625 54.6875 
L 10.015625 70.21875 
z
" id="DejaVuSans-Bold-74"/>
    <path d="M 45.609375 46.6875 
L 45.609375 75.984375 
L 63.1875 75.984375 
L 63.1875 0 
L 45.609375 0 
L 45.609375 7.90625 
Q 42 3.078125 37.640625 0.828125 
Q 33.296875 -1.421875 27.59375 -1.421875 
Q 17.484375 -1.421875 10.984375 6.609375 
Q 4.5 14.65625 4.5 27.296875 
Q 4.5 39.9375 10.984375 47.96875 
Q 17.484375 56 27.59375 56 
Q 33.25 56 37.625 53.734375 
Q 42 51.46875 45.609375 46.6875 
z
M 34.078125 11.28125 
Q 39.703125 11.28125 42.65625 15.375 
Q 45.609375 19.484375 45.609375 27.296875 
Q 45.609375 35.109375 42.65625 39.203125 
Q 39.703125 43.3125 34.078125 43.3125 
Q 28.515625 43.3125 25.5625 39.203125 
Q 22.609375 35.109375 22.609375 27.296875 
Q 22.609375 19.484375 25.5625 15.375 
Q 28.515625 11.28125 34.078125 11.28125 
z
" id="DejaVuSans-Bold-64"/>
    <path d="M 59.078125 45.609375 
Q 62.40625 50.6875 66.96875 53.34375 
Q 71.53125 56 77 56 
Q 86.421875 56 91.359375 50.1875 
Q 96.296875 44.390625 96.296875 33.296875 
L 96.296875 0 
L 78.71875 0 
L 78.71875 28.515625 
Q 78.765625 29.15625 78.78125 29.828125 
Q 78.8125 30.515625 78.8125 31.78125 
Q 78.8125 37.59375 77.09375 40.203125 
Q 75.390625 42.828125 71.578125 42.828125 
Q 66.609375 42.828125 63.890625 38.71875 
Q 61.1875 34.625 61.078125 26.859375 
L 61.078125 0 
L 43.5 0 
L 43.5 28.515625 
Q 43.5 37.59375 41.9375 40.203125 
Q 40.375 42.828125 36.375 42.828125 
Q 31.34375 42.828125 28.609375 38.703125 
Q 25.875 34.578125 25.875 26.90625 
L 25.875 0 
L 8.296875 0 
L 8.296875 54.6875 
L 25.875 54.6875 
L 25.875 46.6875 
Q 29.109375 51.3125 33.28125 53.65625 
Q 37.453125 56 42.484375 56 
Q 48.140625 56 52.484375 53.265625 
Q 56.84375 50.53125 59.078125 45.609375 
z
" id="DejaVuSans-Bold-6d"/>
    <path d="M 51.125 52.984375 
L 51.125 39.703125 
Q 45.515625 42.046875 40.28125 43.21875 
Q 35.0625 44.390625 30.421875 44.390625 
Q 25.4375 44.390625 23.015625 43.140625 
Q 20.609375 41.890625 20.609375 39.3125 
Q 20.609375 37.203125 22.4375 36.078125 
Q 24.265625 34.96875 29 34.421875 
L 32.078125 33.984375 
Q 45.515625 32.28125 50.140625 28.375 
Q 54.78125 24.46875 54.78125 16.109375 
Q 54.78125 7.375 48.328125 2.96875 
Q 41.890625 -1.421875 29.109375 -1.421875 
Q 23.6875 -1.421875 17.890625 -0.5625 
Q 12.109375 0.296875 6 2 
L 6 15.28125 
Q 11.234375 12.75 16.71875 11.46875 
Q 22.21875 10.203125 27.875 10.203125 
Q 33.015625 10.203125 35.59375 11.609375 
Q 38.1875 13.03125 38.1875 15.828125 
Q 38.1875 18.171875 36.40625 19.3125 
Q 34.625 20.453125 29.296875 21.09375 
L 26.21875 21.484375 
Q 14.546875 22.953125 9.859375 26.90625 
Q 5.171875 30.859375 5.171875 38.921875 
Q 5.171875 47.609375 11.125 51.796875 
Q 17.09375 56 29.390625 56 
Q 34.234375 56 39.546875 55.265625 
Q 44.875 54.546875 51.125 52.984375 
z
" id="DejaVuSans-Bold-73"/>
   </defs>
   <g transform="translate(72.9 26.87625)scale(0.24 -0.24)">
    <use xlink:href="#DejaVuSans-Bold-43"/>
    <use x="73.388672" xlink:href="#DejaVuSans-Bold-68"/>
    <use x="144.580078" xlink:href="#DejaVuSans-Bold-61"/>
    <use x="212.060547" xlink:href="#DejaVuSans-Bold-6e"/>
    <use x="283.251953" xlink:href="#DejaVuSans-Bold-67"/>
    <use x="354.833984" xlink:href="#DejaVuSans-Bold-65"/>
    <use x="422.65625" xlink:href="#DejaVuSans-Bold-20"/>
    <use x="457.470703" xlink:href="#DejaVuSans-Bold-69"/>
    <use x="491.748047" xlink:href="#DejaVuSans-Bold-6e"/>
    <use x="562.939453" xlink:href="#DejaVuSans-Bold-20"/>
    <use x="597.753906" xlink:href="#DejaVuSans-Bold-4c"/>
    <use x="661.474609" xlink:href="#DejaVuSans-Bold-61"/>
    <use x="728.955078" xlink:href="#DejaVuSans-Bold-62"/>
    <use x="800.537109" xlink:href="#DejaVuSans-Bold-6f"/>
    <use x="869.238281" xlink:href="#DejaVuSans-Bold-72"/>
    <use x="918.554688" xlink:href="#DejaVuSans-Bold-20"/>
    <use x="953.369141" xlink:href="#DejaVuSans-Bold-66"/>
    <use x="996.875" xlink:href="#DejaVuSans-Bold-6f"/>
    <use x="1065.576172" xlink:href="#DejaVuSans-Bold-72"/>
    <use x="1114.892578" xlink:href="#DejaVuSans-Bold-63"/>
    <use x="1174.169922" xlink:href="#DejaVuSans-Bold-65"/>
    <use x="1241.992188" xlink:href="#DejaVuSans-Bold-20"/>
    <use x="1276.806641" xlink:href="#DejaVuSans-Bold-70"/>
    <use x="1348.388672" xlink:href="#DejaVuSans-Bold-61"/>
    <use x="1415.869141" xlink:href="#DejaVuSans-Bold-72"/>
    <use x="1465.185547" xlink:href="#DejaVuSans-Bold-74"/>
    <use x="1512.988281" xlink:href="#DejaVuSans-Bold-69"/>
    <use x="1547.265625" xlink:href="#DejaVuSans-Bold-63"/>
    <use x="1606.542969" xlink:href="#DejaVuSans-Bold-69"/>
    <use x="1640.820312" xlink:href="#DejaVuSans-Bold-70"/>
    <use x="1712.402344" xlink:href="#DejaVuSans-Bold-61"/>
    <use x="1779.882812" xlink:href="#DejaVuSans-Bold-74"/>
    <use x="1827.685547" xlink:href="#DejaVuSans-Bold-69"/>
    <use x="1861.962891" xlink:href="#DejaVuSans-Bold-6f"/>
    <use x="1930.664062" xlink:href="#DejaVuSans-Bold-6e"/>
    <use x="2001.855469" xlink:href="#DejaVuSans-Bold-20"/>
    <use x="2036.669922" xlink:href="#DejaVuSans-Bold-72"/>
    <use x="2085.986328" xlink:href="#DejaVuSans-Bold-61"/>
    <use x="2153.466797" xlink:href="#DejaVuSans-Bold-74"/>
    <use x="2201.269531" xlink:href="#DejaVuSans-Bold-65"/>
    <use x="2269.091797" xlink:href="#DejaVuSans-Bold-20"/>
    <use x="2303.90625" xlink:href="#DejaVuSans-Bold-64"/>
    <use x="2375.488281" xlink:href="#DejaVuSans-Bold-65"/>
    <use x="2443.310547" xlink:href="#DejaVuSans-Bold-63"/>
    <use x="2502.587891" xlink:href="#DejaVuSans-Bold-6f"/>
    <use x="2571.289062" xlink:href="#DejaVuSans-Bold-6d"/>
    <use x="2675.488281" xlink:href="#DejaVuSans-Bold-70"/>
    <use x="2747.070312" xlink:href="#DejaVuSans-Bold-6f"/>
    <use x="2815.771484" xlink:href="#DejaVuSans-Bold-73"/>
    <use x="2875.292969" xlink:href="#DejaVuSans-Bold-65"/>
    <use x="2943.115234" xlink:href="#DejaVuSans-Bold-64"/>
   </g>
  </g>
  <g id="text_20">
   <!-- Source: Bureau of Labor Statistics -->
   <defs>
    <path d="M 53.515625 70.515625 
L 53.515625 60.890625 
Q 47.90625 63.578125 42.921875 64.890625 
Q 37.9375 66.21875 33.296875 66.21875 
Q 25.25 66.21875 20.875 63.09375 
Q 16.5 59.96875 16.5 54.203125 
Q 16.5 49.359375 19.40625 46.890625 
Q 22.3125 44.4375 30.421875 42.921875 
L 36.375 41.703125 
Q 47.40625 39.59375 52.65625 34.296875 
Q 57.90625 29 57.90625 20.125 
Q 57.90625 9.515625 50.796875 4.046875 
Q 43.703125 -1.421875 29.984375 -1.421875 
Q 24.8125 -1.421875 18.96875 -0.25 
Q 13.140625 0.921875 6.890625 3.21875 
L 6.890625 13.375 
Q 12.890625 10.015625 18.65625 8.296875 
Q 24.421875 6.59375 29.984375 6.59375 
Q 38.421875 6.59375 43.015625 9.90625 
Q 47.609375 13.234375 47.609375 19.390625 
Q 47.609375 24.75 44.3125 27.78125 
Q 41.015625 30.8125 33.5 32.328125 
L 27.484375 33.5 
Q 16.453125 35.6875 11.515625 40.375 
Q 6.59375 45.0625 6.59375 53.421875 
Q 6.59375 63.09375 13.40625 68.65625 
Q 20.21875 74.21875 32.171875 74.21875 
Q 37.3125 74.21875 42.625 73.28125 
Q 47.953125 72.359375 53.515625 70.515625 
z
" id="DejaVuSans-53"/>
    <path d="M 11.71875 12.40625 
L 22.015625 12.40625 
L 22.015625 0 
L 11.71875 0 
z
M 11.71875 51.703125 
L 22.015625 51.703125 
L 22.015625 39.3125 
L 11.71875 39.3125 
z
" id="DejaVuSans-3a"/>
    <path d="M 19.671875 34.8125 
L 19.671875 8.109375 
L 35.5 8.109375 
Q 43.453125 8.109375 47.28125 11.40625 
Q 51.125 14.703125 51.125 21.484375 
Q 51.125 28.328125 47.28125 31.5625 
Q 43.453125 34.8125 35.5 34.8125 
z
M 19.671875 64.796875 
L 19.671875 42.828125 
L 34.28125 42.828125 
Q 41.5 42.828125 45.03125 45.53125 
Q 48.578125 48.25 48.578125 53.8125 
Q 48.578125 59.328125 45.03125 62.0625 
Q 41.5 64.796875 34.28125 64.796875 
z
M 9.8125 72.90625 
L 35.015625 72.90625 
Q 46.296875 72.90625 52.390625 68.21875 
Q 58.5 63.53125 58.5 54.890625 
Q 58.5 48.1875 55.375 44.234375 
Q 52.25 40.28125 46.1875 39.3125 
Q 53.46875 37.75 57.5 32.78125 
Q 61.53125 27.828125 61.53125 20.40625 
Q 61.53125 10.640625 54.890625 5.3125 
Q 48.25 0 35.984375 0 
L 9.8125 0 
z
" id="DejaVuSans-42"/>
    <path d="M 37.109375 75.984375 
L 37.109375 68.5 
L 28.515625 68.5 
Q 23.6875 68.5 21.796875 66.546875 
Q 19.921875 64.59375 19.921875 59.515625 
L 19.921875 54.6875 
L 34.71875 54.6875 
L 34.71875 47.703125 
L 19.921875 47.703125 
L 19.921875 0 
L 10.890625 0 
L 10.890625 47.703125 
L 2.296875 47.703125 
L 2.296875 54.6875 
L 10.890625 54.6875 
L 10.890625 58.5 
Q 10.890625 67.625 15.140625 71.796875 
Q 19.390625 75.984375 28.609375 75.984375 
z
" id="DejaVuSans-66"/>
   </defs>
   <g transform="translate(72.9 421.2)scale(0.1 -0.1)">
    <use xlink:href="#DejaVuSans-53"/>
    <use x="63.476562" xlink:href="#DejaVuSans-6f"/>
    <use x="124.658203" xlink:href="#DejaVuSans-75"/>
    <use x="188.037109" xlink:href="#DejaVuSans-72"/>
    <use x="229.119141" xlink:href="#DejaVuSans-63"/>
    <use x="284.099609" xlink:href="#DejaVuSans-65"/>
    <use x="345.623047" xlink:href="#DejaVuSans-3a"/>
    <use x="379.314453" xlink:href="#DejaVuSans-20"/>
    <use x="411.101562" xlink:href="#DejaVuSans-42"/>
    <use x="479.705078" xlink:href="#DejaVuSans-75"/>
    <use x="543.083984" xlink:href="#DejaVuSans-72"/>
    <use x="584.166016" xlink:href="#DejaVuSans-65"/>
    <use x="645.689453" xlink:href="#DejaVuSans-61"/>
    <use x="706.96875" xlink:href="#DejaVuSans-75"/>
    <use x="770.347656" xlink:href="#DejaVuSans-20"/>
    <use x="802.134766" xlink:href="#DejaVuSans-6f"/>
    <use x="863.316406" xlink:href="#DejaVuSans-66"/>
    <use x="898.521484" xlink:href="#DejaVuSans-20"/>
    <use x="930.308594" xlink:href="#DejaVuSans-4c"/>
    <use x="986.021484" xlink:href="#DejaVuSans-61"/>
    <use x="1047.300781" xlink:href="#DejaVuSans-62"/>
    <use x="1110.777344" xlink:href="#DejaVuSans-6f"/>
    <use x="1171.958984" xlink:href="#DejaVuSans-72"/>
    <use x="1213.072266" xlink:href="#DejaVuSans-20"/>
    <use x="1244.859375" xlink:href="#DejaVuSans-53"/>
    <use x="1308.335938" xlink:href="#DejaVuSans-74"/>
    <use x="1347.544922" xlink:href="#DejaVuSans-61"/>
    <use x="1408.824219" xlink:href="#DejaVuSans-74"/>
    <use x="1448.033203" xlink:href="#DejaVuSans-69"/>
    <use x="1475.816406" xlink:href="#DejaVuSans-73"/>
    <use x="1527.916016" xlink:href="#DejaVuSans-74"/>
    <use x="1567.125" xlink:href="#DejaVuSans-69"/>
    <use x="1594.908203" xlink:href="#DejaVuSans-63"/>
    <use x="1649.888672" xlink:href="#DejaVuSans-73"/>
   </g>
  </g>
 </g>
 <defs>
  <clipPath id="p9d666baa0a">
   <rect height="336.96" width="850.5" x="72.9" y="51.84"/>
  </clipPath>
 </defs>
</svg>
