<?xml version="1.0" encoding="utf-8" standalone="no"?>
<!DOCTYPE svg PUBLIC "-//W3C//DTD SVG 1.1//EN"
  "http://www.w3.org/Graphics/SVG/1.1/DTD/svg11.dtd">
<!-- Created with matplotlib (http://matplotlib.org/) -->
<svg height="432pt" version="1.1" viewBox="0 0 972 432" width="972pt" xmlns="http://www.w3.org/2000/svg" xmlns:xlink="http://www.w3.org/1999/xlink">
 <defs>
  <style type="text/css">
*{stroke-linecap:butt;stroke-linejoin:round;}
  </style>
 </defs>
 <g id="figure_1">
  <g id="patch_1">
   <path d="M 0 432 
L 972 432 
L 972 0 
L 0 0 
z
" style="fill:none;"/>
  </g>
  <g id="axes_1">
   <g id="patch_2">
    <path d="M 72.9 388.8 
L 923.4 388.8 
L 923.4 51.84 
L 72.9 51.84 
z
" style="fill:none;"/>
   </g>
   <g id="PolyCollection_1">
    <path clip-path="url(#pf6c0ebaa56)" d="M 90.057061 51.84 
L 90.057061 388.8 
L 92.508069 388.8 
L 94.959078 388.8 
L 97.410086 388.8 
L 99.861095 388.8 
L 102.312104 388.8 
L 104.763112 388.8 
L 107.214121 388.8 
L 107.214121 51.84 
L 107.214121 51.84 
L 104.763112 51.84 
L 102.312104 51.84 
L 99.861095 51.84 
L 97.410086 51.84 
L 94.959078 51.84 
L 92.508069 51.84 
L 90.057061 51.84 
z
" style="fill:#bbbbbb;fill-opacity:0.3;stroke:#bbbbbb;stroke-opacity:0.3;"/>
    <path clip-path="url(#pf6c0ebaa56)" d="M 403.786167 51.84 
L 403.786167 388.8 
L 406.237176 388.8 
L 408.688184 388.8 
L 411.139193 388.8 
L 413.590202 388.8 
L 416.04121 388.8 
L 418.492219 388.8 
L 420.943228 388.8 
L 420.943228 51.84 
L 420.943228 51.84 
L 418.492219 51.84 
L 416.04121 51.84 
L 413.590202 51.84 
L 411.139193 51.84 
L 408.688184 51.84 
L 406.237176 51.84 
L 403.786167 51.84 
z
" style="fill:#bbbbbb;fill-opacity:0.3;stroke:#bbbbbb;stroke-opacity:0.3;"/>
    <path clip-path="url(#pf6c0ebaa56)" d="M 602.317867 51.84 
L 602.317867 388.8 
L 604.768876 388.8 
L 607.219885 388.8 
L 609.670893 388.8 
L 612.121902 388.8 
L 614.572911 388.8 
L 617.023919 388.8 
L 619.474928 388.8 
L 621.925937 388.8 
L 624.376945 388.8 
L 626.827954 388.8 
L 629.278963 388.8 
L 631.729971 388.8 
L 634.18098 388.8 
L 636.631988 388.8 
L 639.082997 388.8 
L 641.534006 388.8 
L 643.985014 388.8 
L 643.985014 51.84 
L 643.985014 51.84 
L 641.534006 51.84 
L 639.082997 51.84 
L 636.631988 51.84 
L 634.18098 51.84 
L 631.729971 51.84 
L 629.278963 51.84 
L 626.827954 51.84 
L 624.376945 51.84 
L 621.925937 51.84 
L 619.474928 51.84 
L 617.023919 51.84 
L 614.572911 51.84 
L 612.121902 51.84 
L 609.670893 51.84 
L 607.219885 51.84 
L 604.768876 51.84 
L 602.317867 51.84 
z
" style="fill:#bbbbbb;fill-opacity:0.3;stroke:#bbbbbb;stroke-opacity:0.3;"/>
   </g>
   <g id="matplotlib.axis_1">
    <g id="xtick_1">
     <g id="line2d_1">
      <defs>
       <path d="M 0 0 
L 0 3.5 
" id="m5ea9cfe349" style="stroke:#000000;stroke-width:0.8;"/>
      </defs>
      <g>
       <use style="stroke:#000000;stroke-width:0.8;" x="190.548415" xlink:href="#m5ea9cfe349" y="388.8"/>
      </g>
     </g>
     <g id="text_1">
      <!-- 1994 -->
      <defs>
       <path d="M 12.40625 8.296875 
L 28.515625 8.296875 
L 28.515625 63.921875 
L 10.984375 60.40625 
L 10.984375 69.390625 
L 28.421875 72.90625 
L 38.28125 72.90625 
L 38.28125 8.296875 
L 54.390625 8.296875 
L 54.390625 0 
L 12.40625 0 
z
" id="DejaVuSans-31"/>
       <path d="M 10.984375 1.515625 
L 10.984375 10.5 
Q 14.703125 8.734375 18.5 7.8125 
Q 22.3125 6.890625 25.984375 6.890625 
Q 35.75 6.890625 40.890625 13.453125 
Q 46.046875 20.015625 46.78125 33.40625 
Q 43.953125 29.203125 39.59375 26.953125 
Q 35.25 24.703125 29.984375 24.703125 
Q 19.046875 24.703125 12.671875 31.3125 
Q 6.296875 37.9375 6.296875 49.421875 
Q 6.296875 60.640625 12.9375 67.421875 
Q 19.578125 74.21875 30.609375 74.21875 
Q 43.265625 74.21875 49.921875 64.515625 
Q 56.59375 54.828125 56.59375 36.375 
Q 56.59375 19.140625 48.40625 8.859375 
Q 40.234375 -1.421875 26.421875 -1.421875 
Q 22.703125 -1.421875 18.890625 -0.6875 
Q 15.09375 0.046875 10.984375 1.515625 
z
M 30.609375 32.421875 
Q 37.25 32.421875 41.125 36.953125 
Q 45.015625 41.5 45.015625 49.421875 
Q 45.015625 57.28125 41.125 61.84375 
Q 37.25 66.40625 30.609375 66.40625 
Q 23.96875 66.40625 20.09375 61.84375 
Q 16.21875 57.28125 16.21875 49.421875 
Q 16.21875 41.5 20.09375 36.953125 
Q 23.96875 32.421875 30.609375 32.421875 
z
" id="DejaVuSans-39"/>
       <path d="M 37.796875 64.3125 
L 12.890625 25.390625 
L 37.796875 25.390625 
z
M 35.203125 72.90625 
L 47.609375 72.90625 
L 47.609375 25.390625 
L 58.015625 25.390625 
L 58.015625 17.1875 
L 47.609375 17.1875 
L 47.609375 0 
L 37.796875 0 
L 37.796875 17.1875 
L 4.890625 17.1875 
L 4.890625 26.703125 
z
" id="DejaVuSans-34"/>
      </defs>
      <g transform="translate(172.733415 407.937813)scale(0.14 -0.14)">
       <use xlink:href="#DejaVuSans-31"/>
       <use x="63.623047" xlink:href="#DejaVuSans-39"/>
       <use x="127.246094" xlink:href="#DejaVuSans-39"/>
       <use x="190.869141" xlink:href="#DejaVuSans-34"/>
      </g>
     </g>
    </g>
    <g id="xtick_2">
     <g id="line2d_2">
      <g>
       <use style="stroke:#000000;stroke-width:0.8;" x="337.608934" xlink:href="#m5ea9cfe349" y="388.8"/>
      </g>
     </g>
     <g id="text_2">
      <!-- 1999 -->
      <g transform="translate(319.793934 407.937813)scale(0.14 -0.14)">
       <use xlink:href="#DejaVuSans-31"/>
       <use x="63.623047" xlink:href="#DejaVuSans-39"/>
       <use x="127.246094" xlink:href="#DejaVuSans-39"/>
       <use x="190.869141" xlink:href="#DejaVuSans-39"/>
      </g>
     </g>
    </g>
    <g id="xtick_3">
     <g id="line2d_3">
      <g>
       <use style="stroke:#000000;stroke-width:0.8;" x="484.669452" xlink:href="#m5ea9cfe349" y="388.8"/>
      </g>
     </g>
     <g id="text_3">
      <!-- 2004 -->
      <defs>
       <path d="M 19.1875 8.296875 
L 53.609375 8.296875 
L 53.609375 0 
L 7.328125 0 
L 7.328125 8.296875 
Q 12.9375 14.109375 22.625 23.890625 
Q 32.328125 33.6875 34.8125 36.53125 
Q 39.546875 41.84375 41.421875 45.53125 
Q 43.3125 49.21875 43.3125 52.78125 
Q 43.3125 58.59375 39.234375 62.25 
Q 35.15625 65.921875 28.609375 65.921875 
Q 23.96875 65.921875 18.8125 64.3125 
Q 13.671875 62.703125 7.8125 59.421875 
L 7.8125 69.390625 
Q 13.765625 71.78125 18.9375 73 
Q 24.125 74.21875 28.421875 74.21875 
Q 39.75 74.21875 46.484375 68.546875 
Q 53.21875 62.890625 53.21875 53.421875 
Q 53.21875 48.921875 51.53125 44.890625 
Q 49.859375 40.875 45.40625 35.40625 
Q 44.1875 33.984375 37.640625 27.21875 
Q 31.109375 20.453125 19.1875 8.296875 
z
" id="DejaVuSans-32"/>
       <path d="M 31.78125 66.40625 
Q 24.171875 66.40625 20.328125 58.90625 
Q 16.5 51.421875 16.5 36.375 
Q 16.5 21.390625 20.328125 13.890625 
Q 24.171875 6.390625 31.78125 6.390625 
Q 39.453125 6.390625 43.28125 13.890625 
Q 47.125 21.390625 47.125 36.375 
Q 47.125 51.421875 43.28125 58.90625 
Q 39.453125 66.40625 31.78125 66.40625 
z
M 31.78125 74.21875 
Q 44.046875 74.21875 50.515625 64.515625 
Q 56.984375 54.828125 56.984375 36.375 
Q 56.984375 17.96875 50.515625 8.265625 
Q 44.046875 -1.421875 31.78125 -1.421875 
Q 19.53125 -1.421875 13.0625 8.265625 
Q 6.59375 17.96875 6.59375 36.375 
Q 6.59375 54.828125 13.0625 64.515625 
Q 19.53125 74.21875 31.78125 74.21875 
z
" id="DejaVuSans-30"/>
      </defs>
      <g transform="translate(466.854452 407.937813)scale(0.14 -0.14)">
       <use xlink:href="#DejaVuSans-32"/>
       <use x="63.623047" xlink:href="#DejaVuSans-30"/>
       <use x="127.246094" xlink:href="#DejaVuSans-30"/>
       <use x="190.869141" xlink:href="#DejaVuSans-34"/>
      </g>
     </g>
    </g>
    <g id="xtick_4">
     <g id="line2d_4">
      <g>
       <use style="stroke:#000000;stroke-width:0.8;" x="631.729971" xlink:href="#m5ea9cfe349" y="388.8"/>
      </g>
     </g>
     <g id="text_4">
      <!-- 2009 -->
      <g transform="translate(613.914971 407.937813)scale(0.14 -0.14)">
       <use xlink:href="#DejaVuSans-32"/>
       <use x="63.623047" xlink:href="#DejaVuSans-30"/>
       <use x="127.246094" xlink:href="#DejaVuSans-30"/>
       <use x="190.869141" xlink:href="#DejaVuSans-39"/>
      </g>
     </g>
    </g>
    <g id="xtick_5">
     <g id="line2d_5">
      <g>
       <use style="stroke:#000000;stroke-width:0.8;" x="778.79049" xlink:href="#m5ea9cfe349" y="388.8"/>
      </g>
     </g>
     <g id="text_5">
      <!-- 2014 -->
      <g transform="translate(760.97549 407.937813)scale(0.14 -0.14)">
       <use xlink:href="#DejaVuSans-32"/>
       <use x="63.623047" xlink:href="#DejaVuSans-30"/>
       <use x="127.246094" xlink:href="#DejaVuSans-31"/>
       <use x="190.869141" xlink:href="#DejaVuSans-34"/>
      </g>
     </g>
    </g>
    <g id="xtick_6">
     <g id="line2d_6">
      <defs>
       <path d="M 0 0 
L 0 2 
" id="mb56b3e3f64" style="stroke:#000000;stroke-width:0.6;"/>
      </defs>
      <g>
       <use style="stroke:#000000;stroke-width:0.6;" x="72.9" xlink:href="#mb56b3e3f64" y="388.8"/>
      </g>
     </g>
    </g>
    <g id="xtick_7">
     <g id="line2d_7">
      <g>
       <use style="stroke:#000000;stroke-width:0.6;" x="102.312104" xlink:href="#mb56b3e3f64" y="388.8"/>
      </g>
     </g>
    </g>
    <g id="xtick_8">
     <g id="line2d_8">
      <g>
       <use style="stroke:#000000;stroke-width:0.6;" x="131.724207" xlink:href="#mb56b3e3f64" y="388.8"/>
      </g>
     </g>
    </g>
    <g id="xtick_9">
     <g id="line2d_9">
      <g>
       <use style="stroke:#000000;stroke-width:0.6;" x="161.136311" xlink:href="#mb56b3e3f64" y="388.8"/>
      </g>
     </g>
    </g>
    <g id="xtick_10">
     <g id="line2d_10">
      <g>
       <use style="stroke:#000000;stroke-width:0.6;" x="190.548415" xlink:href="#mb56b3e3f64" y="388.8"/>
      </g>
     </g>
    </g>
    <g id="xtick_11">
     <g id="line2d_11">
      <g>
       <use style="stroke:#000000;stroke-width:0.6;" x="219.960519" xlink:href="#mb56b3e3f64" y="388.8"/>
      </g>
     </g>
    </g>
    <g id="xtick_12">
     <g id="line2d_12">
      <g>
       <use style="stroke:#000000;stroke-width:0.6;" x="249.372622" xlink:href="#mb56b3e3f64" y="388.8"/>
      </g>
     </g>
    </g>
    <g id="xtick_13">
     <g id="line2d_13">
      <g>
       <use style="stroke:#000000;stroke-width:0.6;" x="278.784726" xlink:href="#mb56b3e3f64" y="388.8"/>
      </g>
     </g>
    </g>
    <g id="xtick_14">
     <g id="line2d_14">
      <g>
       <use style="stroke:#000000;stroke-width:0.6;" x="308.19683" xlink:href="#mb56b3e3f64" y="388.8"/>
      </g>
     </g>
    </g>
    <g id="xtick_15">
     <g id="line2d_15">
      <g>
       <use style="stroke:#000000;stroke-width:0.6;" x="337.608934" xlink:href="#mb56b3e3f64" y="388.8"/>
      </g>
     </g>
    </g>
    <g id="xtick_16">
     <g id="line2d_16">
      <g>
       <use style="stroke:#000000;stroke-width:0.6;" x="367.021037" xlink:href="#mb56b3e3f64" y="388.8"/>
      </g>
     </g>
    </g>
    <g id="xtick_17">
     <g id="line2d_17">
      <g>
       <use style="stroke:#000000;stroke-width:0.6;" x="396.433141" xlink:href="#mb56b3e3f64" y="388.8"/>
      </g>
     </g>
    </g>
    <g id="xtick_18">
     <g id="line2d_18">
      <g>
       <use style="stroke:#000000;stroke-width:0.6;" x="425.845245" xlink:href="#mb56b3e3f64" y="388.8"/>
      </g>
     </g>
    </g>
    <g id="xtick_19">
     <g id="line2d_19">
      <g>
       <use style="stroke:#000000;stroke-width:0.6;" x="455.257349" xlink:href="#mb56b3e3f64" y="388.8"/>
      </g>
     </g>
    </g>
    <g id="xtick_20">
     <g id="line2d_20">
      <g>
       <use style="stroke:#000000;stroke-width:0.6;" x="484.669452" xlink:href="#mb56b3e3f64" y="388.8"/>
      </g>
     </g>
    </g>
    <g id="xtick_21">
     <g id="line2d_21">
      <g>
       <use style="stroke:#000000;stroke-width:0.6;" x="514.081556" xlink:href="#mb56b3e3f64" y="388.8"/>
      </g>
     </g>
    </g>
    <g id="xtick_22">
     <g id="line2d_22">
      <g>
       <use style="stroke:#000000;stroke-width:0.6;" x="543.49366" xlink:href="#mb56b3e3f64" y="388.8"/>
      </g>
     </g>
    </g>
    <g id="xtick_23">
     <g id="line2d_23">
      <g>
       <use style="stroke:#000000;stroke-width:0.6;" x="572.905764" xlink:href="#mb56b3e3f64" y="388.8"/>
      </g>
     </g>
    </g>
    <g id="xtick_24">
     <g id="line2d_24">
      <g>
       <use style="stroke:#000000;stroke-width:0.6;" x="602.317867" xlink:href="#mb56b3e3f64" y="388.8"/>
      </g>
     </g>
    </g>
    <g id="xtick_25">
     <g id="line2d_25">
      <g>
       <use style="stroke:#000000;stroke-width:0.6;" x="631.729971" xlink:href="#mb56b3e3f64" y="388.8"/>
      </g>
     </g>
    </g>
    <g id="xtick_26">
     <g id="line2d_26">
      <g>
       <use style="stroke:#000000;stroke-width:0.6;" x="661.142075" xlink:href="#mb56b3e3f64" y="388.8"/>
      </g>
     </g>
    </g>
    <g id="xtick_27">
     <g id="line2d_27">
      <g>
       <use style="stroke:#000000;stroke-width:0.6;" x="690.554179" xlink:href="#mb56b3e3f64" y="388.8"/>
      </g>
     </g>
    </g>
    <g id="xtick_28">
     <g id="line2d_28">
      <g>
       <use style="stroke:#000000;stroke-width:0.6;" x="719.966282" xlink:href="#mb56b3e3f64" y="388.8"/>
      </g>
     </g>
    </g>
    <g id="xtick_29">
     <g id="line2d_29">
      <g>
       <use style="stroke:#000000;stroke-width:0.6;" x="749.378386" xlink:href="#mb56b3e3f64" y="388.8"/>
      </g>
     </g>
    </g>
    <g id="xtick_30">
     <g id="line2d_30">
      <g>
       <use style="stroke:#000000;stroke-width:0.6;" x="778.79049" xlink:href="#mb56b3e3f64" y="388.8"/>
      </g>
     </g>
    </g>
    <g id="xtick_31">
     <g id="line2d_31">
      <g>
       <use style="stroke:#000000;stroke-width:0.6;" x="808.202594" xlink:href="#mb56b3e3f64" y="388.8"/>
      </g>
     </g>
    </g>
    <g id="xtick_32">
     <g id="line2d_32">
      <g>
       <use style="stroke:#000000;stroke-width:0.6;" x="837.614697" xlink:href="#mb56b3e3f64" y="388.8"/>
      </g>
     </g>
    </g>
    <g id="xtick_33">
     <g id="line2d_33">
      <g>
       <use style="stroke:#000000;stroke-width:0.6;" x="867.026801" xlink:href="#mb56b3e3f64" y="388.8"/>
      </g>
     </g>
    </g>
    <g id="xtick_34">
     <g id="line2d_34">
      <g>
       <use style="stroke:#000000;stroke-width:0.6;" x="896.438905" xlink:href="#mb56b3e3f64" y="388.8"/>
      </g>
     </g>
    </g>
   </g>
   <g id="matplotlib.axis_2">
    <g id="ytick_1">
     <g id="line2d_35">
      <path clip-path="url(#pf6c0ebaa56)" d="M 72.9 327.075505 
L 923.4 327.075505 
" style="fill:none;stroke:#000000;stroke-dasharray:0.8,1.32;stroke-dashoffset:0;stroke-width:0.8;"/>
     </g>
     <g id="line2d_36">
      <defs>
       <path d="M 0 0 
L -3.5 0 
" id="mc22612c139" style="stroke:#000000;stroke-width:0.8;"/>
      </defs>
      <g>
       <use style="stroke:#000000;stroke-width:0.8;" x="72.9" xlink:href="#mc22612c139" y="327.075505"/>
      </g>
     </g>
     <g id="text_6">
      <!-- −2 -->
      <defs>
       <path d="M 10.59375 35.5 
L 73.1875 35.5 
L 73.1875 27.203125 
L 10.59375 27.203125 
z
" id="DejaVuSans-2212"/>
      </defs>
      <g transform="translate(45.760937 332.394411)scale(0.14 -0.14)">
       <use xlink:href="#DejaVuSans-2212"/>
       <use x="83.789062" xlink:href="#DejaVuSans-32"/>
      </g>
     </g>
    </g>
    <g id="ytick_2">
     <g id="line2d_37">
      <path clip-path="url(#pf6c0ebaa56)" d="M 72.9 260.952321 
L 923.4 260.952321 
" style="fill:none;stroke:#000000;stroke-dasharray:0.8,1.32;stroke-dashoffset:0;stroke-width:0.8;"/>
     </g>
     <g id="line2d_38">
      <g>
       <use style="stroke:#000000;stroke-width:0.8;" x="72.9" xlink:href="#mc22612c139" y="260.952321"/>
      </g>
     </g>
     <g id="text_7">
      <!-- 0 -->
      <g transform="translate(57.4925 266.271227)scale(0.14 -0.14)">
       <use xlink:href="#DejaVuSans-30"/>
      </g>
     </g>
    </g>
    <g id="ytick_3">
     <g id="line2d_39">
      <path clip-path="url(#pf6c0ebaa56)" d="M 72.9 194.829136 
L 923.4 194.829136 
" style="fill:none;stroke:#000000;stroke-dasharray:0.8,1.32;stroke-dashoffset:0;stroke-width:0.8;"/>
     </g>
     <g id="line2d_40">
      <g>
       <use style="stroke:#000000;stroke-width:0.8;" x="72.9" xlink:href="#mc22612c139" y="194.829136"/>
      </g>
     </g>
     <g id="text_8">
      <!-- 2 -->
      <g transform="translate(57.4925 200.148043)scale(0.14 -0.14)">
       <use xlink:href="#DejaVuSans-32"/>
      </g>
     </g>
    </g>
    <g id="ytick_4">
     <g id="line2d_41">
      <path clip-path="url(#pf6c0ebaa56)" d="M 72.9 128.705952 
L 923.4 128.705952 
" style="fill:none;stroke:#000000;stroke-dasharray:0.8,1.32;stroke-dashoffset:0;stroke-width:0.8;"/>
     </g>
     <g id="line2d_42">
      <g>
       <use style="stroke:#000000;stroke-width:0.8;" x="72.9" xlink:href="#mc22612c139" y="128.705952"/>
      </g>
     </g>
     <g id="text_9">
      <!-- 4 -->
      <g transform="translate(57.4925 134.024859)scale(0.14 -0.14)">
       <use xlink:href="#DejaVuSans-34"/>
      </g>
     </g>
    </g>
    <g id="ytick_5">
     <g id="line2d_43">
      <path clip-path="url(#pf6c0ebaa56)" d="M 72.9 62.582768 
L 923.4 62.582768 
" style="fill:none;stroke:#000000;stroke-dasharray:0.8,1.32;stroke-dashoffset:0;stroke-width:0.8;"/>
     </g>
     <g id="line2d_44">
      <g>
       <use style="stroke:#000000;stroke-width:0.8;" x="72.9" xlink:href="#mc22612c139" y="62.582768"/>
      </g>
     </g>
     <g id="text_10">
      <!-- 6 -->
      <defs>
       <path d="M 33.015625 40.375 
Q 26.375 40.375 22.484375 35.828125 
Q 18.609375 31.296875 18.609375 23.390625 
Q 18.609375 15.53125 22.484375 10.953125 
Q 26.375 6.390625 33.015625 6.390625 
Q 39.65625 6.390625 43.53125 10.953125 
Q 47.40625 15.53125 47.40625 23.390625 
Q 47.40625 31.296875 43.53125 35.828125 
Q 39.65625 40.375 33.015625 40.375 
z
M 52.59375 71.296875 
L 52.59375 62.3125 
Q 48.875 64.0625 45.09375 64.984375 
Q 41.3125 65.921875 37.59375 65.921875 
Q 27.828125 65.921875 22.671875 59.328125 
Q 17.53125 52.734375 16.796875 39.40625 
Q 19.671875 43.65625 24.015625 45.921875 
Q 28.375 48.1875 33.59375 48.1875 
Q 44.578125 48.1875 50.953125 41.515625 
Q 57.328125 34.859375 57.328125 23.390625 
Q 57.328125 12.15625 50.6875 5.359375 
Q 44.046875 -1.421875 33.015625 -1.421875 
Q 20.359375 -1.421875 13.671875 8.265625 
Q 6.984375 17.96875 6.984375 36.375 
Q 6.984375 53.65625 15.1875 63.9375 
Q 23.390625 74.21875 37.203125 74.21875 
Q 40.921875 74.21875 44.703125 73.484375 
Q 48.484375 72.75 52.59375 71.296875 
z
" id="DejaVuSans-36"/>
      </defs>
      <g transform="translate(57.4925 67.901674)scale(0.14 -0.14)">
       <use xlink:href="#DejaVuSans-36"/>
      </g>
     </g>
    </g>
    <g id="text_11">
     <!-- Percentage point -->
     <defs>
      <path d="M 19.671875 64.796875 
L 19.671875 37.40625 
L 32.078125 37.40625 
Q 38.96875 37.40625 42.71875 40.96875 
Q 46.484375 44.53125 46.484375 51.125 
Q 46.484375 57.671875 42.71875 61.234375 
Q 38.96875 64.796875 32.078125 64.796875 
z
M 9.8125 72.90625 
L 32.078125 72.90625 
Q 44.34375 72.90625 50.609375 67.359375 
Q 56.890625 61.8125 56.890625 51.125 
Q 56.890625 40.328125 50.609375 34.8125 
Q 44.34375 29.296875 32.078125 29.296875 
L 19.671875 29.296875 
L 19.671875 0 
L 9.8125 0 
z
" id="DejaVuSans-50"/>
      <path d="M 56.203125 29.59375 
L 56.203125 25.203125 
L 14.890625 25.203125 
Q 15.484375 15.921875 20.484375 11.0625 
Q 25.484375 6.203125 34.421875 6.203125 
Q 39.59375 6.203125 44.453125 7.46875 
Q 49.3125 8.734375 54.109375 11.28125 
L 54.109375 2.78125 
Q 49.265625 0.734375 44.1875 -0.34375 
Q 39.109375 -1.421875 33.890625 -1.421875 
Q 20.796875 -1.421875 13.15625 6.1875 
Q 5.515625 13.8125 5.515625 26.8125 
Q 5.515625 40.234375 12.765625 48.109375 
Q 20.015625 56 32.328125 56 
Q 43.359375 56 49.78125 48.890625 
Q 56.203125 41.796875 56.203125 29.59375 
z
M 47.21875 32.234375 
Q 47.125 39.59375 43.09375 43.984375 
Q 39.0625 48.390625 32.421875 48.390625 
Q 24.90625 48.390625 20.390625 44.140625 
Q 15.875 39.890625 15.1875 32.171875 
z
" id="DejaVuSans-65"/>
      <path d="M 41.109375 46.296875 
Q 39.59375 47.171875 37.8125 47.578125 
Q 36.03125 48 33.890625 48 
Q 26.265625 48 22.1875 43.046875 
Q 18.109375 38.09375 18.109375 28.8125 
L 18.109375 0 
L 9.078125 0 
L 9.078125 54.6875 
L 18.109375 54.6875 
L 18.109375 46.1875 
Q 20.953125 51.171875 25.484375 53.578125 
Q 30.03125 56 36.53125 56 
Q 37.453125 56 38.578125 55.875 
Q 39.703125 55.765625 41.0625 55.515625 
z
" id="DejaVuSans-72"/>
      <path d="M 48.78125 52.59375 
L 48.78125 44.1875 
Q 44.96875 46.296875 41.140625 47.34375 
Q 37.3125 48.390625 33.40625 48.390625 
Q 24.65625 48.390625 19.8125 42.84375 
Q 14.984375 37.3125 14.984375 27.296875 
Q 14.984375 17.28125 19.8125 11.734375 
Q 24.65625 6.203125 33.40625 6.203125 
Q 37.3125 6.203125 41.140625 7.25 
Q 44.96875 8.296875 48.78125 10.40625 
L 48.78125 2.09375 
Q 45.015625 0.34375 40.984375 -0.53125 
Q 36.96875 -1.421875 32.421875 -1.421875 
Q 20.0625 -1.421875 12.78125 6.34375 
Q 5.515625 14.109375 5.515625 27.296875 
Q 5.515625 40.671875 12.859375 48.328125 
Q 20.21875 56 33.015625 56 
Q 37.15625 56 41.109375 55.140625 
Q 45.0625 54.296875 48.78125 52.59375 
z
" id="DejaVuSans-63"/>
      <path d="M 54.890625 33.015625 
L 54.890625 0 
L 45.90625 0 
L 45.90625 32.71875 
Q 45.90625 40.484375 42.875 44.328125 
Q 39.84375 48.1875 33.796875 48.1875 
Q 26.515625 48.1875 22.3125 43.546875 
Q 18.109375 38.921875 18.109375 30.90625 
L 18.109375 0 
L 9.078125 0 
L 9.078125 54.6875 
L 18.109375 54.6875 
L 18.109375 46.1875 
Q 21.34375 51.125 25.703125 53.5625 
Q 30.078125 56 35.796875 56 
Q 45.21875 56 50.046875 50.171875 
Q 54.890625 44.34375 54.890625 33.015625 
z
" id="DejaVuSans-6e"/>
      <path d="M 18.3125 70.21875 
L 18.3125 54.6875 
L 36.8125 54.6875 
L 36.8125 47.703125 
L 18.3125 47.703125 
L 18.3125 18.015625 
Q 18.3125 11.328125 20.140625 9.421875 
Q 21.96875 7.515625 27.59375 7.515625 
L 36.8125 7.515625 
L 36.8125 0 
L 27.59375 0 
Q 17.1875 0 13.234375 3.875 
Q 9.28125 7.765625 9.28125 18.015625 
L 9.28125 47.703125 
L 2.6875 47.703125 
L 2.6875 54.6875 
L 9.28125 54.6875 
L 9.28125 70.21875 
z
" id="DejaVuSans-74"/>
      <path d="M 34.28125 27.484375 
Q 23.390625 27.484375 19.1875 25 
Q 14.984375 22.515625 14.984375 16.5 
Q 14.984375 11.71875 18.140625 8.90625 
Q 21.296875 6.109375 26.703125 6.109375 
Q 34.1875 6.109375 38.703125 11.40625 
Q 43.21875 16.703125 43.21875 25.484375 
L 43.21875 27.484375 
z
M 52.203125 31.203125 
L 52.203125 0 
L 43.21875 0 
L 43.21875 8.296875 
Q 40.140625 3.328125 35.546875 0.953125 
Q 30.953125 -1.421875 24.3125 -1.421875 
Q 15.921875 -1.421875 10.953125 3.296875 
Q 6 8.015625 6 15.921875 
Q 6 25.140625 12.171875 29.828125 
Q 18.359375 34.515625 30.609375 34.515625 
L 43.21875 34.515625 
L 43.21875 35.40625 
Q 43.21875 41.609375 39.140625 45 
Q 35.0625 48.390625 27.6875 48.390625 
Q 23 48.390625 18.546875 47.265625 
Q 14.109375 46.140625 10.015625 43.890625 
L 10.015625 52.203125 
Q 14.9375 54.109375 19.578125 55.046875 
Q 24.21875 56 28.609375 56 
Q 40.484375 56 46.34375 49.84375 
Q 52.203125 43.703125 52.203125 31.203125 
z
" id="DejaVuSans-61"/>
      <path d="M 45.40625 27.984375 
Q 45.40625 37.75 41.375 43.109375 
Q 37.359375 48.484375 30.078125 48.484375 
Q 22.859375 48.484375 18.828125 43.109375 
Q 14.796875 37.75 14.796875 27.984375 
Q 14.796875 18.265625 18.828125 12.890625 
Q 22.859375 7.515625 30.078125 7.515625 
Q 37.359375 7.515625 41.375 12.890625 
Q 45.40625 18.265625 45.40625 27.984375 
z
M 54.390625 6.78125 
Q 54.390625 -7.171875 48.1875 -13.984375 
Q 42 -20.796875 29.203125 -20.796875 
Q 24.46875 -20.796875 20.265625 -20.09375 
Q 16.0625 -19.390625 12.109375 -17.921875 
L 12.109375 -9.1875 
Q 16.0625 -11.328125 19.921875 -12.34375 
Q 23.78125 -13.375 27.78125 -13.375 
Q 36.625 -13.375 41.015625 -8.765625 
Q 45.40625 -4.15625 45.40625 5.171875 
L 45.40625 9.625 
Q 42.625 4.78125 38.28125 2.390625 
Q 33.9375 0 27.875 0 
Q 17.828125 0 11.671875 7.65625 
Q 5.515625 15.328125 5.515625 27.984375 
Q 5.515625 40.671875 11.671875 48.328125 
Q 17.828125 56 27.875 56 
Q 33.9375 56 38.28125 53.609375 
Q 42.625 51.21875 45.40625 46.390625 
L 45.40625 54.6875 
L 54.390625 54.6875 
z
" id="DejaVuSans-67"/>
      <path id="DejaVuSans-20"/>
      <path d="M 18.109375 8.203125 
L 18.109375 -20.796875 
L 9.078125 -20.796875 
L 9.078125 54.6875 
L 18.109375 54.6875 
L 18.109375 46.390625 
Q 20.953125 51.265625 25.265625 53.625 
Q 29.59375 56 35.59375 56 
Q 45.5625 56 51.78125 48.09375 
Q 58.015625 40.1875 58.015625 27.296875 
Q 58.015625 14.40625 51.78125 6.484375 
Q 45.5625 -1.421875 35.59375 -1.421875 
Q 29.59375 -1.421875 25.265625 0.953125 
Q 20.953125 3.328125 18.109375 8.203125 
z
M 48.6875 27.296875 
Q 48.6875 37.203125 44.609375 42.84375 
Q 40.53125 48.484375 33.40625 48.484375 
Q 26.265625 48.484375 22.1875 42.84375 
Q 18.109375 37.203125 18.109375 27.296875 
Q 18.109375 17.390625 22.1875 11.75 
Q 26.265625 6.109375 33.40625 6.109375 
Q 40.53125 6.109375 44.609375 11.75 
Q 48.6875 17.390625 48.6875 27.296875 
z
" id="DejaVuSans-70"/>
      <path d="M 30.609375 48.390625 
Q 23.390625 48.390625 19.1875 42.75 
Q 14.984375 37.109375 14.984375 27.296875 
Q 14.984375 17.484375 19.15625 11.84375 
Q 23.34375 6.203125 30.609375 6.203125 
Q 37.796875 6.203125 41.984375 11.859375 
Q 46.1875 17.53125 46.1875 27.296875 
Q 46.1875 37.015625 41.984375 42.703125 
Q 37.796875 48.390625 30.609375 48.390625 
z
M 30.609375 56 
Q 42.328125 56 49.015625 48.375 
Q 55.71875 40.765625 55.71875 27.296875 
Q 55.71875 13.875 49.015625 6.21875 
Q 42.328125 -1.421875 30.609375 -1.421875 
Q 18.84375 -1.421875 12.171875 6.21875 
Q 5.515625 13.875 5.515625 27.296875 
Q 5.515625 40.765625 12.171875 48.375 
Q 18.84375 56 30.609375 56 
z
" id="DejaVuSans-6f"/>
      <path d="M 9.421875 54.6875 
L 18.40625 54.6875 
L 18.40625 0 
L 9.421875 0 
z
M 9.421875 75.984375 
L 18.40625 75.984375 
L 18.40625 64.59375 
L 9.421875 64.59375 
z
" id="DejaVuSans-69"/>
     </defs>
     <g transform="translate(38.849375 280.174375)rotate(-90)scale(0.14 -0.14)">
      <use xlink:href="#DejaVuSans-50"/>
      <use x="60.255859" xlink:href="#DejaVuSans-65"/>
      <use x="121.779297" xlink:href="#DejaVuSans-72"/>
      <use x="162.861328" xlink:href="#DejaVuSans-63"/>
      <use x="217.841797" xlink:href="#DejaVuSans-65"/>
      <use x="279.365234" xlink:href="#DejaVuSans-6e"/>
      <use x="342.744141" xlink:href="#DejaVuSans-74"/>
      <use x="381.953125" xlink:href="#DejaVuSans-61"/>
      <use x="443.232422" xlink:href="#DejaVuSans-67"/>
      <use x="506.708984" xlink:href="#DejaVuSans-65"/>
      <use x="568.232422" xlink:href="#DejaVuSans-20"/>
      <use x="600.019531" xlink:href="#DejaVuSans-70"/>
      <use x="663.496094" xlink:href="#DejaVuSans-6f"/>
      <use x="724.677734" xlink:href="#DejaVuSans-69"/>
      <use x="752.460938" xlink:href="#DejaVuSans-6e"/>
      <use x="815.839844" xlink:href="#DejaVuSans-74"/>
     </g>
    </g>
   </g>
   <g id="line2d_45">
    <path clip-path="url(#pf6c0ebaa56)" d="M 75.351009 263.350076 
L 77.802017 262.280083 
L 80.253026 265.615518 
L 82.704035 261.396533 
L 85.155043 270.345179 
L 87.606052 268.338391 
L 90.057061 264.043144 
L 92.508069 264.800897 
L 94.959078 269.014448 
L 97.410086 271.614299 
L 99.861095 273.043197 
L 102.312104 273.128163 
L 104.763112 271.819137 
L 107.214121 272.78784 
L 109.66513 263.008844 
L 112.116138 271.191626 
L 114.567147 270.751327 
L 117.018156 278.430079 
L 119.469164 276.853665 
L 121.920173 269.957553 
L 124.371182 267.209542 
L 126.82219 268.668416 
L 129.273199 268.750806 
L 131.724207 261.810017 
L 134.175216 261.220517 
L 136.626225 257.933662 
L 139.077233 254.92147 
L 141.528242 256.222599 
L 143.979251 252.291047 
L 146.430259 247.94867 
L 148.881268 249.985897 
L 151.332277 255.70558 
L 153.783285 265.269303 
L 156.234294 257.404393 
L 158.685303 253.713151 
L 161.136311 260.027622 
L 163.58732 261.800648 
L 166.038329 263.860296 
L 168.489337 262.080437 
L 170.940346 249.898174 
L 173.391354 251.369878 
L 175.842363 254.323406 
L 178.293372 251.37112 
L 180.74438 253.188701 
L 183.195389 248.641057 
L 185.646398 244.809827 
L 188.097406 238.037321 
L 190.548415 228.342937 
L 192.999424 223.193448 
L 195.450432 228.294864 
L 197.901441 223.471376 
L 200.35245 220.11636 
L 202.803458 228.449103 
L 205.254467 230.79433 
L 207.705476 221.882178 
L 210.156484 219.953396 
L 212.607493 220.876049 
L 215.058501 219.452105 
L 217.50951 226.700219 
L 219.960519 223.953883 
L 222.411527 223.268565 
L 224.862536 224.079515 
L 227.313545 211.026636 
L 229.764553 224.123771 
L 232.215562 228.105299 
L 234.666571 215.737811 
L 237.117579 218.393515 
L 239.568588 219.045609 
L 242.019597 211.943508 
L 244.470605 213.994476 
L 246.921614 221.302837 
L 249.372622 221.193887 
L 251.823631 220.916571 
L 254.27464 218.737187 
L 256.725648 214.892425 
L 259.176657 214.214471 
L 261.627666 216.388566 
L 264.078674 206.99397 
L 266.529683 207.592226 
L 268.980692 202.013793 
L 273.882709 192.70702 
L 276.333718 191.597172 
L 278.784726 198.09867 
L 281.235735 200.345726 
L 283.686744 192.675788 
L 286.137752 192.820939 
L 288.588761 191.508603 
L 291.039769 192.921933 
L 293.490778 185.77202 
L 295.941787 187.412543 
L 298.392795 185.675757 
L 300.843804 191.772975 
L 303.294813 190.911143 
L 305.745821 182.237854 
L 308.19683 187.680176 
L 310.647839 188.388628 
L 313.098847 186.460989 
L 315.549856 194.040991 
L 318.000865 193.131887 
L 320.451873 193.329972 
L 322.902882 195.992639 
L 325.35389 190.236887 
L 327.804899 183.544035 
L 330.255908 185.879095 
L 332.706916 188.87211 
L 335.157925 183.422665 
L 337.608934 182.35803 
L 340.059942 183.797532 
L 342.510951 186.285152 
L 344.96196 181.626645 
L 347.412968 186.404544 
L 349.863977 181.717456 
L 352.314986 183.335414 
L 354.765994 183.788871 
L 357.217003 183.557544 
L 359.668012 182.753201 
L 362.11902 178.798973 
L 364.570029 181.805807 
L 367.021037 181.848169 
L 369.472046 184.977508 
L 371.923055 180.640496 
L 374.374063 173.154207 
L 376.825072 183.970353 
L 379.276081 184.317717 
L 381.727089 189.217334 
L 384.178098 196.207896 
L 386.629107 192.224393 
L 389.080115 193.074213 
L 391.531124 188.048239 
L 393.982133 187.7023 
L 396.433141 182.030784 
L 398.88415 183.024263 
L 401.335159 177.044354 
L 403.786167 191.397568 
L 406.237176 194.252591 
L 408.688184 195.113403 
L 411.139193 193.275949 
L 413.590202 201.281297 
L 416.04121 196.183951 
L 418.492219 194.516 
L 420.943228 191.686324 
L 423.394236 194.233795 
L 425.845245 202.01541 
L 428.296254 188.280012 
L 430.747262 194.295339 
L 433.198271 193.049828 
L 435.64928 198.957175 
L 438.100288 198.493263 
L 440.551297 200.826182 
L 445.453314 195.403643 
L 447.904323 196.285428 
L 450.355331 199.655359 
L 452.80634 200.027397 
L 455.257349 192.775179 
L 457.708357 198.019467 
L 460.159366 193.375093 
L 462.610375 194.01426 
L 465.061383 195.101612 
L 467.512392 186.502863 
L 469.963401 201.317984 
L 472.414409 201.794252 
L 474.865418 213.891493 
L 477.316427 208.892845 
L 479.767435 210.565912 
L 482.218444 218.444054 
L 484.669452 215.239343 
L 487.120461 209.876251 
L 489.57147 206.414553 
L 492.022478 210.425635 
L 494.473487 208.508031 
L 496.924496 207.564409 
L 499.375504 209.143985 
L 501.826513 216.656025 
L 504.277522 219.131138 
L 506.72853 216.753857 
L 509.179539 215.989696 
L 514.081556 212.71801 
L 516.532565 213.359594 
L 518.983573 216.758542 
L 521.434582 210.592355 
L 523.885591 207.418809 
L 526.336599 211.68013 
L 528.787608 209.443377 
L 531.238617 209.0946 
L 533.689625 203.167119 
L 536.140634 202.544084 
L 541.042651 209.805423 
L 543.49366 212.688854 
L 545.944669 209.205142 
L 548.395677 211.80539 
L 550.846686 211.416554 
L 553.297695 209.834213 
L 555.748703 202.265075 
L 558.199712 197.713294 
L 560.65072 200.732871 
L 563.101729 208.774617 
L 565.552738 203.069135 
L 568.003746 200.735301 
L 570.454755 200.432773 
L 572.905764 200.747402 
L 575.356772 204.380253 
L 577.807781 202.657453 
L 580.25879 220.024815 
L 582.709798 213.508762 
L 585.160807 207.788448 
L 587.611816 206.142078 
L 590.062824 210.379587 
L 592.513833 202.251953 
L 594.964841 210.162616 
L 597.41585 204.682954 
L 599.866859 204.989923 
L 602.317867 201.740271 
L 604.768876 207.062821 
L 607.219885 201.747827 
L 609.670893 204.645046 
L 612.121902 197.999351 
L 614.572911 199.972502 
L 617.023919 203.951304 
L 619.474928 196.227437 
L 621.925937 204.350808 
L 624.376945 199.306287 
L 626.827954 202.518965 
L 629.278963 201.135734 
L 631.729971 205.198939 
L 634.18098 199.393321 
L 636.631988 201.895657 
L 639.082997 203.724087 
L 641.534006 203.520131 
L 643.985014 201.672483 
L 646.436023 205.260591 
L 648.887032 212.105103 
L 651.33804 221.414221 
L 653.789049 224.302402 
L 656.240058 221.110022 
L 658.691066 230.705334 
L 661.142075 223.45275 
L 663.593084 221.827026 
L 666.044092 224.576534 
L 668.495101 220.834465 
L 670.94611 224.346335 
L 673.397118 233.77222 
L 675.848127 235.981968 
L 678.299135 231.98176 
L 680.750144 232.817829 
L 683.201153 236.053547 
L 685.652161 230.144043 
L 688.10317 239.7563 
L 690.554179 242.176103 
L 693.005187 246.618472 
L 695.456196 241.982817 
L 697.907205 241.849428 
L 702.809222 251.390339 
L 705.260231 251.344208 
L 707.711239 247.890611 
L 710.162248 241.857031 
L 712.613256 246.424662 
L 715.064265 249.806058 
L 719.966282 261.662333 
L 722.417291 256.447299 
L 724.8683 256.91262 
L 727.319308 263.085903 
L 729.770317 260.625822 
L 732.221326 259.048009 
L 734.672334 263.190958 
L 737.123343 264.166355 
L 739.574352 262.631805 
L 742.02536 260.789465 
L 744.476369 263.87878 
L 746.927378 259.260862 
L 749.378386 267.670051 
L 751.829395 272.261951 
L 754.280403 276.002476 
L 756.731412 273.380132 
L 759.182421 274.020159 
L 761.633429 270.384658 
L 764.084438 274.202131 
L 766.535447 272.99961 
L 768.986455 278.722697 
L 771.437464 289.831725 
L 773.888473 286.376652 
L 776.339481 284.473339 
L 778.79049 283.353986 
L 781.241499 275.806976 
L 783.692507 275.280829 
L 786.143516 284.965646 
L 788.594524 283.046981 
L 791.045533 287.924357 
L 793.496542 287.036862 
L 795.94755 287.946992 
L 798.398559 290.594421 
L 800.849568 281.656604 
L 803.300576 282.8002 
L 805.751585 293.621247 
L 808.202594 288.996963 
L 810.653602 295.633458 
L 813.104611 297.027566 
L 815.55562 295.21574 
L 818.006628 290.12828 
L 820.457637 291.569483 
L 822.908646 296.593971 
L 825.359654 294.880448 
L 827.810663 304.333698 
L 832.71268 291.023562 
L 835.163689 288.393412 
L 837.614697 287.813735 
L 840.065706 287.945072 
L 842.516715 281.64497 
L 844.967723 289.87503 
L 847.418732 294.803839 
L 849.869741 296.34106 
L 852.320749 293.108671 
L 854.771758 289.539253 
L 857.222767 287.792424 
L 859.673775 289.664094 
L 862.124784 292.603059 
L 864.575793 291.243448 
L 867.026801 287.966168 
L 869.47781 283.254736 
L 871.928818 276.814126 
L 874.379827 281.884841 
L 876.830836 287.7092 
L 879.281844 281.285532 
L 881.732853 275.501697 
L 884.183862 278.321571 
L 886.63487 276.218894 
L 889.085879 288.687208 
L 891.536888 285.294589 
L 893.987896 288.171163 
L 896.438905 293.668454 
L 898.889914 283.045024 
L 901.340922 285.703451 
L 903.791931 292.411078 
L 906.242939 293.496074 
L 908.693948 277.375073 
L 911.144957 273.580399 
L 913.595965 284.402792 
L 916.046974 282.315757 
L 918.497983 273.469998 
L 920.948991 275.984526 
L 920.948991 275.984526 
" style="fill:none;stroke:#000000;stroke-linecap:square;stroke-width:3;"/>
   </g>
   <g id="line2d_46">
    <path clip-path="url(#pf6c0ebaa56)" d="M 77.802017 257.89436 
L 80.253026 257.633486 
L 82.704035 246.256935 
L 85.155043 247.127493 
L 87.606052 243.948168 
L 90.057061 235.321016 
L 92.508069 231.465519 
L 94.959078 229.088821 
L 97.410086 231.253946 
L 99.861095 228.232123 
L 102.312104 221.796254 
L 104.763112 214.791913 
L 107.214121 210.314177 
L 109.66513 197.582395 
L 112.116138 198.086718 
L 114.567147 194.699473 
L 117.018156 192.401235 
L 119.469164 187.277952 
L 121.920173 180.128771 
L 124.371182 176.201492 
L 126.82219 168.241579 
L 129.273199 161.144431 
L 131.724207 156.317145 
L 134.175216 150.635897 
L 136.626225 145.819832 
L 139.077233 140.713958 
L 141.528242 143.141499 
L 143.979251 137.153799 
L 146.430259 134.010296 
L 148.881268 129.748375 
L 151.332277 131.619278 
L 153.783285 137.234216 
L 156.234294 132.268777 
L 158.685303 131.76439 
L 161.136311 132.758941 
L 163.58732 134.666394 
L 166.038329 134.731808 
L 168.489337 133.89578 
L 170.940346 126.86339 
L 173.391354 121.208797 
L 175.842363 119.461213 
L 178.293372 120.766426 
L 180.74438 124.225305 
L 183.195389 124.033949 
L 185.646398 120.246484 
L 188.097406 118.805224 
L 190.548415 118.31238 
L 192.999424 123.605161 
L 195.450432 132.410309 
L 197.901441 130.706698 
L 200.35245 130.906312 
L 202.803458 139.992882 
L 205.254467 143.05818 
L 207.705476 144.082739 
L 210.156484 139.228244 
L 212.607493 140.153936 
L 215.058501 143.448345 
L 217.50951 150.373266 
L 219.960519 149.072288 
L 222.411527 145.827674 
L 224.862536 146.04519 
L 227.313545 141.770263 
L 229.764553 147.779047 
L 232.215562 153.404616 
L 234.666571 149.556646 
L 237.117579 148.655088 
L 239.568588 152.249541 
L 242.019597 150.464201 
L 244.470605 149.757313 
L 246.921614 148.021693 
L 249.372622 144.447426 
L 251.823631 143.902514 
L 254.27464 141.523706 
L 256.725648 136.258437 
L 259.176657 137.133988 
L 261.627666 137.0456 
L 264.078674 132.525071 
L 266.529683 134.192683 
L 268.980692 129.47207 
L 271.4317 125.261475 
L 273.882709 120.718003 
L 276.333718 113.647069 
L 278.784726 119.32634 
L 281.235735 118.643109 
L 283.686744 116.383762 
L 286.137752 118.783717 
L 288.588761 117.69332 
L 291.039769 117.51807 
L 293.490778 111.357581 
L 295.941787 113.867646 
L 298.392795 109.659748 
L 300.843804 108.951844 
L 303.294813 111.217228 
L 305.745821 112.186463 
L 308.19683 114.79073 
L 310.647839 114.698418 
L 313.098847 116.203641 
L 315.549856 121.834746 
L 318.000865 120.476967 
L 320.451873 120.273483 
L 322.902882 121.715896 
L 325.35389 125.614937 
L 327.804899 128.402575 
L 330.255908 136.087141 
L 332.706916 140.655322 
L 335.157925 142.985603 
L 337.608934 148.300928 
L 340.059942 152.269544 
L 342.510951 155.075085 
L 344.96196 155.815454 
L 347.412968 158.609512 
L 349.863977 159.051218 
L 352.314986 163.634821 
L 354.765994 162.342083 
L 357.217003 162.307219 
L 359.668012 161.005369 
L 362.11902 158.719872 
L 364.570029 159.464892 
L 367.021037 157.423414 
L 369.472046 159.543966 
L 371.923055 157.084113 
L 374.374063 148.949366 
L 376.825072 154.161635 
L 379.276081 154.460957 
L 381.727089 151.80148 
L 384.178098 156.382544 
L 386.629107 155.200427 
L 389.080115 158.045965 
L 391.531124 157.209857 
L 396.433141 160.662909 
L 398.88415 164.489543 
L 401.335159 161.604333 
L 403.786167 172.658684 
L 406.237176 175.876956 
L 408.688184 176.483635 
L 411.139193 178.047822 
L 413.590202 187.612984 
L 416.04121 187.885193 
L 418.492219 183.941652 
L 420.943228 178.90495 
L 423.394236 177.78022 
L 425.845245 177.134804 
L 428.296254 166.387488 
L 430.747262 166.238796 
L 433.198271 164.047985 
L 435.64928 167.374932 
L 438.100288 168.589889 
L 440.551297 168.194005 
L 443.002305 162.561149 
L 445.453314 155.15167 
L 447.904323 154.776323 
L 450.355331 155.324918 
L 452.80634 151.934952 
L 455.257349 149.272896 
L 457.708357 149.260318 
L 460.159366 144.343178 
L 462.610375 140.936314 
L 465.061383 136.658561 
L 467.512392 133.141043 
L 469.963401 140.692081 
L 472.414409 139.276466 
L 474.865418 147.470288 
L 477.316427 146.68382 
L 479.767435 148.968063 
L 482.218444 152.921922 
L 484.669452 150.219055 
L 487.120461 146.370274 
L 489.57147 145.256099 
L 492.022478 143.690419 
L 494.473487 143.192431 
L 496.924496 141.018261 
L 499.375504 143.824739 
L 501.826513 150.456333 
L 504.277522 150.828233 
L 506.72853 151.72492 
L 509.179539 151.007018 
L 511.630548 150.16579 
L 514.081556 147.05312 
L 516.532565 147.191441 
L 518.983573 150.047394 
L 521.434582 149.374581 
L 526.336599 149.5803 
L 528.787608 153.215359 
L 531.238617 153.383807 
L 533.689625 153.711456 
L 536.140634 154.78904 
L 538.591643 156.093454 
L 541.042651 162.873165 
L 543.49366 166.269352 
L 545.944669 160.194064 
L 548.395677 164.86363 
L 550.846686 171.026946 
L 553.297695 174.087112 
L 555.748703 172.646567 
L 558.199712 174.453609 
L 560.65072 177.615874 
L 563.101729 180.452718 
L 565.552738 177.970158 
L 568.003746 177.38187 
L 570.454755 178.471648 
L 572.905764 180.791186 
L 575.356772 185.839397 
L 577.807781 184.977122 
L 580.25879 191.045073 
L 582.709798 183.835551 
L 585.160807 181.035869 
L 587.611816 176.241803 
L 590.062824 176.236032 
L 592.513833 166.003504 
L 594.964841 170.167668 
L 597.41585 164.335439 
L 599.866859 161.041202 
L 602.317867 154.212455 
L 604.768876 155.858172 
L 607.219885 153.286258 
L 609.670893 151.407022 
L 612.121902 144.87547 
L 614.572911 143.467975 
L 617.023919 143.621853 
L 619.474928 137.058406 
L 621.925937 138.720005 
L 624.376945 131.559139 
L 626.827954 127.679566 
L 629.278963 124.919244 
L 631.729971 125.297935 
L 634.18098 116.184517 
L 636.631988 108.876443 
L 639.082997 105.206984 
L 641.534006 99.102791 
L 643.985014 90.365915 
L 646.436023 85.513916 
L 648.887032 87.861705 
L 651.33804 87.682213 
L 653.789049 84.013323 
L 656.240058 75.281291 
L 658.691066 76.206569 
L 661.142075 71.986423 
L 663.593084 69.465548 
L 666.044092 72.103687 
L 668.495101 67.156364 
L 670.94611 70.876737 
L 673.397118 72.556042 
L 675.848127 72.242407 
L 678.299135 69.409977 
L 680.750144 68.517589 
L 683.201153 73.168027 
L 685.652161 70.627322 
L 688.10317 73.425581 
L 690.554179 74.63858 
L 693.005187 74.96641 
L 695.456196 71.126502 
L 697.907205 69.335083 
L 700.358213 70.257122 
L 702.809222 73.507074 
L 705.260231 76.201566 
L 707.711239 72.403142 
L 712.613256 71.013713 
L 715.064265 74.716783 
L 717.515274 79.498982 
L 719.966282 82.060838 
L 722.417291 77.935214 
L 724.8683 75.347952 
L 727.319308 81.136316 
L 729.770317 79.543466 
L 732.221326 78.313254 
L 734.672334 83.098418 
L 737.123343 89.346908 
L 739.574352 84.169741 
L 742.02536 84.401268 
L 744.476369 90.630959 
L 746.927378 87.53753 
L 749.378386 85.642332 
L 751.829395 90.07361 
L 754.280403 95.691239 
L 756.731412 94.333358 
L 761.633429 94.772679 
L 764.084438 97.849144 
L 766.535447 97.712555 
L 768.986455 101.485486 
L 771.437464 112.6894 
L 773.888473 105.928845 
L 776.339481 104.701497 
L 778.79049 109.61487 
L 781.241499 104.245165 
L 783.692507 107.59694 
L 786.143516 109.947479 
L 788.594524 112.071319 
L 791.045533 114.56114 
L 793.496542 113.193185 
L 795.94755 112.759995 
L 798.398559 117.593295 
L 800.849568 116.176053 
L 803.300576 117.677757 
L 805.751585 126.203814 
L 808.202594 127.614215 
L 810.653602 137.707208 
L 813.104611 142.121377 
L 815.55562 145.313807 
L 818.006628 147.765758 
L 820.457637 152.78365 
L 822.908646 160.490415 
L 825.359654 167.566395 
L 827.810663 172.093288 
L 830.261671 169.020844 
L 832.71268 164.647693 
L 835.163689 162.639346 
L 837.614697 163.88569 
L 840.065706 163.460764 
L 842.516715 158.683344 
L 844.967723 162.957931 
L 847.418732 164.409917 
L 849.869741 162.879791 
L 852.320749 160.161901 
L 854.771758 155.508405 
L 857.222767 154.376908 
L 859.673775 156.14385 
L 862.124784 161.453884 
L 864.575793 164.290769 
L 867.026801 162.377427 
L 869.47781 161.061179 
L 871.928818 157.69362 
L 874.379827 161.311749 
L 876.830836 166.627464 
L 881.732853 165.545472 
L 884.183862 169.669335 
L 886.63487 172.103158 
L 889.085879 182.978119 
L 891.536888 183.777777 
L 893.987896 184.943102 
L 896.438905 189.106195 
L 898.889914 181.508944 
L 901.340922 180.832569 
L 903.791931 185.04184 
L 906.242939 184.020486 
L 908.693948 175.186702 
L 911.144957 173.665984 
L 913.595965 184.116832 
L 916.046974 181.970712 
L 918.497983 180.149544 
L 920.948991 184.273648 
L 920.948991 184.273648 
" style="fill:none;stroke:#000080;stroke-linecap:square;stroke-width:3;"/>
   </g>
   <g id="line2d_47">
    <path clip-path="url(#pf6c0ebaa56)" d="M 77.802017 260.678045 
L 80.253026 262.481016 
L 82.704035 267.497343 
L 85.155043 273.577834 
L 87.606052 273.539727 
L 90.057061 275.589516 
L 92.508069 278.354004 
L 94.959078 283.008218 
L 97.410086 281.723036 
L 99.861095 284.092659 
L 102.312104 288.955735 
L 107.214121 296.501801 
L 109.66513 297.305983 
L 112.116138 303.90748 
L 114.567147 304.427553 
L 117.018156 313.116519 
L 119.469164 315.266093 
L 121.920173 313.68615 
L 124.371182 313.854856 
L 126.82219 322.282007 
L 129.273199 328.493862 
L 131.724207 324.60915 
L 134.175216 329.368907 
L 136.626225 329.155536 
L 139.077233 330.055327 
L 141.528242 327.780064 
L 143.979251 328.477784 
L 146.430259 325.680959 
L 148.881268 330.671891 
L 153.783285 336.10655 
L 156.234294 332.748929 
L 158.685303 329.660141 
L 161.136311 334.294246 
L 163.58732 333.57469 
L 166.038329 335.176369 
L 168.489337 334.290885 
L 170.940346 328.755345 
L 173.391354 335.895967 
L 175.842363 340.654875 
L 178.293372 336.385454 
L 180.74438 335.062807 
L 183.195389 330.804025 
L 185.646398 330.885873 
L 188.097406 325.830912 
L 190.548415 317.73282 
L 192.999424 308.796054 
L 195.450432 306.954308 
L 200.35245 301.381452 
L 202.803458 301.953956 
L 205.254467 301.98364 
L 207.705476 293.492979 
L 210.156484 297.41595 
L 212.607493 298.877769 
L 215.058501 296.138497 
L 217.50951 297.503743 
L 219.960519 297.367243 
L 222.411527 300.692941 
L 224.862536 302.516479 
L 227.313545 294.245061 
L 229.764553 301.781734 
L 232.215562 301.170474 
L 234.666571 292.895254 
L 237.117579 297.095298 
L 239.568588 295.437265 
L 242.019597 290.105203 
L 244.470605 292.890551 
L 246.921614 302.697459 
L 249.372622 306.150177 
L 251.823631 305.620298 
L 254.27464 305.883876 
L 256.725648 308.436476 
L 259.176657 307.928307 
L 261.627666 310.41948 
L 264.078674 305.539322 
L 266.529683 304.478345 
L 268.980692 304.577661 
L 271.4317 305.272027 
L 273.882709 305.672227 
L 276.333718 312.090018 
L 278.784726 312.923671 
L 281.235735 316.864085 
L 283.686744 311.846512 
L 286.137752 310.560396 
L 288.588761 310.799214 
L 291.039769 312.799243 
L 293.490778 312.796708 
L 295.941787 313.37557 
L 298.392795 316.349929 
L 300.843804 323.401876 
L 303.294813 320.371912 
L 305.745821 310.780982 
L 308.19683 314.178419 
L 310.647839 315.040314 
L 313.098847 311.491174 
L 315.549856 313.431822 
L 318.000865 314.913086 
L 320.451873 316.181879 
L 322.902882 318.199827 
L 327.804899 299.915643 
L 330.255908 295.538896 
L 332.706916 294.356043 
L 335.157925 287.286477 
L 337.608934 282.021872 
L 340.059942 280.342735 
L 342.510951 281.128434 
L 344.96196 276.447618 
L 347.412968 278.58239 
L 349.863977 273.809309 
L 352.314986 271.072248 
L 354.765994 272.929387 
L 357.217003 273.477095 
L 359.668012 274.794038 
L 362.11902 274.127764 
L 364.570029 277.581253 
L 367.021037 280.5642 
L 369.472046 282.748394 
L 371.923055 280.850495 
L 374.374063 281.269181 
L 376.825072 288.320683 
L 379.276081 288.397091 
L 381.727089 296.116776 
L 384.178098 299.119985 
L 386.629107 295.817428 
L 389.080115 294.298522 
L 391.531124 291.138351 
L 393.982133 289.768544 
L 396.433141 283.655915 
L 398.88415 281.307047 
L 401.335159 278.188935 
L 403.786167 281.381134 
L 406.237176 280.12554 
L 408.688184 280.266214 
L 411.139193 276.267116 
L 413.590202 274.02616 
L 416.04121 266.670005 
L 418.492219 267.341012 
L 420.943228 267.80637 
L 423.394236 269.916549 
L 425.845245 275.986373 
L 428.296254 270.560112 
L 430.747262 274.849333 
L 433.198271 273.828968 
L 435.64928 274.097832 
L 438.100288 270.388127 
L 440.551297 271.734327 
L 443.002305 272.815106 
L 445.453314 276.631776 
L 447.904323 276.983292 
L 450.355331 278.899764 
L 452.80634 281.459481 
L 455.257349 275.558516 
L 457.708357 280.38186 
L 460.159366 279.375539 
L 462.610375 282.388155 
L 465.061383 287.222045 
L 467.512392 281.119505 
L 469.963401 287.723496 
L 472.414409 289.314598 
L 474.865418 292.318883 
L 477.316427 286.742892 
L 479.767435 286.127295 
L 482.218444 289.803896 
L 484.669452 288.964249 
L 487.120461 287.516021 
L 489.57147 285.621234 
L 492.022478 291.052673 
L 494.473487 290.092212 
L 496.924496 292.398998 
L 499.375504 291.233915 
L 501.826513 292.598383 
L 504.277522 295.136898 
L 506.72853 292.716826 
L 509.179539 293.409044 
L 511.630548 293.786984 
L 514.081556 296.41228 
L 516.532565 297.147152 
L 518.983573 297.610777 
L 521.434582 292.524018 
L 523.885591 290.083111 
L 526.336599 294.558043 
L 528.787608 289.079945 
L 531.238617 288.546709 
L 533.689625 283.216594 
L 536.140634 281.921993 
L 538.591643 284.536821 
L 541.042651 282.249068 
L 543.49366 282.518338 
L 545.944669 285.902712 
L 548.395677 284.652569 
L 550.846686 278.638894 
L 553.297695 274.750036 
L 555.748703 270.030749 
L 558.199712 264.959129 
L 560.65072 265.839141 
L 563.101729 271.854557 
L 565.552738 269.035353 
L 568.003746 268.35415 
L 570.454755 267.897417 
L 572.905764 266.354422 
L 575.356772 265.098213 
L 577.807781 265.27471 
L 580.25879 277.584515 
L 582.709798 278.623892 
L 585.160807 276.486422 
L 587.611816 279.631975 
L 590.062824 283.255089 
L 592.513833 285.056902 
L 594.964841 288.510141 
L 597.41585 288.312684 
L 604.768876 297.937862 
L 607.219885 294.363901 
L 609.670893 298.491684 
L 612.121902 298.03291 
L 614.572911 300.016277 
L 617.023919 302.422716 
L 619.474928 300.29527 
L 621.925937 304.25685 
L 624.376945 305.33318 
L 626.827954 310.593219 
L 629.278963 309.091654 
L 631.729971 309.005467 
L 634.18098 308.005132 
L 636.631988 313.740694 
L 639.082997 314.632706 
L 641.534006 316.241658 
L 643.985014 318.020699 
L 646.436023 322.183302 
L 648.887032 323.086725 
L 651.33804 328.611957 
L 653.789049 331.228111 
L 656.240058 332.926169 
L 658.691066 338.507992 
L 661.142075 332.185236 
L 663.593084 331.094097 
L 666.044092 329.180057 
L 668.495101 328.522945 
L 670.94611 326.981984 
L 673.397118 333.692176 
L 675.848127 335.788799 
L 678.299135 333.324623 
L 680.750144 333.709097 
L 683.201153 330.688905 
L 685.652161 326.20876 
L 688.10317 331.517273 
L 690.554179 332.223587 
L 693.005187 335.803242 
L 695.456196 334.341461 
L 697.907205 336.241629 
L 700.358213 339.348322 
L 702.809222 340.318395 
L 705.260231 337.309714 
L 707.711239 337.855958 
L 710.162248 332.659045 
L 712.613256 337.266356 
L 715.064265 337.058013 
L 717.515274 338.538111 
L 719.966282 342.363836 
L 722.417291 341.847645 
L 724.8683 345.747656 
L 727.319308 346.831342 
L 729.770317 346.621139 
L 732.221326 347.21181 
L 734.672334 347.483951 
L 737.123343 342.5701 
L 739.574352 346.5212 
L 742.02536 345.180241 
L 744.476369 343.001118 
L 746.927378 342.679871 
L 749.378386 352.712406 
L 751.829395 353.225419 
L 754.280403 352.552694 
L 756.731412 352.181687 
L 759.182421 354.112919 
L 761.633429 352.14329 
L 764.084438 354.071958 
L 766.535447 355.025824 
L 768.986455 359.17294 
L 771.437464 360.731967 
L 773.888473 363.889306 
L 776.339481 364.294577 
L 778.79049 359.947832 
L 781.241499 359.791044 
L 783.692507 358.499836 
L 786.143516 367.433576 
L 788.594524 365.652636 
L 791.045533 369.657062 
L 795.94755 373.483636 
L 798.398559 372.081768 
L 800.849568 365.631479 
L 803.300576 367.392258 
L 805.751585 371.581241 
L 808.202594 367.534183 
L 813.104611 364.160079 
L 815.55562 360.21683 
L 818.006628 354.013946 
L 820.457637 351.623397 
L 822.908646 350.536969 
L 825.359654 342.542014 
L 827.810663 349.047129 
L 830.261671 347.047372 
L 832.71268 346.288716 
L 835.163689 347.799333 
L 837.614697 347.351598 
L 840.065706 348.948166 
L 842.516715 348.247035 
L 844.967723 353.096368 
L 847.418732 357.283762 
L 849.869741 360.989704 
L 852.320749 361.038098 
L 854.771758 363.509493 
L 857.222767 364.106333 
L 859.673775 365.608815 
L 862.124784 364.472219 
L 864.575793 361.004311 
L 867.026801 360.542115 
L 869.47781 357.936231 
L 871.928818 355.847886 
L 874.379827 358.769867 
L 876.830836 360.088167 
L 879.281844 355.446172 
L 881.732853 351.220973 
L 884.183862 351.20827 
L 886.63487 347.356335 
L 889.085879 349.789705 
L 891.536888 347.235961 
L 893.987896 349.926425 
L 896.438905 352.273496 
L 898.889914 349.791726 
L 901.340922 353.728727 
L 903.791931 356.913584 
L 906.242939 359.911637 
L 908.693948 353.911717 
L 911.144957 352.707315 
L 913.595965 353.68662 
L 916.046974 354.443479 
L 918.497983 348.200887 
L 920.948991 347.605439 
L 920.948991 347.605439 
" style="fill:none;stroke:#ffa500;stroke-linecap:square;stroke-width:3;"/>
   </g>
   <g id="line2d_48">
    <path clip-path="url(#pf6c0ebaa56)" d="M 77.802017 260.984934 
L 80.253026 260.70241 
L 85.155043 261.430972 
L 87.606052 261.131167 
L 90.057061 262.073964 
L 92.508069 262.690427 
L 94.959078 263.552611 
L 97.410086 264.250032 
L 99.861095 265.458566 
L 102.312104 266.358786 
L 104.763112 267.66658 
L 107.214121 268.634032 
L 109.66513 270.218417 
L 112.116138 270.782268 
L 114.567147 272.731556 
L 117.018156 273.618454 
L 119.469164 274.640192 
L 121.920173 276.12686 
L 129.273199 278.278581 
L 131.724207 279.807692 
L 134.175216 279.941425 
L 136.626225 281.493819 
L 141.528242 283.506564 
L 143.979251 284.724328 
L 146.430259 286.189905 
L 148.881268 287.384708 
L 153.783285 289.546036 
L 156.234294 289.913328 
L 158.685303 289.734009 
L 163.58732 290.868046 
L 166.038329 291.203373 
L 168.489337 291.090332 
L 170.940346 291.424442 
L 178.293372 291.247312 
L 180.74438 290.894728 
L 185.646398 290.614124 
L 188.097406 290.311924 
L 190.548415 289.184619 
L 192.999424 287.656705 
L 195.450432 285.775649 
L 197.901441 285.376322 
L 200.35245 284.641926 
L 202.803458 283.301601 
L 205.254467 282.539288 
L 207.705476 281.081182 
L 210.156484 280.073943 
L 212.607493 278.599925 
L 215.058501 276.612395 
L 217.50951 275.562643 
L 219.960519 274.246932 
L 222.411527 273.474619 
L 224.862536 272.238972 
L 229.764553 271.274343 
L 232.215562 270.237286 
L 234.666571 269.98905 
L 237.117579 269.342982 
L 239.568588 268.055553 
L 244.470605 268.038034 
L 246.921614 267.273074 
L 249.372622 267.283733 
L 251.823631 268.079376 
L 254.27464 268.013585 
L 259.176657 265.833332 
L 261.627666 265.603443 
L 266.529683 265.598916 
L 271.4317 263.617875 
L 273.882709 262.992052 
L 276.333718 262.534704 
L 278.784726 262.522642 
L 281.235735 261.511963 
L 283.686744 261.118408 
L 286.137752 260.14925 
L 291.039769 259.276241 
L 293.490778 258.289012 
L 295.941787 256.8403 
L 298.392795 256.336777 
L 300.843804 256.089708 
L 305.745821 255.940382 
L 308.19683 255.380806 
L 310.647839 255.319497 
L 315.549856 255.443704 
L 318.000865 254.410984 
L 322.902882 252.745837 
L 325.35389 252.253137 
L 327.804899 251.894527 
L 330.255908 250.921682 
L 332.706916 250.529293 
L 335.157925 249.819061 
L 337.608934 248.703641 
L 340.059942 247.853607 
L 342.510951 246.749938 
L 344.96196 246.031832 
L 347.412968 245.880861 
L 349.863977 245.52511 
L 352.314986 245.296492 
L 354.765994 245.185518 
L 359.668012 243.621861 
L 362.11902 242.619382 
L 364.570029 241.427688 
L 367.021037 240.528564 
L 369.472046 239.353142 
L 371.923055 239.373867 
L 374.374063 239.603627 
L 376.825072 238.15599 
L 379.276081 238.127614 
L 381.727089 237.967013 
L 384.178098 237.373295 
L 386.629107 237.874457 
L 389.080115 237.397637 
L 391.531124 236.367935 
L 393.982133 235.636811 
L 396.433141 234.379853 
L 398.88415 233.895562 
L 403.786167 234.025631 
L 406.237176 234.917972 
L 408.688184 235.031428 
L 413.590202 236.310022 
L 416.04121 238.29662 
L 418.492219 239.901199 
L 420.943228 241.642866 
L 423.394236 243.204886 
L 428.296254 248.00027 
L 433.198271 251.84073 
L 435.64928 254.152265 
L 438.100288 256.183099 
L 440.551297 257.565703 
L 443.002305 259.436093 
L 450.355331 262.098527 
L 455.257349 264.611616 
L 457.708357 265.045137 
L 460.159366 266.324225 
L 462.610375 267.357639 
L 465.061383 267.888854 
L 467.512392 268.910162 
L 469.963401 269.570253 
L 472.414409 269.871036 
L 474.865418 270.770169 
L 477.316427 272.133979 
L 479.767435 272.138399 
L 484.669452 272.723885 
L 487.120461 272.657802 
L 489.57147 272.205066 
L 492.022478 272.350389 
L 494.473487 271.891234 
L 496.924496 270.814996 
L 499.375504 270.753176 
L 504.277522 269.833853 
L 509.179539 268.241479 
L 514.081556 265.920454 
L 516.532565 265.688847 
L 518.983573 265.768217 
L 521.434582 265.361601 
L 523.885591 264.49072 
L 526.336599 264.209632 
L 528.787608 263.815917 
L 531.238617 263.831928 
L 533.689625 262.906913 
L 536.140634 262.500896 
L 538.591643 262.296134 
L 541.042651 261.351035 
L 548.395677 258.957036 
L 550.846686 258.418558 
L 553.297695 257.664909 
L 558.199712 254.968401 
L 560.65072 253.945701 
L 563.101729 253.135186 
L 565.552738 252.731469 
L 568.003746 251.667126 
L 570.454755 250.731552 
L 572.905764 250.269638 
L 575.356772 250.110488 
L 580.25879 248.063072 
L 582.709798 247.717164 
L 585.160807 246.934001 
L 587.611816 246.936143 
L 590.062824 247.556311 
L 594.964841 248.152651 
L 597.41585 248.702676 
L 602.317867 249.46933 
L 604.768876 249.934631 
L 607.219885 250.765513 
L 609.670893 251.414184 
L 612.121902 251.758816 
L 617.023919 254.57458 
L 619.474928 255.541605 
L 621.925937 258.041798 
L 624.376945 259.081812 
L 626.827954 260.914025 
L 629.278963 263.792681 
L 631.729971 267.563382 
L 634.18098 271.871516 
L 636.631988 275.946365 
L 639.082997 280.552241 
L 641.534006 284.843526 
L 643.985014 289.953714 
L 646.436023 294.231217 
L 648.887032 297.824517 
L 656.240058 309.570406 
L 658.691066 312.658618 
L 661.142075 315.948936 
L 668.495101 321.823001 
L 670.94611 323.155458 
L 673.397118 324.191847 
L 675.848127 324.618607 
L 680.750144 327.258988 
L 683.201153 328.864459 
L 685.652161 329.975805 
L 688.10317 331.48129 
L 693.005187 332.516664 
L 695.456196 333.182698 
L 697.907205 332.940561 
L 702.809222 334.232715 
L 705.260231 334.500773 
L 710.162248 334.158481 
L 712.613256 334.812437 
L 715.064265 334.699106 
L 717.515274 334.471259 
L 722.417291 333.332285 
L 724.8683 332.484856 
L 729.770317 331.129063 
L 734.672334 329.276433 
L 739.574352 328.608708 
L 742.02536 327.875801 
L 744.476369 326.914547 
L 746.927378 325.711306 
L 749.378386 325.983158 
L 751.829395 325.630768 
L 754.280403 324.426388 
L 756.731412 323.532931 
L 759.182421 321.978045 
L 761.633429 320.136533 
L 764.084438 318.948875 
L 766.535447 316.929076 
L 768.986455 314.732116 
L 771.437464 313.078202 
L 773.888473 313.226345 
L 776.339481 312.145109 
L 778.79049 310.459129 
L 781.241499 308.438612 
L 783.692507 305.851898 
L 786.143516 304.252435 
L 788.594524 301.990871 
L 791.045533 300.374 
L 793.496542 298.891771 
L 795.94755 298.371204 
L 798.398559 297.587203 
L 800.849568 296.516917 
L 803.300576 294.39803 
L 810.653602 288.761853 
L 813.104611 287.413955 
L 815.55562 286.352947 
L 818.006628 285.01642 
L 820.457637 283.83028 
L 822.908646 282.234432 
L 825.359654 281.439884 
L 832.71268 276.754997 
L 835.163689 274.622577 
L 837.614697 273.244291 
L 840.065706 272.203987 
L 847.418732 269.778005 
L 852.320749 268.576517 
L 854.771758 267.189199 
L 857.222767 265.977028 
L 859.673775 264.579273 
L 862.124784 263.344801 
L 864.575793 262.616212 
L 871.928818 259.940464 
L 874.379827 258.47107 
L 876.830836 257.661414 
L 879.281844 256.364571 
L 881.732853 255.403097 
L 884.183862 254.11181 
L 886.63487 253.427246 
L 889.085879 252.587228 
L 891.536888 250.948697 
L 896.438905 248.956607 
L 901.340922 247.809999 
L 903.791931 247.123499 
L 906.242939 246.231796 
L 908.693948 244.944499 
L 911.144957 243.874944 
L 916.046974 242.56941 
L 918.497983 241.787412 
L 920.948991 240.773284 
L 920.948991 240.773284 
" style="fill:none;stroke:#800000;stroke-linecap:square;stroke-width:3;"/>
   </g>
   <g id="line2d_49">
    <path clip-path="url(#pf6c0ebaa56)" d="M 72.9 260.952321 
L 923.4 260.952321 
" style="fill:none;stroke:#000000;stroke-linecap:square;stroke-width:2;"/>
   </g>
   <g id="patch_3">
    <path d="M 72.9 388.8 
L 923.4 388.8 
" style="fill:none;stroke:#000000;stroke-linecap:square;stroke-linejoin:miter;stroke-width:0.8;"/>
   </g>
   <g id="text_12">
    <!-- Monthly observations; seasonally adjusted; Percentage point change since March 1993; Women -->
    <defs>
     <path d="M 9.8125 72.90625 
L 24.515625 72.90625 
L 43.109375 23.296875 
L 61.8125 72.90625 
L 76.515625 72.90625 
L 76.515625 0 
L 66.890625 0 
L 66.890625 64.015625 
L 48.09375 14.015625 
L 38.1875 14.015625 
L 19.390625 64.015625 
L 19.390625 0 
L 9.8125 0 
z
" id="DejaVuSans-4d"/>
     <path d="M 54.890625 33.015625 
L 54.890625 0 
L 45.90625 0 
L 45.90625 32.71875 
Q 45.90625 40.484375 42.875 44.328125 
Q 39.84375 48.1875 33.796875 48.1875 
Q 26.515625 48.1875 22.3125 43.546875 
Q 18.109375 38.921875 18.109375 30.90625 
L 18.109375 0 
L 9.078125 0 
L 9.078125 75.984375 
L 18.109375 75.984375 
L 18.109375 46.1875 
Q 21.34375 51.125 25.703125 53.5625 
Q 30.078125 56 35.796875 56 
Q 45.21875 56 50.046875 50.171875 
Q 54.890625 44.34375 54.890625 33.015625 
z
" id="DejaVuSans-68"/>
     <path d="M 9.421875 75.984375 
L 18.40625 75.984375 
L 18.40625 0 
L 9.421875 0 
z
" id="DejaVuSans-6c"/>
     <path d="M 32.171875 -5.078125 
Q 28.375 -14.84375 24.75 -17.8125 
Q 21.140625 -20.796875 15.09375 -20.796875 
L 7.90625 -20.796875 
L 7.90625 -13.28125 
L 13.1875 -13.28125 
Q 16.890625 -13.28125 18.9375 -11.515625 
Q 21 -9.765625 23.484375 -3.21875 
L 25.09375 0.875 
L 2.984375 54.6875 
L 12.5 54.6875 
L 29.59375 11.921875 
L 46.6875 54.6875 
L 56.203125 54.6875 
z
" id="DejaVuSans-79"/>
     <path d="M 48.6875 27.296875 
Q 48.6875 37.203125 44.609375 42.84375 
Q 40.53125 48.484375 33.40625 48.484375 
Q 26.265625 48.484375 22.1875 42.84375 
Q 18.109375 37.203125 18.109375 27.296875 
Q 18.109375 17.390625 22.1875 11.75 
Q 26.265625 6.109375 33.40625 6.109375 
Q 40.53125 6.109375 44.609375 11.75 
Q 48.6875 17.390625 48.6875 27.296875 
z
M 18.109375 46.390625 
Q 20.953125 51.265625 25.265625 53.625 
Q 29.59375 56 35.59375 56 
Q 45.5625 56 51.78125 48.09375 
Q 58.015625 40.1875 58.015625 27.296875 
Q 58.015625 14.40625 51.78125 6.484375 
Q 45.5625 -1.421875 35.59375 -1.421875 
Q 29.59375 -1.421875 25.265625 0.953125 
Q 20.953125 3.328125 18.109375 8.203125 
L 18.109375 0 
L 9.078125 0 
L 9.078125 75.984375 
L 18.109375 75.984375 
z
" id="DejaVuSans-62"/>
     <path d="M 44.28125 53.078125 
L 44.28125 44.578125 
Q 40.484375 46.53125 36.375 47.5 
Q 32.28125 48.484375 27.875 48.484375 
Q 21.1875 48.484375 17.84375 46.4375 
Q 14.5 44.390625 14.5 40.28125 
Q 14.5 37.15625 16.890625 35.375 
Q 19.28125 33.59375 26.515625 31.984375 
L 29.59375 31.296875 
Q 39.15625 29.25 43.1875 25.515625 
Q 47.21875 21.78125 47.21875 15.09375 
Q 47.21875 7.46875 41.1875 3.015625 
Q 35.15625 -1.421875 24.609375 -1.421875 
Q 20.21875 -1.421875 15.453125 -0.5625 
Q 10.6875 0.296875 5.421875 2 
L 5.421875 11.28125 
Q 10.40625 8.6875 15.234375 7.390625 
Q 20.0625 6.109375 24.8125 6.109375 
Q 31.15625 6.109375 34.5625 8.28125 
Q 37.984375 10.453125 37.984375 14.40625 
Q 37.984375 18.0625 35.515625 20.015625 
Q 33.0625 21.96875 24.703125 23.78125 
L 21.578125 24.515625 
Q 13.234375 26.265625 9.515625 29.90625 
Q 5.8125 33.546875 5.8125 39.890625 
Q 5.8125 47.609375 11.28125 51.796875 
Q 16.75 56 26.8125 56 
Q 31.78125 56 36.171875 55.265625 
Q 40.578125 54.546875 44.28125 53.078125 
z
" id="DejaVuSans-73"/>
     <path d="M 2.984375 54.6875 
L 12.5 54.6875 
L 29.59375 8.796875 
L 46.6875 54.6875 
L 56.203125 54.6875 
L 35.6875 0 
L 23.484375 0 
z
" id="DejaVuSans-76"/>
     <path d="M 11.71875 51.703125 
L 22.015625 51.703125 
L 22.015625 39.3125 
L 11.71875 39.3125 
z
M 11.71875 12.40625 
L 22.015625 12.40625 
L 22.015625 4 
L 14.015625 -11.625 
L 7.71875 -11.625 
L 11.71875 4 
z
" id="DejaVuSans-3b"/>
     <path d="M 45.40625 46.390625 
L 45.40625 75.984375 
L 54.390625 75.984375 
L 54.390625 0 
L 45.40625 0 
L 45.40625 8.203125 
Q 42.578125 3.328125 38.25 0.953125 
Q 33.9375 -1.421875 27.875 -1.421875 
Q 17.96875 -1.421875 11.734375 6.484375 
Q 5.515625 14.40625 5.515625 27.296875 
Q 5.515625 40.1875 11.734375 48.09375 
Q 17.96875 56 27.875 56 
Q 33.9375 56 38.25 53.625 
Q 42.578125 51.265625 45.40625 46.390625 
z
M 14.796875 27.296875 
Q 14.796875 17.390625 18.875 11.75 
Q 22.953125 6.109375 30.078125 6.109375 
Q 37.203125 6.109375 41.296875 11.75 
Q 45.40625 17.390625 45.40625 27.296875 
Q 45.40625 37.203125 41.296875 42.84375 
Q 37.203125 48.484375 30.078125 48.484375 
Q 22.953125 48.484375 18.875 42.84375 
Q 14.796875 37.203125 14.796875 27.296875 
z
" id="DejaVuSans-64"/>
     <path d="M 9.421875 54.6875 
L 18.40625 54.6875 
L 18.40625 -0.984375 
Q 18.40625 -11.421875 14.421875 -16.109375 
Q 10.453125 -20.796875 1.609375 -20.796875 
L -1.8125 -20.796875 
L -1.8125 -13.1875 
L 0.59375 -13.1875 
Q 5.71875 -13.1875 7.5625 -10.8125 
Q 9.421875 -8.453125 9.421875 -0.984375 
z
M 9.421875 75.984375 
L 18.40625 75.984375 
L 18.40625 64.59375 
L 9.421875 64.59375 
z
" id="DejaVuSans-6a"/>
     <path d="M 8.5 21.578125 
L 8.5 54.6875 
L 17.484375 54.6875 
L 17.484375 21.921875 
Q 17.484375 14.15625 20.5 10.265625 
Q 23.53125 6.390625 29.59375 6.390625 
Q 36.859375 6.390625 41.078125 11.03125 
Q 45.3125 15.671875 45.3125 23.6875 
L 45.3125 54.6875 
L 54.296875 54.6875 
L 54.296875 0 
L 45.3125 0 
L 45.3125 8.40625 
Q 42.046875 3.421875 37.71875 1 
Q 33.40625 -1.421875 27.6875 -1.421875 
Q 18.265625 -1.421875 13.375 4.4375 
Q 8.5 10.296875 8.5 21.578125 
z
M 31.109375 56 
z
" id="DejaVuSans-75"/>
     <path d="M 40.578125 39.3125 
Q 47.65625 37.796875 51.625 33 
Q 55.609375 28.21875 55.609375 21.1875 
Q 55.609375 10.40625 48.1875 4.484375 
Q 40.765625 -1.421875 27.09375 -1.421875 
Q 22.515625 -1.421875 17.65625 -0.515625 
Q 12.796875 0.390625 7.625 2.203125 
L 7.625 11.71875 
Q 11.71875 9.328125 16.59375 8.109375 
Q 21.484375 6.890625 26.8125 6.890625 
Q 36.078125 6.890625 40.9375 10.546875 
Q 45.796875 14.203125 45.796875 21.1875 
Q 45.796875 27.640625 41.28125 31.265625 
Q 36.765625 34.90625 28.71875 34.90625 
L 20.21875 34.90625 
L 20.21875 43.015625 
L 29.109375 43.015625 
Q 36.375 43.015625 40.234375 45.921875 
Q 44.09375 48.828125 44.09375 54.296875 
Q 44.09375 59.90625 40.109375 62.90625 
Q 36.140625 65.921875 28.71875 65.921875 
Q 24.65625 65.921875 20.015625 65.03125 
Q 15.375 64.15625 9.8125 62.3125 
L 9.8125 71.09375 
Q 15.4375 72.65625 20.34375 73.4375 
Q 25.25 74.21875 29.59375 74.21875 
Q 40.828125 74.21875 47.359375 69.109375 
Q 53.90625 64.015625 53.90625 55.328125 
Q 53.90625 49.265625 50.4375 45.09375 
Q 46.96875 40.921875 40.578125 39.3125 
z
" id="DejaVuSans-33"/>
     <path d="M 3.328125 72.90625 
L 13.28125 72.90625 
L 28.609375 11.28125 
L 43.890625 72.90625 
L 54.984375 72.90625 
L 70.3125 11.28125 
L 85.59375 72.90625 
L 95.609375 72.90625 
L 77.296875 0 
L 64.890625 0 
L 49.515625 63.28125 
L 33.984375 0 
L 21.578125 0 
z
" id="DejaVuSans-57"/>
     <path d="M 52 44.1875 
Q 55.375 50.25 60.0625 53.125 
Q 64.75 56 71.09375 56 
Q 79.640625 56 84.28125 50.015625 
Q 88.921875 44.046875 88.921875 33.015625 
L 88.921875 0 
L 79.890625 0 
L 79.890625 32.71875 
Q 79.890625 40.578125 77.09375 44.375 
Q 74.3125 48.1875 68.609375 48.1875 
Q 61.625 48.1875 57.5625 43.546875 
Q 53.515625 38.921875 53.515625 30.90625 
L 53.515625 0 
L 44.484375 0 
L 44.484375 32.71875 
Q 44.484375 40.625 41.703125 44.40625 
Q 38.921875 48.1875 33.109375 48.1875 
Q 26.21875 48.1875 22.15625 43.53125 
Q 18.109375 38.875 18.109375 30.90625 
L 18.109375 0 
L 9.078125 0 
L 9.078125 54.6875 
L 18.109375 54.6875 
L 18.109375 46.1875 
Q 21.1875 51.21875 25.484375 53.609375 
Q 29.78125 56 35.6875 56 
Q 41.65625 56 45.828125 52.96875 
Q 50 49.953125 52 44.1875 
z
" id="DejaVuSans-6d"/>
    </defs>
    <g transform="translate(72.9 45.84)scale(0.14 -0.14)">
     <use xlink:href="#DejaVuSans-4d"/>
     <use x="86.279297" xlink:href="#DejaVuSans-6f"/>
     <use x="147.460938" xlink:href="#DejaVuSans-6e"/>
     <use x="210.839844" xlink:href="#DejaVuSans-74"/>
     <use x="250.048828" xlink:href="#DejaVuSans-68"/>
     <use x="313.427734" xlink:href="#DejaVuSans-6c"/>
     <use x="341.210938" xlink:href="#DejaVuSans-79"/>
     <use x="400.390625" xlink:href="#DejaVuSans-20"/>
     <use x="432.177734" xlink:href="#DejaVuSans-6f"/>
     <use x="493.359375" xlink:href="#DejaVuSans-62"/>
     <use x="556.835938" xlink:href="#DejaVuSans-73"/>
     <use x="608.935547" xlink:href="#DejaVuSans-65"/>
     <use x="670.458984" xlink:href="#DejaVuSans-72"/>
     <use x="711.572266" xlink:href="#DejaVuSans-76"/>
     <use x="770.751953" xlink:href="#DejaVuSans-61"/>
     <use x="832.03125" xlink:href="#DejaVuSans-74"/>
     <use x="871.240234" xlink:href="#DejaVuSans-69"/>
     <use x="899.023438" xlink:href="#DejaVuSans-6f"/>
     <use x="960.205078" xlink:href="#DejaVuSans-6e"/>
     <use x="1023.583984" xlink:href="#DejaVuSans-73"/>
     <use x="1075.683594" xlink:href="#DejaVuSans-3b"/>
     <use x="1109.375" xlink:href="#DejaVuSans-20"/>
     <use x="1141.162109" xlink:href="#DejaVuSans-73"/>
     <use x="1193.261719" xlink:href="#DejaVuSans-65"/>
     <use x="1254.785156" xlink:href="#DejaVuSans-61"/>
     <use x="1316.064453" xlink:href="#DejaVuSans-73"/>
     <use x="1368.164062" xlink:href="#DejaVuSans-6f"/>
     <use x="1429.345703" xlink:href="#DejaVuSans-6e"/>
     <use x="1492.724609" xlink:href="#DejaVuSans-61"/>
     <use x="1554.003906" xlink:href="#DejaVuSans-6c"/>
     <use x="1581.787109" xlink:href="#DejaVuSans-6c"/>
     <use x="1609.570312" xlink:href="#DejaVuSans-79"/>
     <use x="1668.75" xlink:href="#DejaVuSans-20"/>
     <use x="1700.537109" xlink:href="#DejaVuSans-61"/>
     <use x="1761.816406" xlink:href="#DejaVuSans-64"/>
     <use x="1825.292969" xlink:href="#DejaVuSans-6a"/>
     <use x="1853.076172" xlink:href="#DejaVuSans-75"/>
     <use x="1916.455078" xlink:href="#DejaVuSans-73"/>
     <use x="1968.554688" xlink:href="#DejaVuSans-74"/>
     <use x="2007.763672" xlink:href="#DejaVuSans-65"/>
     <use x="2069.287109" xlink:href="#DejaVuSans-64"/>
     <use x="2132.763672" xlink:href="#DejaVuSans-3b"/>
     <use x="2166.455078" xlink:href="#DejaVuSans-20"/>
     <use x="2198.242188" xlink:href="#DejaVuSans-50"/>
     <use x="2258.498047" xlink:href="#DejaVuSans-65"/>
     <use x="2320.021484" xlink:href="#DejaVuSans-72"/>
     <use x="2361.103516" xlink:href="#DejaVuSans-63"/>
     <use x="2416.083984" xlink:href="#DejaVuSans-65"/>
     <use x="2477.607422" xlink:href="#DejaVuSans-6e"/>
     <use x="2540.986328" xlink:href="#DejaVuSans-74"/>
     <use x="2580.195312" xlink:href="#DejaVuSans-61"/>
     <use x="2641.474609" xlink:href="#DejaVuSans-67"/>
     <use x="2704.951172" xlink:href="#DejaVuSans-65"/>
     <use x="2766.474609" xlink:href="#DejaVuSans-20"/>
     <use x="2798.261719" xlink:href="#DejaVuSans-70"/>
     <use x="2861.738281" xlink:href="#DejaVuSans-6f"/>
     <use x="2922.919922" xlink:href="#DejaVuSans-69"/>
     <use x="2950.703125" xlink:href="#DejaVuSans-6e"/>
     <use x="3014.082031" xlink:href="#DejaVuSans-74"/>
     <use x="3053.291016" xlink:href="#DejaVuSans-20"/>
     <use x="3085.078125" xlink:href="#DejaVuSans-63"/>
     <use x="3140.058594" xlink:href="#DejaVuSans-68"/>
     <use x="3203.4375" xlink:href="#DejaVuSans-61"/>
     <use x="3264.716797" xlink:href="#DejaVuSans-6e"/>
     <use x="3328.095703" xlink:href="#DejaVuSans-67"/>
     <use x="3391.572266" xlink:href="#DejaVuSans-65"/>
     <use x="3453.095703" xlink:href="#DejaVuSans-20"/>
     <use x="3484.882812" xlink:href="#DejaVuSans-73"/>
     <use x="3536.982422" xlink:href="#DejaVuSans-69"/>
     <use x="3564.765625" xlink:href="#DejaVuSans-6e"/>
     <use x="3628.144531" xlink:href="#DejaVuSans-63"/>
     <use x="3683.125" xlink:href="#DejaVuSans-65"/>
     <use x="3744.648438" xlink:href="#DejaVuSans-20"/>
     <use x="3776.435547" xlink:href="#DejaVuSans-4d"/>
     <use x="3862.714844" xlink:href="#DejaVuSans-61"/>
     <use x="3923.994141" xlink:href="#DejaVuSans-72"/>
     <use x="3965.076172" xlink:href="#DejaVuSans-63"/>
     <use x="4020.056641" xlink:href="#DejaVuSans-68"/>
     <use x="4083.435547" xlink:href="#DejaVuSans-20"/>
     <use x="4115.222656" xlink:href="#DejaVuSans-31"/>
     <use x="4178.845703" xlink:href="#DejaVuSans-39"/>
     <use x="4242.46875" xlink:href="#DejaVuSans-39"/>
     <use x="4306.091797" xlink:href="#DejaVuSans-33"/>
     <use x="4369.714844" xlink:href="#DejaVuSans-3b"/>
     <use x="4403.40625" xlink:href="#DejaVuSans-20"/>
     <use x="4435.193359" xlink:href="#DejaVuSans-57"/>
     <use x="4533.992188" xlink:href="#DejaVuSans-6f"/>
     <use x="4595.173828" xlink:href="#DejaVuSans-6d"/>
     <use x="4692.585938" xlink:href="#DejaVuSans-65"/>
     <use x="4754.109375" xlink:href="#DejaVuSans-6e"/>
    </g>
   </g>
   <g id="legend_1">
    <g id="patch_4">
     <path d="M 432.113437 382.8 
L 564.186563 382.8 
Q 566.586563 382.8 566.586563 380.4 
L 566.586563 311.145 
Q 566.586563 308.745 564.186563 308.745 
L 432.113437 308.745 
Q 429.713437 308.745 429.713437 311.145 
L 429.713437 380.4 
Q 429.713437 382.8 432.113437 382.8 
z
" style="fill:#ffffff;opacity:0.8;stroke:#cccccc;stroke-linejoin:miter;"/>
    </g>
    <g id="line2d_50">
     <path d="M 434.513438 318.463125 
L 458.513438 318.463125 
" style="fill:none;stroke:#000000;stroke-linecap:square;stroke-width:3;"/>
    </g>
    <g id="line2d_51"/>
    <g id="text_13">
     <!-- Change in LFPR -->
     <defs>
      <path d="M 64.40625 67.28125 
L 64.40625 56.890625 
Q 59.421875 61.53125 53.78125 63.8125 
Q 48.140625 66.109375 41.796875 66.109375 
Q 29.296875 66.109375 22.65625 58.46875 
Q 16.015625 50.828125 16.015625 36.375 
Q 16.015625 21.96875 22.65625 14.328125 
Q 29.296875 6.6875 41.796875 6.6875 
Q 48.140625 6.6875 53.78125 8.984375 
Q 59.421875 11.28125 64.40625 15.921875 
L 64.40625 5.609375 
Q 59.234375 2.09375 53.4375 0.328125 
Q 47.65625 -1.421875 41.21875 -1.421875 
Q 24.65625 -1.421875 15.125 8.703125 
Q 5.609375 18.84375 5.609375 36.375 
Q 5.609375 53.953125 15.125 64.078125 
Q 24.65625 74.21875 41.21875 74.21875 
Q 47.75 74.21875 53.53125 72.484375 
Q 59.328125 70.75 64.40625 67.28125 
z
" id="DejaVuSans-43"/>
      <path d="M 9.8125 72.90625 
L 19.671875 72.90625 
L 19.671875 8.296875 
L 55.171875 8.296875 
L 55.171875 0 
L 9.8125 0 
z
" id="DejaVuSans-4c"/>
      <path d="M 9.8125 72.90625 
L 51.703125 72.90625 
L 51.703125 64.59375 
L 19.671875 64.59375 
L 19.671875 43.109375 
L 48.578125 43.109375 
L 48.578125 34.8125 
L 19.671875 34.8125 
L 19.671875 0 
L 9.8125 0 
z
" id="DejaVuSans-46"/>
      <path d="M 44.390625 34.1875 
Q 47.5625 33.109375 50.5625 29.59375 
Q 53.5625 26.078125 56.59375 19.921875 
L 66.609375 0 
L 56 0 
L 46.6875 18.703125 
Q 43.0625 26.03125 39.671875 28.421875 
Q 36.28125 30.8125 30.421875 30.8125 
L 19.671875 30.8125 
L 19.671875 0 
L 9.8125 0 
L 9.8125 72.90625 
L 32.078125 72.90625 
Q 44.578125 72.90625 50.734375 67.671875 
Q 56.890625 62.453125 56.890625 51.90625 
Q 56.890625 45.015625 53.6875 40.46875 
Q 50.484375 35.9375 44.390625 34.1875 
z
M 19.671875 64.796875 
L 19.671875 38.921875 
L 32.078125 38.921875 
Q 39.203125 38.921875 42.84375 42.21875 
Q 46.484375 45.515625 46.484375 51.90625 
Q 46.484375 58.296875 42.84375 61.546875 
Q 39.203125 64.796875 32.078125 64.796875 
z
" id="DejaVuSans-52"/>
     </defs>
     <g transform="translate(468.113438 322.663125)scale(0.12 -0.12)">
      <use xlink:href="#DejaVuSans-43"/>
      <use x="69.824219" xlink:href="#DejaVuSans-68"/>
      <use x="133.203125" xlink:href="#DejaVuSans-61"/>
      <use x="194.482422" xlink:href="#DejaVuSans-6e"/>
      <use x="257.861328" xlink:href="#DejaVuSans-67"/>
      <use x="321.337891" xlink:href="#DejaVuSans-65"/>
      <use x="382.861328" xlink:href="#DejaVuSans-20"/>
      <use x="414.648438" xlink:href="#DejaVuSans-69"/>
      <use x="442.431641" xlink:href="#DejaVuSans-6e"/>
      <use x="505.810547" xlink:href="#DejaVuSans-20"/>
      <use x="537.597656" xlink:href="#DejaVuSans-4c"/>
      <use x="593.310547" xlink:href="#DejaVuSans-46"/>
      <use x="650.830078" xlink:href="#DejaVuSans-50"/>
      <use x="711.132812" xlink:href="#DejaVuSans-52"/>
     </g>
    </g>
    <g id="line2d_52">
     <path d="M 434.513438 336.076875 
L 458.513438 336.076875 
" style="fill:none;stroke:#000080;stroke-linecap:square;stroke-width:3;"/>
    </g>
    <g id="line2d_53"/>
    <g id="text_14">
     <!-- Exit -->
     <defs>
      <path d="M 9.8125 72.90625 
L 55.90625 72.90625 
L 55.90625 64.59375 
L 19.671875 64.59375 
L 19.671875 43.015625 
L 54.390625 43.015625 
L 54.390625 34.71875 
L 19.671875 34.71875 
L 19.671875 8.296875 
L 56.78125 8.296875 
L 56.78125 0 
L 9.8125 0 
z
" id="DejaVuSans-45"/>
      <path d="M 54.890625 54.6875 
L 35.109375 28.078125 
L 55.90625 0 
L 45.3125 0 
L 29.390625 21.484375 
L 13.484375 0 
L 2.875 0 
L 24.125 28.609375 
L 4.6875 54.6875 
L 15.28125 54.6875 
L 29.78125 35.203125 
L 44.28125 54.6875 
z
" id="DejaVuSans-78"/>
     </defs>
     <g transform="translate(468.113438 340.276875)scale(0.12 -0.12)">
      <use xlink:href="#DejaVuSans-45"/>
      <use x="63.183594" xlink:href="#DejaVuSans-78"/>
      <use x="122.363281" xlink:href="#DejaVuSans-69"/>
      <use x="150.146484" xlink:href="#DejaVuSans-74"/>
     </g>
    </g>
    <g id="line2d_54">
     <path d="M 434.513438 353.690625 
L 458.513438 353.690625 
" style="fill:none;stroke:#ffa500;stroke-linecap:square;stroke-width:3;"/>
    </g>
    <g id="line2d_55"/>
    <g id="text_15">
     <!-- Entry -->
     <g transform="translate(468.113438 357.890625)scale(0.12 -0.12)">
      <use xlink:href="#DejaVuSans-45"/>
      <use x="63.183594" xlink:href="#DejaVuSans-6e"/>
      <use x="126.5625" xlink:href="#DejaVuSans-74"/>
      <use x="165.771484" xlink:href="#DejaVuSans-72"/>
      <use x="206.884766" xlink:href="#DejaVuSans-79"/>
     </g>
    </g>
    <g id="line2d_56">
     <path d="M 434.513438 371.304375 
L 458.513438 371.304375 
" style="fill:none;stroke:#800000;stroke-linecap:square;stroke-width:3;"/>
    </g>
    <g id="line2d_57"/>
    <g id="text_16">
     <!-- Churn -->
     <g transform="translate(468.113438 375.504375)scale(0.12 -0.12)">
      <use xlink:href="#DejaVuSans-43"/>
      <use x="69.824219" xlink:href="#DejaVuSans-68"/>
      <use x="133.203125" xlink:href="#DejaVuSans-75"/>
      <use x="196.582031" xlink:href="#DejaVuSans-72"/>
      <use x="237.679688" xlink:href="#DejaVuSans-6e"/>
     </g>
    </g>
   </g>
  </g>
  <g id="text_17">
   <!-- Change in Labor force participation rate decomposed -->
   <defs>
    <path d="M 67 4 
Q 61.8125 1.3125 56.203125 -0.046875 
Q 50.59375 -1.421875 44.484375 -1.421875 
Q 26.265625 -1.421875 15.625 8.765625 
Q 4.984375 18.953125 4.984375 36.375 
Q 4.984375 53.859375 15.625 64.03125 
Q 26.265625 74.21875 44.484375 74.21875 
Q 50.59375 74.21875 56.203125 72.84375 
Q 61.8125 71.484375 67 68.796875 
L 67 53.71875 
Q 61.765625 57.28125 56.6875 58.9375 
Q 51.609375 60.59375 46 60.59375 
Q 35.9375 60.59375 30.171875 54.140625 
Q 24.421875 47.703125 24.421875 36.375 
Q 24.421875 25.09375 30.171875 18.640625 
Q 35.9375 12.203125 46 12.203125 
Q 51.609375 12.203125 56.6875 13.859375 
Q 61.765625 15.53125 67 19.09375 
z
" id="DejaVuSans-Bold-43"/>
    <path d="M 63.375 33.296875 
L 63.375 0 
L 45.796875 0 
L 45.796875 5.421875 
L 45.796875 25.390625 
Q 45.796875 32.5625 45.484375 35.25 
Q 45.171875 37.9375 44.390625 39.203125 
Q 43.359375 40.921875 41.59375 41.875 
Q 39.84375 42.828125 37.59375 42.828125 
Q 32.125 42.828125 29 38.59375 
Q 25.875 34.375 25.875 26.90625 
L 25.875 0 
L 8.40625 0 
L 8.40625 75.984375 
L 25.875 75.984375 
L 25.875 46.6875 
Q 29.828125 51.46875 34.265625 53.734375 
Q 38.71875 56 44.09375 56 
Q 53.5625 56 58.46875 50.1875 
Q 63.375 44.390625 63.375 33.296875 
z
" id="DejaVuSans-Bold-68"/>
    <path d="M 32.90625 24.609375 
Q 27.4375 24.609375 24.671875 22.75 
Q 21.921875 20.90625 21.921875 17.28125 
Q 21.921875 13.96875 24.140625 12.078125 
Q 26.375 10.203125 30.328125 10.203125 
Q 35.25 10.203125 38.625 13.734375 
Q 42 17.28125 42 22.609375 
L 42 24.609375 
z
M 59.625 31.203125 
L 59.625 0 
L 42 0 
L 42 8.109375 
Q 38.484375 3.125 34.078125 0.84375 
Q 29.6875 -1.421875 23.390625 -1.421875 
Q 14.890625 -1.421875 9.59375 3.53125 
Q 4.296875 8.5 4.296875 16.40625 
Q 4.296875 26.03125 10.90625 30.515625 
Q 17.53125 35.015625 31.6875 35.015625 
L 42 35.015625 
L 42 36.375 
Q 42 40.53125 38.71875 42.453125 
Q 35.453125 44.390625 28.515625 44.390625 
Q 22.90625 44.390625 18.0625 43.265625 
Q 13.234375 42.140625 9.078125 39.890625 
L 9.078125 53.21875 
Q 14.703125 54.59375 20.359375 55.296875 
Q 26.03125 56 31.6875 56 
Q 46.484375 56 53.046875 50.171875 
Q 59.625 44.34375 59.625 31.203125 
z
" id="DejaVuSans-Bold-61"/>
    <path d="M 63.375 33.296875 
L 63.375 0 
L 45.796875 0 
L 45.796875 5.421875 
L 45.796875 25.484375 
Q 45.796875 32.5625 45.484375 35.25 
Q 45.171875 37.9375 44.390625 39.203125 
Q 43.359375 40.921875 41.59375 41.875 
Q 39.84375 42.828125 37.59375 42.828125 
Q 32.125 42.828125 29 38.59375 
Q 25.875 34.375 25.875 26.90625 
L 25.875 0 
L 8.40625 0 
L 8.40625 54.6875 
L 25.875 54.6875 
L 25.875 46.6875 
Q 29.828125 51.46875 34.265625 53.734375 
Q 38.71875 56 44.09375 56 
Q 53.5625 56 58.46875 50.1875 
Q 63.375 44.390625 63.375 33.296875 
z
" id="DejaVuSans-Bold-6e"/>
    <path d="M 45.609375 9.28125 
Q 42 4.5 37.640625 2.25 
Q 33.296875 0 27.59375 0 
Q 17.578125 0 11.03125 7.875 
Q 4.5 15.765625 4.5 27.984375 
Q 4.5 40.234375 11.03125 48.0625 
Q 17.578125 55.90625 27.59375 55.90625 
Q 33.296875 55.90625 37.640625 53.65625 
Q 42 51.421875 45.609375 46.578125 
L 45.609375 54.6875 
L 63.1875 54.6875 
L 63.1875 5.515625 
Q 63.1875 -7.671875 54.859375 -14.625 
Q 46.53125 -21.578125 30.71875 -21.578125 
Q 25.59375 -21.578125 20.796875 -20.796875 
Q 16.015625 -20.015625 11.1875 -18.40625 
L 11.1875 -4.78125 
Q 15.765625 -7.421875 20.15625 -8.71875 
Q 24.5625 -10.015625 29 -10.015625 
Q 37.59375 -10.015625 41.59375 -6.25 
Q 45.609375 -2.484375 45.609375 5.515625 
z
M 34.078125 43.3125 
Q 28.65625 43.3125 25.625 39.296875 
Q 22.609375 35.296875 22.609375 27.984375 
Q 22.609375 20.453125 25.53125 16.578125 
Q 28.46875 12.703125 34.078125 12.703125 
Q 39.546875 12.703125 42.578125 16.703125 
Q 45.609375 20.703125 45.609375 27.984375 
Q 45.609375 35.296875 42.578125 39.296875 
Q 39.546875 43.3125 34.078125 43.3125 
z
" id="DejaVuSans-Bold-67"/>
    <path d="M 62.984375 27.484375 
L 62.984375 22.515625 
L 22.125 22.515625 
Q 22.75 16.359375 26.5625 13.28125 
Q 30.375 10.203125 37.203125 10.203125 
Q 42.71875 10.203125 48.5 11.84375 
Q 54.296875 13.484375 60.40625 16.796875 
L 60.40625 3.328125 
Q 54.203125 0.984375 48 -0.21875 
Q 41.796875 -1.421875 35.59375 -1.421875 
Q 20.75 -1.421875 12.515625 6.125 
Q 4.296875 13.671875 4.296875 27.296875 
Q 4.296875 40.671875 12.375 48.328125 
Q 20.453125 56 34.625 56 
Q 47.515625 56 55.25 48.234375 
Q 62.984375 40.484375 62.984375 27.484375 
z
M 45.015625 33.296875 
Q 45.015625 38.28125 42.109375 41.328125 
Q 39.203125 44.390625 34.515625 44.390625 
Q 29.4375 44.390625 26.265625 41.53125 
Q 23.09375 38.671875 22.3125 33.296875 
z
" id="DejaVuSans-Bold-65"/>
    <path id="DejaVuSans-Bold-20"/>
    <path d="M 8.40625 54.6875 
L 25.875 54.6875 
L 25.875 0 
L 8.40625 0 
z
M 8.40625 75.984375 
L 25.875 75.984375 
L 25.875 61.71875 
L 8.40625 61.71875 
z
" id="DejaVuSans-Bold-69"/>
    <path d="M 9.1875 72.90625 
L 27.984375 72.90625 
L 27.984375 14.203125 
L 60.984375 14.203125 
L 60.984375 0 
L 9.1875 0 
z
" id="DejaVuSans-Bold-4c"/>
    <path d="M 37.5 11.28125 
Q 43.109375 11.28125 46.0625 15.375 
Q 49.03125 19.484375 49.03125 27.296875 
Q 49.03125 35.109375 46.0625 39.203125 
Q 43.109375 43.3125 37.5 43.3125 
Q 31.890625 43.3125 28.875 39.1875 
Q 25.875 35.0625 25.875 27.296875 
Q 25.875 19.53125 28.875 15.40625 
Q 31.890625 11.28125 37.5 11.28125 
z
M 25.875 46.6875 
Q 29.5 51.46875 33.890625 53.734375 
Q 38.28125 56 44 56 
Q 54.109375 56 60.59375 47.96875 
Q 67.09375 39.9375 67.09375 27.296875 
Q 67.09375 14.65625 60.59375 6.609375 
Q 54.109375 -1.421875 44 -1.421875 
Q 38.28125 -1.421875 33.890625 0.84375 
Q 29.5 3.125 25.875 7.90625 
L 25.875 0 
L 8.40625 0 
L 8.40625 75.984375 
L 25.875 75.984375 
z
" id="DejaVuSans-Bold-62"/>
    <path d="M 34.421875 43.5 
Q 28.609375 43.5 25.5625 39.328125 
Q 22.515625 35.15625 22.515625 27.296875 
Q 22.515625 19.4375 25.5625 15.25 
Q 28.609375 11.078125 34.421875 11.078125 
Q 40.140625 11.078125 43.15625 15.25 
Q 46.1875 19.4375 46.1875 27.296875 
Q 46.1875 35.15625 43.15625 39.328125 
Q 40.140625 43.5 34.421875 43.5 
z
M 34.421875 56 
Q 48.53125 56 56.46875 48.375 
Q 64.40625 40.765625 64.40625 27.296875 
Q 64.40625 13.8125 56.46875 6.1875 
Q 48.53125 -1.421875 34.421875 -1.421875 
Q 20.265625 -1.421875 12.28125 6.1875 
Q 4.296875 13.8125 4.296875 27.296875 
Q 4.296875 40.765625 12.28125 48.375 
Q 20.265625 56 34.421875 56 
z
" id="DejaVuSans-Bold-6f"/>
    <path d="M 49.03125 39.796875 
Q 46.734375 40.875 44.453125 41.375 
Q 42.1875 41.890625 39.890625 41.890625 
Q 33.15625 41.890625 29.515625 37.5625 
Q 25.875 33.25 25.875 25.203125 
L 25.875 0 
L 8.40625 0 
L 8.40625 54.6875 
L 25.875 54.6875 
L 25.875 45.703125 
Q 29.25 51.078125 33.609375 53.53125 
Q 37.984375 56 44.09375 56 
Q 44.96875 56 45.984375 55.921875 
Q 47.015625 55.859375 48.96875 55.609375 
z
" id="DejaVuSans-Bold-72"/>
    <path d="M 44.390625 75.984375 
L 44.390625 64.5 
L 34.71875 64.5 
Q 31 64.5 29.53125 63.15625 
Q 28.078125 61.8125 28.078125 58.5 
L 28.078125 54.6875 
L 43.015625 54.6875 
L 43.015625 42.1875 
L 28.078125 42.1875 
L 28.078125 0 
L 10.59375 0 
L 10.59375 42.1875 
L 1.90625 42.1875 
L 1.90625 54.6875 
L 10.59375 54.6875 
L 10.59375 58.5 
Q 10.59375 67.4375 15.578125 71.703125 
Q 20.5625 75.984375 31 75.984375 
z
" id="DejaVuSans-Bold-66"/>
    <path d="M 52.59375 52.984375 
L 52.59375 38.71875 
Q 49.03125 41.15625 45.4375 42.328125 
Q 41.84375 43.5 37.984375 43.5 
Q 30.671875 43.5 26.59375 39.234375 
Q 22.515625 34.96875 22.515625 27.296875 
Q 22.515625 19.625 26.59375 15.34375 
Q 30.671875 11.078125 37.984375 11.078125 
Q 42.09375 11.078125 45.78125 12.296875 
Q 49.46875 13.53125 52.59375 15.921875 
L 52.59375 1.609375 
Q 48.484375 0.09375 44.265625 -0.65625 
Q 40.046875 -1.421875 35.796875 -1.421875 
Q 21 -1.421875 12.640625 6.171875 
Q 4.296875 13.765625 4.296875 27.296875 
Q 4.296875 40.828125 12.640625 48.40625 
Q 21 56 35.796875 56 
Q 40.09375 56 44.265625 55.25 
Q 48.4375 54.5 52.59375 52.984375 
z
" id="DejaVuSans-Bold-63"/>
    <path d="M 25.875 7.90625 
L 25.875 -20.796875 
L 8.40625 -20.796875 
L 8.40625 54.6875 
L 25.875 54.6875 
L 25.875 46.6875 
Q 29.5 51.46875 33.890625 53.734375 
Q 38.28125 56 44 56 
Q 54.109375 56 60.59375 47.96875 
Q 67.09375 39.9375 67.09375 27.296875 
Q 67.09375 14.65625 60.59375 6.609375 
Q 54.109375 -1.421875 44 -1.421875 
Q 38.28125 -1.421875 33.890625 0.84375 
Q 29.5 3.125 25.875 7.90625 
z
M 37.5 43.3125 
Q 31.890625 43.3125 28.875 39.1875 
Q 25.875 35.0625 25.875 27.296875 
Q 25.875 19.53125 28.875 15.40625 
Q 31.890625 11.28125 37.5 11.28125 
Q 43.109375 11.28125 46.0625 15.375 
Q 49.03125 19.484375 49.03125 27.296875 
Q 49.03125 35.109375 46.0625 39.203125 
Q 43.109375 43.3125 37.5 43.3125 
z
" id="DejaVuSans-Bold-70"/>
    <path d="M 27.484375 70.21875 
L 27.484375 54.6875 
L 45.515625 54.6875 
L 45.515625 42.1875 
L 27.484375 42.1875 
L 27.484375 19 
Q 27.484375 15.1875 29 13.84375 
Q 30.515625 12.5 35.015625 12.5 
L 44 12.5 
L 44 0 
L 29 0 
Q 18.65625 0 14.328125 4.3125 
Q 10.015625 8.640625 10.015625 19 
L 10.015625 42.1875 
L 1.3125 42.1875 
L 1.3125 54.6875 
L 10.015625 54.6875 
L 10.015625 70.21875 
z
" id="DejaVuSans-Bold-74"/>
    <path d="M 45.609375 46.6875 
L 45.609375 75.984375 
L 63.1875 75.984375 
L 63.1875 0 
L 45.609375 0 
L 45.609375 7.90625 
Q 42 3.078125 37.640625 0.828125 
Q 33.296875 -1.421875 27.59375 -1.421875 
Q 17.484375 -1.421875 10.984375 6.609375 
Q 4.5 14.65625 4.5 27.296875 
Q 4.5 39.9375 10.984375 47.96875 
Q 17.484375 56 27.59375 56 
Q 33.25 56 37.625 53.734375 
Q 42 51.46875 45.609375 46.6875 
z
M 34.078125 11.28125 
Q 39.703125 11.28125 42.65625 15.375 
Q 45.609375 19.484375 45.609375 27.296875 
Q 45.609375 35.109375 42.65625 39.203125 
Q 39.703125 43.3125 34.078125 43.3125 
Q 28.515625 43.3125 25.5625 39.203125 
Q 22.609375 35.109375 22.609375 27.296875 
Q 22.609375 19.484375 25.5625 15.375 
Q 28.515625 11.28125 34.078125 11.28125 
z
" id="DejaVuSans-Bold-64"/>
    <path d="M 59.078125 45.609375 
Q 62.40625 50.6875 66.96875 53.34375 
Q 71.53125 56 77 56 
Q 86.421875 56 91.359375 50.1875 
Q 96.296875 44.390625 96.296875 33.296875 
L 96.296875 0 
L 78.71875 0 
L 78.71875 28.515625 
Q 78.765625 29.15625 78.78125 29.828125 
Q 78.8125 30.515625 78.8125 31.78125 
Q 78.8125 37.59375 77.09375 40.203125 
Q 75.390625 42.828125 71.578125 42.828125 
Q 66.609375 42.828125 63.890625 38.71875 
Q 61.1875 34.625 61.078125 26.859375 
L 61.078125 0 
L 43.5 0 
L 43.5 28.515625 
Q 43.5 37.59375 41.9375 40.203125 
Q 40.375 42.828125 36.375 42.828125 
Q 31.34375 42.828125 28.609375 38.703125 
Q 25.875 34.578125 25.875 26.90625 
L 25.875 0 
L 8.296875 0 
L 8.296875 54.6875 
L 25.875 54.6875 
L 25.875 46.6875 
Q 29.109375 51.3125 33.28125 53.65625 
Q 37.453125 56 42.484375 56 
Q 48.140625 56 52.484375 53.265625 
Q 56.84375 50.53125 59.078125 45.609375 
z
" id="DejaVuSans-Bold-6d"/>
    <path d="M 51.125 52.984375 
L 51.125 39.703125 
Q 45.515625 42.046875 40.28125 43.21875 
Q 35.0625 44.390625 30.421875 44.390625 
Q 25.4375 44.390625 23.015625 43.140625 
Q 20.609375 41.890625 20.609375 39.3125 
Q 20.609375 37.203125 22.4375 36.078125 
Q 24.265625 34.96875 29 34.421875 
L 32.078125 33.984375 
Q 45.515625 32.28125 50.140625 28.375 
Q 54.78125 24.46875 54.78125 16.109375 
Q 54.78125 7.375 48.328125 2.96875 
Q 41.890625 -1.421875 29.109375 -1.421875 
Q 23.6875 -1.421875 17.890625 -0.5625 
Q 12.109375 0.296875 6 2 
L 6 15.28125 
Q 11.234375 12.75 16.71875 11.46875 
Q 22.21875 10.203125 27.875 10.203125 
Q 33.015625 10.203125 35.59375 11.609375 
Q 38.1875 13.03125 38.1875 15.828125 
Q 38.1875 18.171875 36.40625 19.3125 
Q 34.625 20.453125 29.296875 21.09375 
L 26.21875 21.484375 
Q 14.546875 22.953125 9.859375 26.90625 
Q 5.171875 30.859375 5.171875 38.921875 
Q 5.171875 47.609375 11.125 51.796875 
Q 17.09375 56 29.390625 56 
Q 34.234375 56 39.546875 55.265625 
Q 44.875 54.546875 51.125 52.984375 
z
" id="DejaVuSans-Bold-73"/>
   </defs>
   <g transform="translate(72.9 26.87625)scale(0.24 -0.24)">
    <use xlink:href="#DejaVuSans-Bold-43"/>
    <use x="73.388672" xlink:href="#DejaVuSans-Bold-68"/>
    <use x="144.580078" xlink:href="#DejaVuSans-Bold-61"/>
    <use x="212.060547" xlink:href="#DejaVuSans-Bold-6e"/>
    <use x="283.251953" xlink:href="#DejaVuSans-Bold-67"/>
    <use x="354.833984" xlink:href="#DejaVuSans-Bold-65"/>
    <use x="422.65625" xlink:href="#DejaVuSans-Bold-20"/>
    <use x="457.470703" xlink:href="#DejaVuSans-Bold-69"/>
    <use x="491.748047" xlink:href="#DejaVuSans-Bold-6e"/>
    <use x="562.939453" xlink:href="#DejaVuSans-Bold-20"/>
    <use x="597.753906" xlink:href="#DejaVuSans-Bold-4c"/>
    <use x="661.474609" xlink:href="#DejaVuSans-Bold-61"/>
    <use x="728.955078" xlink:href="#DejaVuSans-Bold-62"/>
    <use x="800.537109" xlink:href="#DejaVuSans-Bold-6f"/>
    <use x="869.238281" xlink:href="#DejaVuSans-Bold-72"/>
    <use x="918.554688" xlink:href="#DejaVuSans-Bold-20"/>
    <use x="953.369141" xlink:href="#DejaVuSans-Bold-66"/>
    <use x="996.875" xlink:href="#DejaVuSans-Bold-6f"/>
    <use x="1065.576172" xlink:href="#DejaVuSans-Bold-72"/>
    <use x="1114.892578" xlink:href="#DejaVuSans-Bold-63"/>
    <use x="1174.169922" xlink:href="#DejaVuSans-Bold-65"/>
    <use x="1241.992188" xlink:href="#DejaVuSans-Bold-20"/>
    <use x="1276.806641" xlink:href="#DejaVuSans-Bold-70"/>
    <use x="1348.388672" xlink:href="#DejaVuSans-Bold-61"/>
    <use x="1415.869141" xlink:href="#DejaVuSans-Bold-72"/>
    <use x="1465.185547" xlink:href="#DejaVuSans-Bold-74"/>
    <use x="1512.988281" xlink:href="#DejaVuSans-Bold-69"/>
    <use x="1547.265625" xlink:href="#DejaVuSans-Bold-63"/>
    <use x="1606.542969" xlink:href="#DejaVuSans-Bold-69"/>
    <use x="1640.820312" xlink:href="#DejaVuSans-Bold-70"/>
    <use x="1712.402344" xlink:href="#DejaVuSans-Bold-61"/>
    <use x="1779.882812" xlink:href="#DejaVuSans-Bold-74"/>
    <use x="1827.685547" xlink:href="#DejaVuSans-Bold-69"/>
    <use x="1861.962891" xlink:href="#DejaVuSans-Bold-6f"/>
    <use x="1930.664062" xlink:href="#DejaVuSans-Bold-6e"/>
    <use x="2001.855469" xlink:href="#DejaVuSans-Bold-20"/>
    <use x="2036.669922" xlink:href="#DejaVuSans-Bold-72"/>
    <use x="2085.986328" xlink:href="#DejaVuSans-Bold-61"/>
    <use x="2153.466797" xlink:href="#DejaVuSans-Bold-74"/>
    <use x="2201.269531" xlink:href="#DejaVuSans-Bold-65"/>
    <use x="2269.091797" xlink:href="#DejaVuSans-Bold-20"/>
    <use x="2303.90625" xlink:href="#DejaVuSans-Bold-64"/>
    <use x="2375.488281" xlink:href="#DejaVuSans-Bold-65"/>
    <use x="2443.310547" xlink:href="#DejaVuSans-Bold-63"/>
    <use x="2502.587891" xlink:href="#DejaVuSans-Bold-6f"/>
    <use x="2571.289062" xlink:href="#DejaVuSans-Bold-6d"/>
    <use x="2675.488281" xlink:href="#DejaVuSans-Bold-70"/>
    <use x="2747.070312" xlink:href="#DejaVuSans-Bold-6f"/>
    <use x="2815.771484" xlink:href="#DejaVuSans-Bold-73"/>
    <use x="2875.292969" xlink:href="#DejaVuSans-Bold-65"/>
    <use x="2943.115234" xlink:href="#DejaVuSans-Bold-64"/>
   </g>
  </g>
  <g id="text_18">
   <!-- Source: Bureau of Labor Statistics -->
   <defs>
    <path d="M 53.515625 70.515625 
L 53.515625 60.890625 
Q 47.90625 63.578125 42.921875 64.890625 
Q 37.9375 66.21875 33.296875 66.21875 
Q 25.25 66.21875 20.875 63.09375 
Q 16.5 59.96875 16.5 54.203125 
Q 16.5 49.359375 19.40625 46.890625 
Q 22.3125 44.4375 30.421875 42.921875 
L 36.375 41.703125 
Q 47.40625 39.59375 52.65625 34.296875 
Q 57.90625 29 57.90625 20.125 
Q 57.90625 9.515625 50.796875 4.046875 
Q 43.703125 -1.421875 29.984375 -1.421875 
Q 24.8125 -1.421875 18.96875 -0.25 
Q 13.140625 0.921875 6.890625 3.21875 
L 6.890625 13.375 
Q 12.890625 10.015625 18.65625 8.296875 
Q 24.421875 6.59375 29.984375 6.59375 
Q 38.421875 6.59375 43.015625 9.90625 
Q 47.609375 13.234375 47.609375 19.390625 
Q 47.609375 24.75 44.3125 27.78125 
Q 41.015625 30.8125 33.5 32.328125 
L 27.484375 33.5 
Q 16.453125 35.6875 11.515625 40.375 
Q 6.59375 45.0625 6.59375 53.421875 
Q 6.59375 63.09375 13.40625 68.65625 
Q 20.21875 74.21875 32.171875 74.21875 
Q 37.3125 74.21875 42.625 73.28125 
Q 47.953125 72.359375 53.515625 70.515625 
z
" id="DejaVuSans-53"/>
    <path d="M 11.71875 12.40625 
L 22.015625 12.40625 
L 22.015625 0 
L 11.71875 0 
z
M 11.71875 51.703125 
L 22.015625 51.703125 
L 22.015625 39.3125 
L 11.71875 39.3125 
z
" id="DejaVuSans-3a"/>
    <path d="M 19.671875 34.8125 
L 19.671875 8.109375 
L 35.5 8.109375 
Q 43.453125 8.109375 47.28125 11.40625 
Q 51.125 14.703125 51.125 21.484375 
Q 51.125 28.328125 47.28125 31.5625 
Q 43.453125 34.8125 35.5 34.8125 
z
M 19.671875 64.796875 
L 19.671875 42.828125 
L 34.28125 42.828125 
Q 41.5 42.828125 45.03125 45.53125 
Q 48.578125 48.25 48.578125 53.8125 
Q 48.578125 59.328125 45.03125 62.0625 
Q 41.5 64.796875 34.28125 64.796875 
z
M 9.8125 72.90625 
L 35.015625 72.90625 
Q 46.296875 72.90625 52.390625 68.21875 
Q 58.5 63.53125 58.5 54.890625 
Q 58.5 48.1875 55.375 44.234375 
Q 52.25 40.28125 46.1875 39.3125 
Q 53.46875 37.75 57.5 32.78125 
Q 61.53125 27.828125 61.53125 20.40625 
Q 61.53125 10.640625 54.890625 5.3125 
Q 48.25 0 35.984375 0 
L 9.8125 0 
z
" id="DejaVuSans-42"/>
    <path d="M 37.109375 75.984375 
L 37.109375 68.5 
L 28.515625 68.5 
Q 23.6875 68.5 21.796875 66.546875 
Q 19.921875 64.59375 19.921875 59.515625 
L 19.921875 54.6875 
L 34.71875 54.6875 
L 34.71875 47.703125 
L 19.921875 47.703125 
L 19.921875 0 
L 10.890625 0 
L 10.890625 47.703125 
L 2.296875 47.703125 
L 2.296875 54.6875 
L 10.890625 54.6875 
L 10.890625 58.5 
Q 10.890625 67.625 15.140625 71.796875 
Q 19.390625 75.984375 28.609375 75.984375 
z
" id="DejaVuSans-66"/>
   </defs>
   <g transform="translate(72.9 421.2)scale(0.1 -0.1)">
    <use xlink:href="#DejaVuSans-53"/>
    <use x="63.476562" xlink:href="#DejaVuSans-6f"/>
    <use x="124.658203" xlink:href="#DejaVuSans-75"/>
    <use x="188.037109" xlink:href="#DejaVuSans-72"/>
    <use x="229.119141" xlink:href="#DejaVuSans-63"/>
    <use x="284.099609" xlink:href="#DejaVuSans-65"/>
    <use x="345.623047" xlink:href="#DejaVuSans-3a"/>
    <use x="379.314453" xlink:href="#DejaVuSans-20"/>
    <use x="411.101562" xlink:href="#DejaVuSans-42"/>
    <use x="479.705078" xlink:href="#DejaVuSans-75"/>
    <use x="543.083984" xlink:href="#DejaVuSans-72"/>
    <use x="584.166016" xlink:href="#DejaVuSans-65"/>
    <use x="645.689453" xlink:href="#DejaVuSans-61"/>
    <use x="706.96875" xlink:href="#DejaVuSans-75"/>
    <use x="770.347656" xlink:href="#DejaVuSans-20"/>
    <use x="802.134766" xlink:href="#DejaVuSans-6f"/>
    <use x="863.316406" xlink:href="#DejaVuSans-66"/>
    <use x="898.521484" xlink:href="#DejaVuSans-20"/>
    <use x="930.308594" xlink:href="#DejaVuSans-4c"/>
    <use x="986.021484" xlink:href="#DejaVuSans-61"/>
    <use x="1047.300781" xlink:href="#DejaVuSans-62"/>
    <use x="1110.777344" xlink:href="#DejaVuSans-6f"/>
    <use x="1171.958984" xlink:href="#DejaVuSans-72"/>
    <use x="1213.072266" xlink:href="#DejaVuSans-20"/>
    <use x="1244.859375" xlink:href="#DejaVuSans-53"/>
    <use x="1308.335938" xlink:href="#DejaVuSans-74"/>
    <use x="1347.544922" xlink:href="#DejaVuSans-61"/>
    <use x="1408.824219" xlink:href="#DejaVuSans-74"/>
    <use x="1448.033203" xlink:href="#DejaVuSans-69"/>
    <use x="1475.816406" xlink:href="#DejaVuSans-73"/>
    <use x="1527.916016" xlink:href="#DejaVuSans-74"/>
    <use x="1567.125" xlink:href="#DejaVuSans-69"/>
    <use x="1594.908203" xlink:href="#DejaVuSans-63"/>
    <use x="1649.888672" xlink:href="#DejaVuSans-73"/>
   </g>
  </g>
 </g>
 <defs>
  <clipPath id="pf6c0ebaa56">
   <rect height="336.96" width="850.5" x="72.9" y="51.84"/>
  </clipPath>
 </defs>
</svg>
